<?xml version="1.0" encoding="utf-8"?>
<!-- Generator: Adobe Illustrator 18.1.1, SVG Export Plug-In . SVG Version: 6.00 Build 0)  -->
<svg version="1.1" id="Layer_1" xmlns="http://www.w3.org/2000/svg" xmlns:xlink="http://www.w3.org/1999/xlink" x="0px" y="0px"
	 viewBox="0 0 391.5 262.5" enable-background="new 0 0 391.5 262.5" xml:space="preserve">
<g>
	<g>
		<path id="path4269_1_" fill="#808285" d="M161.3,250.5c-30.1-1.8-54.3-8.2-75.6-20.4c-8.7-5-18.8-12.9-25.2-19.8
			c-19.7-21.2-31.4-55.6-30.2-88.7c0.6-16.2,3.5-28.7,11.9-51.8c6.8-18.5,7.2-19.9,8.5-27c1.4-7.8,1.3-12.9-0.2-19.6
			c-1.4-6-1.6-9.6-0.6-10.9c0.6-0.8,9-0.9,145.9-0.9l145.2,0l0.6,1.3c0.9,2,0.7,5.7-0.7,11c-3,11.4-1.3,20.9,8.1,45.8
			c11.2,29.6,14.2,50.4,10.8,74.9c-3.8,27.6-15.1,52.1-31.6,68.5c-4.9,4.9-7.6,7.1-15.3,12.2c-12.1,8.1-23.2,13.2-37.7,17.6
			c-21.3,6.4-39.6,8.2-81,8.1C180.3,251,165.4,250.7,161.3,250.5L161.3,250.5z M230.9,249c20.3-1.1,38.9-4.7,53.6-10.3
			c3-1.2,5.8-2.2,6-2.2c0.3-0.1,1.3-0.5,2.2-1c0.9-0.5,1.7-0.8,1.7-0.6c0,0.4,6.8-3.4,13.4-7.3c23.3-14.2,38.4-34.5,46.5-62.3
			c3.9-13.3,5.6-25.3,5.5-38.9c0-19.8-2.4-30.3-13-59.3c-5.9-16.2-7.9-23.3-8.3-30.7c-0.3-5.8-0.4-5.6,2.3-17.7
			c0.3-1.6,0.5-3.5,0.3-4.2c-0.6-2.3-1.7-2.5-8.3-1.7c-5.2,0.6-6.7,0.6-12,0c-3.3-0.4-7.2-0.7-8.6-0.7l-2.6,0l2.3,1.1
			c1.3,0.6,3.5,1.4,4.9,1.8c3.2,0.9,15,1,19.6,0.1c1.8-0.3,3.4-0.4,3.6-0.3c0.2,0.2-0.2,1.2-0.8,2.4c-2,3.6-3.2,8.6-3.5,14.9
			c-0.4,8.2,1.1,14.9,6.7,30.7c10.5,29.6,13,38.6,14.3,50.9c0.9,8.9,0.4,26.2-1.1,34.3c-7.8,44.3-30.4,72.3-70.9,87.8
			c-14.4,5.5-32.6,9.1-52.2,10.5c-16.1,1.1-58.4,1.1-73.9,0c-34.9-2.4-61.7-11.3-83.1-27.6C54.8,203,41.6,179.7,36,148.8
			c-1.6-8.6-2.2-25.9-1.3-35c1.3-12.1,4.7-24.3,16.1-56.5c3.9-11.1,5.2-18,4.8-25.7c-0.3-6.2-1.4-10.6-3.5-14.3
			c-0.7-1.2-1-2.2-0.9-2.4c0.2-0.2,1.9,0,3.9,0.3c5,0.8,16.2,0.7,19.3-0.1c1.4-0.4,3.6-1.2,4.9-1.7l2.3-1.1L79,12
			c-1.6,0-5.4,0.3-8.6,0.7c-5.1,0.7-6.5,0.7-12,0c-4.6-0.6-6.4-0.6-6.9-0.2c-1.4,1.2-1.4,3.9,0.1,9.8c1.2,5,1.4,6.7,1.4,12.2
			c-0.1,8.1-1.6,14.5-7,29c-11.7,31.4-14.2,42.8-14.3,63c0,11.7,1,20.6,4,33.2c2.6,11.1,9.3,27.1,15.4,36.5
			c14.9,23.1,39.5,39.1,73,47.5c14.5,3.6,30.4,5.3,55.5,5.9C190.8,250,220.7,249.5,230.9,249z M185.3,246.1c-1-0.1-2.9-0.1-4.1,0
			c-1.2,0.1-0.4,0.2,1.9,0.2C185.4,246.3,186.4,246.2,185.3,246.1L185.3,246.1z M211.5,246.1c-0.5-0.1-1.3-0.1-1.8,0
			c-0.5,0.1-0.1,0.2,0.9,0.2C211.6,246.3,212,246.2,211.5,246.1z M169.9,245.6c-1.1-0.1-2.7-0.1-3.6,0c-0.9,0.1,0,0.2,1.9,0.2
			C170.2,245.8,170.9,245.7,169.9,245.6L169.9,245.6z M239.9,243.9c14.3-1.4,27.2-4.1,39.1-8.1c5-1.7,10.3-3.7,12-4.4
			c2-0.9,3-1.1,3-0.7c0,0.4,0.2,0.4,0.5-0.1c0.3-0.4,0.5-0.6,0.5-0.3c0,0.3,0.3,0.1,0.7-0.5c0.4-0.6,0.9-0.8,1.4-0.5
			c0.4,0.3,0.5,0.2,0.3-0.1c-0.4-0.7,8.2-5.4,9-5c0.3,0.2,0.4,0.1,0.2-0.2c-0.4-0.6,1.5-1.9,2.2-1.4c0.6,0.4,2.7-1.2,2.4-1.7
			c-0.1-0.2,0.1-0.6,0.5-0.7c0.5-0.2,0.7-0.1,0.4,0.3c-0.3,0.5-0.2,0.4,0.4,0c0.4-0.4,0.7-0.9,0.7-1.2c0-0.3,0.3-0.7,0.7-0.8
			c0.5-0.2,0.6,0,0.3,0.4c-0.3,0.4-0.2,0.5,0.2,0.3c0.3-0.2,0.5-0.6,0.3-0.8c-0.1-0.2,1.2-1.6,2.9-3c13.7-10.9,25-28.2,31.4-48.2
			c4.5-13.8,6.2-25,6.2-40.6c0-19.3-2.5-30.8-12.4-57.1c-3.7-9.8-7.5-22.1-8.3-26.8c-1.3-7.6-0.5-18.2,2-23.7
			c0.6-1.3,1.1-2.4,1.1-2.5c0-0.1-1.1,0.1-2.4,0.3c-1.3,0.2-5.6,0.4-9.4,0.4c-8,0-11-0.6-16.4-3.3l-3.6-1.8h-17.5
			c-12,0-17.5,0.2-17.5,0.5c0,0.3,0.6,3,1.2,6c2.1,9.3,5.8,17.6,9.3,20.6c1.8,1.6,2.9,1.8,5.8,1.3c1.9-0.4,6.2-4,6.2-5.2
			c0-0.5-0.9-2.2-2-3.9c-2-3.1-2.3-3.9-2.2-6.6c0.1-1.8,3.1-5.2,5.3-5.9c7.5-2.3,12.9,7.4,8.7,15.6c-7,13.5-21,17.4-29.2,8.2
			c-3.6-4.1-7.3-13.2-10.2-24.9l-1.4-5.8h-13.8h-13.8l0.5,1.7c0.3,1,0.5,32,0.5,76.7c0,68.9-0.1,76.4-1,91.5
			c-0.8,13.7-4.8,53-5.4,53.7c-0.1,0.1-3.2-0.1-7-0.5c-9.1-0.9-40.8-0.9-51.7,0c-4.6,0.4-8.4,0.6-8.5,0.5c-0.6-0.7-4.6-40-5.5-54.1
			c-0.9-15.6-1-22.8-1-91.9c0-47.5,0.2-75.5,0.5-76.3l0.5-1.3h-13.7h-13.7l-0.9,4.2c-0.5,2.3-1.9,7-3,10.4
			c-4.4,13.2-7.9,18.3-13.9,20.2c-3.9,1.2-8.3,1.1-11.5-0.3c-7.2-3.2-14-13.3-13-19.6c0.7-4.7,4.1-8.1,8.2-8.3
			c3.8-0.2,7.2,3.6,7.2,7.9c0,2.1-0.3,2.9-2.1,5.2C99,33.1,98,34.8,98,35.3c0,2.1,5.7,5.5,9.3,5.5c4,0,11.3-14.8,13-26.4l0.4-2.4
			h-17.7H85.4l-2.9,1.6c-7.1,3.8-18.4,5-28,2.8c-1.1-0.3-1.1-0.2-0.4,0.9c2.7,4.2,4.1,14.3,3.1,22.7c-0.9,7.4-2.4,12.6-9.6,32.5
			C39,96.2,36.6,106.5,36,122c-0.4,10.7,0.3,17.6,2.8,30.6c3.1,15.8,9.3,31.4,16.7,42.4c3.7,5.5,9.5,12.2,14.5,16.8
			c2.4,2.2,4.3,4.1,4.2,4.2c-0.1,0.2,0,0.3,0.2,0.3c1.1,0.2,2.5,1.4,2.3,1.9c-0.2,0.3-0.1,0.4,0.2,0.2c0.6-0.4,10.7,6.2,10.5,6.9
			c-0.1,0.3,0.3,0.3,0.7,0.1c0.6-0.2,0.7-0.1,0.4,0.4c-0.3,0.4-0.2,0.6,0.1,0.3c0.3-0.2,2.3,0.5,4.3,1.5
			c14.1,7.1,31.2,12.4,48.4,14.9C160.4,245.5,216.6,246.2,239.9,243.9z M242.6,244.6c-0.4-0.1-0.9-0.1-1.3,0
			c-0.4,0.1-0.1,0.3,0.6,0.3C242.7,244.8,243,244.7,242.6,244.6z M280,236.7c0.9-0.6,0.1-0.6-1.3,0c-0.7,0.3-0.8,0.4-0.3,0.5
			C278.9,237.2,279.6,236.9,280,236.7z M184.3,233.6l7.3,0v-79.9v-80h-14.4h-14.4v80.6v80.6l7.1-0.6
			C173.8,233.9,180.3,233.6,184.3,233.6L184.3,233.6z M167,90.6c-1.5-1.5-0.3-6.6,1.5-6.6c1.2,0,2,3.8,1.3,6
			C169.4,91.3,168,91.5,167,90.6z M169.5,87.6c0-0.7-0.2-1.7-0.5-2.1c-0.4-0.7-0.6-0.6-1.3,0.2c-0.9,1.2-1,2.5-0.2,4
			c0.6,1,0.6,1,1.3,0.1C169.2,89.4,169.5,88.3,169.5,87.6z M184.9,89.7c-1.3-3.1,0.9-6.8,2.7-4.7c0.9,1,1.1,3.8,0.3,5.3
			C187.2,91.7,185.7,91.4,184.9,89.7z M187.5,87.5c0-2-0.9-3.1-1.6-1.9c-0.7,1-0.6,3.7,0.1,4.5C186.9,90.9,187.5,89.9,187.5,87.5z
			 M228.6,154.2V73.7h-11.8H205v5c0,4,0.2,5.2,0.9,6c1.2,1.3,1.1,5.4,0,6.3c-0.8,0.6-0.9,6.2-0.9,71.6v71l6,0.1
			c3.3,0,7.7,0.2,9.6,0.4c2,0.2,4.6,0.4,5.8,0.5l2.2,0.1L228.6,154.2L228.6,154.2z M221.7,90.4c-0.2-0.5-0.3-1.8-0.3-3.1
			c0-1.8,0.2-2.4,1.1-2.8c0.9-0.5,1.2-0.4,1.8,0.3c0.9,1.2,0.9,4.9,0.1,5.8C223.5,91.4,222.1,91.3,221.7,90.4L221.7,90.4z
			 M224.3,88.6c0.2-0.8,0.1-2-0.3-2.7c-0.6-1.1-0.6-1.1-1.3-0.2c-0.8,1.1-0.9,2.5-0.2,3.9C223.2,91,223.8,90.6,224.3,88.6
			L224.3,88.6z M203.8,162c-0.1-39.4-0.4-72.6-0.6-73.8c-0.2-1.5-0.2-2.4,0.2-2.8c0.4-0.4,0.6-2.7,0.6-6.1v-5.6h-5.7h-5.7v80v79.9
			h5.7h5.7L203.8,162z M291.4,232.3c0.7-0.4,1.1-0.7,0.8-0.7c-0.3,0-1.1,0.3-1.8,0.7c-0.7,0.4-1.1,0.7-0.8,0.7
			C289.8,233,290.6,232.7,291.4,232.3z M160.3,206c-0.5-7.4-1.6-37.3-1.6-42.2c0-1.3-0.2-1.7-1.2-1.8l-1.2-0.2l0.4,5.9
			c0.2,3.3,0.6,10.5,0.9,16c0.6,10.1,2.6,31.5,3,31.2C160.7,214.8,160.6,210.8,160.3,206z M232.2,204c0.6-5.9,1.5-17.9,2-26.5
			l0.9-15.7L234,162c-1.1,0.2-1.1,0.5-1.4,11.1c-0.5,16.7-1.3,34.7-1.7,38.6c-0.2,2-0.2,3.5-0.1,3.3C231,214.9,231.6,210,232.2,204
			L232.2,204z M161.8,143.4c0-64.1-0.1-69.6-0.8-69.9c-0.5-0.2-1-0.2-1.2,0c-0.6,0.6-0.3,93.2,0.3,109.7c0.9,21.4,1.3,29.8,1.5,29.8
			C161.7,213,161.8,181.7,161.8,143.4z M231.3,184c0.7-17.8,1-109.9,0.4-110.5c-0.2-0.2-0.7-0.1-1.1,0c-0.8,0.3-0.8,5.8-0.8,70.1
			C229.8,213.3,230,217.7,231.3,184z M63.6,206.3c-1.5-1.7-2.8-3.1-3-3.1c-0.3,0,0.7,1.2,3.7,4.5C66.9,210.6,66.4,209.6,63.6,206.3z
			 M327.9,207c0.6-0.8,0.6-0.8-0.2-0.2c-0.5,0.4-0.9,0.8-0.9,0.9C326.8,208.1,327.2,207.8,327.9,207z M45,176.1
			c-0.3-0.9-0.7-1.6-0.8-1.4c-0.1,0.1,0.1,0.9,0.4,1.8c0.3,0.9,0.7,1.6,0.8,1.5C45.5,177.8,45.3,177,45,176.1z M43.5,171.9
			c-0.3-0.9-0.7-1.6-0.8-1.4c-0.1,0.1,0.1,0.9,0.4,1.9c0.3,0.9,0.7,1.6,0.8,1.4C44,173.7,43.8,172.9,43.5,171.9z M158.7,89.6
			c0-71.1,0-71.5-1-71.5c-1,0-1,0.3-1,19.7c0,10.8-0.1,43-0.3,71.5l-0.3,51.8h1.3h1.3L158.7,89.6L158.7,89.6z M235.1,102.4
			c-0.2-32.3-0.3-64.5-0.3-71.5c0-12.4,0-12.7-1-12.7c-1,0-1,0.3-1,71.5v71.5h1.4h1.3L235.1,102.4L235.1,102.4z M38.7,156.4
			c-0.2-0.4-0.3-0.3-0.3,0.3c0,0.5,0.1,0.8,0.3,0.7C38.9,157.2,38.9,156.7,38.7,156.4z M38.2,153.8c-0.1-0.4-0.3-0.1-0.3,0.6
			s0.1,1,0.3,0.6C38.4,154.7,38.4,154.1,38.2,153.8z M37.7,151.2c-0.1-0.4-0.3-0.1-0.3,0.6c0,0.7,0.1,1,0.3,0.6
			C37.8,152.1,37.8,151.6,37.7,151.2z M37.2,148.7c-0.2-0.4-0.3-0.3-0.3,0.3c0,0.5,0.1,0.8,0.3,0.7C37.3,149.5,37.3,149,37.2,148.7z
			 M206,87.6c0-1.9-0.8-3-1.6-2.3c-0.7,0.7-0.8,3.9-0.2,4.8C204.8,91.1,206,89.3,206,87.6L206,87.6z M184.5,72.3
			c-4-0.1-10.6-0.1-14.6,0s-0.7,0.2,7.3,0.2C185.3,72.4,188.6,72.4,184.5,72.3z M201.2,72.3c-1.6-0.1-4.3-0.1-5.9,0
			c-1.6,0.1-0.3,0.2,3,0.2C201.5,72.5,202.9,72.4,201.2,72.3z M222.8,72.3c-3.3-0.1-8.8-0.1-12.1,0c-3.3,0.1-0.6,0.2,6,0.2
			C223.4,72.4,226.2,72.4,222.8,72.3z M161.8,64.2c0-6.6,0-6.9-1-6.9c-1,0-1,0.3-1,6.9c0,6.6,0,6.9,1,6.9
			C161.7,71.1,161.8,70.8,161.8,64.2z M228.6,64.2v-6.9h-32.9h-32.9v6.9v6.9h32.9h32.9V64.2z M231.7,64.2c0-6.6,0-6.9-1-6.9
			s-1,0.3-1,6.9c0,6.6,0,6.9,1,6.9S231.7,70.8,231.7,64.2z M161.8,56.2c0-0.3-0.3-0.5-0.7-0.5c-0.4,0-0.9,0.2-1.1,0.5
			c-0.2,0.3,0.2,0.5,0.7,0.5C161.3,56.7,161.8,56.5,161.8,56.2z M228.6,56.2c0-0.3-11.3-0.5-32.9-0.5c-21.6,0-32.9,0.2-32.9,0.5
			c0,0.3,11.3,0.5,32.9,0.5C217.3,56.7,228.6,56.5,228.6,56.2z M231.5,56.2c-0.2-0.3-0.7-0.5-1.1-0.5c-0.4,0-0.7,0.2-0.7,0.5
			c0,0.3,0.5,0.5,1.1,0.5C231.3,56.7,231.6,56.5,231.5,56.2z M161,54.9c0.7-0.3,0.8-2.6,0.8-21.1c0-11.4-0.2-20.8-0.4-20.8
			c-1.5,0-1.6,1.5-1.6,21.7c0,11.3,0.1,20.5,0.2,20.5S160.5,55,161,54.9z M231.1,13.7c-0.3-0.4-0.8-0.7-1-0.7
			c-0.3,0-0.5,9.2-0.5,20.8c0,19.4,0.1,20.8,0.9,21c0.8,0.2,0.9-1.1,1-20.1C231.7,20.2,231.6,14.2,231.1,13.7z M228.6,33.8V13h-32.9
			h-32.9v20.8v20.8h32.9h32.9V33.8z M166.5,45.8c-1.2-2.7,1.9-5.1,3.3-2.5c0.8,1.7,0.1,3.4-1.4,3.6C167.5,47,167,46.7,166.5,45.8
			L166.5,45.8z M169.3,43.9c-0.2-0.6-0.6-1.1-1-1.1c-1,0-1.4,1.5-0.7,2.7c0.5,0.9,0.6,1,1.3,0.3C169.3,45.3,169.5,44.6,169.3,43.9z
			 M184.9,45.9c-1.3-2.4,1.4-5.4,2.9-3.3c0.7,1,0.9,2.2,0.4,3.5C187.8,47.3,185.6,47.2,184.9,45.9z M187.4,44.4
			c0.1-1.4,0-1.6-0.8-1.5c-1,0.2-1.5,1.5-1,2.8C186.1,47,187.2,46.2,187.4,44.4L187.4,44.4z M203.5,46.3c-0.3-0.3-0.6-1.2-0.6-2
			c0-2.7,2.7-3.6,3.6-1.2C207.6,45.8,205.3,48.1,203.5,46.3L203.5,46.3z M205.7,44.6c0-1-0.3-1.6-0.9-1.7c-0.7-0.1-0.9,0.2-0.9,1.3
			c0,0.8,0.2,1.7,0.4,1.8C205,46.8,205.7,46.1,205.7,44.6z M221.5,45.8c-0.5-1.4-0.2-2.7,0.8-3.6c1.5-1.3,3.5,1.3,2.7,3.6
			C224.4,47.4,222.1,47.4,221.5,45.8z M224,45.4c0.6-1.2,0.2-2.6-0.8-2.6c-1,0-1.5,2-0.7,2.9C223.3,46.6,223.3,46.6,224,45.4z
			 M111,45.9c4.9-1.5,7.4-4.5,10.8-12.7c1.7-4.1,5.1-14.7,5.1-15.8c0-0.2-1.3-0.3-3-0.3h-3l-1.5,5.2c-2.5,8.9-6.5,16.5-9.8,18.5
			c-0.9,0.5-2.4,1-3.3,1c-3.4,0-9.4-4.2-9.4-6.6c0-0.5,0.8-2,1.9-3.4c2.3-3.1,3-5.7,2-8.1c-2.9-6.8-11.3-5.2-13.1,2.6
			c-0.5,2.2-0.5,3,0.3,5.3c2.5,7.5,9.3,13.9,15.6,14.8C107.4,47,107.5,47,111,45.9L111,45.9z M289.9,46c4.7-1.6,9.6-6.2,12.4-11.8
			c2-4,1.9-8.5-0.2-11.4c-2.1-2.8-4.6-3.9-7.3-3.2c-2.3,0.7-4.3,3.1-4.8,5.7c-0.3,1.6,0,2.3,2,5.4c1.3,2,2.3,4,2.3,4.5
			c0,1.3-2.4,3.9-4.7,5.1c-3.1,1.6-6,1.8-8,0.5c-3.2-2-7.5-10.3-10-19.4l-1.2-4.3h-3h-3l0.3,1.4c2.2,9,5.9,18.6,9,22.6
			C277.7,46.2,283.8,48,289.9,46z M158.6,15.5c-0.1-1.1-0.4-1.7-0.9-1.7c-0.5,0-0.8,0.6-0.9,1.7c-0.1,1.4,0,1.7,0.9,1.7
			C158.6,17.1,158.7,16.9,158.6,15.5z M234.8,15.3c0-1.8-0.3-2-1.7-1.5c-1.1,0.4-0.5,3.3,0.7,3.3C234.6,17.1,234.8,16.8,234.8,15.3z
			 M127.7,14l0.5-2.1H125c-1.8,0-3.3,0.2-3.3,0.4c0,0.2-0.1,1.2-0.3,2.1l-0.3,1.6h3.1h3.1L127.7,14L127.7,14z M270.3,15.7
			c0-0.2-0.1-1.2-0.3-2.1c-0.3-1.6-0.3-1.6-3.5-1.6h-3.2l0.5,2.1l0.5,2.1h3C268.9,16.1,270.3,15.9,270.3,15.7z M159.3,12.1
			c-1.4-0.2-2.1,0.3-1.1,0.9c0.5,0.3,1,0.2,1.5-0.2C160.3,12.3,160.2,12.2,159.3,12.1L159.3,12.1z M234,12.5
			c0.2-0.3-0.3-0.5-1.3-0.5s-1.5,0.2-1.3,0.5c0.2,0.3,0.8,0.5,1.3,0.5S233.8,12.8,234,12.5z"/>
	</g>
</g>
</svg>
