<?xml version="1.0" encoding="utf-8"?>
<!-- Generator: Adobe Illustrator 18.1.1, SVG Export Plug-In . SVG Version: 6.00 Build 0)  -->
<svg version="1.1" id="Layer_1" xmlns="http://www.w3.org/2000/svg" xmlns:xlink="http://www.w3.org/1999/xlink" x="0px" y="0px"
	 viewBox="0 0 80.5 500" enable-background="new 0 0 80.5 500" xml:space="preserve">
<g>
	<g>
		<path id="path3749_1_" fill="#808285" d="M76.3,495.5c-0.1,0.1-16.6,0.2-36.6,0.2H3.3v-3.4c0-1.8,2.8-94.7,6.2-206.3
			c3.4-111.6,6.1-203.7,5.9-204.6c-0.5-2.6-1.9-4.2-5.2-5.9c-3-1.6-4.6-3.5-5.4-6.3c-0.2-0.8,0-14.3,0.5-30.1
			c1-32.3,0.8-31,4.9-33.9l2.1-1.5H34h21.7l1.8,1.1c2.4,1.5,3.7,3.7,4.1,6.8c0.2,1.4,3.5,108.7,7.5,238.6
			c3.9,129.8,7.2,238.1,7.3,240.5C76.5,493.4,76.5,495.4,76.3,495.5L76.3,495.5z M8,362.9l-2,65.4l-2,65.4h35.9h35.9l-0.3-5.6
			c-0.1-3.1-1-31.2-2-62.4l0,0c-0.9-31.3-1.7-58.3-1.7-60v-3.1 M71.7,361.7l-0.2-3.1c-0.1-1.7-1.9-60.2-3.9-130
			c-2.1-69.8-3.9-127.6-4-128.5l-0.2-1.6H39.8H16.3l-0.3,4.6c-0.3,4.8-7.8,251.4-7.8,256l0,2.6 M63.1,81.5l-0.3-6.3h-23h-23v3.1
			c0,1.7-0.1,6.9-0.3,11.4L16.1,98h23.7h23.7l0-5.1C63.4,90.1,63.2,85,63.1,81.5L63.1,81.5z M61.6,35.3c-0.5-18-0.9-24.7-1.4-25.9
			c-0.4-0.9-1.5-2.3-2.6-3.1l-1.9-1.4l-9-0.2l-9-0.2L38,19.9c0.1,8.4,0.3,24.1,0.4,34.8l0.3,19.5h12.2H63l-0.3-7.3
			C62.5,62.9,62,48.6,61.6,35.3z M57.4,17c-1.2,4.1-5.3,6.8-9.2,6.2c-9.5-1.5-9.3-14.7,0.2-16.3c3.7-0.6,7.8,2,8.9,5.7
			C57.8,14.9,57.8,15.4,57.4,17z M55.1,12.6c-2.5-3-6.3-3.7-9.6-1.9c-1.9,1.1-3.5,3.6-3.5,5.4c0,4,5.4,7.3,9.6,6
			C56,20.7,57.8,15.8,55.1,12.6z M54,9.5C51.1,7,46.5,7.3,44,10l-1.2,1.3l1.7-1c3.8-2.3,7.9-1.8,10.6,1.1c1,1,1.3,1.2,0.9,0.5
			C55.7,11.2,54.8,10.2,54,9.5L54,9.5z M56.8,48.6c-2.1,4.4-8.3,6-12.3,3.2c-3.2-2.2-4.4-7.6-2.4-10.7c3-4.8,9.4-5.5,13.4-1.4
			c1.4,1.4,1.7,2.1,1.8,4.6C57.4,46.1,57.2,47.7,56.8,48.6L56.8,48.6z M55,42.3c-3.4-3.9-9.9-3.3-12.2,1.2
			c-2.7,5.3,3.3,10.6,9.5,8.4c0.8-0.3,2.1-1.3,2.8-2.3C57,47,56.9,44.5,55,42.3L55,42.3z M52.5,38.6c-1.7-0.9-2.6-1-4.2-0.8
			c-2,0.3-5.2,2.3-5.2,3.2c0,0.3,0.7,0,1.5-0.6c3-2.3,7.4-2,10.4,0.7l1.2,1.1l-0.8-1.2C55,40.3,53.7,39.2,52.5,38.6L52.5,38.6z
			 M37.1,16V4.7h-3.2h-3.2v10.6c0,5.8,0.1,21.4,0.3,34.8l0.3,24.2h3.2h3.2l-0.3-23.5C37.2,37.8,37.1,22.2,37.1,16L37.1,16z
			 M29.8,23.6l-0.3-19L21,4.8C13.2,4.9,12.4,5,10.7,6.1C7.1,8.3,7.2,7.7,6.2,38.7C5.7,54,5.4,67.5,5.6,68.6c0.4,2.7,2.1,4.8,5.3,6.4
			c1.4,0.7,3,1.9,3.5,2.6l1,1.3l0.2-2.2l0.2-2.2l7.1-0.1l7.1-0.1l0-15.8C30.1,49.8,30,34.1,29.8,23.6L29.8,23.6z M26.3,47.6
			c-1,3.4-5.3,6.1-9.1,5.6c-2.3-0.3-5.1-2.3-6.2-4.3c-1-2-0.9-5.6,0.2-7.8c2.6-5.1,10.4-5.4,14.1-0.6C26.2,41.7,26.8,45.9,26.3,47.6
			z M24.2,42.5c-0.6-0.8-1.9-1.8-3.1-2.2c-3.7-1.5-7.5,0-9.5,3.8c-1,2-1,2.1-0.1,4c2.2,4.9,8.7,5.9,12.4,1.8
			c0.6-0.6,1.2-1.5,1.4-1.9C25.8,46.6,25.3,44,24.2,42.5L24.2,42.5z M21.3,38.4c-2.6-1.2-5.2-0.9-7.5,0.9c-2.1,1.6-1.8,2,0.5,0.6
			c3-1.8,7.1-1.3,9.8,1.1l1.2,1.1l-1-1.4C23.9,40,22.5,39,21.3,38.4L21.3,38.4z M26.3,17.8c-0.8,3-5.6,5.9-8.9,5.4
			c-7.6-1.1-10-11.1-3.6-15c3.7-2.3,7.5-1.7,10.7,1.6c1.4,1.4,1.7,2.2,1.8,4.4C26.5,15.7,26.5,17.3,26.3,17.8z M24.1,12.3
			c-1.4-1.5-3.8-2.6-5.9-2.6c-2.5,0-5.6,2.1-6.6,4.4c-0.9,1.9-0.9,2.1-0.1,3.9c2,4.5,8.1,5.8,11.9,2.6
			C25.8,18.6,26.2,14.5,24.1,12.3z M23.8,10.1c-1.7-1.5-3.7-2.4-5.5-2.4c-1.8,0-5.2,1.7-6,3c-0.6,0.9-0.5,0.9,1.2-0.2
			c2.7-1.7,5.1-2.1,7.6-1.1c1.1,0.5,2.5,1.3,3,1.9c0.5,0.6,0.9,0.9,0.9,0.6C25.2,11.6,24.6,10.8,23.8,10.1L23.8,10.1z"/>
	</g>
</g>
</svg>
