<?xml version="1.0" encoding="utf-8"?>
<!-- Generator: Adobe Illustrator 18.1.1, SVG Export Plug-In . SVG Version: 6.00 Build 0)  -->
<svg version="1.1" id="Layer_1" xmlns="http://www.w3.org/2000/svg" xmlns:xlink="http://www.w3.org/1999/xlink" x="0px" y="0px"
	 viewBox="0 0 923.5 367.6" enable-background="new 0 0 923.5 367.6" xml:space="preserve">
<g opacity="0.53">
	<path fill="#D1D3D4" d="M122.7,350.5C53.1,340.2,17.5,296.1,13.5,215c-2.8-56.5,1-96.6,11.6-123.6C33.6,69.8,48.3,49.8,63,39.9
		c1.7-1.2,3.4-2.4,3.6-2.7c1-1.3,17.1-9.4,23.2-11.6c33.9-12.4,64.8-12,100.6,1.3c33.2,12.4,39.1,13.4,54.1,9.8
		c4.1-1,6.2-1.1,7.9-0.6l2.3,0.8l0.5,12c1,24.8,11.7,34.9,45.7,43c53.2,12.7,93,2.3,93-24.2c0-10.2,3.7-13.2,12.6-10
		c16,5.6,20.3,5.1,48-5.7c26.6-10.4,66.6-8.2,89.1,4.9c2.7,1.5,5,2.8,5.1,2.8c0.7,0,8.6,5.5,12.9,9c28,23.2,44.8,50.7,48.2,79.4
		l1,8.4L635,157c13.4,0.3,26.2,0.7,28.3,0.9c4.1,0.3,25.2,0.9,57.5,1.7c10.3,0.3,21.9,0.6,25.8,0.9c3.9,0.2,20.9,0.7,37.8,1.2
		c16.9,0.5,36.5,1.1,43.6,1.3l13,0.5l2-2.7c1.1-1.5,2.9-3.6,4.1-4.8l2.1-2.1l24,0.6c27,0.7,29.4,1.1,31,5.6
		c1.2,3.3,1.3,33.9,0.1,36.9c-2.2,5.8,0.7,5.5-81.7,7.7c-16.9,0.5-33.9,1-37.8,1.2c-3.9,0.2-15.8,0.6-26.6,0.9
		c-25.8,0.6-46.7,1.3-56.9,1.7c-4.6,0.2-23.4,0.8-41.9,1.2c-18.5,0.5-37.1,1.1-41.2,1.3l-7.6,0.5l-1.1,8.8
		c-8.2,69.1-93.2,122.5-153,96.4c-24.5-10.7-34.1-12.3-46.8-7.8c-6.8,2.4-9.7,2.5-13.2,0.3l-2.7-1.7v-7.5
		c0-40.3-115.5-39.3-135.6,1.1l-3.3,6.4l0.1,11.3c0.1,8.4-0.1,11.5-0.9,12c-1.7,1.1-7.6,0.8-11.4-0.5c-9.4-3.3-22.3-1-46.5,8.2
		c-12.2,4.6-22.9,8-32.4,10.1C157.7,350.3,128.7,351.4,122.7,350.5L122.7,350.5z M162.6,347.3c7.2-1.5,12.7-3,21.2-5.8
		c6-2.1,23.4-8.4,26.4-9.6c10-4.1,22.6-5.6,30-3.7c3,0.8,7.2,1.7,9.4,1.9l4,0.3l-0.5-9.8c-0.3-5.4-0.2-11,0.2-12.4
		c0.4-1.4,0.5-3.5,0.2-4.6c-1.5-6.2-3.3,9.2-2.2,19.4c0.7,7.4,1.3,7-5.8,4.4c-4.8-1.8-17.6-3.3-18.3-2.1c-0.2,0.3-1.5,0.6-2.7,0.5
		c-2.5-0.1-10.4,2.1-14.9,4c-1.5,0.7-3.1,1-3.5,0.7c-0.4-0.3-0.8-0.1-0.8,0.3s-0.5,0.8-1.1,0.8c-0.6,0.1-5.5,1.8-11,3.9
		c-5.4,2.1-10.5,4-11.2,4.2c-0.7,0.2-2.9,0.9-4.8,1.6c-1.9,0.7-3.8,1.3-4.1,1.3s-2.1,0.5-3.8,0.9c-1.7,0.5-4.2,1-5.4,1.2
		c-1.2,0.2-4.8,0.7-8,1.2c-3.1,0.5-6.4,0.7-7.2,0.4c-0.9-0.3-1.5-0.1-1.5,0.4c0,0.9-13.9,1.1-15.3,0.2c-0.5-0.3-2.9-0.6-5.4-0.6
		c-6.6-0.1-16.5-1.7-20.1-3.2c-1.7-0.7-3.2-1.1-3.4-0.9c-0.4,0.4-10.9-3.3-18.7-6.6c-10.3-4.3-22.6-13-30.6-21.4
		c-2.7-2.8-5.2-5.5-5.7-6c-5.2-5.5-14.2-20.9-18.2-31.2c-0.8-2.1-2-5-2.6-6.6c-0.7-1.6-1.4-4-1.6-5.3c-0.3-1.3-0.8-3.1-1.3-4
		s-0.6-1.9-0.3-2.4c0.3-0.5,0.1-0.8-0.3-0.8s-0.8-0.7-0.7-1.5c0.1-0.8-0.4-3.1-0.9-5c-0.5-1.9-0.8-3.9-0.5-4.4
		c0.3-0.5,0.1-0.8-0.4-0.8c-0.5,0-0.9-0.9-0.8-1.9c0-1-0.3-3.4-0.6-5.2c-0.3-1.9-0.7-4.8-0.7-6.8c0-1.9-0.4-3.3-0.7-3
		c-0.4,0.3-0.6-1.6-0.4-4.1c0.1-2.5,0-4.9-0.3-5.4c-1-1.5-0.1-79.8,0.9-85c0.5-2.5,1.1-6.2,1.3-8.3c2.1-18.4,16.1-55,23.6-61.4
		c0.3-0.2,1.9-2.3,3.5-4.6c4.3-5.9,17-17.7,22.6-20.9c14.1-8.2,32-15.2,34.3-13.4c1.3,1,1.3,0.9,0.1-0.5c-1.1-1.5-1.1-1.6,0.6-1.1
		c1,0.3,1.9,0.1,1.9-0.2c0-0.4,0.7-0.7,1.5-0.7s3.3-0.4,5.5-0.9c2.3-0.5,4.3-0.7,4.5-0.5c0.2,0.2,0.9,0,1.6-0.5
		c1.3-1.1,29.3-1.5,36.3-0.5c10,1.3,38.9,9.8,42.4,12.3c1.4,1.1,18.5,6.6,20.2,6.6c0.9,0,1.7,0.3,1.7,0.6c0,0.3,0.9,0.7,1.9,0.7
		c1,0.1,4.5,0.3,7.8,0.5c3.3,0.3,7.6,0.1,9.6-0.3c2-0.5,4.3-1,5.2-1.1c0.9-0.2,2.5-0.9,3.5-1.6c3.5-2.3,3.9-1.8,3.2,5.2
		c-0.9,9.8-0.8,13.2,1.1,19.7c0.4,1.5,0.5,1.5,1.2,0.2c0.5-0.9,0.4-2.7-0.2-4.9c-0.6-2.3-0.7-6.6-0.4-12.4l0.6-8.9l-2.1-0.5
		c-1.2-0.3-4,0.1-6.5,1c-11.2,3.7-23.9,1.8-47.2-7.2c-2.5-0.9-5.5-2.1-6.6-2.5c-1.1-0.4-4.2-1.5-6.8-2.4
		C150.5,14.2,111,16.4,78.9,32.3c-49.4,24.6-68.1,76.3-63.8,175.5c1.6,37,5,53.9,15.1,75.9c13.2,28.6,25.8,40.6,58.9,56.6
		C104.9,347.9,142.1,351.4,162.6,347.3L162.6,347.3z M155.3,344.1c2.4-0.3,8.2-1.5,12.9-2.7s9-2.2,9.6-2.2s1.1-0.3,1.1-0.6
		c0-0.3,0.5-0.6,1.1-0.6c1-0.1,12-4,21.4-7.8c2.5-1,5.2-1.9,6-1.9c0.8-0.1,1.5-0.5,1.5-0.9c0-0.5,0.2-0.6,0.5-0.3
		c0.3,0.3,1.8-0.1,3.5-0.7c1.6-0.7,4.4-1.4,6.2-1.6c1.8-0.2,4.1-0.7,5-1.1c4.8-1.7,18.9-0.5,23.8,2l2.2,1.1l-0.7-4.7
		c-1.3-9-0.3-16.7,3.1-23.8c1.4-3,1.5-5,1.3-20.9l-0.2-17.5l-5.2,1.2c-17.5,4.1-24.4,9.2-21.7,16c1.9,4.7,4,5.7,7.2,3.3
		c4.1-3.1,9-3.1,11.7-0.3c8.6,9.1-5.3,18.9-16.1,11.4c-21.1-14.7-13.5-31.5,17.7-39l6.4-1.5v-13.3v-13.3l-77.4,0.3
		c-77.7,0.3-94.1-0.1-117.3-2.8c-9.8-1.1-14.1-1.7-26.4-3.4l-4-0.5l0.7-11.8c0.8-14.7,0.8-25.4,0-42.9l-0.6-13.7l11.8-1.5
		c42.6-5.2,35.9-5,128.3-5l84.9-0.1v-13v-13l-3.1-0.9c-21.2-6-28-9.6-31-16.3c-7-15.3,15.2-34.3,26.6-22.8
		c7.1,7.2-2.7,16.5-11.2,10.5c-5.6-4.1-12.4,3.4-8.2,9c2.8,3.8,24.5,12.7,26.4,10.8c1.5-1.5,0.5-36.3-1.2-39.5
		c-3.2-6.1-4.3-20.5-2.1-26.4c0.5-1.3,0.1-1.2-3.1,0.5c-4.8,2.5-20.2,3.1-26.8,1.1c-2.3-0.7-5.2-1.4-6.3-1.6
		c-1.1-0.1-3.2-0.7-4.6-1.3c-1.4-0.6-2.8-1-3.1-0.9c-0.3,0.1-0.6-0.3-0.6-0.9s-0.2-0.8-0.5-0.5c-0.3,0.3-2.9-0.5-6-1.6
		c-3.1-1.1-6.4-2.3-7.4-2.5c-1-0.3-1.9-0.8-1.9-1.3c0-0.5-0.2-0.7-0.5-0.4c-0.3,0.3-3.5-0.6-7.2-2c-3.7-1.3-7.7-2.6-8.8-2.8
		c-1.1-0.2-3.7-0.9-5.5-1.6c-1.9-0.7-3.7-1-3.9-0.7c-0.3,0.3-1,0.1-1.6-0.5s-1.3-0.7-1.6-0.5c-0.3,0.3-2.5,0.1-4.9-0.4
		c-8.7-1.7-19-1.9-28.3-0.5c-4.9,0.7-9.3,1.1-9.7,0.9c-0.4-0.3-1-0.1-1.3,0.5c-0.3,0.5-1.1,0.7-1.7,0.5c-0.6-0.3-3.1,0.3-5.5,1.1
		c-2.5,0.9-5.5,1.7-6.9,1.9c-1.4,0.2-3.6,0.9-5,1.4c-1.4,0.5-3.1,1.1-3.7,1.3c-0.7,0.1-3.4,1.3-6,2.4c-2.7,1.2-4.8,2-4.8,1.8
		s-1.9,0.9-4.1,2.3c-2.3,1.5-6.4,4.1-9.2,5.8c-9.3,6-24.1,21.6-27.5,29c-0.5,1.2-1.4,2.3-1.9,2.3c-0.5,0-0.6,0.2-0.3,0.5
		c0.3,0.3-0.7,2.6-2.3,5.2c-1.5,2.6-3.4,6.5-4.2,8.6c-0.8,2.2-1.7,3.9-2,3.9s-0.6,0.7-0.7,1.5c-0.1,0.8-0.9,3.7-1.9,6.4
		c-1,2.7-1.9,5.8-2.1,6.9c-0.1,1.1-0.6,2.2-1,2.5c-0.4,0.3-0.9,2.2-1,4.3c-0.1,2.1-0.6,3.9-1.1,4c-0.4,0.1-0.5,0.7-0.3,1.1
		c0.3,0.5,0.1,2.5-0.5,4.7c-1.1,4.8-1.7,9.6-1.7,13.6c0,1.7-0.3,3.3-0.8,3.6c-0.5,0.3-0.9,0.9-0.9,1.4c0,0.5,0.3,0.7,0.7,0.5
		c0.3-0.2,0.3,3.4,0,8c-0.8,10.7-0.4,74.5,0.5,75c0.3,0.2,0.6,2,0.6,3.9c-0.1,1.9,0.1,4.4,0.3,5.5c1.1,6.6,1.7,9.8,1.9,11.6
		c0.1,1.1,0.3,2.3,0.4,2.5c0.1,0.2,0.3,0.8,0.3,1.3c0.1,0.5,0.6,2.3,1.1,4.1c0.5,1.8,0.7,3.6,0.5,3.9c-0.3,0.4-0.1,0.7,0.3,0.7
		c0.7,0,1.7,3.2,2,6.8c0.1,0.8,0.5,1.5,0.9,1.5c0.5,0,0.5,0.3,0.3,0.5c-0.3,0.3,0.3,2,1.2,3.8c0.9,1.8,1.5,3.5,1.3,3.7
		c-0.3,0.3,0.3,1.4,1.2,2.5c0.9,1.1,1.7,2.7,1.7,3.4s0.5,2.1,1.2,2.9c0.7,0.9,0.9,1.9,0.7,2.4c-0.3,0.5-0.1,0.6,0.4,0.3
		c0.9-0.5,2.4,2.4,2,3.9c-0.1,0.3,0.2,0.6,0.7,0.6c0.5,0,0.7,0.3,0.4,0.7c-0.3,0.4,0.1,1,0.9,1.3c0.7,0.3,1.1,0.9,1,1.5
		c-0.2,0.5,0.3,1.6,1,2.3c2.3,2.5,5,5.8,5,6.2c0,1.9,14.5,15.5,21.9,20.6C74.9,328.3,88,335,89.8,335c0.5,0,0.8,0.5,0.8,1
		c0,0.5,0.2,0.7,0.5,0.5c0.3-0.3,1.5-0.1,2.7,0.3c1.2,0.5,2.8,1,3.5,1.1c0.7,0.1,3.4,1,6,1.9c2.6,0.9,4.9,1.5,5.1,1.3
		c0.2-0.2,2.4,0.2,4.8,0.9c2.4,0.7,5.9,1.3,7.8,1.3c1.9,0,3.8,0.3,4.3,0.6c1.1,0.7,23.4,0.6,30-0.1L155.3,344.1z M511.3,319.4
		c43.2-5,89.8-51,95.9-94.6c1.7-12.4,1.8-13.3,0.4-13.3c-1,0-1.3,1.1-1.3,4.8c0,4.7-3.1,19.1-5,23.9c-16.5,39.2-49.2,69.1-83,75.8
		c-11,2.2-11,2.2-28.2,2.1c-19.3-0.1-25.6-1.4-42.8-9.2c-15.3-7-28.2-7.7-42.3-2.5c-7.1,2.6-6.9,2.8-7.2-7.6
		c-0.1-4.6-0.5-8.5-0.8-8.5c-0.3,0-0.8-0.7-1-1.5s-0.4,2.9-0.5,8.2c-0.1,13.3,1,14.1,13.6,10.2c5.1-1.6,8.5-2.1,14.7-2.1
		c8.6,0,8.2-0.1,25.1,6.6c21.4,8.6,36.7,10.4,62.3,7.4L511.3,319.4z M509.4,314.9c5.2-0.7,10.7-1.7,12.3-2.1
		c1.6-0.5,3.5-0.9,4.2-1.1c1.8-0.3,14.2-5.6,15.7-6.8c0.7-0.5,2.9-1.8,5-2.9c2.1-1.1,3.9-2.1,4.1-2.5c0.2-0.3,2.5-2.1,5-3.9
		c27.6-20.6,43.6-47.8,48.5-82.4l0.3-1.9l-10.9,0.5c-6,0.3-19.9,0.7-30.8,0.9c-11,0.3-22.9,0.6-26.6,0.8c-3.7,0.2-14,0.6-23,0.9
		l-16.3,0.5v-31v-31l19.3,0.5c69.5,2,85.1,2.5,86.4,2.9c1.4,0.4,1.5-0.1,1.3-6.6c-0.1-3.9-0.5-6.9-0.8-6.7c-0.3,0.2-0.8-1.4-1.1-3.5
		c-0.3-2.1-1.5-6.2-2.7-9.3c-1.1-3.1-2.3-6.2-2.6-7.1c-0.3-0.9-1.3-3.1-2.4-5c-1.1-1.9-2.4-4.4-3-5.5c-1.5-2.9-8.6-13.7-10.8-16.3
		c-20.1-23.8-37.1-35.7-60.4-41.8c-6.8-1.8-41.1-3.8-42.2-2.5c-0.2,0.3-1.5,0.5-2.9,0.5c-1.4,0.1-3.3,0.3-4.3,0.5
		c-4.6,1.1-9.3,2.5-11.8,3.6c-1.5,0.7-3.1,0.9-3.5,0.7c-0.5-0.3-0.8-0.1-0.8,0.3c0,0.7-10.1,5.4-11.6,5.6c-0.3,0-2.1,0.7-4.2,1.5
		c-10.2,3.9-23.4,3.1-37.3-2.3c-1.1-0.4-1.3,0.7-1.3,6.8c0,6.2-0.3,7.9-2.3,11.8l-2.3,4.5v98.2v98.2l1.8,3.4
		c2.3,4.4,2.7,6.4,2.5,14.3c-0.1,3.5,0,6.4,0.1,6.4c0.1,0,1.8-0.8,3.8-1.7c2-0.9,4.8-1.8,6.3-1.9c1.5-0.1,2.5-0.5,2.3-0.9
		c-0.3-0.4,0.5-0.5,1.7-0.3c1.2,0.2,2.2,0.1,2.2-0.2c0-1.3,14.5-0.7,18.9,0.9c2.4,0.9,4.4,1.4,4.4,1.2c0-0.2,4,1.4,8.9,3.5
		c21.2,9,38.2,11.2,61,8.2L509.4,314.9z M259.9,295.1c24.1-29,116.4-35.4,132.4-9.2l1.5,2.5v-2.3c0-11.8-35.3-21.6-65.8-18.1
		c-3.8,0.4-5.6,0.3-5.6-0.3c0-0.5-0.3-0.3-0.7,0.3c-0.5,0.7-1.6,1-2.9,0.7c-1.2-0.2-2.4-0.1-2.7,0.3s-1.5,0.7-2.7,0.7
		c-1.2,0-3.7,0.3-5.6,0.7c-7.1,1.7-12.5,2.8-13.9,2.9c-0.8,0.1-1.5,0.4-1.5,0.7c0,0.3-0.7,0.7-1.7,0.7c-1.7,0-3.9,0.9-12.5,4.7
		c-13.4,6-23.3,14.9-23.2,20.8l0.1,2.3l1.3-2.5C257.2,298.6,258.8,296.5,259.9,295.1L259.9,295.1z M268.7,281.6
		c1.5-0.7,2.9-1.6,3.1-1.9c0.4-0.5,5.6-2.9,6.6-3c0.2,0,1.6-0.7,3-1.4c2.4-1.3,5.4-2.1,8.6-2.5c0.7-0.1,1.5-0.5,1.8-0.9
		c0.3-0.4,1.5-0.9,2.8-1s3.3-0.7,4.6-1.3c1.3-0.5,2.9-0.8,3.7-0.5c0.7,0.3,1.3,0.1,1.3-0.3c0-0.5,0.9-0.7,1.9-0.7
		c1,0.1,2.8-0.1,3.9-0.4c5.2-1.3,12-2.3,14-2.1c1.2,0.1,2.8-0.1,3.6-0.4c12-5.2,57.3,4.2,64.6,13.4l1.7,2.2v-96.8V87.1l-3.1,3.2
		c-4.6,4.8-19.2,11.3-21.8,9.7c-0.4-0.3-0.8,0-1,0.5c-0.1,0.5-2,1.1-4,1.3c-22.2,2.3-23.1,2.3-47.3-0.1c-4.6-0.5-14.7-2.6-20.7-4.4
		c-2.5-0.7-5.2-1.5-6-1.6c-0.8-0.1-2.6-0.9-3.9-1.5c-1.3-0.7-2.5-1.1-2.5-0.9c0,3.3-25.6-13.7-27.4-18.2c-0.4-0.9-0.7,5.8-0.7,15.9
		l-0.1,17.5l11,0.9c9.2,0.7,11.3,0.7,12.8-0.3c1.6-1.1,2.1-1,4.6,0.5c2.2,1.3,4.2,1.7,9.2,1.7c26.8,0,51.3,14.6,47.2,28.3
		c-3,10-17.4,15.7-22.6,9c-4-5.2,3.4-13.7,7.6-8.6c2.5,2.9,9.2,0.1,9.2-3.9c0-2.3-7.6-6.7-16.2-9.6c-24-8-30.5-8.4-41.2-2.1
		c-0.3,0.2-1.3-0.5-2.2-1.4c-1.6-1.7-13-5-17.3-5h-2v11.6v11.6h7.7c18.3,0.1,18.2-0.4,17.9,43.5l-0.3,35.3l-3.1,3.1l-3.1,3.1
		l-9.6,0.3l-9.6,0.3v12c0,11.1,0.1,12,1.5,11.6c0.8-0.3,4.1-0.9,7.2-1.3c5.2-0.8,8-1.9,11.4-4.3c1.1-0.7,2.2-0.5,5.4,1.1
		c5,2.5,16.3,2.7,23.4,0.5c2.4-0.7,6.1-1.9,8.3-2.5c14.7-4.5,23.5-10,21.4-13.4c-2-3.1-5.2-4.2-7.8-2.6c-6.1,3.6-12-1-9.1-7.2
		c3.5-7.8,18.6-3.5,22.8,6.5c6.2,14.8-15.6,28.4-47.9,29.8c-3.8,0.2-6.4,0.8-8.3,2c-2.4,1.5-2.9,1.5-3.9,0.5
		c-1.1-1.1-13.5-1.1-21.5,0.2l-2.7,0.4v16.8v16.8l5.4-5.2c3-2.9,6.6-5.8,8.1-6.6L268.7,281.6z M241.8,292.1
		c4.6-1.6,6.2-6.5,3.4-10.2c-2-2.5-5.7-2.9-9.1-0.9c-5.6,3.3-5.7,3.3-7.6,1.6c-2.4-2.1-5.1-8.3-4.5-10.2c1.3-4.3,16.7-12.7,23-12.7
		c1.1,0,1.5-0.7,1.5-2.9c0-3.4,0.3-3.3-6.4-1.3c-13.9,4.3-21.1,9.4-22.3,15.4C217.6,282.6,231.2,295.7,241.8,292.1L241.8,292.1z
		 M253.5,256c0-2.3-0.3-2.9-1.7-2.9c-1.3,0-1.7,0.5-1.7,2.9c0,2.3,0.3,2.9,1.7,2.9C253.2,258.9,253.5,258.4,253.5,256z M268.2,256.9
		c5.8-0.3,9.9-0.2,10.9,0.3c1.2,0.7,2.5,0.5,5.2-0.7c2.4-1.1,5.4-1.6,9-1.6c21.7,0.1,43.6-10.1,45.4-21.2
		c1.7-10.2-13-20.5-19.7-13.8c-4.5,4.5,1.1,10.2,6.2,6.2c2.2-1.7,3.3-1.6,6.6,0.6c4.9,3.2,4.8,6.8-0.3,9.9c-1.7,1-3.3,2.1-3.5,2.3
		c-0.2,0.3-2,1.1-3.9,1.9c-21,8.5-33.6,10.6-42.5,7c-5.2-2.1-5.3-2.1-7.2-0.6c-1.9,1.5-6.6,2.9-12.3,3.7c-6.3,0.9-7,1.4-7,4.4
		c0,2.5,0.2,2.8,1.9,2.5C258,257.5,263.1,257.1,268.2,256.9L268.2,256.9z M268.4,223.6c0-0.7,0.4-1.3,0.8-1.3c0.5,0,0.8,0.5,0.8,1.1
		c0,3,6-0.1,8.2-4.2c1.4-2.5,1.3-2.7-0.6-2.7c-0.9,0-1.7,0.5-1.7,1.2c0,2.5-4.5,3.8-12.8,3.8c-7.4,0-7.9,0.1-7.9,1.7
		s0.5,1.7,6.6,1.7C267.2,224.9,268.5,224.6,268.4,223.6L268.4,223.6z M103.2,222.5c0-0.9-36.3-2.3-37.1-1.5
		c-0.3,0.3,2.3,0.5,5.6,0.6c3.4,0.1,9,0.3,12.4,0.6C95.6,223.2,103.2,223.3,103.2,222.5L103.2,222.5z M247.7,222.4
		c0-0.5-24.5-0.8-71.9-0.8c-47.7,0-71.7,0.3-71.3,0.8c0.3,0.5,25.2,0.8,71.9,0.8C223.4,223.2,247.7,222.9,247.7,222.4z M252.7,222.4
		c0-0.5-0.7-0.8-1.7-0.8s-1.7,0.4-1.7,0.8c0,0.5,0.7,0.8,1.7,0.8S252.7,222.8,252.7,222.4z M63.2,220.2c-0.3-0.3-1-0.3-1.6-0.1
		c-0.7,0.3-0.5,0.5,0.5,0.5C63,220.7,63.5,220.5,63.2,220.2L63.2,220.2z M192,219.1c0-0.5-22.6-0.8-66.6-0.7
		c-36.7,0.1-61.2,0.4-54.6,0.7C92.9,219.9,192,219.9,192,219.1z M208.6,219.1c0-0.5-3.1-0.8-7.5-0.8c-4.8,0-7.3,0.3-7,0.8
		s3.7,0.8,7.5,0.8C205.7,219.9,208.6,219.5,208.6,219.1z M253.1,219.1c0.3-0.5-6.8-0.8-20.7-0.8c-13.6,0-21.2,0.3-21.2,0.8
		c0,0.5,7.4,0.8,20.7,0.8C244.8,219.9,252.8,219.5,253.1,219.1z M260.1,183.8l0.1-36.1h-2.5h-2.5v36.1v36.1h2.5h2.5L260.1,183.8z
		 M256,212.4c0-0.5,0.7-0.8,1.7-0.8s1.7,0.4,1.7,0.8c0,0.5-0.7,0.8-1.7,0.8S256,212.8,256,212.4z M256,193.7c0-0.8,0.6-1.2,1.4-1.1
		c2.1,0.4,2.4,2.3,0.3,2.3C256.7,195,256,194.4,256,193.7L256,193.7z M256.6,175.4c-1.1-1.1-0.6-2,1.1-2c1,0,1.6,0.5,1.4,1
		C258.7,175.6,257.3,176.1,256.6,175.4L256.6,175.4z M256,155.7c0-0.6,0.7-1.1,1.7-1.1s1.7,0.5,1.7,1.1c0,0.6-0.7,1.1-1.7,1.1
		S256,156.3,256,155.7z M272.7,219c0.9-0.5,1.6-1.1,1.6-1.5c0-0.9-11.6,0.3-12.7,1.4C260.3,220.2,270.3,220.3,272.7,219L272.7,219z
		 M118.7,216.5H192v-11.6v-11.6h-4.5c-2.7,0-5.4,0.5-7,1.4c-2.3,1.3-2.7,1.3-5.2-0.1c-2.6-1.3-7.4-1.5-73.3-1.2l-70.5,0.3l-0.1,2.5
		c-0.1,1.4-0.3,6.5-0.7,11.4l-0.6,8.8l5.2,0.3c2.9,0.2,6.3,0.2,7.6,0.1C44.2,216.7,78.3,216.5,118.7,216.5z M175,212.8
		c-1.6-1.3-1.6-1.3,0-2.5c2.1-1.6,4.4-1.6,6,0C183.8,213.1,178.3,215.4,175,212.8L175,212.8z M180,211.6c-0.3-0.5-1.2-0.8-2.1-0.8
		c-0.9,0-1.8,0.4-2.1,0.8c-0.3,0.5,0.5,0.8,2.1,0.8C179.5,212.4,180.3,212,180,211.6z M208.6,183.7v-32.8l-7.7,0.1
		c-4.3,0.1-7.2,0.3-6.6,0.5c0.8,0.3,1.1,7.6,1.1,32.7v32.3h6.6h6.6L208.6,183.7L208.6,183.7z M253.5,183.7v-32.8h-20.7H212v32.8
		v32.8h20.7h20.7V183.7z M219.4,212.8c-1.5-1.8,0.8-4.1,3.3-3.3c2.1,0.7,2.3,3.4,0.5,4.1C221.2,214.3,220.6,214.2,219.4,212.8
		L219.4,212.8z M222.8,211.6c0-0.5-0.5-0.8-1.3-0.8c-0.7,0-1.3,0.4-1.3,0.8c0,0.5,0.5,0.8,1.3,0.8
		C222.2,212.4,222.8,212,222.8,211.6z M219.4,194.5c-1.5-1.8,0.8-4.1,3.3-3.3c2.1,0.7,2.3,3.4,0.5,4.1
		C221.2,196,220.6,196,219.4,194.5L219.4,194.5z M222.8,193.3c0-0.5-0.5-0.8-1.3-0.8c-0.7,0-1.3,0.4-1.3,0.8c0,0.5,0.5,0.8,1.3,0.8
		C222.2,194.1,222.8,193.7,222.8,193.3z M220,176.6c-2.1-1.2-1.8-3.1,0.6-3.7c2.5-0.6,3.8,0.1,3.8,2.1
		C224.4,177.2,222.4,178,220,176.6L220,176.6z M223.2,175c0.3-0.5-0.3-0.8-1.3-0.8s-1.5,0.4-1.3,0.8c0.3,0.5,0.9,0.8,1.3,0.8
		C222.3,175.8,222.9,175.4,223.2,175z M219.6,157.9c-1.5-0.6-1.3-2.6,0.5-3.5c2-1.1,4.8,0.8,4,2.7
		C223.6,158.4,221.8,158.8,219.6,157.9z M222.8,156.4c0-0.9-1.6-1.3-2.1-0.5c-0.3,0.5,0.1,0.9,0.8,0.9
		C222.2,156.8,222.8,156.7,222.8,156.4L222.8,156.4z M274.2,184.1v-31.5h-2.8c-1.5,0-4.5-0.2-6.4-0.5l-3.7-0.5l0.2,32.3l0.2,32.3
		l6.2-0.3l6.2-0.3v-31.5L274.2,184.1z M279.5,197.3c-0.1-9.8-0.2-23.8-0.3-31.2c0-13-0.1-13.5-1.7-13.5c-1.7,0-1.7,0.5-1.7,31.2V215
		h1.9h1.9L279.5,197.3L279.5,197.3z M532.5,212c5.2-0.2,24.7-0.8,43.2-1.3c18.5-0.5,37.2-1,41.5-1.3c4.3-0.2,22.3-0.8,39.9-1.2
		c17.6-0.5,42.6-1.2,55.7-1.6c13-0.5,38.1-1.3,55.7-1.7c17.6-0.5,33.7-1.1,35.7-1.1c2.1-0.1,7.8-0.3,12.7-0.3l8.8-0.2v-19.4v-19.4
		l-27.2-0.6c-14.9-0.3-29.2-0.7-31.7-0.9c-2.5-0.2-18.9-0.7-36.5-1.3c-17.6-0.5-42.6-1.3-55.7-1.7c-13-0.5-33.3-1.1-45-1.3
		l-21.4-0.5v25.4c0,16.4-0.3,25.4-0.8,25.4c-0.5,0-0.9-9-0.9-25.5V158l-5.2-0.1c-2.9-0.1-19.4-0.6-36.7-1.1
		c-17.3-0.5-39.3-1.2-48.8-1.5l-17.2-0.6V184v29.4l12.2-0.5C517.4,212.6,527.2,212.1,532.5,212L532.5,212z M842.1,184v-18.8
		l-7.5-0.3l-7.5-0.3v19.3v19.3l7.4-0.2l7.4-0.2V184L842.1,184z M844.9,177.7c0.1-7-0.1-12.7-0.4-12.7s-0.5,8.5-0.5,18.9
		C844.2,203,844.5,200.8,844.9,177.7L844.9,177.7z M888.6,201.1c14.4-0.6,14.6-0.7,14.3-10.8c-0.1-3.9-0.3-7.3-0.6-7.5
		c-0.2-0.2-13-0.1-28.3,0.2l-27.9,0.6v9.6v9.6l15.5-0.5c8.6-0.3,20.6-0.8,26.8-1L888.6,201.1z M866.5,197.9
		c-7.3-5.1-1.3-16.4,6.8-12.8c1.3,0.6,2,1.5,1.7,2.1c-0.3,0.6-0.1,0.9,0.3,0.7c1.3-0.8,2.7,2.8,2.1,5.4
		C876.4,198.2,870.4,200.7,866.5,197.9L866.5,197.9z M872.8,195.2c4.3-5.5-1.5-12.2-6.3-7.3c-1.7,1.7-2.1,2.7-1.6,4.7
		C865.9,197.5,870,198.9,872.8,195.2z M891.3,197.8c-4.1-2.9-4-9.5,0.3-12.3c5.9-3.9,13.3,3.1,10,9.4
		C899.3,199.1,894.9,200.4,891.3,197.8L891.3,197.8z M897.7,195.2c2.2-2.8,2.2-5.3,0-7.6c-4.5-4.8-10.7,2.3-6.6,7.6
		C893.4,198,895.5,198,897.7,195.2z M180,193.3c0.3-0.5-0.5-0.8-2.1-0.8c-1.5,0-2.4,0.3-2.1,0.8c0.3,0.5,1.2,0.8,2.1,0.8
		C178.8,194.1,179.7,193.7,180,193.3z M192,186.2v-5.3h-80.1H31.8v5.4v5.4l74.4-0.1c40.9-0.1,74.5,0,74.7,0.2c0.1,0.1,2.7,0.1,5.7,0
		l5.4-0.3v-5.3V186.2z M889.4,180.9h13.7v-2.1v-2.1h-8.4c-4.6,0-17.4,0.3-28.4,0.5l-20.1,0.5v2v2l14.7-0.5
		C869.1,181.1,881.9,180.9,889.4,180.9L889.4,180.9z M192,165.1V151h-81.2H29.6l0.6,4.4c0.3,2.4,0.7,7.9,0.7,12.2
		c0.1,4.3,0.3,8.7,0.6,9.8l0.5,1.9h80h80V165.1L192,165.1z M175.1,176.1c-1.1-1.2-1.2-1.8-0.4-2.5c1.4-1.4,5.2-1.2,6.5,0.3
		C183.5,176.5,177.5,178.6,175.1,176.1L175.1,176.1z M179.6,175c0.9-0.6,0.6-0.8-1.5-0.8c-1.6,0-2.5,0.3-2.3,0.8
		C176.5,176.1,177.9,176.1,179.6,175L179.6,175z M174.7,157.4c-1.5-1.5-1.2-2.1,1.5-3.1c2.9-1,4.6-0.6,5.3,1.3
		C182.5,158.2,176.9,159.6,174.7,157.4z M179.7,156c-1.1-0.7-4.3-0.3-4.3,0.4c0,0.2,1.2,0.3,2.7,0.3
		C180,156.8,180.5,156.5,179.7,156L179.7,156z M893.2,175.1h10v-7.6c0-11,0.9-10.7-34-11l-20.7-0.2l-2.3,3.3c-1.7,2.5-2,3.4-1.1,3.6
		c0.9,0.2,1.2,1.8,1.2,6.5v6.2l18.5-0.5C874.9,175.3,887.7,175,893.2,175.1L893.2,175.1z M865.8,171.5c-5.2-4.6-2.1-12.6,4.8-12.1
		c2.1,0.1,3.3,0.6,3.3,1.3c-0.1,0.5,0.3,0.8,0.9,0.6c0.7-0.3,1.5,0.6,2.2,2.2C879.8,170.2,871.3,176.4,865.8,171.5L865.8,171.5z
		 M872.2,170.6c2.3-1.7,2.8-6,1-8c-3.6-3.9-9.5-0.4-8.3,5C865.7,171.5,869.2,172.9,872.2,170.6L872.2,170.6z M890.9,172
		c-2.9-1.7-3.7-5.9-2-9.2c4.1-7.8,16.5-1.8,12.6,6.2C899.5,173.2,895,174.6,890.9,172z M897.8,170.1c3.3-3.3,1.1-9.2-3.3-9.2
		c-3.2,0-5.3,3.1-4.5,6.6C890.9,171.6,894.9,173,897.8,170.1L897.8,170.1z M608.8,154.9c-0.5-39.7-39.5-89.5-80.1-102.6
		c-26.2-8.4-55-6.8-83,4.8c-16.7,6.9-25.2,7.4-40.2,2.1c-8.4-3-10-1.1-10,11.5c0.1,9.8,0.1,10,1.3,6.8c0.7-1.9,1.2-6.4,1.2-10.7
		v-7.4l2.3,0.5c1.3,0.3,5.4,1.4,9.4,2.6c6.8,2.1,26.4,3.1,25.2,1.2c-0.2-0.3,0.9-0.9,2.3-1.2c1.5-0.3,3.9-1.1,5.2-1.7
		c1.4-0.6,5.3-2.3,8.7-3.7c7.6-3.3,13.4-5,14.3-4.5c0.4,0.3,0.7,0.1,0.7-0.4c0-0.5,0.7-0.9,1.5-0.9c0.8,0,5.4-0.7,10.2-1.3
		c35.1-5.3,66.8,5.6,93.4,32.4c3.7,3.7,7.6,7.9,8.7,9.4c1.1,1.5,3.1,3.9,4.4,5.3c1.3,1.5,2.3,2.9,2.3,3.3c0,0.3,0.5,1.1,1.1,1.7
		c1.5,1.5,9.4,15,11,18.7c3.3,7.8,5.5,15.1,5.6,18.7c0.1,1.3,0.4,2.3,0.8,2.3c0.4,0,0.5,0.9,0.3,2.1c-0.2,1.1-0.1,2.1,0.3,2.1
		s0.7,1.9,0.7,4.1c0,4.5,0.6,6.7,1.7,6.7C608.4,156.8,608.7,155.9,608.8,154.9L608.8,154.9z M274.2,150.1c0-2.5-11.8-3.7-12.8-1.3
		c-0.3,0.9,0.3,1.3,2.2,1.5C269.1,151.1,274.2,150.9,274.2,150.1z M279.2,150.5c0-2.9-4.6-7-7.8-7c-2,0-1.5,2.1,0.7,3.2
		c1.1,0.5,2.5,1.7,3.1,2.7c0.9,1.5,4,2.5,4,1.3V150.5z M192,148.5c0-0.9-98.2-1-116.2-0.1c-6.5,0.3,15.5,0.7,52.5,0.7
		C170.4,149.2,192,149,192,148.5z M208.6,148.5c0-1.1-12.4-1.1-14.1,0c-0.9,0.5,1.2,0.8,6.4,0.8
		C205.6,149.3,208.7,148.9,208.6,148.5L208.6,148.5z M253.1,148.5c-0.3-0.5-8.3-0.8-21.2-0.8c-13.3,0-20.7,0.3-20.7,0.8
		c0,0.5,7.6,0.8,21.2,0.8C246.3,149.3,253.4,149,253.1,148.5z M331.2,147.9c22.5-10.6-4.5-35.1-38.7-35.1c-4.8,0-7-0.4-9-1.7
		c-2.5-1.5-2.9-1.5-4.6-0.5c-1.7,1.1-16.5,0.7-22.4-0.7c-1.2-0.3-1.5,0.3-1.5,2.7v3.1l6,1.1c3.3,0.6,7.2,1.3,8.7,1.5
		c1.5,0.3,3.5,1.3,4.5,2.3l1.9,1.9l4.2-2.2c7.8-4.1,15.1-3.3,37.4,4.1c15.3,5,21.1,10.8,15.7,15.5c-2.9,2.5-6.4,3.1-8.8,1.5
		c-3.6-2.4-7.4-0.7-7.4,3.3C317.4,149,325.3,150.8,331.2,147.9L331.2,147.9z M67.3,147.1c-1.3-0.2-3.5-0.2-5,0
		c-1.5,0.2-0.5,0.3,2.3,0.3S68.5,147.3,67.3,147.1z M97.1,146c3.3,0,6.1-0.3,6.1-0.6c0-0.8-18.1-0.3-26.6,0.7
		c-5.2,0.6-4.6,0.7,4.1,0.3C86.3,146.2,93.7,146,97.1,146L97.1,146z M247.7,145.4c0-0.3-32.1-0.6-71.4-0.6s-71.4,0.3-71.4,0.6
		c0,0.3,32.1,0.6,71.4,0.6S247.7,145.7,247.7,145.4z M252.7,145.7c0-0.2-0.7-0.5-1.7-0.7c-0.9-0.3-1.7-0.1-1.7,0.3
		c0,0.4,0.7,0.7,1.7,0.7S252.7,145.9,252.7,145.7z M268.4,144.3c0-1.5-0.5-1.7-6.6-1.7s-6.6,0.1-6.6,1.7c0,1.5,0.5,1.7,6.6,1.7
		S268.4,145.8,268.4,144.3z M253.5,112.3c0-2.3-0.3-2.9-1.7-2.9c-3.1,0-2.1,5.4,1.1,5.8C253.2,115.3,253.5,113.9,253.5,112.3z
		 M248.6,111.2c0.3-2.3,0.2-2.4-6.8-4.6c-14.7-4.6-20-9.8-16.7-16.5c3-6.2,5.3-7.2,9.8-4c8.1,5.7,16.7-2.8,8.9-8.8
		c-11.3-8.6-29.2,9.7-22.5,23C225,107.7,247.7,116.8,248.6,111.2L248.6,111.2z M362.2,99.1c3.9-0.6,7.3-0.9,7.7-0.7
		c0.3,0.2,0.7,0.1,0.7-0.4c0-0.5,1-1,2.3-1.2c9.4-1.7,20.9-9.8,20.9-14.7V80l-1.8,2.4c-20.8,27.9-118.6,17.7-135-14l-1.7-3.3V68
		c-0.1,6.7,18.1,20.4,31.9,24.2c1.4,0.4,5.3,1.5,8.7,2.4C314.5,99.7,344.7,101.8,362.2,99.1L362.2,99.1z"/>
</g>
</svg>
