<?xml version="1.0" encoding="utf-8"?>
<!-- Generator: Adobe Illustrator 18.1.1, SVG Export Plug-In . SVG Version: 6.00 Build 0)  -->
<svg version="1.1"
	 id="svg3390" xmlns:svg="http://www.w3.org/2000/svg" xmlns:cc="http://creativecommons.org/ns#" xmlns:rdf="http://www.w3.org/1999/02/22-rdf-syntax-ns#" xmlns:dc="http://purl.org/dc/elements/1.1/"
	 xmlns="http://www.w3.org/2000/svg" xmlns:xlink="http://www.w3.org/1999/xlink" x="0px" y="0px" viewBox="-16 860 1406 282"
	 enable-background="new -16 860 1406 282" xml:space="preserve">
<path id="path3400" fill="#F5F5F5" d="M326,1123c-85.4-2.7-150.1-9.3-254.5-26c-17.8-2.9-34.2-5-38.7-5c-12.2,0-28.1-2-30.1-3.8
	c-2.3-2.1-2.2-4.9,0.2-6.5c1.9-1.2,2-2.3,2-39.8c0-37.3-0.1-38.6-2-40.2c-2.3-2-2.6-5-0.6-6.7c1.9-1.6,11-2.8,29.1-4
	c11.7-0.8,19.5-2,35.1-5.5c66.9-15.1,125.3-36.4,187-68.2l24.1-12.4h12.6h12.6l33.3,25l33.3,25l0.3-34.6c0.2-24.3,0.6-35,1.4-36
	c0.7-0.8,2.5-1.3,4.2-1.1c4,0.4,3.9,0.2,17.2,39.3c7.3,21.5,11.6,32.7,13.1,34.2l2.2,2.2l59.3,0c127.8,0.1,199.6,3.2,268.4,11.6
	l5.1,0.6l0.7-8.4c0.4-4.6,0.7-13.4,0.7-19.6l0-11.2h3.9c2.2,0,12,0.7,21.8,1.5c19.4,1.7,273.4,24.3,398.8,35.5
	c42.9,3.8,78.1,7,78.2,7s0.3-0.7,0.3-1.6c0-1.2,0.6-1.5,2.2-1.1c1.2,0.3,7.4,1.5,13.8,2.7c16.4,3,15,2.1,15,9.6
	c0,5.8,0.2,6.5,2.2,6.9c1.9,0.4,84.6,10.5,86.2,10.5c0.3,0,0.6,10.8,0.6,24v24l-3.8-0.5c-2.1-0.3-20.4-2.5-40.8-5
	c-20.3-2.4-38.7-4.7-40.8-5l-3.8-0.5v10v10h-13.4c-16.3,0-16.8-0.3-19.5-11c-4.7-18.2-13.5-31.1-23.9-35.1
	c-5.5-2.1-8.3-2.2-83.1-3.5c-125.2-2.2-133.6-2.2-140-0.2c-12.2,3.7-19.6,11.5-30.4,31.9c-6.6,12.4-9.8,20.9-12.1,31.4
	c-2.6,12.2-3,12.4-22.5,12.4c-13.5,0-16,0.2-16.8,1.6c-0.5,0.9-3,2-5.7,2.5c-7.4,1.4-32.8,3.9-39.4,3.9c-3.3,0-21.6,2.5-40.8,5.5
	c-86.5,13.6-133.4,18.7-208.4,22.6C595.2,1123.4,362.6,1124.1,326,1123z M485.2,1122l98.8,0v-6.1c0-4.9-0.3-6-1.4-5.6
	c-3.2,1.2-16.6,3.6-26.1,4.6c-5.5,0.6-24.6,1.4-42.5,1.7c-62,1.1-121.1-3.6-140.2-11.2c-1.6-0.6-1.8,0.1-1.8,7.9v8.5l3.8,0.4
	c2.1,0.2,5.3,0.3,7.2,0.1S430.9,1122,485.2,1122L485.2,1122z M370,1113.2v-8.8l-4-3.2c-2.2-1.8-4-4-4-4.9c0-1.6-1.7-1.7-19.7-1.4
	c-10.8,0.2-33.4-0.5-50.3-1.4c-35.3-1.9-175.5-3-214.1-1.7l-23.5,0.8l14,2.3c105.9,17.6,194.1,25.8,288.8,27l12.8,0.2V1113.2z
	 M652.5,1118.4c54.7-3.5,114.1-10.5,174-20.3l17-2.8l-31-0.7c-32.5-0.8-103.6,0.6-124.7,2.3c-6.8,0.6-18.8,1.8-26.8,2.7
	c-14.8,1.7-59.6,2.4-65.1,0.9c-2.2-0.6-2.7-0.3-3.3,1.7c-0.3,1.3-2,3.4-3.6,4.6c-2.8,2-3,2.6-3,8.2v6.1l21.8-0.7
	C619.7,1120.2,639.8,1119.3,652.5,1118.4z M548.5,1111.9c22.2-1.6,35.5-4.8,35.5-8.4c0-1.2-0.5-1.5-1.8-1c-4.9,2-18,4.5-27.8,5.5
	c-18.3,1.8-66,2.4-94.5,1.1c-46.3-2.1-71.6-5.4-86.2-11.6c-3-1.3-2,2.3,1.1,3.9C393.2,1110.9,485.9,1116.5,548.5,1111.9
	L548.5,1111.9z M581.6,1109c1.5-0.6,2.5-1.2,2.2-1.5s-2,0.2-3.9,1C576.1,1110.1,577.4,1110.5,581.6,1109z M533.3,1107
	c24-1.1,34.5-2.3,43.7-5l6.5-1.9l0.3-7l0.3-7H478.1H372v4.4c0,4.1,0.2,4.5,3.8,5.9C396.4,1104.5,472.8,1109.7,533.3,1107L533.3,1107
	z M589.6,1101.2c-1-3.2-3.1-1.5-3.3,2.5l-0.1,3.6l2-2C589.5,1103.9,590,1102.6,589.6,1101.2L589.6,1101.2z M375,1103.6
	c0-0.2-0.7-0.7-1.6-1c-0.9-0.3-1.3-0.2-0.9,0.4C373.1,1104,375,1104.4,375,1103.6L375,1103.6z M368.8,1099.1c-1.1-1.7-1.1-2.5,0-4.2
	c1.2-1.9,1.1-2-1-1.4c-2.2,0.7-3.8,2.2-3.8,3.6c0,0.9,5.2,5,5.7,4.4C370,1101.4,369.5,1100.3,368.8,1099.1L368.8,1099.1z
	 M661,1096.1c35.6-3.7,49.8-4.3,138-5.1c71.4-0.7,89.7-1.1,99.5-2.4c14.1-1.9,14.5-2,14.5-4.2c0-1.4-0.7-1.6-4.8-1
	c-24.5,3.5-33.5,3.8-108.2,4.1c-77.8,0.3-103.2,1.2-135,4.5c-24.4,2.6-42.7,3.3-58,2.2c-9.4-0.7-13.3-0.6-15.6,0.3
	c-2.3,0.9-3.4,0.9-4.2,0.1s-1.1-0.6-1.1,0.8c0,1.9,1,2,27.8,2.3C636.3,1098.1,645.1,1097.7,661,1096.1L661,1096.1z M609.4,1091.9
	c16.7,1,34.4,0.3,59.6-2.5c8-0.9,20.1-1.9,27-2.4c8.2-0.5-8.3-0.8-47.8-0.9L588,1086v3.9v3.9l2.9-1.4
	C593.2,1091.2,596.4,1091.2,609.4,1091.9L609.4,1091.9z M370,1091.2c0-2.5-6.5-3.2-29.9-3.2c-13.5,0-37.4-0.8-53.1-1.7
	c-23.8-1.4-48.6-1.7-151.5-1.8c-67.7,0-125.1-0.5-127.8-0.9c-4.4-0.8-4.8-0.7-4.8,1.2c0,1.7,0.9,2.1,6.2,2.8
	c3.4,0.4,63.2,0.9,132.8,1c98.6,0.2,131.6,0.5,149.5,1.7C315.2,1091.8,370,1092.4,370,1091.2z M586.7,1087.2c-0.3-1-0.5-0.2-0.5,1.8
	s0.2,2.7,0.5,1.8S586.9,1088.2,586.7,1087.2z M949.7,1081.3c1.3-2,1-2-11.4-2.7c-20-1-27.3-0.9-27.3,0.6c0,3.1,4.4,4.2,19,4.7
	C945.9,1084.5,947.7,1084.3,949.7,1081.3z M368,1041.4v-42.6l-46.2,0.4c-25.4,0.2-69,1-96.8,1.7c-35.7,0.9-69.4,1-115,0.4
	c-62.2-0.8-97-0.4-101.8,1.1l-2.2,0.7v38.8v38.8l6.8,0.8c3.7,0.4,57.2,0.7,118.8,0.6c61.6-0.1,119.6,0.2,129,0.6
	c9.4,0.4,37.4,0.9,62.2,1l45.2,0.2V1041.4L368,1041.4z M584,1041.5V999H478H372v42.5v42.5h106h106V1041.5z M586.7,1020.3
	c-0.2-12-0.3-2.5-0.3,21.2c0,23.7,0.1,33.5,0.3,21.8C586.9,1051.7,586.9,1032.3,586.7,1020.3z M901.8,1082.1l8.2-1.3v-38.9V1003
	l-2.2-0.5c-13.4-2.9-19.1-3-168-3.3L588,998.9v42.6v42.6l152.8-0.3C861,1083.4,895.3,1083.1,901.8,1082.1L901.8,1082.1z
	 M952.6,1069.8c2.3-9.3,6.1-18.6,13.1-31.7l5.6-10.5l-3.8-3.3c-2.1-1.8-8.9-6.4-15.1-10.3c-6.2-3.9-15.4-10-20.3-13.5
	c-8.3-6-9.4-6.5-14.2-6.5c-4.1,0-5,0.3-4,1.2c1.8,1.8,1.5,4.6-0.8,6.5c-1.9,1.7-2,2.9-2,38.5v36.8h19.9h19.9L952.6,1069.8z
	 M1274,1056v-3h-10.9c-12.2,0-17.4,0.7-16.8,2.4c0.8,2.6,5.5,3.6,16.5,3.6l11.2,0V1056z M1265.6,1051h8.4v-24v-24l-4.2,2.9
	c-2.3,1.6-9.8,6-16.5,9.8s-13.4,7.8-14.9,9l-2.6,2.1l3.6,7.9c2,4.4,4.1,10.1,4.8,12.8l1.2,4.9l6-0.6
	C1254.6,1051.3,1261.1,1051,1265.6,1051z M1364,1027.1c0-23.7,0.2-23.1-5.6-23.1h-2.4v21.9v21.9l2.2,0.4
	C1364.4,1049.5,1364,1051.1,1364,1027.1L1364,1027.1z M1353.8,1025.8l-0.3-22.2l-33.5-4.1c-18.4-2.2-35.9-4.4-38.8-4.7l-5.2-0.6v22
	c0,12.1,0.1,22,0.2,22s17.3,2.3,38.2,4.9s38.3,4.9,38.8,4.9C1353.7,1048,1353.9,1038,1353.8,1025.8z M985.8,1013.5
	c2.4-1.6,7.7-3.8,11.8-5l7.5-2.2l-8.3-3.8c-10.9-5-16-6.9-43-15.8c-23.6-7.9-30.4-10.8-35.8-15.3c-1.8-1.5-3.3-2.5-3.5-2.3
	c-1.2,1.4-2.6,5.1-2.6,7c0,1.4,2.3,4.6,5.8,8.3c3.2,3.3,6.2,6.8,6.8,7.7c1.3,2.2,10.4,8.7,26.7,19.1c7.7,4.9,15.6,10.2,17.5,11.8
	l3.5,2.9l4.6-4.8C979.5,1018.5,983.5,1015,985.8,1013.5L985.8,1013.5z M1243.1,1019.7c4.1-2.4,11.7-6.8,16.9-9.9
	c13.6-7.9,14.6-8.9,13.3-12c-0.8-1.7-2.5-2.9-5.6-3.7c-4.2-1.2-5.5-1-19.3,2.8c-13.6,3.7-28.9,9.1-33.9,11.9
	c-1.6,0.9-1.7,1.2-0.5,1.6c8,2.4,11.6,4.4,15.8,8.7c2.6,2.6,5,4.8,5.4,4.9C1235.5,1024,1239.1,1022.1,1243.1,1019.7L1243.1,1019.7z
	 M1218.3,1005.5c5.2-2.5,15.4-6.2,22.6-8.2s13.1-4,13.1-4.3s-73-5.6-162.2-11.9c-89.2-6.2-165-11.6-168.2-11.9l-6-0.6l2.7,2.2
	c4.6,3.7,14.1,7.5,40.8,16.3c14,4.7,30.9,11,37.5,14l12,5.6l87.5,1.4c48.1,0.8,92.7,1.5,99.1,1.6l11.6,0.2L1218.3,1005.5z
	 M138,998.6c108-0.1,129.8-0.4,156.5-1.9c18.2-1.1,39.3-1.7,51.2-1.5c16.3,0.3,20.3,0.1,20.8-1c0.3-0.7,1.2-1.1,2-0.8
	s1.5,0.2,1.5-0.3c0-2.1-33.7-2.3-68-0.5c-29.5,1.6-52.7,1.9-161,2.1c-69.6,0.1-129,0.6-132,1c-4.6,0.6-5.6,1.1-5.8,2.9
	c-0.3,2-0.1,2.1,4.5,1.1C10.8,999.1,57.3,998.7,138,998.6z M913,998.6c0-1.7-1.8-2.1-18-4.2c-10.1-1.3-30-1.7-102-2.4
	c-89-0.8-97.2-1.1-135.5-5.1c-16.1-1.7-25-2-45.7-1.7c-24.7,0.3-25.7,0.4-25.8,2.3c0,1.5,0.3,1.7,1.1,0.8c0.8-0.8,1.7-0.8,3.4,0.3
	c1.9,1.2,4.8,1.3,18.6,0.5c17.2-1,33.8-0.3,58.2,2.3c28.3,3.1,45.6,3.6,123.7,4.1c59.3,0.4,83.8,0.9,96.5,2c9.3,0.8,17.2,1.7,17.4,2
	s2.2,0.4,4.3,0.4C911.8,1000,913,999.6,913,998.6L913,998.6z M583.8,990.3l-0.4-6.7l-4.7-1.8c-2.6-1-10.2-2.5-17-3.5
	c-10.3-1.5-20-1.7-63.2-1.8c-52.8,0-69.2,0.8-95.5,4.5c-13.8,2-27.5,5.3-29.7,7.1c-0.7,0.6-1.3,2.8-1.3,4.9v3.9h106.1h106.1
	L583.8,990.3L583.8,990.3z M586.7,992.2c-0.3-1-0.5-0.2-0.5,1.8c0,1.9,0.2,2.7,0.5,1.8C586.9,994.8,586.9,993.2,586.7,992.2z
	 M696,996.3c-3-0.2-17.2-1.5-31.5-2.9c-21.7-2.2-29.9-2.5-49.5-2.3c-12.9,0.2-24.3-0.1-25.2-0.5c-1.5-0.7-1.8-0.3-1.8,2.8v3.6
	l56.8-0.2C676,996.7,699,996.5,696,996.3L696,996.3z M1274,989.2v-5.8l-13.6-2.2c-11.5-1.9-13.8-2-14.8-0.9
	c-0.9,1.1-26.7-0.4-161.1-9.9c-88-6.2-163-11.5-166.8-11.8l-6.8-0.5v6.6c0,6.4,0,6.5,1.8,4.4l1.8-2.2l172.5,12
	c94.9,6.6,174.6,12.3,177.1,12.6c2.5,0.3,5.7,1.2,7,1.9s2.5,1.4,2.7,1.4C1273.9,995,1274,992.4,1274,989.2z M908.1,989.8
	c0.1-1.8,0.4-7.4,0.8-12.5l0.7-9.3l-2.5,0c-1.4,0-37.6-2.5-80.5-5.5s-79.2-5.5-80.8-5.5c-2.7,0-2.8,0.1-2.8,6.2
	c0,7.1-0.8,11-2.1,10.2c-3.9-2.4-87.9-9.2-136.7-11l-18.2-0.7l0,6.4c0,6,0.2,6.5,3,8.1c1.6,0.9,3.3,2.9,3.6,4.3l0.7,2.6l7.6-0.8
	c13.8-1.4,41.9-0.7,62.6,1.5c34.9,3.7,51,4.3,138,5.2c64.3,0.7,87.2,1.2,94,2.3C908.7,993.4,908,993.5,908.1,989.8L908.1,989.8z
	 M289,990c9.1-0.7,29.2-1.3,44.7-1.3c25.6-0.1,28.2-0.3,28.2-1.8c0-1.7,5.4-6.8,7.1-6.8c0.5,0,0.9-2.5,0.9-5.5c0-6.4,1.5-6-16-4.5
	c-22.3,1.9-31.3,3.9-24.8,5.5c2.9,0.7,4.1,0.7,16.8-0.1c9.7-0.6,10.7-0.5,13,1.4l2.5,2.1l-3.7,1.6c-5.3,2.2-22.1,2.1-32.1-0.3
	c-8.8-2.1-11.8-4.1-10-6.9c2.2-3.5,8.8-4.6,48.1-7.9c4.6-0.4,6.2-0.9,6.2-2c0-1.3-2-1.4-13.8-0.9c-7.6,0.3-23.2,0.8-34.8,1.1
	c-79.4,2.1-144.4,8.7-256,25.7l-8,1.2l6.5,0.6C75.7,992.3,271.2,991.3,289,990L289,990z M920.9,990.2c-2.5-3.4-8.3-9.2-9.1-9.2
	c-0.4,0-0.8,2.5-0.8,5.5v5.5h5.6C921.8,992,922.1,991.9,920.9,990.2z M368.8,988c-1-1.6-1-2.4,0.1-4.1c1.9-3.1,0.9-3.3-2.2-0.5
	c-3.2,3-3.3,4.3-0.4,5.5C369.7,990.3,370.1,990.2,368.8,988z M395,980.1c25.5-4.5,56.6-6.4,105-6.4c46.8,0,72,2.1,81.2,6.9
	c2.6,1.3,2.8,1.3,2.8-0.5c0-6.4-30.6-10.1-84.5-10.1c-44.4,0-77.5,2-102.4,6.1c-15.8,2.6-24.5,5.6-24.9,8.6l-0.3,2.2l5.8-2.4
	C380.9,983.2,388.7,981.2,395,980.1L395,980.1z M589.5,982c0.6-2-0.9-5-2.7-5c-0.7,0-0.6,4.8,0.1,6.8
	C587.3,984.8,589,983.6,589.5,982z M123.2,978.9c14.5-2,17.9-3.1,14.4-4.5c-0.8-0.3-9.6,1.3-19.8,3.5
	C98.3,982.3,98.7,982.3,123.2,978.9z M1274,981.1c0-1-27-6.4-27.8-5.6c-1.1,1.1,1.2,1.7,14,3.9c7.3,1.3,13.5,2.4,13.6,2.4
	C1273.9,982,1274,981.6,1274,981.1z M356.7,979.4c1.2-0.3,2-1,1.8-1.4c-1-1.6-9.4-2.1-17.8-0.9c-6.6,0.9-9.6,1-11.8,0.1
	c-2.3-0.9-2.9-0.8-2.9,0.2c0,0.9,1.9,1.6,5.8,2c3.2,0.4,6.2,0.8,6.8,1.1C339.8,981.1,353.9,980.2,356.7,979.4L356.7,979.4z M375,980
	c0.8-0.5,1-1,0.5-1s-1.7,0.4-2.5,1s-1,1-0.5,1S374.2,980.5,375,980z M1245,979c0-1.4-1.3-1.5-58-6.5
	c-134.5-11.9-266-23.6-270.8-24.2l-5.3-0.6l0.3,4.4l0.3,4.4l164.5,11.6C1268.2,981.7,1245,980.2,1245,979z M119.1,975.4
	c6.3-1.4,13.1-2.8,15.2-3c2.1-0.3,11.5-3.2,21-6.5c34.3-12.1,70.4-27.8,102.2-44.4c18.7-9.8,20.4-10.9,18.9-12.4
	c-0.8-0.8-4.1,0.5-11.5,4.5c-47.3,25.4-98.1,46.5-145.4,60.2C103.2,978.5,103.1,979,119.1,975.4L119.1,975.4z M384,975
	c9-2.3,18.7-3.8,36.3-5.5l13.2-1.3l-16,0c-8.8,0-22.6,0.2-30.8,0.5l-14.8,0.6v4.5c0,4.2,0.2,4.4,2.2,3.8
	C375.5,977.2,379.9,976.1,384,975L384,975z M221.9,967.5c34.4-3,73.9-5.2,111.3-6.1c26.2-0.7,27.8-0.8,27.8-2.6
	c0-1.7-0.7-1.8-9.2-1.4c-5.1,0.3-19.1,0.7-31.2,1c-48.8,1.2-106.3,5.5-154.4,11.5c-13.4,1.7-24.8,3-25.2,3s-0.9,0.8-0.9,1.8
	c0,1.7,1.6,1.6,26.7-1.5C181.3,971.5,206.2,968.9,221.9,967.5z M324.2,974.8c0.2-1.7,1.4-2.5,4.8-3.4c6.3-1.6,0.9-1.7-6-0.1
	c-5.3,1.2-7.4,3.3-4.9,4.9C320.8,977.8,323.8,977.1,324.2,974.8z M584,967.7v-5.3l-15.8-0.7c-23.8-1-67.5-0.8-66.8,0.3
	c0.6,1-7.1,2.8-14.5,3.4c-2.5,0.2,3.1,0.4,12.5,0.5c35.9,0.4,69,2.9,79,6.1C583.8,973.5,584,973.4,584,967.7z M172.3,967.5
	c45.9-5.6,104.2-9.7,161-11.3l25.8-0.7l-29.2-21.8L300.8,912h-11h-11l-17.6,9.3c-30.9,16.4-69.2,33.3-98.6,43.7
	c-6.6,2.3-12.2,4.4-12.4,4.6C149.4,970.3,151.3,970.1,172.3,967.5z M339.8,969.3c-1-0.3-2.5-0.3-3.5,0s-0.2,0.5,1.8,0.5
	S340.7,969.6,339.8,969.3z M349.8,968.3c-1-0.3-2.5-0.3-3.5,0s-0.2,0.5,1.8,0.5S350.7,968.6,349.8,968.3z M364.8,967.3
	c-1-0.3-2.8-0.3-4,0s-0.5,0.4,1.7,0.5S365.7,967.6,364.8,967.3L364.8,967.3z M449.2,967.3c-0.7-0.3-1.8-0.3-2.5,0s-0.1,0.5,1.2,0.5
	S449.9,967.6,449.2,967.3z M412.5,965.9c-1.7-0.4-9.8-0.4-18,0l-15,0.8l18,0C408.4,966.7,414.3,966.4,412.5,965.9z M476.3,966.3
	c-1.2-0.2-3.5-0.2-5,0c-1.5,0.2-0.5,0.4,2.2,0.4C476.2,966.7,477.5,966.5,476.3,966.3L476.3,966.3z M909.8,958.5
	C909.4,958,753.1,947,747.7,947c-3.7,0-3.7,0-3.7,4c0,3.1,0.4,4,1.8,4c1,0,38.2,2.6,82.8,5.8l81,5.7l0.3-3.9
	C910,960.5,910,958.6,909.8,958.5z M452.3,965.3c-1.2-0.2-3.5-0.2-5,0c-1.5,0.2-0.5,0.4,2.2,0.4
	C452.2,965.7,453.5,965.5,452.3,965.3L452.3,965.3z M415.8,963.9c20.9,0.5,60.7-1.1,52.2-2c-8.4-0.9-40-1-71.2-0.2
	c-20.8,0.5-24.8,0.9-24.8,2.1c0,1.3,2.1,1.4,14.8,0.6C394.9,964,407.9,963.7,415.8,963.9z M472.2,964.3c-0.7-0.3-1.8-0.3-2.5,0
	s-0.1,0.5,1.2,0.5S472.9,964.6,472.2,964.3z M367,960.1c0-0.9-2.4-2.1-4.1-2.1c-0.5,0-0.9,0.7-0.9,1.5c0,0.9,0.9,1.5,2.5,1.5
	C365.9,961,367,960.6,367,960.1z M391.8,957.8l0.3-2.8h-10.1H372v3v3l9.8-0.3l9.8-0.3L391.8,957.8z M403.4,958.6
	c-0.4-1.1-6.5-3.6-8.8-3.6c-0.3,0-0.6,1.1-0.6,2.5c0,2.3,0.3,2.5,5,2.5C402.7,960,403.8,959.7,403.4,958.6L403.4,958.6z M368,956.6
	c0-0.5-31.4-24.4-49.7-37.9c-13-9.5-15.7-11-15.1-8.3c0.3,1.5,56.9,44.2,60.3,45.7C365.8,957,368,957.2,368,956.6z M910,952.1v-3.9
	l-4.8-0.6c-5.4-0.7-135.3-12.1-148.2-13.1c-4.7-0.3-9.5-0.8-10.8-1.1c-2.1-0.4-2.2-0.2-2.2,5.6v6l3.8,0.1c2.1,0,36.8,2.5,77.2,5.4
	s76.1,5.4,79.2,5.4l5.8,0.1V952.1z M391.5,931.9c-9-20.9-11.5-26-11.5-23.2c0,0.6-0.7,1.8-1.5,2.7c-1.4,1.4-0.7,3.5,6.8,21.3
	c8,19,8.5,19.8,11.8,20.9c1.9,0.6,3.6,1,3.7,0.9C400.9,954.4,396.7,944.2,391.5,931.9z M391.1,950.8c-0.5-1.2-4.3-10.4-8.6-20.4
	l-7.7-18.2l2.1-2.1c2.4-2.4,2.4-5.8-0.1-7.4c-1.2-0.8-2.1-0.7-3.2,0.3c-1.4,1.1-1.6,4.7-1.6,25.7V953h10
	C391.9,953,391.9,953,391.1,950.8z M388,914.5c-5.9-17.3-6.9-19.4-6.9-15.5c0,3.4,1.6,8.3,6.6,20.2c3.7,8.6,6.8,15.6,6.9,15.5
	S391.8,925.5,388,914.5z M300,908.5c0-1.2-1.8-1.5-10.5-1.5s-10.5,0.3-10.5,1.5s1.8,1.5,10.5,1.5S300,909.7,300,908.5z M377.5,901
	c1.4,1.1,1.5,0.3,1.5-6.9V886h-3.5c-3.3,0-3.5,0.2-3.5,3.6c0,2.8,0.4,3.5,1.8,3.4c3-0.3,4.2,0,4.2,1.1c0,0.5-1.3,1-2.9,1
	c-2.5,0-2.9,0.4-3.3,3.4c-0.4,3.2-0.3,3.3,1.9,2.4C375.3,900,376.4,900.1,377.5,901z"/>
</svg>
