<?xml version="1.0" encoding="utf-8"?>
<!-- Generator: Adobe Illustrator 18.1.1, SVG Export Plug-In . SVG Version: 6.00 Build 0)  -->
<svg version="1.1" id="Layer_1" xmlns="http://www.w3.org/2000/svg" xmlns:xlink="http://www.w3.org/1999/xlink" x="0px" y="0px"
	 viewBox="0 149 400 97" enable-background="new 0 149 400 97" xml:space="preserve">
<g>
	<path fill="#555555" d="M-7,176.6"/>
	<path fill="#555555" d="M27.6,202.8c0,2.3,0.4,4.3,1.1,5.9c1.4,2.9,4,4.3,7.7,4.3c2.3,0,4.3-0.8,5.9-2.3c1.7-1.6,2.5-3.8,2.5-6.7
		c0-3.9-1.6-6.4-4.7-7.8c-1.8-0.7-4.6-1.1-8.4-1.1v-8.2c3.8-0.1,6.4-0.4,7.8-1.1c2.6-1.1,3.9-3.4,3.9-6.9c0-2.2-0.7-4.1-2-5.5
		c-1.3-1.4-3.1-2.1-5.5-2.1c-2.7,0-4.7,0.8-6,2.6c-1.3,1.7-1.9,4.1-1.9,6.9H17.3c0.1-2.9,0.6-5.7,1.5-8.3c1-2.3,2.4-4.4,4.5-6.4
		c1.5-1.4,3.3-2.4,5.4-3.1s4.6-1.1,7.7-1.1c5.6,0,10.1,1.5,13.6,4.4c3.4,2.9,5.1,6.8,5.1,11.7c0,3.5-1,6.4-3.1,8.8
		c-1.3,1.5-2.7,2.5-4.1,3.1c1,0,2.6,0.9,4.5,2.7c2.9,2.7,4.4,6.5,4.4,11.2c0,5-1.7,9.3-5.2,13.1c-3.4,3.8-8.5,5.7-15.3,5.7
		c-8.3,0-14.1-2.7-17.3-8.1c-1.7-2.9-2.7-6.7-2.9-11.4h11.5L27.6,202.8L27.6,202.8z"/>
	<path fill="#555555" d="M89.1,177.3c2.1,1.2,3.8,2.8,5,4.9v-21.1h11.7v59.7H94.7v-6.1c-1.7,2.6-3.5,4.5-5.6,5.7
		c-2.1,1.2-4.7,1.8-7.8,1.8c-5.1,0-9.5-2.1-13.1-6.3s-5.3-9.5-5.3-16.1c0-7.5,1.7-13.5,5.2-17.8s8.1-6.5,14-6.5
		C84.6,175.5,87,176.2,89.1,177.3z M92,208.8c1.7-2.4,2.6-5.6,2.6-9.4c0-5.4-1.4-9.3-4.1-11.6c-1.7-1.4-3.6-2.1-5.9-2.1
		c-3.4,0-5.9,1.3-7.4,3.9c-1.6,2.6-2.4,5.7-2.4,9.5c0,4.1,0.8,7.3,2.4,9.8c1.6,2.4,4.1,3.7,7.3,3.7C87.8,212.5,90.3,211.3,92,208.8z
		"/>
	<path fill="#555555" d="M145.2,177.5c3.1,1.4,5.6,3.6,7.6,6.5c1.8,2.6,3,5.7,3.5,9.2c0.3,2,0.4,5,0.4,8.8h-32.2
		c0.2,4.4,1.7,7.5,4.6,9.3c1.8,1.1,3.9,1.7,6.4,1.7c2.6,0,4.8-0.7,6.4-2c0.9-0.7,1.7-1.8,2.4-3.1h11.8c-0.3,2.6-1.8,5.3-4.3,8
		c-4,4.3-9.5,6.4-16.6,6.4c-5.9,0-11.1-1.8-15.6-5.4c-4.5-3.6-6.8-9.5-6.8-17.7c0-7.7,2-13.5,6.1-17.6c4.1-4.1,9.3-6.1,15.8-6.1
		C138.7,175.4,142.2,176.1,145.2,177.5z M127.9,187.5c-1.6,1.7-2.7,4-3.1,6.9h19.9c-0.2-3.1-1.2-5.4-3.1-7c-1.9-1.6-4.1-2.4-6.9-2.4
		C131.9,185,129.6,185.8,127.9,187.5z"/>
	<path fill="#555555" d="M187.2,175.6c0.1,0,0.5,0.1,1,0.1v11.9c-0.7-0.1-1.4-0.1-2-0.1c-0.6-0.1-1-0.1-1.4-0.1
		c-4.7,0-7.8,1.5-9.4,4.5c-0.9,1.7-1.3,4.3-1.3,7.8v21.1h-11.6v-44.2h11.1v7.7c1.8-2.9,3.3-5,4.7-6c2.2-1.8,5-2.7,8.4-2.7
		C186.8,175.5,187,175.5,187.2,175.6z"/>
	<path fill="#555555" d="M204,206.7c0.2,2,0.8,3.5,1.6,4.4c1.4,1.5,4.1,2.3,8,2.3c2.3,0,4.1-0.3,5.4-1c1.3-0.7,2-1.7,2-3.1
		c0-1.3-0.5-2.3-1.6-2.9s-5.1-1.9-12.1-3.5c-5-1.2-8.6-2.8-10.6-4.7s-3.1-4.5-3.1-8c0-4.1,1.6-7.6,4.8-10.5
		c3.2-2.9,7.7-4.4,13.6-4.4c5.5,0,10.1,1.1,13.5,3.3c3.5,2.2,5.5,6,6,11.4h-11.6c-0.1-1.5-0.6-2.7-1.2-3.5c-1.3-1.6-3.4-2.3-6.5-2.3
		c-2.5,0-4.3,0.4-5.4,1.2c-1,0.8-1.6,1.7-1.6,2.8c0,1.3,0.6,2.3,1.7,2.9c1.1,0.6,5.1,1.7,12,3.2c4.6,1.1,8,2.7,10.3,4.9
		c2.3,2.2,3.4,5,3.4,8.3c0,4.4-1.6,8-4.9,10.7c-3.3,2.8-8.3,4.1-15.1,4.1c-6.9,0-12.1-1.5-15.4-4.4c-3.3-2.9-5-6.7-5-11.2L204,206.7
		L204,206.7z"/>
	<path fill="#555555" d="M241,208.7h12.3v12.2H241V208.7z"/>
	<path fill="#555555" d="M301.1,215.4c-3.7,4.6-9.4,6.9-17,6.9s-13.3-2.3-17-6.9c-3.7-4.6-5.6-10.1-5.6-16.6
		c0-6.4,1.9-11.9,5.6-16.6c3.7-4.7,9.4-7,17-7s13.3,2.3,17,7c3.7,4.7,5.6,10.2,5.6,16.6C306.7,205.3,304.9,210.8,301.1,215.4z
		 M291.9,209c1.8-2.4,2.7-5.8,2.7-10.2c0-4.4-0.9-7.8-2.7-10.2c-1.8-2.4-4.4-3.6-7.8-3.6s-6,1.2-7.8,3.6s-2.8,5.8-2.8,10.2
		c0,4.4,0.9,7.8,2.8,10.2c1.8,2.4,4.4,3.6,7.8,3.6C287.5,212.6,290.1,211.4,291.9,209z"/>
	<path fill="#555555" d="M339.6,175.6c0.1,0,0.5,0.1,1,0.1v11.9c-0.7-0.1-1.4-0.1-2-0.1c-0.6-0.1-1-0.1-1.4-0.1
		c-4.7,0-7.8,1.5-9.4,4.5c-0.9,1.7-1.3,4.3-1.3,7.8v21.1h-11.6v-44.2h11v7.7c1.8-2.9,3.3-5,4.7-6c2.2-1.8,5-2.7,8.4-2.7
		C339.2,175.5,339.4,175.5,339.6,175.6z"/>
	<path fill="#555555" d="M369.2,176.6c2.8,1.1,5.1,3.3,6.8,6.4v-6.4h11.3v42c0,5.7-1,10-2.9,12.9c-3.3,5-9.6,7.5-19,7.5
		c-5.7,0-10.3-1.1-13.8-3.3c-3.6-2.2-5.5-5.5-5.9-9.9h12.6c0.3,1.3,0.8,2.3,1.6,2.9c1.2,1,3.3,1.6,6.3,1.6c4.1,0,6.9-1.4,8.3-4.2
		c0.9-1.8,1.4-4.8,1.4-9v-2.9c-1.1,1.9-2.3,3.3-3.6,4.3c-2.3,1.8-5.3,2.6-9,2.6c-5.7,0-10.2-2-13.6-6s-5.1-9.4-5.1-16.2
		c0-6.6,1.6-12.1,4.9-16.6c3.3-4.5,7.9-6.7,13.9-6.7C365.6,175.5,367.6,175.9,369.2,176.6z M373.2,208.3c1.9-2,2.8-5.3,2.8-9.8
		c0-4.2-0.9-7.4-2.7-9.6c-1.8-2.2-4.1-3.3-7.1-3.3c-4.1,0-6.8,1.9-8.4,5.7c-0.8,2-1.2,4.5-1.2,7.5c0,2.6,0.4,4.9,1.3,6.9
		c1.6,3.7,4.4,5.6,8.4,5.6C369,211.4,371.3,210.3,373.2,208.3z"/>
</g>
</svg>
