<?xml version="1.0" encoding="utf-8"?>
<!-- Generator: Adobe Illustrator 18.1.1, SVG Export Plug-In . SVG Version: 6.00 Build 0)  -->
<svg version="1.1" id="Layer_1" xmlns="http://www.w3.org/2000/svg" xmlns:xlink="http://www.w3.org/1999/xlink" x="0px" y="0px"
	 viewBox="0 0 137 56" enable-background="new 0 0 137 56" xml:space="preserve">
<rect x="29.8" y="16" transform="matrix(0.9865 0.1635 -0.1635 0.9865 5.0727 -5.1661)" fill="#27282D" width="8.2" height="24.5"/>
<g>
	<path fill="#555555" d="M62.4,25.8c1.2,0,2.2,0.2,3,0.5s1.5,0.8,2,1.4s0.9,1.2,1.1,1.9c0.2,0.7,0.4,1.5,0.4,2.2
		c0,0.8-0.1,1.5-0.4,2.2c-0.2,0.7-0.6,1.4-1.1,1.9c-0.5,0.6-1.2,1-2,1.4s-1.8,0.5-3,0.5h-4.4v6.8h-4.2V25.8H62.4z M61.3,34.7
		c0.5,0,0.9,0,1.4-0.1c0.4-0.1,0.8-0.2,1.2-0.4s0.6-0.5,0.8-0.9c0.2-0.4,0.3-0.9,0.3-1.5c0-0.6-0.1-1.1-0.3-1.5
		c-0.2-0.4-0.5-0.7-0.8-0.9c-0.3-0.2-0.7-0.3-1.2-0.4c-0.4-0.1-0.9-0.1-1.4-0.1h-3.2v5.7H61.3z"/>
	<path fill="#555555" d="M74.7,31v2.5h0.1c0.2-0.4,0.4-0.8,0.7-1.2c0.3-0.4,0.6-0.7,1-0.9c0.4-0.3,0.8-0.5,1.2-0.6
		c0.4-0.1,0.9-0.2,1.4-0.2c0.2,0,0.5,0,0.8,0.1v3.5c-0.2,0-0.4-0.1-0.6-0.1c-0.2,0-0.5,0-0.7,0c-0.7,0-1.3,0.1-1.7,0.3
		S76,35,75.7,35.4c-0.3,0.4-0.5,0.9-0.6,1.4c-0.1,0.5-0.2,1.1-0.2,1.7v6.2h-3.8V31H74.7z"/>
	<path fill="#555555" d="M81.6,28.9v-3.1h3.8v3.1H81.6z M85.3,31v13.7h-3.8V31H85.3z"/>
	<path fill="#555555" d="M91.9,31v1.9h0.1c0.5-0.8,1.1-1.4,1.9-1.7c0.8-0.4,1.5-0.5,2.3-0.5c1,0,1.8,0.1,2.5,0.4
		c0.6,0.3,1.2,0.7,1.5,1.1c0.4,0.5,0.6,1.1,0.8,1.8c0.1,0.7,0.2,1.5,0.2,2.3v8.4h-3.8V37c0-1.1-0.2-2-0.5-2.5
		c-0.4-0.6-1-0.8-1.9-0.8c-1,0-1.8,0.3-2.2,0.9s-0.7,1.6-0.7,3v7.2h-3.8V31H91.9z"/>
	<path fill="#555555" d="M111.5,31v2.5h-2.8v6.8c0,0.6,0.1,1.1,0.3,1.3c0.2,0.2,0.6,0.3,1.3,0.3c0.2,0,0.4,0,0.6,0
		c0.2,0,0.4,0,0.6-0.1v2.9c-0.3,0.1-0.7,0.1-1.1,0.1c-0.4,0-0.8,0-1.1,0c-0.6,0-1.1,0-1.7-0.1c-0.5-0.1-1-0.2-1.4-0.5
		c-0.4-0.2-0.7-0.6-0.9-1c-0.2-0.4-0.3-1-0.3-1.7v-8.1h-2.3V31h2.3v-4.1h3.8V31H111.5z"/>
</g>
<g>
	<path fill="#555555" d="M110.7,49.5v1.4h-1.5v-1.4H110.7z"/>
	<path fill="#555555" d="M114.1,47c-0.2,0-0.4,0-0.5,0.1c-0.1,0.1-0.3,0.2-0.3,0.4c-0.1,0.2-0.2,0.3-0.2,0.5c0,0.2-0.1,0.4-0.1,0.5
		c0,0.2,0,0.3,0.1,0.5c0,0.2,0.1,0.3,0.2,0.5c0.1,0.1,0.2,0.3,0.3,0.4c0.1,0.1,0.3,0.1,0.5,0.1c0.3,0,0.6-0.1,0.7-0.3
		c0.2-0.2,0.3-0.4,0.3-0.7h1.3c-0.1,0.6-0.3,1.1-0.7,1.5s-0.9,0.5-1.6,0.5c-0.4,0-0.7-0.1-1-0.2c-0.3-0.1-0.6-0.3-0.8-0.5
		c-0.2-0.2-0.4-0.5-0.5-0.8s-0.2-0.6-0.2-1c0-0.4,0.1-0.7,0.2-1c0.1-0.3,0.3-0.6,0.5-0.8c0.2-0.2,0.5-0.4,0.8-0.5
		c0.3-0.1,0.6-0.2,1-0.2c0.3,0,0.6,0,0.8,0.1c0.3,0.1,0.5,0.2,0.7,0.3c0.2,0.2,0.4,0.3,0.5,0.6c0.1,0.2,0.2,0.5,0.2,0.8H115
		C115,47.3,114.6,47,114.1,47z"/>
	<path fill="#555555" d="M117.1,47.5c0.1-0.3,0.3-0.6,0.5-0.8c0.2-0.2,0.5-0.4,0.8-0.5s0.6-0.2,1-0.2c0.4,0,0.7,0.1,1,0.2
		s0.6,0.3,0.8,0.5c0.2,0.2,0.4,0.5,0.5,0.8s0.2,0.7,0.2,1c0,0.4-0.1,0.7-0.2,1c-0.1,0.3-0.3,0.6-0.5,0.8c-0.2,0.2-0.5,0.4-0.8,0.5
		s-0.6,0.2-1,0.2c-0.4,0-0.7-0.1-1-0.2s-0.6-0.3-0.8-0.5c-0.2-0.2-0.4-0.5-0.5-0.8c-0.1-0.3-0.2-0.7-0.2-1
		C117,48.2,117,47.8,117.1,47.5z M118.3,49.1c0,0.2,0.1,0.3,0.2,0.5s0.2,0.3,0.4,0.3c0.1,0.1,0.3,0.1,0.6,0.1s0.4,0,0.6-0.1
		c0.2-0.1,0.3-0.2,0.4-0.3c0.1-0.1,0.2-0.3,0.2-0.5c0-0.2,0.1-0.4,0.1-0.6c0-0.2,0-0.4-0.1-0.6c0-0.2-0.1-0.3-0.2-0.5
		c-0.1-0.1-0.2-0.3-0.4-0.3c-0.2-0.1-0.3-0.1-0.6-0.1s-0.4,0-0.6,0.1c-0.1,0.1-0.3,0.2-0.4,0.3c-0.1,0.1-0.2,0.3-0.2,0.5
		c0,0.2-0.1,0.4-0.1,0.6C118.3,48.7,118.3,48.9,118.3,49.1z"/>
	<path fill="#555555" d="M124,46.1v0.6h0c0.2-0.2,0.4-0.4,0.6-0.6c0.2-0.1,0.5-0.2,0.8-0.2c0.3,0,0.6,0.1,0.8,0.2
		c0.2,0.1,0.4,0.3,0.6,0.6c0.1-0.2,0.3-0.4,0.6-0.6c0.2-0.2,0.5-0.2,0.9-0.2c0.3,0,0.5,0,0.7,0.1s0.4,0.2,0.6,0.3
		c0.2,0.1,0.3,0.3,0.4,0.5s0.1,0.5,0.1,0.8v3.2h-1.3v-2.7c0-0.2,0-0.3,0-0.5c0-0.1,0-0.3-0.1-0.4c-0.1-0.1-0.1-0.2-0.2-0.2
		c-0.1-0.1-0.3-0.1-0.4-0.1s-0.3,0-0.4,0.1c-0.1,0.1-0.2,0.2-0.3,0.3c-0.1,0.1-0.1,0.2-0.1,0.4s0,0.3,0,0.4v2.7h-1.3v-2.7
		c0-0.1,0-0.3,0-0.4c0-0.1,0-0.3-0.1-0.4c0-0.1-0.1-0.2-0.2-0.3c-0.1-0.1-0.3-0.1-0.5-0.1c-0.1,0-0.1,0-0.2,0
		c-0.1,0-0.2,0.1-0.3,0.2s-0.2,0.2-0.2,0.3c-0.1,0.1-0.1,0.3-0.1,0.6v2.8h-1.3v-4.8H124z"/>
</g>
<polygon fill="#27282D" points="6.6,38 17.7,45 22.9,10.7 12.8,4.1 "/>
<g opacity="0.73">
	<path fill="#DF1C54" d="M-82.1-45.4c2.7,0.3,5.2,0.3,7.1,0.9c1.7,0.6,2.3,1.3,2.9,3c0.6,1.7-0.2,7.2-0.2,9.3
		c-0.1,2.1-0.4,4.3-0.7,6.5c-0.3,2.2-0.8,4.1-1.2,6.2c-0.5,2.7-1.2,5.1-2.5,6.8c-1.1,1.4-2,1.8-3.8,1.8c-2.4,0-3.9,0-6.7-0.3
		l-13.5-0.6l4-34.4L-82.1-45.4z M-88.7-16.9c0.9,0.1,1.6,0.1,2.2-0.1c0.6-0.2,0.3-0.5,0.7-1.2c0.4-0.7,0.3-1.6,0.5-3
		c0.2-1.4,0.7-3.6,0.9-5.9s0.6-3.2,0.7-4.6c0.1-1.4,0.6-3.2,0.7-4.4c0.1-0.8,0.2-3-0.3-3.3c-0.5-0.3-1.2-0.6-2.1-0.7l-0.9,0.7
		l-3.2,21.9L-88.7-16.9z"/>
</g>
<path fill="#4A494A" d="M12.6,4.8l-6,32.9c0,0.2,0,0.3,0.2,0.4l10.2,6.5c0.3,0.2,0.6,0,0.7-0.3l5.1-32.8c0-0.2,0-0.3-0.2-0.4
	l-9.4-6.6C13.1,4.3,12.7,4.5,12.6,4.8z M21.1,18.1l-0.2,3.1c0,0,0,0.1,0,0.1L20,23.7c0,0.1-0.1,0.2-0.2,0.2L18.1,25
	c-0.2,0.1-0.3,0.4-0.1,0.6l0.7,1.1c0,0,0,0.1,0.1,0.1l0.4,1.3c0,0,0,0.1,0,0.1v1.4v1.6c0,0,0,0,0,0.1l-0.2,1.5c0,0,0,0,0,0l-0.2,2.5
	c0,0,0,0,0,0.1L18,38.3c0,0,0,0.1,0,0.1l-1.1,1.9c-0.1,0.1-0.2,0.2-0.4,0.2h-1c-0.1,0-0.1,0-0.2,0L13,39.4c0,0-0.1,0-0.1-0.1
	l-3.8-3.2c0,0-0.1-0.1-0.1-0.1l-0.5-1c0-0.1-0.1-0.2,0-0.2l1.1-8.3c0-0.3,0.4-0.5,0.7-0.3l2.4,1.7c0.1,0.1,0.2,0.3,0.2,0.4L12,33.4
	c0,0.2,0.1,0.3,0.2,0.4l1.7,1c0.3,0.2,0.6,0,0.7-0.3l1.1-7.6c0-0.1,0-0.3-0.2-0.4L13.6,25c-0.1-0.1-0.2-0.3-0.1-0.4l0.7-3.1
	c0.1-0.3,0.3-0.4,0.6-0.3l1.1,0.4c0.1,0.1,0.3,0,0.4-0.1l0.8-0.7c0.1-0.1,0.1-0.2,0.2-0.3l0.2-4.9c0-0.2-0.1-0.3-0.2-0.4L16,14.6
	c-0.2-0.1-0.5,0-0.6,0.3l-0.8,2.6c-0.1,0.3-0.4,0.4-0.6,0.3l-2.6-1.4c-0.2-0.1-0.3-0.3-0.2-0.5l0.7-3.9c0,0,0-0.1,0-0.1l1-1.9
	c0-0.1,0.1-0.2,0.2-0.2l1.1-0.5c0.1,0,0.2,0,0.3,0l2,0.9c0,0,0,0,0.1,0l1.5,1l1.7,1.2l1.1,0.7c0.1,0.1,0.2,0.2,0.2,0.4v1.2
	L21.1,18.1C21.1,18.1,21.1,18.1,21.1,18.1z"/>
<g>
	<path fill="#555555" d="M37.5,11.8c2.2,0.1,7.4-0.3,8.5,1c1.5,1.8,1.8,3.7,1.9,5.4c0,1.8-0.3,4.1-0.6,6.1c-0.3,2.2-0.8,4.6-1,6.8
		C46,33.3,45.5,35,45.1,37c-0.4,2-1.2,4-2.1,5.4c-0.9,1.4-2.2,2.5-4.2,2.9c-1.7,0.4-4,0.7-6.6,0.4L17.7,45l5.2-33.7L37.5,11.8z
		 M30.7,39.3c0.9,0.1,1.6,0.1,2.1-0.1c0.5-0.2,1-0.6,1.3-1.3c0.4-0.7,0.7-1.7,0.9-3.1c0.2-1.4,0.5-3.1,0.7-5.4s0.4-4,0.5-5.4
		c0.1-1.4,0.2-3.1,0.1-4.2c0-0.8-0.2-1.3-0.4-2c-0.2-0.5-1-0.5-1.9-0.6l-0.7,0.1l-3,21.9L30.7,39.3z"/>
</g>
<g id="a7XiSD.tif_1_">

		<image overflow="visible" width="181" height="76" id="Layer_0_1_" xlink:href="7CEACB50C1908A77.png"  transform="matrix(0.5746 0 0 0.5746 -91.2441 -164.3134)">
	</image>
</g>
<polygon fill="#606161" points="22.9,11.2 45.8,12.6 34.3,4.9 12.8,4.1 "/>
</svg>
