<?xml version="1.0" encoding="utf-8"?>
<!-- Generator: Adobe Illustrator 18.1.1, SVG Export Plug-In . SVG Version: 6.00 Build 0)  -->
<svg version="1.1" id="Layer_1" xmlns="http://www.w3.org/2000/svg" xmlns:xlink="http://www.w3.org/1999/xlink" x="0px" y="0px"
	 viewBox="0 1156 1400 792" enable-background="new 0 1156 1400 792" xml:space="preserve">
<polygon fill="#FFFFFF" points="430,1513.2 378.9,1513.2 378.9,1408.2 430,1458.4 "/>
<polygon fill="#FFFFFF" points="535.5,1513.2 484.5,1513.2 484.5,1408.2 535.5,1458.4 "/>
<polyline fill="#FFFFFF" points="855.7,1460.7 855.7,1512.9 749,1513.2 696.5,1513.2 696.5,1408.2 750.7,1461.6 "/>
<polygon fill="#FFFFFF" points="1176.4,1724.7 374.3,1724.7 325.5,1673 378,1673 377.5,1566 429.4,1566 428.8,1673 484.5,1673 
	484.5,1513.2 535.5,1513.2 536.1,1673 696.5,1673 696.5,1618.8 591.2,1618.8 591.2,1566.9 696.5,1567.7 696.5,1513.2 751.3,1512.7 
	751.3,1673 911.6,1673 911.6,1512.9 963,1513.8 963,1673 1015.8,1673 1015.8,1567.7 1047.3,1567.2 1067.7,1586.1 1067.1,1673 
	1123.1,1673 1123.1,1577.2 1084.9,1540.5 1123.1,1503.2 1176.2,1503.2 1213.4,1540.5 1176.4,1577.2 1176.4,1673 "/>
<rect x="590" y="1460.7" fill="#FFFFFF" width="52.5" height="52.5"/>
<rect x="802.3" y="1567.2" fill="#FFFFFF" width="54.2" height="54.2"/>
<polygon fill="#FFFFFF" points="963,1513.8 911.6,1512.9 911.6,1407.9 963,1458.4 "/>
<polygon fill="#FFFFFF" points="1175.6,1514.1 1123.1,1513.2 1123.1,1408.2 1177.3,1461.6 "/>
<polygon fill="#FFFFFF" points="1068.3,1496 1048.8,1514.1 1015.2,1514.1 1015.2,1460.7 1068.3,1460.7 "/>
<g>
	<path fill="#555555" d="M789.9,1794.1c-0.9-0.3-2-0.6-3.4-0.6h-8v9.5h8c1.7,0,2.9-0.3,3.4-0.6c1.4-0.6,2-2,2-4
		C791.9,1796.1,791.3,1794.7,789.9,1794.1z"/>
	<polygon fill="#555555" points="970.7,1809.3 979.9,1809.3 975.3,1795.2 	"/>
	<path fill="#555555" d="M741.2,1807.6c-0.9-0.3-2-0.6-3.4-0.6h-8.9v9.5h8.6c1.4,0,2.9-0.3,3.7-0.6c1.4-0.9,2.3-2.3,2.3-4.6
		C743.5,1809.6,742.6,1808.1,741.2,1807.6z"/>
	<rect x="802.7" y="1567.2" fill="#555555" width="53.6" height="53.6"/>
	<polygon fill="#555555" points="537.8,1809.3 547,1809.3 542.4,1795.2 	"/>
	<path fill="#555555" d="M741.2,1800.3c0.9-0.6,1.4-1.7,1.4-3.2c0-1.7-0.6-2.9-2-3.2c-1.1-0.3-2.6-0.6-4.3-0.6l-7.4,0.2v7.7h8.6
		C738.9,1801.2,740.4,1800.9,741.2,1800.3z"/>
	<rect x="590" y="1460.7" fill="#555555" width="52.5" height="52.5"/>
	<path fill="#555555" d="M594.8,1794.1c-0.9-0.3-2-0.6-3.4-0.6h-8v9.5h8c1.7,0,2.9-0.3,3.4-0.6c1.4-0.6,2-2,2-4
		C596.8,1796.1,596.2,1794.7,594.8,1794.1z"/>
	<polygon fill="#555555" points="828.4,1809.3 837.6,1809.3 833,1795.2 	"/>
	<path fill="#555555" d="M1107.2,1794.1c-0.9-0.3-2-0.6-3.4-0.6h-8v9.5h8c1.7,0,2.9-0.3,3.4-0.6c1.4-0.6,2-2,2-4
		C1109.2,1796.1,1108.6,1794.7,1107.2,1794.1z"/>
	<path fill="#555555" d="M1340.3,1768.6l-18.4-170.7l-58.2-70.9l0.8-67.7l-74-77.2l-0.9-55.9l-94.1-43.1l-41.3-59.6l-80.6-8.1
		l-64.5,8.1l-94.7-27.9H30v384.8l239.9-0.6l2.6,329L1385,1906L1340.3,1768.6z M536.4,1408.2h160.1v159.5l-105.3-1.1v51.9l105.3,0.3
		v53.9H536.4V1408.2z M377.5,1566l0.5,107h-52.5v-264.8h53.4l-0.3,105H430l0.5-105h54V1673h-55.7l0.6-107H377.5z M462.5,1822.8H455
		V1807h-13.8v15.8h-7.5v-35.6h7.5v13.5H455v-13.5h7.5V1822.8z M510.6,1822.8h-27v-35.6h26.1v6.3h-18.9v7.5H508v6.3h-17.2v9.2h19.8
		V1822.8z M551.3,1822.8l-2.3-7.5h-13.2l-2.3,7.5h-7.7l12.6-35.6h8.3l12.6,35.6H551.3z M605.2,1822.6h-8.3c-0.3-0.9-0.3-1.4-0.6-2
		c-0.3-0.9-0.3-2-0.3-3.2v-3.4c0-2.3-0.3-3.7-1.1-4.6c-0.9-0.9-2.3-1.1-4.3-1.1h-7.2v14.1h-7.2v-35.8h16.9c2.4,0.6,4.4,0.9,5.6,1.5
		c1.4,0.6,2.3,1.4,3.4,2.6c0.9,0.9,1.4,2,1.7,2.9c0.6,1.1,0.6,2.3,0.6,3.7c0,1.7-0.3,3.4-1.1,4.9c-0.9,1.7-2.3,2.9-4.3,3.4
		c1.7,0.6,2.9,1.7,3.4,2.9c0.6,1.1,1.1,3.2,1.1,5.5v2.3c0,1.7,0,2.9,0.3,3.4c0.3,0.9,0.6,1.7,1.4,2V1822.6z M654,1822.8h-7.2
		l-14.6-25.2v25.2h-6.9v-35.6h7.7l14.1,25v-25h6.9V1822.8z M702.3,1822.8h-27v-35.6h26.1v6.3h-18.9v7.5h17.2v6.3h-17.2v9.2h19.8
		V1822.8z M749.2,1817.7c-0.6,1.1-1.4,2-2.6,2.9c-1.2,0.9-2.6,1.4-4,1.7s-3.2,0.6-5.2,0.6h-16.1v-35.6h17.2c4.7-0.1,7.9,1.3,9.6,3.6
		c1.1,1.4,1.7,3.4,1.7,5.5c0,2.3-0.6,4-1.7,5.2c-0.6,0.9-1.4,1.4-2.6,2c1.7,0.6,3.2,1.7,4,3.2c0.9,1.4,1.4,3.2,1.4,5.2
		S750.3,1816,749.2,1817.7z M800.5,1822.6h-8.3c-0.3-0.9-0.3-1.4-0.6-2c-0.3-0.9-0.3-2-0.3-3.2v-3.4c0-2.3-0.3-3.7-1.1-4.6
		c-0.9-0.9-2.3-1.1-4.3-1.1h-7.2v14.1h-7.2v-35.8h16.9c2.5,0.6,4.2,0.9,5.6,1.5s2.3,1.4,3.4,2.6c0.9,0.9,1.4,2,1.7,2.9
		c0.6,1.1,0.6,2.3,0.6,3.7c0,1.7-0.3,3.4-1.1,4.9c-0.9,1.7-2.3,2.9-4.3,3.4c1.7,0.6,2.9,1.7,3.4,2.9c0.5,1.2,1.1,3.2,1.1,5.5v2.3
		c0,1.7,0,2.9,0.3,3.4c0.3,0.9,0.6,1.7,1.4,2V1822.6z M841.9,1822.8l-2.3-7.5h-13.2l-2.3,7.5h-7.7l12.6-35.6h8.3l12.6,35.6H841.9z
		 M890.8,1819.8c-2.6,2.3-6,3.2-10.6,3.2s-8.3-1.1-11.2-3.2c-2.6-2-4-5.2-4-8.6h6.9v0.7h-0.1c0.3,1.7,0.6,2.9,1.4,3.7
		c1.1,1.4,3.4,2.3,6.3,2.3c1.7,0,3.2-0.3,4.3-0.6c2-0.9,3.2-2,3.2-4c0-1.1-0.6-2-1.4-2.9c-1.1-0.6-2.6-1.1-4.9-1.7l-3.7-0.9
		c-3.7-0.9-6.3-1.7-7.7-2.9c-2.3-1.7-3.7-4.3-3.7-7.7c0-3.2,1.1-5.7,3.4-8c2.3-2,5.7-3.2,10.3-3.2c3.7,0,7.2,0.9,9.8,2.9
		s4,4.9,4.3,8.6h-7.2c0-2-1.1-3.7-2.9-4.6c-1.1-0.6-2.6-0.9-4.3-0.9c-2,0-3.4,0.3-4.6,1.1c-1.1,0.9-1.7,1.7-1.7,3.2
		c0,1.1,0.6,2.3,1.7,2.9c0.9,0.3,2.3,0.9,4.6,1.4l6.3,1.4c2.9,0.6,4.9,1.4,6,2.6c2,1.7,3.2,4,3.2,7.2S893.4,1817.8,890.8,1819.8z
		 M911.4,1673.1H751.3v-159.5l104.4-0.6v-51.1l-105-0.3v-53.4h160.7V1673.1z M935.9,1822.7l-10.9-15.5l-3.4,3.7v12h-7.5v-35.7h-0.7
		v-0.2h0.7v0.2h6.8v14.6l13.8-14.6h9.8l-14.6,14.6l15.5,20.9H935.9z M983.9,1822.8l-2.3-7.5h-13.2l-2.3,7.5h-7.7l12.6-35.6h8.3
		l12.6,35.6H983.9z M1015.5,1822.8h-7.5v-7.2h7.5V1822.8z M1063.7,1819.6c-2.6,2.9-6.6,4-11.8,4c-5.2,0-8.9-1.4-11.8-4
		c-3.7-3.4-5.5-8.3-5.5-14.6c0-6.6,1.7-11.5,5.5-14.6c2.6-2.9,6.6-4,11.8-4c5.2,0,8.9,1.4,11.8,4c3.7,3.2,5.5,8,5.5,14.6
		C1068.9,1811.3,1067.1,1816.2,1063.7,1819.6z M1117.8,1822.6h-8.3c-0.3-0.9-0.3-1.4-0.6-2c-0.3-0.9-0.3-2-0.3-3.2v-3.4
		c0-2.3-0.3-3.7-1.1-4.6c-0.8-0.9-2.3-1.1-4.3-1.1h-7.2v14.1h-7.5v-35.8h16.9c2.8,0.6,4.5,0.9,5.9,1.5s2.3,1.4,3.4,2.6
		c0.9,0.9,1.4,2,1.7,2.9c0.3,0.9,0.6,2.3,0.6,3.7c0,1.7-0.3,3.4-1.1,4.9c-0.9,1.4-2.3,2.9-4.3,3.4c1.7,0.6,2.9,1.7,3.4,2.9
		c0.6,1.1,1.1,3.2,1.1,5.5v2.3c0,1.7,0,2.9,0.3,3.4c0.3,0.9,0.6,1.7,1.4,2V1822.6z M1123,1502.7l-38.2,37.6l38.2,36.7v43.9v51.4
		h-55.9l0.6-86.6l-17.2-17.2l-34.7-1.1v105.3H963v-264.5h160V1502.7z M1161.8,1798.4L1161.8,1798.4l-0.1-0.3c-0.6-2.1-2-3.7-3.9-4.9
		c-1.1-0.6-2.6-0.9-4-0.9c-2.9,0-5.2,1.1-7.2,3.2c-1.7,2.3-2.9,5.5-2.9,9.8s0.9,7.5,2.9,9.2c2,1.7,4.3,2.9,6.9,2.9s4.6-0.6,6-2
		c1.7-1.4,2.6-3.4,2.9-5.7h-8.3v-6h14.9v19.2h-4.9l-0.9-4.6c-1.4,1.7-2.9,2.9-3.7,3.4c-2,1.1-4.3,1.7-7.2,1.7
		c-4.6,0-8.6-1.7-11.5-4.9c-3.2-3.2-4.6-7.7-4.6-13.5c0-5.7,1.7-10.3,4.9-13.8s7.5-5.2,12.6-5.2c4.6,0,8,1.1,10.9,3.4
		c2.9,2.3,4.3,5.2,4.6,8.6h-7.5v0.1C1161.7,1798.2,1161.8,1798.3,1161.8,1798.4z"/>
	<polygon fill="#555555" points="1068.3,1496 1068,1496 1068,1460.7 1014.9,1460.7 1014.9,1514.1 1048.8,1514.1 	"/>
	<path fill="#555555" d="M1051.9,1792.6c-2.9,0-5.2,1.1-7.2,3.2c-1.7,2.3-2.6,5.2-2.6,9.2s0.9,7.2,2.6,9.2c1.7,2.3,4,3.2,7.2,3.2
		c2.9,0.2,5.2-0.9,6.9-3.2c1.7-2.3,2.6-5.2,2.6-9.2s-0.9-7.2-2.6-9.2C1057.1,1793.5,1054.8,1792.6,1051.9,1792.6z"/>
</g>
</svg>
