<?xml version="1.0" encoding="utf-8"?>
<!-- Generator: Adobe Illustrator 18.1.1, SVG Export Plug-In . SVG Version: 6.00 Build 0)  -->
<svg version="1.1" id="Layer_1" xmlns="http://www.w3.org/2000/svg" xmlns:xlink="http://www.w3.org/1999/xlink" x="0px" y="0px"
	 viewBox="0 2460 1400 540" enable-background="new 0 2460 1400 540" xml:space="preserve">
<g>
	<path fill="none" d="M-259.2,3131.1c0-246.4,0-492.6,0-739.1c661.6,0,1323.3,0,1984.9,0c0,246.4,0,492.6,0,739.1
		C1064.2,3131.1,402.3,3131.1-259.2,3131.1z M990.7,2590.8l-0.4-0.4c2.7,8-1.3,11.6-8,15.4c-7.6,4.2-19.2,5.7-20.3,16.9
		c-1.3,13.9-0.4,28.1-0.4,42.2c0,2.1,1.1,4.9,2.5,6.5c6.5,6.8,13.1,13.7,20.1,19.8c5.9,5.3,12,5.5,17.9-1.3
		c4.9-5.5,10.6-10.1,17.5-16.9c6.1,7.4,12.2,14.6,16.7,19.8c10.6-9.7,20.1-18.4,29.6-27.2c-14.6-1.9-14.6-1.9-14.8-19.4
		c0-16.9-0.6-33.8,0.2-50.7c0.2-5.7,4-11.2,6.8-16.5c1.7-3.6,4.4-6.5,6.5-9.9c-3.6-0.6-5.7,0.2-7,1.7c-5.9,7.8-11.2,5.7-16.7-0.4
		c-5.3-5.9-11.2-11.2-16.5-17.1c-4.4-4.9-8-5.1-13.9-1.5c-6.8,4.2-14.8,7-22.6,9.1c-8.9,2.5-17.9,3.6-27,5.3
		c-0.6,0.8-1.1,1.7-1.7,2.5C970.3,2576.4,980.5,2583.6,990.7,2590.8z M1129.7,2833.4l-0.2-0.2c0.4,1.3,0.2,3.2,1.1,4
		c7,5.9,5.3,9.7-2.5,13.1c-5.3,2.3-10.3,5.5-15.2,8.9c-3,2.1-7,5.3-7,8c-0.6,15.8-0.4,31.7-0.2,47.5c0,1.5,1.3,3.2,2.3,4.4
		c6.8,6.5,13.7,12.9,20.3,19.6c5.9,5.9,11,4,16.3-0.8c5.7-5.5,11.4-10.8,17.1-16c7.6,7.2,14.1,13.5,20.7,19.6
		c24.3-20.7,28.3-25.8,25.6-31.9c-3.4,1.1-6.8,2.3-10.1,3.4c-1.1-3.4-2.7-7-2.7-10.3c-0.4-13.3-0.2-26.6-0.2-40.1
		c0-16.7-3.8-34.4,15-45.8c-1.1-0.8-2.1-1.7-3.2-2.7c-4.9,3.2-9.9,6.1-16.5,10.3c-9.1-9.9-18.4-20.3-28.3-31
		c-16,16.3-35.9,16.7-55.7,16C1106.2,2818.2,1118.8,2830.2,1129.7,2833.4z M122.5,2756.9c0,5.7,0,9.5,0,13.3
		c0,40.1,0.2,80.2-0.2,120.4c0,7.6-2.1,15.2-3.2,22.8c-7.6-3.4-15.2-7-22.8-10.3c-0.8-0.4-2.1-1.1-2.3-1.7c-2.5-5.3-8.7-11,3.2-13.7
		c5.5-1.3,10.3-5.5,15.2-9.1c2.1-1.7,4.4-4.9,4.6-7.4c0.4-24.7,0.2-49.2,0.2-73.9c0-6.1-2.1-9.1-8.9-5.1c-5.7,3.4-12.5,5.5-18.8,8
		c-0.4-0.8-0.8-1.7-1.5-2.5c6.8-7.2,13.5-14.6,20.9-22.4c-8.7-2.5-15.4,0-22.8,3.4c-25.6,12-41.2,32.5-46.5,58.9
		c-4.4,21.7-2.5,44.6,9.9,64.8c13.9,22.8,32.9,36.1,60.8,35.5c17.9-0.4,32.7-6.8,43.9-19c9.9,5.5,18.8,11.6,28.5,15.4
		c18.4,7.4,37.2,5.5,53.8-4.4c9.5-5.5,16.3-10.3,23,2.1c1.5,2.5,4.2,4.4,7,5.9c1.7,1.1,5.1,1.7,5.9,0.8c8.2-7.6,16-15.4,23.9-23.7
		c0.6-0.6-0.6-3-1.3-4.6c-9.9,4.6-12.9,2.7-12.9-8c0-45,0-90.2-0.2-135.1c0-8.9-11.4-25.1-19.4-27.2c-1.9-0.4-5.1,1.1-6.8,2.7
		c-5.9,5.3-11.6,10.6-16.9,16.5c-2.5,2.7-4.4,6.5-6.5,9.7c4-1.1,8-2.1,14.8-3.8c1.5,4.9,4,10.6,4.6,16.5c0.8,8-0.2,16.3,0.2,24.3
		c0.6,8.2-4,11.6-11,12c-7.6,0.4-12.9-3.8-13.3-11.8c-0.4-9.1-0.6-18.4,0-27.5c0.8-14.6-3.8-30.4,9.1-42.4c0.4-0.4-0.6-2.5-1.3-4.6
		c-16.3,13.1-32.3,11.2-50,3.8c-21.1-8.7-38.9,0.6-46.2,22.2c-2.1,6.5-2.7,13.7,3.2,16.3c6.3-4.2,11-10.1,15.2-9.9
		c14.4,1.1,28.7,4,45.4,6.8c-3.4,1.9-4.2,2.7-5.1,3c-41,8-60.2,42-64.8,72.6c-3.2,20.3,2.1,39.7,13.1,57.4c1.3,2.1,2.3,7,1.3,7.6
		c-4,2.5-8.4,4.6-12.9,5.5c-1.7,0.2-5.1-3.8-5.7-6.3c-1.1-3.6-0.4-7.6-0.4-11.6c0-45.4,0.2-90.8,0.2-136.2c0-8.9-0.2-17.5,8-23.7
		c1.1-0.8,0.6-3.6,1.3-8.4c-14.8,12.5-29.4,12.5-44.8,8.4c-8.9-2.3-18.2-3.6-27.5-5.1c-15.8-2.5-28.9,23.7-26.2,34.8
		c0.4,1.7,1.9,4,3.4,4.4c1.3,0.4,3.8-0.8,4.9-2.1c7.2-7.8,19.2-10.6,29.1-5.7c11,5.5,21.3,5.5,31.7-1.3
		C112.4,2761.6,116.6,2759.9,122.5,2756.9z M456,2488.1c-16.5-3.2-28.5,2.1-40.1,7.8c-49,23.9-72.6,79.6-53.2,131.1
		c14.4,38.4,55.3,73.1,109.2,63.6c19.4-3.4,35.1-12.2,48.6-25.6c25.1-24.7,32.5-55.7,29.1-89.5c-2.1-20.9-9.3-39.9-24.1-55.7
		c-8.7-9.3-16-19.4-24.9-30.4c-9.1,4.2-21.1,9.7-32.7,15c-2.1-3.4-3.4-5.5-3.8-6.1c-5.1,5.9-9.1,12-14.4,16.5
		c-3.8,3.2-9.3,4.2-13.9,6.3c-9.9,4.4-16.5,9.7-15.8,23c1.3,28.7,0.6,57.6,0.2,86.4c0,5.1-2.7,10.1-4.9,17.5
		C377.6,2593.5,390.8,2519.2,456,2488.1z M856.5,2767.1c15-2.3,19.6,1.3,19.8,16c0,3.8,0,7.8,0,11.6c0,31.3,0,31-31.5,29.6
		c-6.3-0.2-8.7-2.3-8.4-8.7c0.4-16.3,0.2-32.3,0-48.6c0-11.4-1.9-23,9.7-31.7c-3.6-0.6-6.5-1.3-8.4-0.2c-14.1,9.3-28.1,7.6-42.4,0.6
		c-14.1-7-33.8-1.3-42.9,10.8c-7.6,9.9-3.6,20.3-3.8,32.7c11-17.7,19.6-19.2,38.6-12.7c7.4,2.5,16.9,0.2,25.1-1.1
		c5.3-0.8,9.9-4.2,15-6.3c0.8,1.5,1.7,2.7,2.7,4.2c-1.5,0.4-3,0.6-4.2,1.3c-12.5,6.5-24.7,13.1-37,20.3c-2.3,1.5-5.3,5.3-4.9,7.6
		c1.3,9.9,3.8,19.6,5.7,28.9c-30.2,14.6-37.4,31.3-24.1,51.9c7.2-15.2,9.3-16.5,22-13.5c0,12.5,0,24.9,0,37.8
		c-23.7,4.6-39.5,17.7-46.7,41.6c11.6-8.9,22.6-21.1,38.9-16.3c14.1,4.2,27.7,11.4,42.2,17.5c8.2-11.4,24.9-18.6,30.8-36.1
		c-6.3,1.9-10.3,3-15.8,4.6c0-9.9,0-17.7,0-25.3c0-27.7,0-27.7,27.9-26.4c2.5,0.2,5.1,0,7.2,1.1c1.9,0.8,4.4,3.4,4.4,4.9
		c-2.1,21.1,8.9,45.2-13.1,62.1c0,0,0.6,1.1,1.3,2.3c3.4-1.5,6.8-3,9.9-4.4c7,6.3,13.5,12.5,20.7,19.2c8.9-11.4,23-17.5,27.7-32.9
		c-5.9,1.9-9.3,3-12.9,4.2c-1.1-3.8-3-7.6-3-11.4c-0.2-40.8-1.5-81.7,0.4-122.3c0.8-19.8-8.9-30.2-20.3-38.6
		C876.5,2749.8,866.5,2758.4,856.5,2767.1z M510,2762.9c1.9,7.6,4.9,14.4,5.1,20.9c0.4,33.8,0.2,67.6,0.2,101.4
		c0,13.9,1.7,28.1-12,37.4c-0.8,0.6-1.3,2.1-2.1,3.2c0.4,0.6,0.8,1.3,1.3,1.7c3.4-1.5,7-3,12.9-5.5c4.4,6.1,9.7,13.5,15.4,21.5
		c11-10.3,20.1-17.7,27.7-26.2c4.9-5.3,7.4-4.2,11.4,0.2c5.9,6.3,12.2,12.5,18.6,18.4c9.9,8.9,12.2,8.7,21.7-0.2
		c5.3-4.9,10.3-9.5,15.4-13.9c7.8,7.4,14.4,13.7,20.7,19.8c27.2-26.2,27.2-26.2,26-32.1c-3.8,1.3-7.8,2.7-13.5,4.6c0-6.8,0-11,0-15
		c0-39.7-1.5-79.6,0.6-119.1c1.1-20.3-9.3-30.6-23.4-41.4c-9.5,9.7-20.9,17.3-28.3,31c13.9-3.4,19.6-1.7,20.1,7.2
		c0.8,15,0.2,30,0.2,48.4c-10.6-9.7-18.6-17.3-27.9-25.8c-8.9,8.7-18.6,16.7-26.4,26.2c-4.2,5.3-7.6,12.7-8,19.4
		c-1.1,18.6-0.4,37.2-0.4,56c0,4.9-10.6,14.6-14.1,12.2c-3.2-1.9-5.5-7.6-5.5-11.6c-0.4-39.7-1.5-79.6,0.2-119.1
		c0.8-17.7-6.3-29.1-17.9-39.7c-1.9-1.7-7.2-2.5-8.7-1.3c-8.7,8-16.9,16.9-25.1,25.3c0.6,1.1,1.3,1.9,1.9,3
		C499.5,2767.7,503,2766.2,510,2762.9z M601.2,2574.7c-8.2-7.6-16.3-15.2-24.9-23.4c-8,8.9-15.6,17.3-24.3,26.6
		c15.8,3.4,17.9,5.9,17.9,19.6c0,14.8-0.4,29.6,0.2,44.3c0.4,13.1,0.6,25.8-10.8,35.3c-0.2,0.2,0.4,1.3,0.8,2.7
		c14.4-5.9,17.5,10.6,28.7,15c8.7-9.3,17.3-18.6,27.5-29.6c-5.9-0.6-9.1-1.1-11.8-1.3c0-28.5,0-56,0-83.6c12-0.2,19.8,6.3,19.8,16.9
		c0.2,15.4-0.4,31,0.2,46.5c0.6,12.7-0.2,24.3-11,32.9c-0.2,0.2,0.2,1.3,0.4,1.9c0.6-0.8,1.1-1.5,1.7-2.3
		c8.7,5.9,17.1,11.6,25.8,17.5c18.6-13.9,27-24.5,25.3-31.7c-7.4,5.3-9.5,1.3-9.5-5.7c0-17.9-0.2-35.9,0-53.8c0-5.9,0-12,1.5-17.7
		c0.4-2.1,6.5-5.1,7.8-4.2c6.3,4.2,13.5,8,12.7,18.4c-1.1,14.8-0.8,29.6-0.2,44.3c0.6,12.7,0.2,24.5-10.6,33.2
		c-0.2,0.2,0.4,1.3,0.4,1.9c0.6-0.8,1.3-1.5,1.7-2.3c8.2,5.9,16.7,11.8,25.8,18.4c8.2-10.6,21.1-17.3,26.2-31.7
		c-10.1,5.1-11-0.2-11-7.4c0-14.8-0.2-29.6,0-44.3c0.2-13.3-2.7-27.2,6.8-39.1c0.2-0.2-0.6-1.1-1.1-1.7c-0.4,0.8-0.8,1.7-1.3,2.5
		c-6.1-2.3-12.5-4.2-18.2-7.4c-4-2.1-7.4-5.9-11.2-8.9c-4.6-3.4-8.9-4.9-13.5,0.6c-5.3,6.1-11.6,11.4-17.5,17.3
		c-2.1-1.5-4.6-2.7-6.8-4.4c-8.2-5.7-16.9-16.5-24.3-15.8C616.8,2555.7,609.5,2567.3,601.2,2574.7z M835.2,2676.9
		c7.4,1.9,13.7,1.9,17.5,4.9c15.6,13.1,15.4,13.5,29.8-0.8c3.8-3.8,7.8-7.4,11.4-11.4c1.1-1.3,1.3-3.2,2.7-7
		c-5.7,2.3-9.3,3.8-14.4,5.7c-0.6-4.6-1.9-9.1-1.9-13.3c-0.2-13.1,0-26,0-39.1c0-7.4-0.4-14.8,0.2-22.2c0.6-9.1,9.1-16.5,13.7-12.2
		c8,7.2,17.7,13.5,16.7,26.8c-0.8,12.7-0.8,25.3,0,38c0.8,11.4-2.7,20.3-10.8,27.7c-1.3,1.3-2.3,2.7-3.4,4c-0.2,1.1-0.4,2.3-0.6,3.4
		c18.4-11.2,21.5,9.5,33.6,13.1c9.1-9.5,18.2-19,27.2-28.5c-0.8-0.8-1.7-1.7-2.5-2.5c-3.8,1.3-7.6,2.5-12.5,4.2
		c-0.4-4.6-0.8-8.4-0.8-12.2c0-16.3,0.2-32.3-0.2-48.6c-0.2-10.1,0.2-19.6,8.9-26.6c0.8-0.6,0.4-3,1.5-9.1
		c-13.3,17.7-17.9,4-24.1-1.9c-6.1-5.7-11-12.9-16.5-19.4c-11,10.3-19,18.2-29.1,27.9c-0.6-5.9-1.5-9.5-1.5-13.1
		c-0.2-10.6-1.5-21.3,0.2-31.7c3.2-18.8-9.1-28.7-20.1-39.7c-1.1-1.1-6.5,0-8.4,1.9c-7,6.8-13.3,14.1-19.6,21.3
		c-0.6,0.8-0.4,2.5-0.6,3.8c15-1.1,15.4-0.6,15.4,14.4c0,36.5-0.2,73.1,0.2,109.6C848,2656.9,848.8,2669.3,835.2,2676.9z
		 M1313.8,2796.6c-11.6,11.2-20.9,19.4-28.9,28.5c-3.2,3.4-4.9,9.1-5.1,13.9c-0.6,16,1.1,32.5-0.6,48.4
		c-1.9,19.8,3.2,34.8,19.6,47.3c11.8,8.9,13.9,10.3,24.9,0.2c13.7-12.9,13.5-12.7,27.7-0.4c2.7,2.3,9.5,4.2,11.2,2.7
		c9.1-8,17.1-17.1,25.6-26c-0.6-0.6-1.3-1.5-1.9-2.1c-3.8,1.7-7.8,3.2-13.1,5.5c-0.4-5.9-0.8-10.3-0.8-14.8
		c0-40.3-1.3-80.9,0.4-121.2c0.8-18.8-11.6-26.8-21.7-37.6c-1.1-1.3-4.9-2.1-5.7-1.3c-9.3,8.9-18.2,18.2-27.2,27.5
		c0.6,1.1,1.5,1.9,2.1,3c3.8-1.7,7.4-3.4,12.2-5.7c13.3,18.4,4.2,38.9,6.5,58.3c-1.3,0.6-2.5,1.3-3.8,1.9
		C1328.3,2815.4,1321.2,2806.4,1313.8,2796.6z M761.3,2598.4c-5.7,3.2-9.3,5.3-12.9,7.2c-12,6.5-23.2,13.3-19.8,30.4
		c1.5,8-0.4,16.9,0.4,25.3c0.4,4.9,2.3,9.9,5.3,13.9c4,5.5,9.5,10.3,14.6,15c6.8,6.1,14.1,7.2,21.1,0.2c5.3-5.1,10.3-10.3,15.4-15.4
		c5.7,5.5,11.4,9.9,16,15.4c4.4,5.1,7.6,4.6,11.6,0c6.3-7.2,12.9-14.1,19.2-21.5c0.6-0.6,0-2.5-0.2-3.8c-11,3.8-14.1,1.5-14.1-10.3
		c0-19,0.2-38-0.2-57c-0.2-8,1.9-13.9,8.4-18.8c2.7-1.9,4.2-5.7,6.1-8.4c-3.8-0.8-6.1-0.6-7.2,0.8c-7.4,8.2-12.7,4.6-18.4-2.3
		c-4.4-5.5-9.9-10.3-14.6-15.8c-4.4-5.1-8.4-4-13.9-1.3c-7.4,3.8-15.2,7.2-23.2,9.5c-8.7,2.5-17.7,3.6-28.3,5.7
		C738.8,2577.9,749.3,2587.4,761.3,2598.4z M303.1,2922.7c7.4-8.4,13.5-5.5,20.3,0c6.3,5.3,13.5,9.3,19.6,14.8
		c5.7,5.1,10.3,3.2,15.6-0.4c9.7-7,19.6-13.5,29.4-20.3c5.5-3.8,8.4-8.2,8.2-15.6c-0.6-15-0.2-30.2-0.2-45.4
		c0-12.7-3.2-26,12.9-36.3c-6.3,0-9.9-0.8-10.8,0.2c-5.1,6.8-8.9,3.2-13.7-0.4c-7.6-5.9-15.4-11.2-23.7-16c-2.5-1.5-7.4-1.9-9.9-0.4
		c-9.7,5.7-19.4,11.6-28.3,18.8c-5.9,4.6-13.9,10.8-14.8,17.1C304.6,2865.9,312.2,2894.2,303.1,2922.7z M928.8,2919.5
		c4,0.6,7.6,0.4,9.9,1.7c9.3,5.7,18.2,12.2,27.7,17.7c2.3,1.5,7,1.5,9.3,0c11.6-7.2,22.8-15,34-22.8c4.2-3,7.6-7.2,11.4-10.8
		c-3.4-1.5-6.5-2.1-7.8-0.6c-15.8,17.9-30.6,14.8-46.5-0.4c-6.8-6.5-7.8-11.8-0.4-17.1c14.1-10.1,28.7-20.1,42.7-30.4
		c3.4-2.5,9.9-4.9,5.5-11.2c-9.5-13.7-19.2-27.7-29.1-41c-2.3-3.2-5.1-6.5-10.8-1.5c-8.2,7.2-19,11.2-27,18.4
		c-5.7,5.3-15.8,6.5-16,18.4C931,2866.7,935.5,2894.2,928.8,2919.5z M1267.8,2910c-11,6.3-13.5,5.1-13.5-8.2
		c0-41.6-1.3-83,0.4-124.6c0.8-19.8-10.8-28.5-23.4-39.1c-9.9,9.9-20.9,17.5-28.3,31.7c16.5-5.7,21.7-1.9,21.7,13.3
		c0,34.4-0.4,69,0.2,103.5c0.2,13.9-0.2,26.8-12.7,36.1c-0.8,0.6-0.8,2.1-2.5,5.9c5.9-2.7,9.3-4.4,13.1-6.3
		c5.7,6.5,11.4,13.3,16.9,19.6C1256.9,2930.3,1268.6,2916.4,1267.8,2910z M429.1,2921.4c5.7,7.4,11.4,14.6,17.7,22.6
		c9.3-13.9,23.4-20.3,29.4-36.3c-6.8,3-10.6,4.6-14.8,6.3c0-26.6,0-51.3,0-77.3c19.2,15.6,37.6,14.4,47.1-1.7
		c-12.5-3.6-18.2-5.9-26.8-35.5c-5.9,5.3-12,9.3-16.5,14.8c-5.3,6.5-9.1,4.6-13.5-0.2c-4.6-4.9-8.9-10.1-13.3-15
		c-23.9,20.3-27.5,24.7-27,32.3c11.8-6.3,18.2-2.7,18.4,11c0.2,18.6,0.6,37.4-0.4,56c-0.4,6.3-4.6,12.5-7.4,18.6
		c-1.5,3.2-4,6.1-6.1,9.1c0.6,0.4,1.3,1.1,1.9,1.5C420.8,2926.1,423.8,2924.4,429.1,2921.4z M1114.7,2835.1
		c-18.4-4.2-23.2-19-26.4-36.1c-6.5,6.1-12,11.2-17.3,16.5c-4,4-7,5.3-11.4-0.4s-10.8-10.1-16.5-15.6c-9.5,10.6-23,17.1-27.5,31.7
		c5.9-0.8,11.2-3.2,13.5-1.5c3.2,2.5,5.7,7.8,5.9,12c0.6,19,1.1,38,0,57c-0.4,6.5-5.1,12.9-8.2,19.2c-1.5,3-3.6,5.5-5.3,8.2
		c0.6,0.6,1.3,1.1,1.9,1.7c3.4-1.7,6.5-3.4,9.9-5.1c4.4,4.2,8.9,7.8,12.7,12c5.1,6.1,9.5,6.3,14.8,0.4c5.5-5.9,11.6-11.4,17.1-17.5
		c1.9-2.1,2.1-5.5,3.4-9.1c-5.5,1.9-8.9,3.2-12,4.2c-1.1-3.4-3.2-6.8-3.2-10.1c-0.4-19-0.2-38-0.2-57c0-3.4,0.8-6.8,1.5-10.8
		C1086.6,2852.2,1107.4,2852,1114.7,2835.1z M672.5,2873.1c4.2,0,6.8,0.6,7.4-0.2c7.8-7.8,17.5-4.6,26.6-5.3
		c5.5-0.4,12.5,0.8,16-2.1c10.8-8.9,20.5-19.2,30.4-29.1c-3.2-2.1-5.7-3-6.5-2.1c-7.4,8.7-17.3,4.9-26.4,5.9
		c-6.3,0.8-14.1,0.4-18.6,4C691.7,2852.2,683.5,2862.1,672.5,2873.1z"/>
	<path fill="#555555" d="M122.5,2756.9c-5.9,3-10.1,4.9-13.9,7.2c-10.3,6.5-20.7,6.5-31.7,1.3c-9.7-4.9-22-2.1-29.1,5.7
		c-1.1,1.3-3.6,2.5-4.9,2.1c-1.5-0.4-3-2.7-3.4-4.4c-2.7-11.2,10.3-37.4,26.2-34.8c9.1,1.5,18.4,2.7,27.5,5.1c15.4,4,30,4,44.8-8.4
		c-0.6,4.9-0.2,7.6-1.3,8.4c-8.2,6.1-8,14.8-8,23.7c0,45.4,0,90.8-0.2,136.2c0,3.8-0.6,8,0.4,11.6c0.8,2.5,4.2,6.5,5.7,6.3
		c4.6-0.6,9.1-3,12.9-5.5c0.8-0.6,0-5.5-1.3-7.6c-11-17.7-16.3-37.2-13.1-57.4c4.6-30.6,23.9-64.6,64.8-72.6c0.8-0.2,1.7-0.8,5.1-3
		c-16.7-2.7-30.8-5.7-45.4-6.8c-4.2-0.2-8.9,5.5-15.2,9.9c-5.7-2.5-5.3-9.7-3.2-16.3c7.2-21.5,25.1-30.8,46.2-22.2
		c17.7,7.4,33.8,9.3,50-3.8c0.6,2.1,1.7,4.2,1.3,4.6c-12.7,12.2-8,28.1-9.1,42.4c-0.6,9.1-0.4,18.4,0,27.5c0.4,8,5.5,12,13.3,11.8
		c7-0.4,11.4-3.8,11-12c-0.6-8,0.6-16.3-0.2-24.3c-0.6-5.9-3.2-11.6-4.6-16.5c-6.5,1.7-10.6,2.7-14.8,3.8c2.1-3.4,3.8-7,6.5-9.7
		c5.3-5.7,11-11.2,16.9-16.5c1.7-1.5,4.9-3.2,6.8-2.7c8,1.9,19.2,18.4,19.4,27.2c0,45,0,90.2,0.2,135.1c0,10.8,3.2,12.7,12.9,8
		c0.4,1.7,1.7,4,1.3,4.6c-7.8,8-15.6,16-23.9,23.7c-1.1,0.8-4.2,0.2-5.9-0.8c-2.5-1.5-5.5-3.4-7-5.9c-7-12.5-13.5-7.8-23-2.1
		c-16.7,9.7-35.5,11.6-53.8,4.4c-9.7-3.8-18.6-9.9-28.5-15.4c-11,12.2-25.8,18.6-43.9,19c-27.9,0.6-46.9-12.5-60.8-35.5
		c-12.5-20.3-14.1-43.1-9.9-64.8c5.3-26.2,20.9-46.9,46.5-58.9c7.4-3.4,14.1-5.9,22.8-3.4c-7.4,8-14.1,15.2-20.9,22.4
		c0.4,0.8,0.8,1.7,1.5,2.5c6.3-2.7,12.9-4.6,18.8-8c7-4.2,8.9-1.3,8.9,5.1c0.2,24.7,0.2,49.2-0.2,73.9c0,2.5-2.3,5.7-4.6,7.4
		c-4.6,3.6-9.7,7.8-15.2,9.1c-11.8,2.7-5.7,8.4-3.2,13.7c0.4,0.8,1.5,1.3,2.3,1.7c7.6,3.6,15.2,7,22.8,10.3
		c1.1-7.6,3.2-15.2,3.2-22.8c0.4-40.1,0.2-80.2,0.2-120.4C122.5,2766.2,122.5,2762.6,122.5,2756.9z M221.4,2914.9
		c0-53.4,0-106.2,0-160.3c-6.1,4.4-10.8,7.8-16,11.6c4.6,5.9,2.5,8.9-3.6,12.7c-7.6,4.6-13.7,11.6-20.5,17.7
		c0.8,1.3,1.7,2.5,2.5,3.8c8.9-3.8,17.7-7.4,27.7-11.8c0,29.1,0.2,56.2-0.2,83.2c0,3-3.2,6.5-5.7,8.7c-4,3.2-8.9,5.5-13.7,7.2
		c-8.4,3-6.1,6.8-1.9,11.4C198.1,2907.9,207.6,2914.3,221.4,2914.9z M228.1,2914.5c21.7-1.5,23.9-3.8,23.9-23.2
		c0-10.1-0.2-20.3,0.2-30.6c0.2-7.4-3.2-11-9.9-12c-7.6-1.1-13.3,2.7-13.7,9.7C227.5,2876.7,228.1,2895.3,228.1,2914.5z
		 M87.7,2812.9c-11.8,0.4-13.3,9.1-14.1,16c-2.1,19.4-3.4,39.1,14.1,54.3C87.7,2860,87.7,2837,87.7,2812.9z M178.9,2883.6
		c1.3-0.2,2.5-0.2,3.6-0.4c0-23,0-46,0-69c-12-2.7-12.2,7.4-13.3,12.7C164.6,2846.9,166.9,2866.3,178.9,2883.6z M251.3,2821.6
		c-8.7,1.9-16.3,2.5-22.6,5.7c-1.9,1.1-1.7,12.7,0,13.3c6.8,2.7,14.4,3,22.4,4.2C251.3,2836.8,251.3,2830.4,251.3,2821.6z"/>
	<path fill="#555555" d="M456,2488.1c-65.2,31-78.3,105.4-41,160.1c2.1-7.4,4.9-12.5,4.9-17.5c0.4-28.7,1.1-57.6-0.2-86.4
		c-0.6-13.3,5.9-18.6,15.8-23c4.6-2.1,10.1-3.2,13.9-6.3c5.3-4.6,9.3-10.6,14.4-16.5c0.4,0.6,1.7,2.7,3.8,6.1
		c11.8-5.3,23.7-10.8,32.7-15c8.9,10.8,16.3,21.1,24.9,30.4c14.8,15.8,22,34.8,24.1,55.7c3.4,34-4.2,64.8-29.1,89.5
		c-13.5,13.3-28.9,22-48.6,25.6c-53.8,9.5-94.8-25.1-109.2-63.6c-19.4-51.7,4.2-107.3,53.2-131.1
		C427.5,2490.2,439.5,2485,456,2488.1z M453.8,2519.8c-1.3,0.6-2.3,1.3-3.6,1.7c0,3.8,0,7.6,0,11.4c0,28.5-0.4,57,0.2,85.3
		c0.2,11.2-1.1,19.6-13.7,22.6c-3.6,0.8-6.8,3.2-9.9,4.9c-8,4-8.9,8.2-1.7,13.9c8,6.3,16.7,12,25.1,17.5c6.5,4.2,9.7,1.5,9.7-5.9
		c0-47.7,0-95.7-0.2-143.4C459.5,2525.3,455.8,2522.8,453.8,2519.8z M465.8,2649.5c0,6.3,0,12.7,0,19c0,12.7,2.3,13.9,12.9,7.6
		c18.6-11,25.8-29.8,31-49.2c0.6-2.7-2.7-7.4-5.5-9.7c-5.9-4.9-26.6-4.9-32.3,0.2c-3,2.5-5.3,7.2-5.9,11.2
		C464.8,2635.3,465.8,2642.3,465.8,2649.5z M509,2568.4c-24.9-46-30.4-52.4-43.3-50c0,15.2-0.2,30.6,0.2,45.8c0,3,2.5,6.3,4.9,8.4
		C478.6,2580,502.5,2577.2,509,2568.4z M466.3,2604.1c14.6,1.7,28.3,3.6,42,4.9c1.7,0.2,5.3-3,5.1-4.4c-0.4-7.4-1.7-14.6-2.3-20.5
		c-16.5,0-30.4,0-45,0C466.3,2592,466.3,2599.2,466.3,2604.1z"/>
	<path fill="#555555" d="M856.5,2767.1c9.9-8.7,19.8-17.3,30.2-26.4c11.6,8.4,21.1,18.8,20.3,38.6c-1.9,40.8-0.6,81.5-0.4,122.3
		c0,3.8,1.9,7.6,3,11.4c3.6-1.1,7-2.3,12.9-4.2c-4.6,15.4-18.6,21.5-27.7,32.9c-7.2-6.8-13.7-12.9-20.7-19.2c-3.2,1.5-6.5,3-9.9,4.4
		c-0.6-1.1-1.3-2.1-1.3-2.3c22-16.9,11-41,13.1-62.1c0.2-1.5-2.5-3.8-4.4-4.9c-2.1-1.1-4.9-1.1-7.2-1.1
		c-27.9-1.3-27.9-1.3-27.9,26.4c0,7.6,0,15.4,0,25.3c5.5-1.7,9.7-2.7,15.8-4.6c-5.9,17.5-22.6,24.7-30.8,36.1
		c-14.6-6.1-27.9-13.3-42.2-17.5c-16-4.9-27,7.4-38.9,16.3c7-23.9,23-36.7,46.7-41.6c0-12.9,0-25.3,0-37.8c-12.7-3-14.6-1.7-22,13.5
		c-13.3-20.7-6.1-37.2,24.1-51.9c-1.9-9.1-4.4-19-5.7-28.9c-0.2-2.3,2.5-6.1,4.9-7.6c12-7.2,24.5-13.5,37-20.3
		c1.3-0.6,2.7-0.8,4.2-1.3c-0.8-1.5-1.7-2.7-2.7-4.2c-5.1,2.1-9.7,5.5-15,6.3c-8.2,1.5-17.7,3.6-25.1,1.1
		c-19-6.3-27.7-4.9-38.6,12.7c0.4-12.5-3.6-22.6,3.8-32.7c9.3-12.2,28.7-17.7,42.9-10.8c14.4,7,28.3,8.7,42.4-0.6
		c1.9-1.3,4.9-0.6,8.4,0.2c-11.6,8.7-9.9,20.3-9.7,31.7c0.2,16.3,0.2,32.3,0,48.6c-0.2,6.5,2.1,8.4,8.4,8.7
		c31.5,1.5,31.5,1.7,31.5-29.6c0-3.8,0-7.8,0-11.6C876.5,2768.3,871.8,2764.8,856.5,2767.1z M818,2873.7c8-2.5,11.2-6.5,11-14.1
		c-0.2-25.3,0-50.7-0.2-75.8c0-3-0.6-5.9-0.8-9.3c-9.1,0.6-11.2,5.5-11.2,12.7c0.2,25.6,0,51.3,0,76.9
		C816.8,2867,817.5,2869.9,818,2873.7z M794.5,2895.5c13.1,3,23,5.1,34.6,7.6c-0.4-8.9-0.8-16.7-1.3-26
		C815.8,2883.6,806.3,2888.7,794.5,2895.5z"/>
	<path fill="#555555" d="M510,2762.9c-7,3.4-10.3,4.9-13.9,6.5c-0.6-1.1-1.3-1.9-1.9-3c8.2-8.4,16.5-17.3,25.1-25.3
		c1.5-1.3,6.8-0.4,8.7,1.3c11.6,10.6,18.8,22,17.9,39.7c-1.7,39.7-0.6,79.4-0.2,119.1c0,4,2.3,9.7,5.5,11.6
		c3.6,2.3,13.9-7.6,14.1-12.2c0-18.6-0.6-37.4,0.4-56c0.4-6.8,3.8-14.1,8-19.4c7.8-9.5,17.5-17.5,26.4-26.2
		c9.1,8.4,17.3,16,27.9,25.8c0-18.6,0.6-33.6-0.2-48.4c-0.4-8.7-6.1-10.6-20.1-7.2c7.4-13.7,18.8-21.3,28.3-31
		c14.4,11,24.5,21.1,23.4,41.4c-2.1,39.7-0.6,79.4-0.6,119.1c0,4.2,0,8.4,0,15c5.5-1.9,9.5-3.4,13.5-4.6c1.3,5.9,1.3,5.9-26,32.1
		c-6.5-6.1-13.1-12.5-20.7-19.8c-4.9,4.4-10.1,9.3-15.4,13.9c-9.5,8.9-12,9.1-21.7,0.2c-6.5-5.9-12.7-12-18.6-18.4
		c-4-4.4-6.8-5.5-11.4-0.2c-7.8,8.4-16.7,15.8-27.7,26.2c-5.7-8-11-15.4-15.4-21.5c-5.9,2.5-9.3,4-12.9,5.5
		c-0.4-0.6-0.8-1.3-1.3-1.7c0.6-1.1,1.1-2.5,2.1-3.2c13.7-9.5,12-23.4,12-37.4c-0.2-33.8,0.2-67.6-0.2-101.4
		C515,2777.2,512,2770.7,510,2762.9z M628.3,2873.1C628.2,2873.1,628.2,2873.1,628.3,2873.1c-0.2-11,0.2-21.7-0.4-32.7
		c-0.4-8.4-8.4-15.4-13.5-12.5c-8.2,5.1-16,10.8-15.8,22.4c0.2,15.2,0.2,30.2,0,45.4c-0.2,11.4,9.1,15.8,16,21.7
		c1.1,1.1,6.1-0.4,7.2-1.9c2.7-4.6,5.7-9.7,6.3-15C629,2891.5,628.3,2882.4,628.3,2873.1z"/>
	<path fill="#555555" d="M601.2,2574.7c8.2-7.4,15.4-19,23.4-19.6c7.6-0.6,16.3,10.1,24.3,15.8c2.3,1.5,4.6,3,6.8,4.4
		c6.1-5.9,12.2-11.2,17.5-17.3c4.6-5.5,8.9-4.2,13.5-0.6c3.8,2.7,7,6.5,11.2,8.9c5.7,3,12,4.9,18.2,7.4c0.4-0.8,0.8-1.7,1.3-2.5
		c0.4,0.6,1.1,1.5,1.1,1.7c-9.5,11.8-6.5,25.8-6.8,39.1c-0.2,14.8,0,29.6,0,44.3c0,7.2,0.8,12.5,11,7.4
		c-5.1,14.4-17.9,21.1-26.2,31.7c-9.1-6.5-17.5-12.5-25.8-18.4c-0.6,0.8-1.3,1.5-1.7,2.3c-0.2-0.6-0.6-1.7-0.4-1.9
		c10.8-8.9,11.2-20.7,10.6-33.2c-0.6-14.8-0.8-29.6,0.2-44.3c0.8-10.3-6.3-14.1-12.7-18.4c-1.3-0.8-7.4,2.1-7.8,4.2
		c-1.5,5.7-1.5,11.8-1.5,17.7c-0.2,17.9,0,35.9,0,53.8c0,7,2.1,11,9.5,5.7c1.7,7.2-6.8,17.7-25.3,31.7c-8.7-5.9-17.3-11.6-25.8-17.5
		c-0.6,0.8-1.1,1.5-1.7,2.3c-0.2-0.6-0.6-1.7-0.4-1.9c10.8-8.7,11.6-20.3,11-32.9c-0.6-15.4,0-31-0.2-46.5
		c-0.2-10.6-7.8-17.3-19.8-16.9c0,27.7,0,55.1,0,83.6c2.7,0.2,5.9,0.6,11.8,1.3c-10.1,11-18.8,20.3-27.5,29.6
		c-11.2-4.4-14.4-20.9-28.7-15c-0.4-1.5-1.1-2.5-0.8-2.7c11.4-9.3,11.2-22.2,10.8-35.3c-0.4-14.8,0-29.6-0.2-44.3
		c0-13.7-2.1-16.3-17.9-19.6c8.7-9.5,16-17.7,24.3-26.6C585,2559.5,593,2567.1,601.2,2574.7z"/>
	<path fill="#555555" d="M835.2,2676.9c13.5-7.6,12.7-19.8,12.5-32.3c-0.2-36.5,0-73.1-0.2-109.6c0-15.2-0.4-15.4-15.4-14.4
		c0.2-1.5,0-3,0.6-3.8c6.3-7.2,12.7-14.6,19.6-21.3c1.9-1.7,7.2-3,8.4-1.9c10.8,11,23.2,20.9,20.1,39.7c-1.7,10.3-0.4,21.1-0.2,31.7
		c0,3.6,0.8,7.2,1.5,13.1c9.9-9.5,18.2-17.3,29.1-27.9c5.5,6.5,10.3,13.5,16.5,19.4c6.1,5.9,10.8,19.6,24.1,1.9
		c-0.8,6.3-0.6,8.4-1.5,9.1c-8.7,7-9.1,16.5-8.9,26.6c0.4,16.3,0,32.3,0.2,48.6c0,3.8,0.4,7.4,0.8,12.2c4.9-1.7,8.7-3,12.5-4.2
		c0.8,0.8,1.7,1.7,2.5,2.5c-9.1,9.5-18.2,19-27.2,28.5c-12.2-3.4-15.2-24.1-33.6-13.1c0.2-1.1,0.4-2.3,0.6-3.4c1.1-1.5,2.1-3,3.4-4
		c8-7.6,11.6-16.5,10.8-27.7c-0.8-12.7-0.8-25.3,0-38c0.8-13.3-8.9-19.6-16.7-26.8c-4.6-4.2-13.1,3.2-13.7,12.2
		c-0.4,7.4-0.2,14.8-0.2,22.2c0,13.1-0.2,26,0,39.1c0,4.4,1.3,8.7,1.9,13.3c5.1-1.9,8.7-3.4,14.4-5.7c-1.5,3.8-1.7,5.7-2.7,7
		c-3.6,4-7.6,7.6-11.4,11.4c-14.4,14.1-14.1,13.9-29.8,0.8C849.2,2678.6,842.7,2678.8,835.2,2676.9z"/>
	<path fill="#555555" d="M1313.8,2796.6c7.6,9.7,14.6,18.8,21.7,27.9c1.3-0.6,2.5-1.3,3.8-1.9c-2.3-19.2,6.8-39.7-6.5-58.3
		c-4.9,2.3-8.7,4-12.2,5.7c-0.6-1.1-1.5-1.9-2.1-3c9.1-9.3,17.9-18.6,27.2-27.5c0.8-0.8,4.6,0,5.7,1.3
		c10.1,10.8,22.6,18.8,21.7,37.6c-1.7,40.3-0.6,80.9-0.4,121.2c0,4.4,0.4,8.9,0.8,14.8c5.5-2.3,9.3-3.8,13.1-5.5
		c0.6,0.6,1.3,1.5,1.9,2.1c-8.4,8.7-16.5,17.9-25.6,26c-1.7,1.5-8.7-0.2-11.2-2.7c-13.9-12.2-13.7-12.5-27.7,0.4
		c-11,10.3-13.1,8.9-24.9-0.2c-16.5-12.5-21.5-27.5-19.6-47.3c1.5-16,0-32.3,0.6-48.4c0.2-4.6,2.1-10.3,5.1-13.9
		C1292.8,2816.1,1301.9,2808,1313.8,2796.6z M1339.2,2873.5L1339.2,2873.5c-0.2-11.2,0.2-22.4-0.2-33.6c-0.4-8.2-9.7-14.8-14.6-10.3
		c-8.2,7.4-18.2,13.9-15.8,28.1c1.5,9.3,1.1,19,0,28.3c-1.3,11.2,2.7,19.4,11,26c3.4,2.7,10.1,6.8,11.8,5.5
		c3.8-2.7,7.2-8.4,7.8-13.3C1340.2,2893.8,1339.2,2883.6,1339.2,2873.5z"/>
	<path fill="#555555" d="M1129.7,2833.4c-10.8-3.2-23.4-15.2-23.9-24.1c19.8,0.6,39.7,0.2,55.7-16c9.9,11,19.2,21.1,28.3,31
		c6.8-4.2,11.6-7.2,16.5-10.3c1.1,0.8,2.1,1.7,3.2,2.7c-18.6,11.4-15,29.1-15,45.8c0,13.3-0.2,26.8,0.2,40.1c0,3.4,1.9,7,2.7,10.3
		c3.4-1.1,6.8-2.1,10.1-3.4c2.7,6.1-1.3,11.2-25.6,31.9c-6.5-6.3-13.1-12.5-20.7-19.6c-5.7,5.3-11.4,10.6-17.1,16
		c-5.3,4.9-10.3,7-16.3,0.8c-6.5-6.8-13.5-12.9-20.3-19.6c-1.1-1.1-2.3-3-2.3-4.4c-0.2-15.8-0.4-31.7,0.2-47.5c0.2-2.7,4-5.9,7-8
		c4.9-3.4,9.9-6.8,15.2-8.9c8-3.4,9.5-7.2,2.5-13.1c-0.8-0.8-0.8-2.5-1.1-4c5.1,3,10.6,5.7,15.4,9.1c5.7,4,11.2,8.7,19.2,15
		c0-9.9,0.2-16.3-0.2-22.4c-0.2-1.9-2.3-5.7-3.2-5.5C1150.6,2831.1,1139.2,2824.7,1129.7,2833.4z M1140.8,2846.9
		c-2.7,5.7-6.3,9.9-6.8,14.4c-0.8,11.4-2.3,23.7,0.4,34.4c1.9,8,9.7,15,15.6,21.7c1.1,1.1,6.8-0.4,8.9-2.3
		c6.5-5.7,7.6-44.8,1.5-50.9C1154.9,2858.7,1148.8,2853.9,1140.8,2846.9z"/>
	<path fill="#555555" d="M990.7,2590.8c-10.1-7.2-20.5-14.6-30.6-21.7c0.6-0.8,1.1-1.7,1.7-2.5c9.1-1.7,18.2-2.7,27-5.3
		c7.8-2.1,15.8-4.9,22.6-9.1c5.9-3.6,9.5-3.6,13.9,1.5c5.3,5.9,11.2,11.2,16.5,17.1c5.5,6.1,10.8,8.2,16.7,0.4
		c1.1-1.5,3.2-2.1,7-1.7c-2.3,3.4-4.9,6.3-6.5,9.9c-2.7,5.3-6.3,10.8-6.8,16.5c-0.8,16.9-0.2,33.8-0.2,50.7c0,17.5,0,17.5,14.8,19.4
		c-9.7,8.9-19,17.5-29.6,27.2c-4.4-5.3-10.6-12.5-16.7-19.8c-7,6.5-12.7,11.4-17.5,16.9c-5.9,6.5-12,6.3-17.9,1.3
		c-7.2-6.1-13.7-13.1-20.1-19.8c-1.5-1.7-2.5-4.2-2.5-6.5c-0.2-14.1-0.8-28.3,0.4-42.2c0.8-11.2,12.7-12.7,20.3-16.9
		c7-3.8,10.8-7.4,8-15.4c2.5,0.6,5.5,0.8,7.4,2.3c7.2,5.5,13.9,11.4,22.2,18.4c0-11.4,0-20.9,0-28.9c-11.6,0-22.2,0-32.3,0
		C988.8,2585.3,989.8,2588,990.7,2590.8z M1009.7,2673.5c7.6-4,12.9-10.3,11.6-20.9c-0.6-4.9-0.8-9.9,0-14.8c3-14.6-5.5-23-15.4-31
		c-5.1-4-14.6-2.3-14.4,2.5C992,2632.4,982.2,2658.1,1009.7,2673.5z"/>
	<path fill="#555555" d="M761.3,2598.4c-12-11-22.6-20.7-34.4-31.5c10.8-2.1,19.6-3.2,28.3-5.7c8-2.3,15.8-5.7,23.2-9.5
		c5.3-2.7,9.5-4,13.9,1.3c4.6,5.5,9.9,10.3,14.6,15.8c5.5,6.8,11,10.6,18.4,2.3c1.3-1.3,3.6-1.7,7.2-0.8c-2.1,3-3.4,6.5-6.1,8.4
		c-6.5,4.9-8.7,10.8-8.4,18.8c0.4,19,0,38,0.2,57c0,11.8,3.2,14.1,14.1,10.3c0,1.5,0.6,3.2,0.2,3.8c-6.3,7.2-12.9,14.1-19.2,21.5
		c-4,4.6-7.2,5.1-11.6,0c-4.6-5.5-10.1-9.9-16-15.4c-5.1,5.1-10.1,10.3-15.4,15.4c-7,7-14.4,5.9-21.1-0.2c-5.3-4.6-10.6-9.3-14.6-15
		c-2.7-3.8-4.6-9.1-5.3-13.9c-0.8-8.4,1.1-17.1-0.4-25.3c-3.4-17.3,7.8-23.9,19.8-30.4C752,2603.6,755.7,2601.5,761.3,2598.4z
		 M757.8,2631.5c0,24.3,0,24.5,12,35.3c2.5,2.1,7.8,4.9,9.3,3.8c3.8-2.7,7.8-7,8.7-11.4c1.5-6.8-0.6-14.1,0.6-20.9
		c3-14.8-5.5-23.4-15.4-31c-2.7-2.1-7.8-2.1-11.6-1.3c-1.7,0.4-3.2,4.9-3.4,7.6C757.5,2619.5,757.8,2625.6,757.8,2631.5z
		 M752.7,2582.1c11.8,10.1,22.4,19,34.6,29.4c0-11.6,0-21.1,0-29.4C776,2582.1,765.2,2582.1,752.7,2582.1z"/>
	<path fill="#555555" d="M303.1,2922.7c9.1-28.5,1.5-56.8,5.1-84.3c0.8-6.3,8.9-12.5,14.8-17.1c8.9-7,18.6-13.1,28.3-18.8
		c2.5-1.5,7.4-1.1,9.9,0.4c8.2,4.9,16,10.1,23.7,16c4.9,3.8,8.4,7.2,13.7,0.4c0.8-1.1,4.4-0.2,10.8-0.2
		c-16.3,10.1-12.9,23.7-12.9,36.3c0,15.2-0.4,30.2,0.2,45.4c0.2,7.2-2.7,11.8-8.2,15.6c-9.9,6.8-19.6,13.5-29.4,20.3
		c-5.3,3.8-9.9,5.5-15.6,0.4c-6.1-5.3-13.5-9.5-19.6-14.8C316.6,2917.2,310.5,2914.3,303.1,2922.7z M341.1,2823
		c-0.6,6.3-1.3,9.9-1.3,13.7c-0.2,14.8,0,29.6,0,44.3c0,19.4,6.5,28.7,26.4,36.1c0-24.3,0-48.1-0.2-72c0-2.3-1.7-5.3-3.6-6.8
		C356.3,2833.4,349.8,2829.2,341.1,2823z"/>
	<path fill="#555555" d="M928.8,2919.5c6.8-25.3,2.1-52.8,2.7-80c0.2-11.8,10.1-13.1,16-18.4c8-7.2,19-11.2,27-18.4
		c5.7-5.1,8.4-1.7,10.8,1.5c9.9,13.5,19.6,27.2,29.1,41c4.4,6.5-2.1,8.9-5.5,11.2c-13.9,10.6-28.3,20.3-42.7,30.4
		c-7.6,5.3-6.3,10.8,0.4,17.1c15.8,15.2,30.6,18.6,46.5,0.4c1.1-1.3,4.2-0.8,7.8,0.6c-3.8,3.6-7.2,7.8-11.4,10.8
		c-11.2,8-22.4,15.6-34,22.8c-2.3,1.5-7,1.3-9.3,0c-9.5-5.5-18.2-12-27.7-17.7C936.5,2920,932.8,2920.2,928.8,2919.5z M962.2,2881.3
		c8.9-6.3,16.3-11.4,23.4-16.9c1.1-0.8,1.3-4.4,0.4-5.7c-7-10.6-14.4-20.7-21.7-31c-0.6,0.2-1.5,0.6-2.1,0.8
		C962.2,2845.2,962.2,2861.7,962.2,2881.3z"/>
	<path fill="#555555" d="M1267.8,2910c0.8,6.1-11,20.1-27.9,32.1c-5.5-6.3-11.2-13.1-16.9-19.6c-3.8,1.9-7.2,3.4-13.1,6.3
		c1.5-3.8,1.7-5.5,2.5-5.9c12.5-9.1,12.9-22,12.7-36.1c-0.6-34.4-0.2-69-0.2-103.5c0-15.2-5.1-19-21.7-13.3
		c7.4-14.1,18.6-21.7,28.3-31.7c12.7,10.8,24.3,19.2,23.4,39.1c-1.7,41.4-0.6,83-0.4,124.6C1254.4,2915.1,1256.8,2916.6,1267.8,2910
		z"/>
	<path fill="#555555" d="M429.1,2921.4c-5.3,3-8.2,4.6-11.2,6.3c-0.6-0.4-1.3-1.1-1.9-1.5c2.1-3,4.4-5.7,6.1-9.1
		c3-6.1,7.2-12.2,7.4-18.6c1.1-18.6,0.6-37.4,0.4-56c-0.2-13.7-6.5-17.5-18.4-11c-0.4-7.6,3.2-12,27-32.3c4.4,5.1,8.9,10.1,13.3,15
		c4.4,4.6,8.2,6.5,13.5,0.2c4.4-5.5,10.3-9.5,16.5-14.8c8.7,29.6,14.4,32.1,26.8,35.5c-9.5,16-27.9,17.3-47.1,1.7
		c0,26,0,50.7,0,77.3c4.2-1.9,8-3.6,14.8-6.3c-5.9,16-20.1,22.4-29.4,36.3C440.5,2936,434.8,2928.8,429.1,2921.4z"/>
	<path fill="#555555" d="M1114.7,2835.1c-7.4,16.9-28.1,17.1-47.7,0c-0.6,4-1.5,7.4-1.5,10.8c-0.2,19-0.2,38,0.2,57
		c0,3.4,2.1,6.8,3.2,10.1c3.2-1.1,6.5-2.3,12-4.2c-1.3,3.4-1.5,7-3.4,9.1c-5.3,6.1-11.6,11.4-17.1,17.5c-5.3,5.9-9.7,5.7-14.8-0.4
		c-3.6-4.4-8.2-8-12.7-12c-3.4,1.7-6.5,3.4-9.9,5.1c-0.6-0.6-1.3-1.1-1.9-1.7c1.9-2.7,4-5.3,5.3-8.2c3-6.3,7.8-12.7,8.2-19.2
		c1.1-19,0.6-38,0-57c-0.2-4.2-2.5-9.5-5.9-12c-2.3-1.7-7.6,0.6-13.5,1.5c4.4-14.4,17.9-21.1,27.5-31.7c5.9,5.5,12,9.9,16.5,15.6
		c4.4,5.7,7.4,4.4,11.4,0.4c5.3-5.3,10.8-10.3,17.3-16.5C1091.3,2816.1,1096.2,2830.8,1114.7,2835.1z"/>
	<path fill="#555555" d="M672.5,2873.1c11-11,19.2-20.9,29.1-28.7c4.4-3.6,12.2-3.2,18.6-4c8.9-1.3,19,2.5,26.4-5.9
		c0.6-0.8,3.2-0.2,6.5,2.1c-10.1,9.9-19.6,20.3-30.4,29.1c-3.6,3-10.6,1.7-16,2.1c-9.1,0.6-18.8-2.3-26.6,5.3
		C679,2873.7,676.7,2873.1,672.5,2873.1z"/>
</g>
</svg>
