<?xml version="1.0" encoding="utf-8"?>
<!-- Generator: Adobe Illustrator 17.1.0, SVG Export Plug-In . SVG Version: 6.00 Build 0)  -->
<!DOCTYPE svg PUBLIC "-//W3C//DTD SVG 1.1//EN" "http://www.w3.org/Graphics/SVG/1.1/DTD/svg11.dtd">
<svg version="1.1" id="Layer_1" xmlns="http://www.w3.org/2000/svg" xmlns:xlink="http://www.w3.org/1999/xlink" x="0px" y="0px"
	 viewBox="0 0 32 32" enable-background="new 0 0 32 32" xml:space="preserve">
<path fill="#FFFFFF" d="M25.4,10.3C25.4,10.3,25.4,10.3,25.4,10.3c-0.1-0.1-0.1-0.1-0.2-0.2c0,0,0,0,0,0c0,0,0,0,0,0l-9-4.5
	c-0.1-0.1-0.3-0.1-0.4,0l-3.6,1.8c0,0,0,0,0,0l-1.8,0.9c0,0,0,0,0,0l-3.6,1.8c0,0,0,0,0,0c0,0,0,0,0,0c0,0-0.1,0.1-0.1,0.1
	c0,0,0,0-0.1,0.1c0,0.1-0.1,0.2-0.1,0.3v10.8c0,0.2,0.1,0.4,0.3,0.4l9,4.5c0.1,0,0.1,0.1,0.2,0.1s0.2,0,0.2-0.1l9-4.5
	c0.2-0.1,0.3-0.3,0.3-0.4V10.6C25.5,10.5,25.5,10.4,25.4,10.3z M16,6.7l7.9,3.9l-2.5,1.2l-7.9-3.9L16,6.7z M10.6,9.4l7.9,3.9
	L16,14.5l-7.9-3.9L10.6,9.4z M7.5,11.4l8,4v9.7l-8-4V11.4z M24.5,21.1l-8,4v-9.7l2.6-1.3v4.6c0,0.2,0.1,0.3,0.2,0.4
	c0.1,0,0.2,0.1,0.3,0.1c0.1,0,0.2,0,0.2-0.1l1.8-0.9c0.2-0.1,0.3-0.3,0.3-0.4v-5.1l2.6-1.3V21.1z"/>
</svg>
