<?xml version="1.0" encoding="utf-8"?>
<!-- Generator: Adobe Illustrator 18.1.1, SVG Export Plug-In . SVG Version: 6.00 Build 0)  -->
<svg version="1.1" id="Layer_1" xmlns="http://www.w3.org/2000/svg" xmlns:xlink="http://www.w3.org/1999/xlink" x="0px" y="0px"
	 viewBox="0 0 500 500" enable-background="new 0 0 500 500" xml:space="preserve">
<g>
	<path fill="#FFFFFF" d="M101.6,126.6c0,4.7,3.1,7.8,7.8,7.8h28.1v98.4v70.3c0,4.7,3.1,7.8,7.8,7.8h210.9c4.7,0,7.8-3.1,7.8-7.8
		c0-4.7-3.1-7.8-7.8-7.8H153.1v-54.7h220.3c4.7,0,7.8-3.1,7.8-6.2l17.2-106.2c0-1.6,0-4.7-1.6-6.3c-1.6-1.6-4.7-3.1-6.2-3.1H109.4
		C104.7,118.8,101.6,121.9,101.6,126.6z M367.2,225H151.6v-90.6h229.7L367.2,225z"/>
	<path fill="#FFFFFF" d="M137.5,354.7c0,14.1,10.9,25,25,25c14.1,0,25-10.9,25-25c0-14.1-10.9-25-25-25
		C148.4,329.7,137.5,340.6,137.5,354.7z M153.1,356.2c0-4.7,4.7-9.4,9.4-9.4c4.7,0,9.4,4.7,9.4,9.4c0,4.7-4.7,9.4-9.4,9.4
		C156.2,365.6,153.1,360.9,153.1,356.2z"/>
	<path fill="#FFFFFF" d="M295.3,354.7c0,14.1,10.9,25,25,25s25-10.9,25-25c0-14.1-10.9-25-25-25S295.3,340.6,295.3,354.7z
		 M310.9,356.2c0-4.7,4.7-9.4,9.4-9.4s9.4,4.7,9.4,9.4c0,4.7-4.7,9.4-9.4,9.4S310.9,360.9,310.9,356.2z"/>
</g>
</svg>
