<?xml version="1.0" encoding="utf-8"?>
<!-- Generator: Adobe Illustrator 18.1.1, SVG Export Plug-In . SVG Version: 6.00 Build 0)  -->
<svg version="1.1" id="Layer_1" xmlns="http://www.w3.org/2000/svg" xmlns:xlink="http://www.w3.org/1999/xlink" x="0px" y="0px"
	 viewBox="0 0 30 30" enable-background="new 0 0 30 30" xml:space="preserve">
<g>
	<circle fill="#454546" cx="15" cy="15" r="13.8"/>
	<circle fill="#FFFFFF" cx="15" cy="15" r="9.9"/>
	<g>
		<path fill="#454546" d="M22.1,12.8c0-0.3-0.1-0.5-0.2-0.6l-1.2-1.2c-0.2-0.2-0.4-0.3-0.6-0.3s-0.4,0.1-0.6,0.3l-5.6,5.6l-3.1-3.1
			c-0.2-0.2-0.4-0.3-0.6-0.3s-0.4,0.1-0.6,0.3l-1.2,1.2C8,14.8,8,15,8,15.3c0,0.2,0.1,0.5,0.2,0.6l5,5c0.2,0.2,0.4,0.3,0.6,0.3
			c0.2,0,0.5-0.1,0.6-0.3l7.4-7.4C22,13.2,22.1,13,22.1,12.8z M25.5,15c0,1.9-0.5,3.7-1.4,5.3c-0.9,1.6-2.2,2.9-3.8,3.8
			c-1.6,0.9-3.4,1.4-5.3,1.4s-3.7-0.5-5.3-1.4s-2.9-2.2-3.8-3.8C5,18.7,4.5,16.9,4.5,15c0-1.9,0.5-3.7,1.4-5.3s2.2-2.9,3.8-3.8
			C11.4,5,13.1,4.5,15,4.5s3.7,0.5,5.3,1.4c1.6,0.9,2.9,2.2,3.8,3.8C25.1,11.3,25.5,13.1,25.5,15z"/>
	</g>
</g>
</svg>
