<?xml version="1.0" encoding="utf-8"?>
<!-- Generator: Adobe Illustrator 18.1.1, SVG Export Plug-In . SVG Version: 6.00 Build 0)  -->
<svg version="1.1" id="Layer_1" xmlns="http://www.w3.org/2000/svg" xmlns:xlink="http://www.w3.org/1999/xlink" x="0px" y="0px"
	 viewBox="0 0 391.5 226.1" enable-background="new 0 0 391.5 226.1" xml:space="preserve">
<g>
	<g>
		<path id="path4929_1_" fill="#808285" d="M9.5,216.3c-0.1-0.2,1.6-0.9,3.9-1.5c2.3-0.7,5.9-2.1,8.1-3.3c4.1-2.2,4.7-2.4,4.2-1.6
			c-0.2,0.3-0.1,0.4,0.2,0.2c0.3-0.2,0.4-0.4,0.3-0.6c-0.3-0.3,1-1.8,1.6-1.8c0.2,0,0.1,0.4-0.4,1l-0.8,1l1-0.8
			c0.5-0.4,0.9-0.9,0.7-1c-0.3-0.3,1.1-1.8,1.6-1.8c0.2,0,0.1,0.3-0.2,0.8c-0.5,0.7-0.5,0.7,0.2,0.2c0.4-0.3,0.7-0.7,0.6-0.9
			c-0.2-0.4,5.5-6.1,5.8-5.8c0.1,0.1,0.5-0.1,0.8-0.5c0.5-0.7,0.5-0.7-0.2-0.2c-0.4,0.3-0.7,0.4-0.7,0.1c0-0.2,0.2-0.6,0.5-0.7
			c0.8-0.5,4.8-6.2,7.1-10c3.3-5.6,5-9.2,8.3-17.6c9.7-25,15-58,14.3-88.7c-0.4-17.8-1.5-27.7-4.4-38.8C57.4,26.4,50.7,16.3,40.2,11
			C34.9,8.4,32,7.9,22.5,8c-8,0.1-11.4-0.3-10.9-1.2c0.3-0.5,368.3-0.5,368.7,0c0.6,1-3.4,1.4-10.4,1.1c-5.8-0.2-7.7-0.2-10.5,0.4
			c-12.1,2.5-20.5,10.6-26.2,25.4c-2.6,6.7-3.5,10.1-4.9,18c-2.2,12.6-2.6,17.4-2.6,34.6c0,12.4,0.2,17.8,0.7,23.7
			c2.9,28.8,8.6,52.1,17.5,70.7c1.5,3.2,3.6,7.1,4.6,8.7c4.7,7.6,11.9,15.7,17.3,19.3c4.5,3,12.4,6.5,14.7,6.5
			c0.4,0,1.1,0.3,1.6,0.6c0.7,0.6-21.6,0.6-185.7,0.6C91,216.6,9.6,216.5,9.5,216.3L9.5,216.3z M15,215.3c0.5-0.2,0.6-0.4,0.2-0.4
			c-0.4,0-1,0.2-1.5,0.4c-0.5,0.2-0.6,0.4-0.2,0.4C13.8,215.7,14.5,215.5,15,215.3z M29.6,213.8c4.6-3.1,11.9-10.8,15.6-16.4
			c14-20.9,23.2-52.6,26.2-90.5c1-12,0.9-31.2-0.2-41.9C68.4,37,61.9,20.6,49.4,10l-3.2-2.7l-5.4,0l-5.4,0L37.4,8
			c3,1.1,8.1,4.3,11,7.2c9.2,8.9,14.9,23.2,17.6,44c4.3,33.5,0,76-10.9,107.2c-4.3,12.3-7.5,19.1-12.8,27.1
			c-6.7,10.1-14.2,16.8-23.3,20.8l-3.2,1.4l5.4,0l5.4,0L29.6,213.8z M31.6,213.8c5.6-4.2,11.3-10.4,15.8-17.1
			C64.2,171.3,74.5,125.9,73.6,81C73,52.2,68.3,32.2,59.1,18.4c-2.4-3.6-9.8-11.1-10.9-11.1c-0.4,0-0.1,0.5,1,1.4
			c8.3,6.6,15.4,18.8,19,33c3,11.7,4.3,23.8,4.6,40.8c0.7,38.6-6.8,77.2-20.2,103.9c-5.9,11.8-13.8,21.7-21.7,27.3
			c-1.6,1.1-2.7,2.1-2.4,2.1C28.8,215.7,30.2,214.9,31.6,213.8z M83.7,214.8c0.5-2.5,1.1-9,1.5-17c0.2-4.8,0.6-10,0.9-11.5
			c0.5-3.5,0.3-4.4-2-7.3l-1.8-2.4l1.4-1.1c3.2-2.4,4.5-8.1,4.5-18.4c-0.1-12.4,4-30.2,10.3-44.8c3.3-7.6,5.9-11.7,10.1-15.9
			c5.8-5.8,12.3-8.2,19.3-7c8.6,1.5,16.8,9.5,18.2,17.7c0.9,5.6-0.1,11.9-2.2,14.2c-2.7,2.9-7.7,3.8-10.7,1.9
			c-2-1.3-3.4-3.6-3.7-6.3c-0.3-2.9,0-4.1,1.8-6c2.3-2.5,2.5-3.2,1.8-5.2c-1.4-4.1-5.2-8.9-7.3-9.3c-3-0.6-7.3,4.3-12,13.7
			c-3.5,7.1-5,11.1-9,24.6c-5.2,17.4-6.1,22.3-5.6,29.3c0.3,5.1,1.5,9.2,4.4,15.1c1.3,2.6,2.3,5.1,2.3,5.4c0,0.3-0.8,1.1-1.7,1.7
			c-2.3,1.4-2.8,2.3-4,7.1c-0.9,3.3-4.5,21.4-4.5,22.4c0,0.2,8.6,0.3,19,0.3h19v-12.6c0-11.8,0.1-12.7,0.9-15.1
			c1.9-5.3,5.8-8.7,11.1-10c2.2-0.5,97.6-0.5,100.4,0.1c5.6,1.1,10,5.1,11.7,10.9c0.5,1.7,0.6,4.7,0.6,14.4l0,12.3h19
			c10.5,0,19-0.2,19-0.3c0-1.3-4.5-22.5-5.2-24.6c-1-3.1-1.3-3.5-3.5-4.8c-0.9-0.6-1.6-1.3-1.6-1.8c0-0.4,1.1-3,2.3-5.7
			c3-6.3,4-9.8,4.3-15.4c0.4-6.8-0.9-13.1-6.9-33.1c-1.1-3.5-2.8-8.6-3.8-11.4c-4.9-13.1-11.4-22.6-15.5-22.6c-1.4,0-4.6,3.6-6.4,7
			c-2.1,4.1-2.1,4.4,0.1,7.1c2.7,3.2,3.1,6.2,1.5,9.7c-1.3,2.8-3.5,4.2-6.7,4.1c-2.6,0-5.2-1-6.5-2.5c-2.3-2.5-3.5-9.4-2.5-14.5
			c1.5-7.9,8.2-14.9,16.6-17.3c3.7-1,6.7-1,10.4,0.1c9.7,2.9,17,12.1,23.2,29.1c4.8,13.2,8.3,32,7.7,40.9
			c-0.5,6.7,1.3,13.4,4.1,15.5c0.7,0.5,1.3,1.1,1.3,1.3c0,0.2-0.8,1.4-1.8,2.7c-2.1,2.8-2,2.1-1.1,16.3c0.9,13.2,1.6,19.9,2.2,20.1
			c0.3,0.1,12.3,0.1,26.7,0.1l26.3-0.1l-2.3-1.7c-23.6-17.1-40.2-65.5-41.7-121.3c-0.6-22.9,1.4-41,6.3-56.4
			c3.6-11.4,8.2-19.4,14.9-25.8l3.2-3.1H195.7c-80.3,0-146,0.1-145.9,0.2c0.1,0.1,1.2,1,2.4,2c2.7,2.3,6.3,6.7,8.9,10.7
			c13.5,21.6,17.2,66.6,9.4,112.7c-4,23.6-11,45-19.6,59.6c-4.7,8-11.8,16.5-17.2,20.6c-1.7,1.3-3.1,2.4-3.1,2.5s11.9,0.2,26.5,0.2
			h26.5L83.7,214.8L83.7,214.8z M94.7,215.6c0-0.7,4.4-22.4,5-24.2c0.9-3.2,2-4.8,3.8-5.8c0.8-0.4,1.5-1.1,1.5-1.5
			c0-0.4-1.1-2.9-2.4-5.6c-5-10.3-5.6-18.3-2.4-30.8c1.9-7.3,6.7-23.5,8.4-28.1c2.2-5.9,7-15.6,9.5-18.9c2.3-3.1,4.6-4.9,6.7-5.3
			c1.2-0.2,1.6,0,3.5,1.8c2.5,2.3,5.6,8,5.6,10.2c0,1-0.4,1.7-1.3,2.6c-1.9,1.8-2.6,3.5-2.6,5.7c0.1,3.8,1.7,6.3,4.8,7.3
			c2.9,0.9,7.1-0.4,8.6-2.7c1.9-2.9,2.6-10.2,1.4-14.6c-1.7-6.3-7-12-13.7-14.6c-3.8-1.5-9.8-1.7-13.2-0.3
			c-7.5,2.9-13.9,10.1-18.5,21.1c-6.9,16.4-10.3,31.4-10.6,46.9c-0.2,10.3-1.1,14.1-4.1,16.7l-1.5,1.3l1.9,2.3l1.9,2.3l-0.3,4.1
			c-0.2,2.2-0.5,7.7-0.7,12.2c-0.4,7.3-0.8,11.6-1.5,16.6l-0.2,1.6h5.2C92.3,215.8,94.7,215.7,94.7,215.6z M140.4,205.1v-10.7h-3.2
			H134v10.7v10.7h3.2h3.2V205.1z M250.6,211.7v-4.1h-54.7h-54.7v4.1v4.1h54.7h54.7V211.7z M153.2,213.9c-0.8-0.9-0.4-4.3,0.5-4.4
			c0.6-0.1,0.7,0.2,0.7,2.2C154.5,214.1,154.1,214.9,153.2,213.9z M180.9,213.3c-0.6-1.6-0.1-4.1,0.8-3.9c0.8,0.2,1.2,2.3,0.7,4
			C182.1,214.8,181.5,214.8,180.9,213.3z M181.7,211c-0.1-0.5-0.2-0.1-0.2,1c0,1.1,0.1,1.5,0.2,1C181.8,212.4,181.8,211.5,181.7,211
			z M209.9,213.5c-0.5-1.8-0.3-3.8,0.4-4c0.9-0.3,1.4,0.6,1.4,2.4C211.7,214.2,210.4,215.4,209.9,213.5z M210.8,210.8
			c-0.1-0.7-0.2-0.2-0.2,1c0,1.2,0.1,1.7,0.2,1.2C210.8,212.4,210.9,211.4,210.8,210.8L210.8,210.8z M237.9,214.2
			c-0.3-0.1-0.5-1.1-0.5-2.5c0-2,0.1-2.3,0.8-2.3c1,0,1.6,2.2,0.9,4c-0.2,0.6-0.5,1.2-0.6,1.1C238.5,214.4,238.2,214.3,237.9,214.2
			L237.9,214.2z M238.5,211c-0.1-0.5-0.2-0.2-0.2,0.7s0.1,1.4,0.2,1C238.6,212.3,238.6,211.5,238.5,211z M257.9,205.1v-10.7h-3.2
			h-3.2v10.7v10.7h3.2h3.2V205.1z M307.2,214.4c-0.6-3.8-1.1-9.5-1.5-17.8c-0.2-5-0.5-9.3-0.7-9.5c-0.1-0.2-0.2-1.5-0.2-2.9
			c0-2.7,0.7-4.4,2.8-6.4l1.1-1l-1.7-1.5c-1-0.9-2-2.4-2.5-3.7c-1.1-3-1.9-9-1.5-12.5c0.4-4.8-1.2-17.2-3.7-27.1
			c-2.3-9.3-6.5-20.4-10-26.7c-9.2-16.5-24.9-20.5-36.5-9.2c-4.9,4.7-6.7,9.7-6.3,16.9c0.4,6.3,2,8.9,6.4,10.1
			c4.7,1.3,8.8-2,8.8-7.1c0-2.4-0.5-3.6-2.4-5.7c-1.4-1.6-1.5-1.9-1.4-3.6c0.4-3.7,5.3-10.5,8-11.1c2.7-0.6,6.2,2.5,10.2,9.1
			c4.1,6.7,8.2,17.6,13.1,34.6c3.4,11.9,4.2,16,4.2,22.4c0,6.6-0.8,10.1-4.2,17.1c-1.3,2.7-2.3,5.2-2.3,5.6c0,0.4,0.7,1,1.5,1.5
			c2.7,1.4,3.7,4.4,6.6,19.2c1,4.9,1.8,9.4,1.9,9.9c0.2,0.9,0.4,1,5.4,1h5.1L307.2,214.4L307.2,214.4z M363.4,215.6
			c0-0.1-1.1-1-2.5-1.9c-5.4-3.7-13.3-12.7-17.8-20.3c-12.6-21.3-20.8-51.9-23.5-87.8c-0.9-11.1-0.6-33.1,0.4-42.5
			c2.2-19.7,6.4-33.5,13.3-44c2.3-3.5,6.4-8.1,9.4-10.4c1.3-1,1.5-1.3,0.9-1.4c-1.2,0-8.8,7.8-11.2,11.5
			c-6.1,9.5-10.8,23.7-12.8,39.4c-1.7,13.4-2,37.4-0.5,52.9c3.9,41.1,15.5,75.6,31.3,93.6C355.2,210.1,363.4,216.9,363.4,215.6z
			 M375.4,215.6c0-0.1-0.9-0.5-2-0.9c-3-1.1-8.5-4.5-11.9-7.5c-7.4-6.2-14.9-17-20-28.6c-8.7-19.8-14.4-45.4-16.7-74.6
			c-1.7-21.6,0.3-48.5,4.6-63.2c3.2-11,8.2-20,14.3-25.9c2.6-2.5,7.9-5.9,10.5-6.8c0.9-0.3,1.6-0.6,1.6-0.7c0-0.1-2.3-0.2-5-0.2
			l-5,0l-2.8,2.3c-7.8,6.2-13.8,16.2-17.7,29.6c-1.7,5.7-3.9,18.7-4.7,27.3c-0.9,10-0.9,29.5,0,40.8c2.1,26.6,7.2,49.6,15.1,69
			c4.2,10.3,7.6,16.6,12.8,23.7c3.1,4.1,10.2,11.3,13.8,13.8l2.8,2l5.2,0C373,215.8,375.4,215.7,375.4,215.6L375.4,215.6z
			 M21.9,212.3c1.3-0.7,2.3-1.4,2.3-1.5c0-0.2-2,0.8-4,2C18,214.2,19.4,213.7,21.9,212.3L21.9,212.3z M146.4,206.3
			c0-0.3,0.3-4.8,0.6-9.9c0.3-5.2,0.6-9.7,0.6-10.1c0-1.2-2.6-0.2-4.2,1.6c-2,2.2-2.2,3.7-2.2,11.8l0,7.2h2.6
			C145.6,206.8,146.4,206.6,146.4,206.3z M244.8,205.2c-0.1-0.9-0.4-4.8-0.7-8.7c-0.2-3.9-0.6-8-0.7-9.1l-0.2-2h-47.4
			c-26.1,0-47.4,0-47.4,0.1c-0.1,0.6-1.2,18.8-1.3,19.9l0,1.4h48.9h48.9L244.8,205.2L244.8,205.2z M250.6,199.4c0-6.9-0.1-7.5-1-9.5
			c-1-2.2-3.2-4-4.7-4c-0.7,0-0.7,0.3-0.5,2.7c0.1,1.5,0.5,6.2,0.8,10.5l0.5,7.8h2.5h2.5L250.6,199.4L250.6,199.4z M32.9,204.2
			c0.4-0.5,0.7-0.9,0.6-0.9c-0.1,0-0.6,0.4-1,0.9c-0.4,0.5-0.7,0.9-0.6,0.9C32.1,205.1,32.5,204.7,32.9,204.2z M140.6,192
			c0.6-3.3,3.1-6.3,5.6-6.8l1.4-0.3v-3.2c0-3.7-0.1-3.7-4.1-2.3c-4.5,1.7-8.2,6.4-9,11.8l-0.4,2.3h3.1h3.1L140.6,192L140.6,192z
			 M257.3,191.3c-0.4-3.8-2.8-7.8-6-10c-1.5-1.1-5.6-2.6-6.8-2.6c-0.2,0-0.4,1.4-0.4,3.2v3.2l1.5,0.3c2.4,0.4,4.8,3.5,5.6,7.2
			c0.3,1.1,0.3,1.2,3.3,1.2h3L257.3,191.3L257.3,191.3z M243.3,181.7v-2.9l-27.4-0.3c-15.1-0.2-36.4-0.2-47.4,0l-20.1,0.3v2.9v2.9
			h47.4h47.4L243.3,181.7L243.3,181.7z M39.8,9.8c-0.1-0.2-0.5-0.4-0.8-0.4c-0.3,0-0.3,0.2,0.1,0.4C39.9,10.4,40.1,10.4,39.8,9.8z
			 M34.7,7.9c-0.1-0.1-0.5-0.2-0.8,0c-0.3,0.1-0.2,0.2,0.3,0.3C34.6,8.1,34.9,8,34.7,7.9z M17,7.4c-0.5-0.1-1.4-0.1-1.9,0
			c-0.5,0.1-0.1,0.2,1,0.2C17.1,7.6,17.6,7.5,17,7.4z M33,7.5c-0.1-0.1-0.5-0.2-0.8,0c-0.3,0.1-0.2,0.2,0.3,0.3
			C32.9,7.7,33.2,7.6,33,7.5z M376.5,7.4c-0.4-0.1-1.2-0.1-1.7,0c-0.5,0.1-0.2,0.2,0.7,0.2C376.5,7.6,376.9,7.5,376.5,7.4z"/>
	</g>
</g>
</svg>
