<?xml version="1.0" encoding="utf-8"?>
<!-- Generator: Adobe Illustrator 16.0.0, SVG Export Plug-In . SVG Version: 6.00 Build 0)  -->
<!DOCTYPE svg PUBLIC "-//W3C//DTD SVG 1.1//EN" "http://www.w3.org/Graphics/SVG/1.1/DTD/svg11.dtd">
<svg version="1.1" id="Layer_1" xmlns="http://www.w3.org/2000/svg" xmlns:xlink="http://www.w3.org/1999/xlink" x="0px" y="0px"
	 width="1245px" height="810px" viewBox="0 0 1245 810" enable-background="new 0 0 1245 810" xml:space="preserve">
<path fill="#444545" stroke="#444545" stroke-width="2" stroke-miterlimit="10" d="M478.141,575.4l-430-154.17l-0.175-7.561
	l-0.175-7.559l122.353-112.113c67.294-61.662,132.258-121.185,144.364-132.275l22.008-20.164l32.062,11.502
	c17.635,6.327,32.18,11.393,32.323,11.258c1.263-1.19-10.62-14.293-14.96-16.494c-3.076-1.56-3.714-2.24-3.729-3.97
	c-0.012-1.398,6.03-6.97,7.558-6.97c1.38,0,53.772-47.88,53.422-48.82c-0.144-0.384,1.334-2.252,3.282-4.153l3.539-3.46l4.271,1.76
	c2.347,0.96,5.3,2.47,6.562,3.34c2.673,1.84,12.992,5.61,13.87,5.07c0.33-0.21,3.626,0.6,7.325,1.79
	c18.907,6.09,71.587,18.21,92.817,21.36c2.338,0.34,2.97,0.69,2.97,1.62c0,0.65,0.12,1.18,0.264,1.18
	c2.686,0,52.791,11.01,53.604,11.78c0.236,0.22-5.297,5.61-12.297,11.97c-14.471,13.14-13.761,12.22-9.851,12.78
	c16.144,2.31,53.825,12.63,67.249,18.42l3.029,1.3l9.984-9.23c5.492-5.07,10.4-9.51,10.906-9.85c1.48-1.01,14.852,6.17,59.611,32
	c15.58,9,35.049,18.5,50.309,24.55c2.74,1.09,5.131,2.19,5.311,2.45c0.82,1.24,22.859,9.15,27.189,9.75
	c10.951,1.54,14.182,3.89,11.801,8.6c-2.08,4.1-3.051,4.69-7.311,4.4l-3.869-0.27l-6.881,6.37c-5.91,5.47-7.199,7.03-9.199,11.12
	c-1.279,2.61-2.34,4.39-2.35,3.95s0.559-1.94,1.27-3.34c1.891-3.71,1.471-3.51-5.18,2.47c-8.57,7.7-11.881,18.96-13.609,46.28
	c-4.182,65.89,34.379,168.009,66.479,176.06c0.91,0.23,1.451,0.699,1.23,1.07c-0.23,0.359-0.119,0.469,0.23,0.26
	c0.35-0.221,0.82-1.32,1.049-2.439c0.221-1.121,1.25-3.09,2.281-4.371l1.869-2.34l-2.67-1.641c-5.709-3.52-7.799-5.109-12.27-9.33
	c-8.371-7.898-19.301-24.488-21.609-32.809c-0.24-0.861,0.988,1.359,2.729,4.92c5.98,12.24,11.871,20.709,19.191,27.58
	c7.6,7.129,8.449,7.539,14.119,6.82c43.461-5.461,13.52,53.039-41.449,80.988c-33.07,16.811-57.221,11.041-48.42-11.58
	c0.609-1.568-32.881-12.328-53.221-17.09l-6.381-1.488l-2.119,1.439c-11.67,7.93-37.59,2.67-39.789-8.08l-0.391-1.881l-24.65-4.49
	l-24.65-4.479l-13.689,12.568l-13.69,12.57l-8.2,0.381c-52.07,2.391-102.97-13.951-127.77-41.02c-3.45-3.771-3.87-4.5-3.87-6.84
	c0-1.83-0.38-2.971-1.25-3.762c-2.181-1.969-1.71-5.949,1.09-9.189c1.28-1.49,3.42-4.18,4.74-5.98c1.31-1.799,2.54-3.27,2.729-3.27
	c0.35,0,0.28,0.1-2.93,4.27c-2.01,2.611-2.03,2.701-0.63,2.5c8.739-1.27,34.01-64.37,30.77-76.83c-0.79-3.06-3.37,6.511-3.63,13.49
	c-0.1,2.75-0.48,5.7-0.85,6.56c-0.79,1.84-0.381-5.3,0.659-11.56c0.75-4.51,4.921-17.19,5.65-17.19c0.28,0,3.96,1.921,8.17,4.271
	c12.48,6.97,27.82,13.95,46.53,21.17c0.59,0.22,0.72-18.19,0.62-83.27l-0.13-83.56l-7.5-2.97c-22.471-8.9-40.021-18.69-72.75-40.63
	c-19.46-13.03-33.771-21.48-47.301-27.91c-11-5.23-25.449-11.03-25.05-10.06c0.17,0.41,1.48,3.55,2.92,6.97
	c33.061,78.75,26.08,155.16-19.54,213.89c-6.029,7.771-6.369,6.75,3.49,10.58c12.351,4.79,27.61,11.84,39.53,18.24l5.67,3.049
	l1.06-9.429c2.721-24.11,2.91-29.591,1.15-32.061c-1.55-2.17-1.8-3.93-0.56-3.93c2.21,0,2.84-1.561,3.54-8.75
	c4.22-43.16,18.529-74.13,33.029-71.5c17.221,3.13,37.7,43.34,26.55,52.11c-7.05,5.54-18.869-15.101-11.97-20.907
	c1.87-1.58,1.94-1.81,1.601-5.13c-1.551-14.96-12.841-21.18-18.75-10.327c-5.631,10.33-7.03,17.75-12.021,63.41l-2.17,19.865
	l1.25,2.45c1.69,3.3,1.59,4.25-0.44,4.49l-1.689,0.19l-1.65,11.569c-0.91,6.36-1.859,12.84-2.109,14.411l-0.46,2.85l15.31,9.18
	c16.46,9.863,16.38,9.83,16.99,7.883c0.229-0.721,0.54-1.17,0.71-1.008c0.32,0.312-5.24,11.67-5.71,11.67
	c-0.16,0-0.141-0.381,0.04-0.85c0.22-0.58-3.01-2.811-10.061-6.951l-10.39-6.1l-3.51,0.703c-16.98,3.41-35.141-7.209-29.851-17.449
	l0.95-1.84l-11.11-5.36c-31.77-15.33-40.529-18.002-48.779-14.91c-63.65,23.84-39.75-45.23,26.74-77.294
	c4.3-2.07,8.5-4.1,9.329-4.51c0.83-0.41,1.86-1.73,2.29-2.937c0.431-1.2,0.811-1.88,0.83-1.5c0.09,1.26-1.319,4.63-1.93,4.63
	c-0.33,0-0.438,0.26-0.237,0.59c0.2,0.32-0.06,1.52-0.58,2.65c-0.869,1.904-0.76,0.522,0.16-1.91
	c0.761-2.01-14.279,5.19-24.263,11.614c-58.58,37.708-67.5,88.471-11.763,66.98l5.14-1.979l-3.09-1.215
	c-1.69-0.671-5.33-1.771-8.08-2.44s-7.18-1.938-9.84-2.81l-4.84-1.58l0.01-2.913c0.006-1.601,0.27-3.33,0.59-3.84
	c0.36-0.561,0.36-1.061,0.01-1.271c-2.016-1.25,3.37-9.59,5.86-9.08c0.74,0.15,2.905,0.44,4.814,0.65l3.473,0.37l16.22-14.811
	l16.22-14.81l2.92-6c1.61-3.3,2.94-5.8,2.971-5.56c0.109,0.97-6.17,13.629-6.681,13.48c-0.3-0.101-6.97,5.74-14.83,12.95
	c-7.85,7.22-14.72,13.479-15.26,13.91c-0.85,0.68-0.77,0.75,0.58,0.5c4.04-0.74,6.51-0.94,5.311-0.437
	c-2.271,0.96-8.059,1.34-12.66,0.82c-5.2-0.58-6.391,0.118-7.971,4.667c-1.029,2.95-1.09,2.89,4.87,4.886
	c19.86,6.64,32.811-2.21,48.37-33.06c23.48-46.561,25.91-108.93,6.24-159.84c-6.21-16.076-17.008-32.41-21.418-32.41
	c-0.8,0-3.588-0.68-6.2-1.51c-5.47-1.73-6.5-0.66-1.86,1.94c5.851,3.28,11.79,9.826,16.58,18.28c2.69,4.75,3.431,6.96,0.931,2.8
	l-1.534-2.56l-32.55-11.67l-32.55-11.66l-22.351,20.48c-198.98,182.29-265,243-264.61,243.37c0.26,0.246,193.65,69.67,429.75,154.27
	l429.289,153.85l2.111-1.73c8.75-7.193,285.639-261.814,285.07-262.135c-0.98-0.551-377.74-135.541-378.281-135.541
	c-0.24,0-0.279,2.46-0.09,5.47c0.24,3.73,0.18,4.669-0.18,2.959c-1.939-9.22,1.74-52.24,4.721-55.209
	c0.469-0.47,0.43-0.23-1.291,8.09c-1.801,8.71-3.379,23.65-3.391,32.15l-0.01,5.66l190.021,68.09l190.02,68.09l-0.17,7.85
	l-0.178,7.85l-144.051,132c-79.23,72.59-144.199,131.961-144.375,131.93c-0.17-0.039-193.811-69.439-430.311-154.238L478.141,575.4z
	 M908.006,714.697c-0.27-0.23-193.395-69.537-429.167-154.01c-235.77-84.477-429.06-153.738-429.53-153.92
	c-0.69-0.266-0.85,1.029-0.85,6.809v7.141l429.84,154.043l429.84,154.047l0.182-6.846c0.1-3.764-0.041-7.033-0.311-7.264H908.006z
	 M1054.078,595.938c78.203-71.607,142.268-130.25,142.365-130.32s0.098-3.293,0-7.16l-0.178-7.033l-143.438,131.43L909.391,714.281
	l-0.178,7.211l-0.176,7.211l1.426-1.291c0.785-0.709,65.412-59.879,143.615-131.479V595.938z M807.369,556.133
	c-0.771-0.146-2.176-0.15-3.125-0.01c-0.951,0.146-0.32,0.268,1.396,0.271C807.359,556.4,808.137,556.281,807.369,556.133z
	 M812.615,555.115c-0.406-0.289,0.377-0.367,1.775-0.174c1.859,0.258,2.262,0.178,1.562-0.312c-0.701-0.496-0.387-0.57,1.25-0.297
	c1.66,0.271,1.963,0.201,1.25-0.309c-0.74-0.531-0.578-0.621,0.762-0.41c1.047,0.16,1.551,0.029,1.311-0.361
	c-0.24-0.389,0.131-0.5,0.957-0.279c0.863,0.221,1.199,0.109,0.938-0.32c-0.26-0.43,0.08-0.539,0.939-0.311
	c0.871,0.221,1.199,0.111,0.939-0.318c-0.26-0.432,0.08-0.541,0.941-0.311c0.869,0.221,1.199,0.109,0.939-0.32
	s0.08-0.539,0.939-0.311c0.881,0.23,1.211,0.111,0.939-0.318c-0.26-0.432-0.02-0.531,0.66-0.262c0.721,0.271,0.932,0.17,0.631-0.309
	c-0.301-0.49-0.01-0.611,0.91-0.371c0.879,0.23,1.209,0.111,0.939-0.32c-0.26-0.43-0.029-0.529,0.66-0.26
	c0.721,0.271,0.93,0.17,0.631-0.32c-0.301-0.488-0.09-0.59,0.629-0.318c0.641,0.238,0.92,0.158,0.689-0.211
	c-0.34-0.551,0.98-0.93,2.4-0.68c0.291,0.049,0.311-0.25,0.061-0.66c-0.311-0.52-0.119-0.619,0.609-0.34
	c0.73,0.27,0.93,0.17,0.631-0.311c-0.301-0.49-0.09-0.59,0.629-0.32c0.73,0.271,0.932,0.17,0.631-0.309
	c-0.301-0.49-0.09-0.59,0.631-0.311c0.719,0.27,0.93,0.17,0.619-0.32c-0.301-0.49-0.09-0.59,0.631-0.32
	c0.719,0.27,0.93,0.17,0.629-0.32c-0.299-0.49-0.1-0.59,0.621-0.309c0.729,0.27,0.93,0.17,0.629-0.32
	c-0.299-0.49-0.1-0.59,0.631-0.311c0.729,0.279,0.93,0.17,0.629-0.311c-0.289-0.479-0.1-0.59,0.58-0.33
	c0.561,0.211,1.221,0.07,1.451-0.309c0.279-0.451,0.119-0.531-0.451-0.24c-0.48,0.25-0.32,0,0.361-0.541
	c0.68-0.549,1.658-0.84,2.17-0.639c0.52,0.199,0.738,0.16,0.488-0.09c-0.58-0.592,1.881-2.301,2.631-1.842
	c0.32,0.201,0.789,0.031,1.039-0.369c0.301-0.49,0.182-0.561-0.369-0.23c-0.561,0.34-0.67,0.26-0.34-0.26
	c0.26-0.42,0.85-0.619,1.32-0.439c0.469,0.18,1.049,0.02,1.289-0.359c0.27-0.451,0.111-0.531-0.449-0.23
	c-0.48,0.25-0.18-0.121,0.68-0.83c1.51-1.26,2.26-1.561,3.32-1.381c0.279,0.051,0.34-0.199,0.119-0.549
	c-0.359-0.59,0.48-0.92,1.76-0.701c0.291,0.051,0.361-0.17,0.16-0.49c-0.309-0.5,1-1.43,2.24-1.59
	c0.23-0.029,0.65-0.309,0.939-0.619c0.311-0.33,0.141-0.381-0.42-0.109c-0.51,0.25-0.398,0.029,0.25-0.5
	c0.66-0.531,1.41-0.83,1.682-0.67c0.27,0.158,0.689-0.031,0.939-0.432c0.299-0.49,0.16-0.58-0.42-0.279
	c-0.48,0.25-0.34,0.02,0.311-0.51c0.648-0.531,1.389-0.84,1.639-0.689c0.25,0.148,0.98-0.352,1.631-1.111
	c1.17-1.379,1.166-1.389-0.111-0.459c-0.699,0.52-0.289,0.049,0.922-1.051c1.209-1.09,2.389-1.859,2.619-1.719
	c0.23,0.139,0.809-0.23,1.27-0.83c0.791-1,0.758-1.021-0.393-0.201c-0.684,0.49,0.217-0.439,2-2.061
	c1.791-1.619,4.729-4.549,6.531-6.52c1.799-1.959,2.879-3.01,2.4-2.32c-0.76,1.09-0.756,1.141,0.035,0.441
	c0.5-0.451,0.908-1.012,0.92-1.25c0.01-0.24,1.41-2.211,3.123-4.371c19.219-24.289,16.469-42.439-6.092-40.34
	c-5.049,0.471-5.119,0.65-1.189,2.859l3.041,1.701l0.01,5.48l0.01,5.479l-3.27,2.98c-3.25,2.949-3.283,2.971-5.395,2.1l-2.125-0.879
	l-24.84,22.799l-24.859,22.801v2.619c0,2.35-0.359,2.971-3.449,6.031l-3.451,3.398l-4.209-1.469
	c-2.311-0.811-5.891-2.371-7.951-3.461c-3.26-1.729-10.699-4.74-11.729-4.74c-2.23,0-2.561,11.904-0.432,15.342
	c0.846,1.359,1.541,2.75,1.551,3.1s0.48,0.549,1.051,0.449c0.568-0.09,1.238,0.16,1.488,0.57c0.307,0.5,0.188,0.57-0.359,0.23
	c-0.52-0.32-0.67-0.26-0.41,0.16c0.225,0.369,1.014,0.51,1.756,0.309c0.859-0.219,1.199-0.109,0.939,0.32
	c-0.26,0.424,0.08,0.541,0.939,0.311c0.75-0.197,1.191-0.1,1,0.209c-0.199,0.33,2.65,0.57,6.721,0.57c3.93,0,6.75-0.229,6.35-0.52
	L812.615,555.115z M815.328,540.408c0-2.396-0.031-2.428-3.906-3.83c-2.148-0.779-5.242-2.086-6.875-2.908l-2.969-1.492v2.494
	c0,2.826,0.5,3.209,8.43,6.348c5.561,2.199,5.311,2.229,5.311-0.611H815.328z M822.203,533.979c0-1.625-0.287-3.133-0.639-3.352
	c-0.354-0.219-0.564-0.094-0.471,0.273c0.096,0.371-0.926,1.604-2.268,2.746c-2.23,1.895-2.463,2.393-2.725,5.781l-0.285,3.711
	l3.193-3.104c2.953-2.861,3.193-3.32,3.193-6.051V533.979z M815.953,536.561c0-0.352-0.633-0.895-1.406-1.209
	c-0.779-0.314-3.789-1.568-6.699-2.789c-5.66-2.379-8.51-2.16-3.73,0.279c6.18,3.15,11.83,4.932,11.83,3.711L815.953,536.561z
	 M800.84,532.746c-0.164-1.09-1.674-1.855-8.479-4.291l-8.283-2.963v5.965l2.924,0.996c1.609,0.539,3.506,1,4.221,1
	c0.709,0,3.121,0.68,5.355,1.5c4.428,1.619,4.811,1.42,4.262-2.221V532.746z M815.9,532.414c0.348-1.258,1.416-3.104,2.373-4.105
	c1.455-1.52,1.588-1.91,0.805-2.359c-0.516-0.297-1.5-1.01-2.188-1.586c-1.178-0.99-1.15-0.99,0.447-0.051c0.93,0.551,2,1,2.369,1
	c0.561,0,39.33-35.119,48.861-44.25c1.609-1.549,2.859-2.379,2.779-1.85s-11.439,11.311-25.25,23.961
	c-17.32,15.859-24.92,23.219-24.52,23.699c0.32,0.391,0.67,1.24,0.77,1.9c0.34,2.25,1.189,1.559,25.529-20.74l24.361-22.33
	l-0.131-3.621c-0.16-4.408,0.041-4.1-4.93-7.449c-9.59-6.459-20.1-18.619-26.051-30.131c-1.559-3.02-3.049-5.479-3.309-5.479
	c-0.941,0-51.9,47.07-51.9,47.93c0,0.48,0.449,1.779,1.01,2.879c0.551,1.102,0.709,1.721,0.35,1.371
	c-2.029-1.93-13.83-32.131-18.82-48.121c-4.699-15.09-10.799-42.259-10.619-47.279c0.029-0.811,0.74,2.47,1.59,7.279
	c3.359,19.16,9.02,39.931,15.93,58.441c3.859,10.34,8.609,22.029,9.189,22.629c0.311,0.32,44.381-39.309,51.82-46.59
	c0.611-0.609-0.32-3.389-4.52-13.49c-24.82-59.639-31.99-123.359-18.061-160.37c0.43-1.14-3.959,2.64-15.27,13.16
	c-3.949,3.67-4.08,3.89-4.131,6.93c-0.068,4.85-2.529,7.75-6.488,7.64c-1.611-0.05-2.301-0.21-1.531-0.36
	c2.531-0.49,1.701-2.41-1.561-3.61c-1.629-0.61-4.158-1.75-5.619-2.54c-8.34-4.53-20.74,8.47-27.76,29.09
	c-15.35,45.09-8.01,107.45,20.369,173.101c2.58,5.969,4.43,10.6,4.121,10.279c-2.811-2.811-16.68-39.52-22.17-58.699
	c-19.391-67.63-11.281-139.73,17.32-154.05c1.988-0.99,3.359-1.96,3.039-2.15c-0.881-0.55-11.16-4.12-11.85-4.12
	c-1.49,0-10.68,17.83-14.33,27.81c-19.43,53.17-9.551,123.379,28.24,200.62l7.639,15.621l7.111,2.5c3.91,1.369,7.4,2.609,7.77,2.76
	c0.359,0.139,0.25-0.281-0.26-0.941c-0.5-0.658-0.08-0.459,0.939,0.451c2.121,1.879,5.73,3.789,11.189,5.891
	c4.842,1.859,4.561,1.898,5.291-0.771L815.9,532.414z M794.355,523.293c-4.641-4.963-6.195-7.049-2.447-3.281
	c2.053,2.062,4.119,4.242,4.59,4.844c1.57,2.01,0.373,1.129-2.143-1.561V523.293z M810.248,519.854
	c-0.777-0.99-0.754-1.012,0.236-0.234c0.602,0.471,1.094,0.963,1.094,1.094C811.578,521.223,811.066,520.893,810.248,519.854
	L810.248,519.854z M807.156,517.354l-1.516-1.717l1.721,1.516c0.943,0.832,1.717,1.605,1.717,1.717c0,0.49-0.506,0.092-1.922-1.514
	V517.354z M786.789,514.543c-1.6-1.793-4.129-5.469-3.76-5.469c0.16,0,1.451,1.547,2.881,3.438c2.68,3.547,3.1,4.498,0.889,2.029
	L786.789,514.543z M801.25,511.418l-3.1-3.281l3.279,3.102c1.811,1.705,3.279,3.182,3.279,3.279
	C804.709,514.986,804.129,514.469,801.25,511.418L801.25,511.418z M780.15,504.855c-2.67-4.461-3.682-6.4-3.33-6.4
	c0.148,0,1.189,1.619,2.299,3.6c1.121,1.98,2.439,4.23,2.951,5c0.51,0.779,0.77,1.41,0.58,1.41c-0.182,0-1.311-1.609-2.49-3.59
	L780.15,504.855z M797.139,506.734c-0.77-0.99-0.75-1.01,0.24-0.23c0.611,0.48,1.102,0.971,1.102,1.102
	c0,0.52-0.512,0.189-1.33-0.861L797.139,506.734z M795.27,504.234c-0.77-0.99-0.75-1.01,0.24-0.23c0.6,0.48,1.1,0.971,1.1,1.102
	c0,0.52-0.51,0.189-1.33-0.861L795.27,504.234z M757.4,391.265c0.01-1.721,0.129-2.351,0.27-1.4c0.15,0.95,0.141,2.36-0.01,3.13
	c-0.15,0.771-0.26-0.01-0.26-1.72V391.265z M756.779,385.015c0.01-1.721,0.131-2.351,0.27-1.4c0.15,0.95,0.141,2.36-0.01,3.13
	c-0.15,0.771-0.26-0.01-0.26-1.72V385.015z M756.209,374.705c0-3.95,0.111-5.569,0.23-3.59c0.131,1.98,0.131,5.21,0,7.19
	c-0.119,1.979-0.221,0.359-0.221-3.591L756.209,374.705z M756.16,354.395c0.01-1.72,0.129-2.34,0.27-1.391
	c0.15,0.95,0.141,2.36-0.01,3.131c-0.141,0.77-0.26-0.011-0.26-1.721V354.395z M756.789,346.895c0.01-1.72,0.131-2.34,0.271-1.391
	c0.148,0.95,0.139,2.36-0.012,3.131c-0.148,0.77-0.26-0.011-0.26-1.721V346.895z M757.299,341.584
	c-0.08-3.399,4.611-24.29,5.291-23.6c0.141,0.13-0.301,2.19-0.971,4.58c-0.67,2.39-1.9,8-2.74,12.47s-1.539,7.42-1.559,6.561
	L757.299,341.584z M763.85,314.085c0.23-0.86,0.68-1.98,1-2.5c0.41-0.65,0.461-0.46,0.17,0.63c-0.23,0.86-0.68,1.99-0.99,2.5
	c-0.4,0.66-0.449,0.46-0.16-0.62L763.85,314.085z M766.629,307.665c-0.02-0.86,2.941-6.35,4.141-7.67
	c0.641-0.7,0.93-0.92,0.641-0.49c-0.281,0.43-1.471,2.56-2.641,4.72c-1.16,2.17-2.119,3.72-2.131,3.45L766.629,307.665z
	 M775.58,294.565c1.74-1.63,3.449-2.95,3.82-2.93c0.369,0.02-0.031,0.51-0.891,1.09c-0.859,0.58-2.57,1.91-3.811,2.94
	c-1.24,1.03-0.84,0.54,0.9-1.09L775.58,294.565z M780.84,291.185c0.43-0.17,1.141-0.17,1.561,0c0.43,0.18,0.08,0.32-0.781,0.32
	c-0.859,0-1.209-0.14-0.779-0.31V291.185z M819.119,532.504c0,0.281,0.42,0.15,0.93-0.27c0.521-0.42,0.791-1,0.621-1.279
	c-0.17-0.281-0.031-0.68,0.32-0.9c0.959-0.59,0.77-2.82-0.24-2.82c-1.051,0-4.121,3.49-4.121,4.689c0,0.461-0.18,1.361-0.41,1.99
	c-0.33,0.92-0.09,0.852,1.25-0.369c0.92-0.84,1.66-1.291,1.66-1.02L819.119,532.504z M783.379,528.064l-0.189-2.91l-4.369-1.49
	c-13.381-4.568-36.59-10.979-52.381-14.459l-5.5-1.211l0.189,2.561l0.191,2.561l4.93,1.07c2.709,0.59,5.1,1.318,5.311,1.619
	c0.209,0.301,4.738,1.619,10.068,2.92c10.4,2.561,34.531,9.68,38.131,11.26c3.51,1.541,3.84,1.371,3.629-1.9L783.379,528.064z
	 M801.189,529.664c-1.18-1.18-16.07-6.17-16.65-5.59c-0.709,0.711,0.021,1.051,9.281,4.34c6.318,2.24,8.77,2.66,7.369,1.26V529.664z
	 M606.409,524.105h5.22v-5.932H594.6c-44.91-0.02-81.141-10.629-109.11-31.959c-6.04-4.609-12.061-10.211-11.66-10.85
	c0.15-0.23-0.64-1.24-1.74-2.24l-2.01-1.811l1.54,1.74c1.15,1.301,1.49,2.33,1.37,4.07c-0.41,5.77,16.88,20.061,35.1,29
	c24.19,11.869,61.351,19.52,88.5,18.221c2.55-0.121,6.98-0.221,9.851-0.221L606.409,524.105z M784.09,523.266
	c-0.15-0.131-4.631-1.66-9.961-3.4c-23.199-7.58-51.299-14.701-52.67-13.33c-0.82,0.82-0.939,0.779,8.611,2.92
	c15.449,3.469,37.309,9.6,49.689,13.939c2.82,0.99,5.51,0.92,4.34-0.109L784.09,523.266z M628.66,508.564l10.469-9.6v-7.43
	l-12.039,10.99c-14.181,12.969-14.841,13.77-14.841,18v3.119l2.97-2.74C616.85,519.404,622.899,513.846,628.66,508.564
	L628.66,508.564z M775.439,506.545c-43.82-89.74-49.66-168.161-16.689-223.93l2.799-4.73l-8.869-2.86
	c-21.5-6.92-44.539-11.79-84.18-17.76c-50.781-7.65-69.791-11.51-93.961-19.1c-11.14-3.49-10.41-12.44-9.93,122.21l0.149,41.58
	l9.851,3.24c18.38,6.049,37.779,11.19,59.221,15.68l8.119,1.699l-0.17,5.93c-0.09,3.262-0.59,18.271-1.1,33.371
	c-0.51,15.09-0.779,27.58-0.609,27.75c0.309,0.32,56.82,10.709,58.359,10.73c0.67,0.01,0.76-0.871,0.43-4.201
	c-0.23-2.32-0.641-9.25-0.91-15.4l-0.5-11.18l-2.43-2.119c-2.27-1.98-2.35-2.17-1.26-2.881c3.83-2.49,3.6-0.99,2.91-19.199
	c-2.23-58.8-8.23-81.09-24-89.17c-11.18-5.72-22.471,3.78-14.561,12.25c10.24,10.95-5.83,21.99-17.32,11.9
	c-14.469-12.7,0.23-33.381,23.641-33.261c14.66,0.08,27.17,8.24,36.34,23.69c9.871,16.65,19.641,56.42,19.641,80
	c0,4.99,0.99,7.82,3.129,8.969c1.771,0.951,1.541,2.311-0.549,3.4c-2.711,1.4-3.43,13.16-2.17,35.1l0.4,6.941l4.129,0.799
	c11.76,2.281,37.939,9.48,51.939,14.281c2.92,1,5.391,1.76,5.48,1.689c0.09-0.08-3.189-7-7.279-15.391L775.439,506.545z
	 M647.52,290.324c0.209-0.344,0.51-0.625,0.658-0.625c0.15,0,0.281,0.28,0.281,0.625c0,0.344-0.301,0.625-0.66,0.625
	s-0.48-0.28-0.27-0.625H647.52z M826.578,520.637c0.807-0.859,1.328-1.562,1.156-1.562c-0.17,0-0.975,0.703-1.781,1.562
	s-1.326,1.562-1.154,1.562C824.969,522.199,825.771,521.496,826.578,520.637L826.578,520.637z M714.869,521.133
	c-0.771-0.146-2.176-0.15-3.125-0.008c-0.951,0.145-0.32,0.266,1.396,0.271c1.719,0.004,2.496-0.113,1.729-0.26V521.133z
	 M720.486,520.076c-0.189-0.307,0.393-0.418,1.293-0.246c1.02,0.193,1.49,0.07,1.25-0.318c-0.24-0.391,0.131-0.498,0.961-0.281
	c0.869,0.225,1.199,0.111,0.939-0.314s0.08-0.537,0.939-0.311c0.75,0.199,1.221,0.139,1.061-0.121
	c-0.34-0.539,2.789-2.199,3.73-1.969c0.42,0.1,0.42-0.031,0-0.41c-0.34-0.311-2.311-0.91-4.371-1.34
	c-6.029-1.23-5.93-1.182-5.93-3.49c0-2.461,0.43-2.281-9.57-4.111l-7.379-1.35l-1.82,1.75c-1.811,1.74-1.859,1.75-5.811,1.02
	c-6.641-1.219-7.65-0.389-4.619,3.861c0.779,1.09,1.41,2.26,1.41,2.6c0,0.35,0.42,0.641,0.939,0.66c1.52,0.061,3.15,0.99,2.779,1.59
	c-0.18,0.311,0.15,0.369,0.74,0.141c0.721-0.271,0.93-0.17,0.631,0.318c-0.301,0.49-0.1,0.592,0.629,0.311
	c0.66-0.25,0.92-0.16,0.68,0.23c-0.25,0.4,0.24,0.539,1.301,0.369c1.359-0.209,1.51-0.129,0.76,0.42
	c-0.73,0.541-0.529,0.602,0.881,0.271c1.109-0.26,1.67-0.191,1.439,0.18c-0.221,0.35,0.461,0.52,1.631,0.4
	c1.299-0.131,1.619-0.041,0.92,0.27c-0.592,0.26,2.549,0.469,6.969,0.469c4.57,0,7.9-0.238,7.701-0.559L720.486,520.076z
	 M612.224,516.539c0.71-1.146,0.157-1.643-0.779-0.705c-0.423,0.422-2.233,0.695-4.21,0.635c-2.704-0.082-2.95-0.16-1.112-0.35
	c5.424-0.568,0.979-1.42-7.394-1.42c-11.77,0-13.689,1.693-2.3,2.033c5.4,0.16,4.761,0.221-3.279,0.32
	c-5.5,0.061-9.66-0.09-9.25-0.359c1.909-1.221-0.57-2.031-7.971-2.631c-4.27-0.35-9.04-0.789-10.59-1
	c-3.43-0.449-13.42-2.049-15.78-2.52c-1.34-0.27-1.72-0.109-1.72,0.721c0,0.889-0.42,1.01-2.649,0.699
	c-2.131-0.301-2.36-0.25-1.141,0.25c0.84,0.34,2.811,0.48,4.38,0.301c1.87-0.211,2.32-0.15,1.3,0.17
	c-2.439,0.76,13.98,3.34,30,4.719c7.42,0.641,31.99-0.039,32.521-0.9L612.224,516.539z M575.797,516.121
	c1.11-0.139,2.94-0.139,4.061,0c1.109,0.141,0.199,0.252-2.03,0.252C575.597,516.373,574.677,516.262,575.797,516.121
	L575.797,516.121z M569.857,515.518c0.6-0.156,1.58-0.156,2.189,0c0.601,0.156,0.101,0.287-1.1,0.287s-1.7-0.131-1.101-0.287
	H569.857z M564.857,514.893c0.6-0.16,1.58-0.16,2.189,0c0.601,0.15,0.101,0.279-1.1,0.279s-1.7-0.129-1.101-0.289L564.857,514.893z
	 M559.857,514.264c0.6-0.16,1.58-0.16,2.189,0c0.601,0.148,0.101,0.279-1.1,0.279s-1.7-0.131-1.101-0.291L559.857,514.264z
	 M555.167,513.652c0.43-0.18,1.13-0.18,1.56,0c0.431,0.17,0.08,0.311-0.779,0.311c-0.86,0-1.21-0.141-0.78-0.32V513.652z
	 M552.037,513.023c0.43-0.182,1.13-0.182,1.56,0c0.431,0.17,0.08,0.309-0.779,0.309c-0.86,0-1.21-0.139-0.78-0.318V513.023z
	 M589.067,513.803c0-4.801-2.38-6.779-3.771-3.141c-1.45,3.791-0.74,5.891,1.99,5.891c1.67,0,1.77-0.15,1.77-2.76L589.067,513.803z
	 M613.577,513.453c1.55-1.371,2.939-2.35,3.1-2.189c0.16,0.158,0.97-0.49,1.8-1.432l1.511-1.719l-1.591,1.25
	c-0.88,0.68-0.029-0.201,1.87-1.971c1.9-1.77,3.63-3.119,3.841-2.99c0.211,0.131,1.051-0.539,1.869-1.469l1.5-1.701l-1.59,1.25
	c-0.869,0.691-0.029-0.199,1.881-1.969c1.9-1.771,3.629-3.121,3.84-2.99c0.211,0.119,1.051-0.541,1.869-1.471l1.49-1.699l-1.59,1.25
	c-0.869,0.689-0.029-0.201,1.871-1.971c1.898-1.77,3.709-3.07,4.029-2.879c0.311,0.189,0.369,0.039,0.141-0.342
	c-0.24-0.379-0.01-12.59,0.5-27.148c0.51-14.551,0.789-27.012,0.609-27.691c-0.17-0.68-0.08-3.799,0.199-6.939l0.512-5.709
	l-8.461-1.73c-19.23-3.93-42.631-10.17-59.681-15.911c-4.109-1.39-7.7-2.52-7.97-2.52s-0.5,2.109-0.5,4.69
	c0,26.199-16.42,67.689-33.92,85.73l-3.14,3.229l5.239,1.57c21.021,6.301,45.471,9.23,65.931,7.9c5.12-0.33,9.93-0.609,10.67-0.619
	c6.37-0.061,26.171-43.301,29.62-64.65c0.42-2.631,0.9-4.641,1.051-4.49c0.529,0.529-1.23,9.35-3.34,16.75
	c-5.182,18.16-12.641,34.189-22.331,47.971c-8.011,11.379-8.58,19.289-0.9,12.539L613.577,513.453z M834.057,513.742
	c0.801-0.859,1.32-1.57,1.15-1.57s-0.98,0.701-1.779,1.561c-0.801,0.859-1.301,1.59-1.131,1.59s0.971-0.709,1.781-1.57
	L834.057,513.742z M607.828,513.504c0-0.311-2.32-0.471-5.156-0.35l-5.156,0.217l4.875-0.52c2.681-0.287,4.966-0.621,5.075-0.748
	c1.38-1.58,2.67-6.166,1.733-6.154c-0.58,0.008-5.25,0.285-10.37,0.617c-19.74,1.279-44.93-1.65-64.71-7.527
	c-7.521-2.232-6.68-2.232-7.83-0.01c-1.44,2.795-1.21,4.338,0.77,5.1c1.98,0.766,15.37,4.342,15.471,4.131
	c0.04-0.072,0.399-0.92,0.81-1.871c1.47-3.404,4.51-2.658,4.51,1.107v2.029l8.601,1.338c6.52,1.014,21.58,2.438,27.12,2.566
	c0.22,0.004,0.6-0.764,0.83-1.707c1.149-4.58,5.33-4.27,5.33,0.391c0,1.119,0.479,1.289,4.22,1.479
	c9.14,0.471,13.91,0.441,13.91-0.1L607.828,513.504z M542.688,510.279c0.143-0.746-1.773-1.508-8.431-3.35
	c-4.739-1.314-11.883-3.621-15.874-5.123c-8.025-3.025-8.556-3.154-7.43-1.799c0.427,0.516,1.18,0.938,1.675,0.938
	c0.5,0,0.73,0.279,0.521,0.619c-0.221,0.367,0.06,0.449,0.689,0.205c0.79-0.301,0.94-0.189,0.561,0.416
	c-0.341,0.559-0.271,0.68,0.229,0.379c0.91-0.561,5.22,0.791,4.78,1.5c-0.17,0.291,0.24,0.371,0.93,0.189
	c0.8-0.199,1.391,0.051,1.641,0.711c0.27,0.699,0.8,0.9,1.649,0.631c0.8-0.25,1.11-0.16,0.851,0.26
	c-0.54,0.879,9.39,4.01,11.04,3.49c0.76-0.24,1.1-0.15,0.869,0.219c-0.51,0.83,1.811,1.391,4.23,1.031
	c1.62-0.24,1.74-0.191,0.689,0.34c-1.239,0.629-1.239,0.629-0.01,0.469c0.69-0.08,1.33-0.59,1.431-1.119L542.688,510.279z
	 M547.203,508.426c0-3.543-1.378-4.859-2.903-2.775c-1.062,1.451-1.106,5.08-0.065,5.5c2.42,0.973,2.97,0.471,2.97-2.73
	L547.203,508.426z M699.078,506.016c0-2.318-0.107-2.449-2.344-2.846c-1.289-0.23-2.836-0.561-3.438-0.738
	c-0.92-0.27-1.1,0.094-1.1,2.211c0,2.25,0.189,2.568,1.721,2.908c0.939,0.209,2,0.473,2.34,0.588
	c2.199,0.732,2.811,0.273,2.811-2.123H699.078z M703.453,502.078c0-5.344-3.168-2.633-3.617,3.096l-0.281,3.584l1.949-1.836
	c1.658-1.559,1.951-2.279,1.951-4.84L703.453,502.078z M720.443,507.352c0.143-0.6,0.061-3.764-0.18-7.029
	c-0.244-3.266-0.471-12.455-0.5-20.42l-0.061-14.484l1.621-1.926c0.889-1.049,1.879-1.76,2.201-1.559
	c1.051,0.648,0.27-1.271-0.857-2.111c-2.174-1.629-2.787-4.1-3.203-12.93c-0.227-4.811-0.619-9.641-0.869-10.721l-0.455-1.969
	l-7.336,6.66l-7.338,6.66l-0.01,4.779c-0.01,4.68-0.049,4.811-2.219,6.711c-1.221,1.059-1.971,1.939-1.68,1.939
	c0.289,0,1.379,0.83,2.42,1.85l1.898,1.859l0.541,11.73c0.65,14.01,0.641,18.4-0.031,24.33l-0.51,4.471l3.361,0.66
	c1.85,0.359,5.33,1.059,7.74,1.559c2.398,0.49,4.549,0.93,4.77,0.961c0.219,0.039,0.51-0.43,0.66-1.031L720.443,507.352z
	 M841.578,506.885c0.807-0.859,1.328-1.561,1.156-1.561c-0.17,0-0.975,0.711-1.781,1.57s-1.326,1.57-1.154,1.57
	c0.17,0,0.973-0.699,1.779-1.561V506.885z M690.359,507.025c1.061,0.279,1.219-0.01,1.219-2.211v-2.529l-3.279-0.65
	c-1.807-0.359-12.801-2.35-24.432-4.42c-11.633-2.07-21.844-3.939-22.695-4.15c-1.5-0.369-1.537-0.299-1.35,2.65l0.193,3.039
	l24.375,4.432c13.406,2.439,24.459,4.229,24.561,3.979c0.104-0.24,0.736-0.299,1.408-0.129V507.025z M526.158,498.215
	c0.96-1.471,0.935-1.539-0.7-1.939c-12.136-3-34.74-16.021-45.673-26.311c-5.574-5.24-5.366-5.15-7.542-3.24l-1.603,1.41
	l1.516-1.721c1.228-1.389,1.32-1.719,0.49-1.719c-3.348,0-2.471,4.99,1.614,9.199l3.16,3.26l1.502-1.619
	c2.105-2.27,3.833-0.811,2.742,2.32c-0.99,2.84,5.446,8.119,18.154,14.889c7.06,3.762,6.53,3.631,7,1.73
	c0.88-3.51,4.319-2.6,4.03,1.07l-0.2,2.529l3.75,1.541c2.06,0.84,5.159,2.039,6.88,2.66l3.13,1.119l0.39-1.811
	c0.221-1,0.84-2.5,1.38-3.33L526.158,498.215z M699.551,502.045c-0.363-1.1-58.746-11.75-59.357-10.83
	c-0.674,1.01,0.316,1.23,26.697,5.949c15.934,2.852,24.455,4.121,24.607,3.691c0.15-0.451,0.389-0.42,0.699,0.08
	c0.891,1.449,7.811,2.49,7.35,1.1L699.551,502.045z M849.078,500.004c0.807-0.859,1.328-1.559,1.156-1.559
	c-0.17,0-0.975,0.699-1.781,1.559c-0.807,0.861-1.326,1.561-1.154,1.561C847.469,501.564,848.271,500.865,849.078,500.004z
	 M704.107,482.744c-0.398-7.01-0.781-13.479-0.846-14.389l-0.119-1.65l-2.516,2.279l-2.516,2.281l0.432,10.279
	c0.238,5.65,0.629,12.23,0.867,14.609l0.436,4.33l2.492-2.49l2.494-2.488l-0.725-12.74V482.744z M509.776,493.266
	c-0.526-0.521-0.931-0.471-1.573,0.209c-1.685,1.781-1.776,3.58-0.256,5.1l1.43,1.43l0.55-3.01c0.381-2.08,0.33-3.229-0.159-3.709
	L509.776,493.266z M506.216,497.115c-0.195-0.311-2.308-1.561-4.694-2.76c-5.204-2.621-11.936-6.68-14.943-9.021
	c-2.986-2.318-5.625-3.979-5.625-3.549c0,0.65,9.596,7.5,14.204,10.15c2.479,1.43,4.31,2.789,4.06,3.039s-0.17,0.381,0.17,0.279
	c1.061-0.299,3.471,0.762,3.101,1.361c-0.2,0.32,0.12,0.389,0.72,0.16c0.72-0.271,0.92-0.17,0.62,0.32
	c-0.3,0.488-0.1,0.59,0.62,0.318c0.72-0.279,0.92-0.17,0.62,0.311c-0.29,0.471-0.11,0.6,0.52,0.35c0.53-0.199,0.8-0.629,0.61-0.939
	L506.216,497.115z M530.432,492.975c17.35-17.949,33.646-59.459,33.646-85.699v-4.93l-9.844-3.891
	c-12.174-4.81-27.397-11.96-37.497-17.6c-4.21-2.351-7.76-4.271-7.88-4.271c-0.13,0-0.41,2.46-0.641,5.471
	c-1.949,25.55-13.31,55.871-28.979,77.32l-4.101,5.609l4.771,4.5c10.68,10.08,27.54,19.881,44.78,26.041
	c2.04,0.729,2.97,0.32,5.72-2.531L530.432,492.975z M856.578,493.135c0.807-0.859,1.328-1.561,1.156-1.561
	c-0.17,0-0.975,0.711-1.781,1.57s-1.326,1.561-1.154,1.561c0.17,0,0.973-0.701,1.779-1.561V493.135z M864.078,486.266
	c0.807-0.861,1.328-1.561,1.156-1.561c-0.17,0-0.975,0.709-1.781,1.57c-0.807,0.859-1.326,1.559-1.154,1.559
	c0.17,0,0.973-0.699,1.779-1.559V486.266z M876.578,483.775c0-3.131-0.133-3.461-1.557-3.811c-0.867-0.211-1.381-0.68-1.154-1.039
	c0.236-0.381,0.104-0.471-0.316-0.211c-1.637,1.02-0.867,6.949,0.996,7.689c0.941,0.371,1.781,0.711,1.871,0.75
	c0.08,0.031,0.15-1.479,0.15-3.359L876.578,483.775z M882.828,478.285v-3.041l-2.791,2.391c-2.666,2.279-2.793,2.541-2.812,5.801
	l-0.021,3.41l2.814-2.762C882.586,481.564,882.828,481.064,882.828,478.285z M813.453,460.324
	c12.547-11.441,23.225-21.188,23.729-21.658c0.504-0.469,0.645-0.854,0.312-0.854c-0.797,0-51.785,46.66-52.086,47.66
	c-0.131,0.42,0.99-0.381,2.5-1.789c1.5-1.41,12.99-11.932,25.539-23.371L813.453,460.324z M481.081,475.193
	c-0.89-0.889-2.628,1.203-2.628,3.168c0,3.309,1.435,3.504,2.364,0.32c0.52-1.799,0.62-3.127,0.26-3.488H481.081z M477.828,478.873
	c0-0.107-0.914-1.02-2.03-2.029l-2.032-1.838l1.836,2.031C477.312,478.932,477.828,479.357,477.828,478.873L477.828,478.873z
	 M880.473,476.621l1.418-1.615l-1.598,1.25c-0.881,0.688-0.67,0.377,0.467-0.691c2.123-1.99,2.785-4.619,1.162-4.619
	c-1.131,0-3.861,3.529-4.398,5.68c-0.303,1.219-0.162,1.619,0.564,1.619c0.533,0,1.607-0.719,2.385-1.609V476.621z M701.891,467.203
	l1.875-1.98l-2.375-2.18l-2.375-2.18l-2.096,1.84c-1.152,1.01-2.475,1.98-2.938,2.141c-0.574,0.209-0.047,1.078,1.66,2.738
	c2.779,2.701,3.338,2.67,6.25-0.398L701.891,467.203z M475.953,463.123c0.647-0.781,0.568-0.939-0.472-0.939
	c-0.688,0-1.601,0.42-2.028,0.93c-0.647,0.779-0.568,0.93,0.472,0.93c0.688,0,1.601-0.42,2.028-0.939V463.123z M699.807,459.383
	c0.221-0.01,0.65-0.27,0.932-0.58c0.299-0.34,0.129-0.381-0.42-0.09c-0.521,0.26-0.141-0.189,0.84-1.01l1.77-1.5l-0.699-18.73
	c-1.83-49.22-5.361-66.2-16.701-80.41c-1.869-2.341-3.26-4.261-3.09-4.261c5.01,0,14.76,23.4,17.541,42.12
	c0.5,3.4,0.988,6.25,1.09,6.34c0.09,0.08,2.068-1.579,4.398-3.689l4.23-3.851l-1.82-5.31c-4.18-12.21-8.719-20.62-14.809-27.36
	c-3.9-4.33-10.102-8.859-11.461-8.39c-0.6,0.2-0.709,0.02-0.369-0.57c0.27-0.479,0.279-0.66,0.01-0.42s-1.621-0.14-3-0.84
	c-8.23-4.2-19.73-4.27-29.061-0.18l-3.279,1.439l0.07,9.57c0.1,12.88,0.119,12.93,4.26,15.03c9.939,5.04,14.42-0.74,6.76-8.71
	c-3.76-3.9-2.51-9.45,2.92-12.96c1.359-0.891,2.24-1.61,1.939-1.61c-0.879,0,2.32-3.16,4.17-4.12c0.93-0.479,2.33-0.85,3.121-0.82
	c1.17,0.051,1.09,0.141-0.441,0.511c-5.91,1.43-7.66,4.149-2.949,4.58c19.709,1.79,29.299,28.1,31.07,85.16
	c0.52,16.84,0.92,21.65,1.779,21.1c0.4-0.26,0.91-0.469,1.141-0.469L699.807,459.383z M713.318,437.973l5.18-4.859l-0.43-2.99
	c-0.521-3.67,0.039-3.91-8.301,3.619c-6.881,6.211-6.92,6.26-6.939,9.111c-0.031,4.779,0.34,4.6,10.469-4.891L713.318,437.973z
	 M479.468,427.623c-6.229-3.734-12.248-7.352-13.364-8.037c-1.627-0.996-2.03-1.062-2.03-0.334c0,0.512,5.53,4.25,12.77,8.631
	c7.026,4.24,12.681,7.811,12.568,7.92c-0.115,0.109-6.004-3.32-13.087-7.619l-12.88-7.83v2.34c0,3.16,1.735,4.648,14.062,12.029
	l10,5.99l1.641-3.16l1.64-3.16l-11.33-6.789L479.468,427.623z M704.809,437.508c0.17,0.17,0.982-0.467,1.82-1.408l1.51-1.719
	l-1.59,1.25c-0.873,0.689-0.031-0.199,1.875-1.967c1.904-1.77,3.633-3.109,3.84-2.979c0.207,0.129,1.051-0.531,1.875-1.471
	l1.498-1.699l-1.6,1.25c-0.879,0.689-0.508,0.238,0.826-0.99l2.424-2.24l-0.986-5.191c-0.541-2.859-1.996-9.158-3.232-14.01
	c-1.24-4.849-2.391-9.45-2.57-10.219c-0.451-1.97-0.67-1.87-5.391,2.5l-4.221,3.91l0.611,7.809c0.34,4.301,0.799,12.391,1.029,17.99
	c0.33,7.93,0.59,10.041,1.189,9.541c0.42-0.35,0.9-0.5,1.07-0.33L704.809,437.508z M458.918,429.238
	c-1.29-0.135-3.399-0.135-4.689,0s-0.233,0.246,2.345,0.246s3.63-0.111,2.342-0.246H458.918z M463.23,428.238
	c-0.418-0.299,0.024-0.398,1.058-0.232c2.24,0.361,1.188-0.877-2.507-2.941c-2.223-1.244-2.417-1.58-2.707-4.695l-0.315-3.355
	l-5.47-3.107l-5.47-3.107l-2.28,1.75l-2.28,1.744l-3.83-1.99c-4.649-2.42-4.46-2.41-5.63-0.141c-1.359,2.631-1.18,5.031,0.58,7.621
	c0.84,1.24,1.34,2.449,1.101,2.689c-0.24,0.24-0.16,0.369,0.189,0.291c1.04-0.25,2.84,0.76,2.45,1.369
	c-0.19,0.311-0.12,0.529,0.16,0.48c1.26-0.221,2.12,0.109,1.77,0.68c-0.22,0.359,0.061,0.449,0.69,0.199
	c0.79-0.299,0.939-0.189,0.56,0.41c-0.34,0.551-0.27,0.68,0.221,0.381c0.909-0.561,3.35,0.16,2.909,0.869
	c-0.17,0.291,0.311,0.381,1.091,0.211c1.09-0.24,1.199-0.17,0.5,0.32c-0.65,0.459-0.131,0.559,1.88,0.359
	c1.569-0.16,2.31-0.07,1.71,0.199c-0.59,0.26,2.41,0.48,6.66,0.48s7.409-0.24,7.01-0.52L463.23,428.238z M462.832,422.662
	c0.004-1.119,0.18-2.68,0.39-3.469c0.317-1.18,0.047-1.561-1.554-2.16c-2.76-1.041-2.79-1.42-1.074-12.59
	c0.851-5.54,1.735-11.811,1.965-13.94c0.327-3.029,0.763-4.18,2.005-5.31c0.872-0.79,1.383-1.09,1.135-0.66
	c-0.246,0.43-0.132,0.78,0.255,0.78c0.78,0,0.38-1.74-1.04-4.54c-0.868-1.71-0.496-6.36,2.597-32.471l0.349-2.939l-5.487-1.67
	c-3.018-0.92-5.802-1.79-6.188-1.94c-0.455-0.18-0.962,1.851-1.46,5.86c-0.625,5.04-1.032,6.42-2.303,7.76l-1.544,1.63l1.29,2.48
	c1.68,3.22-1.61,42.71-3.74,44.83c-0.34,0.33-0.609,1.791-0.609,3.23v2.609l5.779,3.27c3.181,1.801,5.921,3.471,6.091,3.701
	s1,0.9,1.85,1.48s1.22,1.059,0.82,1.059c-0.4,0-0.9-0.279-1.11-0.629c-0.84-1.361-1.57-0.5-1.57,1.84c0,1.689,0.341,2.67,1.091,3.1
	c1.729,1.01,2.029,0.811,2.039-1.35L462.832,422.662z M442.396,408.412c-2.388-2.279-32.267-16.41-44.888-21.229
	c-3.43-1.32-6.76-2.591-7.38-2.841c-1.01-0.399-1.109-0.13-0.93,2.521l0.2,2.96l11.88,4.84c6.53,2.66,16.6,7.13,22.359,9.92
	c5.771,2.791,10.86,5.08,11.311,5.08s2.35,0.83,4.2,1.852l3.39,1.85l0.2-2.25c0.11-1.24-0.03-2.471-0.311-2.74L442.396,408.412z
	 M447.196,407.303c0-3.01-0.11-3.31-0.979-2.59c-1.58,1.311-2.77,4.11-2.77,6.51v2.24l1.874-1.391
	c1.683-1.25,1.875-1.74,1.875-4.789L447.196,407.303z M444.126,406.402c0.565-1.099,0.561-1.25-0.03-0.699
	c-0.569,0.529-2.153-0.051-6.482-2.38c-11.87-6.39-28.937-14.24-40.105-18.45c-4.125-1.56-8.343-3.189-9.375-3.63
	c-1.029-0.45-4.902-1.87-8.605-3.16c-3.71-1.29-6.63-2.46-6.49-2.59c0.13-0.14,3.42,0.89,7.3,2.28c8.97,3.2,7.76,3.54,13.54-3.891
	c45.951-59.159,52.751-137.309,18.771-215.829l-2.641-6.11l-6.399-2.31l-6.4-2.31l3.01,3.52
	c18.511,21.618,30.62,68.018,28.811,110.39c-2.34,54.77-26.86,107.268-52.771,112.97c-3.12,0.688-4.689,1.467-4.689,2.33
	c0,0.68,16.18,6.38,16.89,5.94c0.33-0.206,0.61-0.11,0.61,0.22s2.74,1.64,6.09,2.916c10.46,3.979,28.189,11.996,37.97,17.17
	c10.72,5.677,10.04,5.453,10.99,3.611L444.126,406.402z M447.016,402.653c2.017-2.11,3.631-12.17,4.886-30.47
	c0.2-2.92,0.502-5.98,0.67-6.79c0.286-1.37,0.118-1.32-2.455,0.79l-2.76,2.26l-0.44,7.02c-0.247,3.86-0.979,11.66-1.635,17.33
	c-1.597,13.84-1.673,13.411,1.733,9.84L447.016,402.653z M349.528,393.683c-0.208-0.21-0.747-0.23-1.198-0.051
	c-0.5,0.2-0.35,0.351,0.377,0.381C349.367,394.042,349.737,393.893,349.528,393.683L349.528,393.683z M357.666,393.623
	c-0.6-0.16-1.584-0.16-2.186,0c-0.601,0.15-0.11,0.28,1.094,0.28c1.203,0,1.695-0.13,1.094-0.29L357.666,393.623z M388.446,386.672
	v-3l-7.653-2.739c-4.212-1.511-8.01-2.86-8.439-3.011c-0.538-0.189-0.78,0.49-0.78,2.21v2.48l4.651,1.69
	c2.561,0.93,4.74,1.909,4.841,2.18c0.14,0.35,5.915,2.859,7.223,3.13c0.085,0.02,0.155-1.32,0.155-2.97L388.446,386.672z
	 M656.496,382.203c0.561-0.3,1.66-1.24,2.447-2.08l1.43-1.529l-3.09,0.3c-10.963,1.05-19.73-11.98-15.033-22.351l1.279-2.81
	l-2.279,2.18c-12.721,12.2,0.18,34.42,15.26,26.29H656.496z M507.276,381.743c-0.738-1.27-0.916-0.86-0.311,0.71
	c0.21,0.561,0.521,0.88,0.681,0.72c0.159-0.159-0.008-0.81-0.37-1.439V381.743z M370.326,379.663c0-1.97-0.235-2.5-1.097-2.49
	c-1.391,0.011-13.99-3.89-13.65-4.229c0.14-0.14,3,0.62,6.35,1.689c3.36,1.07,6.631,1.87,7.271,1.761c2.05-0.33,1.33-1.42-1.21-1.86
	c-1.351-0.229-4.64-1.16-7.32-2.06c-5.62-1.891-5.42-1.96-5.81,2.13c-0.34,3.58-0.74,3.3,8.3,5.979c7.01,2.07,7.19,2.05,7.19-0.95
	L370.326,379.663z M645.322,362.792l-0.32-10.319l-1.709,3.43c-2.682,5.4-2.143,12.67,1.219,16.38c0.557,0.61,1.041,1.05,1.072,0.96
	c0.033-0.09-0.086-4.8-0.262-10.47V362.792z M450.588,365.143c4.25-3.69,1.626-8.641-3.016-5.7c-3.193,2.02-3.33,2.41-1.62,4.6
	c0.672,0.86,1.228,1.91,1.236,2.34c0.023,1.24,0.89,0.921,3.402-1.25L450.588,365.143z M450.998,356.073l1.516-1.72l-1.598,1.25
	c-0.88,0.68-0.673,0.37,0.462-0.69c2.054-1.93,2.068-1.979,3.344-12.819c2.4-20.351,8.812-44.07,15.011-55.511l1.88-3.47
	l-2.559,2.48c-7.468,7.26-16.742,37.01-19.662,63.05c-1.085,9.67-0.946,10.31,1.604,7.41L450.998,356.073z M468.712,336.792
	c1.017-8.729,1.614-7.63-5.266-9.689l-5.563-1.66l-0.662,3.21c-0.609,2.95-1.84,11.85-1.659,12.03
	c0.199,0.199,11.972,3.76,12.117,3.66c0.101-0.061,0.561-3.461,1.03-7.551H468.712z M508.168,331.263
	c2.023-2.021,1.938-2.96-0.399-4.341c-2.523-1.489-6.513-7.709-7.356-11.47c-1.275-5.69-1.198-6.17,1.42-8.85l2.44-2.5l-1.087-2.85
	c-4.062-10.64-12.368-17.6-16.46-13.8l-2.335,2.17l2.15,0.02c5.544,0.04,10.547,7.15,11.822,16.79c0.447,3.37,0.376,4.01-0.474,4.31
	c-5.241,1.84-3.861,12.49,2.471,19.061c3.33,3.449,5.41,3.84,7.81,1.439L508.168,331.263z M469.853,326.882
	c0.255-1.34-10.187-6.189-11.137-5.18c-1.773,1.891-0.366,3.25,5.051,4.91c3.094,0.94,5.662,1.73,5.71,1.76
	c0.045,0.021,0.215-0.649,0.376-1.5V326.882z M510.139,322.013c-0.34-4.69-1.85-10.271-4.31-15.93l-0.88-2.03l-2.4,2.46
	c-3.8,3.89-1.979,12.73,3.811,18.52C509.919,328.593,510.589,328.063,510.139,322.013z M470.939,319.823
	c2.59-16.13,6.37-24.74,13.66-31.11c2.75-2.4,4.88-4.53,4.75-4.75c-0.53-0.87-5.79-2.95-8.471-3.35l-2.84-0.43l-4.11,8.09
	c-4.939,9.73-10.02,17.85-10.75,17.19c-0.29-0.27-0.329-0.14-0.09,0.28c0.24,0.42,0.04,1.4-0.45,2.19
	c-1.06,1.71-3.71,11.51-3.38,12.51c0.181,0.55,8.761,3.95,10.54,4.17c0.21,0.02,0.73-2.13,1.16-4.8L470.939,319.823z
	 M466.77,300.143c3.6-5.8,10.109-18.52,9.689-18.94c-1.899-1.9-5.92,3.77-9.77,13.78c-4.141,10.74-4.12,11.95,0.09,5.16H466.77z
	 M792.18,289.103c0.709-1.01,1.48-2.74,1.709-3.87l0.41-2.05l-2.91,2.43c-1.908,1.59-2.908,2.93-2.908,3.86
	c0,2.07,2.119,1.84,3.709-0.39L792.18,289.103z M791.209,285.173l3.061-2.62l-2.119-0.83c-1.16-0.45-1.471-0.7-0.682-0.55
	c1.182,0.22,4.66-2.68,18.73-15.57c9.51-8.72,17.51-15.71,17.801-15.53c0.279,0.17,0.439,0.03,0.34-0.31
	c-0.09-0.35,2.359-2.94,5.459-5.76c3.102-2.83,7.391-6.82,9.541-8.87c2.35-2.24,4.27-3.59,4.799-3.39c0.5,0.19,2.221-0.78,3.9-2.2
	l3.021-2.54l-2.65,2.6c-2.641,2.58-3.631,5.68-1.811,5.68c1.859,0,5.1-5.56,4.539-7.79c-0.379-1.53-6.68-3.78-12.25-4.38
	c-2.869-0.31-11.219-3.13-20.529-6.95c-6.59-2.71-6.34-2.75-6.34,1.18v3.32l2.939,1.21l2.93,1.22l-25.898,23.68
	c-14.25,13.02-26.49,24.21-27.201,24.85c-1.32,1.18-3.289,0.83-7.129-1.28c-3.34-1.83-25.691-7.8-41.191-10.99
	c-17.068-3.51-58.039-10.03-64.738-10.3c-3.592-0.14-3.75-0.73-0.941-3.47c1.9-1.85,2.5-2.93,2.5-4.46c0-2.58,2.6-4.82,5.17-4.45
	c2.66,0.39,66.291-57.82,66.59-60.93c0.111-1.12,0.932-2.8,1.83-3.75c0.891-0.94,1.51-1.81,1.361-1.93
	c-1.682-1.39-29.51-16.05-30.48-16.05c-0.4,0-20.451,18.07-44.561,40.15s-44.2,40.08-44.641,39.99
	c-1.189-0.26-68.51-24.42-68.77-24.69c-0.2-0.2,81.111-75.02,86.1-79.24l1.881-1.59l-12.711-2.96c-10.3-2.4-39.689-8.55-40.859-8.55
	c-1.45,0-0.101,5.64,1.43,5.98c0.95,0.2,2.08,0.49,2.53,0.62c0.439,0.13-16.82,16.39-38.37,36.12l-39.17,35.87l-1.75-1.01
	c-0.96-0.55-1.62-1.12-1.47-1.27c0.56-0.57-29.48-20.04-42.54-27.58c-10.08-5.82-32.67-16.41-36.62-17.18
	c-6.61-1.29-7.061-1.95-3.38-4.96c1.55-1.27,2.81-2.76,2.81-3.32c0-1.42,3.09-4.5,4.11-4.11c0.5,0.19,9.63-7.74,22.54-19.58
	c11.93-10.94,22.069-19.82,22.529-19.72c0.54,0.12,0.83-0.45,0.83-1.65c0-1,0.42-2.17,0.931-2.6c1.41-1.17,0.76-1.63-4.84-3.47
	c-2.83-0.93-5.711-2.2-6.4-2.82c-1.53-1.39-7.54-4.19-10.04-4.68c-1.6-0.31-2.23,0.06-4.96,2.89c-1.72,1.79-2.771,3.06-2.35,2.82
	c0.43-0.24,1.27-0.13,1.88,0.24c0.96,0.59,0.97,0.65,0.05,0.5c-1.49-0.25-55.15,48.97-54.11,49.62c1.17,0.74-0.05,0.62-1.49-0.158
	c-1.06-0.57-1.699-0.24-4.319,2.21l-3.08,2.88l1.71,0.66c0.939,0.36,3.54,1.08,5.78,1.59c25.21,5.82,58.359,21.92,93.18,45.25
	c63.81,42.747,89.08,51.8,184.951,66.245c51.639,7.78,88.289,16.91,110.318,27.465c9.479,4.54,8.549,4.45,12.432,1.12
	L791.209,285.173z M790.561,251.143c12.639-11.57,22.75-21.22,22.469-21.45c-0.27-0.24-2.469-1.22-4.869-2.2
	c-18.721-7.58-38.471-17.71-66.15-33.9c-13.311-7.79-11.891-8.78-12.18,8.49l-0.24,14.22l-14.32,13.08
	c-12.689,11.59-14.16,13.13-12.9,13.5c0.791,0.23,5.73,1.17,10.99,2.09c15.109,2.64,38.779,8.53,49.811,12.38l2.5,0.87l0.17,6.19
	c0.27,10.15-2.461,11.62,24.74-13.28L790.561,251.143z M765.209,264.823l-0.17-6.09l-5.1-1.71c-18.84-6.32-45.311-11.81-88.23-18.3
	c-10.148-1.54-10.92-1.57-12.389-0.61c-2.09,1.37-2.641,1.2,10.1,3.09c41.219,6.1,65.811,11.11,86.199,17.55
	c6.561,2.07,6.881,2.11,8.131,1.06c1.279-1.08,1.289-1.08,0.209,0.2c-1.1,1.32-1.629,9.52-0.67,10.47
	c1.65,1.65,2.131,0.26,1.951-5.67L765.209,264.823z M762.09,265.503l-0.18-4.16l-5.621-1.79c-7.559-2.39-25.139-6.93-34.4-8.88
	c-11.129-2.33-60.279-10.38-63.43-10.38c-0.35,0-0.619,1.73-0.619,3.99v3.99l2.029,0.37c1.121,0.2,7.801,1.23,14.85,2.28
	c36.67,5.46,62.41,10.8,80.932,16.8c3.09,1,5.85,1.84,6.119,1.88c0.27,0.03,0.41-1.82,0.311-4.1H762.09z M657.209,246.233
	c0-1.21-0.08-2.19-0.189-2.19c-0.1,0-1.141,0.98-2.311,2.19l-2.119,2.19h2.311C657.129,248.423,657.209,248.343,657.209,246.233z
	 M714.4,229.563l14.379-13.2l0.359-14.58c0.201-8.02,0.201-16.56,0-18.98l-0.35-4.4l-31.961,29.251
	c-17.57,16.08-31.91,29.28-31.859,29.34s6.551,1.12,14.449,2.35c7.9,1.23,15.631,2.48,17.18,2.79c1.551,0.31,2.961,0.58,3.131,0.61
	c0.18,0.03,6.779-5.88,14.689-13.14L714.4,229.563z M848.98,233.623c-0.291-1.53-1.24-1.59-3.012-0.21l-1.568,1.22l2.389,0.01
	c1.9,0.01,2.35-0.2,2.191-1.03V233.623z M619.56,228.043c0.1-0.04-3.54-1.4-8.08-3.04c-4.54-1.64-8.63-3.13-9.101-3.3
	c-0.66-0.26-0.8,0.56-0.649,3.91l0.189,4.23l5.63,2.04l5.631,2.04l3.109-2.92c1.72-1.61,3.2-2.94,3.29-2.98L619.56,228.043z
	 M600.859,223.893l-0.19-2.02l-2.649,2.4c-1.46,1.32-2.65,2.6-2.65,2.83c0,0.23,1.2,0.86,2.66,1.39l2.66,0.97l0.199-1.78
	c0.11-0.98,0.11-2.69,0-3.81L600.859,223.893z M815.5,221.783c-0.211-8.97-0.281-9.2-3.09-10.2
	c-15.561-5.55-41.41-18.65-72.24-36.59l-7.381-4.3l-1.279,1.29l-1.291,1.29l4.602,2.7c37.5,22.01,76.219,40.7,79.049,38.16
	c1.1-0.99,1.1-0.98,0.07,0.27c-1.35,1.64-1.6,13.7-0.289,14.22c1.789,0.72,2.029-0.16,1.869-6.83L815.5,221.783z M812.23,221.653
	v-6.13l-9.221-3.71c-16.461-6.63-37.92-17.61-63.07-32.27c-5.209-3.04-9.641-5.52-9.85-5.52c-0.199,0-0.371,2.64-0.371,5.87v5.87
	l7.971,4.67c22.35,13.09,40.91,22.88,55.93,29.52c4.031,1.79,7.131,3.44,6.891,3.69c-0.25,0.24-0.029,0.3,0.471,0.12
	c0.51-0.18,3.17,0.63,5.92,1.78c2.75,1.15,5.068,2.13,5.16,2.16c0.09,0.03,0.158-2.7,0.158-6.07L812.23,221.653z M596.329,225.223
	c1.01-1.07,2.61-2.49,3.561-3.18l1.729-1.24l9.11,3.29c6.25,2.26,9.38,3.11,9.97,2.7c1.51-1.04,58.311-53.07,58.35-53.47
	c0.262-2.34-42.52-14.61-67.13-19.25l-6.24-1.18l-9.699,8.9c-5.341,4.9-18.98,17.4-30.33,27.77
	c-11.341,10.37-20.7,19.07-20.78,19.32c-0.8,2.29,49.59,18.27,51.45,16.31L596.329,225.223z M820.35,223.343
	c0-0.25-0.85-0.74-1.881-1.1l-1.879-0.66v5.79l1.869-1.8c1.031-0.99,1.881-2,1.881-2.25L820.35,223.343z M504.719,188.393
	c0-6.1-0.029-6.24-1.25-5.48c-1.09,0.67-1.25,1.45-1.25,5.89c0,4.87,0.25,5.6,2.03,5.79c0.261,0.02,0.47-2.77,0.47-6.21V188.393z
	 M541.259,161.503c17.79-16.29,32.101-29.69,31.801-29.77c-0.301-0.08-9.82-2.01-21.16-4.28c-33.33-6.7-52.37-11.28-69.84-16.79
	c-3.69-1.17-6.721-1.94-6.721-1.73c0,0.22,1.261,3.71,2.801,7.77c5.77,15.19,10.77,33.69,13.229,48.94l1.12,6.939l6.43,4.25
	l6.431,4.25v13.07l1.79-1.5c0.979-0.83,16.34-14.84,34.13-31.13L541.259,161.503z M501.589,188.163v-3.98l-11.409-7.5
	c-27.75-18.25-42.351-26.46-60.4-33.97c-3.99-1.67-6.94-3.03-6.55-3.04c1.34-0.04,13.05,5.09,22.729,9.95
	c14.261,7.16,21.431,11.44,44.21,26.43l11.4,7.5l1.66-1.09l1.66-1.09l-13.681-9.03c-24.27-16.01-40.18-24.88-58.149-32.41
	l-8.03-3.36l-1.43,1.6c-1.24,1.38-1.41,2.15-1.25,5.7l0.189,4.1l6.561,2.74c19.489,8.13,39.09,19.24,64.689,36.65
	c8.34,5.67,7.811,5.62,7.811,0.77L501.589,188.163z M491.589,170.863c0-10.76-14.229-59.65-18.489-63.54
	c-1-0.91-1.511-2.05-1.511-3.39c0-8.42,1.181-9.09-23.37,13.42c-24.579,22.54-22.14,19.21-15.85,21.69
	c13.26,5.23,35.17,17.11,51.72,28.04c6.87,4.54,7.5,4.86,7.5,3.79V170.863z M421.589,144.923v-2.84l-2.56,2.05l-2.561,2.06
	l1.78,0.76C421.229,148.223,421.589,148.003,421.589,144.923z M562.529,128.333c-6.54-1.33-12.3-2.34-12.82-2.24
	c-1.17,0.21,20.98,4.68,23.13,4.66c0.86-0.01-3.779-1.1-10.31-2.43V128.333z M576.799,129.123c0.891-0.98,0.961-2.05,0.561-7.64
	l-0.46-6.5l-1.87-0.47c-1.03-0.26-11.3-2.33-22.811-4.6c-30.399-5.98-53.09-11.46-70.239-16.96c-6.761-2.17-6.811-2.17-8.03-0.95
	c-1.32,1.32,0.11,1.89,17.36,6.95c24.7,7.24,82.159,18.9,84.29,17.11c1.29-1.09,1.3-1.09,0.22,0.2c-0.88,1.05-1.09,2.51-1.09,7.66
	c0,6.5,0.29,7.21,2.09,5.22L576.799,129.123z M574.089,123.713c0-5.64-0.069-5.94-1.409-6.23c-0.771-0.16-11.53-2.29-23.91-4.73
	c-24.74-4.88-52.521-11.52-66.55-15.91c-4.98-1.56-9.271-2.84-9.53-2.84c-1.51,0-0.47,11.85,1.08,12.24
	c0.859,0.21,1.42,0.61,1.25,0.89c-0.17,0.27,0.3,0.34,1.04,0.15c0.87-0.23,1.2-0.12,0.939,0.31c-0.26,0.43,0.07,0.54,0.94,0.31
	s1.2-0.12,0.939,0.31c-0.26,0.43,0.07,0.54,0.94,0.31c0.92-0.24,1.21-0.12,0.91,0.37c-0.271,0.45-0.11,0.59,0.439,0.38
	c0.48-0.18,4.221,0.66,8.311,1.87c9.79,2.9,32.62,8.39,47.34,11.39c8.41,1.72,11.36,2.53,10.32,2.86
	c-0.94,0.29-0.57,0.35,1.029,0.17c1.45-0.16,6.811,0.6,12.811,1.82c14.57,2.97,13.12,3.37,13.12-3.68L574.089,123.713z
	 M580.259,125.653l1.391-1.49l-1.601-0.31c-1.409-0.271-1.59-0.1-1.59,1.479c0,2.16,0.05,2.17,1.8,0.3V125.653z M544.869,124.843
	c-0.42-0.18-1.13-0.18-1.56,0c-0.431,0.17-0.08,0.31,0.779,0.31C544.949,125.153,545.299,125.013,544.869,124.843L544.869,124.843z
	 M542.169,124.383c-0.45-0.43-16.92-3.62-17.21-3.33c-0.149,0.15,3.18,0.99,7.4,1.86c7.49,1.54,10.34,1.97,9.81,1.46V124.383z
	 M514.719,118.333c-5.33-1.33-9.97-2.32-10.31-2.22c-0.771,0.24,17.03,4.63,18.75,4.63c0.69,0-3.11-1.09-8.43-2.42L514.719,118.333z
	 M503.299,115.503c-0.21-0.21-0.739-0.23-1.199-0.05c-0.5,0.2-0.351,0.35,0.38,0.38
	C503.139,115.853,503.509,115.713,503.299,115.503z M500.799,114.873c-0.21-0.21-0.739-0.23-1.199-0.05
	c-0.5,0.2-0.351,0.35,0.38,0.38C500.639,115.223,501.009,115.083,500.799,114.873z M498.299,114.243
	c-0.21-0.21-0.739-0.23-1.199-0.05c-0.5,0.2-0.351,0.35,0.38,0.38C498.14,114.603,498.509,114.453,498.299,114.243z M493.93,112.993
	c-0.211-0.21-0.75-0.23-1.2-0.05c-0.5,0.2-0.351,0.35,0.38,0.38C493.77,113.353,494.14,113.203,493.93,112.993z M489.56,111.743
	c-0.21-0.21-0.74-0.23-1.2-0.05c-0.5,0.2-0.351,0.35,0.38,0.38C489.399,112.103,489.77,111.953,489.56,111.743z M471.409,98.253
	c-0.2-0.5-0.35-0.35-0.38,0.38c-0.03,0.66,0.12,1.03,0.33,0.82S471.589,98.703,471.409,98.253L471.409,98.253z M480.279,453.062
	c0.34-0.689,1.07-1.811,1.63-2.5c1.021-1.25,1.021-1.25,0.41,0c-0.33,0.689-1.07,1.811-1.63,2.5c-1.021,1.25-1.021,1.25-0.4,0
	H480.279z M484.159,446.812c0.771-1.379,1.67-2.779,2-3.129c0.94-0.98-1.2,2.969-2.36,4.369c-0.569,0.689-0.409,0.131,0.36-1.25
	V446.812z M492.919,429.934c0-0.352,0.54-1.611,1.2-2.82c0.66-1.211,1.2-1.91,1.2-1.57s-0.54,1.609-1.19,2.811
	c-0.66,1.199-1.199,1.91-1.199,1.559L492.919,429.934z M495.759,423.363c0.21-0.861,0.771-2.41,1.24-3.441
	c0.69-1.51,0.78-1.568,0.47-0.318c-0.21,0.859-0.76,2.398-1.229,3.439c-0.69,1.51-0.78,1.57-0.47,0.311L495.759,423.363z
	 M842.92,423.203c-0.291-0.781-0.99-2.5-1.551-3.83c-1.1-2.631-1.309-3.781-0.41-2.25c0.951,1.609,3.15,7.469,2.811,7.469
	c-0.17,0-0.561-0.639-0.85-1.408V423.203z M498.899,414.604c0.72-2.82,2.18-6.262,1.76-4.131c-0.2,0.99-0.76,2.68-1.25,3.75
	c-0.67,1.461-0.8,1.551-0.5,0.381H498.899z M839.189,413.902c-0.391-1.109-0.59-2.119-0.459-2.25c0.139-0.139,0.559,0.66,0.949,1.76
	c0.391,1.102,0.59,2.121,0.461,2.25c-0.131,0.131-0.561-0.66-0.941-1.77L839.189,413.902z M835.189,403.292
	c-3.539-9.71-4.4-12.399-4.07-12.729c0.15-0.15,0.771,1.35,1.391,3.319c0.619,1.98,2.221,6.521,3.561,10.101
	c1.34,3.58,2.32,6.621,2.189,6.75c-0.131,0.141-1.51-3.209-3.051-7.44H835.189z M501.02,407.434c0.029-0.73,0.18-0.881,0.38-0.381
	c0.18,0.449,0.16,0.99-0.05,1.199C501.149,408.463,500.999,408.092,501.02,407.434z M503.52,398.052
	c0.029-0.729,0.18-0.88,0.38-0.38c0.18,0.45,0.16,0.99-0.05,1.19c-0.2,0.21-0.351-0.16-0.33-0.82V398.052z M504.219,395.603
	c0-0.69,0.23-1.96,0.5-2.82c0.4-1.24,0.5-1.31,0.5-0.32c0,0.681-0.22,1.95-0.5,2.811c-0.39,1.229-0.5,1.3-0.5,0.31V395.603z
	 M505.489,389.973c0.01-0.69,0.229-2.091,0.49-3.12c0.43-1.69,0.479-1.721,0.489-0.32c0.011,0.86-0.21,2.26-0.489,3.12
	c-0.391,1.22-0.5,1.29-0.49,0.31V389.973z M828.828,384.324c-0.604-1.917-0.986-3.597-0.85-3.735
	c0.141-0.137,0.746,1.318,1.35,3.235s0.986,3.597,0.85,3.735C830.039,387.696,829.432,386.241,828.828,384.324z M826.629,376.833
	c0.029-0.728,0.176-0.876,0.377-0.377c0.18,0.45,0.158,0.99-0.051,1.198c-0.207,0.21-0.354-0.16-0.328-0.82L826.629,376.833z
	 M826.002,374.333c0.031-0.728,0.178-0.876,0.379-0.377c0.18,0.45,0.158,0.99-0.051,1.198
	C826.123,375.365,825.977,374.995,826.002,374.333L826.002,374.333z M825.377,371.833c0.031-0.728,0.17-0.876,0.371-0.377
	c0.18,0.45,0.16,0.99-0.051,1.198c-0.209,0.21-0.359-0.16-0.33-0.82L825.377,371.833z M824.748,369.333
	c0.029-0.728,0.18-0.876,0.379-0.377c0.18,0.45,0.16,0.99-0.049,1.198C824.867,370.365,824.717,369.995,824.748,369.333
	L824.748,369.333z M824.117,366.833c0.031-0.728,0.17-0.876,0.371-0.377c0.18,0.45,0.16,0.99-0.051,1.198
	c-0.209,0.21-0.359-0.16-0.33-0.82L824.117,366.833z M822.857,361.841c-0.43-1.92-0.66-3.609-0.52-3.758
	c0.141-0.146,0.619,1.304,1.039,3.223c0.43,1.92,0.66,3.609,0.51,3.758c-0.148,0.146-0.619-1.304-1.049-3.223H822.857z
	 M377.817,361.102c0-0.277,0.84-0.822,1.87-1.212c1.029-0.391,1.869-0.599,1.869-0.466c0,0.141-0.85,0.681-1.88,1.221
	c-1.029,0.54-1.88,0.75-1.88,0.47L377.817,361.102z M382.188,358.837c0-0.13,0.489-0.622,1.09-1.094
	c0.99-0.777,1.01-0.755,0.229,0.236c-0.819,1.04-1.33,1.372-1.33,0.857H382.188z M387.497,354.074c1.69-1.72,3.22-3.125,3.39-3.125
	s-1.08,1.406-2.77,3.125c-1.7,1.72-3.22,3.125-3.39,3.125c-0.181,0,1.069-1.406,2.76-3.125H387.497z M821.668,355.324
	c0-0.86,0.145-1.21,0.318-0.78c0.172,0.429,0.172,1.132,0,1.561c-0.174,0.43-0.316,0.08-0.316-0.78H821.668z M821.045,352.199
	c0-0.86,0.143-1.21,0.316-0.78c0.17,0.429,0.17,1.132,0,1.561c-0.178,0.43-0.32,0.08-0.32-0.78H821.045z M391.892,348.838
	c0.59-0.901,1.189-1.64,1.335-1.64c0.452,0-1.002,2.41-1.724,2.855c-0.377,0.232-0.202-0.314,0.391-1.217L391.892,348.838z
	 M820.422,348.449c0-0.86,0.141-1.21,0.312-0.78c0.172,0.429,0.172,1.132,0,1.561c-0.174,0.43-0.316,0.08-0.316-0.78H820.422z
	 M819.795,344.699c0-0.86,0.141-1.21,0.314-0.78c0.17,0.429,0.17,1.132,0,1.561c-0.18,0.43-0.32,0.08-0.32-0.78H819.795z
	 M395.944,342.199c0.37-0.688,0.81-1.25,0.979-1.25c0.173,0,0.014,0.562-0.354,1.25c-0.37,0.688-0.811,1.25-0.98,1.25
	s-0.01-0.562,0.36-1.25H395.944z M819.168,341.574c0-0.86,0.141-1.21,0.311-0.78c0.174,0.429,0.174,1.132,0,1.561
	c-0.174,0.43-0.314,0.08-0.314-0.78H819.168z M398.438,337.824c0.367-0.688,0.81-1.25,0.979-1.25c0.173,0,0.013,0.562-0.354,1.25
	c-0.37,0.688-0.811,1.25-0.98,1.25c-0.175,0-0.015-0.562,0.354-1.25H398.438z M818.596,336.261c0.01-1.375,0.137-1.863,0.285-1.087
	c0.15,0.78,0.146,1.91-0.01,2.5c-0.156,0.601-0.279-0.029-0.27-1.409L818.596,336.261z M817.973,330.011
	c0.004-1.375,0.133-1.863,0.279-1.087c0.15,0.78,0.146,1.91-0.01,2.5c-0.156,0.601-0.279-0.029-0.271-1.409L817.973,330.011z
	 M407.559,319.074c0.229-0.86,0.68-1.984,0.994-2.5c0.403-0.652,0.452-0.46,0.162,0.625c-0.229,0.86-0.68,1.984-0.997,2.5
	c-0.402,0.652-0.452,0.46-0.162-0.625H407.559z M413.498,301.833c0.03-0.728,0.18-0.876,0.38-0.377
	c0.181,0.45,0.155,0.99-0.05,1.198C413.618,302.865,413.47,302.495,413.498,301.833L413.498,301.833z M414.122,299.333
	c0.03-0.728,0.173-0.876,0.373-0.377c0.18,0.45,0.158,0.99-0.05,1.198c-0.207,0.21-0.355-0.16-0.328-0.82L414.122,299.333z
	 M414.742,296.833c0.03-0.728,0.18-0.876,0.38-0.377c0.18,0.45,0.16,0.99-0.05,1.198
	C414.864,297.865,414.716,297.495,414.742,296.833L414.742,296.833z M415.367,294.333c0.03-0.728,0.17-0.876,0.37-0.377
	c0.18,0.45,0.149,0.99-0.05,1.198c-0.21,0.21-0.36-0.16-0.33-0.82L415.367,294.333z M415.987,291.833
	c0.03-0.728,0.18-0.876,0.38-0.377c0.18,0.45,0.15,0.99-0.05,1.198C416.107,292.865,415.957,292.495,415.987,291.833
	L415.987,291.833z M416.967,288.137c0.21-1.375,0.48-2.618,0.61-2.76c0.47-0.538,0.12,2.81-0.43,4.01
	c-0.4,0.87-0.45,0.492-0.19-1.25H416.967z M417.927,282.512c0.011-1.032,0.15-1.378,0.311-0.77s0.149,1.452-0.03,1.875
	c-0.17,0.423-0.3-0.074-0.29-1.106L417.927,282.512z M418.547,278.762c0.01-1.032,0.15-1.378,0.311-0.77s0.149,1.452-0.021,1.875
	S418.537,279.793,418.547,278.762L418.547,278.762z M419.197,274.699c0-1.203,0.13-1.695,0.28-1.094c0.149,0.61,0.149,1.59,0,2.19
	c-0.16,0.6-0.29,0.11-0.29-1.09L419.197,274.699z M420.127,264.699c0.18-4.297,0.55-9.64,0.82-11.875
	c0.32-2.685,0.37-1.414,0.14,3.75c-0.189,4.297-0.55,9.64-0.819,11.875c-0.32,2.685-0.37,1.414-0.15-3.75H420.127z M822.258,266.574
	c0-0.516,0.24-1.5,0.529-2.188c0.34-0.787,0.531-0.903,0.531-0.312c0,0.516-0.24,1.5-0.541,2.188
	c-0.34,0.787-0.539,0.903-0.539,0.312H822.258z M420.537,240.949c0-3.953,0.1-5.57,0.22-3.594c0.12,1.98,0.12,5.22,0,7.19
	c-0.13,1.98-0.229,0.36-0.229-3.59L420.537,240.949z M419.817,230.949c0-1.203,0.13-1.695,0.279-1.094c0.15,0.61,0.15,1.59,0,2.19
	c-0.159,0.6-0.29,0.11-0.29-1.09L419.817,230.949z M419.167,226.261c0.01-1.03,0.15-1.377,0.311-0.77
	c0.159,0.61,0.149,1.453-0.03,1.876c-0.17,0.423-0.3-0.074-0.29-1.106H419.167z M418.557,221.574c0-1.203,0.131-1.695,0.28-1.094
	c0.15,0.602,0.15,1.586,0,2.188c-0.16,0.6-0.29,0.11-0.29-1.094H418.557z M417.927,217.199c0-1.203,0.13-1.695,0.28-1.094
	c0.16,0.61,0.16,1.59,0,2.19s-0.29,0.11-0.29-1.09L417.927,217.199z M417.277,213.136c0.01-1.03,0.149-1.377,0.31-0.77
	c0.16,0.61,0.15,1.453-0.03,1.876c-0.17,0.423-0.3-0.074-0.289-1.106H417.277z M416.577,209.959c0.03-0.728,0.18-0.876,0.38-0.377
	c0.18,0.45,0.16,0.99-0.05,1.198C416.697,210.987,416.547,210.618,416.577,209.959L416.577,209.959z M415.947,207.459
	c0.03-0.728,0.17-0.876,0.37-0.377c0.18,0.45,0.16,0.99-0.05,1.198c-0.2,0.207-0.351-0.162-0.33-0.82L415.947,207.459z
	 M415.317,204.958c0.029-0.728,0.18-0.876,0.38-0.377c0.18,0.45,0.16,0.99-0.05,1.198
	C415.438,205.987,415.287,205.618,415.317,204.958L415.317,204.958z M414.697,201.833c0.03-0.728,0.17-0.876,0.37-0.377
	c0.18,0.45,0.16,0.99-0.05,1.198c-0.211,0.21-0.36-0.16-0.33-0.82L414.697,201.833z M414.067,199.333
	c0.029-0.728,0.18-0.876,0.38-0.377c0.18,0.45,0.16,0.99-0.05,1.198C414.188,200.365,414.047,199.995,414.067,199.333
	L414.067,199.333z M413.447,196.833c0.03-0.728,0.18-0.876,0.38-0.377c0.18,0.45,0.16,0.99-0.05,1.198
	C413.567,197.865,413.417,197.495,413.447,196.833L413.447,196.833z M412.817,194.333c0.029-0.728,0.18-0.876,0.38-0.377
	c0.18,0.45,0.16,0.99-0.05,1.198C412.938,195.365,412.787,194.995,412.817,194.333L412.817,194.333z M405.377,172.856
	c-0.37-1.05-0.53-1.907-0.37-1.907c0.42,0,1.601,3.247,1.29,3.556c-0.14,0.15-0.56-0.6-0.92-1.64V172.856z"/>
</svg>
