<?xml version="1.0" encoding="utf-8"?>
<!-- Generator: Adobe Illustrator 16.0.0, SVG Export Plug-In . SVG Version: 6.00 Build 0)  -->
<!DOCTYPE svg PUBLIC "-//W3C//DTD SVG 1.1//EN" "http://www.w3.org/Graphics/SVG/1.1/DTD/svg11.dtd">
<svg version="1.1" id="Layer_1" xmlns="http://www.w3.org/2000/svg" xmlns:xlink="http://www.w3.org/1999/xlink" x="0px" y="0px"
	 width="1241.25px" height="816.25px" viewBox="0 0 1241.25 816.25" enable-background="new 0 0 1241.25 816.25"
	 xml:space="preserve">
<path fill="#444545" stroke="#444545" stroke-width="2" stroke-miterlimit="10" d="M494.062,653.827l-430-154.17l-0.175-7.561
	l-0.175-7.562l144.2-132.11c79.31-72.662,144.603-132.068,145.095-132.013c0.493,0.055,194.228,69.383,430.522,154.063
	l429.626,153.962l-0.172,7.853l-0.17,7.852l-144.061,131.99C989.52,748.73,924.55,808.098,924.377,808.062
	c-0.173-0.034-193.816-69.44-430.316-154.234L494.062,653.827z M923.928,793.123c-0.27-0.23-193.395-69.536-429.167-154.01
	c-235.77-84.477-429.06-153.74-429.53-153.92c-0.69-0.266-0.85,1.029-0.85,6.81v7.14l429.84,154.043l429.84,154.047l0.181-6.846
	c0.1-3.765-0.04-7.033-0.311-7.265L923.928,793.123z M1070,674.363c78.203-71.606,142.267-130.25,142.365-130.32
	c0.098-0.07,0.098-3.292,0-7.16l-0.178-7.033L1068.75,661.28L925.312,792.708l-0.178,7.212l-0.177,7.212l1.427-1.29
	C927.17,805.132,991.797,745.966,1070,674.363L1070,674.363z M1068.868,660.573l143.555-131.511l-1.884-0.803
	c-1.04-0.441-194.54-69.843-430-154.225l-428.1-153.422l-22.36,20.475C131.09,423.35,65.06,484.064,65.46,484.433
	c0.766,0.718,858.538,308.025,859.226,307.83c0.343-0.1,65.224-59.359,144.181-131.689H1068.868z M756.25,572.065L695,550.146
	c-33.172-11.869-61.51-22.092-62.972-22.718l-2.66-1.14l0.16-64.54l0.159-64.54l18.906-4.63l18.906-4.63v-13.04
	c0-8.12,0.232-13.05,0.613-13.05c29.872,0,78.729,16.54,117.823,39.89l11.25,6.72l0.16,64.4l0.16,64.399l-2.973,0.681
	c-1.634,0.37-9.721,1.56-17.971,2.62c-8.25,1.06-15.634,2.079-16.407,2.239l-1.406,0.311v14.67c0,15.2,0.01,15.14-2.5,14.24V572.065
	z M758.125,507.939V444l-14.53-7.253c-36.39-18.163-67.611-29.208-103.008-36.44c-3.974-0.812-7.981-1.668-8.906-1.899l-1.68-0.42
	v127.96l63.91,22.932c35.149,12.61,63.979,22.94,64.069,22.96c0.091,0.01,0.16-28.74,0.16-63.91L758.125,507.939z M698.28,532.639
	L685,527.87v-13.667c0-12.73,0.076-13.641,1.095-13.315c0.601,0.2,6.86,2.428,13.906,4.958l12.82,4.603l0.17,13.525
	c0.14,10.62,0,13.521-0.62,13.49c-0.43-0.02-6.771-2.187-14.07-4.813L698.28,532.639z M712.5,523.889v-12.97l-2.92-1.06l-2.92-1.051
	l-8.17,7.25c-4.495,3.99-9.086,8.11-10.203,9.15c-1.116,1.04-2.03,1.72-2.03,1.51s4.36-4.24,9.688-8.96
	c11.628-10.31,11.649-8.649-0.16-12.84l-9.84-3.5l-0.17,12.521c-0.131,9.489,0.023,12.71,0.626,13.3
	c0.67,0.659,24.239,9.45,25.64,9.56c0.26,0.021,0.47-5.8,0.47-12.939L712.5,523.889z M702.35,484.309
	c-1.854-1.08-1.651-22.479,0.21-21.989c0.718,0.18,1.45,0.72,1.628,1.18c0.209,0.54,0.856,0.71,1.79,0.479
	c3.69-0.93,8.809,4.25,9.436,9.54c0.82,6.91-4.767,10.2-9.625,5.671l-1.405-1.32v3.55c0,3.67-0.193,3.94-2.03,2.87L702.35,484.309z
	 M704.217,476.859c0.22,0,1.004,0.569,1.744,1.26c3.12,2.93,7.5,2.57,8.66-0.71c2.09-5.931-4.47-14.74-9.32-12.53
	c-1.34,0.61-1.53,0.54-1.53-0.54c0-0.68-0.42-1.24-0.93-1.24c-1.26,0-1.42,19.73-0.149,20.16c0.55,0.181,0.84-0.74,0.97-3.08
	c0.109-1.83,0.37-3.33,0.59-3.33L704.217,476.859z M705.697,476.519c-3.835-4.369-1.696-12.17,2.894-10.56
	c2.44,0.85,4.55,4.29,4.55,7.4c0,5.52-3.899,7.17-7.43,3.149L705.697,476.519z M711.817,476.069c1.34-4.15-1.171-9.221-4.566-9.221
	c-2.08,0-2.86,1.21-2.86,4.45c0,5.76,5.891,9.54,7.44,4.76L711.817,476.069z M689.697,473.989c-4.15-2.16-6.564-6.021-6.564-10.471
	c0-5.63,4.36-7.75,9.505-4.64c9.639,5.83,6.84,20.2-2.939,15.1L689.697,473.989z M695.427,473.969
	c4.78-1.279,2.71-11.38-2.993-14.59c-6.439-3.62-10.569,1.66-7.069,9.03c1.855,3.91,6.543,6.49,10.06,5.55L695.427,473.969z
	 M688.229,470.299c-3.43-3.91-3.109-9.26,0.641-10.57c4.58-1.609,9.45,7.011,6.41,11.351c-1.57,2.229-4.71,1.88-7.061-0.79
	L688.229,470.299z M694.629,470.859c1.18-3.08-0.3-8.33-2.71-9.62c-5.14-2.75-7.64,3.67-3.4,8.71c1.811,2.149,5.42,2.68,6.101,0.899
	L694.629,470.859z M680.019,470.519c-3.42-1.369-3.77-2.17-3.77-8.729c0-5.561-0.12-6.15-1.25-6.51
	c-1.71-0.54-1.74-3.091-0.04-2.641c0.99,0.25,1.25-0.05,1.4-1.649c0.34-3.54,3-3.141,3,0.449c0,2.261,0.239,2.891,1.25,3.21
	c0.699,0.221,1.25,0.94,1.25,1.641c0,0.96-0.29,1.16-1.25,0.85c-2.141-0.68-1.86,8.931,0.31,10.82c2.63,2.29,2.1,3.75-0.93,2.54
	L680.019,470.519z M680.449,468.489c-2.33-1.91-2.45-12.73-0.13-12.431c1.159,0.141,1.149,0.08-0.16-0.859
	c-1.04-0.76-1.41-1.65-1.41-3.44c0-1.74-0.271-2.43-0.94-2.43c-0.659,0-0.939,0.66-0.939,2.25c0,1.74-0.21,2.17-0.94,1.89
	c-0.52-0.2-0.939-0.09-0.939,0.24s0.42,0.6,0.939,0.6c0.761,0,0.94,1.08,0.98,5.78c0.05,6.63,0.37,7.78,2.49,8.952
	c2.38,1.32,2.96,0.997,1.029-0.58L680.449,468.489z M779.919,539.009c9.06-1.2,16.59-2.17,16.72-2.17s0.23-28.87,0.23-64.16v-64.149
	l-22.66,0.399c-12.46,0.221-23.54,0.57-24.62,0.78l-1.97,0.37l5.55,16.649l5.55,16.641v98.58l2.34-0.38
	c1.29-0.21,9.761-1.36,18.83-2.561H779.919z M752.45,426.4c-3.07-9.19-5.58-16.75-5.58-16.805c0-0.553,10.81-1.107,27.689-1.42
	l20.511-0.384l-10.511-6.25c-13.1-7.79-32.88-17.77-43.89-22.135l-8.37-3.317l-19.03,19.29l-19.029,19.29l18.33-18.91
	c10.08-10.4,18.409-19.14,18.5-19.423c0.972-2.9-60.74-15.79-62.487-13.046c-0.87,1.37-0.606,24.2,0.28,24.18
	c1.803-0.03,9.462-2.28,9.64-2.83c0.104-0.32-2.033-5.09-4.75-10.59s-4.875-10.07-4.796-10.15c0.24-0.24,5.084,9.09,8.085,15.57
	l2.8,6.05l-23.535,5.74c-12.939,3.16-23.76,5.95-24.031,6.2c-0.28,0.25,2.68,1.09,6.56,1.86
	c35.29,6.977,69.65,19.065,104.873,36.899c7.39,3.74,13.63,6.82,13.86,6.851c0.233,0.02-2.086-7.48-5.154-16.67L752.45,426.4z
	 M550,498.31c-0.516-0.186-28.078-10.05-61.25-21.92c-33.172-11.868-61.51-22.09-62.972-22.713l-2.66-1.135l0.16-67.97l0.16-67.97
	l13.437-2.985c7.39-1.64,16.04-3.57,19.22-4.29l5.78-1.305v-24.296l1.406,0.308c0.779,0.17,4.22,0.61,7.66,0.98
	c37.75,4.064,71.09,15.968,111.41,39.784l8.909,5.26v133.667l-1.72,0.384c-0.939,0.21-2.14,0.489-2.65,0.619
	c-0.51,0.131-7.399,1.091-15.31,2.12c-7.9,1.03-15.29,2.03-16.4,2.221l-2.029,0.35v14.66c0,15.78,0.09,15.38-3.12,14.22L550,498.31z
	 M552.5,430.656v-67.468l-12.344-6.21c-33.45-16.83-57.271-25.908-88.594-33.768c-8.113-2.036-25.425-5.71-26.902-5.71
	c-0.79,0-0.91,8.796-0.91,67.345v67.344l63.906,22.93c35.149,12.609,64.117,22.95,64.375,22.97c0.26,0.021,0.47-30.33,0.47-67.439
	L552.5,430.656z M477.97,453.283l-12.97-4.7v-13.667c0-7.516,0.07-13.66,0.156-13.65c0.086,0.011,6.344,2.23,13.906,4.938
	l13.75,4.92l0.17,13.5c0.155,12.585,0.092,13.497-0.94,13.43C491.435,458.016,485.102,455.868,477.97,453.283L477.97,453.283z
	 M492.5,444.493V431.49l-3.027-0.971l-3.026-0.968l-10.442,9.287c-5.743,5.101-10.357,9.3-10.254,9.32
	c0.103,0.02,5.812,2.1,12.688,4.62c6.875,2.52,12.851,4.609,13.28,4.649c0.604,0.05,0.782-2.91,0.782-12.939V444.493z
	 M475.935,438.29c5.305-4.722,9.444-8.782,9.2-9.022c-0.247-0.239-4.736-1.96-9.979-3.823l-9.53-3.389v12.41
	c0,6.825,0.15,12.41,0.332,12.41C466.14,446.876,470.63,443.012,475.935,438.29z M505.625,411.434c-3.122-1.142-3.75-2.647-3.75-9
	c0-5.55-0.113-6.135-1.25-6.497c-0.7-0.222-1.25-0.945-1.25-1.646c0-0.96,0.284-1.16,1.25-0.85c1.058,0.34,1.25,0.12,1.25-1.45
	c0-1.7,0.89-2.61,2.55-2.61c0.317,0,0.575,1.25,0.575,2.77c0,2.23,0.248,2.85,1.25,3.17c0.714,0.23,1.25,0.951,1.25,1.68
	c0,0.98-0.3,1.21-1.25,0.96c-1.176-0.31-1.25-0.02-1.25,4.89c0,4.66,0.132,5.261,1.25,5.61c0.688,0.22,1.25,0.64,1.25,0.93
	s0.17,0.98,0.38,1.521c0.387,1.01-0.439,1.21-2.255,0.55V411.434z M506.875,410.022c0-0.332-0.573-0.91-1.273-1.284
	c-1.853-0.992-1.625-12.297,0.242-11.978c0.694,0.12,0.992-0.06,0.744-0.46c-0.226-0.36-0.816-0.66-1.312-0.66
	c-0.654,0-0.9-0.78-0.9-2.86c0-3.33-1.437-3.63-1.76-0.36c-0.133,1.36-0.528,1.99-1.25,2.01c-0.964,0.02-0.96,0.07,0.04,0.66
	c0.92,0.54,1.094,1.58,1.094,6.57c0,5.47,0.12,6.06,1.534,7.47c1.58,1.58,2.84,1.99,2.84,0.931L506.875,410.022z M491.195,406.278
	c-7.043-2.136-10.84-11.96-6.147-15.91c2.271-1.91,3.175-1.972,6.54-0.443C501.108,394.25,500.751,409.173,491.195,406.278
	L491.195,406.278z M496.725,404.844c3.468-4.303-0.385-13.018-6.571-14.872c-5.63-1.686-8.093,4.164-4.492,10.667
	c0.479,0.851,0.87,1.759,0.88,2.017c0.02,0.258,0.17,0.43,0.34,0.383c0.17-0.05,1.3,0.51,2.5,1.24c2.42,1.47,6.37,1.77,7.351,0.55
	L496.725,404.844z M488.425,402.299c-4.044-4.05-3.337-11.05,1.113-11.05c5.21,0,8.674,7.33,5.417,11.47
	c-1.79,2.271-3.97,2.13-6.53-0.43V402.299z M494.354,402.539c0.922-1.72,0.8-5.8-0.217-7.25c-0.475-0.68-0.89-1.5-0.92-1.82
	c-0.062-0.63-1.346-1.03-3.807-1.19c-2.168-0.14-3.483,2.35-2.895,5.5c0.858,4.569,6.2,7.81,7.837,4.75L494.354,402.539z
	 M472.326,399.109c-1.225-0.83-2.367-1.37-2.54-1.2c-2.22,2.22-2.91-0.5-2.91-11.47c0-9.74,0.11-10.92,0.988-10.58
	c0.543,0.21,1.246,0.38,1.562,0.38c0.316,0,0.574,1.62,0.574,3.6v3.61h2.36c6.206,0,10.995,8.77,7.976,14.609
	c-1.554,3-4.54,3.391-8.01,1.03V399.109z M479.652,397.979c3.586-5.121-2.266-15-8.246-13.92l-2.03,0.36v-3.78
	c0-2.1-0.278-3.78-0.626-3.78c-0.39,0-0.625,3.75-0.625,10c0,5.5,0.16,10,0.357,10c1.02,0,1.901-1.71,1.464-2.831
	c-2.397-6.14,2.017-11.19,6.374-7.3c5.146,4.6,1.747,14.2-3.681,10.4c-0.765-0.54-1.39-0.689-1.39-0.34
	c0,2.35,6.898,3.31,8.402,1.16V397.979z M477.672,395.429c1.311-3.96-1.293-9.19-4.57-9.19c-2.427,0-3.363,1.83-2.837,5.56
	c0.224,1.58,0.443,3.23,0.487,3.66c0.045,0.42,0.212,0.65,0.372,0.49s0.886,0.13,1.614,0.64c2.017,1.42,4.25,0.891,4.933-1.17
	L477.672,395.429z M572.812,465.619c8.25-1.061,15.633-2.07,16.406-2.23l1.4-0.3V330.74l-6.41-0.423c-7.43-0.49-41.439-0.19-42,0.37
	c-0.21,0.206,2.16,7.644,5.26,16.526l5.63,16.15V468.28l2.341-0.363c1.29-0.2,9.09-1.23,17.34-2.294L572.812,465.619z
	 M546.364,345.809l-5.516-15.74l3.87-0.42c2.13-0.23,13.05-0.32,24.26-0.2c11.211,0.12,20.381,0.18,20.381,0.14
	c0-0.23-18.11-10.62-24.07-13.81c-9.49-5.08-21.93-10.89-31.05-14.52l-7.66-3.05l-6.86,6.35c-7.71,7.13-27.399,25.46-29.649,27.6
	l-1.471,1.4l5.221,1.98c11.739,4.47,28.34,11.88,42.6,19.03c8.311,4.17,15.19,7.44,15.28,7.26c0.09-0.17-2.32-7.4-5.36-16.05
	L546.364,345.809z M496.564,325.529c4.468-4.18,12.842-11.96,18.607-17.3c5.768-5.34,10.268-9.91,10-10.16
	c-3.034-2.83-34.306-10.05-53.64-12.38l-8.889-1.07l-0.104,11.7l-0.104,11.69l3.938-0.89c2.166-0.49,4.59-1.04,5.386-1.23
	c1.41-0.32,1.311-0.6-3.649-10.15c-2.801-5.41-4.811-9.54-4.46-9.2c0.899,0.88,10.3,19.08,10.01,19.37
	c-0.13,0.13-10.92,2.61-23.97,5.51c-13.051,2.9-23.311,5.43-22.801,5.62c0.521,0.19,4.601,1.09,9.061,2
	c14.42,2.92,34.08,8.17,45.31,12.11c2.931,1.02,5.74,1.88,6.261,1.9c0.52,0.02,4.6-3.37,9.06-7.55L496.564,325.529z"/>
</svg>
