<?xml version="1.0" encoding="utf-8"?>
<!-- Generator: Adobe Illustrator 16.0.0, SVG Export Plug-In . SVG Version: 6.00 Build 0)  -->
<!DOCTYPE svg PUBLIC "-//W3C//DTD SVG 1.1//EN" "http://www.w3.org/Graphics/SVG/1.1/DTD/svg11.dtd">
<svg version="1.1" id="Layer_1" xmlns="http://www.w3.org/2000/svg" xmlns:xlink="http://www.w3.org/1999/xlink" x="0px" y="0px"
	 width="1227.5px" height="821.25px" viewBox="0 0 1227.5 821.25" enable-background="new 0 0 1227.5 821.25" xml:space="preserve">
<path fill="#444545" stroke="#444545" stroke-width="2" stroke-miterlimit="10" d="M489.062,653.827l-430-154.17l-0.174-7.561
	l-0.175-7.56L173.533,379.3c63.15-57.88,115.068-105.407,115.372-105.613c0.308-0.21-0.014-3.394-0.726-7.188
	c-6.16-32.82-5.03-68.64,3.06-96.91c2.4-8.39,3.89-12.73,4.37-12.73c0.2,0,0.41-0.63,0.47-1.4c0.05-0.77,0.38-1.49,0.72-1.61
	c0.34-0.11,0.47-0.57,0.3-1.02c-0.17-0.45,0.07-1.21,0.55-1.69c0.47-0.48,0.76-1.19,0.63-1.57c-0.13-0.39,0.15-1.09,0.62-1.57
	c0.47-0.47,0.73-1.25,0.57-1.72c-0.2-0.58-0.02-0.7,0.52-0.36c0.58,0.36,0.7,0.21,0.41-0.54c-0.23-0.59-0.1-1.04,0.31-1.04
	c0.39,0,0.53-0.17,0.32-0.38c-0.58-0.58,5.74-12.85,6.411-12.44c0.31,0.19,0.529-0.15,0.479-0.76
	c-0.17-2.24,18.11-27.04,19.93-27.04c0.181,0-1.279,1.83-3.25,4.07c-1.97,2.24-3.43,4.23-3.25,4.41c0.181,0.18,2.4-1.95,4.931-4.73
	c46.33-50.99,118.87-52.71,253.979-6.03c115.47,39.9,177.74,72.93,228.601,121.28c88.41,84.05,128.46,219.69,88.41,299.42
	c-29.101,57.931-31.271,67.74-22.04,99.641c1.229,4.27,2.63,9.979,3.1,12.7c1.01,5.84,1.09,5.96,3.229,4.56
	c2.5-1.64,1.92-7.59-2.14-21.9c-2.99-10.54-5.2-21.83-5.04-25.779c0.04-0.95,0.6,1.79,1.25,6.09c0.9,5.99,5.34,24.43,7.79,32.37
	c0.4,1.3,52.14-46.53,52.14-48.19c0-0.76-1.699-6.85-3.77-13.56c-8.61-27.91-8.38-40.11,1.13-60.63
	c5.99-12.921,12.54-27.811,12.33-28.021c-0.19-0.189-30.38,27.17-40.51,36.71c-1.33,1.25-2.2,1.76-1.96,1.15
	c0.229-0.601,0.68-1.09,1.01-1.09s0.45-0.23,0.27-0.521c-0.18-0.29,0.78-3.31,2.12-6.72c1.341-3.41,2.45-5.891,2.471-5.521
	c0.02,0.37-0.95,3.16-2.141,6.21c-1.2,3.04-2.09,5.62-1.99,5.721c0.971,0.97,42.271-38.601,44.71-42.851
	c47.82-83.26,3.721-229.03-94.93-313.79c-44.2-37.979-101.439-68.12-188.91-99.47l-6.72-2.41l-25.96,23.83l-25.97,23.83l15.51,5.74
	c133.26,49.4,204.63,101.99,252.47,186.04c24.61,43.25,40.9,94.27,42.381,132.74l0.289,7.5l-0.58-7.189
	c-10.289-127.73-96.05-234.81-236.22-294.98c-88.149-37.83-176.68-65.17-225.939-69.76l-8.75-0.82l7.189,0.31
	c27.59,1.2,77.3,13.7,136.391,34.31l16.88,5.89l25.95-23.82l25.949-23.82l-9.609-3.36c-121.41-42.37-185.261-47.17-234-17.56
	c-10.971,6.66-46.34,37.46-44.53,38.77c0.58,0.42,0.5,0.48-0.29,0.23c-0.6-0.2-1.09-0.13-1.09,0.14s-0.98,0.96-2.19,1.53
	c-2.66,1.27-2.93,0.85-0.31-0.5c1.18-0.62,3.68-3.67,6.79-8.3c4.39-6.55,14.72-19.52,15.54-19.52c0.17,0-1.021,1.56-2.65,3.46
	c-4.609,5.39-2.92,4.65,2.57-1.12c51.61-54.32,130.229-51.8,293.05,9.4C786.1,99.16,844.1,134.96,891.9,189.69
	c73.594,84.245,102.606,204.938,66.498,276.62c-26.32,52.247-30.428,67.033-24.733,89.006c0.979,3.779,2.806,10.807,4.057,15.613
	c1.252,4.8,2.276,9.79,2.276,11.07c0,1.95,0.178,2.271,1.094,1.94c4.641-1.65,4.49-5.08-1.096-24.891
	c-2.578-9.14-4.44-19.68-4.28-24.22c0.068-1.92,0.154-2.14,0.309-0.79c1.01,8.86,1.713,13.73,2.487,17.23l0.91,4.109l6.686,0.82
	c41.99,5.13,50.515,38.24,18.025,70.02c-2.273,2.221-4.135,3.801-4.135,3.511s-0.595,0.22-1.32,1.149
	c-0.728,0.92-1.468,1.53-1.646,1.351c-0.17-0.181-0.88,0.38-1.561,1.25c-0.68,0.859-1.39,1.42-1.58,1.229
	c-0.18-0.189-0.729,0.22-1.22,0.91c-0.479,0.689-1.11,1.109-1.39,0.939c-0.28-0.18-0.681,0.12-0.891,0.65
	c-0.199,0.53-0.63,0.811-0.939,0.62c-0.311-0.19-0.74,0.11-0.95,0.67s-0.54,0.87-0.73,0.69c-0.18-0.19-1.02,0.289-1.85,1.069
	c-1.99,1.851-8.729,5.42-9.25,4.91c-0.22-0.229-0.4-0.06-0.4,0.36s-0.279,0.59-0.619,0.38c-0.341-0.22-0.62-0.07-0.62,0.31
	s-0.28,0.521-0.62,0.311c-0.34-0.221-0.62-0.101-0.62,0.26c0,0.75-3.71,2.8-4.19,2.31c-0.18-0.18-0.75,0.091-1.27,0.61
	c-0.521,0.52-1.33,0.79-1.8,0.61c-0.471-0.181-0.86-0.011-0.86,0.38c0,0.39-0.18,0.54-0.39,0.33s-0.811,0.029-1.32,0.55
	c-0.51,0.51-1.25,0.83-1.64,0.7c-0.391-0.13-1.091,0.149-1.57,0.63c-0.48,0.479-1.25,0.72-1.72,0.54
	c-0.471-0.181-0.86-0.04-0.86,0.319c0,0.37-0.55,0.471-1.32,0.23c-0.949-0.31-1.199-0.21-0.859,0.33c0.34,0.55,0.09,0.63-0.94,0.31
	c-1.02-0.33-1.27-0.239-0.93,0.311s0.08,0.63-0.94,0.31c-0.85-0.27-1.26-0.21-1.029,0.15c0.5,0.8-4.16,2.16-5.561,1.62
	c-0.81-0.311-0.97-0.2-0.59,0.399c0.39,0.641,0.12,0.73-1.2,0.391c-1.25-0.32-1.58-0.23-1.25,0.319
	c0.34,0.551-0.07,0.641-1.54,0.351c-1.42-0.28-1.88-0.19-1.569,0.3c0.3,0.49-0.08,0.58-1.271,0.28c-1.229-0.311-1.58-0.23-1.25,0.3
	c0.34,0.54-0.18,0.63-1.979,0.32c-1.87-0.32-2.221-0.261-1.5,0.279c0.72,0.53,0.229,0.61-2.07,0.34
	c-2.17-0.26-2.88-0.159-2.561,0.36c0.32,0.521-0.359,0.601-2.5,0.311c-1.869-0.261-2.8-0.181-2.56,0.22
	c0.25,0.399-2.71,0.6-8.25,0.57c-5.58-0.03-8.19-0.24-7.38-0.601c0.8-0.35-0.33-0.43-3.12-0.22c-3.36,0.26-4.16,0.17-3.44-0.37
	c0.73-0.56,0.48-0.62-1.17-0.29c-1.51,0.3-1.989,0.21-1.67-0.3c0.311-0.51-0.06-0.59-1.27-0.29c-1.24,0.31-1.58,0.229-1.25-0.311
	c0.33-0.539-0.01-0.619-1.25-0.31c-1.29,0.32-1.59,0.23-1.23-0.36c0.351-0.58,0.13-0.67-0.85-0.359
	c-0.771,0.24-1.33,0.149-1.33-0.23c0-0.359-0.38-0.5-0.85-0.319c-0.471,0.18-1.28-0.101-1.801-0.61c-0.52-0.52-1.119-0.77-1.33-0.56
	c-0.22,0.21-0.39,0.069-0.39-0.32s-0.35-0.58-0.78-0.42c-0.96,0.359-4.85-1.931-4.85-2.86c0-0.37-0.28-0.5-0.63-0.28
	c-0.34,0.21-0.8-0.05-1-0.59c-0.21-0.54-0.61-0.83-0.9-0.649c-0.29,0.18-0.81-0.181-1.17-0.79c-0.35-0.601-0.649-0.9-0.66-0.65
	c-0.05,1.34-5.27-5.53-6.979-9.2c-1.73-3.7-2.03-5.13-2.28-10.63l-0.28-6.37l-2.26-0.779c-1.25-0.431-4.62-1.9-7.49-3.271
	c-9.39-4.47-37.52-13.95-55.319-18.62l-9.92-2.609l-1.49,1.399c-0.82,0.771-1.49,1.18-1.49,0.91c0-0.271-0.55,0.17-1.229,0.979
	c-0.681,0.811-1.24,1.24-1.25,0.961c-0.011-0.28-0.48-0.061-1.04,0.5c-0.561,0.56-1.4,0.869-1.87,0.689
	c-0.471-0.18-0.86-0.1-0.86,0.18c0,0.841-3.03,1.95-4.16,1.521c-0.76-0.29-0.909-0.18-0.529,0.43c0.409,0.65,0.079,0.74-1.49,0.431
	c-1.42-0.29-1.87-0.2-1.561,0.31c0.311,0.51-0.22,0.61-1.859,0.34c-1.37-0.22-2.15-0.14-1.94,0.22c0.22,0.351-2.399,0.58-6.58,0.58
	c-4.41,0-6.81-0.229-6.569-0.62c0.239-0.39-0.37-0.47-1.62-0.22c-1.42,0.28-1.88,0.19-1.57-0.32c0.31-0.507-0.14-0.598-1.56-0.31
	c-1.521,0.3-1.891,0.21-1.511-0.39c0.36-0.58,0.141-0.681-0.84-0.37c-0.82,0.26-1.33,0.149-1.33-0.28c0-0.38-0.26-0.54-0.58-0.34
	c-0.72,0.45-3.8-0.91-3.8-1.67c0-0.311-0.28-0.391-0.62-0.176c-0.35,0.21-0.63,0.069-0.63-0.32c0-0.391-0.28-0.525-0.63-0.311
	c-0.34,0.211-0.62,0.07-0.62-0.31s-0.256-0.54-0.57-0.35c-0.31,0.191-1.34-0.561-2.29-1.681c-0.943-1.12-1.97-1.96-2.27-1.859
	c-1.21,0.359-3.745-6.65-3.32-9.19c0.391-2.29,0.311-2.45-1.35-2.79c-0.97-0.2-11.187-2.077-22.7-4.17
	c-71.35-12.99-117.595-28.56-156.57-52.715c-1.72-1.065-3.689-2.271-4.375-2.67c-0.68-0.4-7.06-4.271-14.18-8.59
	c-11.47-6.971-13.11-7.79-14.52-7.255c-0.873,0.329-2.061,0.424-2.635,0.203c-0.739-0.284-0.899-0.17-0.55,0.4
	c0.37,0.595,0.141,0.68-0.91,0.35c-1.02-0.325-1.279-0.239-0.939,0.311s0.09,0.64-0.931,0.317c-1.046-0.337-1.279-0.25-0.915,0.34
	c0.38,0.62-0.25,0.704-2.891,0.395c-2.1-0.25-3.04-0.18-2.479,0.165c0.569,0.351-1.5,0.561-5.624,0.561
	c-4.551,0-6.15-0.181-5.271-0.591c0.896-0.42,0.4-0.5-1.75-0.27c-1.654,0.17-2.867,0.09-2.7-0.18c0.17-0.271-0.714-0.49-1.957-0.49
	c-1.242,0-2.359-0.311-2.489-0.69c-0.12-0.38-0.82-0.529-1.54-0.34c-0.96,0.25-1.181,0.13-0.82-0.46c0.34-0.54,0.21-0.71-0.37-0.5
	c-1.06,0.38-4.3-1.189-4.3-2.08c0-0.359-0.28-0.47-0.63-0.26c-0.34,0.21-0.624,0.07-0.624-0.311c0-0.38-0.26-0.539-0.58-0.34
	c-4.665,2.88-8.94-13.6-4.771-18.41c3.265-3.77,3.811-3.175-7.604-8.319c-27.62-12.44-65.17-24.811-65.17-21.48
	c0,0.311-0.42,0.391-0.94,0.19c-0.515-0.19-0.937-0.061-0.937,0.29c0,0.38-0.561,0.47-1.33,0.229c-0.82-0.26-1.18-0.18-0.94,0.21
	c0.5,0.801-2.279,1.511-3.72,0.96c-0.8-0.31-0.95-0.199-0.58,0.4c0.4,0.64,0.12,0.73-1.2,0.4c-1.239-0.311-1.58-0.221-1.239,0.319
	c0.34,0.55-0.07,0.641-1.54,0.351c-1.4-0.28-1.87-0.19-1.57,0.3c0.31,0.5-0.271,0.58-2,0.28c-1.86-0.32-2.21-0.261-1.49,0.27
	c0.72,0.54,0.38,0.6-1.47,0.3c-1.796-0.3-2.285-0.21-1.937,0.36c0.351,0.57-0.489,0.66-3.529,0.37c-2.58-0.25-3.561-0.181-2.75,0.18
	c0.81,0.36-1.98,0.57-8.011,0.6c-5.38,0.03-9.109-0.189-8.909-0.52c0.199-0.32-0.801-0.43-2.311-0.26
	c-2.072,0.239-2.45,0.149-1.72-0.41c0.729-0.55,0.32-0.61-1.793-0.29c-2.07,0.32-2.62,0.238-2.26-0.34
	c0.34-0.542,0.1-0.641-0.86-0.34c-0.73,0.229-1.33,0.149-1.33-0.19c0-0.33-0.6-0.45-1.34-0.26c-0.98,0.26-1.22,0.14-0.86-0.44
	c0.36-0.59,0.13-0.67-0.92-0.34c-1.02,0.32-1.28,0.238-0.94-0.32c0.34-0.54,0.1-0.64-0.86-0.33c-0.82,0.261-1.33,0.15-1.33-0.279
	c0-0.383-0.28-0.53-0.62-0.313c-0.35,0.21-0.63,0.07-0.63-0.31s-0.28-0.521-0.63-0.311c-0.34,0.217-0.625,0.07-0.625-0.31
	c0-0.383-0.28-0.524-0.62-0.31c-0.34,0.21-0.62,0.069-0.62-0.311c0-0.384-0.28-0.53-0.627-0.31c-0.35,0.21-0.63,0.069-0.63-0.311
	c0-0.39-0.28-0.53-0.628-0.319c-0.34,0.21-0.62,0.069-0.62-0.313s-0.28-0.52-0.63-0.31c-0.347,0.21-0.63,0.069-0.63-0.311
	c0-0.39-0.26-0.54-0.58-0.34c-0.32,0.19-1.16-0.39-1.88-1.3c-0.71-0.91-1.31-1.41-1.32-1.101c-0.01,0.301-0.57-0.109-1.25-0.93
	c-0.67-0.81-1.23-1.263-1.23-1.01c0,1.3-5.08-6.18-6.6-9.7c-8.29-19.28,11.29-52.02,40.17-67.17c0.07-0.04-0.56-2.303-1.399-5.04
	c-0.841-2.74-1.45-5.23-1.346-5.54c0.101-0.31,0.83,1.66,1.61,4.377c0.78,2.717,1.8,5.78,2.27,6.81
	c5.03,11.2,4.54,28.682-1.303,46.34c-3.75,11.34-3.859,12.34-1.52,14.06c3.27,2.4,5.396,2.22,5.83-0.5
	c0.22-1.32,1.68-6.326,3.25-11.12c8.27-25.24,6.159-36.35-21.131-110.976c-53.459-146.25,19.5-255.98,157.07-236.23
	c72.18,10.37,216.57,64.04,280.271,104.19c127.5,80.36,192.6,236.8,141.29,339.515c-27.891,55.83-29.5,64.09-19.67,100.63
	c1.18,4.396,1.81,7.99,1.609,9.25c-0.359,2.301,0.266,2.73,5.04,3.471c3.521,0.54,3.521,0.58,1.07-8.681
	c-1.175-4.46-2.84-10.779-3.69-14.05c-6.06-23.24-2.404-36.71,24.521-90.31C942.85,430.32,885,275.55,774.05,193.803
	C693.16,134.33,509.62,68,425.94,68.087c-103.815,0.11-165.98,101.236-133.056,216.44c0.868,3.036,1.447,5.647,1.288,5.806
	c-0.29,0.3-3.2-9.98-4.06-14.38l-0.48-2.44l-114.84,105.21C111.668,436.64,60.2,484.19,60.46,484.44
	c0.262,0.241,193.65,69.663,429.75,154.27l429.274,153.82l2.109-1.734c1.16-0.954,65.944-60.233,143.967-131.733l141.86-130
	l-1.91-0.815c-16.76-7.134-234.04-83.78-234.77-82.817c-0.82,1.08-0.851,1.07-0.521-0.109c2.37-8.616,3.2-11.34,3.63-11.83
	c0.431-0.487-0.76,4.234-2.22,8.853c-0.35,1.104,10.13,4.978,118.08,43.657l118.46,42.447l-0.17,7.854l-0.17,7.86l-144.061,131.99
	c-79.229,72.6-144.2,131.97-144.37,131.93c-0.17-0.03-193.81-69.44-430.31-154.23L489.062,653.827z M918.93,793.123
	c-0.27-0.23-193.395-69.536-429.167-154.01C253.99,554.637,60.7,485.373,60.23,485.193c-0.693-0.266-0.855,1.029-0.855,6.81v7.14
	L489.22,653.185l429.84,154.048l0.179-6.846c0.098-3.765-0.043-7.033-0.312-7.265L918.93,793.123z M1065,674.363
	c78.203-71.606,142.267-130.25,142.365-130.32c0.098-0.07,0.098-3.292,0-7.16l-0.178-7.033L1063.75,661.28L920.312,792.708
	l-0.178,7.212l-0.177,7.212l1.427-1.29C922.17,805.132,986.797,745.966,1065,674.363L1065,674.363z M889.51,659.643
	c3.88-0.539,9.426-1.533,12.326-2.21c2.9-0.674,5.658-1.08,6.127-0.899c0.527,0.203,0.684,0.054,0.41-0.391
	c-0.302-0.485-0.012-0.602,0.905-0.361c0.741,0.199,1.216,0.14,1.055-0.12c-0.31-0.5,10.633-4.12,12.052-3.98
	c0.453,0.04,0.66-0.08,0.46-0.29c-0.55-0.55,3.434-2.06,4.19-1.6c0.385,0.24,0.473,0.11,0.212-0.31
	c-0.414-0.671,0.452-0.971,2.59-0.891c0.426,0.021,0.59-0.27,0.366-0.63c-0.257-0.41-0.01-0.51,0.664-0.25
	c0.723,0.28,0.927,0.18,0.625-0.31c-0.3-0.49-0.097-0.591,0.625-0.311c0.59,0.23,0.928,0.181,0.75-0.109
	c-0.348-0.561,5.772-3.641,6.678-3.351c0.3,0.101,0.34-0.16,0.086-0.57c-0.31-0.51-0.12-0.619,0.62-0.329
	c0.73,0.279,0.93,0.18,0.63-0.311s-0.09-0.59,0.63-0.31c0.641,0.25,0.92,0.16,0.69-0.2c-0.35-0.57,0.51-0.89,1.77-0.67
	c0.29,0.05,0.341-0.2,0.12-0.55c-0.359-0.58,0.48-0.92,1.761-0.7c0.289,0.05,0.34-0.2,0.119-0.55c-0.359-0.58,0.48-0.92,1.761-0.7
	c0.29,0.05,0.34-0.2,0.12-0.55c-0.381-0.61,0.529-0.931,1.869-0.66c0.341,0.07,0.41-0.08,0.16-0.34c-0.54-0.54,3.28-3.101,4.22-2.83
	c0.351,0.1,0.421-0.03,0.16-0.28c-0.55-0.55,2.07-2.53,2.97-2.24c0.341,0.11,0.421-0.01,0.16-0.26c-0.55-0.55,2.07-2.53,2.971-2.24
	c0.35,0.11,0.449,0.03,0.229-0.189c-0.22-0.21,1.16-1.86,3.06-3.641c1.91-1.79,4.511-4.569,5.801-6.18s2.54-2.74,2.779-2.5
	c0.24,0.24,0.341,0.16,0.23-0.19c-0.11-0.34,0.66-1.89,1.71-3.43c19.01-28.02,7.47-51.68-27.41-56.24
	c-7.55-0.979-7.13-1.71-4.5,7.87c4.51,16.42,3.47,20.71-4.91,20.13l-2.71-0.189l-25.42,23.29l-25.42,23.29v3.38
	c0,6.21-4.54,7.56-14.06,4.16c-11.29-4.04-38.2-13.74-39.22-14.141c-0.971-0.39-1.091,0.021-1.08,3.851
	c0.02,9.77,4.18,17.739,12.01,23.02c1.64,1.11,2.77,2.22,2.51,2.47c-0.26,0.261-0.18,0.41,0.16,0.341
	c1.58-0.32,2.859,0.069,2.439,0.75c-0.26,0.42-0.17,0.55,0.211,0.31c0.89-0.55,4.689,1.1,4.079,1.76c-0.26,0.29-0.18,0.36,0.19,0.15
	s2.9,0.2,5.63,0.91c9.53,2.47,21.65,2.989,32.91,1.42L889.51,659.643z M878.504,639.011c-0.208-0.54-0.38-1.45-0.382-2.03
	c0-0.789-0.67-1.079-2.78-1.199c-1.53-0.09-3.515-0.44-4.413-0.78c-1.569-0.6-1.63-0.54-1.439,1.39c0.17,1.75,0.52,2.12,2.689,2.771
	c3.811,1.149,6.78,1.08,6.311-0.141L878.504,639.011z M868.749,636.101c0-3.77-40.38-18.06-48.75-17.239
	c-2.82,0.279,0.18,1.52,27.5,11.42c21.979,7.97,21.25,7.77,21.25,5.83V636.101z M869.079,631.731c0.37-1.5,0-3.25-4.08-18.9
	c-5.771-22.16-4.04-35.41,8-61.37c2.1-4.53,4.51-9.89,5.36-11.89c0.84-2,4.319-9.12,7.729-15.811
	c18.34-36.04,23.28-79.71,13.91-123.1c-21.23-98.33-79.42-176.32-169.39-227c-72.23-40.68-205.381-87.51-272.5-95.83
	c-131.4-16.28-201.03,96.38-147.381,238.46c4.66,12.34,14.721,41.06,18.71,53.44c7.5,23.25,7.921,36.66,1.74,55.63
	c-2.52,7.72-3.899,13.63-3.069,13.12c0.26-0.16,0.6,0.21,0.76,0.829c0.22,0.851,3.02,1.91,11.79,4.45
	c18.37,5.33,25.83,8.45,36.42,15.24c3.189,2.05,8.09,4.31,13.91,6.41l8.979,3.25l-1.81-3.21c-1-1.76-4.36-7.75-7.48-13.3
	c-3.12-5.551-11.35-19.471-18.29-30.931c-33.29-54.97-39.84-66.5-49.52-87.09c-62.3-132.58-6.2-256.88,114.27-253.21
	c81.11,2.48,260.59,68.59,332.5,122.48c114.641,85.9,164.681,241.23,105.431,327.24c-9.07,13.17-19.32,24.07-42.921,45.631
	c-11.279,10.31-33.079,31.949-34.109,33.869c-0.82,1.521,15.88,7.181,22.82,7.721c9.76,0.77,18.33,3.34,34.409,10.31
	c12.511,5.43,13.261,5.62,13.761,3.6L869.079,631.731z M803.749,603.351c3.61-3.949,12.17-12.439,19.03-18.85
	c6.859-6.41,16.7-15.62,21.87-20.47c54.92-51.43,68.25-111.311,43.069-193.38c-29.88-97.36-94.779-165.98-203.979-215.67
	c-21.51-9.78-81.48-33.7-84.51-33.7c-0.28,0-0.5,5-0.5,11.1c0,11.6-0.811,35.08-1.91,55.71c-0.36,6.66-0.521,12.24-0.36,12.39
	c0.78,0.79,17.811,6.79,23.82,8.39c13.81,3.7,28.74,3.09,39.359-1.61c1.98-0.88,3.75-1.59,3.931-1.59
	c1.43,0-0.521,78.88-2.92,117.81c-6.62,107.5-8.19,147.85-8.391,214.22l-0.12,40.47l2.181,0.41c1.2,0.229,14.56,2.72,29.689,5.53
	l27.5,5.109l1.341-6.3c9.34-43.95,45.869-57.26,74.329-27.09c18.28,19.39,11.37,46.44-8.899,34.86
	c-12.38-7.07-13.67-20.851-2.61-27.69l1.67-1.03l-1.79-3.3c-12.569-23.2-36.76-6.76-41.54,28.24c-0.489,3.6-0.83,6.569-0.76,6.609
	s4.34,1.011,9.5,2.15c13.33,2.96,32.8,8.23,43.75,11.86c5.16,1.71,9.66,3.1,10,3.08c0.34-0.011,3.58-3.25,7.19-7.21L803.749,603.351
	z M735.959,605.971c2.65-0.51,5.11-0.739,5.46-0.529c0.39,0.25,0.44,0.08,0.12-0.431c-0.38-0.6-0.23-0.71,0.56-0.41
	c0.591,0.23,0.921,0.181,0.75-0.109c-0.319-0.51,4.45-2.311,5.46-2.061c0.28,0.07,0.351-0.13,0.16-0.439
	c-0.39-0.61,1.41-1.62,2.45-1.37c0.34,0.09,0.41-0.05,0.16-0.311c-0.25-0.25-0.021-0.779,0.51-1.17c0.771-0.56-0.979-1.14-8.6-2.819
	c-11.891-2.61-11.601-2-8.24-17.41c0.54-2.51,0.83-4.72,0.64-4.91c-0.63-0.62-8.909-1.3-12.119-0.99l-3.141,0.301l-1.18,5.64
	c-1.141,5.479-1.26,5.71-4.3,8.27l-3.13,2.631l-7.28-1.341l-7.271-1.35l-0.34,2.54c-0.41,3.01,1.38,6.55,4.83,9.58
	c1.19,1.05,1.97,2.1,1.74,2.33c-0.23,0.24-0.141,0.35,0.2,0.25c1-0.28,5.279,1.5,4.939,2.06c-0.18,0.28,0.17,0.32,0.76,0.09
	c0.78-0.3,0.931-0.189,0.561,0.421c-0.29,0.47-0.271,0.68,0.05,0.489c0.311-0.189,2.811,0.17,5.561,0.79
	c6.21,1.4,14.319,1.521,20.649,0.311L735.959,605.971z M790.169,591.661c1.11-0.47,2.66-1.561,3.46-2.43l1.44-1.57h-3.17
	c-10.08,0-21.62-14.39-17.591-21.93c1.051-1.971-0.06-1.631-2.26,0.689c-9.71,10.26,5.03,30.811,18.101,25.24H790.169z
	 M716.879,584.371c0.351-0.65,1.18-3.82,1.84-7.061c1.811-8.819,12.521-31.989,12.521-27.1c0,0.271-1.36,2.521-3.021,5
	c-2.56,3.83-7.609,14.86-7.609,16.63c0,0.311,2.319,0.55,5.149,0.54s6.28,0.17,7.66,0.4l2.5,0.43l3-6.35
	c4.69-9.91,18.26-23.09,25.431-24.69c2.149-0.479,2.119-0.5-2.19-1.569c-10.07-2.49-19.94-0.12-27.64,6.63
	c-1.79,1.58-3.48,2.92-3.75,2.979c-5.211,1.25-18.03,27.54-18.29,37.53c-0.03,0.8,3.659-2.021,4.37-3.34L716.879,584.371z
	 M794.399,586.891c9.62,0-0.271-27.069-13.28-36.33l-1.78-1.26l2.21,3.65l2.21,3.64l-4.37,4.17c-5.56,5.3-6.409,8.94-3.529,15.021
	c3.01,6.34,12.31,12.77,16.51,11.41c0.46-0.15,1.36-0.271,2.01-0.271L794.399,586.891z M939.359,582.211
	c0-1.89-0.21-2.189-1.49-2.189c-1.6,0-2.77,3.42-1.37,4c2.061,0.859,2.851,0.35,2.851-1.811H939.359z M938.009,574.241
	c-0.659-2.83-1.87-7.41-2.689-10.16c-8.79-29.32-6.07-41.16,22.43-97.75c36.11-71.68,7.09-192.4-66.5-276.62
	c-47.38-54.22-105.439-89.99-209.71-129.18C518.7-0.71,440.69-3.24,388.6,51.01c-2.752,2.87-5.224,5.08-5.489,4.916
	c-0.269-0.17-1.351,0.68-2.406,1.88c-2.561,2.91-8.72,12.1-7.383,11.01c0.58-0.475,1.05-0.677,1.05-0.45
	c0,0.222,5.4-4.54,11.99-10.59c56.689-52,112.54-54.91,240.199-12.47c112.271,37.32,177.461,69.61,227.82,112.852
	c98.93,84.95,143.13,229.47,95.94,313.71c-1.83,3.266-5.57,11-8.33,17.188c-2.75,6.19-6.25,13.92-7.78,17.19
	c-10.09,21.56-10.46,33.22-1.93,61.18c3.529,11.59,3.689,11.95,5.3,11.95h1.66l-1.19-5.156L938.009,574.241z M374.37,67.9
	c0-0.59,8.13-11.65,8.566-11.65c0.181,0,0.061,0.352-0.29,0.78c-0.34,0.43-2.348,3.153-4.449,6.05
	c-2.11,2.896-3.837,5.066-3.837,4.82H374.37z M651.83,574.22c0.025-0.946-0.236-1.72-0.58-1.72s-0.605,1.336-0.58,2.97
	C650.716,578.686,651.745,577.58,651.83,574.22L651.83,574.22z M648.75,577.005c0-5.342-15.311-41.49-23-54.296l-4.188-6.98
	l-31.875-11.409l-32.702-11.7c-0.456-0.17,0.845,3.04,2.892,7.13c7.262,14.5,12.568,30.47,16.372,49.28
	c2.234,11.04,1.023,9.59,10.627,12.729c19.595,6.4,61.875,16.811,61.875,15.24V577.005z M612.9,526.89
	c-4.727-4.357-6.073-9.39-2.513-9.39c2.055,0,8.048,5.717,8.694,8.293C620.16,530.088,616.982,530.653,612.9,526.89L612.9,526.89z
	 M618.75,527.47c0-3.229-5.524-9.345-8.44-9.345c-1.907,0-1.994,1.072-0.347,4.303c2.465,4.832,8.787,8.458,8.787,5.04V527.47z
	 M579.32,516.895c-4.188-4.404-6.311-10.16-4.064-11.021c2.016-0.775,7.293,3.583,9.4,7.76
	C587.426,519.132,583.646,521.441,579.32,516.895L579.32,516.895z M585,517.156c0-4.016-5.904-10.906-9.344-10.906
	c-1.061,0-0.754,2.982,0.572,5.582C579.186,517.632,585,521.16,585,517.156z M646.963,564.063
	c-7.216-20.456-17.689-42.878-22.832-48.873c-2.54-2.968-1.06,2.174,2.11,7.345c6.92,11.254,15.47,30.654,21.03,47.716
	c2.18,6.67,2.439,7.19,2.609,5c0.13-1.67-0.78-5.16-2.9-11.18L646.963,564.063z M651.823,532.656
	c0.013-59.3,1.239-91.658,7.54-198.906c1.363-23.203,2.613-43.523,2.777-45.156c0.23-2.253,0.101-2.97-0.56-2.97
	c-1.3,0-2.54,18.41-7.19,106.25c-4.27,80.85-5.97,180-3.09,180c0.29,0,0.53-17.647,0.53-39.218H651.823z M649.743,523.281
	c0.065-55.891,1.595-95.43,7.45-192.69c0.859-14.28,1.425-27.78,1.256-30c-0.23-2.95-0.15-3.61,0.279-2.46
	c0.48,1.27,0.53,1.09,0.261-0.99c-0.181-1.4-0.03-4.92,0.33-7.81c1.109-8.9,2.64-37,2.819-52.13c0.101-7.9,0.391-18.1,0.66-22.66
	l0.49-8.29l-3.63,1.61c-14.45,6.39-31.48,5.34-54.66-3.38c-4.63-1.74-8.49-3.08-8.6-2.97c-0.101,0.1-0.61,6.49-1.141,14.2
	c-1.26,18.49-2.45,32.05-4.43,50.17c-0.9,8.2-1.39,15.13-1.09,15.42c0.29,0.28,10.229,3.96,22.09,8.18
	c11.86,4.22,21.67,7.75,21.8,7.84c0.85,0.63-14.06,92.07-15.189,93.21c-0.16,0.16-10.051-3.26-21.98-7.6
	c-11.93-4.34-21.75-7.82-21.81-7.73c-0.07,0.09-1.311,6.22-2.761,13.61c-3.109,15.81-9.5,44.98-13.38,61.07l-2.739,11.36l1.63,0.59
	l32.479,11.65c16.97,6.09,31.061,10.829,31.32,10.54c0.63-0.7,7.979-31.95,12.55-53.381c12.61-59.05,21.12-115.12,26.19-172.45
	c0.949-10.82,1.76-18.56,1.8-17.18c0.33,12.8-7.391,78.39-13.97,118.75c-5.94,36.4-20.62,107.37-25.7,124.22
	c-0.21,0.699,0,1.1,0.609,1.1c1.17,0,0.61,2.03,6.98-25.31c10.569-45.37,20.28-97.911,25.93-140.311c1.311-9.79,2.4-17.09,2.44-16.2
	c0.51,13.34-16,106.26-28.021,157.65l-5.67,24.26v29.42l3.99,6.65c7.11,11.85,13.08,25.14,19.17,42.74
	c1.16,3.35,2.12,6.09,2.13,6.09s0.04-21.021,0.07-46.72L649.743,523.281z M609.68,459.371c-4-4.41,1.17-24.99,6.275-24.99
	c4.367,0,4.314,14.811-0.078,22.34c-2.3,3.94-4.277,4.79-6.2,2.66L609.68,459.371z M613.714,458.791
	c4.727-4.72,6.83-20.979,3.024-23.38c-2.301-1.45-5.338,3.31-7.055,11.06c-2.13,9.62,0.055,16.311,4.03,12.33V458.791z
	 M575.344,446.331c-3.51-6.79,2.915-26.42,7.795-23.81c5.34,2.859,0.92,24.8-5.14,25.5c-1.34,0.159-1.89-0.19-2.66-1.69H575.344z
	 M581.222,444.641c3.944-6.22,5.011-20.409,1.63-21.71c-2.281-0.869-4.895,2.99-6.693,9.9c-3.004,11.54,0.322,19.29,5.063,11.82
	V444.641z M780.792,558.911l2.3-2.35l-2.548-4.25c-5.78-9.65-14.05-11.96-22.578-6.32c-5.045,3.34-5.214,3.67-1.088,2.1
	c7.424-2.819,14.4,0.91,19.13,10.22c1.816,3.58,1.883,3.591,4.783,0.62L780.792,558.911z M575.614,549.031
	c-3.8-18.78-9.181-34.92-16.577-49.72l-3.641-7.28l-32.229-11.561c-37.23-13.35-33.638-12.729-28.944-4.96
	c6.884,11.4,14.23,28.391,20.187,46.71l2.64,8.131l15.061,7.89c16.55,8.67,21,10.74,35.38,16.49c11.569,4.63,10.37,5.47,8.109-5.681
	L575.614,549.031z M546.366,505.371c-2.856-2.58-5.908-7.93-5.63-9.88c0.39-2.75,2.84-2.13,6.479,1.62
	c6.488,6.7,5.717,14.2-0.85,8.27V505.371z M550.926,506.291c0.88-1.42-1.107-5.83-3.974-8.8c-5.16-5.351-7.565-3.53-3.862,2.92
	c2.73,4.76,6.69,7.74,7.836,5.89V506.291z M515.23,493.131c-3.021-1.16-8.351-7.85-8.356-10.47c-0.008-4.76,9.58,2.05,11.034,7.85
	c0.494,1.971-0.885,3.32-2.677,2.63L515.23,493.131z M517.497,491.451c0-2.93-6.517-10.17-9.156-10.17c-2.22,0-0.58,4.189,3.19,8.17
	c3.39,3.58,5.97,4.439,5.97,2H517.497z M512.479,518.631c-6.061-17.83-13.99-35.45-20.86-46.33l-3.5-5.529l0.01-15.4
	c0-11.12,0.19-15.14,0.68-14.46c0.53,0.74,0.601,0.62,0.33-0.57c-0.46-2.069,2.181-12.77,2.9-11.76c0.35,0.49,0.42,0.2,0.19-0.79
	c-0.49-2.1,5.319-27.11,6.05-26.08c0.34,0.48,0.41,0.15,0.189-0.88c-0.51-2.34,0.25-5.89,1.021-4.8c0.41,0.58,0.479,0.35,0.229-0.73
	c-0.52-2.25,0.88-9.08,1.641-8.02c0.399,0.57,0.47,0.34,0.229-0.73c-0.47-2.05,6.61-37.68,7.28-36.69c0.28,0.42,0.33-0.37,0.12-1.75
	c-0.29-1.89-0.22-2.27,0.29-1.56c0.51,0.7,0.59,0.24,0.31-1.88c-0.29-2.15-0.21-2.59,0.32-1.87c0.53,0.72,0.61,0.36,0.31-1.56
	c-0.29-1.89-0.22-2.27,0.301-1.56c0.51,0.71,0.579,0.24,0.3-1.87c-0.29-2.2-0.221-2.61,0.35-1.87c0.58,0.76,0.65,0.61,0.351-0.77
	c-0.511-2.35,0.27-7.09,0.989-6c0.32,0.5,0.391-0.29,0.17-1.98c-0.29-2.2-0.21-2.61,0.36-1.87c0.58,0.75,0.65,0.59,0.33-0.85
	c-0.521-2.36,2.27-19.63,2.92-18.09c0.26,0.63,0.34-0.27,0.17-1.99c-0.22-2.29-0.14-2.79,0.3-1.87c0.44,0.91,0.521,0.31,0.311-2.18
	c-0.23-2.54-0.141-3.11,0.319-2.19c0.46,0.93,0.53,0.44,0.271-1.87c-0.26-2.3-0.17-2.88,0.32-2.18c0.489,0.69,0.569,0.12,0.3-2.19
	c-0.271-2.32-0.19-2.88,0.31-2.18c0.5,0.7,0.58,0.14,0.311-2.18c-0.261-2.32-0.181-2.88,0.319-2.19c0.5,0.7,0.58,0.13,0.311-2.19
	c-0.271-2.36-0.19-2.89,0.33-2.18c0.52,0.71,0.609,0.1,0.35-2.5c-0.24-2.45-0.17-3.08,0.26-2.19c0.431,0.9,0.521,0.19,0.33-2.5
	c-0.21-2.87-0.13-3.38,0.33-2.19c0.51,1.31,0.561,1.16,0.311-0.94c-0.41-3.38,1.04-15.83,1.659-14.29
	c0.261,0.64,0.341-0.52,0.181-2.58s-0.08-3.27,0.189-2.68c0.261,0.59,0.48-1.94,0.49-5.63c0.021-8.18,2.22-36.42,2.811-36.06
	c0.229,0.15,0.3-0.38,0.149-1.17c-0.149-0.78,0.17-7.88,0.72-15.76c0.54-7.88,1.17-18.19,1.4-22.92c0.48-10.18,0.12-9.99,5.74-3.04
	c14.25,17.63,36.34,31.59,58.96,37.26l1.64,0.41l0.391-5.83c0.88-13.08,1.63-32.61,2.02-52.43l0.41-20.97l-3.69-1.34
	C504.28,86.79,442.8,75.7,400.04,84.44c-87.094,17.79-126.025,118.92-86.722,225.27c10.439,28.26,19,44.232,59.774,111.56
	c6.97,11.513,15.9,26.7,19.84,33.75c8.638,15.44,6.61,13.45,18.284,17.99c11.552,4.494,22.62,9.483,35.164,15.851l9.23,4.689
	l-0.38-2.229c-6.181-36.511-27.23-73.7-36.48-64.45c-3.37,3.38-3.48,4.82-0.68,8.82c9.68,13.81,8.85,26.8-1.63,25.369
	c-14.221-1.939-24.08-28.27-14.4-38.43c20.34-21.35,57.01,18.72,68.92,75.3l1.07,5.08l6.319,3.75c3.48,2.07,13.07,7.851,21.32,12.86
	c17.41,10.57,16.73,10.62,12.8-0.979L512.479,518.631z M621.219,499.791c-0.05-10.81-0.26-14.6-0.8-14.59
	c-1.95,0.06-2.97-0.22-2.649-0.74c0.189-0.31-0.261-0.41-1-0.21c-0.87,0.22-1.2,0.11-0.94-0.31s-0.08-0.54-0.94-0.311
	c-0.869,0.23-1.199,0.12-0.939-0.31c0.26-0.42-0.08-0.54-0.94-0.311c-0.85,0.221-1.2,0.11-0.95-0.3
	c0.221-0.359,0.051-0.64-0.369-0.62c-1.961,0.07-3.011-0.21-2.69-0.729c0.19-0.311-0.26-0.41-1-0.21
	c-0.87,0.229-1.2,0.12-0.94-0.311c0.261-0.43-0.08-0.54-0.939-0.31c-0.87,0.22-1.2,0.11-0.94-0.311
	c0.261-0.42-0.08-0.539-0.939-0.31c-0.851,0.23-1.2,0.12-0.95-0.3c0.22-0.36,0.05-0.641-0.37-0.62c-1.96,0.07-3.01-0.22-2.69-0.73
	c0.19-0.31-0.26-0.409-1-0.22c-0.869,0.23-1.199,0.11-0.939-0.31s-0.08-0.54-0.94-0.311c-1.01,0.271-1.22,0.15-0.84-0.46
	c0.311-0.49,0.26-0.67-0.109-0.439c-0.801,0.5-5.25-0.86-4.86-1.48c0.16-0.25-0.32-0.31-1.061-0.109
	c-0.869,0.229-1.199,0.119-0.939-0.311c0.26-0.42-0.07-0.54-0.94-0.31c-0.85,0.22-1.199,0.109-0.949-0.301
	c0.22-0.359,0.05-0.64-0.37-0.63c-1.96,0.07-3.011-0.22-2.69-0.729c0.19-0.311-0.26-0.41-1-0.21c-0.87,0.229-1.2,0.12-0.939-0.311
	c0.26-0.43-0.07-0.54-0.94-0.31c-0.86,0.229-1.2,0.11-0.93-0.311c0.26-0.43-0.07-0.54-0.94-0.31c-0.85,0.22-1.2,0.11-0.95-0.3
	c0.221-0.36,0.061-0.641-0.37-0.63c-1.96,0.069-3.01-0.221-2.689-0.74c0.189-0.31-0.26-0.41-1-0.21c-0.87,0.22-1.2,0.11-0.94-0.32
	c0.261-0.42-0.08-0.54-0.939-0.31c-0.87,0.229-1.2,0.12-0.94-0.311c0.26-0.42-0.069-0.54-0.939-0.31c-0.851,0.22-1.2,0.11-0.95-0.3
	c0.22-0.36,0.05-0.641-0.37-0.63c-1.96,0.069-3.01-0.21-2.69-0.73c0.19-0.31-0.26-0.41-1-0.21c-0.869,0.23-1.199,0.12-0.939-0.31
	c0.26-0.431-0.08-0.54-0.94-0.311c-1.01,0.271-1.22,0.15-0.85-0.46c0.31-0.5,0.27-0.67-0.11-0.439c-0.8,0.489-5.24-0.86-4.859-1.48
	c0.159-0.26-0.32-0.31-1.061-0.12c-0.859,0.23-1.2,0.12-0.939-0.31c0.27-0.42-0.07-0.54-0.931-0.311
	c-0.77,0.2-1.2,0.101-0.989-0.239c0.199-0.32-0.12-0.591-0.721-0.591c-2.01,0-63.779-22.43-63.239-22.97
	c0.29-0.29,14.71,4.561,32.04,10.78c17.329,6.22,31.8,11.3,32.149,11.3c0.65,0,1.33-2.69,7.73-30.62
	c3.859-16.85,11.239-52.48,11.239-54.31c0-0.85-4.31-2.66-20.159-8.47c-11.091-4.06-20.37-7.57-20.62-7.8
	c-0.261-0.22,1.38-10.66,3.63-23.19c2.25-12.53,5.63-33.32,7.51-46.19s3.54-23.53,3.7-23.69c0.16-0.16,9.37,3.09,20.45,7.22
	c11.09,4.14,20.22,7.35,20.29,7.13c0.949-2.76,6.92-69.82,7.05-79.19c0.01-0.37-1.19-1.03-2.65-1.46
	c-25.08-7.37-44.319-19.68-58.59-37.49l-4.06-5.07l-0.391,16.73c-0.21,9.2-0.42,18.22-0.47,20.04c-0.04,1.82-0.29,3.19-0.55,3.03
	s-0.4,2.28-0.33,5.43c0.08,3.15-0.08,5.2-0.34,4.56c-0.271-0.64-0.36,1.58-0.221,4.93c0.15,3.4,0.03,5.94-0.279,5.75
	c-0.301-0.19-0.48,1.25-0.4,3.2c0.14,3.59-0.03,3.71-0.74,0.49c-0.22-0.98-0.54-1.64-0.72-1.47c-0.18,0.18-0.01,1.51,0.38,2.96
	c0.46,1.73,0.54,4.58,0.23,8.34c-0.36,4.26-0.591,5.24-0.91,3.84c-0.24-1.03-0.34,0.38-0.21,3.13c0.17,3.75,0.08,4.53-0.36,3.12
	c-0.51-1.63-0.54-1.52-0.27,0.85c0.39,3.45-1.061,16.31-1.66,14.7c-0.24-0.65-0.33,0.66-0.2,2.89c0.17,3,0.08,3.65-0.35,2.5
	c-0.46-1.23-0.521-0.95-0.271,1.25c0.19,1.68-0.83,10.64-2.53,22.32c-1.569,10.73-2.87,19.87-2.89,20.31s-0.29,0.24-0.59-0.44
	c-0.36-0.83-0.45-0.21-0.26,1.88c0.21,2.28,0.119,2.78-0.311,1.87c-0.439-0.91-0.52-0.41-0.31,1.87c0.21,2.28,0.12,2.78-0.311,1.87
	c-0.439-0.91-0.52-0.4-0.31,1.88c0.22,2.41,0.14,2.84-0.36,1.87c-0.55-1.07-0.6-0.99-0.3,0.52c0.49,2.52-1.05,12.18-1.7,10.65
	c-0.34-0.8-0.399-0.57-0.18,0.7c0.56,3.2-9.04,52.95-9.86,51.11c-0.35-0.79-0.399-0.66-0.18,0.45c0.46,2.29-0.95,9.06-1.68,8.01
	c-0.391-0.56-0.45-0.39-0.19,0.55c0.56,2-0.3,6.17-1.05,5.09c-0.41-0.59-0.47-0.42-0.2,0.54c0.56,2.008-0.3,6.178-1.05,5.09
	c-0.41-0.583-0.47-0.42-0.2,0.54c0.56,2-0.3,6.17-1.05,5.09c-0.4-0.58-0.46-0.4-0.18,0.58c0.52,1.847-1.61,11.066-2.311,9.987
	c-0.28-0.43-0.35,0.19-0.14,1.4c0.27,1.64,0.2,1.95-0.3,1.25c-0.49-0.7-0.58-0.3-0.351,1.57c0.24,1.99,0.17,2.25-0.34,1.25
	c-0.57-1.09-0.61-1.04-0.33,0.41c0.45,2.31-0.31,5.89-1.01,4.8c-0.32-0.5-0.391,0.04-0.17,1.357c0.279,1.66,0.2,1.96-0.311,1.25
	c-0.51-0.72-0.59-0.42-0.31,1.25c0.28,1.66,0.2,1.96-0.311,1.25c-0.52-0.72-0.59-0.42-0.31,1.25c0.28,1.65,0.2,1.95-0.3,1.25
	c-0.83-1.159-0.851-0.859-0.11,1.71c0.351,1.24,0.351,2.154,0,2.374c-0.33,0.2-0.58,6.5-0.569,14.54l0.01,14.181l65.77,23.569
	c36.181,12.96,65.851,23.58,65.95,23.59c0.1,0.011,0.15-6.55,0.12-14.59L621.219,499.791z M542.739,435.801
	c-3.36-2.239-2.54-14.21,1.47-21.569c4.72-8.67,9.29-2.261,6.83,9.58c-1.87,8.97-5.34,13.979-8.3,12V435.801z M546.259,434.251
	c4.091-4.35,6.48-19.86,3.521-22.82c-1.43-1.42-3.21-0.39-5,2.891c-5.43,9.97-4.24,26.01,1.47,19.939L546.259,434.251z
	 M508.099,422.681c-3.71-4.689,1.57-24.529,6.53-24.529c3.95,0,4.28,13.319,0.521,20.939c-1.17,2.37-3.9,5.32-4.92,5.32
	c-0.431,0-1.391-0.77-2.141-1.72L508.099,422.681z M512.309,422.371c4.15-4.54,6.461-17.61,3.94-22.32
	c-2.58-4.81-7.99,4.891-8.61,15.44c-0.43,7.29,1.58,10.26,4.67,6.89V422.371z M623.739,500.341c0-12.08-0.13-14.06-0.94-14.06
	c-0.81,0-0.939,1.979-0.939,14.07c0,12.09,0.13,14.069,0.939,14.069c0.8,0,0.931-1.979,0.931-14.06L623.739,500.341z M478.17,511.2
	l4.403-1.338l-5.561-3.33l-5.553-3.33l-1.1-5.19c-0.604-2.854-1.978-8.213-3.051-11.907l-1.949-6.721h-4.91l0.402,2.345
	c1.313,7.619,1.4,7.13-1.77,10.05c-1.6,1.472-3.106,2.59-3.347,2.479c-0.24-0.109-3.92-1.979-8.178-4.149l-7.739-3.948l-1.95,2.35
	c-2.73,3.275-3.66,7.075-2.601,10.58c0.45,1.494,0.71,2.87,0.57,3.061c-0.14,0.189-0.08,0.229,0.12,0.09
	c0.2-0.141,1.32,0.81,2.5,2.115c1.18,1.307,2.98,2.72,4,3.145c1.02,0.423,1.7,1.015,1.52,1.315c-0.189,0.3,0.141,0.359,0.73,0.132
	c0.73-0.28,0.93-0.181,0.61,0.337c-0.261,0.41-0.23,0.68,0.05,0.603c1.01-0.279,7.01,1.59,6.7,2.09
	c-0.181,0.28,0.05,0.381,0.5,0.225c0.439-0.15,2.359-0.021,4.25,0.29c5.43,0.899,16.25,0.239,21.3-1.29L478.17,511.2z
	 M459.35,490.965l2.101-2.167l-0.798-4.56c-2.244-12.84-8.4-32.168-12.65-39.7c-1.016-1.8-1.644-3.6-1.396-4
	c0.26-0.428,0.18-0.56-0.2-0.33c-0.36,0.22-1.021-0.49-1.471-1.58c-1.35-3.26-7.609-10.654-11.886-14.034
	c-6.399-5.06-6.374-5.057-9.47-2.134c-2.405,2.271-2.521,2.507-1.22,2.521c10.943,0.119,26.399,30.8,33.618,66.735
	c0.38,1.898,0.899,1.78,3.363-0.762L459.35,490.965z M465,478.5c0-1.206-6.387-16.28-9.603-22.664
	c-5.729-11.37-6.465-11.863-2.564-1.715c1.862,4.85,4.307,12.37,5.433,16.72l2.048,7.91h2.343
	C463.946,478.751,465,478.641,465,478.5L465,478.5z M348.95,462.215c4.405-0.886,8.315-1.422,8.689-1.189
	c0.383,0.234,0.5,0.13,0.271-0.24c-0.247-0.402,0.822-0.956,2.718-1.41c3.593-0.863,4.368-1.594,2.365-2.23
	c-8.907-2.826-42.746-15.418-43.66-16.245c-1.68-1.53-1.472-11.53,0.218-10.48c0.38,0.23,0.46,0.09,0.19-0.34
	c-0.25-0.41,0.85-4.4,2.439-8.88c5.431-15.28,6.15-29.22,2.141-41.21c-1.17-3.51-1.431-3.49-7.55,0.65
	c-28.9,19.56-43.511,49.709-31.661,65.339c0.29,0.37,0.31,0.91,0.06,1.19s-0.14,0.32,0.26,0.1c0.69-0.399,1.79,1.23,1.56,2.29
	c-0.06,0.28,0.11,0.41,0.37,0.29c0.68-0.319,4.48,3.73,4,4.271c-0.21,0.24-0.07,0.25,0.32,0.03c0.39-0.221,1.08,0.029,1.53,0.569
	c6.69,8.05,34.4,11.76,55.78,7.471L348.95,462.215z M376.25,459.337c-7.67-5.202-18.308-9.604-35.46-14.677
	c-6.271-1.854-12.036-3.774-12.813-4.268c-0.777-0.491-2.335-1.087-3.46-1.321c-1.126-0.23-2.902-1.141-3.949-2.021l-1.903-1.6
	l0.2,2.439c0.255,3.131,0.075,3.051,26.571,12.471c11.756,4.18,20.586,7.64,20.372,7.989c-0.21,0.341-0.053,0.41,0.36,0.16
	c0.405-0.25,2.488,0.11,4.628,0.8c7.634,2.471,9.035,2.48,5.454,0.051V459.337z M326.372,441.563
	c0.013-1.032,0.153-1.379,0.31-0.771c0.16,0.608,0.15,1.452-0.021,1.875C326.49,443.091,326.36,442.594,326.372,441.563
	L326.372,441.563z M421.205,459.711c2.9-1.5,3.01-4.04,0.176-4.07c-9.54-0.109-20.58-22.1-16.67-33.199l0.97-2.721l-2.29,2.181
	c-12.279,11.68,3.53,45.22,17.83,37.83L421.205,459.711z M424.223,451.601c-0.369-4.609-2.754-10.239-6.752-15.939l-2.56-3.66
	l1.07-2.09c0.59-1.15,3.069-3.96,5.5-6.25l4.439-4.16l-3.7-1.07c-8.109-2.359-15.29-0.64-16.88,4.03
	c-3.88,11.38,4.84,29.23,15.931,32.6c3.239,0.99,3.329,0.891,2.979-3.439L424.223,451.601z M421.875,450.941
	c0.807-0.86,1.61-1.561,1.78-1.561c0.172,0-0.349,0.7-1.155,1.561c-0.807,0.859-1.61,1.56-1.78,1.56
	C420.548,452.501,421.068,451.801,421.875,450.941z M448.75,443.761c-0.368-0.68-0.81-1.25-0.98-1.25
	c-0.173,0-0.013,0.57,0.355,1.25c0.368,0.69,0.81,1.25,0.98,1.25C449.278,445.011,449.118,444.451,448.75,443.761z M494.802,413.021
	c-0.2-0.5-0.348-0.351-0.378,0.38c-0.026,0.66,0.12,1.029,0.33,0.819c0.206-0.199,0.229-0.739,0.048-1.189V413.021z
	 M495.427,410.521c-0.2-0.5-0.348-0.351-0.378,0.38c-0.029,0.66,0.12,1.029,0.32,0.819c0.2-0.199,0.229-0.739,0.05-1.189
	L495.427,410.521z M496.052,408.021c-0.2-0.5-0.348-0.351-0.378,0.38c-0.026,0.66,0.12,1.029,0.33,0.819
	c0.206-0.199,0.229-0.739,0.048-1.189V408.021z M497.302,402.401c-0.2-0.5-0.348-0.351-0.378,0.38c-0.026,0.66,0.12,1.03,0.33,0.82
	c0.206-0.2,0.229-0.74,0.048-1.19V402.401z M618.422,388.611c2.706-11.9,15.26-90.12,14.573-90.8
	c-0.117-0.11-10.753-3.99-23.635-8.61s-31.437-11.39-41.23-15.04c-9.795-3.65-18.144-6.51-18.554-6.36
	c-0.41,0.16-0.858,0.09-0.996-0.14c-0.137-0.23-0.14-0.01-0.003,0.5c0.435,1.63-1.905,15.89-2.398,14.62
	c-0.25-0.64-0.34,0.38-0.18,2.27c0.19,2.48,0.1,3.09-0.33,2.19c-0.43-0.9-0.51-0.37-0.27,1.88c0.229,2.21,0.14,2.86-0.311,2.22
	c-0.45-0.64-0.53-0.12-0.27,1.81c0.21,1.59,0.12,2.57-0.21,2.37s-0.48,0.73-0.341,2.18c0.131,1.42-0.01,2.38-0.329,2.18
	c-0.32-0.19-0.45,0.64-0.311,1.88c0.14,1.22,0.01,2.07-0.3,1.88c-0.311-0.19-0.45,0.79-0.32,2.19c0.181,1.93,0.05,2.41-0.56,2.04
	c-0.53-0.32-0.641-0.24-0.34,0.25c0.25,0.41,0.1,3.26-0.341,6.35c-0.439,3.08-1,5.27-1.26,4.86s-0.32,0.5-0.149,2.03
	c0.239,2.09,0.149,2.55-0.36,1.85c-0.521-0.72-0.601-0.51-0.33,0.94c0.19,1.03-0.8,9.03-2.2,17.77c-1.89,11.82-2.35,16.01-1.8,16.35
	c0.4,0.25,19.09,7.15,41.54,15.33c22.439,8.18,40.7,14.98,40.57,15.11c-0.131,0.13-18.801-6.54-41.49-14.81
	c-22.69-8.27-41.58-15.05-41.971-15.05c-0.39,0-0.56-0.25-0.369-0.55c0.439-0.71,3.5-19.64,3.42-21.13
	c-0.04-0.62-1,3.94-2.141,10.12c-2.489,13.54-5.93,10.47,24.12,21.51c67.32,24.73,58.57,21.78,58.99,19.9L618.422,388.611z
	 M597.95,365.441l-7.362-7.03l1.5-8.57c0.823-4.71,1.444-8.57,1.378-8.57c-0.065,0-4.733-1.69-10.373-3.76
	c-5.64-2.07-10.594-3.63-11.008-3.47c-0.415,0.16-0.901-0.04-1.082-0.45c-0.18-0.41-0.175,0,0.013,0.92
	c0.55,2.68-2.9,23.07-3.975,23.48c-0.58,0.22-3.52-2.26-8.24-6.97l-7.33-7.31l2.641-15.43c1.45-8.49,3.55-21.76,4.67-29.49
	c2.58-17.84,1.77-17.23,11.05-8.27l7.61,7.34l-1.32,8.28c-0.73,4.55-1.17,8.43-0.99,8.61c0.46,0.46,25.74,9.67,25.95,9.46
	c0.1-0.1-0.76-1.08-1.9-2.18l-2.069-2.01l1.569-10.76c0.86-5.92,1.87-10.97,2.24-11.21c1.141-0.76,15.37,13.87,15.33,15.75
	c-0.12,5.6-9.12,58.45-9.96,58.58c-0.52,0.08-4.25-3.02-8.3-6.89L597.95,365.441z M607.502,366.261c0.43-2.77,0.652-5.16,0.492-5.32
	c-0.16-0.16-0.65,2.12-1.088,5.06c-0.438,2.94-0.937,5.21-1.107,5.04c-0.18-0.17,0.61-5.67,1.74-12.23s2.27-11.58,2.52-11.16
	c0.25,0.42,0.32-0.49,0.15-2.02c-0.229-1.98-0.14-2.52,0.311-1.87c0.449,0.64,0.52,0.11,0.27-1.81c-0.22-1.59-0.13-2.57,0.21-2.36
	c0.32,0.2,0.48-0.77,0.37-2.25c-0.15-1.86-0.03-2.34,0.41-1.69c0.43,0.64,0.52,0.08,0.3-1.87c-0.22-1.9-0.13-2.51,0.29-1.91
	c0.41,0.59,0.51-0.1,0.31-2.19c-0.21-2.16-0.109-2.79,0.33-2.15c0.44,0.64,0.53,0.1,0.311-1.87c-0.22-1.9-0.13-2.51,0.29-1.91
	c0.41,0.6,0.529-0.09,0.35-2.18c-0.189-2.24-0.1-2.72,0.34-1.8c0.431,0.9,0.5,0.37,0.271-1.87c-0.21-2.02-0.12-2.84,0.26-2.3
	c0.4,0.56,0.54,0.09,0.44-1.47c-0.15-2.39-13.091-16.54-14.12-15.43c-0.23,0.25-1.12,5.18-1.96,10.96l-1.54,10.5l3.76,3.4
	c2.07,1.87,3.5,3.41,3.19,3.41c-1.221,0-6.521-2.28-6.15-2.65c0.21-0.21-0.25-0.22-1.021-0.02c-1.06,0.28-1.279,0.17-0.899-0.45
	c0.3-0.49,0.26-0.66-0.11-0.43c-0.8,0.49-5.25-0.86-4.87-1.48c0.16-0.26-0.319-0.31-1.06-0.12c-0.87,0.23-1.2,0.11-0.94-0.31
	s-0.08-0.54-0.939-0.31c-0.851,0.23-1.2,0.12-0.95-0.3c0.22-0.36,0.05-0.64-0.37-0.62c-2.2,0.08-3.01-0.22-2.59-0.95
	c0.26-0.46,0.21-0.57-0.12-0.27c-0.31,0.29-1.14,4.3-1.85,8.91l-1.29,8.39l3.159,1.18c1.74,0.65,4.631,1.69,6.421,2.32
	c2.689,0.95,3.21,1.37,2.979,2.42c-0.15,0.7-0.86,4.63-1.57,8.73l-1.29,7.46l1.75,1.66c14.65,13.87,13.45,13.36,14.561,6.23
	L607.502,366.261z M607.802,305.501l-6.864-7.03l7.031,6.86c6.53,6.38,7.311,7.2,6.86,7.2c-0.09,0-3.26-3.16-7.03-7.03H607.802z
	 M608.539,358.001c-0.18-0.43-0.32-0.08-0.32,0.78c0,0.86,0.141,1.21,0.311,0.78s0.17-1.13,0-1.56H608.539z M567.859,346.841
	c1.25-7.37,1.949-10.23,2.25-9.21c0.239,0.81,0.29,0.17,0.1-1.42c-0.45-3.78,0.1-4.01,5.12-2.11c5.89,2.22,5.55,2.52,6.729-5.77
	c1.04-7.24,1.16-10.3,0.391-9.83c-0.641,0.4-4.95-1.11-4.641-1.62c0.16-0.25-0.319-0.31-1.06-0.11c-1.01,0.26-1.22,0.15-0.84-0.47
	c0.319-0.52,0.26-0.67-0.16-0.41c-1.021,0.63-2.66-0.22-2.64-1.37c0-0.83,0.109-0.86,0.55-0.16c0.34,0.53,0.43-0.31,0.25-2.19
	c-0.2-2.07-0.101-2.77,0.31-2.19c0.41,0.59,0.521-0.1,0.351-2.18c-0.19-2.22-0.101-2.71,0.33-1.8c0.409,0.88,0.5,0.24,0.31-2.19
	c-0.21-2.6-0.12-3.13,0.36-2.19c0.5,0.99,0.55,0.8,0.26-0.93c-0.29-1.7-1.9-3.76-7.351-9.37l-6.97-7.18l7.73,7.5
	c4.25,4.12,7.42,6.9,7.04,6.16c-0.931-1.84-14.051-14.02-14.521-13.47c-0.2,0.24-1.56,8.45-3.02,18.25s-3.57,23.02-4.7,29.37
	l-2.05,11.56l6.93,7.03c3.81,3.87,6.96,7.03,7,7.03s0.88-4.81,1.88-10.69L567.859,346.841z M568.979,346.601
	c0.279-2.75,0.22-2.63-0.53,0.94c-0.47,2.24-1,5.47-1.18,7.19c-0.29,2.75-0.23,2.64,0.529-0.93c0.471-2.23,1-5.47,1.181-7.19
	V346.601z M609.159,354.261c-0.18-0.43-0.32-0.08-0.32,0.78s0.141,1.21,0.311,0.78c0.17-0.43,0.17-1.13,0-1.56H609.159z
	 M609.779,350.511c-0.181-0.43-0.32-0.08-0.32,0.78s0.14,1.21,0.311,0.78c0.17-0.43,0.17-1.13,0-1.56H609.779z M569.779,340.511
	c-0.181-0.43-0.32-0.08-0.32,0.78s0.14,1.21,0.311,0.78c0.17-0.43,0.17-1.13,0-1.56H569.779z M501.049,385.541
	c-0.2-0.5-0.35-0.35-0.38,0.38c-0.03,0.66,0.12,1.03,0.33,0.82c0.2-0.2,0.23-0.74,0.05-1.19V385.541z M502.919,376.791
	c-0.2-0.5-0.35-0.35-0.38,0.38c-0.03,0.66,0.12,1.03,0.33,0.82c0.2-0.2,0.229-0.74,0.05-1.19V376.791z M503.539,373.671
	c-0.2-0.5-0.35-0.35-0.38,0.38c-0.03,0.66,0.12,1.03,0.33,0.82c0.2-0.2,0.229-0.74,0.05-1.19V373.671z M504.159,370.551
	c-0.2-0.5-0.351-0.35-0.38,0.38c-0.03,0.66,0.12,1.03,0.33,0.82c0.199-0.2,0.229-0.74,0.05-1.19V370.551z M504.779,367.431
	c-0.2-0.5-0.351-0.35-0.38,0.38c-0.03,0.66,0.119,1.03,0.329,0.82c0.2-0.2,0.23-0.74,0.051-1.19V367.431z M505.399,364.311
	c-0.2-0.5-0.351-0.35-0.381,0.38c-0.029,0.66,0.12,1.03,0.32,0.82c0.21-0.2,0.23-0.74,0.05-1.19L505.399,364.311z M506.019,361.191
	c-0.199-0.5-0.35-0.35-0.38,0.38c-0.029,0.66,0.12,1.03,0.33,0.82C506.169,362.181,506.199,361.651,506.019,361.191L506.019,361.191
	z M506.639,358.071c-0.199-0.5-0.35-0.35-0.38,0.37c-0.03,0.66,0.12,1.03,0.32,0.82c0.21-0.21,0.229-0.74,0.05-1.2L506.639,358.071z
	 M507.259,354.941c-0.2-0.5-0.35-0.35-0.38,0.38c-0.03,0.66,0.12,1.03,0.33,0.82C507.409,355.931,507.439,355.391,507.259,354.941
	L507.259,354.941z M507.879,351.821c-0.2-0.5-0.35-0.35-0.38,0.38c-0.03,0.66,0.12,1.03,0.33,0.82
	C508.029,352.811,508.059,352.271,507.879,351.821L507.879,351.821z M508.499,348.701c-0.2-0.5-0.35-0.35-0.38,0.37
	c-0.03,0.66,0.12,1.02,0.33,0.82c0.2-0.21,0.229-0.75,0.05-1.2V348.701z M537.859,333.661c-0.181-0.43-0.32-0.08-0.32,0.78
	c0,0.86,0.14,1.21,0.32,0.78C538.029,334.791,538.029,334.091,537.859,333.661z M538.479,329.911c-0.17-0.43-0.31-0.08-0.31,0.78
	c0,0.86,0.14,1.21,0.31,0.78C538.649,331.041,538.649,330.341,538.479,329.911z M539.119,326.821c-0.2-0.5-0.35-0.35-0.38,0.38
	c-0.03,0.66,0.12,1.03,0.33,0.82c0.21-0.2,0.229-0.74,0.05-1.19V326.821z M662.689,270.871c0.609-21.02,0.359-26.31-0.53-11.12
	c-0.431,7.23-0.98,15.88-1.23,19.22c-0.38,5.07-0.31,6.07,0.44,6.07c0.74,0,0.97-2.47,1.31-14.16L662.689,270.871z M546.64,278
	c-0.18-0.43-0.319-0.08-0.319,0.78c0,0.86,0.14,1.21,0.31,0.78c0.18-0.43,0.18-1.13,0-1.56H546.64z M547.26,273.63
	c-0.18-0.43-0.319-0.08-0.319,0.78c0,0.86,0.14,1.21,0.319,0.78C547.43,274.76,547.43,274.06,547.26,273.63z M547.9,269.58
	c-0.16-0.61-0.301-0.263-0.311,0.77c-0.02,1.03,0.11,1.527,0.28,1.104c0.17-0.424,0.18-1.27,0.022-1.876L547.9,269.58z
	 M526.22,229.06c0-0.88-0.26-1.44-0.569-1.25c-0.32,0.194-0.42,0.91-0.24,1.6c0.45,1.72,0.8,1.566,0.8-0.35H526.22z M527.15,214.41
	c-0.237-1.08-0.57-1.824-0.74-1.65c-0.175,0.17-0.12,1.196,0.115,2.276c0.234,1.08,0.58,1.83,0.75,1.657
	c0.17-0.17,0.119-1.2-0.12-2.28L527.15,214.41z M307.47,132.3c0-0.792-0.29-0.44-1.2,1.476c-0.7,1.47-0.689,1.49,0.221,0.35
	c0.529-0.67,0.97-1.49,0.97-1.83L307.47,132.3z M316.55,118.93c2.67-3.693,4.21-6.154,3.431-5.47c-1.37,1.205-9.07,12.19-8.54,12.19
	C311.58,125.65,313.88,122.628,316.55,118.93L316.55,118.93z M875.19,585c0-1.89,0.115-2.664,0.26-1.72
	c0.143,0.946,0.143,2.493,0,3.439C875.306,587.664,875.19,586.89,875.19,585L875.19,585z M876.894,574.11
	c0.974-3.24,2.229-6.686,2.79-7.656c0.563-0.972,0.824-1.204,0.58-0.517c-1.974,5.591-3.434,10.242-3.762,11.986
	c-0.214,1.143-0.61,2.076-0.883,2.076c-0.271,0,0.3-2.65,1.27-5.89H876.894z M880.679,564.062c0-0.344,0.54-1.61,1.19-2.812
	c0.66-1.203,1.2-1.906,1.2-1.562s-0.54,1.609-1.2,2.812s-1.2,1.906-1.2,1.562H880.679z M883.179,558.438
	c0-0.344,0.54-1.61,1.19-2.812c0.66-1.203,1.2-1.906,1.2-1.562s-0.54,1.609-1.2,2.812s-1.2,1.906-1.2,1.562H883.179z
	 M886.299,551.562c0-0.344,0.54-1.61,1.2-2.812c0.66-1.203,1.2-1.906,1.2-1.562s-0.54,1.609-1.2,2.812
	S886.299,551.906,886.299,551.562L886.299,551.562z M889.419,544.688c0-0.344,0.54-1.61,1.19-2.812
	c0.659-1.203,1.199-1.906,1.199-1.562s-0.54,1.609-1.199,2.812c-0.66,1.203-1.2,1.906-1.2,1.562H889.419z M891.859,539.137
	c0-0.672,1.859-4.137,2.22-4.137c0.17,0-0.16,0.914-0.72,2.03C892.199,539.312,891.859,539.788,891.859,539.137L891.859,539.137z
	 M936.329,527.617c-0.13-4.333,5.27-22.695,5.5-18.68c0.01,0.274-0.37,1.26-0.84,2.188c-1.471,2.854-3.74,11.47-4.16,15.75
	l-0.4,4.062L936.329,527.617L936.329,527.617z M941.909,507.812c0-0.344,0.54-1.609,1.189-2.812c0.66-1.203,1.2-1.906,1.2-1.562
	s-0.54,1.609-1.2,2.812c-0.659,1.203-1.199,1.906-1.199,1.562H941.909z M908.909,501.875c0.149-0.516,1.06-3.686,2.01-7.046
	s1.85-6,1.99-5.86c0.33,0.33-2.91,11.681-3.681,12.9c-0.529,0.83-0.569,0.83-0.319,0V501.875z M944.399,502.188
	c0-0.344,0.54-1.609,1.189-2.812c0.66-1.203,1.2-1.906,1.2-1.562s-0.54,1.609-1.2,2.812s-1.2,1.906-1.2,1.562H944.399z
	 M946.899,496.562c0-0.344,0.68-1.89,1.51-3.438c0.83-1.547,1.51-2.53,1.51-2.188c0,0.344-0.68,1.89-1.51,3.438
	C947.579,495.922,946.899,496.905,946.899,496.562z M950.029,489.688c0-0.344,0.68-1.89,1.51-3.438c0.83-1.547,1.5-2.53,1.5-2.188
	c0,0.344-0.68,1.89-1.51,3.438c-0.83,1.547-1.511,2.53-1.511,2.188H950.029z M913.149,486.51c0.029-0.728,0.18-0.876,0.38-0.377
	c0.18,0.45,0.149,0.99-0.051,1.198C913.269,487.541,913.119,487.171,913.149,486.51L913.149,486.51z M913.769,483.385
	c0.03-0.728,0.171-0.876,0.37-0.377c0.181,0.45,0.16,0.99-0.05,1.198c-0.21,0.207-0.36-0.162-0.33-0.82L913.769,483.385z
	 M953.089,482.885c0-0.67,1.86-4.135,2.22-4.135c0.17,0-0.149,0.914-0.72,2.03C953.429,483.062,953.089,483.538,953.089,482.885
	L953.089,482.885z M914.389,480.26c0.03-0.728,0.181-0.876,0.38-0.377c0.181,0.45,0.16,0.99-0.05,1.198
	C914.509,481.291,914.359,480.921,914.389,480.26L914.389,480.26z M915.009,477.135c0.03-0.728,0.181-0.876,0.38-0.377
	c0.181,0.45,0.15,0.99-0.05,1.198C915.129,478.163,914.979,477.794,915.009,477.135L915.009,477.135z M915.729,472.5
	c0-1.203,0.131-1.695,0.29-1.094c0.15,0.602,0.15,1.586,0,2.188C915.859,474.194,915.729,473.704,915.729,472.5z M916.349,467.5
	c0-1.203,0.13-1.695,0.29-1.094s0.16,1.586,0,2.188C916.479,469.194,916.349,468.704,916.349,467.5z M917.029,459.687
	c0-2.405,0.119-3.313,0.25-2.017c0.14,1.297,0.13,3.266,0,4.375C917.139,463.155,917.029,462.095,917.029,459.687z M964.949,459.187
	c0-0.569,4.93-12.525,4.96-12.029c0.05,0.748-4.38,12.218-4.71,12.218C965.059,459.375,964.949,459.29,964.949,459.187z
	 M917.688,445.312c0-4.125,0.101-5.729,0.221-3.569c0.13,2.163,0.13,5.538,0,7.5C917.789,451.206,917.688,449.437,917.688,445.312z
	 M974.369,429.635c0.029-0.728,0.18-0.876,0.38-0.377c0.18,0.45,0.16,0.99-0.05,1.198
	C974.489,430.663,974.349,430.294,974.369,429.635L974.369,429.635z M974.999,426.51c0.03-0.728,0.18-0.876,0.38-0.377
	c0.18,0.45,0.16,0.99-0.05,1.198C975.119,427.541,974.969,427.171,974.999,426.51L974.999,426.51z M975.619,423.385
	c0.029-0.728,0.18-0.876,0.38-0.377c0.18,0.45,0.16,0.99-0.05,1.198C975.739,424.413,975.589,424.044,975.619,423.385
	L975.619,423.385z M976.249,420.26c0.03-0.728,0.18-0.876,0.38-0.377c0.18,0.45,0.16,0.99-0.05,1.198
	C976.369,421.291,976.219,420.921,976.249,420.26L976.249,420.26z M976.969,415.625c0-1.203,0.13-1.695,0.29-1.094
	c0.16,0.609,0.16,1.59,0,2.189c-0.16,0.601-0.29,0.11-0.29-1.09V415.625z M977.599,410c0-1.203,0.13-1.695,0.28-1.094
	c0.16,0.602,0.16,1.586,0,2.188C977.719,411.694,977.599,411.204,977.599,410z M978.299,401.875c0-2.922,0.1-4.117,0.24-2.656
	c0.13,1.46,0.13,3.851,0,5.311c-0.141,1.46-0.24,0.26-0.24-2.66V401.875z M978.909,390c0-2.234,0.109-3.148,0.25-2.03
	c0.14,1.116,0.14,2.944,0,4.06C979.019,393.148,978.909,392.234,978.909,390z M978.188,379.687
	c-1.189-48.534-22.52-109.893-55.399-159.372c-4.22-6.34-7.41-11.37-7.09-11.177c3.18,1.966,24.79,38.466,32.89,55.55
	c18.13,38.245,31.83,91.52,29.979,116.562C978.349,384.19,978.299,383.965,978.188,379.687L978.188,379.687z M318.469,361.537
	c-0.6-1.57-0.43-1.976,0.311-0.71c0.369,0.628,0.529,1.273,0.369,1.434c-0.159,0.17-0.47-0.16-0.68-0.72V361.537z M311.219,340.482
	c-1.81-5.25-5.9-16.716-9.08-25.482c-5.84-16.08-8.1-23.046-7.63-23.515c0.14-0.14,0.9,1.93,1.69,4.6
	c0.79,2.668,3.39,10.196,5.79,16.727c6.22,16.96,13.03,36.71,12.76,36.983C314.619,349.923,313.039,345.732,311.219,340.482
	L311.219,340.482z M907.3,198.906c-18.63-24.012-41.26-46.057-66.37-64.66c-11.496-8.517-14.256-10.67-10.937-8.53
	c19.037,12.272,49.077,39.028,66.74,59.447c6.67,7.71,18.64,22.962,18.02,22.962c-0.165,0-3.52-4.148-7.455-9.22L907.3,198.906z
	 M818.53,118.716C797.91,105.28,765.685,88.42,740,77.626c-21.033-8.84-37.062-15.385-44.375-18.116
	C608.092,26.814,555.383,12.03,513.75,8.49c-5.328-0.453-8.422-0.86-6.875-0.9c7.104-0.198,24.784,2.047,41.562,5.274
	c43.908,8.45,129.087,37.036,194.245,65.196c15.568,6.727,42.666,20.262,57.005,28.472c10.888,6.235,29.02,17.926,27.655,17.832
	c-0.086-0.006-4.05-2.547-8.808-5.647L818.53,118.716z M332.5,99.064c1.867-1.89,3.535-3.438,3.707-3.438s-1.215,1.547-3.082,3.438
	c-1.867,1.89-3.535,3.437-3.707,3.437s1.215-1.54,3.082-3.43V99.064z M338.092,94.186c0.772-1.004,12.017-9.366,14.408-10.715
	c2.066-1.16-0.544,0.91-6.25,4.97c-3.266,2.33-6.632,4.82-7.48,5.55c-1.109,0.95-1.3,1.01-0.678,0.2V94.186z M355,82.23
	c0-0.17,0.562-0.612,1.25-0.98s1.25-0.528,1.25-0.356c0,0.17-0.562,0.613-1.25,0.98C355.562,82.244,355,82.404,355,82.23L355,82.23z
	 M371.875,73.75c0.516-0.333,1.22-0.606,1.562-0.606c0.344,0,0.203,0.273-0.312,0.606s-1.22,0.606-1.562,0.606
	C371.219,74.356,371.359,74.083,371.875,73.75z M375,72.605c0.516-0.318,1.64-0.767,2.5-0.997c1.086-0.29,1.277-0.24,0.625,0.162
	c-0.516,0.318-1.64,0.767-2.5,0.997C374.539,73.057,374.348,73.007,375,72.605z M380.022,70.717c2.331-1.527,24.112-6.45,27.79-6.28
	c0.688,0.03-2.266,0.695-6.562,1.475c-6.438,1.168-15.546,3.367-21.093,5.092C379.232,71.292,379.211,71.247,380.022,70.717z
	 M410.476,63.933c0.777-0.15,1.902-0.144,2.5,0.013c0.599,0.156-0.04,0.278-1.412,0.27C410.188,64.21,409.699,64.082,410.476,63.933
	z M417.344,63.309c0.773-0.15,2.04-0.15,2.812,0c0.773,0.14,0.14,0.27-1.406,0.27C417.203,63.579,416.57,63.449,417.344,63.309z
	 M439.844,63.289c1.117-0.14,2.945-0.14,4.062,0s0.203,0.25-2.03,0.25c-2.235,0-3.15-0.12-2.032-0.26V63.289z M431.719,62.659
	c1.11-0.14,2.94-0.14,4.061,0c1.109,0.14,0.2,0.25-2.03,0.25s-3.15-0.12-2.03-0.26V62.659z M392.179,44.369
	c1.69-1.72,3.221-3.13,3.391-3.13s-1.08,1.4-2.771,3.12c-1.7,1.72-3.22,3.12-3.39,3.12c-0.18,0,1.07-1.41,2.76-3.13L392.179,44.369z
	 M398.139,39.099c0.83-1.09,3.58-3.21,12.94-9.97c1.8-1.31,3.28-2.23,3.28-2.05c0,0.18-3.021,2.49-6.721,5.13
	c-3.699,2.64-7.55,5.54-8.569,6.45c-1.021,0.9-1.44,1.1-0.94,0.44H398.139z M421.239,23.469c0-0.17,0.56-0.61,1.25-0.979
	c0.689-0.37,1.25-0.53,1.25-0.36s-0.57,0.61-1.25,0.98c-0.69,0.37-1.25,0.53-1.25,0.35V23.469z M428.739,19.359
	c0.51-0.34,1.22-0.61,1.56-0.61s0.2,0.27-0.32,0.6c-0.52,0.33-1.22,0.6-1.569,0.6c-0.351,0-0.21-0.28,0.31-0.61L428.739,19.359z
	 M431.859,18.209c0.51-0.32,1.64-0.77,2.5-1c1.08-0.29,1.27-0.24,0.619,0.16c-0.52,0.32-1.64,0.76-2.5,0.99
	c-1.09,0.29-1.279,0.24-0.63-0.16L431.859,18.209z M436.859,16.229c0.51-0.34,1.22-0.61,1.56-0.61s0.2,0.28-0.32,0.61
	c-0.52,0.33-1.22,0.6-1.56,0.6c-0.35,0-0.21-0.27,0.31-0.61L436.859,16.229z M441.859,14.449c2.609-1.64,27.109-6.94,27.989-6.06
	c0.19,0.18,0.08,0.34-0.229,0.34c-0.32,0.01-3.67,0.55-7.45,1.21c-5.83,1.02-10.05,2.02-19.79,4.7c-1.06,0.29-1.21,0.23-0.53-0.19
	H441.859z M474.209,7.669c0.77-0.15,2.04-0.15,2.81,0c0.771,0.15,0.141,0.27-1.409,0.27c-1.551,0-2.181-0.12-1.41-0.27H474.209z
	 M484.209,7.019c2.14-0.12,5.66-0.12,7.81,0c2.15,0.12,0.391,0.22-3.909,0.22c-4.301,0-6.061-0.1-3.91-0.23L484.209,7.019z
	 M497.959,7.029c1.11-0.14,2.94-0.14,4.06,0c1.12,0.14,0.2,0.25-2.029,0.25c-2.23,0-3.15-0.12-2.03-0.26V7.029z"/>
</svg>
