<svg xmlns="http://www.w3.org/2000/svg" viewBox="0 0 1251.25 813.75" height="813.75" width="1251.25"><path d="M489.063 650.077l-430-154.17-.175-7.56-.175-7.56L199.465 351.8c153.86-141 143.04-131.227 143.025-129.18-.007 1.04-.158 1.208-.543.6-.393-.62-37.834 33.333-141.246 128.088C123.31 422.22 60.21 480.44 60.47 480.684c.26.244 193.647 69.666 429.748 154.27L919.49 788.782l2.11-1.735c1.16-.954 65.943-60.234 143.966-131.734l141.86-130-1.877-.8c-3.98-1.695-282.59-101.388-283.35-101.388-.53 0-.95 1.393-1.24 4.036-.37 3.49-1.38 8.18-1.54 7.2-.03-.18.53-4.4 1.25-9.37.85-5.86 1.49-14.65 1.81-24.98l.5-15.93-.28 16.57c-.15 9.11-.43 17.69-.6 19.07l-.33 2.5 143.17 51.25 143.17 51.25-.17 7.85-.18 7.86-144.06 131.99C984.51 745 919.54 804.37 919.37 804.34c-.172-.04-193.815-69.44-430.315-154.24zm429.865 139.296c-.27-.23-193.395-69.536-429.167-154.01-235.77-84.476-429.06-153.74-429.53-153.92-.69-.265-.85 1.03-.85 6.81v7.14l429.84 154.042 429.84 154.047.18-6.845c.1-3.765-.04-7.034-.31-7.265zM1065 670.613c78.203-71.606 142.267-130.25 142.365-130.32.098-.07.098-3.292 0-7.16l-.177-7.033-143.438 131.43-143.438 131.428-.177 7.212-.177 7.212 1.427-1.29c.785-.71 65.412-59.876 143.615-131.48zm-252.296-33.14c-10.052-1.988-14.39-12.38-9.84-23.573.594-1.465.967-2.745.827-2.844-.13-.1-2.78-1.123-5.87-2.274-3.09-1.15-6.61-2.705-7.81-3.452-13.92-8.65-58.88-19.576-117.18-28.482-87.39-13.348-113.88-22.93-175.31-63.415-27.68-18.247-44.62-27.873-61.87-35.163-8.7-3.68-28.04-10.59-30.94-11.054-1.37-.22-5.55-1.404-9.27-2.63-6.77-2.228-6.78-2.23-9.37-1.145-48.23 20.15-64.54-.93-30.86-39.88 1.91-2.2 3.71-5.15 4.58-7.5.79-2.13 1.44-3.45 1.44-2.93s-1.11 3.75-2.48 7.19c-1.37 3.44-2.31 5.27-2.1 4.07l.38-2.19-2.09 2.44c-29.72 34.71-16.08 57 24.46 39.97 2.93-1.23 5.95-2.27 6.71-2.32 2.35-.14.87-.83-11.06-5.13-15.72-5.66-15.86-5.75-18.33-11.67-1.49-3.57-.67-2.79 1.18 1.12 2.05 4.33 29.22 16.21 41.61 18.19 1.41.22 2.23.65 2 1.03-.24.4-.09.45.41.15 1.86-1.15-5.91-5.33-17.82-9.58-24.3-8.69-25.72-11.02-18.39-30.43 7.6-20.09 7.02-27.04-5.59-67.18-44.53-141.81 12.44-240.48 134.32-232.63 18.29 1.18 39.33 5.22 51.49 9.88.64.24.87-.39.91-2.52.06-3.06.77-4.85 2.79-7.07.7-.77 1.16-1.49 1.02-1.6-.64-.48-14.05-4.34-20.89-6.02-4.13-1.01-6.99-1.85-6.37-1.87 3.73-.12 28.45 7.16 29.92 8.81 1.01 1.14 2.07.24 27.4-22.97 14.49-13.28 26.11-24.37 25.83-24.64-.84-.79-12-4.18-19.34-5.86-50.08-11.53-103.47-3.08-134.75 21.33-8.57 6.69-35.2 31.01-34.28 31.32.38.13-2.62 1.87-6.66 3.87-7.02 3.47-17.48 9.88-20.77 12.73-1.27 1.11-1.38 1.13-.62.14 1.39-1.81 12.67-9.07 19.74-12.7 4.39-2.26 7.15-4.16 9.21-6.38 1.63-1.74 3.1-3.16 3.29-3.16.18 0 5.44-4.71 11.7-10.47 24.98-23.02 39.35-31.33 64.45-37.3 34.28-8.15 78.16-5.83 108.28 5.73.44.17 1.02-.73 1.42-2.24.37-1.38 1.39-3.36 2.25-4.38l1.56-1.86-4.38-1.41c-2.41-.78-4.27-1.53-4.12-1.67.37-.37 8.5 2.34 10.18 3.39.91.57 1.4 1.5 1.4 2.63v1.75l46.41 16.62 46.41 16.63 1.687-1.6 1.69-1.6 5.026 2.07c2.765 1.14 4.92 2.18 4.79 2.31-.13.13-2.415-.68-5.08-1.79l-4.84-2.03-1.76 1.97c-4.23 4.73-3.44 6.7 3.8 9.51 68.61 26.61 142.14 98 173.98 168.92 31.47 70.1 34.776 133.32 10.06 192.37-11.98 28.63-12.66 36.39-5.2 59.3 3.42 10.49 5.54 18.89 5.54 21.9 0 .61-.692 2.14-1.54 3.39l-1.545 2.28h1.39c4.02-.01 7.15-4.11 8.85-11.61.69-3.06.89-3.5.68-1.51-.89 8.25-4.87 13.74-9.97 13.75-1 0-2.41.49-3.12 1.09-.71.6-.13-.2 1.29-1.79 4.43-4.95 4.24-7.54-2.04-26.97-7.84-24.26-7.3-29.5 6.58-63.79 2.48-6.12 4.41-11.42 4.3-11.77-.12-.35-10.87 9.13-23.89 21.08-15.75 14.45-23.54 21.22-23.28 20.21.22-.83 1.014-4.32 1.764-7.76.75-3.44 1.58-6.49 1.84-6.79.26-.3-.06 1.81-.71 4.69-2.44 10.79-2.88 10.38 4.15 3.91 3.4-3.13 14.06-12.91 23.686-21.72l17.5-16.022 1.69-5.04c20.9-62.21-1.15-158.19-51.905-225.89-35.47-47.32-93.14-93.18-140.63-111.822-7.14-2.81-2.47-5.9-32.05 21.195-29.62 27.14-27.22 23.68-18.87 27.23 10.6 4.51 32.09 15.62 32.09 16.6 0 .29-7.73-3.81-9.07-4.8-4.865-3.63-33.744-16.083-35.183-15.18-2.106 1.33-3.46 3.978-3.74 7.29l-.28 3.366 5.23 2.07c17.2 6.8 56.79 28.78 56.79 31.51 0 .17-4.43-2.58-9.84-6.11-15.9-10.37-28.57-17.15-43.91-23.49-8.14-3.37-8.442-3.56-8.63-5.46-.11-1.14-.64-2.15-1.25-2.39-14.074-5.59-14.66-5.54-9.883.83l3.896 5.19 8.87 3.34c88.28 33.246 165.84 120.5 189.1 212.78 18.402 73.02 8.66 120.23-35.938 174.06-17.51 21.14-26.94 33.84-25.5 34.37 11.2 4.13 15.33 5.32 18.51 5.35 4.22.04 8.27 1.13 21.68 5.83 18.73 6.57 19.62 5.34 12.89-17.94-7.49-25.92-7.04-31.6 4.9-61.62 26.24-65.96 20.38-132.67-18.18-206.93-2.76-5.33-4.73-9.4-4.38-9.06 4.47 4.3 21.05 42.51 27.22 62.71 17.57 57.54 16.61 102.39-3.23 151.35-12.81 31.59-13.33 38.23-5.15 65.32 6.87 22.77 5.07 24.34-18.12 15.8-8.57-3.16-15.05-4.85-18.44-4.82l-1.88.02 2.48 1.31c2.7 1.43 30.84 11.78 36.42 13.4 3.89 1.14 7.16.85 9.15-.8 1.15-.95 1.14-.89-.1.45-2.53 2.73-6.59 2.13-21.01-3.07-6.84-2.47-12.5-4.41-12.59-4.31-9.68 10.48-.16 25.5 15.64 24.68 53.92-2.78 135.66-93.78 86.4-96.2-2.43-.12-3.6-.44-3.6-.98 0-.602.31-.642 1.21-.16.67.358 2.3.65 3.64.65 13.45 0 17.8 12.91 9.76 28.91-17.742 35.28-77.483 74.63-105.03 69.19zm5.897-.402c-.59-.15-1.72-.16-2.5-.01-.77.15-.28.28 1.09.29 1.38.01 2.01-.11 1.42-.27zm66.48-31.29c.78-.99.76-1.01-.23-.23-.6.47-1.09.97-1.09 1.1 0 .52.52.19 1.33-.86zm4.38-3.75c.78-.99.76-1.01-.23-.23-.6.47-1.09.97-1.09 1.1 0 .52.52.19 1.33-.86zm-111.91-10.3c4.72-6.68 9.71-13.02 21.83-27.66 33.3-40.24 43.87-66.88 43.98-110.93.27-98.34-58.1-194.83-153.66-254.03-15.24-9.44-46.04-24.09-50.65-24.09-.78 0 17.55 24.1 18.45 24.26 1.93.33 3.89 2.95 3.66 4.9-.3 2.67-2.94 2.79-5.09.24-1.33-1.58-3.79-2.7-13.99-6.35-23.63-8.45-44.1-15.54-44.85-15.54-.54 0-.89 2.36-1.19 7.97-.43 8.07-2.33 32.8-6.29 81.72-7.43 91.94-11.72 171.35-13.14 243.13-.19 9.63-.5 22.44-.7 28.47l-.35 10.97 9.27 2.91c23.87 7.51 44.75 11.82 91.46 18.89 43.51 6.59 86.92 16.25 96.67 21.51.06.03 2.14-2.82 4.62-6.34zm119.95 2.96c1.87-1.89 3.26-3.44 3.09-3.44-.17 0-1.84 1.55-3.7 3.44s-3.25 3.44-3.08 3.44c.18 0 1.84-1.54 3.71-3.44zm-322.26-49.84c.2-5.24.52-17.97.71-28.28 1.32-70.85 5.68-151.81 13.16-244.37 3.26-40.25 5.82-73.4 6.37-82.34l.49-7.97-4.38-1.67c-27.84-10.64-53.2-19.34-54.12-18.55-1.4 1.22-2.29 1.07-4.04-.68-2.91-2.91-1.14-6.9 2.36-5.3 1.4.64 17.67-8.36 18.63-10.3 1.15-2.3-31.67-10.74-48.75-12.54-142.33-15.02-198.52 114.08-118.21 271.56 5 9.8 14.72 29.01 21.61 42.69l12.52 24.88 9.07 3.63c19.45 7.79 37.11 17.62 66.88 37.25 32.2 21.23 46.84 29.24 73.44 40.18 1.72.71 3.31 1.31 3.53 1.34.23.03.57-4.24.77-9.48zm-222.27-74.03c-.6-.15-1.58-.15-2.19 0-.6.16-.1.29 1.1.29s1.7-.13 1.1-.28zm6.56.02c-.42-.17-1.13-.17-1.56 0-.43.18-.08.32.78.32s1.21-.14.78-.31zm60.47-.15c0-.51-15.5-31.45-34.79-69.43-45.48-89.56-47.31-170.24-5.1-225.6 32.83-43.06 103.33-57.04 168.97-33.51 7.66 2.75 6.95 2.76 11.67-.22 3.75-2.37 3.84-2.49 2.37-3.04-4.66-1.75-14.23-5.11-14.57-5.11-.21 0-.39.82-.39 1.82v1.81l-5.78-1.83C478 115.17 411 128.95 378.14 169.35c-35.98 44.24-41.98 107.765-17.7 187.466 13.292 43.63 13.744 48.823 6.035 69.385-7.065 18.84-5.714 21.08 17.625 29.25 9.103 3.19 12.2 4.64 17.184 8.06 4.39 3.01 18.75 8.54 18.75 7.21zm240.63-266.84c0-2.75-2.11-4.39-3.75-2.91-1.52 1.38-1.56 2.06-.21 3.55 1.69 1.87 3.96 1.51 3.96-.63zm-4.54-2.67c.76-.76.03-1.83-15.6-22.93l-8.01-10.82-1.49 1.13c-.82.62-4.26 3.7-7.65 6.85l-6.15 5.72-13.6-4.85c-7.48-2.67-13.75-5-13.93-5.18-.39-.39 16.51-16.09 17.32-16.09.31 0 5.17 1.66 10.8 3.69l10.23 3.69 3.66-3.39c2.01-1.86 10.04-9.22 17.83-16.34 7.8-7.13 13.98-13.14 13.75-13.36-.23-.23-14.27-5.36-31.21-11.42l-30.79-11.01-17.78 16.32c-13.73 12.61-19.16 17.17-23.85 20.06-3.34 2.06-7 4.45-8.14 5.32-1.14.87-2.07 1.42-2.07 1.22 0-.2-2.72 1.34-6.05 3.41-5.22 3.26-6.25 3.69-7.49 3.12-3.11-1.42-4.64 1.75-2.08 4.31 1.5 1.5 2.69 1.59 3.76.31.43-.52 3.35-3.22 6.48-6l5.7-5.06-5.51 5.23-5.51 5.23 27.39 9.97c15.06 5.48 35.54 12.84 45.51 16.34 9.97 3.51 23.61 8.36 30.31 10.78 13.38 4.83 13.2 4.78 14.21 3.77zm-28.38-30.4l4.25-3.92-1.29-1.82c-2.24-3.15 1.34-2.57 13.2 2.14.78.31 1.21-.11 1.74-1.72 1.18-3.56 4.06-5.87 6.29-5.02 4.3 1.62 59.31-51.29 55.41-53.29-1.68-.86-93.76-33.41-94.13-33.28-.29.11-10.05 8.92-21.67 19.58-32.89 30.16-43.22 39.5-40.68 36.81 2.22-2.34 2.85-3.91 1.95-4.8-1.12-1.12-5.22 3.49-5.23 5.89 0 1.13 2.57 2.33 12.01 5.61l6.07 2.12 2.68-2.55c1.48-1.41 14.63-13.48 29.24-26.84 14.61-13.36 26.73-24.51 26.92-24.79.29-.4 61.9 21.21 63.8 22.38.3.19-.35 1.09-1.46 2.02-6.69 5.62-57.03 52.25-56.9 52.71.43 1.48-2.25.9-11.97-2.6-12.54-4.52-11.22-5.43-10.58 7.31l.52 10.51 4.69 1.65 4.69 1.64 3.14-2.89 7.38-6.81zm-21.28-8.22l-.48-6.51-7.65 7.04c-9.26 8.51-9.29 7.42.32 10.81l7.97 2.8.17-3.82c.1-2.1-.05-6.74-.31-10.32zm69.77-44.4c6.22-5.65 11.1-10.46 10.84-10.68-.25-.22-11.71-4.42-25.46-9.32s-27.59-9.86-30.77-11l-5.77-2.08-11.63 10.69-11.62 10.69 30.84 11.11c36.43 13.13 29.93 13.04 43.59.61zm-62.57-45.03c1.1 0 .93-3.1-.19-3.53-1.72-.66-3.97 2.22-4.95 6.34l-.44 1.88 2.42-2.34c1.33-1.29 2.76-2.34 3.17-2.34zm226.39 544.25c-.01-.56 2.54-4.88 2.88-4.88.15 0-.15.78-.66 1.72-1.27 2.35-2.2 3.68-2.21 3.16zm3.33-8.58c.23-1.14.46-3.23.52-4.65.1-2.39.13-2.34.47.78l.37 3.36 9.07-8.3c4.99-4.56 12.09-11.1 15.78-14.52 3.7-3.41 6.72-6.06 6.72-5.88 0 .18-6.68 6.44-14.84 13.9s-15.66 14.44-16.66 15.49l-1.82 1.92.41-2.07zm-.13-8.48c-.04-.69-1.17-4.9-2.52-9.37-3.89-12.92-4.55-15.86-5.03-22.5-.45-6.2.56-14 2.39-18.44 1.01-2.43.84-1.25-.58 4.12-2.58 9.75-1.78 17.82 3.56 35.75 1.56 5.26 2.71 10.04 2.56 10.63-.23.88-.3.85-.36-.17zm36.49-24.06c1.7-1.72 3.22-3.12 3.39-3.12.18 0-1.07 1.41-2.76 3.12-1.69 1.72-3.22 3.13-3.39 3.13-.17 0 1.07-1.4 2.77-3.12zm7.16-6.41c2.59-2.76 3.15-3.25 3.15-2.78 0 .1-1.33 1.44-2.97 2.97l-2.96 2.79 2.79-2.97zm-46.83-25.78c0-.34.28-1.05.61-1.56.34-.51.61-.65.61-.31 0 .35-.27 1.05-.6 1.57-.33.52-.6.66-.6.31zm63.78-2.55c.03-.73.18-.87.38-.37.18.45.16.99-.05 1.2-.2.21-.35-.16-.33-.82zm-62.53-.57c0-.34.28-1.04.61-1.56.34-.51.61-.65.61-.31s-.27 1.05-.6 1.57c-.33.51-.6.65-.6.31zm60.34-6.94c-.6-1.91-.98-3.59-.85-3.73.14-.13.75 1.32 1.35 3.24.61 1.91.99 3.59.85 3.73-.14.13-.74-1.32-1.35-3.24zm-58.48 2.57c0-.34.27-1.04.61-1.56.33-.52.61-.66.61-.32s-.27 1.04-.6 1.56c-.33.51-.6.65-.6.31zm1.25-3.12c0-.34.27-1.04.61-1.56.33-.51.61-.65.61-.31 0 .35-.27 1.05-.6 1.57-.33.52-.6.66-.6.32zm1.25-3.12c0-.34.27-1.04.61-1.56.33-.52.61-.66.61-.32s-.27 1.04-.6 1.56c-.33.51-.6.65-.6.31zm1.25-3.12c0-.34.27-1.04.61-1.56.33-.51.61-.65.61-.31 0 .35-.27 1.05-.6 1.57-.33.52-.6.66-.6.32zm52.53-.67c.03-.73.18-.88.38-.38.18.45.16.99-.05 1.2-.2.21-.35-.16-.32-.82zm-.62-2.5c.03-.73.18-.88.38-.38.18.45.15.99-.05 1.2-.21.21-.36-.16-.33-.82zm-50.32-.89c.23-.86.68-1.99 1-2.5.41-.65.45-.46.16.62-.23.86-.68 1.98-.99 2.5-.41.65-.46.46-.17-.63zm49.69-1.62c.03-.73.18-.88.38-.38.18.45.16.99-.05 1.19-.2.21-.35-.16-.33-.82zm-.62-2.5c.03-.73.18-.88.38-.38.18.45.16.99-.05 1.19-.2.21-.35-.16-.33-.82zm-46.65-2.57c.22-.58 1.15-3.53 2.05-6.56.91-3.02 1.77-5.38 1.91-5.24.35.36-3.54 12.85-4.01 12.85-.2 0-.18-.47.05-1.05zm46.16-1.76c.01-1.72.13-2.35.27-1.4.15.95.14 2.36-.01 3.13-.14.77-.26-.01-.26-1.72zm-.41-9.37c.71-4.75 1.48-7.21 1.07-3.44-.2 1.89-.61 4-.9 4.69-.35.83-.41.4-.16-1.25zm1.57-7.81c0-.52.25-1.5.54-2.19.34-.79.54-.9.54-.31 0 .51-.24 1.5-.54 2.18-.34.79-.53.91-.53.32zm-39.41-11.62c.03-.73.18-.87.38-.37.18.45.16.99-.05 1.2-.2.21-.35-.16-.32-.82zm.7-3.7c.02-1.03.16-1.37.31-.77.16.61.15 1.46-.02 1.88-.17.42-.3-.07-.29-1.1zm.63-4.37c.02-1.03.16-1.37.31-.77.16.61.15 1.46-.02 1.88-.17.42-.3-.07-.28-1.1zm.69-5.93c0-1.89.12-2.66.26-1.72.15.95.15 2.5 0 3.44-.14.95-.26.17-.26-1.72zm.68-12.18c0-4.46.11-6.21.23-3.88.12 2.34.12 5.99 0 8.13s-.22.23-.22-4.24zm51.11-.62c0-.34.38-1.61.84-2.81.46-1.2.85-1.77.86-1.25.01.52-.36 1.78-.84 2.81-.47 1.03-.86 1.6-.86 1.25zm2.49-7.81c0-.52.24-1.5.54-2.19.34-.79.54-.9.54-.31 0 .52-.24 1.5-.53 2.19-.34.79-.54.91-.54.32zm-53.62-9.38c0-2.92.11-4.12.24-2.65.13 1.46.13 3.85 0 5.31-.13 1.46-.24.26-.24-2.66zm55.53 2.81c0-.69.23-1.95.5-2.81.4-1.24.5-1.3.5-.31 0 .69-.22 1.95-.5 2.81-.39 1.24-.5 1.31-.5.32zm-561.95-3.8c.03-.73.18-.87.38-.38.18.45.16.99-.05 1.2-.21.21-.35-.16-.33-.82zm563.2-1.82c0-.69.23-1.95.5-2.81.4-1.24.5-1.3.5-.31 0 .69-.22 1.96-.5 2.81-.39 1.24-.5 1.3-.5.31zm-563.68-3.75c.01-2.06.12-2.83.26-1.71s.14 2.81 0 3.75-.25.02-.25-2.04zm505.76-5.64c-.25-2.96-.31-5.52-.15-5.68.16-.16.5 2.13.75 5.09s.32 5.52.16 5.68c-.16.16-.5-2.13-.74-5.09zm-505.28.59c.03-.73.18-.88.38-.38.18.45.16.99-.05 1.2-.21.21-.35-.16-.33-.82zm.63-2.5c.03-.73.18-.88.38-.38.18.45.16.99-.05 1.2-.21.21-.35-.16-.33-.82zm502.86-12.19c-1.23-8.3-4.46-23.64-6.88-32.64-.81-3.03-1.25-5.28-.98-5 1.69 1.73 9.86 41.05 9.22 44.38-.11.57-.72-2.46-1.35-6.73zM362.37 405c.34-6.89.7-7.827.7-1.874.01 2.58-.21 5.25-.48 5.938-.27.68-.37-1.15-.22-4.07zm.29-8.436c.02-1.03.16-1.38.31-.77.16.61.15 1.45-.02 1.874-.17.42-.3-.078-.29-1.11zm-.62-4.376c.01-1.036.15-1.38.31-.77.16.604.15 1.45-.02 1.87-.17.42-.3-.075-.29-1.107zm-.65-3.44c0-.86.14-1.21.314-.78.175.425.175 1.13 0 1.56-.17.43-.313.08-.313-.78zm-.676-2.868c.03-.724.18-.872.38-.373.18.45.158.99-.05 1.196-.21.206-.355-.16-.33-.82zm-.623-2.5c.03-.724.18-.872.38-.373.18.45.16.99-.05 1.196-.2.206-.35-.16-.33-.82zm-.63-2.5c.03-.724.18-.872.38-.373.18.45.16.99-.05 1.196-.21.206-.35-.16-.33-.82zm562.63-3.07c.01-1.72.13-2.344.27-1.394.15.95.14 2.36-.01 3.13-.14.77-.26-.01-.26-1.73zm-563.25.576c.03-.725.18-.873.38-.374.18.45.16.99-.05 1.2-.2.205-.35-.164-.32-.82zm488.8-9.1c-3.04-9.47-7.26-20.78-10.66-28.61-1.41-3.24-2.55-6.19-2.54-6.56.03-.98 5.27 11.254 8.53 19.954 3.36 8.94 7.73 22.36 7.39 22.695-.13.13-1.36-3.233-2.72-7.48zm-490.05 4.73c.03-.73.18-.88.38-.38.18.45.16.99-.05 1.2-.2.21-.35-.16-.32-.82zm563.85-2.76c0-1.21.13-1.7.29-1.1.16.604.16 1.588 0 2.19-.16.6-.29.11-.29-1.09zm-566.04-4.11c-.23-.92-.3-1.79-.15-1.935.15-.15.46.48.69 1.4.23.92.3 1.79.15 1.94-.15.15-.46-.48-.69-1.4zm565.41-1.52c0-1.203.13-1.695.29-1.094.16.61.16 1.59 0 2.19-.15.6-.28.11-.28-1.09zm-.67-4.375c0-.86.14-1.21.32-.78.17.43.17 1.13 0 1.56-.18.43-.32.08-.32-.78zm-567.25-2.23c-.23-.91-.29-1.78-.15-1.93.15-.14.46.48.69 1.4.23.92.3 1.79.15 1.94-.14.15-.45-.48-.68-1.39zm566.64-1.83c.02-1.03.16-1.37.31-.77.16.61.15 1.46-.02 1.88-.17.42-.3-.07-.29-1.1zm-.62-3.75c.02-1.03.16-1.37.31-.77.16.61.15 1.46-.02 1.88-.17.42-.3-.07-.29-1.1zm-568.82-3.8c.03-.73.18-.87.38-.37.18.45.16.99-.05 1.2-.2.21-.35-.16-.32-.82zm568.13 0c.03-.73.18-.87.38-.37.18.45.16.99-.05 1.2-.2.21-.35-.16-.33-.82zm-.62-3.12c.03-.73.18-.87.38-.37.18.45.16.99-.05 1.2-.21.21-.35-.16-.33-.82zm-.57-2.76c0-.86.14-1.21.32-.78.17.43.17 1.13 0 1.56-.17.43-.32.08-.32-.78zm-569.43-2.25c.03-.73.18-.87.38-.38.18.45.16.99-.05 1.2-.21.21-.36-.16-.33-.82zm568.75-.62c.03-.73.18-.88.38-.38.18.45.16.99-.05 1.2-.21.21-.36-.16-.33-.82zm-.62-3.13c.03-.73.18-.87.38-.37.18.45.16.99-.05 1.2-.2.21-.35-.16-.32-.82zm-569.38-.62c.03-.73.18-.87.38-.38.18.45.16.99-.05 1.2-.2.21-.35-.16-.33-.82zm568.75-1.87c.03-.73.18-.88.38-.38.18.45.16.99-.05 1.2-.2.21-.35-.16-.33-.82zm-569.37-.63c.03-.73.18-.88.38-.38.18.45.16.99-.05 1.2-.2.2-.35-.16-.33-.82zm568.75-1.88c.03-.73.18-.88.38-.38.18.45.16.99-.05 1.2-.2.21-.35-.16-.33-.82zm-569.37-.63c.03-.73.18-.88.38-.38.18.45.16.99-.05 1.2-.2.21-.35-.16-.32-.82zm488.05-.32c-.38-.71-.58-1.42-.44-1.56.15-.14.59.45.98 1.31.86 1.89.44 2.1-.54.26zm80.7-1.56c.03-.72.18-.87.38-.37.18.45.16.99-.05 1.2-.2.21-.35-.16-.32-.82zm-569.37-.62c.03-.73.18-.87.38-.37.18.45.16.99-.05 1.2-.2.21-.35-.16-.32-.82zm568.13-3.75c-.4-1.6-.61-3.03-.47-3.17.14-.14.59 1.05 1 2.65.4 1.6.62 3.03.47 3.17-.14.15-.59-1.05-.99-2.65zm-570-3.75c.03-.73.18-.87.38-.37.18.45.16.99-.05 1.2-.21.21-.36-.16-.33-.82zm567.83-3.76c-.61-1.91-.99-3.59-.85-3.73.14-.13.74 1.32 1.35 3.24.6 1.92.98 3.6.85 3.74-.14.14-.75-1.32-1.35-3.23zm-568.45.64c.03-.72.18-.87.38-.37.18.45.16.99-.05 1.2-.2.2-.35-.16-.32-.82zm-.63-3.12c.03-.73.18-.87.38-.37.18.45.16.99-.05 1.2-.2.21-.35-.16-.33-.82zm483.4-.88c-.53-1.03-.83-1.87-.65-1.87.17 0 .75.85 1.28 1.88.54 1.03.83 1.88.66 1.88-.17 0-.75-.84-1.28-1.87zm-483.96-1.87c0-.86.14-1.21.32-.78.17.43.17 1.13 0 1.56-.18.43-.32.08-.32-.78zm465.77-3.9c-1.29-2.15-2.75-4.54-3.24-5.31-.49-.77-.75-1.4-.57-1.4.18 0 1.57 2.04 3.1 4.53 3.58 5.84 3.73 6.1 3.37 6.1-.16 0-1.36-1.76-2.65-3.9zm98.66-6.57c-1.8-5.01-3.18-9.2-3.06-9.33.32-.31 6.74 17.37 6.52 17.95-.1.27-1.65-3.61-3.46-8.62zm-565.03 7.04c.02-1.03.16-1.38.31-.77.16.61.15 1.45-.02 1.88-.17.42-.3-.08-.29-1.11zm481.13-.94c-.37-.69-.53-1.25-.35-1.25.17 0 .61.57.98 1.25.37.69.53 1.25.36 1.25-.17 0-.61-.56-.98-1.25zm-481.73-3.12c0-1.2.13-1.69.29-1.09.15.61.15 1.59 0 2.19-.16.6-.29.11-.29-1.09zm-.62-4.37c0-1.2.13-1.69.29-1.09.16.61.16 1.59 0 2.19-.16.6-.29.11-.29-1.09zm460.26-3.75c-1.6-2.4-2.78-4.37-2.62-4.37.16 0 1.38 1.61 2.71 3.59 2.94 4.37 3.4 5.15 3.07 5.15-.14 0-1.57-1.97-3.17-4.37zm-460.87-.94c.01-1.37.13-1.86.28-1.08.15.78.14 1.91-.01 2.5-.15.6-.27-.04-.27-1.41zm-.6-6.56c0-1.89.12-2.66.26-1.72.14.95.14 2.49 0 3.44-.14.95-.26.17-.26-1.72zm456.06-.31c-1.06-1.54-1.79-2.81-1.62-2.81.17 0 1.19 1.27 2.25 2.82 1.07 1.55 1.8 2.81 1.63 2.81-.17 0-1.18-1.27-2.25-2.81zm105.93-1.4c-30.3-72.58-94.18-139.64-166.08-174.36-4.72-2.28-8.49-4.24-8.37-4.36 1.04-1.03 28.42 14.04 42.52 23.42 56.05 37.26 100.52 86.54 125.05 138.59 4.22 8.94 9.15 20.45 8.88 20.72-.13.13-1.02-1.67-2-3.99zm-562.56-9.23c0-4.12.1-5.73.23-3.57.12 2.17.12 5.54 0 7.5s-.22.2-.22-3.93zm452.54 4.9c-.96-1.26-1.43-2.09-1.04-1.85.8.5 3.51 4.15 3.07 4.15-.15 0-1.07-1.03-2.03-2.29zm-7.09-9.11c-2.81-3.52-4.04-5.25-2.74-3.84 2.77 3.01 8.51 10.25 8.12 10.25-.15 0-2.57-2.88-5.38-6.4zm18.61 2.82c-.77-.99-.75-1.02.24-.24 1.04.81 1.37 1.33.86 1.33-.13 0-.62-.49-1.09-1.1zm-4.37-5.63c-.78-.99-.76-1.01.23-.24 1.04.82 1.37 1.33.86 1.33-.13 0-.62-.49-1.1-1.09zm-460.26-3.96c.16-1.52.47-6.7.68-11.51.21-4.81.63-10.15.92-11.87.44-2.55.47-2.26.18 1.56-.19 2.58-.53 8.96-.76 14.18-.22 5.22-.61 9.7-.87 9.95-.25.25-.33-.78-.17-2.3zm435.61-5.42c-2.71-3.01-4.27-4.9-3.47-4.22 1.72 1.49 9.06 9.69 8.67 9.69-.15 0-2.49-2.46-5.2-5.47zm20.26 3.75c-.77-.99-.75-1.01.24-.23 1.04.82 1.37 1.33.86 1.33-.13 0-.62-.49-1.09-1.09zm-3.09-3.75l-1.51-1.72 1.72 1.52c.95.84 1.72 1.61 1.72 1.72 0 .49-.5.1-1.92-1.51zm-3.75-4.37l-1.51-1.72 1.72 1.52c.95.83 1.72 1.61 1.72 1.72 0 .49-.5.09-1.92-1.52zM755 244.87c-8.293-8.108-8.973-8.868-2.813-3.145 8.124 7.547 14.584 13.928 14.04 13.868-.16-.018-5.21-4.843-11.227-10.724zm26.828 9.036l-1.516-1.72 1.72 1.517c.945.833 1.718 1.606 1.718 1.718 0 .5-.506.1-1.922-1.51zm-13.712-14.375l-8.428-8.59 8.593 8.43c7.99 7.83 8.88 8.76 8.43 8.76-.09 0-3.95-3.86-8.59-8.59zm-429.244-.46c.013-1.03.153-1.37.31-.77.16.61.15 1.46-.022 1.88-.17.43-.3-.07-.288-1.1zm.625-3.75c.013-1.03.153-1.37.31-.77.16.61.15 1.46-.022 1.88-.17.43-.3-.07-.288-1.1zm398.8-5.52c-6.23-5.46-7.957-7.27-3.403-3.56 3.97 3.24 9.296 8.1 8.856 8.08-.172-.01-2.626-2.04-5.453-4.52zm-398.175 1.77c.013-1.03.153-1.37.31-.77.16.61.15 1.46-.022 1.88-.17.43-.3-.07-.288-1.1zm.602-3.43c0-.86.142-1.21.315-.78.17.43.17 1.13 0 1.56-.18.43-.32.08-.32-.78zm413.604-1.72l-1.516-1.72 1.72 1.52c.945.84 1.718 1.61 1.718 1.72 0 .5-.506.1-1.922-1.51zm-413.03-1.14c.03-.72.18-.87.38-.37.18.45.157.99-.05 1.2-.208.21-.356-.16-.33-.82zm387.452-3.45c-1.203-1.04-5.984-4.73-10.625-8.21-8.4-6.28-12.29-9.49-8.125-6.7 6.175 4.15 22.18 16.8 21.25 16.8-.172 0-1.297-.85-2.5-1.89zm20.273-.09l-1.836-2.03 2.032 1.84c1.89 1.71 2.31 2.23 1.83 2.23-.11 0-1.02-.91-2.03-2.03zm-406.473-2.09c.03-.73.174-.87.374-.37.18.45.158.99-.05 1.2-.207.21-.355-.16-.328-.82zm401.45-2.3l-1.19-1.4 1.406 1.19c1.32 1.12 1.69 1.63 1.19 1.63-.12 0-.752-.63-1.407-1.4zm-400.83-.21c.03-.72.18-.87.38-.37.18.45.157.99-.05 1.19-.208.21-.356-.16-.33-.82zm397.372-2.6c-.777-.99-.755-1.01.236-.23.603.47 1.095.97 1.095 1.1 0 .52-.513.19-1.33-.86zm-396.082-1.4c0-.51.242-1.5.537-2.18.34-.79.536-.9.536-.31 0 .52-.242 1.5-.537 2.19-.34.79-.538.9-.538.31zm392.665-1.4l-1.19-1.4 1.406 1.19c1.32 1.12 1.69 1.62 1.19 1.62-.11 0-.75-.63-1.4-1.4zm-3.458-2.81c-.778-.99-.756-1.01.235-.23 1.04.82 1.372 1.33.858 1.33-.13 0-.622-.49-1.094-1.09zM346.3 206.88c-.02-.518.238-1.36.57-1.877.74-1.14.74-.155 0 1.564-.353.824-.548.93-.57.312zm1.554-4.377c.23-.86.68-1.983.997-2.5.41-.65.46-.46.17.626-.23.86-.68 1.98-.99 2.5-.4.65-.45.46-.16-.63zm375.187-1.72c-.77-.99-.75-1.01.24-.234 1.04.81 1.38 1.33.86 1.33-.13 0-.62-.5-1.09-1.1zm-2.5-1.873c-.77-.99-.75-1.014.24-.237 1.04.818 1.38 1.33.86 1.33-.13 0-.62-.49-1.09-1.093zm-370.8-1.41c.47-1.957 9.86-21.12 11.19-22.813.54-.687-1.08 2.83-3.61 7.813-2.52 4.984-5.34 10.75-6.26 12.813-.92 2.062-1.5 3.046-1.3 2.187zm355.54-9.097c-1.16-.933-1.16-.945.2-.29.77.374 1.41.812 1.41.97 0 .48-.32.342-1.6-.68zM367.4 165c1.085-1.547 3.113-4.078 4.506-5.625 1.394-1.547.803-.563-1.313 2.188-4.452 5.792-6.04 7.502-3.19 3.437zm11.975-14.063c2.907-2.92 5.426-5.312 5.597-5.312.172 0-2.065 2.39-4.972 5.313-2.907 2.92-5.426 5.312-5.597 5.312-.17 0 2.07-2.39 4.977-5.313zm7.813-7.187c.622-.688 1.27-1.25 1.443-1.25.17 0-.2.563-.82 1.25-.62.688-1.27 1.25-1.44 1.25-.17 0 .2-.563.82-1.25zM420 124.375c.516-.333 1.22-.606 1.563-.606.343 0 .203.27-.313.6-.516.33-1.22.6-1.563.6-.343 0-.203-.28.313-.61zm6.563-2.5c.687-.295 1.67-.537 2.187-.537.59 0 .475.198-.313.537-.687.295-1.67.537-2.187.537-.59 0-.475-.198.313-.537zm7.187-2.057c0-.42 9.398-2.503 9.742-2.16.146.147-1.353.617-3.332 1.045-1.98.43-4.23.926-5.004 1.106-.773.18-1.406.18-1.406 0zm10.65-2.52c.496-.542 16.363-2.792 22.163-3.143l5-.303-4.375.58c-12.708 1.684-18.97 2.543-20.938 2.87-1.203.2-2.036.198-1.85-.004zm75.143-.856c.608-.16 1.452-.148 1.875.023.423.17-.074.3-1.106.288-1.03-.012-1.377-.153-.77-.31zm-3.75-.625c.608-.16 1.452-.148 1.875.023.423.17-.074.3-1.106.288-1.03-.012-1.377-.153-.77-.31zm-3.75-.625c.608-.16 1.452-.148 1.875.023.423.17-.074.3-1.106.288-1.03-.012-1.377-.153-.77-.31zm-6.253-.64c.95-.144 2.356-.14 3.125.01.77.147-.01.264-1.728.26-1.718-.005-2.347-.126-1.397-.27zm-33.407-.604c.45-.18.99-.158 1.198.05.21.207-.16.355-.82.328-.72-.03-.87-.178-.37-.378zm26.532-.022c.95-.143 2.356-.14 3.125.008.77.15-.01.266-1.728.262-1.718-.005-2.347-.126-1.397-.27zm-18.134-.64c2.33-.12 6.12-.12 8.44 0 2.32.12.42.22-4.22.22s-6.54-.1-4.22-.22zm-51.71-5.16c.62-.69 1.27-1.25 1.45-1.25.17 0-.19.56-.82 1.25-.62.686-1.27 1.25-1.44 1.25-.17 0 .2-.564.82-1.25zm293.44.624c-.51-.333-.65-.606-.31-.606.35 0 1.05.273 1.57.606.52.333.66.606.32.606s-1.04-.273-1.56-.606zm-288.22-6.875c2.06-2.578 5.52-6.375 7.69-8.438 3.4-3.222 3.25-3.002-1.03 1.563-2.74 2.922-6.2 6.72-7.69 8.438-1.48 1.718-1.01 1.015 1.04-1.563zm12.6-12.736c0-.13.49-.63 1.1-1.1.99-.78 1.01-.76.24.23-.81 1.04-1.33 1.37-1.33.86zm3.75-3.13c0-.13.49-.62 1.1-1.1.99-.78 1.01-.76.24.23-.81 1.04-1.33 1.37-1.33.86zm12.82-9c1.68-1.67 22.56-11.23 23.18-10.61.13.13-2.08 1.16-4.9 2.3-2.83 1.13-8.24 3.61-12.02 5.49-3.78 1.88-6.59 3.15-6.25 2.81zm133.93-13.06c.45-.18.99-.16 1.2.05.21.2-.16.35-.82.32-.73-.03-.87-.18-.38-.38zm-101.25-.63c.45-.18.99-.16 1.2.05.21.2-.16.35-.82.33-.73-.03-.87-.18-.38-.38zm2.5-.63c.45-.18.99-.16 1.2.05.21.2-.16.35-.82.32-.73-.03-.87-.18-.38-.38zm93.13 0c.45-.18.99-.16 1.2.05.21.2-.16.35-.82.32-.73-.03-.87-.18-.37-.38zm-90-.63c.45-.18.99-.16 1.2.05.21.2-.16.35-.82.33-.73-.03-.87-.18-.37-.38zm87.5 0c.45-.18.99-.16 1.2.05.21.2-.16.35-.82.33-.73-.03-.87-.18-.37-.38zm-85-.63c.45-.18.99-.16 1.2.05.21.2-.16.35-.82.32-.73-.03-.87-.18-.37-.38zm82.5 0c.45-.18.99-.16 1.2.05.21.2-.16.35-.82.32-.73-.03-.87-.18-.37-.38zm-78.94-.83c1.03-.26 2.72-.48 3.75-.48 1.57 0 1.47.08-.63.51-3.17.65-5.73.62-3.13-.04zm75.15.21c.43-.17 1.13-.17 1.56 0 .43.17.08.31-.78.31s-1.21-.14-.78-.32zm-3.75-.63c.43-.18 1.13-.18 1.56 0 .43.17.08.31-.78.31s-1.21-.15-.78-.32zm-64.69-.64c.6-.16 1.59-.16 2.19 0 .6.15.11.28-1.09.28s-1.69-.13-1.09-.29zm60.94.01c.43-.18 1.13-.18 1.56 0 .43.17.08.31-.78.31s-1.21-.14-.78-.32zm-53.91-.9c9.61-1.6 40.45-1.59 47.81.02 2.67.58 2.62.59-.94.25-12.16-1.18-31.14-1.18-45.93-.02l-4.69.37 3.75-.63z"/></svg>