<svg xmlns="http://www.w3.org/2000/svg" viewBox="0 0 1230 813.75" height="813.75" width="1230"><path d="M490.313 651.327l-430-154.17-.175-7.562-.175-7.56 40.8-37.377 40.8-37.376.75-5.985c2.727-21.77 4.172-27.732 8.005-33.027.067-.093 6.666.825 14.663 2.04l14.55 2.208 6.34-5.835c3.49-3.21 36.85-33.782 74.15-67.94s72.51-66.416 78.24-71.686l10.43-9.58L652.93 326.52c297.357 106.563 304.33 109.026 307.008 108.424 1.507-.34 3.05-.513 3.427-.387.377.126-1.982.737-5.244 1.357-3.26.62-6.91 1.51-8.12 1.98-1.98.77-2.07.76-.95-.1.68-.523 2.3-1.12 3.6-1.327 1.3-.208 2.36-.553 2.35-.767-.01-.4-604.13-216.985-605.73-217.163-1.65-.184-168.87 153.566-167.58 154.085.88.354 221.98 33.628 223.46 33.628.2 0 .46-6.117.59-13.594l.24-13.594 15.86-29.687c8.72-16.328 16.45-30.706 17.18-31.95l1.32-2.262 14.04 14.857 14.04 14.856 2.72-4.77c3.48-6.1 2.84-5.896 10.89-3.45 15.16 4.6 34.7 19.34 37.92 28.602.13.374-1.6-1.742-3.85-4.7-9.84-12.942-37.68-29.088-41.97-24.346-.87.962-.39 1.206 6.07 3.09 19.7 5.735 36.61 20.545 43.98 38.51 1.13 2.75 2.06 4.395 2.08 3.656.01-.74-1.26-4.354-2.83-8.03-1.57-3.677-2.75-6.79-2.62-6.92 2.84-2.842 8.2 23.032 6.63 31.972-.6 3.405-.89 6.36-.65 6.563.69.58 379.54 69.33 382 69.323 3.39-.012 6.51-1.088 10.13-3.49l3.32-2.2-2.35 2.198c-1.29 1.21-3.54 2.536-5 2.95-4.02 1.143-3.99 1.513.27 2.708 3.97 1.112 11.32 3.9 21.27 8.06 3.67 1.534 6.4 2.273 8.41 2.273h2.98l-2.22-2.344c-1.22-1.28-4.22-5.29-6.65-8.9-7.55-11.2-10.37-13.04-14.6-9.52-1.59 1.33-2.18 1.64-1.41.74.72-.84 2.63-3.92 4.25-6.84s3.52-6.01 4.22-6.87c1.49-1.83 1.24-1.33-2.73 5.31-2.87 4.8-3.77 6.97-2.29 5.49 1.96-1.96 7.06 2.64 13.65 12.33 2.69 3.96 5.59 7.84 6.44 8.63l1.55 1.44 1.56-2.69c.86-1.48 2.43-4.41 3.49-6.52l1.92-3.83-3.93-.54-3.93-.53 9.33-17.39c5.13-9.57 9.2-17.51 9.06-17.66-2.38-2.38-19.93 3.21-27.03 8.62l-5 3.81 3.39-3.5c3.36-3.46 9.7-7.4 11.09-6.88.4.15 1.81-.18 3.13-.74 1.32-.55 5.64-1.29 9.59-1.64 3.95-.35 7.61-.8 8.12-1 .52-.2 1.27-.31 1.67-.24.41.06.87-.11 1.04-.38.17-.27-1.28-.58-3.22-.69-1.94-.1-3.68-.35-3.85-.54-.18-.19 1.89-.21 4.6-.04l4.92.3 3.04-2.69c3.46-3.07 7.01-4.28 10.78-3.67 12.25 1.98 110.1 21.92 112.39 22.91 8.38 3.6 9.98 7.83 9.85 25.99l-.1 13.54 49.77 17.84 49.77 17.83-.17 7.86-.17 7.85-144.06 131.99C985.84 746.3 920.87 805.66 920.7 805.63c-.176-.04-193.82-69.44-430.32-154.24zm429.865 139.296c-.27-.23-193.395-69.536-429.167-154.01-235.77-84.475-429.06-153.738-429.53-153.92-.69-.264-.85 1.03-.85 6.81v7.14l429.84 154.043 429.84 154.047.18-6.845c.1-3.765-.04-7.034-.31-7.265zm146.072-118.76c78.203-71.606 142.267-130.25 142.365-130.32.098-.07.098-3.292 0-7.16l-.177-7.033L1065 658.78 921.562 790.207l-.177 7.212-.177 7.21 1.427-1.29c.785-.71 65.412-59.88 143.615-131.48zm-1.15-13.79c83.994-76.957 143.235-131.678 142.81-131.913-.397-.222-19.988-7.302-43.535-15.734-23.547-8.433-45.555-16.325-48.906-17.54l-6.1-2.207v19.17l3.56 1.79c25.37 12.77 24 48.36-2.9 75.27-37.54 37.54-92.83 30.52-92.74-11.77.01-7.29-.05-7.68-1.3-7.97-2.18-.5-58.05-10.21-59.97-10.42-1.71-.19-2.01.25-7.99 11.33-7.09 13.16-7.24 13.37-10.97 14.79-7.32 2.79-30.05-1.41-39.95-7.38l-4.25-2.57-289.73-36.78-289.72-36.78-4.38.97c-46.14 10.24-159.23-4.5-190.99-24.88-14.98-9.62-7.74-17.55 19.58-21.44l2.34-.34v-13.53c0-7.45.32-17.42.72-22.17.4-4.75.56-8.79.37-8.99-.2-.2-18.24 16.03-40.11 36.06-21.86 20.03-39.54 36.61-39.28 36.86.76.71 858.54 308.02 859.23 307.83.34-.1 65.21-59.36 144.16-131.69zm-2.6-48.182c-1.72-.35-1.476-.4 1.147-.25 2.218.13 3.055 0 2.5-.4-.553-.39.01-.47 1.666-.24 1.856.26 2.258.18 1.562-.31s-.294-.57 1.563-.31c1.85.26 2.256.18 1.562-.31-.73-.51-.56-.59.762-.38 1.047.17 1.55.03 1.31-.36-.24-.38.13-.49.956-.28.742.2 1.204.12 1.026-.16-.436-.71 2-1.43 2.912-.87.484.3.557.18.22-.37-.377-.61-.163-.73.842-.47.864.23 1.2.11.938-.31-.264-.42.073-.54.937-.31.873.23 1.202.12.933-.32-.266-.43-.028-.52.656-.26.723.28.927.18.625-.31-.3-.48-.098-.59.625-.31.723.28.927.18.625-.31-.3-.49-.098-.59.625-.31.723.28.927.18.625-.31-.3-.48-.098-.59.625-.31.723.28.927.18.625-.31-.3-.49-.098-.59.625-.31.723.28.927.18.625-.31-.3-.49-.098-.59.625-.31.723.28.927.18.625-.31-.3-.49-.098-.59.625-.31.638.25.918.16.69-.2-.35-.57.51-.89 1.77-.68.284.05.338-.2.12-.55-.362-.58.48-.92 1.756-.7.283.05.337-.2.12-.55-.363-.58.478-.92 1.755-.7.283.05.337-.2.12-.55-.22-.35-.1-.67.265-.72.364-.04.92-.11 1.235-.15.315-.04.807-.33 1.094-.65.308-.33.162-.36-.357-.06-.61.36-.733.28-.406-.25.26-.42.845-.62 1.3-.45.457.18 1.202-.15 1.657-.74.72-.9.7-.96-.13-.43-.53.35-.11-.12.93-1.04s2.07-1.55 2.29-1.42c.22.14.93-.38 1.58-1.14 1.17-1.38 1.17-1.38-.1-.46-.7.52-.42.17.63-.77 1.05-.94 2.72-2.63 3.71-3.75.99-1.12 1.58-1.64 1.31-1.16-.33.59-.25.73.24.43.41-.25.6-.67.43-.95-.17-.27.28-1.03 1.01-1.67 21.19-18.97 20.41-57.38-1.39-68.54l-3.39-1.74-.45 11.98c-.39 10.47-.62 12.3-1.78 14.55-24.05 46.36-17.15 42.17-57.78 35.04-17.03-2.99-31.14-5.27-31.34-5.07-2.66 2.67.51 20.58 4.83 27.26 1.35 2.09 2.46 4 2.46 4.26.01.26.25.46.54.46.91 0 5.03 3.93 4.59 4.37-.23.23-.14.37.2.3 1.32-.26 2.25.05 1.88.64-.23.37.06.45.69.21.79-.3.94-.19.56.42-.34.56-.27.68.24.37.41-.25 1.09-.18 1.51.16.42.34 1.96.97 3.43 1.41 1.85.55 2.43.96 1.88 1.33-.48.32-.07.37 1.01.11 1.15-.26 1.67-.19 1.43.21-.23.38.28.51 1.31.35 1.19-.19 1.45-.09.87.32-.55.38.3.51 2.5.35 1.83-.13 2.86-.02 2.28.24-.58.26 2.37.48 6.56.49 4.63.01 6.76-.16 5.43-.43zM927.854 581.1c-3.917-18.643-3.248-51.368 1.574-76.976.704-3.74 1.246-3.285-5.17-4.313l-5.362-.86-.442 33.5c-.243 18.43-.677 37.01-.965 41.31-.52 7.75-.53 7.73-.27-2.5.14-5.67.44-24.27.66-41.34l.4-31.03-3.68-.75c-4.55-.93-11.44-3.73-16.18-6.59-1.98-1.19-3.66-2.16-3.75-2.16-.09 0-.35 2.6-.58 5.78-.24 3.18-.59 7.19-.79 8.91-.3 2.58-.22 2.99.46 2.35 2.12-2 5.48.77 4.7 3.89-.67 2.65-2.62 3.18-4.45 1.21l-1.56-1.68-.01 5.56c-.01 3.06-.18 6.62-.4 7.92-.32 1.94-.23 2.29.55 1.99 1.44-.55 3.7 2.69 3.47 4.99-.23 2.42-2.28 2.63-3.44.35-.68-1.35-.79-.64-.8 5.32 0 6.29.11 6.95 1.29 7.69 2.32 1.45 4.02 6.99 2.14 6.99-.51 0-.94.35-.95.78-.01.43-.55-.34-1.2-1.71l-1.18-2.5-.05 5.47-.05 5.47 2.47 2.48c2.01 2.01 4.04 5.99 3.46 6.76-.44.58-2.48-.97-3.85-2.91l-1.6-2.26.38 3.06c.21 1.68.38 3.97.38 5.09 0 4.39 11.57 9.46 26.87 11.77 8.74 1.32 8.36 1.37 7.86-1.01zm7.88 1.234c.578-.053.883-.365.68-.693-.21-.34.074-.42.65-.2.562.22 1.19.12 1.397-.21.21-.33.65-.44.98-.24.33.21.52 0 .43-.46-.09-.45.12-.77.48-.71.36.06.69-.64.75-1.56.09-1.44.03-1.5-.41-.42-.28.69-1.18 1.81-1.99 2.5-1.44 1.21-1.44 1.2.07-.5 1.88-2.12 1.96-4.49.46-12.93-1.89-10.57-1.38-33.07 1.18-52.19.5-3.78 1.09-8.21 1.3-9.84l.38-2.97-2.74-.02c-1.51-.01-4.01-.27-5.55-.57-3.35-.65-2.98-.93-3.69 2.83-3.98 21.16-5.41 56.02-2.87 70.13 1.79 9.9 1.35 9.09 4.63 8.61 1.59-.23 3.35-.46 3.93-.52zm11.18-13.58c.193-.17 1.807-3.03 3.587-6.352l3.24-6.04.37-16.46.37-16.46-1.96 3.44c-1.08 1.89-3.1 5.616-4.49 8.28-1.39 2.664-2.71 4.844-2.93 4.845-1.3.003-.01-27.02 1.4-29.27.79-1.26 3.03-5.352 4.98-9.09l3.54-6.8-.01-10.076-.01-10.07-5.71 10.63c-6.29 11.71-5.59 9.19-8.26 29.38-3.19 24.13-3.17 44.86.07 58.97l1.06 4.59 2.22-4.59c1.22-2.53 2.38-4.73 2.57-4.91zm-4.866.78c-.08-2.464 1.253-6.403 2.17-6.403.754 0 .86.52.53 2.58-.637 3.98-2.604 6.77-2.7 3.83zm2.002-3.59c.484-3.047-.554-1.73-1.232 1.56-.307 1.495-.246 1.99.193 1.565.36-.35.82-1.75 1.04-3.13zm-3.425-14.595c0-2.87.866-5.1 1.982-5.1.987 0 .114 5.67-1.052 6.84-.823.82-.93.62-.93-1.75zm1.803-3.22c.04-1.23-.077-1.37-.553-.63-.333.52-.582 1.92-.553 3.12.062 2.57 1.007.43 1.106-2.5zm-1.803-18.04c0-2.23 1.183-5.72 1.936-5.72.78 0 .72 4.8-.08 6.29-.94 1.76-1.85 1.48-1.85-.58zm1.822-2.6c-.03-1.79-.133-1.96-.572-.94-.786 1.83-.786 5.28 0 4.06.333-.52.59-1.93.572-3.13zm.678-22.41c0-2.23 1.183-5.72 1.936-5.72.76 0 .73 3.88-.04 5.89-.81 2.14-1.89 2.04-1.89-.18zm1.787-2.91c0-1.6-.08-1.69-.537-.63-.295.69-.537 2.09-.537 3.12 0 1.6.08 1.69.537.62.295-.69.537-2.1.537-3.13zm139.225 73.67c2.466-1.17 4.613-3.89 4.613-5.84 0-.74.21-1.22.47-1.06.257.16.468-5.94.468-13.56s.105-23.99.234-36.39l.235-22.55-1.574-2.46c-4.57-7.13-2.08-6.4-63.793-18.77-64.088-12.85-61.728-12.61-67.915-6.82-1.203 1.12-3.03 2.49-4.062 3.03l-1.875.98 2.343.02 2.35.02v22.58l-5 9.29c-4.34 8.07-5 9.7-5 12.41v3.12l3.28.64c1.81.35 3.85.72 4.54.84 1.22.19 1.25.63 1.12 17.21l-.13 17.01 1.38.32c6.12 1.41 61.78 10.76 62.97 10.57.85-.13 14.61 2.11 30.6 4.99 32.51 5.85 31.82 5.76 34.76 4.36zm-43.285-15.78c-11.033-5.15-13.54-17.03-4.602-21.8 8.77-4.69 22.5 3.55 22.5 13.49 0 7.34-10.01 11.98-17.898 8.3zm12.26-.55c5.573-2.8 7.07-13.91 1.874-13.91-3.205 0-7.546-2.03-10.877-5.07-3.82-3.49-4-3.53-7.69-1.75-8.46 4.09-5.9 15.91 4.47 20.62 3.32 1.51 9.3 1.55 12.21.08zm2.513-15.11c0-1.9-7.488-6.28-11.495-6.72l-2.567-.28 2.973 2.8c3.66 3.45 11.09 6.26 11.09 4.2zm-69.107 5.7c-13.467-5.63-15.437-19.79-3.23-23.21 11.184-3.13 24.398 10.65 18.486 19.28-2.937 4.28-10.028 6.11-15.256 3.93zm11.212-1.06c5.747-2.75 6.845-14.07 1.365-14.07-4.013 0-8.513-2.38-12.196-6.44l-1.59-1.75-2.78.98c-3.41 1.2-4.87 2.47-6.02 5.23-4.21 10.06 10.48 21.16 21.22 16.03zm1.623-15.99c-1.032-1.93-5.928-4.79-9.506-5.56-4.18-.9-4.232-.64-.517 2.56 4.626 3.98 11.68 6.09 10.023 3zm46.79-19.39c-9.706-1.1-17.46-11.3-13.87-18.24 2.8-5.42 9.263-7.37 16.034-4.83 15.837 5.92 14.055 24.9-2.165 23.07zm9.385-2.67c4.27-3.92 4.37-12.91.147-12.91-3.28 0-7.587-2-10.98-5.1l-3.383-3.1-2.56.77c-9.2 2.76-8.73 14.22.826 20.16 5.013 3.11 12.653 3.2 15.95.17zm.722-14.12c0-1.94-9.23-6.95-12.68-6.89-1.193.02-.976.4 1.59 2.76 3.703 3.41 11.09 6.16 11.09 4.13zm-68.933 5.87c-10.57-3.88-14.825-15.93-7.522-21.3 8.706-6.41 23.955 1.4 23.955 12.26 0 7.58-8.168 12.07-16.433 9.03zm11.097-.96c5.618-2.73 6.675-14.33 1.306-14.33-4.008 0-8.774-2.51-12.065-6.35-3.377-3.95-10.71 1.29-10.758 7.68-.075 9.75 12.533 17.37 21.517 13zm2.21-15.53c0-1.94-7.996-6.33-11.457-6.28l-1.98.03 3.023 2.71c3.67 3.29 10.415 5.58 10.415 3.54zm-108.77 75.88c-1.006-12.49-.483-43.57 1.017-60.46.61-6.79.95-12.49.77-12.67-.27-.27-745.13-112.18-746.67-112.18-.94 0-4.37 25.45-5.74 42.61-.85 10.7-.47 39.54.61 45.2 2.04 10.69 2.59 12.08 5.02 12.47 1.23.2 38.8 4.99 83.48 10.65 44.69 5.66 81.94 10.49 82.79 10.72 1.87.52 579 73.82 579.32 73.58.13-.09-.12-4.56-.56-9.93zm198.958 3.65c-.29-.75-.173-.9.428-.53.54.33.68.27.397-.19-.403-.65 2.383-6.99 3.072-6.99.17 0-.41 1.41-1.28 3.13-.87 1.72-1.44 3.12-1.27 3.12.65 0 3.27-5.98 2.97-6.81-.21-.58-.04-.7.49-.37.51.32.65.25.37-.2-.41-.65 3-8.25 3.69-8.25.17 0-.4 1.4-1.27 3.12-.87 1.72-1.45 3.13-1.27 3.13.65 0 3.27-5.98 2.97-6.81-.21-.58-.04-.71.5-.37.51.32.65.24.37-.21-.41-.65 2.38-6.99 3.07-6.99.17 0-.26 1.12-.96 2.5-.71 1.37-1.14 2.5-.97 2.5.65 0 2.65-4.73 2.36-5.56-.21-.58-.04-.7.49-.37.5.31.64.24.38-.19-.47-.75 1.45-5.23 2.07-4.85.62.38 2.23-59.78 1.77-66.23-.17-2.38-.62-1.69-8.92 13.86-4.81 9-8.84 16.27-8.96 16.15-.12-.12 3.88-7.87 8.89-17.22s9.1-17.33 9.1-17.72c-.03-5.16-5.39-11.21-11.65-13.14-3.84-1.19-20.45 34.59-16.76 36.11 3.18 1.31 5.87 3.76 8.28 7.54l1.62 2.55-.12 12.81c-.07 7.04-.3 22.55-.52 34.45-.22 11.9-.21 21.96.03 22.34.65 1.06 1 .85.55-.34zm-193.937-.38c0-.44-.766-1.91-1.702-3.28-2.145-3.14-2.855-1.44-.794 1.89 1.36 2.2 2.49 2.83 2.49 1.39zm-1.537-17.18c-.232-.94-.896-2.42-1.474-3.28l-1.052-1.56-.2 1.76c-.213 1.85 1.31 4.8 2.47 4.8.426 0 .52-.64.256-1.72zm55.083-26.83c-2.12-.41-4.06-.76-4.32-.78-.26-.03-.46 3.97-.46 8.86l.01 8.91 4.32-8.13 4.32-8.12-3.86-.75zm156.96 14.47c-.19-.19-.54.15-.77.77-.34.89-.27.96.35.35.43-.43.62-.93.43-1.12zm-211.75-5.78c0-1.82-1.52-4.52-2.53-4.52-.76 0-.75 2.61.02 4.65.84 2.19 2.52 2.1 2.52-.14zm2.25-19.84c.52-2.07-.78-4.17-2.44-3.94-1.01.15-1.41.69-1.55 2.15-.34 3.56 3.16 5.12 4 1.78zm-620.37-7.88c-2.58-.26-.67-.37 5.24-.3 5.12.05 8.63-.11 7.81-.37-.85-.27.39-.37 2.89-.24 3.02.16 3.89.07 2.82-.31-1.08-.38-.21-.48 2.82-.32 2.41.12 3.82.02 3.13-.23-1.64-.6 3.91-1.5 5.67-.92.91.3.99.24.33-.23-.71-.51-.66-.66.3-.85.65-.12-35.24-4.81-79.75-10.43-44.51-5.61-81.74-10.4-82.75-10.64-2.16-.52-3.44-4.22-4.69-13.55-1.45-10.81-.92-9.67-4.28-9.28-21.02 2.43-30.3 8.83-23.16 15.98 1.43 1.43 2.23 2.37 1.78 2.09-.54-.34-.67-.26-.36.23.25.4.72.57 1.03.37.77-.47 3.21 1.26 2.61 1.85-.25.25-.18.41.16.34 1.32-.27 2.25.04 1.88.64-.22.36.06.45.69.2.73-.28.93-.17.63.31-.3.49-.1.59.63.31.72-.28.93-.17.63.31-.3.49-.1.59.63.31.72-.28.93-.18.63.31-.3.49-.1.59.63.31.78-.3.93-.19.56.42-.34.55-.27.68.21.38.95-.59 3.34.17 2.88.92-.19.31.13.39.72.16.68-.26.92-.17.66.26-.27.43.06.55.93.32 1-.27 1.22-.15.84.46-.34.55-.27.67.22.37.91-.56 3.34.16 2.91.87-.18.29.28.36 1.02.17.86-.23 1.2-.12.93.31-.26.43.08.54.94.31.87-.23 1.2-.12.94.31-.26.42.07.54.94.31.86-.23 1.2-.11.93.31-.26.43.08.54.94.32.87-.23 1.2-.12.94.31-.26.42.07.54.94.31.82-.22 1.19-.11.95.28s.26.53 1.31.36c1.34-.21 1.5-.13.76.4-.71.51-.41.59 1.25.31 1.7-.28 1.98-.21 1.25.33-.73.55-.54.61.87.28 1.15-.27 1.67-.2 1.42.2-.23.38.25.5 1.25.31s1.49-.07 1.25.31c-.23.38.28.52 1.32.35 1.34-.22 1.5-.13.76.4-.71.51-.41.58 1.25.31 1.67-.28 1.97-.21 1.25.31-.71.52-.41.59 1.25.31 1.67-.27 1.97-.2 1.25.32s-.41.59 1.25.31c1.64-.27 1.95-.2 1.25.292-.7.49-.29.57 1.56.317 1.86-.26 2.26-.18 1.57.31-.69.49-.29.57 1.57.31 1.89-.26 2.27-.18 1.56.33-.72.51-.42.59 1.25.31 1.64-.27 1.95-.2 1.25.3-.7.49-.3.57 1.56.31 1.86-.26 2.26-.18 1.56.31-.7.49-.3.57 1.56.31 1.79-.25 2.24-.17 1.6.28-.65.45-.12.55 1.88.35 2.07-.21 2.46-.13 1.53.32-.91.43-.4.52 1.88.31 2.32-.21 2.81-.13 1.88.323-.92.45-.52.52 1.57.27 2-.24 2.55-.15 1.907.3-.64.45-.1.54 1.88.314 1.98-.23 2.52-.14 1.88.31-.644.45-.11.54 1.87.31 1.84-.21 2.5-.12 1.95.27-.55.38.3.503 2.5.35 2.4-.16 2.98-.06 2.09.35-.88.41-.232.5 2.19.31 2.41-.19 3.06-.1 2.188.304-.86.4-.1.496 2.5.313 2.6-.19 3.37-.09 2.5.31-.86.4-.1.49 2.5.31 2.54-.18 3.35-.09 2.5.29-.83.372.19.49 3.13.344 3.12-.15 3.84-.066 2.5.31-1.26.35-.15.45 3.44.31 3.62-.15 4.71-.05 3.44.31s-.17.46 3.44.31c3.4-.14 4.64-.036 3.44.28-1.15.304.91.435 5.31.34 4.36-.1 6.08.01 4.38.27-1.55.24 3.238.4 10.63.356 10.697-.06 11.91.004 5.94.326-6.14.33-5.01.4 6.25.38 7.93-.016 12.03-.195 9.69-.42zm665-2.38c0-.67-.32-1.41-.72-1.66-.41-.26-.55-.17-.32.2.42.67-1.88 1.8-4.58 2.24-.86.14.06.3 2.03.34 3.17.08 3.6-.05 3.6-1.12zm-636.42.21c-.2-.21-.74-.23-1.19-.05-.5.2-.35.35.38.38.66.03 1.03-.12.82-.33zm632.85-1.09c6.5-2.72 6.71-2.65-20.39-6.69-24.4-3.64-24.47-3.64-16.73.23 11.2 5.6 30.95 9.03 37.13 6.45zm6.5-7.76l2.19-3.91h-2.15c-3.38 0-7.95-.75-7.65-1.25.16-.25-.34-.35-1.1-.22-.76.13-113.27-18.43-250.02-41.24L438.05 403.3l-1.8 3.183c-.984 1.75-2.02 3.526-2.3 3.946-.39.6-261.39-37.81-281.223-41.38-1.765-.32-6.757 5.84-5.64 6.96.293.29 794.36 119.47 795.324 119.37.46-.05 1.82-1.85 3.03-4zm-9.88-6.42c-2.21-1.3-15.52-6.37-20.54-7.84-4.32-1.26-358.42-66.19-407.19-74.66-7.56-1.32-13.25-2.42-12.65-2.45 1.39-.07 11.33 1.43 19.74 2.98l6.46 1.19-.42-2.27c-3.71-20.18-32.27-21.62-75.63-3.84l-3.12 1.28 10.63-.41c13.87-.54 32.76-.37 37.5.35 3.24.48 2.94.52-2.19.24-17.5-.93-48.46.03-49.04 1.53-.51 1.33.5 1.83 5.28 2.63 251.2 42.28 492.8 82.24 491.15 81.28zm150.84-17.35c5.06-9.53 8.99-17.5 8.75-17.72-.37-.33-104.68-21.21-105.84-21.19-.63.01-18.83 34.42-18.43 34.83.36.35 103.54 21.26 105.39 21.35.61.03 4.17-6.04 10.13-17.28zm-133.56 3.05c3.51-1.61 3.56-1.69 13.28-19.89 7.65-14.33 8.53-16.27 7.02-15.49-.94.49-2.81 1.07-4.14 1.28l-2.42.39-9.05 16.92c-4.98 9.31-9.14 17.16-9.26 17.45-.35.87 1.96.54 4.59-.66zm8.59-6.09c1.1-.57 3.38-1.01 5.14-.99l3.17.03 4.53-8.54c2.49-4.7 6.65-12.54 9.25-17.43 5.29-9.96 5.23-10.6-.91-8.94-4.13 1.11-5.86 3.3-12.6 15.95-3.48 6.53-7.44 13.91-8.79 16.4-2.68 4.93-2.67 5.01.23 3.51zM450.85 378l17.4-32.57-1.8-1.96c-5.16-5.6-25.53-26.98-25.85-27.13-.2-.093-7.88 13.9-17.07 31.09l-16.71 31.27 1.26 1.72c.69.95 5.22 5.66 10.08 10.47 8.22 8.136 19.01 19.79 14.51 15.666l-2-1.835v2.57c0 2.38.5 3.13 2.19 3.24.34.03 8.45-14.61 18.02-32.52zM430 406.74v-3.26l-11.545-11.604-11.544-11.603-.36 2.52c-.2 1.386-.28 7.295-.17 13.13l.19 10.613 10.63 1.653c5.85.9 11.12 1.68 11.72 1.73.92.06 1.1-.47 1.1-3.18zm96.19-5.646c.7-3.886.706-19.44.005-17.48-.276.774-.475.598-.804-.71-4.59-18.295-24.08-36.82-45.21-42.977-3.86-1.124-7.14-1.92-7.29-1.766-.15.16-6.65 12.23-14.45 26.84-7.79 14.61-15.15 28.33-16.33 30.48l-2.16 3.91 5.19-1.93c21.75-8.08 28.04-9.99 38.16-11.53 20.74-3.15 35.25 2.59 38.04 15.07.7 3.12 1.21 3.71 3.46 3.94.4.04 1.02-1.65 1.42-3.83zm1.118-12.8c-.158-.61-.298-.263-.31.77-.014 1.03.116 1.527.287 1.104.17-.423.182-1.267.023-1.875z"/></svg>