<?xml version="1.0" encoding="utf-8"?>
<!-- Generator: Adobe Illustrator 16.0.0, SVG Export Plug-In . SVG Version: 6.00 Build 0)  -->
<!DOCTYPE svg PUBLIC "-//W3C//DTD SVG 1.1//EN" "http://www.w3.org/Graphics/SVG/1.1/DTD/svg11.dtd">
<svg version="1.1" id="Layer_1" xmlns="http://www.w3.org/2000/svg" xmlns:xlink="http://www.w3.org/1999/xlink" x="0px" y="0px"
	 width="1230px" height="813.75px" viewBox="0 0 1230 813.75" enable-background="new 0 0 1230 813.75" xml:space="preserve">
<path fill="#444545" stroke="#444545" stroke-width="2" stroke-miterlimit="10" d="M470.591,558.767l-430-154.17l-0.175-7.562
	l-0.175-7.56l40.8-37.377l40.8-37.376l0.75-5.985c2.727-21.77,4.172-27.732,8.005-33.027c0.067-0.093,6.666,0.825,14.663,2.04
	l14.55,2.208l6.34-5.835c3.49-3.21,36.85-33.782,74.15-67.94c37.3-34.158,72.51-66.416,78.24-71.686l10.431-9.58l304.238,109.043
	c297.357,106.563,304.33,109.026,307.008,108.424c1.508-0.341,3.051-0.514,3.428-0.388s-1.982,0.737-5.244,1.357
	c-3.26,0.62-6.91,1.51-8.12,1.979c-1.979,0.771-2.07,0.761-0.95-0.1c0.68-0.522,2.3-1.12,3.601-1.327
	c1.3-0.208,2.359-0.553,2.35-0.767c-0.01-0.4-604.13-216.985-605.73-217.163c-1.649-0.184-168.87,153.566-167.58,154.085
	c0.88,0.354,221.98,33.628,223.46,33.628c0.199,0,0.46-6.117,0.59-13.594l0.239-13.594l15.86-29.687
	c8.72-16.328,16.45-30.706,17.18-31.95l1.32-2.262l14.04,14.857l14.04,14.856l2.72-4.77c3.48-6.1,2.84-5.896,10.891-3.45
	c15.16,4.6,34.699,19.34,37.92,28.602c0.13,0.374-1.601-1.742-3.851-4.7c-9.84-12.942-37.68-29.088-41.97-24.346
	c-0.87,0.962-0.39,1.206,6.07,3.09c19.7,5.735,36.609,20.545,43.979,38.51c1.13,2.75,2.061,4.395,2.08,3.656
	c0.011-0.74-1.26-4.354-2.83-8.03c-1.569-3.677-2.75-6.79-2.62-6.92c2.841-2.842,8.2,23.032,6.631,31.972
	c-0.601,3.404-0.891,6.359-0.65,6.562c0.689,0.58,379.54,69.33,382,69.323c3.39-0.012,6.51-1.088,10.13-3.49l3.32-2.2l-2.351,2.198
	c-1.29,1.21-3.54,2.536-5,2.95c-4.02,1.143-3.989,1.513,0.271,2.708c3.97,1.112,11.32,3.9,21.27,8.06
	c3.67,1.534,6.4,2.273,8.41,2.273h2.98l-2.221-2.344c-1.22-1.28-4.22-5.29-6.649-8.9c-7.55-11.2-10.37-13.04-14.601-9.52
	c-1.59,1.33-2.18,1.64-1.409,0.739c0.72-0.84,2.63-3.92,4.25-6.84c1.619-2.92,3.52-6.01,4.22-6.87c1.49-1.83,1.24-1.33-2.73,5.311
	c-2.87,4.8-3.77,6.97-2.29,5.49c1.961-1.961,7.061,2.64,13.65,12.329c2.69,3.96,5.59,7.841,6.44,8.631l1.55,1.439l1.56-2.689
	c0.86-1.48,2.431-4.41,3.49-6.521l1.92-3.83l-3.93-0.54l-3.931-0.53l9.33-17.39c5.131-9.57,9.2-17.51,9.061-17.66
	c-2.38-2.38-19.93,3.21-27.03,8.62l-5,3.811l3.39-3.5c3.36-3.46,9.7-7.4,11.091-6.881c0.399,0.15,1.81-0.18,3.13-0.739
	c1.319-0.55,5.64-1.29,9.59-1.641c3.95-0.35,7.61-0.8,8.12-1c0.52-0.199,1.27-0.31,1.67-0.239c0.41,0.06,0.87-0.11,1.04-0.381
	c0.17-0.27-1.28-0.579-3.22-0.689c-1.94-0.1-3.681-0.35-3.851-0.54c-0.18-0.19,1.891-0.21,4.601-0.04l4.92,0.3l3.04-2.689
	c3.46-3.07,7.01-4.28,10.779-3.671c12.25,1.98,110.101,21.921,112.391,22.91c8.38,3.601,9.979,7.83,9.85,25.99l-0.1,13.54
	l49.77,17.84l49.771,17.83l-0.171,7.86l-0.17,7.85l-144.06,131.99C966.118,653.739,901.148,713.1,900.979,713.069
	c-0.176-0.04-193.82-69.439-430.32-154.24L470.591,558.767z M900.456,698.062c-0.27-0.23-193.395-69.536-429.167-154.01
	c-235.77-84.476-429.06-153.738-429.53-153.92c-0.69-0.265-0.85,1.029-0.85,6.81v7.14l429.84,154.043l429.84,154.048l0.181-6.846
	c0.1-3.765-0.04-7.033-0.311-7.265H900.456z M1046.528,579.303c78.203-71.606,142.267-130.25,142.365-130.32
	c0.098-0.07,0.098-3.292,0-7.16l-0.178-7.033L1045.278,566.22L901.841,697.646l-0.178,7.212l-0.177,7.21l1.427-1.29
	c0.785-0.71,65.412-59.88,143.615-131.479V579.303z M1045.378,565.513c83.994-76.957,143.235-131.678,142.811-131.913
	c-0.397-0.222-19.988-7.302-43.535-15.734s-45.555-16.325-48.906-17.54l-6.1-2.207v19.17l3.56,1.79
	c25.37,12.771,24,48.36-2.899,75.271c-37.54,37.54-92.83,30.52-92.74-11.771c0.01-7.29-0.05-7.68-1.3-7.97
	c-2.181-0.5-58.05-10.21-59.971-10.42c-1.71-0.19-2.01,0.25-7.989,11.33c-7.091,13.16-7.24,13.37-10.971,14.79
	c-7.319,2.79-30.05-1.41-39.949-7.38l-4.25-2.57l-289.73-36.78l-289.72-36.779l-4.38,0.97c-46.141,10.24-159.23-4.5-190.99-24.88
	c-14.98-9.62-7.74-17.55,19.58-21.44l2.34-0.34v-13.53c0-7.449,0.32-17.42,0.72-22.17c0.4-4.75,0.56-8.79,0.37-8.989
	c-0.2-0.2-18.24,16.029-40.11,36.06c-21.86,20.03-39.54,36.61-39.28,36.86c0.76,0.71,858.541,308.02,859.23,307.829
	c0.34-0.1,65.21-59.359,144.16-131.689L1045.378,565.513z M1042.778,517.33c-1.72-0.35-1.476-0.399,1.146-0.25
	c2.219,0.131,3.056,0,2.5-0.399c-0.553-0.391,0.011-0.47,1.666-0.24c1.856,0.26,2.259,0.18,1.562-0.31
	c-0.696-0.49-0.294-0.57,1.562-0.311c1.851,0.26,2.257,0.18,1.562-0.31c-0.73-0.511-0.561-0.59,0.762-0.38
	c1.047,0.17,1.551,0.029,1.311-0.36c-0.24-0.38,0.13-0.49,0.956-0.28c0.741,0.2,1.204,0.12,1.025-0.16
	c-0.436-0.71,2-1.43,2.912-0.869c0.484,0.3,0.558,0.18,0.22-0.37c-0.377-0.61-0.162-0.73,0.843-0.471
	c0.864,0.23,1.2,0.11,0.938-0.31c-0.264-0.42,0.073-0.54,0.938-0.31c0.873,0.229,1.202,0.119,0.933-0.32
	c-0.266-0.43-0.027-0.521,0.656-0.26c0.723,0.279,0.927,0.18,0.625-0.311c-0.3-0.479-0.098-0.59,0.625-0.31
	c0.723,0.279,0.927,0.18,0.625-0.311c-0.3-0.489-0.098-0.59,0.625-0.31s0.927,0.18,0.625-0.311c-0.3-0.479-0.098-0.59,0.625-0.31
	s0.927,0.18,0.625-0.31c-0.3-0.49-0.098-0.591,0.625-0.311s0.927,0.18,0.625-0.31c-0.3-0.49-0.098-0.59,0.625-0.311
	c0.723,0.28,0.927,0.181,0.625-0.31c-0.3-0.49-0.098-0.59,0.625-0.311c0.638,0.25,0.918,0.16,0.689-0.199
	c-0.35-0.57,0.511-0.891,1.771-0.681c0.284,0.05,0.338-0.2,0.12-0.55c-0.362-0.58,0.479-0.92,1.756-0.7
	c0.283,0.05,0.337-0.2,0.12-0.55c-0.363-0.58,0.478-0.92,1.755-0.7c0.283,0.05,0.337-0.2,0.12-0.55
	c-0.22-0.35-0.101-0.67,0.265-0.72c0.364-0.04,0.92-0.11,1.235-0.15c0.314-0.04,0.807-0.33,1.094-0.649
	c0.308-0.33,0.162-0.36-0.357-0.061c-0.609,0.36-0.732,0.28-0.405-0.25c0.26-0.42,0.845-0.62,1.3-0.45
	c0.457,0.181,1.202-0.149,1.657-0.739c0.72-0.9,0.699-0.96-0.131-0.431c-0.529,0.351-0.109-0.12,0.931-1.04s2.069-1.55,2.29-1.42
	c0.22,0.141,0.93-0.38,1.58-1.14c1.17-1.38,1.17-1.38-0.101-0.46c-0.699,0.52-0.42,0.17,0.63-0.771
	c1.051-0.939,2.721-2.63,3.711-3.75c0.989-1.12,1.579-1.64,1.31-1.16c-0.33,0.591-0.25,0.73,0.24,0.431
	c0.41-0.25,0.6-0.67,0.43-0.95c-0.17-0.27,0.28-1.03,1.01-1.67c21.19-18.97,20.41-57.38-1.39-68.54l-3.39-1.74l-0.45,11.98
	c-0.391,10.47-0.62,12.3-1.78,14.55c-24.05,46.36-17.149,42.17-57.78,35.04c-17.029-2.99-31.14-5.271-31.34-5.07
	c-2.66,2.67,0.51,20.58,4.83,27.26c1.35,2.091,2.46,4,2.46,4.261c0.01,0.26,0.25,0.46,0.54,0.46c0.91,0,5.03,3.93,4.59,4.37
	c-0.229,0.229-0.14,0.369,0.2,0.3c1.32-0.26,2.25,0.05,1.88,0.64c-0.229,0.37,0.061,0.45,0.69,0.21c0.79-0.3,0.939-0.189,0.56,0.42
	c-0.34,0.561-0.27,0.681,0.24,0.37c0.41-0.25,1.09-0.18,1.51,0.16s1.96,0.97,3.43,1.41c1.851,0.55,2.431,0.96,1.881,1.33
	c-0.48,0.319-0.07,0.37,1.01,0.109c1.15-0.26,1.67-0.189,1.43,0.21c-0.229,0.381,0.28,0.511,1.311,0.351
	c1.189-0.19,1.449-0.09,0.87,0.32c-0.551,0.38,0.3,0.51,2.5,0.35c1.829-0.13,2.859-0.021,2.279,0.24
	c-0.579,0.26,2.37,0.479,6.561,0.489c4.63,0.011,6.76-0.159,5.43-0.43L1042.778,517.33z M908.132,488.539
	c-3.916-18.643-3.247-51.367,1.574-76.976c0.704-3.74,1.246-3.285-5.17-4.313l-5.361-0.859l-0.442,33.5
	c-0.243,18.43-0.677,37.01-0.965,41.31c-0.521,7.75-0.53,7.73-0.271-2.5c0.141-5.67,0.44-24.27,0.66-41.34l0.4-31.03l-3.681-0.75
	c-4.55-0.93-11.439-3.729-16.18-6.59c-1.979-1.189-3.66-2.16-3.75-2.16s-0.35,2.601-0.58,5.78c-0.24,3.18-0.59,7.19-0.79,8.91
	c-0.3,2.58-0.22,2.99,0.46,2.35c2.12-2,5.48,0.771,4.7,3.891c-0.67,2.649-2.62,3.18-4.45,1.21l-1.56-1.681l-0.01,5.561
	c-0.011,3.06-0.181,6.62-0.4,7.92c-0.32,1.94-0.23,2.29,0.55,1.99c1.44-0.55,3.7,2.689,3.47,4.989
	c-0.229,2.42-2.279,2.631-3.439,0.351c-0.681-1.351-0.79-0.641-0.8,5.319c0,6.29,0.109,6.95,1.29,7.69
	c2.319,1.45,4.02,6.99,2.14,6.99c-0.51,0-0.94,0.35-0.95,0.78c-0.01,0.43-0.55-0.341-1.2-1.711l-1.18-2.5l-0.05,5.471l-0.05,5.47
	l2.47,2.479c2.01,2.011,4.04,5.99,3.46,6.761c-0.44,0.58-2.48-0.97-3.851-2.91l-1.6-2.26l0.38,3.06c0.21,1.68,0.38,3.97,0.38,5.09
	c0,4.391,11.57,9.46,26.87,11.771c8.74,1.319,8.36,1.37,7.86-1.01L908.132,488.539z M916.013,489.773
	c0.578-0.053,0.883-0.365,0.68-0.693c-0.21-0.34,0.074-0.42,0.65-0.199c0.562,0.22,1.189,0.119,1.396-0.211
	c0.21-0.329,0.65-0.439,0.98-0.239c0.33,0.21,0.52,0,0.43-0.46c-0.09-0.45,0.12-0.771,0.479-0.71c0.36,0.06,0.69-0.641,0.75-1.561
	c0.091-1.439,0.03-1.5-0.409-0.42c-0.28,0.69-1.181,1.811-1.99,2.5c-1.44,1.21-1.44,1.2,0.07-0.5c1.88-2.12,1.96-4.49,0.46-12.93
	c-1.891-10.57-1.381-33.07,1.18-52.19c0.5-3.779,1.09-8.21,1.3-9.84l0.38-2.97l-2.74-0.021c-1.51-0.01-4.01-0.27-5.55-0.569
	c-3.35-0.65-2.979-0.931-3.689,2.83c-3.98,21.159-5.41,56.02-2.87,70.13c1.79,9.899,1.35,9.09,4.63,8.609
	c1.59-0.229,3.35-0.46,3.93-0.52L916.013,489.773z M927.192,476.193c0.193-0.17,1.807-3.03,3.587-6.352l3.24-6.04l0.37-16.46
	l0.369-16.46l-1.96,3.439c-1.079,1.89-3.1,5.616-4.489,8.28c-1.391,2.664-2.71,4.844-2.931,4.845c-1.3,0.003-0.01-27.02,1.4-29.27
	c0.79-1.261,3.03-5.353,4.979-9.091l3.54-6.8l-0.01-10.075l-0.01-10.07l-5.71,10.63c-6.29,11.71-5.59,9.19-8.26,29.38
	c-3.19,24.13-3.17,44.86,0.069,58.97l1.061,4.591l2.22-4.591c1.22-2.529,2.38-4.729,2.57-4.909L927.192,476.193z M922.326,476.974
	c-0.08-2.464,1.253-6.403,2.17-6.403c0.754,0,0.86,0.521,0.53,2.58c-0.637,3.98-2.604,6.771-2.7,3.83V476.974z M924.328,473.384
	c0.484-3.048-0.554-1.73-1.231,1.56c-0.308,1.495-0.246,1.99,0.192,1.565c0.36-0.351,0.82-1.75,1.04-3.13L924.328,473.384z
	 M920.903,458.788c0-2.87,0.866-5.1,1.982-5.1c0.986,0,0.113,5.67-1.053,6.84c-0.822,0.82-0.93,0.62-0.93-1.75V458.788z
	 M922.706,455.568c0.04-1.229-0.077-1.37-0.553-0.63c-0.333,0.521-0.582,1.92-0.553,3.12c0.062,2.57,1.007,0.43,1.105-2.5V455.568z
	 M920.903,437.528c0-2.229,1.183-5.72,1.936-5.72c0.78,0,0.721,4.8-0.08,6.29c-0.939,1.76-1.85,1.479-1.85-0.58L920.903,437.528z
	 M922.726,434.929c-0.03-1.79-0.133-1.96-0.572-0.94c-0.786,1.83-0.786,5.28,0,4.061c0.333-0.521,0.59-1.931,0.572-3.13V434.929z
	 M923.403,412.519c0-2.23,1.183-5.72,1.936-5.72c0.761,0,0.73,3.88-0.039,5.89c-0.811,2.14-1.891,2.04-1.891-0.18L923.403,412.519z
	 M925.19,409.608c0-1.6-0.08-1.689-0.537-0.63c-0.295,0.69-0.537,2.09-0.537,3.12c0,1.6,0.08,1.689,0.537,0.62
	c0.295-0.69,0.537-2.101,0.537-3.13V409.608z M1064.415,483.278c2.466-1.17,4.613-3.89,4.613-5.84c0-0.74,0.21-1.22,0.47-1.06
	c0.257,0.159,0.468-5.94,0.468-13.561s0.105-23.99,0.234-36.39l0.235-22.55l-1.574-2.46c-4.57-7.131-2.08-6.4-63.793-18.771
	c-64.088-12.85-61.728-12.61-67.915-6.82c-1.203,1.12-3.03,2.49-4.062,3.03l-1.875,0.98l2.343,0.02l2.35,0.021v22.579l-5,9.29
	c-4.34,8.07-5,9.7-5,12.41v3.12l3.28,0.64c1.81,0.351,3.85,0.721,4.54,0.841c1.22,0.189,1.25,0.63,1.12,17.21l-0.13,17.01l1.38,0.32
	c6.12,1.41,61.78,10.76,62.97,10.569c0.85-0.13,14.61,2.11,30.6,4.99c32.511,5.851,31.82,5.76,34.761,4.36L1064.415,483.278z
	 M1021.13,467.498c-11.032-5.149-13.54-17.029-4.602-21.8c8.77-4.689,22.5,3.55,22.5,13.49c0,7.34-10.01,11.979-17.898,8.3V467.498z
	 M1033.391,466.948c5.572-2.8,7.069-13.91,1.874-13.91c-3.205,0-7.547-2.029-10.877-5.069c-3.82-3.49-4-3.53-7.69-1.75
	c-8.46,4.09-5.899,15.91,4.47,20.62c3.32,1.51,9.301,1.55,12.21,0.08L1033.391,466.948z M1035.903,451.839
	c0-1.9-7.488-6.28-11.495-6.721l-2.567-0.279l2.974,2.8C1028.475,451.089,1035.904,453.898,1035.903,451.839L1035.903,451.839z
	 M966.796,457.538c-13.467-5.63-15.437-19.79-3.229-23.21c11.184-3.13,24.397,10.65,18.485,19.28
	C979.115,457.889,972.024,459.719,966.796,457.538L966.796,457.538z M978.008,456.479c5.747-2.75,6.846-14.07,1.365-14.07
	c-4.013,0-8.513-2.38-12.196-6.439l-1.59-1.75l-2.779,0.979c-3.41,1.2-4.87,2.47-6.021,5.23c-4.21,10.06,10.479,21.16,21.22,16.03
	L978.008,456.479z M979.631,440.488c-1.031-1.93-5.928-4.79-9.506-5.56c-4.18-0.9-4.231-0.641-0.517,2.56
	C974.234,441.469,981.288,443.578,979.631,440.488z M1026.421,421.099c-9.706-1.101-17.46-11.3-13.87-18.24
	c2.801-5.42,9.264-7.37,16.034-4.83C1044.422,403.948,1042.641,422.929,1026.421,421.099L1026.421,421.099z M1035.806,418.429
	c4.271-3.92,4.37-12.91,0.147-12.91c-3.28,0-7.587-2-10.979-5.1l-3.384-3.101l-2.56,0.771c-9.2,2.76-8.73,14.22,0.826,20.159
	c5.013,3.11,12.652,3.2,15.949,0.171V418.429z M1036.528,404.309c0-1.94-9.23-6.95-12.68-6.89c-1.193,0.02-0.977,0.399,1.59,2.76
	C1029.142,403.589,1036.528,406.339,1036.528,404.309L1036.528,404.309z M967.595,410.179c-10.569-3.88-14.824-15.931-7.521-21.3
	c8.706-6.41,23.955,1.399,23.955,12.26c0,7.58-8.168,12.07-16.433,9.03L967.595,410.179z M978.692,409.219
	c5.618-2.73,6.675-14.33,1.306-14.33c-4.008,0-8.773-2.51-12.064-6.351c-3.377-3.949-10.71,1.29-10.759,7.681
	C957.101,405.969,969.708,413.589,978.692,409.219L978.692,409.219z M980.902,393.688c0-1.94-7.996-6.33-11.457-6.28l-1.98,0.03
	l3.023,2.71C974.158,393.438,980.903,395.729,980.902,393.688L980.902,393.688z M872.132,469.568
	c-1.006-12.49-0.482-43.57,1.018-60.46c0.609-6.79,0.95-12.49,0.77-12.67c-0.27-0.27-745.13-112.18-746.67-112.18
	c-0.94,0-4.37,25.451-5.74,42.61c-0.85,10.7-0.47,39.54,0.61,45.2c2.04,10.69,2.59,12.08,5.02,12.47c1.23,0.2,38.8,4.99,83.48,10.65
	c44.69,5.66,81.94,10.49,82.79,10.72c1.87,0.521,579,73.82,579.32,73.58c0.13-0.09-0.12-4.56-0.561-9.93L872.132,469.568z
	 M1071.09,473.219c-0.29-0.75-0.173-0.9,0.429-0.53c0.54,0.33,0.68,0.271,0.396-0.19c-0.402-0.649,2.383-6.989,3.072-6.989
	c0.17,0-0.41,1.409-1.28,3.13c-0.87,1.72-1.439,3.12-1.27,3.12c0.649,0,3.27-5.98,2.97-6.811c-0.21-0.58-0.04-0.7,0.49-0.37
	c0.51,0.32,0.649,0.25,0.369-0.199c-0.409-0.65,3-8.25,3.69-8.25c0.17,0-0.4,1.399-1.271,3.119c-0.869,1.721-1.449,3.131-1.27,3.131
	c0.65,0,3.27-5.98,2.97-6.811c-0.21-0.58-0.04-0.71,0.5-0.37c0.511,0.32,0.65,0.24,0.37-0.21c-0.41-0.649,2.38-6.99,3.07-6.99
	c0.17,0-0.26,1.12-0.96,2.5c-0.71,1.37-1.141,2.5-0.97,2.5c0.649,0,2.649-4.729,2.359-5.56c-0.21-0.58-0.04-0.7,0.49-0.37
	c0.5,0.311,0.64,0.24,0.38-0.189c-0.47-0.75,1.45-5.23,2.07-4.851s2.229-59.78,1.77-66.229c-0.17-2.38-0.62-1.69-8.92,13.859
	c-4.81,9-8.84,16.271-8.96,16.15s3.88-7.87,8.89-17.22c5.011-9.351,9.101-17.33,9.101-17.721c-0.03-5.16-5.391-11.21-11.65-13.14
	c-3.84-1.19-20.45,34.59-16.76,36.11c3.18,1.31,5.87,3.76,8.28,7.54l1.62,2.55l-0.12,12.81c-0.07,7.04-0.301,22.55-0.521,34.45
	s-0.21,21.96,0.03,22.34c0.649,1.061,1,0.851,0.55-0.34L1071.09,473.219z M877.153,472.839c0-0.44-0.766-1.91-1.702-3.28
	c-2.146-3.141-2.854-1.44-0.794,1.89c1.36,2.2,2.49,2.83,2.49,1.391H877.153z M875.616,455.658c-0.232-0.939-0.896-2.42-1.474-3.279
	l-1.053-1.561l-0.199,1.76c-0.214,1.851,1.31,4.801,2.47,4.801C875.786,457.379,875.88,456.738,875.616,455.658L875.616,455.658z
	 M930.699,428.828c-2.12-0.409-4.06-0.76-4.32-0.779c-0.26-0.03-0.46,3.97-0.46,8.859l0.01,8.91l4.32-8.13l4.32-8.12l-3.86-0.75
	L930.699,428.828z M1087.659,443.299c-0.189-0.19-0.54,0.149-0.77,0.77c-0.341,0.891-0.271,0.96,0.35,0.35
	c0.43-0.43,0.62-0.93,0.43-1.119H1087.659z M875.909,437.519c0-1.82-1.52-4.521-2.53-4.521c-0.76,0-0.75,2.61,0.021,4.65
	c0.84,2.19,2.52,2.1,2.52-0.14L875.909,437.519z M878.159,417.679c0.52-2.07-0.78-4.17-2.44-3.94c-1.01,0.15-1.409,0.69-1.55,2.15
	c-0.34,3.56,3.16,5.12,4,1.779L878.159,417.679z M257.789,409.799c-2.58-0.261-0.67-0.37,5.24-0.301
	c5.12,0.051,8.63-0.109,7.81-0.369c-0.85-0.271,0.39-0.37,2.89-0.24c3.02,0.16,3.89,0.069,2.82-0.311
	c-1.08-0.38-0.21-0.479,2.82-0.319c2.41,0.12,3.82,0.02,3.13-0.23c-1.64-0.6,3.91-1.5,5.67-0.92c0.91,0.3,0.99,0.24,0.33-0.229
	c-0.71-0.511-0.66-0.66,0.3-0.851c0.65-0.12-35.24-4.81-79.75-10.43c-44.51-5.61-81.74-10.4-82.75-10.641
	c-2.16-0.52-3.44-4.22-4.69-13.55c-1.45-10.81-0.92-9.67-4.28-9.279c-21.02,2.43-30.3,8.829-23.16,15.979
	c1.43,1.43,2.23,2.37,1.78,2.09c-0.54-0.34-0.67-0.26-0.36,0.23c0.25,0.399,0.72,0.569,1.03,0.37c0.77-0.471,3.21,1.26,2.61,1.85
	c-0.25,0.25-0.18,0.41,0.16,0.34c1.32-0.27,2.25,0.04,1.88,0.641c-0.22,0.359,0.06,0.449,0.69,0.199
	c0.73-0.279,0.93-0.17,0.63,0.311c-0.3,0.49-0.1,0.59,0.63,0.31c0.72-0.28,0.93-0.17,0.63,0.311c-0.3,0.489-0.1,0.59,0.63,0.31
	c0.72-0.28,0.93-0.18,0.63,0.311c-0.3,0.489-0.1,0.59,0.63,0.31c0.78-0.3,0.93-0.19,0.56,0.42c-0.34,0.55-0.27,0.68,0.21,0.38
	c0.95-0.59,3.34,0.17,2.88,0.92c-0.19,0.311,0.13,0.391,0.72,0.16c0.68-0.26,0.92-0.17,0.66,0.26c-0.27,0.431,0.06,0.551,0.93,0.32
	c1-0.27,1.22-0.15,0.84,0.46c-0.34,0.55-0.27,0.67,0.22,0.37c0.91-0.56,3.34,0.16,2.91,0.87c-0.18,0.29,0.28,0.359,1.02,0.17
	c0.86-0.23,1.2-0.12,0.93,0.31c-0.26,0.431,0.08,0.54,0.94,0.311c0.87-0.23,1.2-0.12,0.94,0.31c-0.26,0.42,0.07,0.54,0.94,0.311
	c0.86-0.23,1.2-0.11,0.93,0.31c-0.26,0.43,0.08,0.54,0.94,0.32c0.87-0.23,1.2-0.12,0.94,0.31c-0.26,0.42,0.07,0.54,0.94,0.311
	c0.82-0.221,1.19-0.11,0.95,0.279c-0.24,0.391,0.26,0.53,1.31,0.36c1.34-0.21,1.5-0.13,0.76,0.4c-0.71,0.51-0.41,0.59,1.25,0.31
	c1.7-0.28,1.98-0.21,1.25,0.33c-0.73,0.55-0.54,0.61,0.87,0.28c1.15-0.271,1.67-0.2,1.42,0.199c-0.23,0.381,0.25,0.5,1.25,0.311
	c1-0.19,1.49-0.07,1.25,0.31c-0.23,0.38,0.28,0.521,1.32,0.351c1.34-0.221,1.5-0.13,0.76,0.399c-0.71,0.511-0.41,0.58,1.25,0.311
	c1.67-0.28,1.97-0.21,1.25,0.31c-0.71,0.521-0.41,0.59,1.25,0.311c1.67-0.271,1.97-0.2,1.25,0.319
	c-0.72,0.521-0.41,0.591,1.25,0.311c1.64-0.271,1.95-0.2,1.25,0.292c-0.7,0.49-0.29,0.57,1.56,0.316c1.86-0.26,2.26-0.18,1.57,0.311
	s-0.29,0.57,1.57,0.31c1.89-0.26,2.27-0.18,1.56,0.33c-0.72,0.51-0.42,0.59,1.25,0.311c1.64-0.271,1.95-0.2,1.25,0.3
	c-0.7,0.49-0.3,0.57,1.56,0.31c1.86-0.26,2.26-0.18,1.56,0.311c-0.7,0.489-0.3,0.569,1.56,0.31c1.79-0.25,2.24-0.17,1.6,0.28
	c-0.65,0.45-0.12,0.55,1.88,0.35c2.07-0.21,2.46-0.13,1.53,0.32c-0.91,0.43-0.4,0.52,1.88,0.31c2.32-0.21,2.81-0.13,1.88,0.323
	c-0.92,0.45-0.52,0.521,1.57,0.271c2-0.24,2.55-0.15,1.907,0.3c-0.64,0.45-0.1,0.54,1.88,0.313c1.98-0.229,2.52-0.14,1.88,0.311
	c-0.644,0.45-0.11,0.54,1.87,0.31c1.84-0.21,2.5-0.12,1.95,0.271c-0.55,0.38,0.3,0.503,2.5,0.35c2.4-0.16,2.98-0.06,2.09,0.35
	c-0.88,0.41-0.232,0.5,2.19,0.311c2.41-0.19,3.06-0.1,2.188,0.304c-0.86,0.4-0.1,0.496,2.5,0.313c2.6-0.19,3.37-0.09,2.5,0.31
	c-0.86,0.4-0.1,0.49,2.5,0.311c2.54-0.181,3.35-0.091,2.5,0.29c-0.83,0.371,0.19,0.489,3.13,0.344c3.12-0.15,3.84-0.066,2.5,0.31
	c-1.26,0.351-0.15,0.45,3.44,0.311c3.62-0.15,4.71-0.051,3.44,0.31s-0.17,0.46,3.44,0.311c3.4-0.141,4.64-0.036,3.44,0.279
	c-1.15,0.305,0.91,0.436,5.31,0.34c4.36-0.1,6.08,0.011,4.38,0.271c-1.55,0.24,3.238,0.399,10.63,0.355
	c10.697-0.06,11.91,0.005,5.94,0.326c-6.14,0.33-5.01,0.4,6.25,0.38c7.93-0.016,12.03-0.194,9.69-0.42L257.789,409.799z
	 M922.789,407.418c0-0.67-0.32-1.409-0.72-1.659c-0.41-0.261-0.55-0.17-0.32,0.199c0.42,0.671-1.88,1.801-4.58,2.24
	c-0.859,0.141,0.061,0.3,2.03,0.34c3.17,0.08,3.6-0.05,3.6-1.12H922.789z M286.369,407.629c-0.2-0.211-0.74-0.23-1.19-0.051
	c-0.5,0.2-0.35,0.351,0.38,0.38c0.66,0.03,1.03-0.119,0.82-0.329H286.369z M919.219,406.538c6.5-2.72,6.71-2.649-20.39-6.689
	c-24.4-3.641-24.47-3.641-16.729,0.229c11.199,5.601,30.949,9.03,37.13,6.45L919.219,406.538z M925.719,398.778l2.19-3.91h-2.15
	c-3.38,0-7.949-0.75-7.649-1.25c0.16-0.25-0.34-0.35-1.101-0.22c-0.76,0.13-113.27-18.43-250.02-41.24l-248.661-41.419l-1.8,3.184
	c-0.984,1.75-2.02,3.525-2.3,3.945c-0.391,0.601-261.39-37.81-281.223-41.38c-1.765-0.32-6.757,5.84-5.64,6.96
	c0.293,0.29,794.36,119.47,795.324,119.37c0.46-0.05,1.82-1.85,3.03-4L925.719,398.778z M915.839,392.358
	c-2.21-1.3-15.52-6.37-20.54-7.84c-4.319-1.26-358.42-66.19-407.189-74.66c-7.561-1.32-13.25-2.42-12.65-2.45
	c1.391-0.07,11.33,1.43,19.74,2.98l6.46,1.189l-0.42-2.27c-3.71-20.18-32.27-21.62-75.63-3.84l-3.12,1.279l10.63-0.409
	c13.87-0.54,32.76-0.37,37.5,0.35c3.24,0.479,2.94,0.52-2.189,0.24c-17.5-0.931-48.46,0.029-49.04,1.529
	c-0.511,1.33,0.5,1.83,5.279,2.631c251.2,42.279,492.801,82.239,491.15,81.279L915.839,392.358z M1066.679,375.009
	c5.061-9.53,8.99-17.5,8.75-17.721c-0.369-0.33-104.68-21.21-105.84-21.189c-0.63,0.01-18.83,34.42-18.43,34.83
	c0.36,0.35,103.54,21.26,105.39,21.35c0.61,0.03,4.171-6.04,10.13-17.28V375.009z M933.119,378.059
	c3.51-1.61,3.56-1.69,13.28-19.891c7.649-14.329,8.53-16.27,7.02-15.489c-0.939,0.489-2.81,1.069-4.14,1.279l-2.42,0.391
	l-9.05,16.92c-4.98,9.31-9.141,17.16-9.261,17.45c-0.35,0.87,1.96,0.54,4.591-0.66H933.119z M941.709,371.969
	c1.101-0.57,3.38-1.011,5.141-0.99l3.17,0.03l4.529-8.54c2.49-4.7,6.65-12.54,9.25-17.431c5.29-9.96,5.23-10.6-0.909-8.939
	c-4.131,1.109-5.86,3.3-12.601,15.95c-3.479,6.529-7.439,13.909-8.79,16.399c-2.68,4.93-2.67,5.01,0.23,3.51L941.709,371.969z
	 M431.128,285.439l17.4-32.57l-1.8-1.96c-5.16-5.6-25.53-26.98-25.851-27.13c-0.199-0.093-7.88,13.9-17.069,31.09l-16.71,31.27
	l1.26,1.72c0.689,0.95,5.22,5.66,10.08,10.47c8.22,8.136,19.01,19.79,14.51,15.666l-2-1.835v2.57c0,2.38,0.5,3.13,2.19,3.24
	c0.34,0.029,8.449-14.61,18.02-32.521L431.128,285.439z M410.278,314.18v-3.26l-11.545-11.604l-11.544-11.603l-0.36,2.52
	c-0.2,1.386-0.279,7.295-0.17,13.13l0.19,10.613l10.63,1.653c5.85,0.899,11.12,1.68,11.72,1.729c0.92,0.06,1.101-0.47,1.101-3.18
	L410.278,314.18z M506.469,308.533c0.699-3.886,0.706-19.44,0.005-17.48c-0.276,0.774-0.476,0.598-0.805-0.71
	c-4.59-18.295-24.08-36.82-45.21-42.977c-3.859-1.124-7.14-1.92-7.29-1.766c-0.149,0.16-6.649,12.23-14.449,26.84
	c-7.79,14.61-15.15,28.33-16.33,30.48l-2.16,3.91l5.189-1.93c21.75-8.08,28.04-9.99,38.16-11.53c20.74-3.15,35.25,2.59,38.04,15.07
	c0.7,3.12,1.21,3.71,3.46,3.94c0.4,0.04,1.021-1.65,1.42-3.83L506.469,308.533z M507.586,295.733c-0.157-0.61-0.298-0.263-0.31,0.77
	c-0.014,1.03,0.116,1.527,0.287,1.104C507.733,297.185,507.745,296.34,507.586,295.733L507.586,295.733z"/>
</svg>
