<svg xmlns="http://www.w3.org/2000/svg" viewBox="0 0 1227.5 821.25" height="821.25" width="1227.5"><path d="M361.25 820.625c0-.414 30.52-.625 90.313-.625 59.79 0 90.312.21 90.312.625 0 .414-30.52.625-90.313.625-59.79 0-90.312-.21-90.312-.625zm189.375 0c0-.412 19.896-.625 58.438-.625 38.54 0 58.437.213 58.437.625 0 .412-19.896.625-58.438.625-38.54 0-58.437-.213-58.437-.625zm-61.563-166.798l-430-154.17-.174-7.56-.175-7.56L173.533 379.3c63.15-57.88 115.068-105.407 115.372-105.613.308-.21-.014-3.394-.726-7.188-6.16-32.82-5.03-68.64 3.06-96.91 2.4-8.39 3.89-12.73 4.37-12.73.2 0 .41-.63.47-1.4.05-.77.38-1.49.72-1.61.34-.11.47-.57.3-1.02-.17-.45.07-1.21.55-1.69.47-.48.76-1.19.63-1.57-.13-.39.15-1.09.62-1.57.47-.47.73-1.25.57-1.72-.2-.58-.02-.7.52-.36.58.36.7.21.41-.54-.23-.59-.1-1.04.31-1.04.39 0 .53-.17.32-.38-.58-.58 5.74-12.85 6.41-12.44.31.19.53-.15.48-.76-.17-2.24 18.11-27.04 19.93-27.04.18 0-1.28 1.83-3.25 4.07s-3.43 4.23-3.25 4.41c.18.18 2.4-1.95 4.93-4.73 46.33-50.99 118.87-52.71 253.98-6.03 115.47 39.9 177.74 72.93 228.6 121.28 88.41 84.05 128.46 219.69 88.41 299.42-29.1 57.93-31.27 67.74-22.04 99.64 1.23 4.27 2.63 9.98 3.1 12.7 1.01 5.84 1.09 5.96 3.23 4.56 2.5-1.64 1.92-7.59-2.14-21.9-2.99-10.54-5.2-21.83-5.04-25.78.04-.95.6 1.79 1.25 6.09.9 5.99 5.34 24.43 7.79 32.37.4 1.3 52.14-46.53 52.14-48.19 0-.76-1.7-6.85-3.77-13.56-8.61-27.91-8.38-40.11 1.13-60.63 5.99-12.92 12.54-27.81 12.33-28.02-.19-.19-30.38 27.17-40.51 36.71-1.33 1.25-2.2 1.76-1.96 1.15.23-.6.68-1.09 1.01-1.09.33 0 .45-.23.27-.52-.18-.29.78-3.31 2.12-6.72 1.34-3.41 2.45-5.89 2.47-5.52.02.37-.95 3.16-2.14 6.21-1.2 3.04-2.09 5.62-1.99 5.72.97.97 42.27-38.6 44.71-42.85 47.82-83.26 3.72-229.03-94.93-313.79-44.2-37.98-101.44-68.12-188.91-99.47l-6.72-2.41-25.96 23.83-25.97 23.83 15.51 5.74c133.26 49.4 204.63 101.99 252.47 186.04 24.61 43.25 40.9 94.27 42.38 132.74l.29 7.5-.58-7.19c-10.29-127.73-96.05-234.81-236.22-294.98-88.15-37.83-176.68-65.17-225.94-69.76l-8.75-.82 7.19.31c27.59 1.2 77.3 13.7 136.39 34.31l16.88 5.89 25.95-23.82 25.95-23.82-9.61-3.36c-121.41-42.37-185.26-47.17-234-17.56-10.97 6.66-46.34 37.46-44.53 38.77.58.42.5.48-.29.23-.6-.2-1.09-.13-1.09.14s-.98.96-2.19 1.53c-2.66 1.27-2.93.85-.31-.5 1.18-.62 3.68-3.67 6.79-8.3 4.39-6.55 14.72-19.52 15.54-19.52.17 0-1.02 1.56-2.65 3.46-4.61 5.39-2.92 4.65 2.57-1.12 51.61-54.32 130.23-51.8 293.05 9.4C786.1 99.16 844.1 134.96 891.9 189.69c73.594 84.245 102.607 204.938 66.498 276.62-26.32 52.247-30.427 67.033-24.733 89.005.98 3.78 2.806 10.807 4.057 15.614 1.252 4.8 2.276 9.79 2.276 11.07 0 1.95.178 2.27 1.094 1.94 4.64-1.65 4.49-5.08-1.096-24.89-2.578-9.14-4.44-19.68-4.28-24.22.068-1.92.154-2.14.308-.79 1.01 8.86 1.713 13.73 2.488 17.23l.91 4.11 6.686.82c41.99 5.13 50.514 38.24 18.025 70.02-2.274 2.22-4.135 3.8-4.135 3.51 0-.29-.595.22-1.32 1.15-.728.92-1.468 1.53-1.647 1.35-.17-.18-.88.38-1.56 1.25-.68.86-1.39 1.42-1.58 1.23-.18-.19-.73.22-1.22.91-.48.69-1.11 1.11-1.39.94-.28-.18-.68.12-.89.65-.2.53-.63.81-.94.62-.31-.19-.74.11-.95.67-.21.56-.54.87-.73.69-.18-.19-1.02.29-1.85 1.07-1.99 1.85-8.73 5.42-9.25 4.91-.22-.23-.4-.06-.4.36s-.28.59-.62.38c-.34-.22-.62-.07-.62.31s-.28.52-.62.31c-.34-.22-.62-.1-.62.26 0 .75-3.71 2.8-4.19 2.31-.18-.18-.75.09-1.27.61s-1.33.79-1.8.61c-.47-.18-.86-.01-.86.38s-.18.54-.39.33c-.21-.21-.81.03-1.32.55-.51.51-1.25.83-1.64.7-.39-.13-1.09.15-1.57.63s-1.25.72-1.72.54c-.47-.18-.86-.04-.86.32 0 .37-.55.47-1.32.23-.95-.31-1.2-.21-.86.33.34.55.09.63-.94.31-1.02-.33-1.27-.24-.93.31.34.55.08.63-.94.31-.85-.27-1.26-.21-1.03.15.5.8-4.16 2.16-5.56 1.62-.81-.31-.97-.2-.59.4.39.64.12.73-1.2.39-1.25-.32-1.58-.23-1.25.32.34.55-.07.64-1.54.35-1.42-.28-1.88-.19-1.57.3.3.49-.08.58-1.27.28-1.23-.31-1.58-.23-1.25.3.34.54-.18.63-1.98.32-1.87-.32-2.22-.26-1.5.28.72.53.23.61-2.07.34-2.17-.26-2.88-.16-2.56.36.32.52-.36.6-2.5.31-1.87-.26-2.8-.18-2.56.22.25.4-2.71.6-8.25.57-5.58-.03-8.19-.24-7.38-.6.8-.35-.33-.43-3.12-.22-3.36.26-4.16.17-3.44-.37.73-.56.48-.62-1.17-.29-1.51.3-1.99.21-1.67-.3.31-.51-.06-.59-1.27-.29-1.24.31-1.58.23-1.25-.31.33-.54-.01-.62-1.25-.31-1.29.32-1.59.23-1.23-.36.35-.58.13-.67-.85-.36-.77.24-1.33.15-1.33-.23 0-.36-.38-.5-.85-.32s-1.28-.1-1.8-.61c-.52-.52-1.12-.77-1.33-.56-.22.21-.39.07-.39-.32s-.35-.58-.78-.42c-.96.36-4.85-1.93-4.85-2.86 0-.37-.28-.5-.63-.28-.34.21-.8-.05-1-.59-.21-.54-.61-.83-.9-.65-.29.18-.81-.18-1.17-.79-.35-.6-.65-.9-.66-.65-.05 1.34-5.27-5.53-6.98-9.2-1.73-3.7-2.03-5.13-2.28-10.63l-.28-6.37-2.26-.78c-1.25-.43-4.62-1.9-7.49-3.27-9.39-4.47-37.52-13.95-55.32-18.62l-9.92-2.61-1.49 1.4c-.82.77-1.49 1.18-1.49.91s-.55.17-1.23.98c-.68.81-1.24 1.24-1.25.96-.01-.28-.48-.06-1.04.5s-1.4.87-1.87.69c-.47-.18-.86-.1-.86.18 0 .84-3.03 1.95-4.16 1.52-.76-.29-.91-.18-.53.43.41.65.08.74-1.49.43-1.42-.29-1.87-.2-1.56.31.31.51-.22.61-1.86.34-1.37-.22-2.15-.14-1.94.22.22.35-2.4.58-6.58.58-4.41 0-6.81-.23-6.57-.62.24-.39-.37-.47-1.62-.22-1.42.28-1.88.19-1.57-.32.31-.507-.14-.598-1.56-.31-1.52.3-1.89.21-1.51-.39.36-.58.14-.68-.84-.37-.82.26-1.33.15-1.33-.28 0-.38-.26-.54-.58-.34-.72.45-3.8-.91-3.8-1.67 0-.31-.28-.39-.62-.176-.35.21-.63.07-.63-.32s-.28-.525-.63-.31c-.34.21-.62.07-.62-.31s-.256-.54-.57-.35c-.31.192-1.34-.56-2.29-1.68-.944-1.12-1.97-1.96-2.27-1.86-1.21.36-3.745-6.65-3.32-9.19.39-2.29.31-2.45-1.35-2.79-.97-.2-11.186-2.077-22.7-4.17-71.35-12.99-117.595-28.56-156.57-52.715-1.72-1.065-3.69-2.27-4.375-2.67-.68-.4-7.06-4.27-14.18-8.59-11.47-6.97-13.11-7.79-14.52-7.255-.873.33-2.06.424-2.634.204-.74-.285-.9-.17-.55.4.37.595.14.68-.91.35-1.02-.326-1.28-.24-.94.31.34.55.09.64-.93.317-1.046-.336-1.28-.25-.916.34.38.62-.25.704-2.89.395-2.1-.25-3.04-.18-2.48.165.57.35-1.5.56-5.624.56-4.55 0-6.15-.18-5.27-.59.895-.42.4-.5-1.75-.27-1.654.17-2.867.09-2.7-.18.17-.27-.714-.49-1.957-.49s-2.36-.31-2.49-.69c-.12-.38-.82-.53-1.54-.34-.96.25-1.18.13-.82-.46.34-.54.21-.71-.37-.5-1.06.38-4.3-1.19-4.3-2.08 0-.36-.28-.47-.63-.26-.34.21-.624.07-.624-.31s-.26-.54-.58-.34c-4.665 2.88-8.94-13.6-4.77-18.41 3.264-3.77 3.81-3.175-7.605-8.32-27.62-12.44-65.17-24.81-65.17-21.48 0 .31-.42.39-.94.19-.515-.19-.937-.06-.937.29 0 .38-.56.47-1.33.23-.82-.26-1.18-.18-.94.21.5.8-2.28 1.51-3.72.96-.8-.31-.95-.2-.58.4.4.64.12.73-1.2.4-1.24-.31-1.58-.22-1.24.32.34.55-.07.64-1.54.35-1.4-.28-1.87-.19-1.57.3.31.5-.27.58-2 .28-1.86-.32-2.21-.26-1.49.27.72.54.38.6-1.47.3-1.796-.3-2.285-.21-1.936.36.35.57-.49.66-3.53.37-2.58-.25-3.56-.18-2.75.18s-1.98.57-8.01.6c-5.38.03-9.11-.19-8.91-.52.2-.32-.8-.43-2.31-.26-2.072.24-2.45.15-1.72-.41.73-.55.32-.61-1.793-.29-2.07.32-2.62.238-2.26-.34.34-.542.1-.64-.86-.34-.73.23-1.33.15-1.33-.19 0-.33-.6-.45-1.34-.26-.98.26-1.22.14-.86-.44.36-.59.13-.67-.92-.34-1.02.32-1.28.238-.94-.32.34-.54.1-.64-.86-.33-.82.26-1.33.15-1.33-.28 0-.383-.28-.53-.62-.313-.35.21-.63.07-.63-.31s-.28-.52-.63-.31c-.34.216-.625.07-.625-.31 0-.383-.28-.524-.62-.31-.34.21-.62.07-.62-.31 0-.384-.28-.53-.627-.31-.35.21-.63.07-.63-.31 0-.39-.28-.53-.628-.32-.34.21-.62.07-.62-.313s-.28-.52-.63-.31c-.347.21-.63.07-.63-.31 0-.39-.26-.54-.58-.34-.32.19-1.16-.39-1.88-1.3-.71-.91-1.31-1.41-1.32-1.1-.01.3-.57-.11-1.25-.93-.67-.81-1.23-1.263-1.23-1.01 0 1.3-5.08-6.18-6.6-9.7-8.29-19.28 11.29-52.02 40.17-67.17.07-.04-.56-2.303-1.4-5.04-.84-2.74-1.45-5.23-1.345-5.54.1-.31.83 1.66 1.61 4.377s1.8 5.78 2.27 6.81c5.03 11.2 4.54 28.682-1.303 46.34-3.75 11.34-3.86 12.34-1.52 14.06 3.27 2.4 5.397 2.22 5.83-.5.22-1.32 1.68-6.326 3.25-11.12 8.27-25.24 6.16-36.35-21.13-110.976-53.46-146.25 19.5-255.98 157.07-236.23 72.18 10.37 216.57 64.04 280.27 104.19 127.5 80.36 192.6 236.8 141.29 339.515-27.89 55.83-29.5 64.09-19.67 100.63 1.18 4.396 1.81 7.99 1.61 9.25-.36 2.3.266 2.73 5.04 3.47 3.52.54 3.52.58 1.07-8.68-1.175-4.46-2.84-10.78-3.69-14.05-6.06-23.24-2.404-36.71 24.52-90.31C942.85 430.32 885 275.55 774.05 193.803 693.16 134.33 509.62 68 425.94 68.087c-103.815.11-165.98 101.236-133.055 216.44.868 3.036 1.447 5.647 1.288 5.806-.29.3-3.2-9.98-4.06-14.38l-.48-2.44-114.84 105.21C111.668 436.64 60.2 484.19 60.46 484.44c.262.242 193.65 69.664 429.75 154.27l429.274 153.82 2.11-1.734c1.16-.954 65.944-60.234 143.967-131.734l141.86-130-1.91-.815c-16.76-7.134-234.04-83.78-234.77-82.817-.82 1.08-.85 1.07-.52-.11 2.37-8.616 3.2-11.34 3.63-11.83.43-.487-.76 4.235-2.22 8.853-.35 1.103 10.13 4.977 118.08 43.657l118.46 42.447-.17 7.854-.17 7.86-144.06 131.99c-79.23 72.6-144.2 131.97-144.37 131.93-.17-.03-193.81-69.44-430.31-154.23zM918.93 793.123c-.27-.23-193.395-69.536-429.167-154.01C253.99 554.637 60.7 485.373 60.23 485.193c-.693-.265-.855 1.03-.855 6.81v7.14L489.22 653.185l429.84 154.047.178-6.845c.098-3.765-.043-7.034-.312-7.265zM1065 674.363c78.203-71.606 142.267-130.25 142.365-130.32.098-.07.098-3.292 0-7.16l-.177-7.033-143.438 131.43-143.438 131.428-.177 7.212-.177 7.212 1.427-1.29c.785-.71 65.412-59.876 143.615-131.48zm-175.49-14.72c3.88-.54 9.426-1.534 12.326-2.21 2.9-.674 5.658-1.08 6.127-.9.527.203.683.054.41-.39-.302-.486-.012-.602.905-.362.742.2 1.216.14 1.055-.12-.31-.5 10.633-4.12 12.052-3.98.453.04.66-.08.46-.29-.55-.55 3.433-2.06 4.19-1.6.385.24.473.11.212-.31-.414-.67.452-.97 2.59-.89.426.02.59-.27.366-.63-.257-.41-.01-.51.664-.25.723.28.927.18.625-.31-.3-.49-.097-.59.625-.31.59.23.928.18.75-.11-.348-.56 5.773-3.64 6.678-3.35.3.1.34-.16.086-.57-.31-.51-.12-.62.62-.33.73.28.93.18.63-.31-.3-.49-.09-.59.63-.31.64.25.92.16.69-.2-.35-.57.51-.89 1.77-.67.29.05.34-.2.12-.55-.36-.58.48-.92 1.76-.7.29.05.34-.2.12-.55-.36-.58.48-.92 1.76-.7.29.05.34-.2.12-.55-.38-.61.53-.93 1.87-.66.34.07.41-.08.16-.34-.54-.54 3.28-3.1 4.22-2.83.35.1.42-.03.16-.28-.55-.55 2.07-2.53 2.97-2.24.34.11.42-.01.16-.26-.55-.55 2.07-2.53 2.97-2.24.35.11.45.03.23-.19-.22-.21 1.16-1.86 3.06-3.64 1.91-1.79 4.51-4.57 5.8-6.18 1.29-1.61 2.54-2.74 2.78-2.5.24.24.34.16.23-.19-.11-.34.66-1.89 1.71-3.43 19.01-28.02 7.47-51.68-27.41-56.24-7.55-.98-7.13-1.71-4.5 7.87 4.51 16.42 3.47 20.71-4.91 20.13l-2.71-.19-25.42 23.29-25.42 23.29v3.38c0 6.21-4.54 7.56-14.06 4.16-11.29-4.04-38.2-13.74-39.22-14.14-.97-.39-1.09.02-1.08 3.85.02 9.77 4.18 17.74 12.01 23.02 1.64 1.11 2.77 2.22 2.51 2.47-.26.26-.18.41.16.34 1.58-.32 2.86.07 2.44.75-.26.42-.17.55.21.31.89-.55 4.69 1.1 4.08 1.76-.26.29-.18.36.19.15s2.9.2 5.63.91c9.53 2.47 21.65 2.99 32.91 1.42zm-11.006-20.632c-.208-.54-.38-1.45-.382-2.03 0-.79-.67-1.08-2.78-1.2-1.53-.09-3.515-.44-4.413-.78-1.57-.6-1.63-.54-1.44 1.39.17 1.75.52 2.12 2.69 2.77 3.81 1.15 6.78 1.08 6.31-.14zm-9.755-2.91c0-3.77-40.38-18.06-48.75-17.24-2.82.28.18 1.52 27.5 11.42 21.98 7.97 21.25 7.77 21.25 5.83zm.33-4.37c.37-1.5 0-3.25-4.08-18.9-5.77-22.16-4.04-35.41 8-61.37 2.1-4.53 4.51-9.89 5.36-11.89.84-2 4.32-9.12 7.73-15.81 18.34-36.04 23.28-79.71 13.91-123.1-21.23-98.33-79.42-176.32-169.39-227-72.23-40.68-205.38-87.51-272.5-95.83-131.4-16.28-201.03 96.38-147.38 238.46 4.66 12.34 14.72 41.06 18.71 53.44 7.5 23.25 7.92 36.66 1.74 55.63-2.52 7.72-3.9 13.63-3.07 13.12.26-.16.6.21.76.83.22.85 3.02 1.91 11.79 4.45 18.37 5.33 25.83 8.45 36.42 15.24 3.19 2.05 8.09 4.31 13.91 6.41l8.98 3.25-1.81-3.21c-1-1.76-4.36-7.75-7.48-13.3-3.12-5.55-11.35-19.47-18.29-30.93-33.29-54.97-39.84-66.5-49.52-87.09-62.3-132.58-6.2-256.88 114.27-253.21 81.11 2.48 260.59 68.59 332.5 122.48 114.64 85.9 164.68 241.23 105.43 327.24-9.07 13.17-19.32 24.07-42.92 45.63-11.28 10.31-33.08 31.95-34.11 33.87-.82 1.52 15.88 7.18 22.82 7.72 9.76.77 18.33 3.34 34.41 10.31 12.51 5.43 13.26 5.62 13.76 3.6zm-65.33-28.38c3.61-3.95 12.17-12.44 19.03-18.85 6.86-6.41 16.7-15.62 21.87-20.47 54.92-51.43 68.25-111.31 43.07-193.38-29.88-97.36-94.78-165.98-203.98-215.67-21.51-9.78-81.48-33.7-84.51-33.7-.28 0-.5 5-.5 11.1 0 11.6-.81 35.08-1.91 55.71-.36 6.66-.52 12.24-.36 12.39.78.79 17.81 6.79 23.82 8.39 13.81 3.7 28.74 3.09 39.36-1.61 1.98-.88 3.75-1.59 3.93-1.59 1.43 0-.52 78.88-2.92 117.81-6.62 107.5-8.19 147.85-8.39 214.22l-.12 40.47 2.18.41c1.2.23 14.56 2.72 29.69 5.53l27.5 5.11 1.34-6.3c9.34-43.95 45.87-57.26 74.33-27.09 18.28 19.39 11.37 46.44-8.9 34.86-12.38-7.07-13.67-20.85-2.61-27.69l1.67-1.03-1.79-3.3c-12.57-23.2-36.76-6.76-41.54 28.24-.49 3.6-.83 6.57-.76 6.61.07.04 4.34 1.01 9.5 2.15 13.33 2.96 32.8 8.23 43.75 11.86 5.16 1.71 9.66 3.1 10 3.08.34-.01 3.58-3.25 7.19-7.21zm-67.79 2.62c2.65-.51 5.11-.74 5.46-.53.39.25.44.08.12-.43-.38-.6-.23-.71.56-.41.59.23.92.18.75-.11-.32-.51 4.45-2.31 5.46-2.06.28.07.35-.13.16-.44-.39-.61 1.41-1.62 2.45-1.37.34.09.41-.05.16-.31-.25-.25-.02-.78.51-1.17.77-.56-.98-1.14-8.6-2.82-11.89-2.61-11.6-2-8.24-17.41.54-2.51.83-4.72.64-4.91-.63-.62-8.91-1.3-12.12-.99l-3.14.3-1.18 5.64c-1.14 5.48-1.26 5.71-4.3 8.27l-3.13 2.63-7.28-1.34-7.27-1.35-.34 2.54c-.41 3.01 1.38 6.55 4.83 9.58 1.19 1.05 1.97 2.1 1.74 2.33-.23.24-.14.35.2.25 1-.28 5.28 1.5 4.94 2.06-.18.28.17.32.76.09.78-.3.93-.19.56.42-.29.47-.27.68.05.49.31-.19 2.81.17 5.56.79 6.21 1.4 14.32 1.52 20.65.31zm54.21-14.31c1.11-.47 2.66-1.56 3.46-2.43l1.44-1.57h-3.17c-10.08 0-21.62-14.39-17.59-21.93 1.05-1.97-.06-1.63-2.26.69-9.71 10.26 5.03 30.81 18.1 25.24zm-73.29-7.29c.35-.65 1.18-3.82 1.84-7.06 1.81-8.82 12.52-31.99 12.52-27.1 0 .27-1.36 2.52-3.02 5-2.56 3.83-7.61 14.86-7.61 16.63 0 .31 2.32.55 5.15.54 2.83-.01 6.28.17 7.66.4l2.5.43 3-6.35c4.69-9.91 18.26-23.09 25.43-24.69 2.15-.48 2.12-.5-2.19-1.57-10.07-2.49-19.94-.12-27.64 6.63-1.79 1.58-3.48 2.92-3.75 2.98-5.21 1.25-18.03 27.54-18.29 37.53-.03.8 3.66-2.02 4.37-3.34zm77.52 2.52c9.62 0-.27-27.07-13.28-36.33l-1.78-1.26 2.21 3.65 2.21 3.64-4.37 4.17c-5.56 5.3-6.41 8.94-3.53 15.02 3.01 6.34 12.31 12.77 16.51 11.41.46-.15 1.36-.27 2.01-.27zm144.96-4.68c0-1.89-.21-2.19-1.49-2.19-1.6 0-2.77 3.42-1.37 4 2.06.86 2.85.35 2.85-1.81zm-1.35-7.97c-.66-2.83-1.87-7.41-2.69-10.16-8.79-29.32-6.07-41.16 22.43-97.75 36.11-71.68 7.09-192.4-66.5-276.62-47.38-54.22-105.44-89.99-209.71-129.18C518.7-.71 440.69-3.24 388.6 51.01c-2.752 2.87-5.224 5.08-5.49 4.916-.268-.17-1.35.68-2.406 1.88-2.56 2.91-8.72 12.1-7.383 11.01.58-.475 1.05-.677 1.05-.45 0 .222 5.4-4.54 11.99-10.59 56.69-52 112.54-54.91 240.2-12.47 112.27 37.32 177.46 69.61 227.82 112.852 98.93 84.95 143.13 229.47 95.94 313.71-1.83 3.266-5.57 11-8.33 17.188-2.75 6.19-6.25 13.92-7.78 17.19-10.09 21.56-10.46 33.22-1.93 61.18 3.53 11.59 3.69 11.95 5.3 11.95h1.66l-1.19-5.156zM374.37 67.9c0-.59 8.13-11.65 8.567-11.65.18 0 .06.352-.29.78-.34.43-2.348 3.153-4.45 6.05-2.11 2.896-3.837 5.066-3.837 4.82zm277.46 506.32c.025-.947-.236-1.72-.58-1.72s-.605 1.336-.58 2.97c.046 3.216 1.075 2.11 1.16-1.25zm-3.08 2.785c0-5.342-15.31-41.49-23-54.296l-4.188-6.98-31.875-11.41-32.703-11.7c-.456-.17.845 3.04 2.892 7.13 7.262 14.5 12.568 30.47 16.372 49.28 2.234 11.04 1.024 9.59 10.627 12.73 19.595 6.4 61.875 16.81 61.875 15.24zM612.9 526.89c-4.726-4.358-6.073-9.39-2.512-9.39 2.054 0 8.048 5.717 8.694 8.293 1.078 4.295-2.1 4.86-6.182 1.096zm5.85.58c0-3.23-5.524-9.345-8.44-9.345-1.908 0-1.995 1.072-.347 4.303 2.465 4.832 8.787 8.458 8.787 5.04zm-39.43-10.576c-4.188-4.404-6.31-10.16-4.064-11.02 2.016-.775 7.293 3.583 9.4 7.76 2.77 5.498-1.01 7.807-5.335 3.26zm5.68.262c0-4.015-5.904-10.906-9.344-10.906-1.06 0-.754 2.982.572 5.582 2.958 5.8 8.772 9.328 8.772 5.324zm61.963 46.907c-7.216-20.456-17.69-42.877-22.832-48.873-2.54-2.967-1.06 2.174 2.11 7.345 6.92 11.254 15.47 30.654 21.03 47.716 2.18 6.67 2.44 7.19 2.61 5 .13-1.67-.78-5.16-2.9-11.18zm4.86-31.407c.013-59.3 1.24-91.658 7.54-198.906 1.364-23.203 2.614-43.523 2.778-45.156.23-2.253.1-2.97-.56-2.97-1.3 0-2.54 18.41-7.19 106.25-4.27 80.85-5.97 180-3.09 180 .29 0 .53-17.647.53-39.218zm-2.08-9.375c.066-55.89 1.595-95.43 7.45-192.69.86-14.28 1.425-27.78 1.256-30-.23-2.95-.15-3.61.28-2.46.48 1.27.53 1.09.26-.99-.18-1.4-.03-4.92.33-7.81 1.11-8.9 2.64-37 2.82-52.13.1-7.9.39-18.1.66-22.66l.49-8.29-3.63 1.61c-14.45 6.39-31.48 5.34-54.66-3.38-4.63-1.74-8.49-3.08-8.6-2.97-.1.1-.61 6.49-1.14 14.2-1.26 18.49-2.45 32.05-4.43 50.17-.9 8.2-1.39 15.13-1.09 15.42.29.28 10.23 3.96 22.09 8.18s21.67 7.75 21.8 7.84c.85.63-14.06 92.07-15.19 93.21-.16.16-10.05-3.26-21.98-7.6s-21.75-7.82-21.81-7.73c-.07.09-1.31 6.22-2.76 13.61-3.11 15.81-9.5 44.98-13.38 61.07l-2.74 11.36 1.63.59 32.48 11.65c16.97 6.09 31.06 10.83 31.32 10.54.63-.7 7.98-31.95 12.55-53.38 12.61-59.05 21.12-115.12 26.19-172.45.95-10.82 1.76-18.56 1.8-17.18.33 12.8-7.39 78.39-13.97 118.75-5.94 36.4-20.62 107.37-25.7 124.22-.21.7 0 1.1.61 1.1 1.17 0 .61 2.03 6.98-25.31 10.57-45.37 20.28-97.91 25.93-140.31 1.31-9.79 2.4-17.09 2.44-16.2.51 13.34-16 106.26-28.02 157.65l-5.67 24.26v29.42l3.99 6.65c7.11 11.85 13.08 25.14 19.17 42.74 1.16 3.35 2.12 6.09 2.13 6.09.01 0 .04-21.02.07-46.72zm-40.063-63.91c-4-4.41 1.17-24.99 6.275-24.99 4.367 0 4.315 14.81-.078 22.34-2.3 3.94-4.277 4.79-6.2 2.66zm4.034-.58c4.726-4.72 6.83-20.98 3.024-23.38-2.3-1.45-5.338 3.31-7.054 11.06-2.13 9.62.054 16.31 4.03 12.33zm-38.37-12.46c-3.51-6.79 2.915-26.42 7.795-23.81 5.34 2.86.92 24.8-5.14 25.5-1.34.16-1.89-.19-2.66-1.69zm5.878-1.69c3.944-6.22 5.01-20.41 1.63-21.71-2.282-.87-4.895 2.99-6.694 9.9-3.004 11.54.322 19.29 5.064 11.82zm199.57 114.27l2.3-2.35-2.548-4.25c-5.78-9.65-14.05-11.96-22.578-6.32-5.045 3.34-5.214 3.67-1.088 2.1 7.424-2.82 14.4.91 19.13 10.22 1.816 3.58 1.883 3.59 4.783.62zm-205.178-9.88c-3.8-18.78-9.18-34.92-16.577-49.72l-3.64-7.28-32.23-11.56c-37.23-13.35-33.638-12.73-28.944-4.96 6.883 11.4 14.23 28.39 20.186 46.71l2.64 8.13 15.06 7.89c16.55 8.67 21 10.74 35.38 16.49 11.57 4.63 10.37 5.47 8.11-5.68zm-29.248-43.66c-2.856-2.58-5.908-7.93-5.63-9.88.39-2.75 2.84-2.13 6.48 1.62 6.488 6.7 5.717 14.2-.85 8.27zm4.56.92c.88-1.42-1.108-5.83-3.974-8.8-5.16-5.35-7.565-3.53-3.862 2.92 2.73 4.76 6.69 7.74 7.836 5.89zm-35.696-13.16c-3.02-1.16-8.35-7.85-8.356-10.47-.008-4.76 9.58 2.05 11.034 7.85.494 1.97-.885 3.32-2.677 2.63zm2.267-1.68c0-2.93-6.517-10.17-9.156-10.17-2.22 0-.58 4.19 3.19 8.17 3.39 3.58 5.97 4.44 5.97 2zm-5.018 27.18c-6.06-17.83-13.99-35.45-20.86-46.33l-3.5-5.53.01-15.4c0-11.12.19-15.14.68-14.46.53.74.6.62.33-.57-.46-2.07 2.18-12.77 2.9-11.76.35.49.42.2.19-.79-.49-2.1 5.32-27.11 6.05-26.08.34.48.41.15.19-.88-.51-2.34.25-5.89 1.02-4.8.41.58.48.35.23-.73-.52-2.25.88-9.08 1.64-8.02.4.57.47.34.23-.73-.47-2.05 6.61-37.68 7.28-36.69.28.42.33-.37.12-1.75-.29-1.89-.22-2.27.29-1.56.51.7.59.24.31-1.88-.29-2.15-.21-2.59.32-1.87.53.72.61.36.31-1.56-.29-1.89-.22-2.27.3-1.56.51.71.58.24.3-1.87-.29-2.2-.22-2.61.35-1.87.58.76.65.61.35-.77-.51-2.35.27-7.09.99-6 .32.5.39-.29.17-1.98-.29-2.2-.21-2.61.36-1.87.58.75.65.59.33-.85-.52-2.36 2.27-19.63 2.92-18.09.26.63.34-.27.17-1.99-.22-2.29-.14-2.79.3-1.87.44.91.52.31.31-2.18-.23-2.54-.14-3.11.32-2.19.46.93.53.44.27-1.87-.26-2.3-.17-2.88.32-2.18.49.69.57.12.3-2.19-.27-2.32-.19-2.88.31-2.18s.58.14.31-2.18c-.26-2.32-.18-2.88.32-2.19.5.7.58.13.31-2.19-.27-2.36-.19-2.89.33-2.18s.61.1.35-2.5c-.24-2.45-.17-3.08.26-2.19.43.9.52.19.33-2.5-.21-2.87-.13-3.38.33-2.19.51 1.31.56 1.16.31-.94-.41-3.38 1.04-15.83 1.66-14.29.26.64.34-.52.18-2.58-.16-2.06-.08-3.27.19-2.68.26.59.48-1.94.49-5.63.02-8.18 2.22-36.42 2.81-36.06.23.15.3-.38.15-1.17-.15-.78.17-7.88.72-15.76.54-7.88 1.17-18.19 1.4-22.92.48-10.18.12-9.99 5.74-3.04 14.25 17.63 36.34 31.59 58.96 37.26l1.64.41.39-5.83c.88-13.08 1.63-32.61 2.02-52.43l.41-20.97-3.69-1.34C504.28 86.79 442.8 75.7 400.04 84.44c-87.094 17.79-126.025 118.92-86.722 225.27 10.44 28.26 19 44.232 59.775 111.56 6.97 11.512 15.9 26.7 19.84 33.75 8.637 15.44 6.61 13.45 18.284 17.99 11.552 4.494 22.62 9.483 35.164 15.85l9.23 4.69-.38-2.23c-6.18-36.51-27.23-73.7-36.48-64.45-3.37 3.38-3.48 4.82-.68 8.82 9.68 13.81 8.85 26.8-1.63 25.37-14.22-1.94-24.08-28.27-14.4-38.43 20.34-21.35 57.01 18.72 68.92 75.3l1.07 5.08 6.32 3.75c3.48 2.07 13.07 7.85 21.32 12.86 17.41 10.57 16.73 10.62 12.8-.978zm108.74-18.84c-.05-10.81-.26-14.6-.8-14.59-1.95.06-2.97-.22-2.65-.74.19-.31-.26-.41-1-.21-.87.22-1.2.11-.94-.31s-.08-.54-.94-.31c-.87.23-1.2.12-.94-.31.26-.42-.08-.54-.94-.31-.85.22-1.2.11-.95-.3.22-.36.05-.64-.37-.62-1.96.07-3.01-.21-2.69-.73.19-.31-.26-.41-1-.21-.87.23-1.2.12-.94-.31s-.08-.54-.94-.31c-.87.22-1.2.11-.94-.31s-.08-.54-.94-.31c-.85.23-1.2.12-.95-.3.22-.36.05-.64-.37-.62-1.96.07-3.01-.22-2.69-.73.19-.31-.26-.41-1-.22-.87.23-1.2.11-.94-.31s-.08-.54-.94-.31c-1.01.27-1.22.15-.84-.46.31-.49.26-.67-.11-.44-.8.5-5.25-.86-4.86-1.48.16-.25-.32-.31-1.06-.11-.87.23-1.2.12-.94-.31.26-.42-.07-.54-.94-.31-.85.22-1.2.11-.95-.3.22-.36.05-.64-.37-.63-1.96.07-3.01-.22-2.69-.73.19-.31-.26-.41-1-.21-.87.23-1.2.12-.94-.31s-.07-.54-.94-.31c-.86.23-1.2.11-.93-.31.26-.43-.07-.54-.94-.31-.85.22-1.2.11-.95-.3.22-.36.06-.64-.37-.63-1.96.07-3.01-.22-2.69-.74.19-.31-.26-.41-1-.21-.87.22-1.2.11-.94-.32.26-.42-.08-.54-.94-.31-.87.23-1.2.12-.94-.31.26-.42-.07-.54-.94-.31-.85.22-1.2.11-.95-.3.22-.36.05-.64-.37-.63-1.96.07-3.01-.21-2.69-.73.19-.31-.26-.41-1-.21-.87.23-1.2.12-.94-.31s-.08-.54-.94-.31c-1.01.27-1.22.15-.85-.46.31-.5.27-.67-.11-.44-.8.49-5.24-.86-4.86-1.48.16-.26-.32-.31-1.06-.12-.86.23-1.2.12-.94-.31.27-.42-.07-.54-.93-.31-.77.2-1.2.1-.99-.24.2-.32-.12-.59-.72-.59-2.01 0-63.78-22.43-63.24-22.97.29-.29 14.71 4.56 32.04 10.78s31.8 11.3 32.15 11.3c.65 0 1.33-2.69 7.73-30.62 3.86-16.85 11.24-52.48 11.24-54.31 0-.85-4.31-2.66-20.16-8.47-11.09-4.06-20.37-7.57-20.62-7.8-.26-.22 1.38-10.66 3.63-23.19s5.63-33.32 7.51-46.19c1.88-12.87 3.54-23.53 3.7-23.69.16-.16 9.37 3.09 20.45 7.22 11.09 4.14 20.22 7.35 20.29 7.13.95-2.76 6.92-69.82 7.05-79.19.01-.37-1.19-1.03-2.65-1.46-25.08-7.37-44.32-19.68-58.59-37.49l-4.06-5.07-.39 16.73c-.21 9.2-.42 18.22-.47 20.04-.04 1.82-.29 3.19-.55 3.03-.26-.16-.4 2.28-.33 5.43.08 3.15-.08 5.2-.34 4.56-.27-.64-.36 1.58-.22 4.93.15 3.4.03 5.94-.28 5.75-.3-.19-.48 1.25-.4 3.2.14 3.59-.03 3.71-.74.49-.22-.98-.54-1.64-.72-1.47-.18.18-.01 1.51.38 2.96.46 1.73.54 4.58.23 8.34-.36 4.26-.59 5.24-.91 3.84-.24-1.03-.34.38-.21 3.13.17 3.75.08 4.53-.36 3.12-.51-1.63-.54-1.52-.27.85.39 3.45-1.06 16.31-1.66 14.7-.24-.65-.33.66-.2 2.89.17 3 .08 3.65-.35 2.5-.46-1.23-.52-.95-.27 1.25.19 1.68-.83 10.64-2.53 22.32-1.57 10.73-2.87 19.87-2.89 20.31-.02.44-.29.24-.59-.44-.36-.83-.45-.21-.26 1.88.21 2.28.12 2.78-.31 1.87-.44-.91-.52-.41-.31 1.87.21 2.28.12 2.78-.31 1.87-.44-.91-.52-.4-.31 1.88.22 2.41.14 2.84-.36 1.87-.55-1.07-.6-.99-.3.52.49 2.52-1.05 12.18-1.7 10.65-.34-.8-.4-.57-.18.7.56 3.2-9.04 52.95-9.86 51.11-.35-.79-.4-.66-.18.45.46 2.29-.95 9.06-1.68 8.01-.39-.56-.45-.39-.19.55.56 2-.3 6.17-1.05 5.09-.41-.59-.47-.42-.2.54.56 2.008-.3 6.178-1.05 5.09-.41-.583-.47-.42-.2.54.56 2-.3 6.17-1.05 5.09-.4-.58-.46-.4-.18.58.52 1.847-1.61 11.067-2.31 9.988-.28-.43-.35.19-.14 1.4.27 1.64.2 1.95-.3 1.25-.49-.7-.58-.3-.35 1.57.24 1.99.17 2.25-.34 1.25-.57-1.09-.61-1.04-.33.41.45 2.31-.31 5.89-1.01 4.8-.32-.5-.39.04-.17 1.358.28 1.66.2 1.96-.31 1.25-.51-.72-.59-.42-.31 1.25.28 1.66.2 1.96-.31 1.25-.52-.72-.59-.42-.31 1.25.28 1.65.2 1.95-.3 1.25-.83-1.16-.85-.86-.11 1.71.35 1.24.35 2.154 0 2.374-.33.2-.58 6.5-.57 14.54l.01 14.18 65.77 23.57c36.18 12.96 65.85 23.58 65.95 23.59.1.01.15-6.55.12-14.59zm-78.48-63.99c-3.36-2.24-2.54-14.21 1.47-21.57 4.72-8.67 9.29-2.26 6.83 9.58-1.87 8.97-5.34 13.98-8.3 12zm3.52-1.55c4.09-4.35 6.48-19.86 3.52-22.82-1.43-1.42-3.21-.39-5 2.89-5.43 9.97-4.24 26.01 1.47 19.94zm-38.16-11.57c-3.71-4.69 1.57-24.53 6.53-24.53 3.95 0 4.28 13.32.52 20.94-1.17 2.37-3.9 5.32-4.92 5.32-.43 0-1.39-.77-2.14-1.72zm4.21-.31c4.15-4.54 6.46-17.61 3.94-22.32-2.58-4.81-7.99 4.89-8.61 15.44-.43 7.29 1.58 10.26 4.67 6.89zm111.43 77.97c0-12.08-.13-14.06-.94-14.06s-.94 1.98-.94 14.07.13 14.07.94 14.07c.8 0 .93-1.98.93-14.06zM478.17 511.2l4.403-1.338-5.56-3.33-5.553-3.33-1.1-5.19c-.604-2.854-1.977-8.213-3.05-11.908l-1.95-6.72h-4.91l.403 2.344c1.313 7.62 1.4 7.13-1.77 10.05-1.6 1.472-3.106 2.59-3.347 2.48-.24-.11-3.92-1.98-8.177-4.15l-7.74-3.948-1.95 2.35c-2.73 3.275-3.66 7.075-2.6 10.58.45 1.494.71 2.87.57 3.06-.14.19-.08.23.12.09s1.32.81 2.5 2.115c1.18 1.307 2.98 2.72 4 3.145 1.02.423 1.7 1.015 1.52 1.315-.19.3.14.36.73.132.73-.28.93-.18.61.337-.26.41-.23.68.05.603 1.01-.28 7.01 1.59 6.7 2.09-.18.28.05.38.5.224.44-.15 2.36-.02 4.25.29 5.43.9 16.25.24 21.3-1.29zm-18.82-20.235l2.1-2.167-.798-4.56c-2.244-12.84-8.4-32.168-12.65-39.7-1.016-1.8-1.644-3.6-1.396-4 .26-.428.18-.56-.2-.33-.36.22-1.02-.49-1.47-1.58-1.35-3.26-7.61-10.654-11.886-14.034-6.4-5.06-6.374-5.057-9.47-2.134-2.405 2.27-2.52 2.507-1.22 2.52 10.944.12 26.4 30.8 33.618 66.736.38 1.898.9 1.78 3.364-.762zM465 478.5c0-1.206-6.387-16.28-9.603-22.664-5.728-11.37-6.464-11.863-2.564-1.715 1.862 4.85 4.307 12.37 5.433 16.72l2.047 7.91h2.343c1.29 0 2.344-.11 2.344-.25zm-116.05-16.285c4.405-.886 8.316-1.422 8.69-1.19.382.235.5.13.27-.24-.247-.402.822-.956 2.718-1.41 3.593-.863 4.368-1.594 2.365-2.23-8.907-2.827-42.746-15.418-43.66-16.246-1.68-1.53-1.472-11.53.218-10.48.38.23.46.09.19-.34-.25-.41.85-4.4 2.44-8.88 5.43-15.28 6.15-29.22 2.14-41.21-1.17-3.51-1.43-3.49-7.55.65-28.9 19.56-43.51 49.71-31.66 65.34.29.37.31.91.06 1.19-.25.28-.14.32.26.1.69-.4 1.79 1.23 1.56 2.29-.06.28.11.41.37.29.68-.32 4.48 3.73 4 4.27-.21.24-.07.25.32.03s1.08.03 1.53.57c6.69 8.05 34.4 11.76 55.78 7.47zm27.3-2.878c-7.67-5.202-18.308-9.605-35.46-14.677-6.27-1.854-12.036-3.774-12.813-4.267-.778-.492-2.335-1.087-3.46-1.322-1.126-.23-2.903-1.14-3.95-2.02l-1.903-1.6.2 2.44c.255 3.13.075 3.05 26.572 12.47 11.755 4.18 20.585 7.64 20.372 7.99-.21.34-.053.41.36.16.405-.25 2.488.11 4.628.8 7.634 2.47 9.035 2.48 5.454.05zm-49.878-17.774c.013-1.032.153-1.378.31-.77.16.608.15 1.452-.022 1.875-.17.423-.3-.074-.288-1.106zm94.833 18.148c2.9-1.5 3.01-4.04.176-4.07-9.54-.11-20.58-22.1-16.67-33.2l.97-2.72-2.29 2.18c-12.28 11.68 3.53 45.22 17.83 37.83zm3.018-8.11c-.37-4.61-2.754-10.24-6.752-15.94l-2.56-3.66 1.07-2.09c.59-1.15 3.07-3.96 5.5-6.25l4.44-4.16-3.7-1.07c-8.11-2.36-15.29-.64-16.88 4.03-3.88 11.38 4.84 29.23 15.93 32.6 3.24.99 3.33.89 2.98-3.44zm-2.348-.66c.807-.86 1.61-1.56 1.78-1.56.172 0-.348.7-1.155 1.56-.807.86-1.61 1.56-1.78 1.56-.172 0 .348-.7 1.155-1.56zm26.875-7.18c-.368-.68-.81-1.25-.98-1.25-.173 0-.013.57.355 1.25.368.69.81 1.25.98 1.25.173 0 .013-.56-.355-1.25zm46.052-30.74c-.2-.5-.348-.35-.378.38-.027.66.12 1.03.33.82.206-.2.228-.74.048-1.19zm.625-2.5c-.2-.5-.348-.35-.378.38-.03.66.12 1.03.32.82.2-.2.23-.74.05-1.19zm.625-2.5c-.2-.5-.348-.35-.378.38-.027.66.12 1.03.33.82.206-.2.228-.74.048-1.19zm1.25-5.62c-.2-.5-.348-.35-.378.38-.027.66.12 1.03.33.82.206-.2.228-.74.048-1.19zm121.12-13.79c2.706-11.9 15.26-90.12 14.573-90.8-.117-.11-10.753-3.99-23.635-8.61-12.882-4.62-31.436-11.39-41.23-15.04-9.795-3.65-18.144-6.51-18.554-6.36-.41.16-.858.09-.996-.14-.137-.23-.14-.01-.003.5.435 1.63-1.905 15.89-2.398 14.62-.25-.64-.34.38-.18 2.27.19 2.48.1 3.09-.33 2.19-.43-.9-.51-.37-.27 1.88.23 2.21.14 2.86-.31 2.22-.45-.64-.53-.12-.27 1.81.21 1.59.12 2.57-.21 2.37-.33-.2-.48.73-.34 2.18.13 1.42-.01 2.38-.33 2.18-.32-.19-.45.64-.31 1.88.14 1.22.01 2.07-.3 1.88-.31-.19-.45.79-.32 2.19.18 1.93.05 2.41-.56 2.04-.53-.32-.64-.24-.34.25.25.41.1 3.26-.34 6.35-.44 3.08-1 5.27-1.26 4.86-.26-.41-.32.5-.15 2.03.24 2.09.15 2.55-.36 1.85-.52-.72-.6-.51-.33.94.19 1.03-.8 9.03-2.2 17.77-1.89 11.82-2.35 16.01-1.8 16.35.4.25 19.09 7.15 41.54 15.33 22.44 8.18 40.7 14.98 40.57 15.11-.13.13-18.8-6.54-41.49-14.81s-41.58-15.05-41.97-15.05c-.39 0-.56-.25-.37-.55.44-.71 3.5-19.64 3.42-21.13-.04-.62-1 3.94-2.14 10.12-2.49 13.54-5.93 10.47 24.12 21.51 67.32 24.73 58.57 21.78 58.99 19.9zm-20.472-23.17l-7.362-7.03 1.5-8.57c.823-4.71 1.444-8.57 1.378-8.57-.066 0-4.734-1.69-10.373-3.76-5.64-2.07-10.594-3.63-11.008-3.47-.415.16-.902-.04-1.082-.45-.18-.41-.175 0 .012.92.55 2.68-2.9 23.07-3.974 23.48-.58.22-3.52-2.26-8.24-6.97l-7.33-7.31 2.64-15.43c1.45-8.49 3.55-21.76 4.67-29.49 2.58-17.84 1.77-17.23 11.05-8.27l7.61 7.34-1.32 8.28c-.73 4.55-1.17 8.43-.99 8.61.46.46 25.74 9.67 25.95 9.46.1-.1-.76-1.08-1.9-2.18l-2.07-2.01 1.57-10.76c.86-5.92 1.87-10.97 2.24-11.21 1.14-.76 15.37 13.87 15.33 15.75-.12 5.6-9.12 58.45-9.96 58.58-.52.08-4.25-3.02-8.3-6.89zm9.552.82c.43-2.77.652-5.16.492-5.32-.16-.16-.65 2.12-1.088 5.06-.438 2.94-.936 5.21-1.107 5.04-.18-.17.61-5.67 1.74-12.23s2.27-11.58 2.52-11.16c.25.42.32-.49.15-2.02-.23-1.98-.14-2.52.31-1.87.45.64.52.11.27-1.81-.22-1.59-.13-2.57.21-2.36.32.2.48-.77.37-2.25-.15-1.86-.03-2.34.41-1.69.43.64.52.08.3-1.87-.22-1.9-.13-2.51.29-1.91.41.59.51-.1.31-2.19-.21-2.16-.11-2.79.33-2.15.44.64.53.1.31-1.87-.22-1.9-.13-2.51.29-1.91.41.6.53-.09.35-2.18-.19-2.24-.1-2.72.34-1.8.43.9.5.37.27-1.87-.21-2.02-.12-2.84.26-2.3.4.56.54.09.44-1.47-.15-2.39-13.09-16.54-14.12-15.43-.23.25-1.12 5.18-1.96 10.96l-1.54 10.5 3.76 3.4c2.07 1.87 3.5 3.41 3.19 3.41-1.22 0-6.52-2.28-6.15-2.65.21-.21-.25-.22-1.02-.02-1.06.28-1.28.17-.9-.45.3-.49.26-.66-.11-.43-.8.49-5.25-.86-4.87-1.48.16-.26-.32-.31-1.06-.12-.87.23-1.2.11-.94-.31s-.08-.54-.94-.31c-.85.23-1.2.12-.95-.3.22-.36.05-.64-.37-.62-2.2.08-3.01-.22-2.59-.95.26-.46.21-.57-.12-.27-.31.29-1.14 4.3-1.85 8.91l-1.29 8.39 3.16 1.18c1.74.65 4.63 1.69 6.42 2.32 2.69.95 3.21 1.37 2.98 2.42-.15.7-.86 4.63-1.57 8.73l-1.29 7.46 1.75 1.66c14.65 13.87 13.45 13.36 14.56 6.23zm.3-60.76l-6.865-7.03 7.032 6.86c6.53 6.38 7.31 7.2 6.86 7.2-.09 0-3.26-3.16-7.03-7.03zm.737 52.5c-.18-.43-.32-.08-.32.78s.14 1.21.31.78c.17-.43.17-1.13 0-1.56zm-40.68-11.16c1.25-7.37 1.95-10.23 2.25-9.21.24.81.29.17.1-1.42-.45-3.78.1-4.01 5.12-2.11 5.89 2.22 5.55 2.52 6.73-5.77 1.04-7.24 1.16-10.3.39-9.83-.64.4-4.95-1.11-4.64-1.62.16-.25-.32-.31-1.06-.11-1.01.26-1.22.15-.84-.47.32-.52.26-.67-.16-.41-1.02.63-2.66-.22-2.64-1.37 0-.83.11-.86.55-.16.34.53.43-.31.25-2.19-.2-2.07-.1-2.77.31-2.19.41.59.52-.1.35-2.18-.19-2.22-.1-2.71.33-1.8.41.88.5.24.31-2.19-.21-2.6-.12-3.13.36-2.19.5.99.55.8.26-.93-.29-1.7-1.9-3.76-7.35-9.37l-6.97-7.18 7.73 7.5c4.25 4.12 7.42 6.9 7.04 6.16-.93-1.84-14.05-14.02-14.52-13.47-.2.24-1.56 8.45-3.02 18.25s-3.57 23.02-4.7 29.37l-2.05 11.56 6.93 7.03c3.81 3.87 6.96 7.03 7 7.03.04 0 .88-4.81 1.88-10.69zm1.12-.24c.28-2.75.22-2.63-.53.94-.47 2.24-1 5.47-1.18 7.19-.29 2.75-.23 2.64.53-.93.47-2.23 1-5.47 1.18-7.19zm40.18 7.66c-.18-.43-.32-.08-.32.78s.14 1.21.31.78c.17-.43.17-1.13 0-1.56zm.62-3.75c-.18-.43-.32-.08-.32.78s.14 1.21.31.78c.17-.43.17-1.13 0-1.56zm-40-10c-.18-.43-.32-.08-.32.78s.14 1.21.31.78c.17-.43.17-1.13 0-1.56zm-68.73 45.03c-.2-.5-.35-.35-.38.38-.03.66.12 1.03.33.82.2-.2.23-.74.05-1.19zm1.87-8.75c-.2-.5-.35-.35-.38.38-.03.66.12 1.03.33.82.2-.2.23-.74.05-1.19zm.62-3.12c-.2-.5-.35-.35-.38.38-.03.66.12 1.03.33.82.2-.2.23-.74.05-1.19zm.62-3.12c-.2-.5-.35-.35-.38.38-.03.66.12 1.03.33.82.2-.2.23-.74.05-1.19zm.62-3.12c-.2-.5-.35-.35-.38.38-.03.66.12 1.03.33.82.2-.2.23-.74.05-1.19zm.62-3.12c-.2-.5-.35-.35-.38.38-.03.66.12 1.03.32.82.21-.2.23-.74.05-1.19zm.62-3.12c-.2-.5-.35-.35-.38.38-.03.66.12 1.03.33.82.2-.21.23-.74.05-1.2zm.62-3.12c-.2-.5-.35-.35-.38.37-.03.66.12 1.03.32.82.21-.21.23-.74.05-1.2zm.62-3.13c-.2-.5-.35-.35-.38.38-.03.66.12 1.03.33.82.2-.21.23-.75.05-1.2zm.62-3.12c-.2-.5-.35-.35-.38.38-.03.66.12 1.03.33.82.2-.21.23-.75.05-1.2zm.62-3.12c-.2-.5-.35-.35-.38.37-.03.66.12 1.02.33.82.2-.21.23-.75.05-1.2zm29.36-15.04c-.18-.43-.32-.08-.32.78s.14 1.21.32.78c.17-.43.17-1.13 0-1.56zm.62-3.75c-.17-.43-.31-.08-.31.78s.14 1.21.31.78c.17-.43.17-1.13 0-1.56zm.64-3.09c-.2-.5-.35-.35-.38.38-.03.66.12 1.03.33.82.21-.2.23-.74.05-1.19zm123.57-55.95c.61-21.02.36-26.31-.53-11.12-.43 7.23-.98 15.88-1.23 19.22-.38 5.07-.31 6.07.44 6.07.74 0 .97-2.47 1.31-14.16zM546.64 278c-.18-.43-.32-.08-.32.78s.14 1.21.31.78c.18-.43.18-1.13 0-1.56zm.62-4.37c-.18-.43-.32-.08-.32.78s.14 1.21.32.78c.17-.43.17-1.13 0-1.56zm.64-4.05c-.16-.61-.3-.263-.31.77-.02 1.03.11 1.527.28 1.104.17-.424.18-1.27.023-1.876zm-21.68-40.52c0-.88-.26-1.44-.57-1.25-.32.194-.42.91-.24 1.6.45 1.72.8 1.566.8-.35zm.93-14.65c-.237-1.08-.57-1.824-.74-1.65-.175.17-.12 1.196.115 2.276s.58 1.83.75 1.657c.17-.17.12-1.2-.12-2.28zM307.47 132.3c0-.792-.29-.44-1.2 1.476-.7 1.47-.69 1.49.22.35.53-.67.97-1.49.97-1.83zm9.08-13.37c2.67-3.693 4.21-6.154 3.43-5.47-1.37 1.205-9.07 12.19-8.54 12.19.14 0 2.44-3.022 5.11-6.72zM875.19 585c0-1.89.116-2.664.26-1.72.143.947.143 2.493 0 3.44-.144.944-.26.17-.26-1.72zm1.704-10.89c.973-3.24 2.228-6.685 2.79-7.656.563-.972.824-1.204.58-.516-1.974 5.59-3.434 10.242-3.762 11.986-.214 1.142-.61 2.076-.883 2.076-.27 0 .3-2.65 1.27-5.89zm3.785-10.048c0-.343.54-1.61 1.19-2.812.66-1.203 1.2-1.906 1.2-1.563 0 .344-.54 1.61-1.2 2.813-.66 1.203-1.2 1.906-1.2 1.563zm2.5-5.625c0-.343.54-1.61 1.19-2.812.66-1.203 1.2-1.906 1.2-1.563 0 .344-.54 1.61-1.2 2.813-.66 1.203-1.2 1.906-1.2 1.563zm3.12-6.875c0-.343.54-1.61 1.2-2.812.66-1.203 1.2-1.906 1.2-1.563 0 .344-.54 1.61-1.2 2.813-.66 1.203-1.2 1.906-1.2 1.563zm3.12-6.875c0-.343.54-1.61 1.19-2.812.66-1.203 1.2-1.906 1.2-1.563 0 .344-.54 1.61-1.2 2.813-.66 1.203-1.2 1.906-1.2 1.563zm2.44-5.55c0-.672 1.86-4.137 2.22-4.137.17 0-.16.914-.72 2.03-1.16 2.282-1.5 2.758-1.5 2.106zm44.47-11.52c-.13-4.333 5.27-22.695 5.5-18.68.01.275-.37 1.26-.84 2.188-1.47 2.853-3.74 11.47-4.16 15.75l-.4 4.063-.1-3.32zm5.58-19.804c0-.344.54-1.61 1.19-2.813.66-1.203 1.2-1.906 1.2-1.563 0 .344-.54 1.61-1.2 2.813-.66 1.203-1.2 1.906-1.2 1.563zm-33-5.938c.15-.516 1.06-3.686 2.01-7.046.95-3.36 1.85-6 1.99-5.86.33.33-2.91 11.68-3.68 12.9-.53.83-.57.83-.32 0zm35.49.313c0-.344.54-1.61 1.19-2.813.66-1.203 1.2-1.906 1.2-1.563 0 .344-.54 1.61-1.2 2.813-.66 1.203-1.2 1.906-1.2 1.563zm2.5-5.625c0-.344.68-1.89 1.51-3.438.83-1.547 1.51-2.53 1.51-2.188 0 .344-.68 1.89-1.51 3.438-.83 1.547-1.51 2.53-1.51 2.188zm3.13-6.875c0-.344.68-1.89 1.51-3.438.83-1.547 1.5-2.53 1.5-2.188 0 .344-.68 1.89-1.51 3.438-.83 1.547-1.51 2.53-1.51 2.188zm-36.88-3.178c.03-.728.18-.876.38-.377.18.45.15.99-.05 1.198-.21.21-.36-.16-.33-.82zm.62-3.125c.03-.728.17-.876.37-.377.18.45.16.99-.05 1.198-.21.207-.36-.162-.33-.82zm39.32-.5c0-.67 1.86-4.135 2.22-4.135.17 0-.15.914-.72 2.03-1.16 2.282-1.5 2.758-1.5 2.106zm-38.7-2.625c.03-.728.18-.876.38-.377.18.45.16.99-.05 1.198-.21.21-.36-.16-.33-.82zm.62-3.125c.03-.728.18-.876.38-.377.18.45.15.99-.05 1.198-.21.207-.36-.162-.33-.82zm.72-4.635c0-1.203.13-1.695.29-1.094.15.602.15 1.586 0 2.188-.16.6-.29.11-.29-1.094zm.62-5c0-1.203.13-1.695.29-1.094.16.602.16 1.586 0 2.188-.16.6-.29.11-.29-1.094zm.68-7.813c0-2.406.12-3.314.25-2.017.14 1.297.13 3.266 0 4.375-.14 1.11-.25.05-.25-2.358zm47.92-.5c0-.57 4.93-12.526 4.96-12.03.05.748-4.38 12.218-4.71 12.218-.14 0-.25-.085-.25-.188zm-47.26-13.875c0-4.125.1-5.73.22-3.57.13 2.163.13 5.538 0 7.5-.12 1.964-.22.195-.22-3.93zm56.68-15.677c.03-.728.18-.876.38-.377.18.45.16.99-.05 1.198-.21.207-.35-.162-.33-.82zm.63-3.125c.03-.728.18-.876.38-.377.18.45.16.99-.05 1.198-.21.21-.36-.16-.33-.82zm.62-3.125c.03-.728.18-.876.38-.377.18.45.16.99-.05 1.198-.21.207-.36-.162-.33-.82zm.63-3.125c.03-.728.18-.876.38-.377.18.45.16.99-.05 1.198-.21.21-.36-.16-.33-.82zm.72-4.635c0-1.203.13-1.695.29-1.094.16.61.16 1.59 0 2.19-.16.6-.29.11-.29-1.09zm.63-5.625c0-1.203.13-1.695.28-1.094.16.602.16 1.586 0 2.188-.16.6-.28.11-.28-1.094zm.7-8.125c0-2.922.1-4.117.24-2.656.13 1.46.13 3.85 0 5.31-.14 1.46-.24.26-.24-2.66zm.61-11.875c0-2.234.11-3.148.25-2.03.14 1.116.14 2.944 0 4.06-.14 1.118-.25.204-.25-2.03zm-.72-10.313c-1.19-48.534-22.52-109.893-55.4-159.372-4.22-6.34-7.41-11.37-7.09-11.177 3.18 1.966 24.79 38.466 32.89 55.55 18.13 38.245 31.83 91.52 29.98 116.562-.22 2.94-.27 2.715-.38-1.563zm-659.72-18.15c-.6-1.57-.43-1.976.31-.71.37.628.53 1.273.37 1.434-.16.17-.47-.16-.68-.72zm-7.25-21.055c-1.81-5.25-5.9-16.716-9.08-25.482-5.84-16.08-8.1-23.046-7.63-23.515.14-.14.9 1.93 1.69 4.6.79 2.668 3.39 10.196 5.79 16.727 6.22 16.96 13.03 36.71 12.76 36.983-.13.128-1.71-4.063-3.53-9.313zM907.3 198.906c-18.63-24.012-41.26-46.057-66.37-64.66-11.496-8.517-14.256-10.67-10.937-8.53 19.037 12.272 49.077 39.028 66.74 59.447 6.67 7.71 18.64 22.962 18.02 22.962-.165 0-3.52-4.148-7.455-9.22zm-88.77-80.19C797.91 105.28 765.685 88.42 740 77.626c-21.033-8.84-37.062-15.385-44.375-18.116C608.092 26.814 555.383 12.03 513.75 8.49c-5.328-.453-8.422-.86-6.875-.9 7.103-.198 24.784 2.047 41.563 5.274 43.908 8.45 129.086 37.036 194.245 65.196 15.568 6.727 42.666 20.262 57.004 28.472 10.888 6.235 29.02 17.926 27.656 17.832-.086-.006-4.05-2.547-8.808-5.647zM332.5 99.064c1.867-1.89 3.535-3.438 3.707-3.438.172 0-1.215 1.547-3.082 3.438-1.867 1.89-3.535 3.437-3.707 3.437-.172 0 1.215-1.54 3.082-3.43zm5.592-4.878c.772-1.004 12.016-9.366 14.408-10.715 2.066-1.16-.544.91-6.25 4.97-3.266 2.33-6.632 4.82-7.48 5.55-1.11.95-1.3 1.01-.678.2zM355 82.23c0-.17.563-.612 1.25-.98.688-.368 1.25-.528 1.25-.356 0 .17-.563.613-1.25.98-.688.37-1.25.53-1.25.357zm16.875-8.48c.516-.333 1.22-.606 1.563-.606.343 0 .203.273-.313.606-.516.333-1.22.606-1.563.606-.343 0-.203-.273.313-.606zM375 72.605c.516-.318 1.64-.767 2.5-.997 1.086-.29 1.277-.24.625.162-.516.318-1.64.767-2.5.997-1.086.29-1.277.24-.625-.162zm5.022-1.888c2.332-1.527 24.113-6.45 27.79-6.28.688.03-2.265.695-6.562 1.475-6.438 1.168-15.546 3.367-21.093 5.092-.925.288-.946.243-.135-.287zm30.454-6.784c.777-.15 1.902-.144 2.5.013.598.156-.04.278-1.413.27-1.375-.006-1.864-.134-1.087-.283zm6.868-.624c.773-.15 2.04-.15 2.812 0 .774.14.14.27-1.406.27-1.547 0-2.18-.13-1.406-.27zm22.5-.02c1.117-.14 2.945-.14 4.062 0 1.117.14.203.25-2.03.25-2.235 0-3.15-.12-2.032-.26zm-8.125-.63c1.11-.14 2.94-.14 4.06 0 1.11.14.2.25-2.03.25s-3.15-.12-2.03-.26zm-39.54-18.29c1.69-1.72 3.22-3.13 3.39-3.13.17 0-1.08 1.4-2.77 3.12-1.7 1.72-3.22 3.12-3.39 3.12-.18 0 1.07-1.41 2.76-3.13zm5.96-5.27c.83-1.09 3.58-3.21 12.94-9.97 1.8-1.31 3.28-2.23 3.28-2.05 0 .18-3.02 2.49-6.72 5.13-3.7 2.64-7.55 5.54-8.57 6.45-1.02.9-1.44 1.1-.94.44zm23.1-15.63c0-.17.56-.61 1.25-.98s1.25-.53 1.25-.36c0 .17-.57.61-1.25.98-.69.37-1.25.53-1.25.35zm7.5-4.11c.51-.34 1.22-.61 1.56-.61.34 0 .2.27-.32.6-.52.33-1.22.6-1.57.6-.35 0-.21-.28.31-.61zm3.12-1.15c.51-.32 1.64-.77 2.5-1 1.08-.29 1.27-.24.62.16-.52.32-1.64.76-2.5.99-1.09.29-1.28.24-.63-.16zm5-1.98c.51-.34 1.22-.61 1.56-.61.34 0 .2.28-.32.61-.52.33-1.22.6-1.56.6-.35 0-.21-.27.31-.61zm5-1.78c2.61-1.64 27.11-6.94 27.99-6.06.19.18.08.34-.23.34-.32.01-3.67.55-7.45 1.21-5.83 1.02-10.05 2.02-19.79 4.7-1.06.29-1.21.23-.53-.19zm32.35-6.78c.77-.15 2.04-.15 2.81 0s.14.27-1.41.27-2.18-.12-1.41-.27zm10-.65c2.14-.12 5.66-.12 7.81 0 2.15.12.39.22-3.91.22s-6.06-.1-3.91-.23zm13.75.01c1.11-.14 2.94-.14 4.06 0 1.12.14.2.25-2.03.25s-3.15-.12-2.03-.26z"/></svg>