<?xml version="1.0" encoding="utf-8"?>
<!-- Generator: Adobe Illustrator 16.0.0, SVG Export Plug-In . SVG Version: 6.00 Build 0)  -->
<!DOCTYPE svg PUBLIC "-//W3C//DTD SVG 1.1//EN" "http://www.w3.org/Graphics/SVG/1.1/DTD/svg11.dtd">
<svg version="1.1" id="Layer_1" xmlns="http://www.w3.org/2000/svg" xmlns:xlink="http://www.w3.org/1999/xlink" x="0px" y="0px"
	 width="1251.25px" height="813.75px" viewBox="0 0 1251.25 813.75" enable-background="new 0 0 1251.25 813.75"
	 xml:space="preserve">
<path fill="#444545" stroke="#444545" stroke-width="2" stroke-miterlimit="10" d="M489.062,650.077l-430-154.17l-0.175-7.561
	l-0.175-7.56L199.465,351.8c153.86-141,143.04-131.227,143.025-129.18c-0.007,1.04-0.158,1.208-0.543,0.6
	c-0.394-0.62-37.834,33.333-141.246,128.088C123.31,422.22,60.21,480.44,60.47,480.684c0.26,0.244,193.647,69.666,429.748,154.271
	L919.49,788.782l2.109-1.735c1.16-0.954,65.943-60.234,143.967-131.734l141.859-130l-1.877-0.8
	c-3.979-1.694-282.59-101.388-283.35-101.388c-0.53,0-0.95,1.393-1.24,4.036c-0.37,3.49-1.38,8.18-1.54,7.2
	c-0.03-0.181,0.53-4.4,1.25-9.37c0.85-5.86,1.49-14.65,1.81-24.98l0.5-15.93l-0.279,16.57c-0.15,9.109-0.431,17.689-0.601,19.069
	l-0.33,2.5l143.171,51.25l143.17,51.25l-0.17,7.851l-0.181,7.859l-144.06,131.99C984.51,745,919.54,804.37,919.37,804.34
	c-0.172-0.04-193.815-69.439-430.315-154.24L489.062,650.077z M918.928,789.373c-0.27-0.23-193.395-69.536-429.167-154.01
	c-235.77-84.477-429.06-153.74-429.53-153.92c-0.69-0.266-0.85,1.029-0.85,6.81v7.14l429.84,154.043l429.84,154.047l0.181-6.846
	c0.1-3.765-0.04-7.033-0.311-7.265L918.928,789.373z M1065,670.613c78.203-71.606,142.267-130.25,142.365-130.32
	c0.098-0.07,0.098-3.292,0-7.16l-0.178-7.033L1063.75,657.53L920.312,788.958l-0.178,7.212l-0.177,7.212l1.427-1.29
	C922.17,801.382,986.797,742.216,1065,670.613L1065,670.613z M812.704,637.473c-10.052-1.987-14.39-12.38-9.84-23.572
	c0.594-1.466,0.967-2.745,0.827-2.845c-0.131-0.1-2.78-1.123-5.87-2.273c-3.091-1.15-6.61-2.705-7.811-3.452
	c-13.92-8.65-58.88-19.576-117.18-28.482c-87.39-13.348-113.88-22.93-175.31-63.415c-27.681-18.247-44.62-27.873-61.87-35.163
	c-8.7-3.68-28.04-10.59-30.94-11.054c-1.37-0.22-5.55-1.403-9.27-2.63c-6.771-2.228-6.78-2.229-9.37-1.145
	c-48.23,20.149-64.54-0.931-30.86-39.881c1.91-2.199,3.71-5.149,4.58-7.5c0.79-2.13,1.44-3.449,1.44-2.93
	c0,0.521-1.11,3.75-2.48,7.19c-1.37,3.439-2.31,5.27-2.1,4.069l0.38-2.189l-2.09,2.439c-29.721,34.71-16.08,57,24.46,39.971
	c2.93-1.23,5.949-2.271,6.71-2.32c2.35-0.14,0.869-0.83-11.061-5.13c-15.72-5.66-15.859-5.75-18.33-11.67
	c-1.489-3.57-0.67-2.79,1.181,1.12c2.05,4.33,29.22,16.21,41.609,18.189c1.41,0.221,2.23,0.65,2,1.03
	c-0.239,0.4-0.09,0.45,0.41,0.15c1.86-1.15-5.91-5.33-17.82-9.58c-24.3-8.69-25.72-11.021-18.39-30.431
	c7.6-20.09,7.021-27.04-5.59-67.18c-44.53-141.81,12.439-240.48,134.32-232.63c18.29,1.18,39.33,5.22,51.489,9.88
	c0.641,0.24,0.87-0.39,0.91-2.52c0.061-3.06,0.771-4.85,2.79-7.07c0.7-0.77,1.16-1.49,1.021-1.6
	c-0.641-0.48-14.051-4.34-20.891-6.02c-4.13-1.01-6.989-1.85-6.37-1.87c3.73-0.12,28.45,7.16,29.92,8.81
	c1.011,1.14,2.07,0.24,27.4-22.97c14.49-13.28,26.11-24.37,25.83-24.64c-0.84-0.79-12-4.18-19.34-5.86
	c-50.08-11.53-103.47-3.08-134.75,21.33c-8.57,6.69-35.2,31.01-34.28,31.32c0.38,0.13-2.62,1.87-6.66,3.87
	c-7.02,3.47-17.479,9.88-20.77,12.729c-1.271,1.11-1.38,1.13-0.62,0.14c1.39-1.81,12.67-9.07,19.74-12.7
	c4.39-2.26,7.149-4.16,9.21-6.38c1.63-1.74,3.1-3.16,3.29-3.16c0.18,0,5.439-4.71,11.699-10.47c24.98-23.02,39.351-31.33,64.45-37.3
	c34.28-8.15,78.16-5.83,108.28,5.73c0.44,0.17,1.02-0.73,1.42-2.24c0.37-1.38,1.39-3.36,2.25-4.38l1.561-1.86l-4.381-1.41
	c-2.409-0.78-4.27-1.53-4.119-1.67c0.369-0.37,8.5,2.34,10.18,3.39c0.91,0.57,1.399,1.5,1.399,2.63v1.75l46.41,16.62l46.41,16.63
	l1.688-1.6l1.689-1.6l5.026,2.07c2.765,1.14,4.92,2.18,4.79,2.31c-0.13,0.13-2.415-0.68-5.08-1.79l-4.84-2.03l-1.761,1.97
	c-4.229,4.73-3.439,6.7,3.801,9.51c68.609,26.61,142.14,98,173.979,168.92c31.47,70.1,34.776,133.32,10.06,192.37
	c-11.979,28.63-12.659,36.39-5.199,59.3c3.42,10.49,5.54,18.891,5.54,21.9c0,0.609-0.692,2.14-1.54,3.39l-1.545,2.28h1.39
	c4.02-0.01,7.15-4.11,8.85-11.61c0.69-3.06,0.891-3.5,0.681-1.51c-0.891,8.25-4.87,13.74-9.971,13.75c-1,0-2.409,0.49-3.119,1.09
	c-0.711,0.601-0.131-0.2,1.289-1.79c4.431-4.949,4.24-7.54-2.039-26.97c-7.841-24.26-7.301-29.5,6.579-63.79
	c2.48-6.12,4.41-11.42,4.301-11.77c-0.12-0.351-10.87,9.13-23.891,21.08c-15.75,14.449-23.54,21.22-23.28,20.21
	c0.221-0.83,1.015-4.32,1.765-7.761c0.75-3.439,1.58-6.489,1.84-6.79c0.26-0.3-0.06,1.811-0.71,4.69
	c-2.44,10.79-2.88,10.38,4.15,3.91c3.399-3.13,14.06-12.91,23.686-21.72l17.5-16.022l1.69-5.04
	c20.899-62.21-1.15-158.19-51.905-225.89c-35.47-47.32-93.141-93.18-140.63-111.822c-7.141-2.81-2.47-5.9-32.05,21.195
	c-29.62,27.14-27.221,23.68-18.87,27.23c10.6,4.51,32.09,15.62,32.09,16.6c0,0.29-7.73-3.81-9.07-4.8
	c-4.865-3.63-33.744-16.083-35.183-15.18c-2.106,1.33-3.46,3.978-3.74,7.29l-0.28,3.366l5.23,2.07c17.2,6.8,56.79,28.78,56.79,31.51
	c0,0.17-4.431-2.58-9.84-6.11c-15.9-10.37-28.57-17.15-43.91-23.49c-8.141-3.37-8.442-3.56-8.63-5.46
	c-0.11-1.14-0.641-2.15-1.25-2.39c-14.074-5.59-14.66-5.54-9.884,0.83l3.896,5.19l8.87,3.34c88.28,33.246,165.84,120.5,189.1,212.78
	c18.402,73.021,8.66,120.23-35.938,174.061c-17.511,21.14-26.94,33.84-25.5,34.37c11.2,4.13,15.33,5.319,18.51,5.35
	c4.22,0.04,8.271,1.13,21.68,5.83c18.73,6.57,19.62,5.34,12.891-17.94c-7.49-25.92-7.04-31.6,4.899-61.62
	c26.24-65.96,20.38-132.67-18.18-206.93c-2.76-5.33-4.73-9.4-4.38-9.06c4.47,4.3,21.05,42.51,27.22,62.71
	c17.57,57.541,16.61,102.39-3.229,151.35c-12.811,31.59-13.33,38.23-5.15,65.32c6.87,22.77,5.07,24.34-18.12,15.8
	c-8.57-3.16-15.05-4.85-18.439-4.82l-1.881,0.021l2.48,1.31c2.7,1.431,30.84,11.78,36.42,13.4c3.89,1.14,7.16,0.85,9.15-0.8
	c1.149-0.95,1.14-0.891-0.101,0.45c-2.53,2.729-6.59,2.13-21.01-3.07c-6.84-2.47-12.5-4.41-12.59-4.311
	c-9.681,10.48-0.16,25.5,15.64,24.681c53.92-2.78,135.66-93.78,86.4-96.2c-2.43-0.12-3.601-0.44-3.601-0.98
	c0-0.602,0.311-0.642,1.21-0.159c0.671,0.357,2.301,0.649,3.641,0.649c13.45,0,17.8,12.91,9.76,28.91
	c-17.742,35.28-77.482,74.63-105.03,69.19L812.704,637.473z M818.601,637.071c-0.59-0.15-1.72-0.16-2.5-0.011
	c-0.77,0.15-0.279,0.28,1.091,0.29c1.38,0.011,2.01-0.109,1.42-0.27L818.601,637.071z M885.081,605.781
	c0.78-0.99,0.76-1.01-0.23-0.23c-0.6,0.471-1.09,0.971-1.09,1.101c0,0.52,0.521,0.189,1.33-0.86L885.081,605.781z M889.461,602.031
	c0.78-0.99,0.76-1.01-0.23-0.23c-0.6,0.471-1.09,0.971-1.09,1.101c0,0.52,0.521,0.189,1.33-0.86L889.461,602.031z M777.551,591.731
	c4.72-6.681,9.71-13.021,21.83-27.66c33.3-40.24,43.87-66.88,43.98-110.931c0.27-98.339-58.101-194.83-153.66-254.029
	c-15.24-9.44-46.04-24.09-50.65-24.09c-0.78,0,17.55,24.1,18.45,24.26c1.93,0.33,3.89,2.95,3.66,4.9c-0.3,2.67-2.94,2.79-5.09,0.24
	c-1.33-1.58-3.79-2.7-13.99-6.35c-23.63-8.45-44.101-15.54-44.851-15.54c-0.539,0-0.89,2.36-1.189,7.97
	c-0.43,8.07-2.33,32.8-6.29,81.72c-7.43,91.94-11.72,171.35-13.14,243.13c-0.19,9.63-0.5,22.439-0.7,28.47l-0.351,10.97l9.271,2.91
	c23.87,7.51,44.75,11.82,91.46,18.89c43.51,6.59,86.92,16.25,96.67,21.51c0.06,0.03,2.14-2.819,4.62-6.34L777.551,591.731z
	 M897.501,594.691c1.87-1.891,3.26-3.44,3.09-3.44s-1.84,1.55-3.7,3.44c-1.859,1.89-3.25,3.439-3.08,3.439
	c0.181,0,1.841-1.54,3.71-3.439H897.501z M575.241,544.851c0.2-5.239,0.52-17.97,0.71-28.279
	c1.319-70.851,5.68-151.811,13.16-244.37c3.26-40.25,5.819-73.4,6.369-82.34l0.49-7.97l-4.38-1.67
	c-27.84-10.64-53.2-19.34-54.12-18.55c-1.399,1.22-2.29,1.07-4.04-0.68c-2.91-2.91-1.14-6.9,2.36-5.3
	c1.4,0.64,17.67-8.36,18.63-10.3c1.15-2.3-31.67-10.74-48.75-12.54c-142.33-15.02-198.521,114.08-118.21,271.56
	c5,9.8,14.72,29.01,21.61,42.689l12.52,24.881l9.07,3.63c19.45,7.79,37.109,17.62,66.88,37.25
	c32.2,21.229,46.84,29.239,73.439,40.18c1.721,0.71,3.311,1.31,3.53,1.34c0.23,0.03,0.57-4.24,0.771-9.479L575.241,544.851z
	 M352.971,470.821c-0.6-0.15-1.58-0.15-2.189,0c-0.601,0.16-0.101,0.29,1.1,0.29s1.7-0.13,1.1-0.28L352.971,470.821z
	 M359.531,470.841c-0.42-0.17-1.131-0.17-1.561,0c-0.43,0.181-0.08,0.32,0.78,0.32s1.21-0.14,0.78-0.311V470.841z M420.001,470.691
	c0-0.511-15.5-31.45-34.79-69.431c-45.48-89.56-47.311-170.24-5.1-225.6c32.829-43.06,103.329-57.04,168.97-33.51
	c7.66,2.75,6.95,2.76,11.67-0.22c3.75-2.37,3.84-2.49,2.37-3.04c-4.66-1.75-14.23-5.11-14.57-5.11c-0.21,0-0.39,0.82-0.39,1.82v1.81
	l-5.78-1.83C478,115.17,411,128.95,378.14,169.35c-35.979,44.24-41.979,107.765-17.699,187.466
	c13.292,43.63,13.743,48.823,6.034,69.385c-7.064,18.84-5.714,21.08,17.625,29.25c9.104,3.189,12.2,4.64,17.185,8.06
	c4.39,3.011,18.75,8.54,18.75,7.21L420.001,470.691z M660.631,203.851c0-2.75-2.11-4.39-3.75-2.91c-1.52,1.38-1.56,2.06-0.21,3.55
	c1.69,1.87,3.96,1.51,3.96-0.63V203.851z M656.091,201.181c0.76-0.76,0.03-1.83-15.6-22.93l-8.011-10.82l-1.489,1.13
	c-0.82,0.62-4.261,3.7-7.65,6.85l-6.15,5.72l-13.6-4.85c-7.479-2.67-13.75-5-13.93-5.18c-0.391-0.39,16.51-16.09,17.319-16.09
	c0.311,0,5.17,1.66,10.801,3.69l10.229,3.69l3.66-3.39c2.01-1.86,10.04-9.22,17.83-16.34c7.8-7.13,13.979-13.14,13.75-13.36
	c-0.23-0.229-14.271-5.36-31.21-11.42l-30.79-11.01l-17.78,16.32c-13.729,12.61-19.16,17.17-23.85,20.06
	c-3.34,2.06-7,4.45-8.141,5.32c-1.14,0.87-2.069,1.42-2.069,1.22s-2.721,1.34-6.05,3.41c-5.221,3.26-6.25,3.69-7.49,3.12
	c-3.11-1.42-4.641,1.75-2.08,4.31c1.5,1.5,2.689,1.59,3.76,0.31c0.43-0.52,3.35-3.22,6.48-6l5.699-5.06l-5.51,5.23l-5.51,5.23
	l27.39,9.97c15.061,5.48,35.54,12.84,45.511,16.34c9.97,3.51,23.609,8.36,30.31,10.78c13.38,4.83,13.2,4.78,14.21,3.77
	L656.091,201.181z M627.711,170.781l4.25-3.92l-1.29-1.82c-2.24-3.15,1.34-2.57,13.2,2.14c0.78,0.31,1.21-0.11,1.74-1.72
	c1.18-3.56,4.06-5.87,6.289-5.02c4.301,1.62,59.311-51.29,55.41-53.29c-1.68-0.86-93.76-33.41-94.13-33.28
	c-0.29,0.11-10.05,8.92-21.67,19.58c-32.89,30.16-43.22,39.5-40.68,36.81c2.22-2.34,2.85-3.91,1.95-4.8
	c-1.12-1.12-5.221,3.49-5.23,5.89c0,1.13,2.57,2.33,12.01,5.61l6.07,2.12l2.68-2.55c1.48-1.41,14.631-13.48,29.24-26.84
	c14.61-13.36,26.73-24.51,26.92-24.79c0.29-0.4,61.9,21.21,63.8,22.38c0.301,0.19-0.35,1.09-1.46,2.02
	c-6.689,5.62-57.029,52.25-56.899,52.71c0.43,1.48-2.25,0.9-11.971-2.6c-12.54-4.52-11.22-5.43-10.579,7.31l0.52,10.51l4.69,1.65
	l4.689,1.64l3.14-2.89l7.381-6.81L627.711,170.781z M606.431,162.561l-0.479-6.51l-7.65,7.04c-9.26,8.51-9.29,7.42,0.32,10.81
	l7.97,2.8l0.17-3.82c0.1-2.1-0.05-6.74-0.31-10.32H606.431z M676.201,118.161c6.22-5.65,11.1-10.46,10.84-10.68
	c-0.25-0.22-11.71-4.42-25.46-9.32c-13.75-4.9-27.59-9.86-30.771-11l-5.77-2.08l-11.63,10.69l-11.62,10.69l30.84,11.11
	c36.43,13.13,29.93,13.04,43.59,0.61L676.201,118.161z M613.631,73.131c1.1,0,0.93-3.1-0.19-3.53c-1.72-0.66-3.97,2.22-4.949,6.34
	l-0.44,1.88l2.42-2.34c1.33-1.29,2.76-2.34,3.17-2.34L613.631,73.131z M840.021,617.381c-0.01-0.56,2.54-4.88,2.88-4.88
	c0.15,0-0.149,0.78-0.659,1.72c-1.271,2.351-2.2,3.681-2.21,3.16H840.021z M843.351,608.801c0.23-1.14,0.46-3.229,0.521-4.649
	c0.1-2.391,0.13-2.341,0.47,0.779l0.37,3.36l9.07-8.3c4.989-4.561,12.09-11.101,15.779-14.521c3.7-3.41,6.721-6.06,6.721-5.88
	c0,0.181-6.681,6.44-14.841,13.9c-8.159,7.46-15.659,14.439-16.659,15.49l-1.82,1.92l0.41-2.07L843.351,608.801z M843.221,600.321
	c-0.04-0.69-1.17-4.9-2.52-9.37c-3.891-12.92-4.551-15.86-5.03-22.5c-0.45-6.2,0.56-14,2.39-18.44c1.011-2.43,0.84-1.25-0.58,4.12
	c-2.58,9.75-1.779,17.82,3.561,35.75c1.56,5.26,2.71,10.04,2.56,10.63c-0.229,0.88-0.3,0.851-0.359-0.17L843.221,600.321z
	 M879.711,576.261c1.7-1.72,3.22-3.12,3.39-3.12c0.181,0-1.069,1.41-2.76,3.12c-1.69,1.721-3.22,3.13-3.39,3.13
	s1.069-1.399,2.77-3.119L879.711,576.261z M886.871,569.852c2.59-2.761,3.149-3.25,3.149-2.78c0,0.1-1.33,1.439-2.97,2.97
	l-2.96,2.79l2.79-2.97L886.871,569.852z M840.041,544.071c0-0.34,0.28-1.05,0.609-1.561c0.341-0.51,0.61-0.649,0.61-0.31
	c0,0.35-0.27,1.05-0.6,1.57c-0.33,0.52-0.601,0.659-0.601,0.31L840.041,544.071z M903.82,541.521c0.03-0.73,0.181-0.87,0.381-0.37
	c0.18,0.45,0.159,0.989-0.051,1.2c-0.199,0.21-0.35-0.16-0.33-0.82V541.521z M841.291,540.951c0-0.34,0.279-1.04,0.609-1.561
	c0.341-0.51,0.61-0.649,0.61-0.31s-0.271,1.05-0.6,1.57c-0.33,0.51-0.601,0.649-0.601,0.31L841.291,540.951z M901.631,534.011
	c-0.6-1.909-0.98-3.59-0.85-3.729c0.14-0.13,0.75,1.32,1.35,3.24c0.61,1.909,0.99,3.59,0.85,3.729
	C902.841,537.381,902.241,535.931,901.631,534.011z M843.15,536.581c0-0.34,0.271-1.04,0.61-1.56c0.33-0.521,0.61-0.66,0.61-0.32
	s-0.271,1.04-0.601,1.56c-0.33,0.511-0.6,0.65-0.6,0.311L843.15,536.581z M844.4,533.461c0-0.34,0.271-1.04,0.61-1.56
	c0.33-0.511,0.61-0.65,0.61-0.311c0,0.351-0.271,1.05-0.601,1.57c-0.33,0.52-0.6,0.66-0.6,0.32L844.4,533.461z M845.65,530.341
	c0-0.34,0.271-1.04,0.61-1.56c0.33-0.521,0.61-0.66,0.61-0.32s-0.271,1.04-0.601,1.561c-0.33,0.51-0.6,0.649-0.6,0.31
	L845.65,530.341z M846.9,527.221c0-0.34,0.271-1.04,0.61-1.56c0.33-0.51,0.61-0.65,0.61-0.31c0,0.35-0.271,1.05-0.601,1.569
	c-0.33,0.521-0.6,0.66-0.6,0.32L846.9,527.221z M899.431,526.551c0.03-0.729,0.18-0.88,0.38-0.38c0.181,0.45,0.16,0.99-0.05,1.2
	c-0.2,0.21-0.35-0.16-0.32-0.82H899.431z M898.811,524.051c0.03-0.729,0.181-0.88,0.38-0.38c0.181,0.45,0.15,0.99-0.05,1.2
	C898.931,525.081,898.781,524.711,898.811,524.051z M848.491,523.161c0.229-0.86,0.68-1.99,1-2.5c0.409-0.65,0.449-0.46,0.159,0.62
	c-0.229,0.859-0.68,1.979-0.989,2.5c-0.41,0.649-0.46,0.46-0.17-0.63V523.161z M898.181,521.541c0.03-0.729,0.18-0.88,0.38-0.38
	c0.181,0.45,0.16,0.99-0.05,1.19c-0.2,0.21-0.35-0.16-0.33-0.82V521.541z M897.561,519.041c0.03-0.729,0.181-0.88,0.38-0.38
	c0.181,0.45,0.16,0.99-0.05,1.19c-0.2,0.21-0.35-0.16-0.33-0.82V519.041z M850.911,516.471c0.22-0.58,1.149-3.529,2.05-6.56
	c0.91-3.021,1.77-5.38,1.91-5.24c0.35,0.36-3.54,12.851-4.011,12.851C850.661,517.521,850.681,517.051,850.911,516.471
	L850.911,516.471z M897.07,514.711c0.011-1.72,0.131-2.35,0.271-1.4c0.15,0.95,0.14,2.36-0.01,3.131
	c-0.141,0.77-0.261-0.011-0.261-1.721V514.711z M896.661,505.341c0.71-4.75,1.479-7.21,1.069-3.439c-0.199,1.89-0.609,4-0.899,4.689
	c-0.351,0.83-0.41,0.4-0.16-1.25H896.661z M898.23,497.531c0-0.521,0.25-1.5,0.54-2.19c0.34-0.79,0.54-0.899,0.54-0.31
	c0,0.51-0.24,1.5-0.54,2.18c-0.34,0.79-0.53,0.91-0.53,0.32H898.23z M858.82,485.911c0.03-0.73,0.181-0.87,0.381-0.37
	c0.18,0.45,0.159,0.99-0.051,1.2c-0.199,0.21-0.35-0.16-0.319-0.82L858.82,485.911z M859.521,482.211
	c0.021-1.03,0.16-1.37,0.311-0.77c0.16,0.609,0.149,1.46-0.021,1.88s-0.3-0.07-0.29-1.101V482.211z M860.15,477.841
	c0.021-1.029,0.16-1.37,0.311-0.77c0.16,0.609,0.15,1.46-0.021,1.88c-0.17,0.42-0.3-0.07-0.279-1.1L860.15,477.841z
	 M860.841,471.911c0-1.89,0.12-2.66,0.26-1.72c0.15,0.949,0.15,2.5,0,3.439C860.961,474.581,860.841,473.801,860.841,471.911z
	 M861.521,459.731c0-4.46,0.11-6.21,0.23-3.88c0.12,2.34,0.12,5.989,0,8.13c-0.12,2.14-0.22,0.229-0.22-4.24L861.521,459.731z
	 M912.631,459.111c0-0.34,0.38-1.61,0.84-2.811c0.46-1.199,0.85-1.77,0.86-1.25c0.01,0.521-0.36,1.78-0.84,2.811
	C913.021,458.891,912.631,459.461,912.631,459.111z M915.121,451.301c0-0.52,0.239-1.5,0.54-2.189c0.34-0.79,0.54-0.9,0.54-0.311
	c0,0.521-0.24,1.5-0.53,2.19c-0.34,0.79-0.54,0.91-0.54,0.32L915.121,451.301z M861.501,441.921c0-2.92,0.109-4.12,0.24-2.649
	c0.13,1.46,0.13,3.85,0,5.31C861.61,446.041,861.501,444.841,861.501,441.921z M917.031,444.731c0-0.69,0.229-1.95,0.5-2.811
	c0.399-1.24,0.5-1.3,0.5-0.31c0,0.689-0.221,1.95-0.5,2.81c-0.391,1.24-0.5,1.311-0.5,0.32V444.731z M355.081,440.931
	c0.029-0.729,0.18-0.869,0.38-0.38c0.18,0.45,0.16,0.99-0.05,1.2S355.061,441.591,355.081,440.931L355.081,440.931z
	 M918.281,439.111c0-0.69,0.229-1.95,0.5-2.811c0.399-1.239,0.5-1.3,0.5-0.31c0,0.689-0.221,1.96-0.5,2.81
	C918.391,440.041,918.281,440.102,918.281,439.111z M354.601,435.361c0.01-2.061,0.12-2.83,0.26-1.71c0.141,1.12,0.141,2.81,0,3.75
	c-0.14,0.939-0.25,0.02-0.25-2.04H354.601z M860.36,429.721c-0.25-2.96-0.31-5.52-0.149-5.68s0.5,2.13,0.75,5.09
	s0.32,5.521,0.16,5.681c-0.16,0.159-0.5-2.131-0.74-5.091H860.36z M355.081,430.312c0.029-0.73,0.18-0.881,0.38-0.381
	c0.18,0.45,0.16,0.99-0.05,1.2S355.061,430.971,355.081,430.312L355.081,430.312z M355.711,427.812c0.03-0.73,0.18-0.881,0.38-0.381
	c0.18,0.45,0.16,0.99-0.05,1.2S355.69,428.471,355.711,427.812L355.711,427.812z M858.57,415.621c-1.229-8.3-4.46-23.64-6.88-32.64
	c-0.81-3.03-1.25-5.28-0.979-5c1.689,1.73,9.859,41.05,9.22,44.38c-0.11,0.569-0.72-2.46-1.35-6.73L858.57,415.621z M362.37,405
	c0.34-6.89,0.7-7.827,0.7-1.874c0.01,2.58-0.21,5.25-0.48,5.938c-0.27,0.68-0.37-1.15-0.22-4.07V405z M362.66,396.564
	c0.02-1.03,0.16-1.38,0.31-0.771c0.16,0.61,0.15,1.45-0.02,1.874c-0.17,0.42-0.3-0.078-0.29-1.11V396.564z M362.04,392.188
	c0.01-1.036,0.15-1.38,0.31-0.77c0.16,0.604,0.15,1.45-0.02,1.87s-0.3-0.075-0.29-1.107V392.188z M361.39,388.748
	c0-0.86,0.141-1.21,0.314-0.78c0.175,0.425,0.175,1.13,0,1.56C361.534,389.958,361.391,389.608,361.39,388.748L361.39,388.748z
	 M360.714,385.88c0.03-0.724,0.18-0.872,0.38-0.373c0.181,0.45,0.158,0.99-0.05,1.196c-0.21,0.206-0.354-0.16-0.33-0.82V385.88z
	 M360.091,383.38c0.03-0.724,0.181-0.872,0.38-0.373c0.181,0.45,0.16,0.99-0.05,1.196c-0.2,0.206-0.35-0.16-0.33-0.82V383.38z
	 M359.461,380.88c0.03-0.724,0.18-0.872,0.38-0.373c0.181,0.45,0.16,0.99-0.05,1.196s-0.35-0.16-0.33-0.82V380.88z M922.091,377.81
	c0.011-1.72,0.13-2.344,0.271-1.394c0.149,0.95,0.14,2.36-0.01,3.13c-0.141,0.77-0.261-0.01-0.261-1.73V377.81z M358.841,378.386
	c0.03-0.725,0.181-0.873,0.38-0.374c0.181,0.45,0.16,0.99-0.05,1.2c-0.2,0.205-0.35-0.164-0.319-0.82L358.841,378.386z
	 M847.641,369.286c-3.039-9.47-7.26-20.78-10.659-28.61c-1.41-3.24-2.551-6.19-2.54-6.56c0.029-0.98,5.27,11.254,8.529,19.954
	c3.36,8.94,7.73,22.36,7.391,22.695C850.231,376.895,849.001,373.532,847.641,369.286L847.641,369.286z M357.591,374.016
	c0.03-0.73,0.181-0.88,0.38-0.38c0.181,0.45,0.16,0.99-0.05,1.2c-0.2,0.21-0.35-0.16-0.319-0.82H357.591z M921.441,371.256
	c0-1.21,0.13-1.7,0.29-1.1c0.159,0.604,0.159,1.588,0,2.19C921.571,372.946,921.441,372.456,921.441,371.256z M355.401,367.146
	c-0.23-0.92-0.3-1.79-0.15-1.935c0.15-0.15,0.46,0.48,0.69,1.4c0.229,0.92,0.3,1.79,0.149,1.94c-0.149,0.15-0.46-0.48-0.689-1.4
	V367.146z M920.811,365.626c0-1.203,0.131-1.695,0.29-1.094c0.16,0.61,0.16,1.59,0,2.19c-0.149,0.6-0.279,0.11-0.279-1.09
	L920.811,365.626z M920.141,361.251c0-0.86,0.141-1.21,0.32-0.78c0.17,0.43,0.17,1.13,0,1.56
	C920.281,362.461,920.141,362.111,920.141,361.251z M352.891,359.021c-0.229-0.91-0.29-1.78-0.149-1.93
	c0.149-0.14,0.46,0.48,0.689,1.4c0.23,0.92,0.301,1.79,0.15,1.94c-0.14,0.15-0.45-0.48-0.68-1.39L352.891,359.021z M919.531,357.191
	c0.02-1.03,0.16-1.37,0.31-0.77c0.16,0.61,0.15,1.46-0.02,1.88c-0.17,0.42-0.3-0.07-0.29-1.1V357.191z M918.911,353.441
	c0.02-1.03,0.16-1.37,0.31-0.77c0.16,0.61,0.15,1.46-0.02,1.88c-0.17,0.42-0.3-0.07-0.29-1.1V353.441z M350.091,349.641
	c0.03-0.73,0.181-0.87,0.38-0.37c0.181,0.45,0.16,0.99-0.05,1.2c-0.2,0.21-0.35-0.16-0.319-0.82L350.091,349.641z M918.221,349.641
	c0.03-0.73,0.181-0.87,0.381-0.37c0.18,0.45,0.159,0.99-0.051,1.2c-0.199,0.21-0.35-0.16-0.33-0.82V349.641z M917.602,346.521
	c0.029-0.73,0.18-0.87,0.38-0.37c0.18,0.45,0.159,0.99-0.051,1.2s-0.35-0.16-0.329-0.82V346.521z M917.031,343.761
	c0-0.86,0.14-1.21,0.32-0.78c0.17,0.43,0.17,1.13,0,1.56C917.181,344.971,917.031,344.621,917.031,343.761z M347.602,341.511
	c0.029-0.73,0.18-0.87,0.38-0.38c0.18,0.45,0.159,0.99-0.051,1.2S347.571,342.171,347.602,341.511L347.602,341.511z
	 M916.352,340.891c0.029-0.73,0.18-0.88,0.38-0.38c0.18,0.45,0.159,0.99-0.051,1.2S916.321,341.551,916.352,340.891z
	 M915.731,337.761c0.029-0.73,0.18-0.87,0.38-0.37c0.18,0.45,0.16,0.99-0.05,1.2c-0.2,0.21-0.351-0.16-0.32-0.82L915.731,337.761z
	 M346.352,337.141c0.029-0.73,0.18-0.87,0.38-0.38c0.18,0.45,0.159,0.99-0.051,1.2C346.481,338.171,346.331,337.801,346.352,337.141
	L346.352,337.141z M915.102,335.271c0.029-0.73,0.18-0.88,0.38-0.38c0.18,0.45,0.159,0.99-0.051,1.2
	C915.231,336.301,915.081,335.931,915.102,335.271z M345.731,334.641c0.029-0.73,0.18-0.88,0.38-0.38c0.18,0.45,0.16,0.99-0.05,1.2
	C345.861,335.661,345.711,335.301,345.731,334.641L345.731,334.641z M914.481,332.761c0.029-0.73,0.18-0.88,0.38-0.38
	c0.18,0.45,0.16,0.99-0.05,1.2C914.611,333.791,914.461,333.421,914.481,332.761z M345.111,332.131c0.029-0.73,0.18-0.88,0.38-0.38
	c0.18,0.45,0.16,0.99-0.05,1.2c-0.2,0.21-0.351-0.16-0.32-0.82H345.111z M833.161,331.811c-0.38-0.71-0.58-1.42-0.44-1.56
	c0.15-0.14,0.591,0.45,0.98,1.31c0.859,1.89,0.439,2.1-0.54,0.26V331.811z M913.861,330.251c0.029-0.72,0.18-0.87,0.38-0.37
	c0.18,0.45,0.16,0.99-0.05,1.2c-0.2,0.21-0.351-0.16-0.32-0.82L913.861,330.251z M344.491,329.631c0.03-0.73,0.18-0.87,0.38-0.37
	c0.18,0.45,0.16,0.99-0.05,1.2c-0.2,0.21-0.351-0.16-0.32-0.82L344.491,329.631z M912.621,325.881c-0.4-1.6-0.61-3.03-0.47-3.17
	c0.14-0.14,0.59,1.05,1,2.65c0.399,1.6,0.62,3.03,0.47,3.17c-0.14,0.15-0.59-1.05-0.99-2.65H912.621z M342.621,322.131
	c0.03-0.73,0.18-0.87,0.38-0.37c0.18,0.45,0.16,0.99-0.05,1.2s-0.36-0.16-0.33-0.82V322.131z M910.451,318.371
	c-0.61-1.91-0.99-3.59-0.85-3.73c0.14-0.13,0.739,1.32,1.35,3.24c0.6,1.92,0.979,3.6,0.85,3.74c-0.14,0.14-0.75-1.32-1.35-3.23
	V318.371z M342.001,319.011c0.03-0.72,0.18-0.87,0.38-0.37c0.181,0.45,0.16,0.99-0.05,1.2c-0.2,0.2-0.35-0.16-0.32-0.82
	L342.001,319.011z M341.371,315.891c0.03-0.73,0.18-0.87,0.38-0.37c0.18,0.45,0.16,0.99-0.05,1.2c-0.2,0.21-0.35-0.16-0.33-0.82
	V315.891z M824.771,315.011c-0.53-1.03-0.83-1.87-0.65-1.87c0.17,0,0.75,0.85,1.28,1.88c0.54,1.03,0.83,1.88,0.66,1.88
	c-0.171,0-0.75-0.84-1.28-1.87L824.771,315.011z M340.812,313.141c0-0.86,0.14-1.21,0.319-0.78c0.17,0.43,0.17,1.13,0,1.56
	C340.951,314.351,340.812,314.001,340.812,313.141z M806.581,309.241c-1.29-2.15-2.75-4.54-3.24-5.31
	c-0.489-0.77-0.75-1.4-0.569-1.4c0.18,0,1.569,2.04,3.1,4.53c3.58,5.84,3.73,6.1,3.37,6.1c-0.16,0-1.36-1.76-2.65-3.9
	L806.581,309.241z M905.241,302.671c-1.8-5.01-3.18-9.2-3.061-9.33c0.32-0.31,6.74,17.37,6.521,17.95
	C908.602,311.561,907.051,307.681,905.241,302.671L905.241,302.671z M340.211,309.711c0.021-1.03,0.16-1.38,0.311-0.77
	c0.159,0.61,0.149,1.45-0.021,1.88C340.331,311.241,340.201,310.741,340.211,309.711L340.211,309.711z M821.341,308.771
	c-0.37-0.69-0.53-1.25-0.35-1.25c0.17,0,0.61,0.57,0.979,1.25c0.37,0.69,0.53,1.25,0.36,1.25s-0.61-0.56-0.979-1.25H821.341z
	 M339.611,305.651c0-1.2,0.13-1.69,0.29-1.09c0.149,0.61,0.149,1.59,0,2.19c-0.16,0.6-0.29,0.11-0.29-1.09V305.651z
	 M338.991,301.281c0-1.2,0.13-1.69,0.29-1.09c0.16,0.61,0.16,1.59,0,2.19c-0.16,0.6-0.29,0.11-0.29-1.09V301.281z M799.251,297.531
	c-1.6-2.4-2.78-4.37-2.62-4.37s1.38,1.61,2.71,3.59c2.94,4.37,3.4,5.15,3.07,5.15c-0.14,0-1.57-1.97-3.17-4.37H799.251z
	 M338.381,296.591c0.01-1.37,0.13-1.86,0.28-1.08c0.15,0.78,0.14,1.91-0.01,2.5c-0.15,0.6-0.271-0.04-0.271-1.41V296.591z
	 M337.781,290.031c0-1.89,0.12-2.66,0.26-1.72c0.14,0.95,0.14,2.49,0,3.44S337.781,291.921,337.781,290.031z M793.841,289.721
	c-1.06-1.54-1.79-2.81-1.62-2.81s1.19,1.27,2.25,2.82c1.07,1.55,1.801,2.81,1.631,2.81c-0.171,0-1.181-1.27-2.25-2.81
	L793.841,289.721z M899.771,288.321c-30.301-72.58-94.181-139.64-166.08-174.36c-4.721-2.28-8.49-4.24-8.37-4.36
	c1.04-1.03,28.42,14.04,42.52,23.42c56.05,37.26,100.521,86.54,125.05,138.59c4.221,8.94,9.15,20.45,8.881,20.72
	c-0.131,0.13-1.021-1.67-2-3.99V288.321z M337.211,279.091c0-4.12,0.101-5.73,0.23-3.57c0.12,2.17,0.12,5.54,0,7.5
	s-0.221,0.2-0.221-3.93H337.211z M789.751,283.991c-0.96-1.26-1.43-2.09-1.04-1.85c0.8,0.5,3.51,4.15,3.07,4.15
	c-0.15,0-1.07-1.03-2.03-2.29V283.991z M782.661,274.881c-2.81-3.52-4.04-5.25-2.74-3.84c2.771,3.01,8.51,10.25,8.12,10.25
	c-0.15,0-2.57-2.88-5.38-6.4V274.881z M801.271,277.701c-0.771-0.99-0.75-1.02,0.239-0.24c1.04,0.81,1.37,1.33,0.86,1.33
	c-0.13,0-0.62-0.49-1.09-1.1L801.271,277.701z M796.901,272.071c-0.78-0.99-0.761-1.01,0.229-0.24c1.04,0.82,1.37,1.33,0.86,1.33
	c-0.13,0-0.62-0.49-1.101-1.09H796.901z M336.641,268.111c0.16-1.52,0.471-6.7,0.681-11.51s0.63-10.15,0.92-11.87
	c0.439-2.55,0.47-2.26,0.18,1.56c-0.189,2.58-0.53,8.96-0.76,14.18c-0.22,5.22-0.61,9.7-0.87,9.95c-0.25,0.25-0.33-0.78-0.17-2.3
	L336.641,268.111z M772.251,262.691c-2.71-3.01-4.27-4.9-3.47-4.22c1.72,1.49,9.06,9.69,8.67,9.69
	C777.301,268.161,774.961,265.701,772.251,262.691z M792.511,266.441c-0.77-0.99-0.75-1.01,0.24-0.23c1.04,0.82,1.37,1.33,0.86,1.33
	c-0.13,0-0.62-0.49-1.09-1.09L792.511,266.441z M789.421,262.691l-1.51-1.72l1.72,1.52c0.95,0.84,1.72,1.61,1.72,1.72
	c0,0.49-0.5,0.1-1.92-1.51L789.421,262.691z M785.671,258.321l-1.51-1.72l1.72,1.52c0.95,0.83,1.72,1.61,1.72,1.72
	c0,0.49-0.5,0.09-1.92-1.52H785.671z M755,244.87c-8.293-8.108-8.973-8.868-2.812-3.145c8.123,7.547,14.584,13.928,14.039,13.868
	C766.067,255.575,761.017,250.75,755,244.87L755,244.87z M781.828,253.906l-1.516-1.72l1.72,1.517
	c0.944,0.833,1.718,1.606,1.718,1.718c0,0.5-0.506,0.1-1.922-1.51V253.906z M768.116,239.531l-8.428-8.59l8.593,8.43
	c7.99,7.83,8.88,8.76,8.43,8.76c-0.09,0-3.95-3.86-8.59-8.59L768.116,239.531z M338.872,239.071c0.013-1.03,0.153-1.37,0.31-0.77
	c0.16,0.61,0.15,1.46-0.021,1.88c-0.17,0.43-0.3-0.07-0.288-1.1V239.071z M339.497,235.321c0.013-1.03,0.153-1.37,0.31-0.77
	c0.16,0.61,0.15,1.46-0.021,1.88c-0.17,0.43-0.3-0.07-0.288-1.1V235.321z M738.297,229.801c-6.229-5.46-7.957-7.27-3.403-3.56
	c3.971,3.24,9.297,8.1,8.856,8.08C743.578,234.311,741.124,232.281,738.297,229.801z M340.122,231.571
	c0.013-1.03,0.153-1.37,0.31-0.77c0.16,0.61,0.15,1.46-0.021,1.88c-0.17,0.43-0.3-0.07-0.288-1.1V231.571z M340.724,228.141
	c0-0.86,0.143-1.21,0.315-0.78c0.17,0.43,0.17,1.13,0,1.56c-0.18,0.43-0.32,0.08-0.32-0.78H340.724z M754.328,226.421l-1.516-1.72
	l1.72,1.52c0.944,0.84,1.718,1.61,1.718,1.72c0,0.5-0.506,0.1-1.922-1.51V226.421z M341.298,225.281c0.03-0.72,0.18-0.87,0.38-0.37
	c0.181,0.45,0.157,0.99-0.05,1.2c-0.208,0.21-0.355-0.16-0.33-0.82V225.281z M728.75,221.831c-1.203-1.04-5.984-4.73-10.625-8.21
	c-8.4-6.28-12.29-9.49-8.125-6.7c6.175,4.15,22.18,16.8,21.25,16.8C731.078,223.721,729.953,222.871,728.75,221.831z
	 M749.023,221.741l-1.836-2.03l2.031,1.84c1.891,1.71,2.311,2.23,1.83,2.23c-0.109,0-1.02-0.91-2.03-2.03L749.023,221.741z
	 M342.55,219.651c0.03-0.73,0.174-0.87,0.374-0.37c0.18,0.45,0.158,0.99-0.05,1.2c-0.207,0.21-0.355-0.16-0.328-0.82L342.55,219.651
	z M744,217.351l-1.19-1.4l1.406,1.19c1.32,1.12,1.69,1.63,1.19,1.63c-0.12,0-0.752-0.63-1.407-1.4L744,217.351z M343.17,217.141
	c0.03-0.72,0.18-0.87,0.38-0.37c0.181,0.45,0.157,0.99-0.05,1.19C343.292,218.171,343.145,217.801,343.17,217.141L343.17,217.141z
	 M740.542,214.541c-0.777-0.99-0.755-1.01,0.236-0.23c0.603,0.47,1.095,0.97,1.095,1.1c0,0.52-0.513,0.19-1.33-0.86L740.542,214.541
	z M344.46,213.141c0-0.51,0.242-1.5,0.537-2.18c0.34-0.79,0.536-0.9,0.536-0.31c0,0.52-0.242,1.5-0.537,2.19
	c-0.34,0.79-0.538,0.9-0.538,0.31L344.46,213.141z M737.125,211.741l-1.19-1.4l1.406,1.19c1.32,1.12,1.69,1.62,1.19,1.62
	c-0.11,0-0.75-0.63-1.4-1.4L737.125,211.741z M733.667,208.931c-0.778-0.99-0.756-1.01,0.235-0.23c1.04,0.82,1.372,1.33,0.857,1.33
	c-0.13,0-0.622-0.49-1.094-1.09L733.667,208.931z M346.3,206.88c-0.02-0.518,0.238-1.36,0.57-1.877c0.74-1.14,0.74-0.155,0,1.564
	C346.517,207.391,346.322,207.497,346.3,206.88L346.3,206.88z M347.854,202.503c0.23-0.86,0.681-1.983,0.997-2.5
	c0.41-0.65,0.46-0.46,0.171,0.626c-0.23,0.86-0.681,1.98-0.99,2.5c-0.4,0.65-0.45,0.46-0.16-0.63L347.854,202.503z M723.041,200.783
	c-0.77-0.99-0.75-1.01,0.24-0.234c1.04,0.81,1.38,1.33,0.859,1.33c-0.13,0-0.619-0.5-1.09-1.1L723.041,200.783z M720.541,198.91
	c-0.77-0.99-0.75-1.014,0.24-0.237c1.04,0.818,1.38,1.33,0.859,1.33c-0.13,0-0.619-0.49-1.09-1.093H720.541z M349.741,197.5
	c0.47-1.957,9.859-21.12,11.189-22.813c0.54-0.687-1.08,2.83-3.609,7.813c-2.521,4.984-5.34,10.75-6.261,12.813
	c-0.92,2.062-1.5,3.046-1.3,2.187H349.741z M705.281,188.403c-1.16-0.933-1.16-0.945,0.2-0.29c0.77,0.374,1.409,0.812,1.409,0.97
	c0,0.48-0.319,0.342-1.6-0.68H705.281z M367.4,165c1.085-1.547,3.112-4.078,4.506-5.625s0.803-0.563-1.313,2.188
	c-4.452,5.792-6.04,7.502-3.189,3.437H367.4z M379.375,150.937c2.907-2.92,5.426-5.312,5.597-5.312c0.172,0-2.064,2.39-4.972,5.313
	c-2.907,2.92-5.426,5.312-5.597,5.312c-0.17,0,2.069-2.39,4.977-5.313H379.375z M387.188,143.75c0.622-0.688,1.271-1.25,1.443-1.25
	c0.17,0-0.2,0.563-0.82,1.25c-0.619,0.688-1.27,1.25-1.439,1.25s0.2-0.563,0.82-1.25H387.188z M420,124.375
	c0.516-0.333,1.22-0.606,1.562-0.606c0.344,0,0.203,0.27-0.312,0.6s-1.22,0.6-1.562,0.6c-0.344,0-0.203-0.28,0.312-0.61V124.375z
	 M426.562,121.875c0.688-0.295,1.671-0.537,2.188-0.537c0.59,0,0.475,0.198-0.312,0.537c-0.688,0.295-1.671,0.537-2.188,0.537
	C425.66,122.412,425.775,122.214,426.562,121.875z M433.75,119.818c0-0.42,9.398-2.503,9.742-2.16
	c0.146,0.147-1.354,0.617-3.332,1.045c-1.98,0.43-4.23,0.926-5.004,1.106s-1.406,0.18-1.406,0V119.818z M444.4,117.298
	c0.496-0.542,16.362-2.792,22.162-3.143l5-0.303l-4.375,0.58c-12.707,1.684-18.97,2.543-20.938,2.87
	C445.047,117.502,444.214,117.5,444.4,117.298L444.4,117.298z M519.543,116.442c0.608-0.16,1.452-0.148,1.875,0.023
	c0.423,0.17-0.074,0.3-1.106,0.288C519.282,116.741,518.935,116.6,519.543,116.442L519.543,116.442z M515.793,115.817
	c0.608-0.16,1.452-0.148,1.875,0.023c0.423,0.17-0.074,0.3-1.106,0.288C515.532,116.116,515.185,115.975,515.793,115.817
	L515.793,115.817z M512.043,115.192c0.608-0.16,1.452-0.148,1.875,0.023c0.423,0.17-0.074,0.3-1.106,0.288
	C511.782,115.491,511.435,115.35,512.043,115.192L512.043,115.192z M505.79,114.552c0.95-0.144,2.355-0.14,3.125,0.01
	c0.77,0.147-0.01,0.264-1.729,0.26C505.469,114.817,504.84,114.696,505.79,114.552z M472.383,113.948
	c0.45-0.18,0.99-0.158,1.198,0.05c0.21,0.207-0.16,0.355-0.82,0.328c-0.72-0.03-0.87-0.178-0.37-0.378H472.383z M498.915,113.926
	c0.95-0.143,2.355-0.14,3.125,0.008c0.77,0.15-0.01,0.266-1.729,0.262C498.594,114.191,497.965,114.07,498.915,113.926z
	 M480.781,113.286c2.33-0.12,6.12-0.12,8.439,0c2.32,0.12,0.42,0.22-4.22,0.22S478.461,113.406,480.781,113.286z M429.071,108.126
	c0.62-0.69,1.27-1.25,1.45-1.25c0.17,0-0.19,0.56-0.82,1.25c-0.62,0.686-1.271,1.25-1.44,1.25s0.2-0.564,0.82-1.25H429.071z
	 M722.511,108.75c-0.51-0.333-0.649-0.606-0.31-0.606c0.35,0,1.05,0.273,1.57,0.606c0.52,0.333,0.659,0.606,0.319,0.606
	s-1.04-0.273-1.56-0.606H722.511z M434.291,101.875c2.06-2.578,5.52-6.375,7.69-8.438c3.399-3.222,3.25-3.002-1.03,1.563
	c-2.74,2.922-6.2,6.72-7.69,8.438c-1.479,1.718-1.01,1.015,1.04-1.563H434.291z M446.891,89.139c0-0.13,0.49-0.63,1.101-1.1
	c0.99-0.78,1.01-0.76,0.24,0.23c-0.811,1.04-1.33,1.37-1.33,0.86L446.891,89.139z M450.641,86.009c0-0.13,0.49-0.62,1.101-1.1
	c0.99-0.78,1.01-0.76,0.24,0.23c-0.811,1.04-1.33,1.37-1.33,0.86L450.641,86.009z M463.461,77.009
	c1.68-1.67,22.561-11.23,23.18-10.61c0.131,0.13-2.08,1.16-4.899,2.3c-2.83,1.13-8.24,3.61-12.021,5.49
	c-3.779,1.88-6.59,3.15-6.25,2.81L463.461,77.009z M597.391,63.949c0.45-0.18,0.99-0.16,1.2,0.05c0.21,0.2-0.16,0.35-0.819,0.32
	c-0.73-0.03-0.87-0.18-0.381-0.38V63.949z M496.141,63.319c0.45-0.18,0.99-0.16,1.2,0.05c0.21,0.2-0.16,0.35-0.819,0.33
	C495.791,63.669,495.651,63.519,496.141,63.319z M498.641,62.689c0.45-0.18,0.99-0.16,1.2,0.05c0.21,0.2-0.16,0.35-0.819,0.32
	c-0.73-0.03-0.87-0.18-0.381-0.38V62.689z M591.771,62.689c0.449-0.18,0.989-0.16,1.199,0.05c0.21,0.2-0.16,0.35-0.819,0.32
	c-0.73-0.03-0.87-0.18-0.37-0.38L591.771,62.689z M501.771,62.059c0.449-0.18,0.989-0.16,1.199,0.05c0.21,0.2-0.16,0.35-0.819,0.33
	c-0.73-0.03-0.87-0.18-0.37-0.38H501.771z M589.271,62.059c0.449-0.18,0.989-0.16,1.199,0.05c0.21,0.2-0.16,0.35-0.819,0.33
	c-0.73-0.03-0.87-0.18-0.37-0.38H589.271z M504.271,61.429c0.449-0.18,0.989-0.16,1.199,0.05c0.21,0.2-0.16,0.35-0.819,0.32
	c-0.73-0.03-0.87-0.18-0.37-0.38L504.271,61.429z M586.771,61.429c0.449-0.18,0.989-0.16,1.199,0.05c0.21,0.2-0.16,0.35-0.819,0.32
	c-0.73-0.03-0.87-0.18-0.37-0.38L586.771,61.429z M507.831,60.599c1.03-0.26,2.72-0.48,3.75-0.48c1.57,0,1.47,0.08-0.63,0.51
	c-3.17,0.65-5.73,0.62-3.13-0.04L507.831,60.599z M582.981,60.809c0.43-0.17,1.13-0.17,1.56,0s0.08,0.31-0.78,0.31
	c-0.859,0-1.21-0.14-0.78-0.32L582.981,60.809z M579.231,60.179c0.43-0.18,1.13-0.18,1.56,0c0.43,0.17,0.08,0.31-0.78,0.31
	c-0.859,0-1.21-0.15-0.78-0.32L579.231,60.179z M514.541,59.539c0.6-0.16,1.59-0.16,2.19,0c0.6,0.15,0.109,0.28-1.091,0.28
	c-1.199,0-1.689-0.13-1.09-0.29L514.541,59.539z M575.481,59.549c0.43-0.18,1.13-0.18,1.56,0c0.43,0.17,0.08,0.31-0.78,0.31
	c-0.859,0-1.21-0.14-0.78-0.32L575.481,59.549z M521.571,58.649c9.609-1.6,40.45-1.59,47.81,0.02c2.67,0.58,2.62,0.59-0.939,0.25
	c-12.16-1.18-31.141-1.18-45.931-0.02l-4.689,0.37l3.75-0.63V58.649z"/>
</svg>
