<svg xmlns="http://www.w3.org/2000/svg" viewBox="0 0 1245 810" height="810" width="1245"><path d="M490.313 650.077l-430-154.17-.175-7.56-.175-7.56 122.353-112.112C249.61 307.013 314.574 247.49 326.68 236.4l22.008-20.164 32.062 11.502c17.635 6.327 32.18 11.393 32.323 11.258 1.263-1.19-10.62-14.293-14.96-16.494-3.076-1.56-3.714-2.24-3.728-3.97-.012-1.398 6.03-6.97 7.557-6.97 1.38 0 53.773-47.88 53.422-48.82-.143-.384 1.334-2.252 3.282-4.153l3.54-3.46 4.27 1.76c2.347.96 5.3 2.47 6.562 3.34 2.672 1.84 12.992 5.61 13.87 5.07.33-.21 3.626.6 7.325 1.79 18.907 6.09 71.587 18.21 92.817 21.36 2.338.34 2.97.69 2.97 1.62 0 .65.12 1.18.264 1.18 2.685 0 52.79 11.01 53.603 11.78.236.22-5.298 5.61-12.297 11.97-14.47 13.14-13.76 12.22-9.85 12.78 16.143 2.31 53.825 12.63 67.248 18.42l3.03 1.3 9.984-9.23c5.492-5.07 10.4-9.51 10.907-9.85 1.48-1.01 14.85 6.17 59.61 32 15.58 9 35.05 18.5 50.31 24.55 2.74 1.09 5.13 2.19 5.31 2.45.82 1.24 22.86 9.15 27.19 9.75 10.95 1.54 14.18 3.89 11.8 8.6-2.08 4.1-3.05 4.69-7.31 4.4l-3.87-.27-6.88 6.37c-5.91 5.47-7.2 7.03-9.2 11.12-1.28 2.61-2.34 4.39-2.35 3.95-.01-.44.56-1.94 1.27-3.34 1.89-3.71 1.47-3.51-5.18 2.47-8.57 7.7-11.88 18.96-13.61 46.28-4.18 65.89 34.38 168.01 66.48 176.06.91.23 1.45.7 1.23 1.07-.23.36-.12.47.23.26.35-.22.82-1.32 1.05-2.44.22-1.12 1.25-3.09 2.28-4.37l1.87-2.34-2.67-1.64c-5.71-3.52-7.8-5.11-12.27-9.33-8.37-7.9-19.3-24.49-21.61-32.81-.24-.86.99 1.36 2.73 4.92 5.98 12.24 11.87 20.71 19.19 27.58 7.6 7.13 8.45 7.54 14.12 6.82 43.46-5.46 13.52 53.04-41.45 80.99-33.07 16.81-57.22 11.04-48.42-11.58.61-1.57-32.88-12.33-53.22-17.09l-6.38-1.49-2.12 1.44c-11.67 7.93-37.59 2.67-39.79-8.08l-.39-1.88-24.65-4.49-24.65-4.48-13.69 12.57-13.69 12.57-8.2.38c-52.07 2.39-102.97-13.95-127.77-41.02-3.45-3.77-3.87-4.5-3.87-6.84 0-1.83-.38-2.97-1.25-3.76-2.18-1.97-1.71-5.95 1.09-9.19 1.28-1.49 3.42-4.18 4.74-5.98 1.31-1.8 2.54-3.27 2.73-3.27.35 0 .28.1-2.93 4.27-2.01 2.61-2.03 2.7-.63 2.5 8.74-1.27 34.01-64.37 30.77-76.83-.79-3.06-3.37 6.51-3.63 13.49-.1 2.75-.48 5.7-.85 6.56-.79 1.84-.38-5.3.66-11.56.75-4.51 4.92-17.19 5.65-17.19.28 0 3.96 1.92 8.17 4.27 12.48 6.97 27.82 13.95 46.53 21.17.59.22.72-18.19.62-83.27l-.13-83.56-7.5-2.97c-22.47-8.9-40.02-18.69-72.75-40.63-19.46-13.03-33.77-21.48-47.3-27.91-11-5.23-25.45-11.03-25.05-10.06.17.41 1.48 3.55 2.92 6.97 33.06 78.75 26.08 155.16-19.54 213.89-6.03 7.77-6.37 6.75 3.49 10.58 12.35 4.79 27.61 11.84 39.53 18.24l5.67 3.05 1.06-9.43c2.72-24.11 2.91-29.59 1.15-32.06-1.55-2.17-1.8-3.93-.56-3.93 2.21 0 2.84-1.56 3.54-8.75 4.22-43.16 18.53-74.13 33.03-71.5 17.22 3.13 37.7 43.34 26.55 52.11-7.05 5.54-18.87-15.1-11.97-20.907 1.87-1.58 1.94-1.81 1.6-5.13-1.55-14.96-12.84-21.18-18.75-10.327-5.63 10.33-7.03 17.75-12.02 63.41l-2.17 19.866 1.25 2.45c1.69 3.3 1.59 4.25-.44 4.49l-1.69.19-1.65 11.57c-.91 6.36-1.86 12.84-2.11 14.41l-.46 2.85 15.31 9.18c16.46 9.863 16.38 9.83 16.99 7.882.23-.72.54-1.17.71-1.008.32.313-5.24 11.67-5.71 11.67-.16 0-.14-.38.04-.85.22-.58-3.01-2.81-10.06-6.95l-10.39-6.1-3.51.704c-16.98 3.41-35.14-7.21-29.85-17.45l.95-1.84-11.11-5.36c-31.77-15.33-40.53-18.002-48.78-14.91-63.65 23.84-39.75-45.23 26.74-77.294 4.3-2.07 8.5-4.1 9.33-4.51.83-.41 1.86-1.73 2.29-2.937.43-1.2.81-1.88.83-1.5.09 1.26-1.32 4.63-1.93 4.63-.33 0-.437.26-.237.59.2.32-.06 1.52-.58 2.65-.87 1.904-.76.522.16-1.91.76-2.01-14.28 5.19-24.263 11.614-58.58 37.707-67.5 88.47-11.763 66.98l5.14-1.98-3.09-1.215c-1.69-.67-5.33-1.77-8.08-2.44-2.75-.67-7.18-1.937-9.84-2.81l-4.84-1.58.01-2.913c.006-1.6.27-3.33.59-3.84.36-.56.36-1.06.01-1.27-2.016-1.25 3.37-9.59 5.86-9.08.74.15 2.905.44 4.815.65l3.472.37 16.22-14.81 16.22-14.81 2.92-6c1.61-3.3 2.94-5.8 2.97-5.56.11.97-6.17 13.63-6.68 13.48-.3-.1-6.97 5.74-14.83 12.95-7.85 7.22-14.72 13.48-15.26 13.91-.85.68-.77.75.58.5 4.04-.74 6.51-.94 5.31-.436-2.27.96-8.058 1.34-12.66.82-5.2-.58-6.39.118-7.97 4.667-1.03 2.95-1.09 2.89 4.87 4.886 19.86 6.64 32.81-2.21 48.37-33.06 23.48-46.56 25.91-108.93 6.24-159.84-6.21-16.076-17.008-32.41-21.418-32.41-.8 0-3.588-.68-6.2-1.51-5.47-1.73-6.5-.66-1.86 1.94 5.85 3.28 11.79 9.826 16.58 18.28 2.69 4.75 3.43 6.96.93 2.8l-1.534-2.56-32.55-11.67-32.55-11.66-22.35 20.48c-198.98 182.29-265 243-264.61 243.37.26.245 193.65 69.67 429.75 154.27L920.68 788.7l2.11-1.73c8.75-7.194 285.64-261.816 285.07-262.136-.98-.55-377.74-135.54-378.28-135.54-.24 0-.28 2.46-.09 5.47.24 3.73.18 4.67-.18 2.96-1.94-9.22 1.74-52.24 4.72-55.21.47-.47.43-.23-1.29 8.09-1.8 8.71-3.38 23.65-3.39 32.15l-.01 5.66 190.02 68.09 190.02 68.09-.17 7.85-.178 7.85-144.05 132c-79.23 72.59-144.2 131.96-144.375 131.93-.17-.04-193.81-69.44-430.31-154.24zm429.865 139.296c-.27-.23-193.395-69.536-429.167-154.01-235.77-84.475-429.06-153.738-429.53-153.92-.69-.264-.85 1.03-.85 6.81v7.14l429.84 154.043 429.84 154.047.18-6.845c.1-3.765-.04-7.034-.31-7.265zm146.072-118.76c78.203-71.606 142.267-130.25 142.365-130.32.098-.07.098-3.292 0-7.16l-.177-7.033L1065 657.53 921.562 788.957l-.177 7.212-.177 7.21 1.427-1.29c.785-.71 65.412-59.88 143.615-131.48zM819.54 630.81c-.77-.148-2.175-.152-3.125-.01-.95.145-.32.266 1.398.27 1.718.007 2.496-.112 1.727-.26zm5.246-1.018c-.405-.29.377-.368 1.777-.174 1.858.258 2.26.177 1.562-.313-.702-.495-.388-.57 1.25-.296 1.66.27 1.962.2 1.25-.31-.74-.53-.578-.62.762-.41 1.047.16 1.55.03 1.31-.36s.13-.5.956-.28c.864.22 1.2.11.938-.32-.26-.43.08-.54.94-.31.87.22 1.2.11.94-.32s.08-.54.94-.31c.87.22 1.2.11.94-.32s.08-.54.94-.31c.88.23 1.21.11.94-.32-.26-.43-.02-.53.66-.26.72.27.93.17.63-.31-.3-.49-.01-.61.91-.37.88.23 1.21.11.94-.32-.26-.43-.03-.53.66-.26.72.27.93.17.63-.32-.3-.49-.09-.59.63-.32.64.24.92.16.69-.21-.34-.55.98-.93 2.4-.68.29.05.31-.25.06-.66-.31-.52-.12-.62.61-.34.73.27.93.17.63-.31-.3-.49-.09-.59.63-.32.73.27.93.17.63-.31-.3-.49-.09-.59.63-.31.72.27.93.17.62-.32-.3-.49-.09-.59.63-.32.72.27.93.17.63-.32-.3-.49-.1-.59.62-.31.73.27.93.17.63-.32-.3-.49-.1-.59.63-.31.73.28.93.17.63-.31-.29-.48-.1-.59.58-.33.56.21 1.22.07 1.45-.31.28-.45.12-.53-.45-.24-.48.25-.32 0 .36-.54.68-.55 1.66-.84 2.17-.64.52.2.74.16.49-.09-.58-.59 1.88-2.3 2.63-1.84.32.2.79.03 1.04-.37.3-.49.18-.56-.37-.23-.56.34-.67.26-.34-.26.26-.42.85-.62 1.32-.44.47.18 1.05.02 1.29-.36.27-.45.11-.53-.45-.23-.48.25-.18-.12.68-.83 1.51-1.26 2.26-1.56 3.32-1.38.28.05.34-.2.12-.55-.36-.59.48-.92 1.76-.7.29.05.36-.17.16-.49-.31-.5 1-1.43 2.24-1.59.23-.03.65-.31.94-.62.31-.33.14-.38-.42-.11-.51.25-.4.03.25-.5.66-.53 1.41-.83 1.68-.67.27.16.69-.03.94-.43.3-.49.16-.58-.42-.28-.48.25-.34.02.31-.51s1.39-.84 1.64-.69c.25.15.98-.35 1.63-1.11 1.17-1.38 1.167-1.39-.11-.46-.7.52-.29.05.92-1.05 1.21-1.09 2.39-1.86 2.62-1.72.23.14.808-.23 1.27-.83.79-1 .758-1.02-.392-.2-.684.49.216-.44 2-2.06 1.79-1.62 4.728-4.55 6.53-6.52 1.8-1.96 2.88-3.01 2.4-2.32-.76 1.09-.755 1.14.035.44.5-.45.91-1.01.92-1.25.01-.24 1.41-2.21 3.123-4.37 19.22-24.29 16.47-42.44-6.09-40.34-5.05.47-5.12.65-1.19 2.86l3.04 1.7.01 5.48.01 5.48-3.27 2.98c-3.25 2.95-3.283 2.97-5.393 2.1l-2.125-.88-24.84 22.8-24.86 22.8v2.62c0 2.35-.36 2.97-3.45 6.03l-3.45 3.4-4.21-1.47c-2.31-.81-5.89-2.37-7.95-3.46-3.26-1.73-10.7-4.74-11.73-4.74-2.23 0-2.56 11.904-.43 15.34.844 1.36 1.54 2.75 1.55 3.1.01.35.48.55 1.05.45.57-.09 1.24.16 1.49.57.305.5.186.57-.36.23-.52-.32-.67-.26-.41.16.224.37 1.014.51 1.755.31.86-.22 1.2-.11.94.32-.26.423.08.54.94.31.75-.197 1.19-.1 1 .21-.2.33 2.65.57 6.72.57 3.93 0 6.75-.23 6.35-.52zm2.714-14.708c0-2.397-.032-2.428-3.906-3.83-2.15-.778-5.242-2.086-6.875-2.907l-2.97-1.493v2.494c0 2.827.5 3.21 8.43 6.347 5.56 2.2 5.31 2.23 5.31-.61zm6.875-6.43c0-1.625-.288-3.133-.64-3.35-.353-.22-.564-.095-.47.273.095.37-.925 1.604-2.267 2.745-2.23 1.895-2.463 2.393-2.724 5.782l-.286 3.71 3.194-3.103c2.953-2.86 3.193-3.32 3.193-6.05zm-6.25 2.583c0-.352-.633-.895-1.406-1.21-.78-.313-3.79-1.568-6.7-2.788-5.66-2.38-8.51-2.16-3.73.28 6.18 3.15 11.83 4.93 11.83 3.71zm-15.113-3.815c-.164-1.09-1.675-1.855-8.48-4.29l-8.282-2.964v5.965l2.924.996c1.608.54 3.506 1 4.22 1 .71 0 3.122.68 5.356 1.5 4.428 1.62 4.81 1.42 4.262-2.22zm15.06-.332c.347-1.257 1.415-3.104 2.373-4.105 1.455-1.52 1.588-1.91.805-2.36-.516-.297-1.5-1.01-2.188-1.586-1.177-.99-1.15-.99.447-.05.93.55 2 1 2.37 1 .56 0 39.33-35.12 48.86-44.25 1.61-1.55 2.86-2.38 2.78-1.85-.08.53-11.44 11.31-25.25 23.96-17.32 15.86-24.92 23.22-24.52 23.7.32.39.67 1.24.77 1.9.34 2.25 1.19 1.56 25.53-20.74l24.36-22.33-.13-3.62c-.16-4.41.04-4.1-4.93-7.45-9.59-6.46-20.1-18.62-26.05-30.13-1.56-3.02-3.05-5.48-3.31-5.48-.94 0-51.9 47.07-51.9 47.93 0 .48.45 1.78 1.01 2.88.55 1.1.71 1.72.35 1.37-2.03-1.93-13.83-32.13-18.82-48.12-4.7-15.09-10.8-42.26-10.62-47.28.03-.81.74 2.47 1.59 7.28 3.36 19.16 9.02 39.93 15.93 58.44 3.86 10.34 8.61 22.03 9.19 22.63.31.32 44.38-39.31 51.82-46.59.61-.61-.32-3.39-4.52-13.49-24.82-59.64-31.99-123.36-18.06-160.37.43-1.14-3.96 2.64-15.27 13.16-3.95 3.67-4.08 3.89-4.13 6.93-.07 4.85-2.53 7.75-6.49 7.64-1.61-.05-2.3-.21-1.53-.36 2.53-.49 1.7-2.41-1.56-3.61-1.63-.61-4.16-1.75-5.62-2.54-8.34-4.53-20.74 8.47-27.76 29.09-15.35 45.09-8.01 107.45 20.37 173.1 2.58 5.97 4.43 10.6 4.12 10.28-2.81-2.81-16.68-39.52-22.17-58.7-19.39-67.63-11.28-139.73 17.32-154.05 1.99-.99 3.36-1.96 3.04-2.15-.88-.55-11.16-4.12-11.85-4.12-1.49 0-10.68 17.83-14.33 27.81-19.43 53.17-9.55 123.38 28.24 200.62l7.64 15.62 7.11 2.5c3.91 1.37 7.4 2.61 7.77 2.76.36.14.25-.28-.26-.94-.5-.66-.08-.46.94.45 2.12 1.88 5.73 3.79 11.19 5.89 4.84 1.86 4.56 1.9 5.29-.77zm-21.546-9.12c-4.64-4.963-6.194-7.05-2.446-3.283 2.053 2.063 4.118 4.243 4.59 4.844 1.57 2.01.373 1.13-2.144-1.56zm15.894-3.44c-.777-.99-.755-1.012.236-.235.602.472 1.094.964 1.094 1.094 0 .51-.513.18-1.33-.86zm-3.092-2.5l-1.516-1.717 1.72 1.515c.945.833 1.718 1.606 1.718 1.718 0 .49-.506.092-1.922-1.515zm-20.367-2.81c-1.6-1.794-4.13-5.47-3.76-5.47.16 0 1.45 1.547 2.88 3.438 2.68 3.547 3.1 4.497.89 2.03zm14.46-3.126l-3.1-3.282 3.28 3.102c1.81 1.706 3.28 3.182 3.28 3.28 0 .468-.58-.05-3.46-3.1zm-21.1-6.563c-2.67-4.46-3.68-6.4-3.33-6.4.15 0 1.19 1.62 2.3 3.6 1.12 1.98 2.44 4.23 2.95 5 .51.78.77 1.41.58 1.41-.18 0-1.31-1.61-2.49-3.59zm16.99 1.88c-.77-.99-.75-1.01.24-.23.61.48 1.1.97 1.1 1.1 0 .52-.51.19-1.33-.86zm-1.87-2.5c-.77-.99-.75-1.01.24-.23.6.48 1.1.97 1.1 1.1 0 .52-.51.19-1.33-.86zm-37.87-112.97c.01-1.72.13-2.35.27-1.4.15.95.14 2.36-.01 3.13-.15.77-.26-.01-.26-1.72zm-.62-6.25c.01-1.72.13-2.35.27-1.4.15.95.14 2.36-.01 3.13-.15.77-.26-.01-.26-1.72zm-.57-10.31c0-3.95.11-5.57.23-3.59.13 1.98.13 5.21 0 7.19-.12 1.98-.22.36-.22-3.59zm-.05-20.31c.01-1.72.13-2.34.27-1.39.15.95.14 2.36-.01 3.13-.14.77-.26-.01-.26-1.72zm.63-7.5c.01-1.72.13-2.34.27-1.39.15.95.14 2.36-.01 3.13-.15.77-.26-.01-.26-1.72zm.51-5.31c-.08-3.4 4.61-24.29 5.29-23.6.14.13-.3 2.19-.97 4.58-.67 2.39-1.9 8-2.74 12.47-.84 4.47-1.54 7.42-1.56 6.56zm6.55-27.5c.23-.86.68-1.98 1-2.5.41-.65.46-.46.17.63-.23.86-.68 1.99-.99 2.5-.4.66-.45.46-.16-.62zm2.78-6.42c-.02-.86 2.94-6.35 4.14-7.67.64-.7.93-.92.64-.49-.28.43-1.47 2.56-2.64 4.72-1.16 2.17-2.12 3.72-2.13 3.45zm8.95-13.1c1.74-1.63 3.45-2.95 3.82-2.93.37.02-.03.51-.89 1.09s-2.57 1.91-3.81 2.94c-1.24 1.03-.84.54.9-1.09zm5.26-3.38c.43-.17 1.14-.17 1.56 0 .43.18.08.32-.78.32s-1.21-.14-.78-.31zm38.28 241.32c0 .28.42.15.93-.27.52-.42.79-1 .62-1.28-.17-.28-.03-.68.32-.9.96-.59.77-2.82-.24-2.82-1.05 0-4.12 3.49-4.12 4.69 0 .46-.18 1.36-.41 1.99-.33.92-.09.85 1.25-.37.92-.84 1.66-1.29 1.66-1.02zm-35.74-4.44l-.19-2.91-4.37-1.49c-13.38-4.57-36.59-10.98-52.38-14.46l-5.5-1.21.19 2.56.19 2.56 4.93 1.07c2.71.59 5.1 1.32 5.31 1.62.21.3 4.74 1.62 10.07 2.92 10.4 2.56 34.53 9.68 38.13 11.26 3.51 1.54 3.84 1.37 3.63-1.9zm17.81 1.6c-1.18-1.18-16.07-6.17-16.65-5.59-.71.71.02 1.05 9.28 4.34 6.32 2.24 8.77 2.66 7.37 1.26zm-194.78-5.56h5.22v-5.93h-17.03c-44.91-.02-81.14-10.63-109.11-31.96-6.04-4.61-12.06-10.21-11.66-10.85.15-.23-.64-1.24-1.74-2.24l-2.01-1.81 1.54 1.74c1.15 1.3 1.49 2.33 1.37 4.07-.41 5.77 16.88 20.06 35.1 29 24.19 11.87 61.35 19.52 88.5 18.22 2.55-.12 6.98-.22 9.85-.22zm177.68-.84c-.15-.13-4.63-1.66-9.96-3.4-23.2-7.58-51.3-14.7-52.67-13.33-.82.82-.94.78 8.61 2.92 15.45 3.47 37.31 9.6 49.69 13.94 2.82.99 5.51.92 4.34-.11zm-155.43-14.7l10.47-9.6v-7.43l-12.04 10.99c-14.18 12.97-14.84 13.77-14.84 18v3.12l2.97-2.74c1.63-1.5 7.68-7.06 13.44-12.34zm146.78-2.02c-43.82-89.74-49.66-168.16-16.69-223.93l2.8-4.73-8.87-2.86c-21.5-6.92-44.54-11.79-84.18-17.76-50.78-7.65-69.79-11.51-93.96-19.1-11.14-3.49-10.41-12.44-9.93 122.21l.15 41.58 9.85 3.24c18.38 6.05 37.78 11.19 59.22 15.68l8.12 1.7-.17 5.93c-.09 3.26-.59 18.27-1.1 33.37-.51 15.09-.78 27.58-.61 27.75.31.32 56.82 10.71 58.36 10.73.67.01.76-.87.43-4.2-.23-2.32-.64-9.25-.91-15.4l-.5-11.18-2.43-2.12c-2.27-1.98-2.35-2.17-1.26-2.88 3.83-2.49 3.6-.99 2.91-19.2-2.23-58.8-8.23-81.09-24-89.17-11.18-5.72-22.47 3.78-14.56 12.25 10.24 10.95-5.83 21.99-17.32 11.9-14.47-12.7.23-33.38 23.64-33.26 14.66.08 27.17 8.24 36.34 23.69 9.87 16.65 19.64 56.42 19.64 80 0 4.99.99 7.82 3.13 8.97 1.77.95 1.54 2.31-.55 3.4-2.71 1.4-3.43 13.16-2.17 35.1l.4 6.94 4.13.8c11.76 2.28 37.94 9.48 51.94 14.28 2.92 1 5.39 1.76 5.48 1.69.09-.08-3.19-7-7.28-15.39zM659.69 365c.21-.344.51-.625.66-.625.15 0 .28.28.28.625 0 .344-.3.625-.66.625-.36 0-.48-.28-.27-.625zm179.06 230.313c.807-.86 1.327-1.563 1.155-1.563-.17 0-.973.703-1.78 1.563s-1.327 1.562-1.155 1.562c.17 0 .973-.703 1.78-1.563zm-111.71.497c-.77-.148-2.175-.152-3.125-.008-.95.144-.32.265 1.398.27 1.718.005 2.496-.113 1.727-.26zm5.618-1.057c-.19-.308.393-.418 1.293-.246 1.02.193 1.49.07 1.25-.32s.13-.497.96-.28c.87.225 1.2.112.94-.314s.08-.538.94-.312c.75.2 1.22.14 1.06-.12-.34-.54 2.79-2.2 3.73-1.97.42.1.42-.03 0-.41-.34-.31-2.31-.91-4.37-1.34-6.03-1.23-5.93-1.18-5.93-3.49 0-2.46.43-2.28-9.57-4.11l-7.38-1.35-1.82 1.75c-1.81 1.74-1.86 1.75-5.81 1.02-6.64-1.22-7.65-.39-4.62 3.86.78 1.09 1.41 2.26 1.41 2.6 0 .35.42.64.94.66 1.52.06 3.15.99 2.78 1.59-.18.31.15.37.74.14.72-.27.93-.17.63.32-.3.49-.1.59.63.31.66-.25.92-.16.68.23-.25.4.24.54 1.3.37 1.36-.21 1.51-.13.76.42-.73.54-.53.6.88.27 1.11-.26 1.67-.19 1.44.18-.22.35.46.52 1.63.4 1.3-.13 1.62-.04.92.27-.59.26 2.55.47 6.97.47 4.57 0 7.9-.24 7.7-.56zm-108.262-3.538c.71-1.146.157-1.643-.78-.705-.423.422-2.233.695-4.21.635-2.704-.082-2.95-.16-1.112-.35 5.424-.567.98-1.42-7.393-1.42-11.77 0-13.69 1.693-2.3 2.034 5.4.16 4.76.22-3.28.32-5.5.06-9.66-.09-9.25-.36 1.91-1.22-.57-2.03-7.97-2.63-4.27-.35-9.04-.79-10.59-1-3.43-.45-13.42-2.05-15.78-2.52-1.34-.27-1.72-.11-1.72.72 0 .89-.42 1.01-2.65.7-2.13-.3-2.36-.25-1.14.25.84.34 2.81.48 4.38.3 1.87-.21 2.32-.15 1.3.17-2.44.76 13.98 3.34 30 4.72 7.42.64 31.99-.04 32.52-.9zm-36.427-.417c1.11-.14 2.94-.14 4.06 0 1.11.14.2.252-2.03.252s-3.15-.113-2.03-.252zm-5.94-.604c.6-.157 1.58-.157 2.19 0 .6.157.1.286-1.1.286s-1.7-.13-1.1-.286zm-5-.625c.6-.16 1.58-.16 2.19 0 .6.15.1.28-1.1.28s-1.7-.13-1.1-.29zm-5-.63c.6-.16 1.58-.16 2.19 0 .6.15.1.28-1.1.28s-1.7-.13-1.1-.29zm-4.69-.61c.43-.18 1.13-.18 1.56 0 .43.17.08.31-.78.31s-1.21-.14-.78-.32zm-3.13-.63c.43-.18 1.13-.18 1.56 0 .43.17.08.31-.78.31s-1.21-.14-.78-.32zm37.03.78c0-4.8-2.38-6.78-3.77-3.14-1.45 3.79-.74 5.89 1.99 5.89 1.67 0 1.77-.15 1.77-2.76zm24.51-.35c1.55-1.37 2.94-2.35 3.1-2.19.16.16.97-.49 1.8-1.43l1.51-1.72-1.59 1.25c-.88.68-.03-.2 1.87-1.97 1.9-1.77 3.63-3.12 3.84-2.99.21.13 1.05-.54 1.87-1.47l1.5-1.7-1.59 1.25c-.87.69-.03-.2 1.88-1.97 1.9-1.77 3.63-3.12 3.84-2.99.21.12 1.05-.54 1.87-1.47l1.49-1.7-1.59 1.25c-.87.69-.03-.2 1.87-1.97 1.9-1.77 3.71-3.07 4.03-2.88.31.19.37.04.14-.34-.24-.38-.01-12.59.5-27.15.51-14.55.79-27.01.61-27.69-.17-.68-.08-3.8.2-6.94l.51-5.71-8.46-1.73c-19.23-3.93-42.63-10.17-59.68-15.91-4.11-1.39-7.7-2.52-7.97-2.52-.27 0-.5 2.11-.5 4.69 0 26.2-16.42 67.69-33.92 85.73l-3.14 3.23 5.24 1.57c21.02 6.3 45.47 9.23 65.93 7.9 5.12-.33 9.93-.61 10.67-.62 6.37-.06 26.17-43.3 29.62-64.65.42-2.63.9-4.64 1.05-4.49.53.53-1.23 9.35-3.34 16.75-5.18 18.16-12.64 34.19-22.33 47.97-8.01 11.38-8.58 19.29-.9 12.54zm220.48.29c.8-.86 1.32-1.57 1.15-1.57-.17 0-.98.7-1.78 1.56s-1.3 1.59-1.13 1.59c.17 0 .97-.71 1.78-1.57zM620 588.18c0-.31-2.32-.47-5.156-.35l-5.157.217 4.876-.52c2.68-.287 4.965-.62 5.075-.747 1.38-1.58 2.67-6.166 1.733-6.154-.58.007-5.25.284-10.37.616-19.74 1.28-44.93-1.65-64.71-7.526-7.52-2.234-6.68-2.233-7.83-.01-1.44 2.794-1.21 4.338.77 5.1 1.98.764 15.37 4.34 15.47 4.13.04-.073.4-.92.81-1.872 1.47-3.404 4.51-2.657 4.51 1.108v2.03l8.6 1.338c6.52 1.013 21.58 2.438 27.12 2.566.22.004.6-.764.83-1.707 1.15-4.58 5.33-4.27 5.33.39 0 1.12.48 1.29 4.22 1.48 9.14.47 13.91.44 13.91-.1zm-65.14-3.225c.143-.745-1.773-1.507-8.43-3.35-4.74-1.314-11.883-3.62-15.874-5.123-8.026-3.025-8.556-3.153-7.43-1.798.427.516 1.18.938 1.675.938.5 0 .73.278.52.618-.22.367.06.45.69.206.79-.302.94-.19.56.415-.34.56-.27.68.23.38.91-.56 5.22.79 4.78 1.5-.17.29.24.37.93.19.8-.2 1.39.05 1.64.71.27.7.8.9 1.65.63.8-.25 1.11-.16.85.26-.54.88 9.39 4.01 11.04 3.49.76-.24 1.1-.15.87.22-.51.83 1.81 1.39 4.23 1.03 1.62-.24 1.74-.19.69.34-1.24.63-1.24.63-.01.47.69-.08 1.33-.59 1.43-1.12zm4.515-1.853c0-3.542-1.378-4.86-2.903-2.775-1.063 1.45-1.107 5.08-.066 5.5 2.42.973 2.97.47 2.97-2.73zm151.875-2.41c0-2.318-.108-2.45-2.344-2.846-1.29-.23-2.836-.56-3.437-.738-.92-.27-1.1.094-1.1 2.21 0 2.25.19 2.57 1.72 2.908.94.21 2 .473 2.34.588 2.2.734 2.81.274 2.81-2.123zm4.375-3.937c0-5.344-3.168-2.633-3.617 3.095l-.282 3.584 1.95-1.835c1.658-1.56 1.95-2.28 1.95-4.84zm16.99 5.273c.143-.6.06-3.764-.18-7.03-.244-3.266-.47-12.455-.5-20.42l-.06-14.484 1.62-1.925c.89-1.05 1.88-1.76 2.202-1.56 1.05.65.27-1.27-.857-2.11-2.175-1.63-2.787-4.1-3.204-12.93-.227-4.81-.618-9.64-.868-10.72l-.456-1.97-7.336 6.66-7.337 6.66-.01 4.78c-.01 4.68-.05 4.81-2.22 6.71-1.22 1.06-1.97 1.94-1.68 1.94.29 0 1.38.83 2.42 1.85l1.9 1.86.54 11.73c.65 14.01.64 18.4-.03 24.33l-.51 4.47 3.36.66c1.85.36 5.33 1.06 7.74 1.56 2.4.49 4.55.93 4.77.96.22.04.51-.43.66-1.03zm121.135-.467c.807-.86 1.327-1.56 1.155-1.56-.17 0-.973.71-1.78 1.57s-1.327 1.57-1.155 1.57c.17 0 .973-.7 1.78-1.56zm-151.22.14c1.062.28 1.22-.01 1.22-2.21v-2.53l-3.28-.65c-1.806-.36-12.8-2.35-24.432-4.42-11.632-2.07-21.844-3.94-22.694-4.15-1.5-.37-1.538-.3-1.35 2.65l.194 3.04 24.375 4.43c13.406 2.44 24.458 4.23 24.56 3.98.103-.24.736-.3 1.407-.13zm-164.2-8.81c.96-1.47.935-1.54-.7-1.94-12.136-3-34.74-16.02-45.673-26.31-5.574-5.24-5.366-5.15-7.542-3.24l-1.603 1.41 1.516-1.72c1.228-1.39 1.32-1.72.49-1.72-3.347 0-2.47 4.99 1.615 9.2l3.16 3.26 1.502-1.62c2.105-2.27 3.833-.81 2.742 2.32-.99 2.84 5.446 8.12 18.154 14.89 7.06 3.76 6.53 3.63 7 1.73.88-3.51 4.32-2.6 4.03 1.07l-.2 2.53 3.75 1.54c2.06.84 5.16 2.04 6.88 2.66l3.13 1.12.39-1.81c.22-1 .84-2.5 1.38-3.33zm173.392 3.83c-.363-1.1-58.745-11.75-59.358-10.83-.674 1.01.317 1.23 26.698 5.95 15.934 2.85 24.456 4.12 24.607 3.69.15-.45.39-.42.7.08.89 1.45 7.81 2.49 7.35 1.1zm149.528-2.04c.807-.86 1.327-1.56 1.155-1.56-.17 0-.973.7-1.78 1.56s-1.327 1.56-1.155 1.56c.17 0 .973-.7 1.78-1.56zm-144.972-17.26c-.398-7.01-.78-13.48-.845-14.39l-.12-1.65-2.515 2.28-2.515 2.28.432 10.28c.237 5.65.628 12.23.867 14.61l.435 4.33 2.493-2.49 2.493-2.49-.725-12.74zm-194.33 10.52c-.526-.52-.93-.47-1.573.21-1.685 1.78-1.776 3.58-.256 5.1l1.43 1.43.55-3.01c.38-2.08.33-3.23-.16-3.71zm-3.56 3.85c-.196-.31-2.308-1.56-4.695-2.76-5.204-2.62-11.935-6.68-14.943-9.02-2.986-2.32-5.625-3.98-5.625-3.55 0 .65 9.596 7.5 14.204 10.15 2.48 1.43 4.31 2.79 4.06 3.04s-.17.38.17.28c1.06-.3 3.47.76 3.1 1.36-.2.32.12.39.72.16.72-.27.92-.17.62.32-.3.49-.1.59.62.32.72-.28.92-.17.62.31-.29.47-.11.6.52.35.53-.2.8-.63.61-.94zm24.215-4.14c17.35-17.95 33.647-59.46 33.647-85.7v-4.93l-9.844-3.89c-12.174-4.81-27.397-11.96-37.497-17.6-4.21-2.35-7.76-4.27-7.88-4.27-.13 0-.41 2.46-.64 5.47-1.95 25.55-13.31 55.87-28.98 77.32l-4.1 5.61 4.77 4.5c10.68 10.08 27.54 19.88 44.78 26.04 2.04.73 2.97.32 5.72-2.53zm326.147.16c.807-.86 1.327-1.56 1.155-1.56-.17 0-.973.71-1.78 1.57s-1.327 1.56-1.155 1.56c.17 0 .973-.7 1.78-1.56zm7.5-6.87c.807-.86 1.327-1.56 1.155-1.56-.17 0-.973.71-1.78 1.57s-1.327 1.56-1.155 1.56c.17 0 .973-.7 1.78-1.56zm12.5-2.49c0-3.13-.134-3.46-1.558-3.81-.866-.21-1.38-.68-1.154-1.04.236-.38.104-.47-.316-.21-1.637 1.02-.867 6.95.997 7.69.94.37 1.78.71 1.87.75.08.03.15-1.48.15-3.36zm6.25-5.49v-3.04l-2.792 2.39c-2.665 2.28-2.793 2.54-2.813 5.8l-.02 3.41 2.813-2.76c2.57-2.52 2.812-3.02 2.812-5.8zM825.625 535c12.547-11.44 23.224-21.187 23.728-21.657.503-.47.644-.854.312-.854-.796 0-51.784 46.66-52.086 47.66-.13.42.99-.38 2.5-1.79 1.5-1.41 12.99-11.93 25.54-23.37zm-332.372 14.87c-.89-.89-2.628 1.202-2.628 3.167 0 3.31 1.435 3.505 2.364.32.52-1.797.62-3.127.26-3.487zM490 553.55c0-.108-.914-1.02-2.03-2.03l-2.033-1.837 1.836 2.03c1.71 1.894 2.227 2.32 2.227 1.836zm402.645-2.253l1.417-1.614-1.598 1.25c-.88.687-.67.376.468-.692 2.123-1.99 2.784-4.62 1.162-4.62-1.132 0-3.862 3.53-4.4 5.68-.302 1.22-.162 1.62.566 1.62.532 0 1.606-.72 2.385-1.61zm-178.583-9.418l1.875-1.98-2.375-2.18-2.375-2.18-2.095 1.84c-1.153 1.01-2.475 1.98-2.938 2.14-.574.21-.048 1.08 1.66 2.74 2.78 2.7 3.337 2.67 6.25-.4zm-225.937-4.08c.647-.78.568-.94-.472-.94-.687 0-1.6.42-2.028.93-.647.78-.568.93.472.93.687 0 1.6-.42 2.028-.94zm223.854-3.74c.22-.01.65-.27.93-.58.3-.34.13-.38-.42-.09-.52.26-.14-.19.84-1.01l1.77-1.5-.7-18.73c-1.83-49.22-5.36-66.2-16.7-80.41-1.87-2.34-3.26-4.26-3.09-4.26 5.01 0 14.76 23.4 17.54 42.12.5 3.4.99 6.25 1.09 6.34.09.08 2.07-1.58 4.4-3.69l4.23-3.85-1.82-5.31c-4.18-12.21-8.72-20.62-14.81-27.36-3.9-4.33-10.1-8.86-11.46-8.39-.6.2-.71.02-.37-.57.27-.48.28-.66.01-.42-.27.24-1.62-.14-3-.84-8.23-4.2-19.73-4.27-29.06-.18l-3.28 1.44.07 9.57c.1 12.88.12 12.93 4.26 15.03 9.94 5.04 14.42-.74 6.76-8.71-3.76-3.9-2.51-9.45 2.92-12.96 1.36-.89 2.24-1.61 1.94-1.61-.88 0 2.32-3.16 4.17-4.12.93-.48 2.33-.85 3.12-.82 1.17.05 1.09.14-.44.51-5.91 1.43-7.66 4.15-2.95 4.58 19.71 1.79 29.3 28.1 31.07 85.16.52 16.84.92 21.65 1.78 21.1.4-.26.91-.47 1.14-.47zm13.51-21.41l5.18-4.86-.43-2.99c-.52-3.67.04-3.91-8.3 3.62-6.88 6.21-6.92 6.26-6.94 9.11-.03 4.78.34 4.6 10.47-4.89zM491.64 502.3c-6.23-3.736-12.248-7.352-13.365-8.037-1.627-.997-2.03-1.064-2.03-.334 0 .51 5.53 4.25 12.77 8.63 7.026 4.24 12.68 7.81 12.568 7.92-.115.11-6.004-3.32-13.087-7.62l-12.88-7.83v2.34c0 3.16 1.736 4.65 14.063 12.03l10 5.99 1.64-3.16 1.64-3.16-11.33-6.79zm225.34 9.885c.17.168.983-.467 1.82-1.41l1.51-1.717-1.59 1.25c-.872.688-.03-.2 1.876-1.967 1.904-1.77 3.632-3.11 3.84-2.98.207.13 1.05-.53 1.874-1.47l1.498-1.7-1.6 1.25c-.878.69-.507.24.826-.99l2.424-2.24-.985-5.19c-.542-2.86-1.997-9.16-3.234-14.01-1.24-4.85-2.39-9.45-2.57-10.22-.45-1.97-.67-1.87-5.39 2.5l-4.22 3.91.61 7.81c.34 4.3.8 12.39 1.03 17.99.33 7.93.59 10.04 1.19 9.54.42-.35.9-.5 1.07-.33zm-245.89-8.27c-1.29-.135-3.4-.135-4.69 0-1.29.135-.233.245 2.345.245s3.63-.11 2.342-.245zm4.312-1c-.418-.3.025-.398 1.058-.232 2.24.36 1.188-.877-2.507-2.943-2.223-1.243-2.417-1.58-2.707-4.695l-.315-3.355-5.47-3.107-5.47-3.107-2.28 1.75-2.28 1.743-3.83-1.99c-4.65-2.42-4.46-2.41-5.63-.14-1.36 2.63-1.18 5.03.58 7.62.84 1.24 1.34 2.45 1.1 2.69s-.16.37.19.29c1.04-.25 2.84.76 2.45 1.37-.19.31-.12.53.16.48 1.26-.22 2.12.11 1.77.68-.22.36.06.45.69.2.79-.3.94-.19.56.41-.34.55-.27.68.22.38.91-.56 3.35.16 2.91.87-.17.29.31.38 1.09.21 1.09-.24 1.2-.17.5.32-.65.46-.13.56 1.88.36 1.57-.16 2.31-.07 1.71.2-.59.26 2.41.48 6.66.48s7.41-.24 7.01-.52zm-.398-5.576c.004-1.12.18-2.68.39-3.47.317-1.18.046-1.56-1.554-2.16-2.76-1.04-2.79-1.42-1.074-12.59.85-5.54 1.735-11.81 1.964-13.94.328-3.03.763-4.18 2.005-5.31.872-.79 1.383-1.09 1.135-.66-.246.43-.132.78.255.78.78 0 .38-1.74-1.04-4.54-.868-1.71-.496-6.36 2.597-32.47l.348-2.94-5.487-1.67c-3.018-.92-5.802-1.79-6.187-1.94-.456-.18-.962 1.85-1.46 5.86-.625 5.04-1.033 6.42-2.303 7.76l-1.544 1.63 1.29 2.48c1.68 3.22-1.61 42.71-3.74 44.83-.34.33-.61 1.79-.61 3.23v2.61l5.78 3.27c3.18 1.8 5.92 3.47 6.09 3.7.17.23 1 .9 1.85 1.48.85.58 1.22 1.06.82 1.06s-.9-.28-1.11-.63c-.84-1.36-1.57-.5-1.57 1.84 0 1.69.34 2.67 1.09 3.1 1.73 1.01 2.03.81 2.04-1.35zm-20.436-14.25c-2.387-2.28-32.266-16.41-44.887-21.23-3.43-1.32-6.76-2.59-7.38-2.84-1.01-.4-1.11-.13-.93 2.52l.2 2.96 11.88 4.84c6.53 2.66 16.6 7.13 22.36 9.92 5.77 2.79 10.86 5.08 11.31 5.08.45 0 2.35.83 4.2 1.85l3.39 1.85.2-2.25c.11-1.24-.03-2.47-.31-2.74zm4.8-1.11c0-3.01-.11-3.31-.978-2.59-1.58 1.31-2.77 4.11-2.77 6.51v2.24l1.874-1.39c1.683-1.25 1.875-1.74 1.875-4.79zm-3.07-.9c.565-1.1.56-1.25-.03-.7-.57.53-2.154-.05-6.483-2.38-11.87-6.39-28.936-14.24-40.105-18.45-4.125-1.56-8.343-3.19-9.375-3.63-1.03-.45-4.903-1.87-8.606-3.16-3.71-1.29-6.63-2.46-6.49-2.59.13-.14 3.42.89 7.3 2.28 8.97 3.2 7.76 3.54 13.54-3.89C452 389.4 458.8 311.25 424.82 232.73l-2.64-6.11-6.4-2.31-6.4-2.31 3.01 3.52c18.51 21.618 30.62 68.018 28.81 110.39-2.34 54.77-26.86 107.268-52.77 112.97-3.12.687-4.69 1.467-4.69 2.33 0 .68 16.18 6.38 16.89 5.94.33-.206.61-.11.61.22s2.74 1.64 6.09 2.916c10.46 3.98 28.19 11.996 37.97 17.17 10.72 5.677 10.04 5.452 10.99 3.61zm2.89-3.75c2.016-2.11 3.63-12.17 4.885-30.47.2-2.92.502-5.98.67-6.79.286-1.37.118-1.32-2.455.79l-2.76 2.26-.44 7.02c-.247 3.86-.98 11.66-1.635 17.33-1.597 13.84-1.673 13.41 1.734 9.84zm-97.488-8.97c-.208-.21-.747-.23-1.198-.05-.5.2-.35.35.377.38.66.03 1.03-.12.82-.33zm8.138-.06c-.6-.16-1.584-.16-2.186 0-.6.15-.11.28 1.094.28 1.203 0 1.695-.13 1.094-.29zm30.78-6.95v-3l-7.653-2.74c-4.212-1.51-8.01-2.86-8.44-3.01-.538-.19-.78.49-.78 2.21v2.48l4.652 1.69c2.56.93 4.74 1.91 4.84 2.18.14.35 5.915 2.86 7.223 3.13.085.02.155-1.32.155-2.97zm268.05-4.47c.56-.3 1.66-1.24 2.447-2.08l1.43-1.53-3.09.3c-10.963 1.05-19.73-11.98-15.034-22.35l1.28-2.81-2.28 2.18c-12.72 12.2.18 34.42 15.26 26.29zm-149.22-.46c-.738-1.27-.916-.86-.31.71.21.56.52.88.68.72.16-.16-.007-.81-.37-1.44zm-136.95-2.08c0-1.97-.235-2.5-1.097-2.49-1.39.01-13.99-3.89-13.65-4.23.14-.14 3 .62 6.35 1.69 3.36 1.07 6.63 1.87 7.27 1.76 2.05-.33 1.33-1.42-1.21-1.86-1.35-.23-4.64-1.16-7.32-2.06-5.62-1.89-5.42-1.96-5.81 2.13-.34 3.58-.74 3.3 8.3 5.98 7.01 2.07 7.19 2.05 7.19-.95zm274.996-16.87l-.32-10.32-1.71 3.43c-2.682 5.4-2.142 12.67 1.22 16.38.556.61 1.04 1.05 1.072.96.032-.09-.086-4.8-.263-10.47zm-194.734 2.35c4.25-3.69 1.626-8.64-3.016-5.7-3.193 2.02-3.33 2.41-1.62 4.6.672.86 1.228 1.91 1.236 2.34.024 1.24.89.92 3.403-1.25zm.41-9.07l1.516-1.72-1.598 1.25c-.88.68-.673.37.462-.69 2.054-1.93 2.068-1.98 3.344-12.82 2.4-20.35 8.812-44.07 15.01-55.51l1.88-3.47-2.558 2.48c-7.468 7.26-16.743 37.01-19.663 63.05-1.084 9.67-.946 10.31 1.605 7.41zm17.714-19.28c1.016-8.73 1.614-7.63-5.266-9.69l-5.563-1.66-.662 3.21c-.61 2.95-1.84 11.85-1.66 12.03.2.2 11.972 3.76 12.118 3.66.1-.06.56-3.46 1.03-7.55zm39.456-5.53c2.023-2.02 1.937-2.96-.4-4.34-2.523-1.49-6.512-7.71-7.356-11.47-1.275-5.69-1.198-6.17 1.42-8.85l2.44-2.5-1.087-2.85c-4.062-10.64-12.368-17.6-16.46-13.8l-2.334 2.17 2.15.02c5.544.04 10.547 7.15 11.822 16.79.447 3.37.376 4.01-.473 4.31-5.242 1.84-3.862 12.49 2.47 19.06 3.33 3.45 5.41 3.84 7.81 1.44zm-38.316-4.38c.255-1.34-10.186-6.19-11.136-5.18-1.774 1.89-.367 3.25 5.05 4.91 3.094.94 5.663 1.73 5.71 1.76.045.02.215-.65.376-1.5zm40.287-4.87c-.34-4.69-1.85-10.27-4.31-15.93l-.88-2.03-2.4 2.46c-3.8 3.89-1.98 12.73 3.81 18.52 3.56 3.56 4.23 3.03 3.78-3.02zm-39.2-2.19c2.59-16.13 6.37-24.74 13.66-31.11 2.75-2.4 4.88-4.53 4.75-4.75-.53-.87-5.79-2.95-8.47-3.35l-2.84-.43-4.11 8.09c-4.94 9.73-10.02 17.85-10.75 17.19-.29-.27-.33-.14-.09.28.24.42.04 1.4-.45 2.19-1.06 1.71-3.71 11.51-3.38 12.51.18.55 8.76 3.95 10.54 4.17.21.02.73-2.13 1.16-4.8zm-4.17-19.68c3.6-5.8 10.11-18.52 9.69-18.94-1.9-1.9-5.92 3.77-9.77 13.78-4.14 10.74-4.12 11.95.09 5.16zm325.41-11.04c.71-1.01 1.48-2.74 1.71-3.87l.41-2.05-2.91 2.43c-1.91 1.59-2.91 2.93-2.91 3.86 0 2.07 2.12 1.84 3.71-.39zm-.97-3.93l3.06-2.62-2.12-.83c-1.16-.45-1.47-.7-.68-.55 1.18.22 4.66-2.68 18.73-15.57 9.51-8.72 17.51-15.71 17.8-15.53.28.17.44.03.34-.31-.09-.35 2.36-2.94 5.46-5.76 3.1-2.83 7.39-6.82 9.54-8.87 2.35-2.24 4.27-3.59 4.8-3.39.5.19 2.22-.78 3.9-2.2l3.02-2.54-2.65 2.6c-2.64 2.58-3.63 5.68-1.81 5.68 1.86 0 5.1-5.56 4.54-7.79-.38-1.53-6.68-3.78-12.25-4.38-2.87-.31-11.22-3.13-20.53-6.95-6.59-2.71-6.34-2.75-6.34 1.18v3.32l2.94 1.21 2.93 1.22-25.9 23.68c-14.25 13.02-26.49 24.21-27.2 24.85-1.32 1.18-3.29.83-7.13-1.28-3.34-1.83-25.69-7.8-41.19-10.99-17.07-3.51-58.04-10.03-64.74-10.3-3.59-.14-3.75-.73-.94-3.47 1.9-1.85 2.5-2.93 2.5-4.46 0-2.58 2.6-4.82 5.17-4.45 2.66.39 66.29-57.82 66.59-60.93.11-1.12.93-2.8 1.83-3.75.89-.94 1.51-1.81 1.36-1.93-1.68-1.39-29.51-16.05-30.48-16.05-.4 0-20.45 18.07-44.56 40.15s-44.2 40.08-44.64 39.99c-1.19-.26-68.51-24.42-68.77-24.69-.2-.2 81.11-75.02 86.1-79.24l1.88-1.59-12.71-2.96c-10.3-2.4-39.69-8.55-40.86-8.55-1.45 0-.1 5.64 1.43 5.98.95.2 2.08.49 2.53.62.44.13-16.82 16.39-38.37 36.12l-39.17 35.87-1.75-1.01c-.96-.55-1.62-1.12-1.47-1.27.56-.57-29.48-20.04-42.54-27.58-10.08-5.82-32.67-16.41-36.62-17.18-6.61-1.29-7.06-1.95-3.38-4.96 1.55-1.27 2.81-2.76 2.81-3.32 0-1.42 3.09-4.5 4.11-4.11.5.19 9.63-7.74 22.54-19.58 11.93-10.94 22.07-19.82 22.53-19.72.54.12.83-.45.83-1.65 0-1 .42-2.17.93-2.6 1.41-1.17.76-1.63-4.84-3.47-2.83-.93-5.71-2.2-6.4-2.82-1.53-1.39-7.54-4.19-10.04-4.68-1.6-.31-2.23.06-4.96 2.89-1.72 1.79-2.77 3.06-2.35 2.82.43-.24 1.27-.13 1.88.24.96.59.97.65.05.5-1.49-.25-55.15 48.97-54.11 49.62 1.17.74-.05.62-1.49-.158-1.06-.57-1.7-.24-4.32 2.21l-3.08 2.88 1.71.66c.94.36 3.54 1.08 5.78 1.59 25.21 5.82 58.36 21.92 93.18 45.25 63.81 42.747 89.08 51.8 184.95 66.245 51.64 7.78 88.29 16.91 110.32 27.465 9.478 4.54 8.548 4.45 12.43 1.12zm-.65-34.03c12.64-11.57 22.75-21.22 22.47-21.45-.27-.24-2.47-1.22-4.87-2.2-18.72-7.58-38.47-17.71-66.15-33.9-13.31-7.79-11.89-8.78-12.18 8.49l-.24 14.22-14.32 13.08c-12.69 11.59-14.16 13.13-12.9 13.5.79.23 5.73 1.17 10.99 2.09 15.11 2.64 38.78 8.53 49.81 12.38l2.5.87.17 6.19c.27 10.15-2.46 11.62 24.74-13.28zm-25.35 13.68l-.17-6.09-5.1-1.71c-18.84-6.32-45.31-11.81-88.23-18.3-10.15-1.54-10.92-1.57-12.39-.61-2.09 1.37-2.64 1.2 10.1 3.09 41.22 6.1 65.81 11.11 86.2 17.55 6.56 2.07 6.88 2.11 8.13 1.06 1.28-1.08 1.29-1.08.21.2-1.1 1.32-1.63 9.52-.67 10.47 1.65 1.65 2.13.26 1.95-5.67zm-3.12.68l-.18-4.16-5.62-1.79c-7.56-2.39-25.14-6.93-34.4-8.88-11.13-2.33-60.28-10.38-63.43-10.38-.35 0-.62 1.73-.62 3.99v3.99l2.03.37c1.12.2 7.8 1.23 14.85 2.28 36.67 5.46 62.41 10.8 80.93 16.8 3.09 1 5.85 1.84 6.12 1.88.27.03.41-1.82.31-4.1zm-104.88-19.27c0-1.21-.08-2.19-.19-2.19-.1 0-1.14.98-2.31 2.19l-2.12 2.19h2.31c2.23 0 2.31-.08 2.31-2.19zm57.19-16.67l14.38-13.2.36-14.58c.2-8.02.2-16.56 0-18.98l-.35-4.4L709 282.33c-17.57 16.08-31.91 29.28-31.86 29.34.05.06 6.55 1.12 14.45 2.35 7.9 1.23 15.63 2.48 17.18 2.79 1.55.31 2.96.58 3.13.61.18.03 6.78-5.88 14.69-13.14zm134.58 4.06c-.29-1.53-1.24-1.59-3.01-.21l-1.57 1.22 2.39.01c1.9.01 2.35-.2 2.19-1.03zm-229.42-5.58c.1-.04-3.54-1.4-8.08-3.04-4.54-1.64-8.63-3.13-9.1-3.3-.66-.26-.8.56-.65 3.91l.19 4.23 5.63 2.04 5.63 2.04 3.11-2.92c1.72-1.61 3.2-2.94 3.29-2.98zm-18.7-4.15l-.19-2.02-2.65 2.4c-1.46 1.32-2.65 2.6-2.65 2.83 0 .23 1.2.86 2.66 1.39l2.66.97.2-1.78c.11-.98.11-2.69 0-3.81zm214.64-2.11c-.21-8.97-.28-9.2-3.09-10.2-15.56-5.55-41.41-18.65-72.24-36.59l-7.38-4.3-1.28 1.29-1.29 1.29 4.6 2.7c37.5 22.01 76.22 40.7 79.05 38.16 1.1-.99 1.1-.98.07.27-1.35 1.64-1.6 13.7-.29 14.22 1.79.72 2.03-.16 1.87-6.83zm-3.27-.13v-6.13l-9.22-3.71c-16.46-6.63-37.92-17.61-63.07-32.27-5.21-3.04-9.64-5.52-9.85-5.52-.2 0-.37 2.64-.37 5.87v5.87l7.97 4.67c22.35 13.09 40.91 22.88 55.93 29.52 4.03 1.79 7.13 3.44 6.89 3.69-.25.24-.03.3.47.12.51-.18 3.17.63 5.92 1.78s5.07 2.13 5.16 2.16c.09.03.16-2.7.16-6.07zm-215.9 3.57c1.01-1.07 2.61-2.49 3.56-3.18l1.73-1.24 9.11 3.29c6.25 2.26 9.38 3.11 9.97 2.7 1.51-1.04 58.31-53.07 58.35-53.47.26-2.34-42.52-14.61-67.13-19.25l-6.24-1.18-9.7 8.9c-5.34 4.9-18.98 17.4-30.33 27.77-11.34 10.37-20.7 19.07-20.78 19.32-.8 2.29 49.59 18.27 51.45 16.31zm224.02-1.88c0-.25-.85-.74-1.88-1.1l-1.88-.66v5.79l1.87-1.8c1.03-.99 1.88-2 1.88-2.25zm-315.63-34.95c0-6.1-.03-6.24-1.25-5.48-1.09.67-1.25 1.45-1.25 5.89 0 4.87.25 5.6 2.03 5.79.26.02.47-2.77.47-6.21zm36.54-26.89c17.79-16.29 32.1-29.69 31.8-29.77-.3-.08-9.82-2.01-21.16-4.28-33.33-6.7-52.37-11.28-69.84-16.79-3.69-1.17-6.72-1.94-6.72-1.73 0 .22 1.26 3.71 2.8 7.77 5.77 15.19 10.77 33.69 13.23 48.94l1.12 6.94 6.43 4.25 6.43 4.25v13.07l1.79-1.5c.98-.83 16.34-14.84 34.13-31.13zm-39.67 26.66v-3.98l-11.41-7.5c-27.75-18.25-42.35-26.46-60.4-33.97-3.99-1.67-6.94-3.03-6.55-3.04 1.34-.04 13.05 5.09 22.73 9.95 14.26 7.16 21.43 11.44 44.21 26.43l11.4 7.5 1.66-1.09 1.66-1.09-13.68-9.03c-24.27-16.01-40.18-24.88-58.15-32.41l-8.03-3.36-1.43 1.6c-1.24 1.38-1.41 2.15-1.25 5.7l.19 4.1 6.56 2.74c19.49 8.13 39.09 19.24 64.69 36.65 8.34 5.67 7.81 5.62 7.81.77zm-10-17.3c0-10.76-14.23-59.65-18.49-63.54-1-.91-1.51-2.05-1.51-3.39 0-8.42 1.18-9.09-23.37 13.42-24.58 22.54-22.14 19.21-15.85 21.69 13.26 5.23 35.17 17.11 51.72 28.04 6.87 4.54 7.5 4.86 7.5 3.79zm-70-25.94v-2.84l-2.56 2.05-2.56 2.06 1.78.76c2.98 1.27 3.34 1.05 3.34-2.03zm140.94-16.59c-6.54-1.33-12.3-2.34-12.82-2.24-1.17.21 20.98 4.68 23.13 4.66.86-.01-3.78-1.1-10.31-2.43zm14.27.79c.89-.98.96-2.05.56-7.64l-.46-6.5-1.87-.47c-1.03-.26-11.3-2.33-22.81-4.6-30.4-5.98-53.09-11.46-70.24-16.96-6.76-2.17-6.81-2.17-8.03-.95-1.32 1.32.11 1.89 17.36 6.95 24.7 7.24 82.16 18.9 84.29 17.11 1.29-1.09 1.3-1.09.22.2-.88 1.05-1.09 2.51-1.09 7.66 0 6.5.29 7.21 2.09 5.22zm-2.71-5.41c0-5.64-.07-5.94-1.41-6.23-.77-.16-11.53-2.29-23.91-4.73-24.74-4.88-52.52-11.52-66.55-15.91-4.98-1.56-9.27-2.84-9.53-2.84-1.51 0-.47 11.85 1.08 12.24.86.21 1.42.61 1.25.89-.17.27.3.34 1.04.15.87-.23 1.2-.12.94.31s.07.54.94.31c.87-.23 1.2-.12.94.31s.07.54.94.31c.92-.24 1.21-.12.91.37-.27.45-.11.59.44.38.48-.18 4.22.66 8.31 1.87 9.79 2.9 32.62 8.39 47.34 11.39 8.41 1.72 11.36 2.53 10.32 2.86-.94.29-.57.35 1.03.17 1.45-.16 6.81.6 12.81 1.82 14.57 2.97 13.12 3.37 13.12-3.68zm6.17 1.94l1.39-1.49-1.6-.31c-1.41-.27-1.59-.1-1.59 1.48 0 2.16.05 2.17 1.8.3zm-35.39-.81c-.42-.18-1.13-.18-1.56 0-.43.17-.08.31.78.31s1.21-.14.78-.31zm-2.7-.46c-.45-.43-16.92-3.62-17.21-3.33-.15.15 3.18.99 7.4 1.86 7.49 1.54 10.34 1.97 9.81 1.46zm-27.45-6.05c-5.33-1.33-9.97-2.32-10.31-2.22-.77.24 17.03 4.63 18.75 4.63.69 0-3.11-1.09-8.43-2.42zm-11.42-2.83c-.21-.21-.74-.23-1.2-.05-.5.2-.35.35.38.38.66.02 1.03-.12.82-.33zm-2.5-.63c-.21-.21-.74-.23-1.2-.05-.5.2-.35.35.38.38.66.02 1.03-.12.82-.33zm-2.5-.63c-.21-.21-.74-.23-1.2-.05-.5.2-.35.35.38.38.66.03 1.03-.12.82-.33zm-4.37-1.25c-.21-.21-.75-.23-1.2-.05-.5.2-.35.35.38.38.66.03 1.03-.12.82-.33zm-4.37-1.25c-.21-.21-.74-.23-1.2-.05-.5.2-.35.35.38.38.66.03 1.03-.12.82-.33zm-18.15-13.49c-.2-.5-.35-.35-.38.38-.03.66.12 1.03.33.82.21-.21.23-.75.05-1.2zm8.87 354.81c.34-.69 1.07-1.81 1.63-2.5 1.02-1.25 1.02-1.25.41 0-.33.69-1.07 1.81-1.63 2.5-1.02 1.25-1.02 1.25-.4 0zm3.88-6.25c.77-1.38 1.67-2.78 2-3.13.94-.98-1.2 2.97-2.36 4.37-.57.69-.41.13.36-1.25zm8.76-16.88c0-.35.54-1.61 1.2-2.82.66-1.21 1.2-1.91 1.2-1.57 0 .34-.54 1.61-1.19 2.81-.66 1.2-1.2 1.91-1.2 1.56zm2.84-6.57c.21-.86.77-2.41 1.24-3.44.69-1.51.78-1.57.47-.32-.21.86-.76 2.4-1.23 3.44-.69 1.51-.78 1.57-.47.31zm347.16-.16c-.29-.78-.99-2.5-1.55-3.83-1.1-2.63-1.31-3.78-.41-2.25.95 1.61 3.15 7.47 2.81 7.47-.17 0-.56-.64-.85-1.41zm-344.02-8.6c.72-2.82 2.18-6.26 1.76-4.13-.2.99-.76 2.68-1.25 3.75-.67 1.46-.8 1.55-.5.38zm340.29-.7c-.39-1.11-.59-2.12-.46-2.25.14-.14.56.66.95 1.76.39 1.1.59 2.12.46 2.25-.13.13-.56-.66-.94-1.77zm-4-10.61c-3.54-9.71-4.4-12.4-4.07-12.73.15-.15.77 1.35 1.39 3.32.62 1.98 2.22 6.52 3.56 10.1 1.34 3.58 2.32 6.62 2.19 6.75-.13.14-1.51-3.21-3.05-7.44zm-334.17 4.14c.03-.73.18-.88.38-.38.18.45.16.99-.05 1.2-.2.21-.35-.16-.33-.82zm2.5-9.38c.03-.73.18-.88.38-.38.18.45.16.99-.05 1.19-.2.21-.35-.16-.33-.82zm.7-2.45c0-.69.23-1.96.5-2.82.4-1.24.5-1.31.5-.32 0 .68-.22 1.95-.5 2.81-.39 1.23-.5 1.3-.5.31zm1.27-5.63c.01-.69.23-2.09.49-3.12.43-1.69.48-1.72.49-.32.01.86-.21 2.26-.49 3.12-.39 1.22-.5 1.29-.49.31zM841 459c-.604-1.917-.986-3.597-.85-3.735.14-.137.746 1.318 1.35 3.235.604 1.917.986 3.597.85 3.735-.14.137-.746-1.318-1.35-3.235zm-2.2-7.49c.03-.728.177-.876.377-.377.18.45.158.99-.05 1.198-.207.21-.355-.16-.328-.82zm-.626-2.5c.03-.728.178-.876.378-.377.18.45.158.99-.05 1.198-.207.21-.355-.16-.328-.82zm-.625-2.5c.03-.728.17-.876.37-.377.18.45.16.99-.05 1.198-.21.21-.36-.16-.33-.82zm-.63-2.5c.03-.728.18-.876.38-.377.18.45.16.99-.05 1.198-.21.21-.36-.16-.33-.82zm-.63-2.5c.03-.728.17-.876.37-.377.18.45.16.99-.05 1.198-.21.21-.36-.16-.33-.82zm-1.26-4.992c-.43-1.92-.66-3.61-.52-3.758.14-.147.62 1.303 1.04 3.222.43 1.92.66 3.61.51 3.758-.15.147-.62-1.303-1.05-3.222zm-445.04-.74c0-.277.84-.822 1.87-1.212 1.03-.39 1.87-.598 1.87-.465 0 .14-.85.68-1.88 1.22-1.03.54-1.88.75-1.88.47zm4.37-2.264c0-.13.49-.622 1.09-1.094.99-.777 1.01-.755.23.236-.82 1.04-1.33 1.372-1.33.858zm5.31-4.764c1.69-1.72 3.22-3.125 3.39-3.125.17 0-1.08 1.406-2.77 3.125-1.7 1.72-3.22 3.125-3.39 3.125-.18 0 1.07-1.406 2.76-3.125zM833.84 430c0-.86.144-1.21.317-.78.173.428.173 1.132 0 1.56-.173.43-.315.08-.315-.78zm-.623-3.125c0-.86.142-1.21.315-.78.17.428.17 1.132 0 1.56-.178.43-.32.08-.32-.78zm-429.154-3.36c.59-.902 1.19-1.64 1.335-1.64.453 0-1.002 2.41-1.723 2.855-.377.233-.202-.314.39-1.216zm428.53-.39c0-.86.14-1.21.313-.78.172.428.172 1.132 0 1.56-.174.43-.316.08-.316-.78zm-.627-3.75c0-.86.14-1.21.314-.78.17.428.17 1.132 0 1.56-.178.43-.32.08-.32-.78zm-423.85-2.5c.37-.688.81-1.25.98-1.25.173 0 .013.563-.355 1.25-.37.688-.81 1.25-.98 1.25-.17 0-.01-.563.36-1.25zm423.224-.625c0-.86.14-1.21.31-.78.173.428.173 1.132 0 1.56-.173.43-.315.08-.315-.78zm-420.73-3.75c.368-.688.81-1.25.98-1.25.173 0 .013.563-.355 1.25-.37.688-.81 1.25-.98 1.25-.175 0-.015-.563.353-1.25zm420.158-1.563c.008-1.375.136-1.863.285-1.086.15.78.145 1.91-.01 2.5-.157.6-.28-.03-.27-1.41zm-.624-6.25c.004-1.375.132-1.863.28-1.086.15.78.146 1.91-.01 2.5-.157.6-.28-.03-.272-1.41zM419.73 393.75c.23-.86.68-1.984.995-2.5.403-.652.452-.46.162.625-.23.86-.68 1.984-.997 2.5-.403.652-.452.46-.162-.625zm5.94-17.24c.03-.728.18-.876.38-.377.18.45.155.99-.05 1.198-.21.21-.358-.16-.33-.82zm.624-2.5c.03-.728.173-.876.373-.377.18.45.158.99-.05 1.198-.207.21-.355-.16-.328-.82zm.62-2.5c.03-.728.18-.876.38-.377.18.45.16.99-.05 1.198-.208.21-.356-.16-.33-.82zm.625-2.5c.03-.728.17-.876.37-.377.18.45.15.99-.05 1.198-.21.21-.36-.16-.33-.82zm.62-2.5c.03-.728.18-.876.38-.377.18.45.15.99-.05 1.198-.21.21-.36-.16-.33-.82zm.98-3.697c.21-1.375.48-2.618.61-2.76.47-.538.12 2.81-.43 4.01-.4.87-.45.492-.19-1.25zm.96-5.625c.01-1.032.15-1.378.31-.77.16.608.15 1.452-.03 1.875-.17.423-.3-.074-.29-1.106zm.62-3.75c.01-1.032.15-1.378.31-.77.16.608.15 1.452-.02 1.875-.17.423-.3-.074-.29-1.106zm.65-4.063c0-1.203.13-1.695.28-1.094.15.61.15 1.59 0 2.19-.16.6-.29.11-.29-1.09zm.93-10c.18-4.297.55-9.64.82-11.875.32-2.685.37-1.414.14 3.75-.19 4.297-.55 9.64-.82 11.875-.32 2.685-.37 1.414-.15-3.75zm402.13 1.875c0-.516.24-1.5.53-2.188.34-.787.53-.903.53-.312 0 .516-.24 1.5-.54 2.188-.34.787-.54.903-.54.312zm-401.72-25.625c0-3.953.1-5.57.22-3.594.12 1.98.12 5.22 0 7.19-.13 1.98-.23.36-.23-3.59zm-.72-10c0-1.203.13-1.695.28-1.094.15.61.15 1.59 0 2.19-.16.6-.29.11-.29-1.09zm-.65-4.688c.01-1.03.15-1.377.31-.77.16.61.15 1.453-.03 1.876-.17.423-.3-.074-.29-1.106zm-.61-4.687c0-1.203.13-1.695.28-1.094.15.602.15 1.586 0 2.188-.16.6-.29.11-.29-1.094zm-.63-4.375c0-1.203.13-1.695.28-1.094.16.61.16 1.59 0 2.19-.16.6-.29.11-.29-1.09zm-.65-4.063c.01-1.03.15-1.377.31-.77.16.61.15 1.453-.03 1.876-.17.423-.3-.074-.29-1.106zm-.7-3.177c.03-.728.18-.876.38-.377.18.45.16.99-.05 1.198-.21.207-.36-.162-.33-.82zm-.63-2.5c.03-.728.17-.876.37-.377.18.45.16.99-.05 1.198-.2.207-.35-.162-.33-.82zm-.63-2.5c.03-.728.18-.876.38-.377.18.45.16.99-.05 1.198-.21.207-.36-.162-.33-.82zm-.62-3.125c.03-.728.17-.876.37-.377.18.45.16.99-.05 1.198-.21.21-.36-.16-.33-.82zm-.63-2.5c.03-.728.18-.876.38-.377.18.45.16.99-.05 1.198-.21.21-.35-.16-.33-.82zm-.62-2.5c.03-.728.18-.876.38-.377.18.45.16.99-.05 1.198-.21.21-.36-.16-.33-.82zm-.63-2.5c.03-.728.18-.876.38-.377.18.45.16.99-.05 1.198-.21.21-.36-.16-.33-.82zm-7.44-21.478c-.37-1.05-.53-1.907-.37-1.907.42 0 1.6 3.247 1.29 3.556-.14.15-.56-.6-.92-1.64z"/></svg>