<svg xmlns="http://www.w3.org/2000/svg" viewBox="0 0 1241.25 816.25" height="816.25" width="1241.25"><path d="M494.063 653.827l-430-154.17-.175-7.56-.175-7.562 144.2-132.11c79.31-72.662 144.603-132.068 145.095-132.013.493.055 194.227 69.383 430.522 154.063l429.626 153.962-.172 7.853-.17 7.852-144.06 131.99C989.52 748.73 924.55 808.098 924.377 808.062c-.173-.034-193.816-69.44-430.316-154.234zm429.865 139.296c-.27-.23-193.395-69.536-429.167-154.01-235.77-84.476-429.06-153.74-429.53-153.92-.69-.265-.85 1.03-.85 6.81v7.14l429.84 154.042 429.84 154.047.18-6.845c.1-3.765-.04-7.034-.31-7.265zM1070 674.363c78.203-71.606 142.267-130.25 142.365-130.32.098-.07.098-3.292 0-7.16l-.177-7.033-143.438 131.43-143.438 131.428-.177 7.212-.177 7.212 1.427-1.29c.785-.71 65.412-59.876 143.615-131.48zm-1.132-13.79l143.555-131.51-1.884-.803c-1.04-.442-194.54-69.843-430-154.225l-428.1-153.422-22.36 20.475C131.09 423.35 65.06 484.064 65.46 484.433c.766.717 858.538 308.025 859.226 307.83.342-.1 65.223-59.36 144.18-131.69zM756.25 572.065L695 550.147c-33.172-11.87-61.51-22.092-62.972-22.718l-2.66-1.14.16-64.54.16-64.54 18.906-4.63 18.906-4.63v-13.04c0-8.12.232-13.05.613-13.05 29.872 0 78.73 16.54 117.824 39.89l11.25 6.72.16 64.4.16 64.4-2.973.68c-1.634.37-9.72 1.56-17.97 2.62-8.25 1.06-15.634 2.08-16.408 2.24l-1.406.31v14.67c0 15.2.01 15.14-2.5 14.24zm1.875-64.126V444l-14.53-7.253c-36.39-18.163-67.612-29.208-103.008-36.44-3.974-.813-7.982-1.668-8.906-1.9l-1.68-.42v127.96l63.91 22.932c35.15 12.61 63.98 22.94 64.07 22.96.09.01.16-28.74.16-63.91zm-59.845 24.7L685 527.87v-13.667c0-12.73.076-13.64 1.095-13.315.6.2 6.86 2.427 13.906 4.958l12.82 4.602.17 13.526c.14 10.62 0 13.52-.62 13.49-.43-.02-6.77-2.187-14.07-4.814zm14.22-8.75v-12.97l-2.92-1.06-2.92-1.05-8.17 7.25c-4.495 3.99-9.086 8.11-10.203 9.15-1.116 1.04-2.03 1.72-2.03 1.51 0-.21 4.36-4.24 9.688-8.96 11.628-10.31 11.65-8.65-.16-12.84l-9.84-3.5-.17 12.52c-.13 9.49.024 12.71.626 13.3.67.66 24.24 9.45 25.64 9.56.26.02.47-5.8.47-12.94zm-10.15-39.58c-1.855-1.08-1.652-22.48.21-21.99.717.18 1.45.72 1.628 1.18.208.54.856.71 1.79.48 3.69-.93 8.808 4.25 9.435 9.54.82 6.91-4.766 10.2-9.625 5.67l-1.405-1.32v3.55c0 3.67-.193 3.94-2.03 2.87zm1.867-7.45c.22 0 1.004.57 1.744 1.26 3.12 2.93 7.5 2.57 8.66-.71 2.09-5.93-4.47-14.74-9.32-12.53-1.34.61-1.53.54-1.53-.54 0-.68-.42-1.24-.93-1.24-1.26 0-1.42 19.73-.15 20.16.55.18.84-.74.97-3.08.11-1.83.37-3.33.59-3.33zm1.48-.34c-3.835-4.37-1.696-12.17 2.894-10.56 2.44.85 4.55 4.29 4.55 7.4 0 5.52-3.9 7.17-7.43 3.15zm6.12-.45c1.34-4.15-1.17-9.22-4.566-9.22-2.08 0-2.86 1.21-2.86 4.45 0 5.76 5.89 9.54 7.44 4.76zm-22.12-2.08c-4.15-2.16-6.564-6.02-6.564-10.47 0-5.63 4.36-7.75 9.505-4.64 9.638 5.83 6.84 20.2-2.94 15.1zm5.73-.02c4.78-1.28 2.71-11.38-2.993-14.59-6.44-3.62-10.57 1.66-7.07 9.03 1.856 3.91 6.543 6.49 10.06 5.55zm-7.198-3.67c-3.43-3.91-3.11-9.26.64-10.57 4.58-1.61 9.45 7.01 6.41 11.35-1.57 2.23-4.71 1.88-7.06-.79zm6.4.56c1.18-3.08-.3-8.33-2.71-9.62-5.14-2.75-7.64 3.67-3.4 8.71 1.81 2.15 5.42 2.68 6.1.9zm-14.61-.34c-3.42-1.37-3.77-2.17-3.77-8.73 0-5.56-.12-6.15-1.25-6.51-1.71-.54-1.74-3.09-.04-2.64.99.25 1.25-.05 1.4-1.65.34-3.54 3-3.14 3 .45 0 2.26.24 2.89 1.25 3.21.7.22 1.25.94 1.25 1.64 0 .96-.29 1.16-1.25.85-2.14-.68-1.86 8.93.31 10.82 2.63 2.29 2.1 3.75-.93 2.54zm.43-2.03c-2.33-1.91-2.45-12.73-.13-12.43 1.16.14 1.15.08-.16-.86-1.04-.76-1.41-1.65-1.41-3.44 0-1.74-.27-2.43-.94-2.43-.66 0-.94.66-.94 2.25 0 1.74-.21 2.17-.94 1.89-.52-.2-.94-.09-.94.24 0 .33.42.6.94.6.76 0 .94 1.08.98 5.78.05 6.63.37 7.78 2.49 8.952 2.38 1.32 2.96.997 1.03-.58zm99.47 70.52c9.06-1.2 16.59-2.17 16.72-2.17.13 0 .23-28.87.23-64.16v-64.15l-22.66.4c-12.46.22-23.54.57-24.62.78l-1.97.37 5.55 16.65 5.55 16.64v98.58l2.34-.38c1.29-.21 9.76-1.36 18.83-2.56zM752.45 426.4c-3.07-9.19-5.58-16.75-5.58-16.804 0-.553 10.81-1.108 27.69-1.42l20.51-.384-10.51-6.25c-13.1-7.79-32.88-17.77-43.89-22.135l-8.37-3.317-19.03 19.29-19.03 19.29 18.33-18.91c10.08-10.4 18.41-19.14 18.5-19.423.972-2.9-60.74-15.79-62.487-13.046-.87 1.37-.606 24.2.28 24.18 1.803-.03 9.462-2.28 9.64-2.83.104-.32-2.033-5.09-4.75-10.59s-4.875-10.07-4.796-10.15c.24-.24 5.084 9.09 8.085 15.57l2.8 6.05-23.535 5.74c-12.94 3.16-23.76 5.95-24.032 6.2-.28.25 2.68 1.09 6.56 1.86 35.29 6.977 69.65 19.066 104.873 36.9 7.39 3.74 13.63 6.82 13.86 6.85.234.02-2.086-7.48-5.154-16.67zM550 498.31c-.516-.186-28.078-10.05-61.25-21.92-33.172-11.868-61.51-22.09-62.972-22.713l-2.66-1.135.16-67.97.16-67.97 13.437-2.985c7.39-1.64 16.04-3.57 19.22-4.29l5.78-1.305v-24.296l1.406.308c.78.17 4.22.61 7.66.98 37.75 4.064 71.09 15.968 111.41 39.784l8.91 5.26v133.668l-1.72.383c-.94.21-2.14.49-2.65.62-.51.13-7.4 1.09-15.31 2.12-7.9 1.03-15.29 2.03-16.4 2.22l-2.03.35v14.66c0 15.78.09 15.38-3.12 14.22zm2.5-67.654v-67.468l-12.344-6.21c-33.45-16.83-57.27-25.908-88.593-33.768-8.114-2.036-25.425-5.71-26.903-5.71-.79 0-.91 8.796-.91 67.345v67.344l63.906 22.93c35.15 12.61 64.117 22.95 64.375 22.97.26.02.47-30.33.47-67.44zm-74.53 22.627l-12.97-4.7v-13.667c0-7.516.07-13.66.156-13.65.086.01 6.344 2.23 13.906 4.937l13.75 4.92.17 13.5c.156 12.585.092 13.497-.94 13.43-.607-.037-6.94-2.185-14.073-4.77zm14.53-8.79V431.49l-3.027-.97-3.027-.968-10.442 9.287c-5.743 5.1-10.358 9.3-10.254 9.32.103.02 5.813 2.1 12.688 4.62 6.875 2.52 12.85 4.61 13.28 4.65.603.05.782-2.91.782-12.94zm-16.565-6.203c5.304-4.722 9.444-8.782 9.2-9.022-.247-.24-4.737-1.96-9.98-3.824l-9.53-3.388v12.41c0 6.825.15 12.41.332 12.41.183 0 4.673-3.864 9.978-8.586zm29.69-26.856c-3.122-1.142-3.75-2.648-3.75-9 0-5.55-.113-6.135-1.25-6.497-.7-.222-1.25-.945-1.25-1.646 0-.96.284-1.16 1.25-.85 1.058.34 1.25.12 1.25-1.45 0-1.7.89-2.61 2.55-2.61.317 0 .575 1.25.575 2.77 0 2.23.248 2.85 1.25 3.17.714.23 1.25.95 1.25 1.68 0 .98-.3 1.21-1.25.96-1.176-.31-1.25-.02-1.25 4.89 0 4.66.132 5.26 1.25 5.61.688.22 1.25.64 1.25.93 0 .29.17.98.38 1.52.387 1.01-.44 1.21-2.255.55zm1.25-1.412c0-.332-.573-.91-1.273-1.284-1.853-.992-1.625-12.297.242-11.977.694.12.992-.06.744-.46-.226-.36-.817-.66-1.312-.66-.654 0-.9-.78-.9-2.86 0-3.33-1.437-3.63-1.76-.36-.133 1.36-.528 1.99-1.25 2.01-.964.02-.96.07.04.66.92.54 1.094 1.58 1.094 6.57 0 5.47.12 6.06 1.534 7.47 1.58 1.58 2.84 1.99 2.84.93zm-15.68-3.744c-7.043-2.135-10.84-11.96-6.147-15.91 2.27-1.91 3.175-1.972 6.54-.443 9.52 4.325 9.163 19.248-.392 16.353zm5.53-1.434c3.467-4.303-.385-13.018-6.572-14.872-5.63-1.686-8.092 4.164-4.492 10.668.48.85.87 1.758.88 2.016.02.258.17.43.34.383.17-.05 1.3.51 2.5 1.24 2.42 1.47 6.37 1.77 7.35.55zm-8.3-2.545c-4.044-4.05-3.337-11.05 1.113-11.05 5.21 0 8.674 7.33 5.417 11.47-1.79 2.27-3.97 2.13-6.53-.43zm5.928.24c.922-1.72.8-5.8-.216-7.25-.475-.68-.89-1.5-.92-1.82-.062-.63-1.346-1.03-3.807-1.19-2.168-.14-3.483 2.35-2.894 5.5.858 4.57 6.2 7.81 7.837 4.75zm-22.027-3.43c-1.224-.83-2.367-1.37-2.54-1.2-2.22 2.22-2.91-.5-2.91-11.47 0-9.74.11-10.92.988-10.58.543.21 1.246.38 1.562.38.316 0 .574 1.62.574 3.6v3.61h2.36c6.206 0 10.995 8.77 7.976 14.61-1.554 3-4.54 3.39-8.01 1.03zm7.326-1.13c3.586-5.12-2.265-15-8.246-13.92l-2.03.36v-3.78c0-2.1-.278-3.78-.626-3.78-.39 0-.625 3.75-.625 10 0 5.5.16 10 .357 10 1.02 0 1.902-1.71 1.464-2.83-2.397-6.14 2.017-11.19 6.374-7.3 5.147 4.6 1.747 14.2-3.68 10.4-.765-.54-1.39-.69-1.39-.34 0 2.35 6.898 3.31 8.402 1.16zm-1.98-2.55c1.31-3.96-1.293-9.19-4.57-9.19-2.427 0-3.364 1.83-2.837 5.56.223 1.58.443 3.23.487 3.66.045.42.212.65.372.49.16-.16.886.13 1.614.64 2.017 1.42 4.25.89 4.933-1.17zm95.14 70.19c8.25-1.06 15.633-2.07 16.407-2.23l1.4-.3V330.74l-6.41-.423c-7.43-.49-41.44-.19-42 .37-.21.206 2.16 7.644 5.26 16.526l5.63 16.15V468.28l2.34-.363c1.29-.2 9.09-1.23 17.34-2.294zm-26.448-119.81l-5.515-15.74 3.87-.42c2.13-.23 13.05-.32 24.26-.2s20.38.18 20.38.14c0-.23-18.11-10.62-24.07-13.81-9.49-5.08-21.93-10.89-31.05-14.52l-7.66-3.05-6.86 6.35c-7.71 7.13-27.4 25.46-29.65 27.6l-1.47 1.4 5.22 1.98c11.74 4.47 28.34 11.88 42.6 19.03 8.31 4.17 15.19 7.44 15.28 7.26.09-.17-2.32-7.4-5.36-16.05zm-49.8-20.28c4.468-4.18 12.842-11.96 18.608-17.3 5.767-5.34 10.267-9.91 10-10.16-3.034-2.83-34.306-10.05-53.64-12.38l-8.888-1.07-.104 11.7-.103 11.69 3.938-.89c2.166-.49 4.59-1.04 5.386-1.23 1.41-.32 1.31-.6-3.65-10.15-2.8-5.41-4.81-9.54-4.46-9.2.9.88 10.3 19.08 10.01 19.37-.13.13-10.92 2.61-23.97 5.51s-23.31 5.43-22.8 5.62c.52.19 4.6 1.09 9.06 2 14.42 2.92 34.08 8.17 45.31 12.11 2.93 1.02 5.74 1.88 6.26 1.9.52.02 4.6-3.37 9.06-7.55z"/></svg>