<?xml version="1.0" encoding="utf-8"?>
<!-- Generator: Adobe Illustrator 17.1.0, SVG Export Plug-In . SVG Version: 6.00 Build 0)  -->
<!DOCTYPE svg PUBLIC "-//W3C//DTD SVG 1.1//EN" "http://www.w3.org/Graphics/SVG/1.1/DTD/svg11.dtd">
<svg version="1.1" id="Layer_1" xmlns="http://www.w3.org/2000/svg" xmlns:xlink="http://www.w3.org/1999/xlink" x="0px" y="0px"
	 viewBox="0 0 32 32" enable-background="new 0 0 32 32" xml:space="preserve">
<g>
	<path fill="#FFFFFF" d="M26.7,6.8H5.3C5,6.8,4.8,7,4.8,7.3v15.3c0,0.3,0.2,0.5,0.5,0.5H7v1.6c0,0.3,0.2,0.5,0.5,0.5h2.1
		c0.3,0,0.5-0.2,0.5-0.5v-1.6h12.1v1.6c0,0.3,0.2,0.5,0.5,0.5h2.1c0.3,0,0.5-0.2,0.5-0.5v-1.6h1.4c0.3,0,0.5-0.2,0.5-0.5V7.3
		C27.2,7,27,6.8,26.7,6.8z M9.1,24.2H8v-1.1h1.1V24.2z M24.3,24.2h-1.1v-1.1h1.1V24.2z M26.2,22.1h-1.4h-2.1H9.6H7.5H5.8V7.8h20.5
		L26.2,22.1L26.2,22.1z"/>
	<path fill="#FFFFFF" d="M24.3,17.3h-4.8c-0.3,0-0.5,0.2-0.5,0.5v2.4c0,0.3,0.2,0.5,0.5,0.5h4.8c0.3,0,0.5-0.2,0.5-0.5v-2.4
		C24.8,17.5,24.6,17.3,24.3,17.3z"/>
	<path fill="#FFFFFF" d="M7.7,20.7H16c0.2,0,0.4-0.1,0.4-0.3l2.2-4.5h5.6c0.3,0,0.5-0.2,0.5-0.5V9.7c0-0.3-0.2-0.5-0.5-0.5H7.7
		c-0.3,0-0.5,0.2-0.5,0.5v10.5C7.2,20.4,7.4,20.7,7.7,20.7z M8.2,10.2h15.7v4.7h-5.5c-0.2,0-0.4,0.1-0.4,0.3l-2.2,4.5H8.2V10.2z"/>
</g>
</svg>
