<?xml version="1.0" encoding="utf-8"?>
<!-- Generator: Adobe Illustrator 18.1.1, SVG Export Plug-In . SVG Version: 6.00 Build 0)  -->
<svg version="1.1" id="Layer_1" xmlns="http://www.w3.org/2000/svg" xmlns:xlink="http://www.w3.org/1999/xlink" x="0px" y="0px"
	 viewBox="0 0 80 80" enable-background="new 0 0 80 80" xml:space="preserve">
<circle fill="#FFFFFF" cx="40" cy="40" r="39"/>
<g>
	<path fill="#454647" d="M25.8,60.2h28.3v-8.1H25.8V60.2z M25.8,40h28.3V27.8h-5.1c-0.8,0-1.6-0.3-2.1-0.9c-0.6-0.6-0.9-1.3-0.9-2.1
		v-5.1H25.8V40z M62.3,42c0-0.5-0.2-1-0.6-1.4c-0.4-0.4-0.9-0.6-1.4-0.6s-1,0.2-1.4,0.6c-0.4,0.4-0.6,0.9-0.6,1.4
		c0,0.5,0.2,1,0.6,1.4c0.4,0.4,0.9,0.6,1.4,0.6s1-0.2,1.4-0.6C62.1,43,62.3,42.5,62.3,42z M66.3,42v13.1c0,0.3-0.1,0.5-0.3,0.7
		s-0.4,0.3-0.7,0.3h-7.1v5.1c0,0.8-0.3,1.6-0.9,2.1c-0.6,0.6-1.3,0.9-2.1,0.9H24.8c-0.8,0-1.6-0.3-2.1-0.9c-0.6-0.6-0.9-1.3-0.9-2.1
		v-5.1h-7.1c-0.3,0-0.5-0.1-0.7-0.3s-0.3-0.4-0.3-0.7V42c0-1.7,0.6-3.1,1.8-4.3c1.2-1.2,2.6-1.8,4.3-1.8h2V18.7
		c0-0.8,0.3-1.6,0.9-2.1c0.6-0.6,1.3-0.9,2.1-0.9h21.2c0.8,0,1.8,0.2,2.8,0.6c1,0.4,1.8,0.9,2.4,1.5l4.8,4.8
		c0.6,0.6,1.1,1.4,1.5,2.4c0.4,1,0.6,1.9,0.6,2.8v8.1h2c1.7,0,3.1,0.6,4.3,1.8C65.7,38.9,66.3,40.3,66.3,42z"/>
</g>
</svg>
