<?xml version="1.0" encoding="utf-8"?>
<!-- Generator: Adobe Illustrator 18.1.1, SVG Export Plug-In . SVG Version: 6.00 Build 0)  -->
<svg version="1.1" id="Layer_1" xmlns="http://www.w3.org/2000/svg" xmlns:xlink="http://www.w3.org/1999/xlink" x="0px" y="0px"
	 viewBox="0 0 1440 1440" enable-background="new 0 0 1440 1440" xml:space="preserve">
<circle fill="#FFFFFF" cx="720" cy="720" r="702"/>
<g>
	<path fill="#444545" d="M464.4,1083.6h509.4V937.8H464.4V1083.6z M464.4,720h509.4V500.4H882c-14.4,0-28.8-5.4-37.8-16.2
		c-10.8-10.8-16.2-23.4-16.2-37.8v-91.8H464.4V720z M1121.4,756c0-9-3.6-18-10.8-25.2s-16.2-10.8-25.2-10.8s-18,3.6-25.2,10.8
		c-7.2,7.2-10.8,16.2-10.8,25.2s3.6,18,10.8,25.2c7.2,7.2,16.2,10.8,25.2,10.8s18-3.6,25.2-10.8C1117.8,774,1121.4,765,1121.4,756z
		 M1193.4,756v235.8c0,5.4-1.8,9-5.4,12.6c-3.6,3.6-7.2,5.4-12.6,5.4h-127.8v91.8c0,14.4-5.4,28.8-16.2,37.8
		c-10.8,10.8-23.4,16.2-37.8,16.2H446.4c-14.4,0-28.8-5.4-37.8-16.2c-10.8-10.8-16.2-23.4-16.2-37.8v-91.8H264.6
		c-5.4,0-9-1.8-12.6-5.4c-3.6-3.6-5.4-7.2-5.4-12.6V756c0-30.6,10.8-55.8,32.4-77.4c21.6-21.6,46.8-32.4,77.4-32.4h36V336.6
		c0-14.4,5.4-28.8,16.2-37.8c10.8-10.8,23.4-16.2,37.8-16.2H828c14.4,0,32.4,3.6,50.4,10.8c18,7.2,32.4,16.2,43.2,27l86.4,86.4
		c10.8,10.8,19.8,25.2,27,43.2s10.8,34.2,10.8,50.4v145.8h36c30.6,0,55.8,10.8,77.4,32.4C1182.6,700.2,1193.4,725.4,1193.4,756z"/>
</g>
</svg>
