<?xml version="1.0" encoding="utf-8"?>
<!-- Generator: Adobe Illustrator 18.1.1, SVG Export Plug-In . SVG Version: 6.00 Build 0)  -->
<svg version="1.1" id="Layer_1" xmlns="http://www.w3.org/2000/svg" xmlns:xlink="http://www.w3.org/1999/xlink" x="0px" y="0px"
	 viewBox="0 0 1440 1440" enable-background="new 0 0 1440 1440" xml:space="preserve">
<circle fill="#FFFFFF" cx="720" cy="720" r="702"/>
<g>
	<path fill="#F3724A" d="M1236.6,865.8c0,28.8-7.2,50.4-23.4,70.2c-16.2,18-36,28.8-63,28.8c-14.4,0-27-3.6-39.6-9
		s-23.4-12.6-30.6-19.8s-18-14.4-28.8-19.8c-12.6-5.4-23.4-9-36-9c-37.8,0-57.6,21.6-57.6,64.8c0,12.6,3.6,32.4,9,59.4
		s9,46.8,7.2,59.4v1.8c-7.2,0-12.6,0-16.2,0c-12.6,1.8-28.8,3.6-50.4,5.4c-21.6,3.6-41.4,5.4-59.4,7.2c-18,1.8-34.2,1.8-50.4,1.8
		c-21.6,0-39.6-5.4-54-14.4s-21.6-23.4-21.6-43.2c0-12.6,3.6-25.2,9-36c5.4-12.6,12.6-21.6,19.8-28.8s14.4-18,19.8-30.6
		s9-25.2,9-39.6c0-27-9-48.6-28.8-63c-18-16.2-41.4-23.4-70.2-23.4s-54,7.2-73.8,23.4C586.8,867.6,576,889.2,576,918
		c0,14.4,1.8,28.8,7.2,43.2s10.8,25.2,18,34.2s12.6,18,18,27s7.2,18,7.2,27c0,16.2-7.2,30.6-23.4,46.8c-12.6,12.6-32.4,18-61.2,18
		c-32.4,0-75.6-3.6-126-12.6c-3.6,0-7.2-1.8-14.4-1.8c-7.2,0-10.8-1.8-14.4-1.8l-9-5.4c0,0,0,0-1.8,0h-1.8V563.4c0,0,3.6,1.8,9,1.8
		s10.8,1.8,18,1.8s10.8,1.8,10.8,1.8c52.2,9,93.6,12.6,126,12.6c27,0,48.6-5.4,61.2-18c16.2-14.4,23.4-30.6,23.4-46.8
		c0-7.2-1.8-16.2-7.2-27c-5.4-9-10.8-19.8-18-27c-7.2-9-12.6-19.8-18-34.2c-5.4-14.4-7.2-28.8-7.2-43.2c0-28.8,10.8-50.4,30.6-66.6
		s45-23.4,73.8-23.4c27,0,50.4,7.2,68.4,23.4c18,16.2,28.8,36,28.8,63c0,14.4-3.6,27-9,39.6s-12.6,23.4-19.8,30.6
		s-14.4,18-19.8,28.8c-5.4,12.6-9,23.4-9,36c0,19.8,7.2,34.2,21.6,43.2s32.4,14.4,54,14.4s54-1.8,93.6-7.2s68.4-9,84.6-9v1.8
		c0,0-1.8,3.6-1.8,9s-1.8,10.8-1.8,18s-1.8,10.8-1.8,10.8c-9,52.2-12.6,93.6-12.6,126c0,27,5.4,48.6,18,61.2
		c14.4,16.2,30.6,23.4,46.8,23.4c7.2,0,16.2-1.8,27-7.2s19.8-10.8,27-18c9-7.2,19.8-12.6,34.2-18c14.4-5.4,28.8-7.2,43.2-7.2
		c28.8,0,50.4,10.8,66.6,30.6C1227.6,811.8,1236.6,837,1236.6,865.8z"/>
</g>
</svg>
