<?xml version="1.0" encoding="utf-8"?>
<!-- Generator: Adobe Illustrator 18.1.1, SVG Export Plug-In . SVG Version: 6.00 Build 0)  -->
<svg version="1.1" id="Layer_1" xmlns="http://www.w3.org/2000/svg" xmlns:xlink="http://www.w3.org/1999/xlink" x="0px" y="0px"
	 viewBox="0 0 1440 1440" enable-background="new 0 0 1440 1440" xml:space="preserve">
<circle fill="#FFFFFF" cx="720" cy="720" r="702"/>
<g>
	<path fill="#424755" d="M599.4,574.2c0-18-5.4-32.4-18-45c-12.6-12.6-27-18-45-18s-32.4,5.4-45,18c-12.6,12.6-18,27-18,45
		s5.4,32.4,18,45c12.6,12.6,27,18,45,18s32.4-5.4,45-18C592.2,606.6,599.4,590.4,599.4,574.2z M1130.4,860.4c0,18-5.4,32.4-18,45
		l-244.8,244.8c-12.6,12.6-28.8,18-45,18c-18,0-32.4-5.4-45-18L421.2,793.8c-12.6-12.6-23.4-28.8-32.4-50.4
		c-9-21.6-12.6-41.4-12.6-57.6V477c0-18,7.2-32.4,19.8-45s27-19.8,45-19.8h207c18,0,37.8,3.6,57.6,12.6c21.6,9,37.8,19.8,50.4,32.4
		l356.4,356.4C1125,828,1130.4,844.2,1130.4,860.4z"/>
</g>
</svg>
