<?xml version="1.0" encoding="utf-8"?>
<!-- Generator: Adobe Illustrator 18.1.1, SVG Export Plug-In . SVG Version: 6.00 Build 0)  -->
<svg version="1.1" id="Layer_1" xmlns="http://www.w3.org/2000/svg" xmlns:xlink="http://www.w3.org/1999/xlink" x="0px" y="0px"
	 viewBox="0 0 80 80" enable-background="new 0 0 80 80" xml:space="preserve">
<circle fill="#FFFFFF" cx="40" cy="40" r="39"/>
<g>
	<path fill="#DEA757" d="M33.3,31.9c0-1-0.3-1.8-1-2.5c-0.7-0.7-1.5-1-2.5-1c-1,0-1.8,0.3-2.5,1s-1,1.5-1,2.5c0,1,0.3,1.8,1,2.5
		c0.7,0.7,1.5,1,2.5,1c1,0,1.8-0.3,2.5-1C32.9,33.7,33.3,32.8,33.3,31.9z M62.8,47.8c0,1-0.3,1.8-1,2.5L48.2,63.9
		c-0.7,0.7-1.6,1-2.5,1c-1,0-1.8-0.3-2.5-1L23.4,44.1c-0.7-0.7-1.3-1.6-1.8-2.8c-0.5-1.2-0.7-2.3-0.7-3.2V26.5c0-1,0.4-1.8,1.1-2.5
		c0.7-0.7,1.5-1.1,2.5-1.1h11.5c1,0,2.1,0.2,3.2,0.7c1.2,0.5,2.1,1.1,2.8,1.8l19.8,19.8C62.5,46,62.8,46.9,62.8,47.8z"/>
</g>
</svg>
