<?xml version="1.0" encoding="utf-8"?>
<!-- Generator: Adobe Illustrator 16.0.0, SVG Export Plug-In . SVG Version: 6.00 Build 0)  -->
<!DOCTYPE svg PUBLIC "-//W3C//DTD SVG 1.1//EN" "http://www.w3.org/Graphics/SVG/1.1/DTD/svg11.dtd">
<svg version="1.1" id="Layer_1" xmlns="http://www.w3.org/2000/svg" xmlns:xlink="http://www.w3.org/1999/xlink" x="0px" y="0px"
	 width="600px" height="300px" viewBox="0 0 600 300" enable-background="new 0 0 600 300" xml:space="preserve">
<g>
	<path id="path3486" fill="#010101" d="M221.772,293.714c-1.925-1.038-13.579-7.719-25.898-14.846
		c-25.636-14.831-26.032-15.167-26.498-22.483l-0.263-4.13l-13.401,5.822c-7.371,3.202-20.741,9.18-29.711,13.284l-16.311,7.461
		l-15.178-8.907c-8.348-4.9-15.762-9.573-16.476-10.385c-1.46-1.658-5.161-3.675-5.719-3.115
		c-0.306,0.306-7.162-3.458-27.556-15.125L42,239.71l0.383-5.328c0.21-2.93,0.577-8.817,0.813-13.083l0.43-7.755l188.277-87.471
		c156.641-72.772,188.334-87.71,188.614-88.899c0.273-1.156,1.787-1.942,7.934-4.116c4.179-1.478,7.975-3.205,8.437-3.836
		c0.837-1.145,50.324-21.673,56.86-23.586c6.269-1.835,12.417,0.146,24.598,7.923c3.108,1.986,3.385,2.368,3.57,4.944
		c0.217,3.009,0.324,3.053,3.833,1.572l2.333-0.985l7.405,4.244c4.073,2.334,8.209,5.099,9.191,6.145l1.785,1.9v20.08
		c0,19.914-0.012,20.094-1.461,21.691c-0.873,0.962-12.755,6.887-29.54,14.73l-28.08,13.12v5.799c0,3.19-0.302,6.364-0.671,7.054
		c-1.392,2.601-9.23,5.475-17.384,6.373c-12.02,1.322-23.547-1.918-30.088-8.46c-3.179-3.179-4.757-6.4-5.643-11.517
		c-0.396-2.282-0.831-4.263-0.969-4.4c-0.206-0.206-129.984,73.179-134.662,76.147c-0.803,0.51-1.454,0.701-1.446,0.426
		c0.008-0.276,7.823-5.011,17.368-10.521c15.76-9.1,30.778-17.651,114.413-65.141c23.356-13.263,38.955-22.732,38.955-23.648
		c0-0.172-1.242,0.379-2.76,1.225c-1.518,0.846-53.959,28.683-116.536,61.859c-71.925,38.132-113.48,60.511-112.969,60.835
		c4.322,2.744,26.71-5.118,44.428-15.603c4.312-2.552,8.045-4.64,8.296-4.64s2.185-1.013,4.298-2.252
		c2.113-1.238,3.839-2.043,3.835-1.785c-0.004,0.256-2.268,1.745-5.032,3.307c-17.569,9.932-22.045,12.854-26.459,17.271
		c-5.288,5.293-8.568,11.061-10.916,19.191c-3.909,13.538-9.465,43.141-10.778,57.434c-0.362,3.928-0.945,8.116-1.295,9.307
		c-0.929,3.149-3.672,7.583-6.35,10.261c-2.533,2.534-7.776,6.078-8.991,6.078C225.612,295.602,223.697,294.752,221.772,293.714
		L221.772,293.714z M228.408,292.355c0.246-0.893,0.477-15.887,0.512-33.318l0.065-31.693l-1.392,0.441
		c-1.085,0.345-32.434,13.438-53.957,22.537l-3.083,1.304v3.841c0,4.136,0.909,6.493,3.404,8.823
		c0.869,0.812,12.656,7.892,26.193,15.734c16.635,9.638,25.132,14.21,26.212,14.106
		C227.445,294.028,228.104,293.456,228.408,292.355L228.408,292.355z M198.633,275.686l-2.759-1.606v-9.69
		c0-5.33,0.219-9.666,0.487-9.639c0.268,0.028,1.802,0.851,3.409,1.827l2.921,1.776l0.18,9.535
		C203.071,278.537,203.181,278.335,198.633,275.686L198.633,275.686z M202.366,273.527c0-1.429-0.174-2.597-0.387-2.597
		c-0.618,0-4.158,2.192-4.157,2.574c0.001,0.388,3.297,2.467,4.057,2.56C202.147,276.098,202.366,274.955,202.366,273.527z
		 M202.366,264.335v-4.98l-2.921-1.632l-2.922-1.634v8.378v8.38l2.922-1.766l2.921-1.765V264.335L202.366,264.335z M234.828,288.054
		l2.921-3.102l-2.702,2.35c-1.486,1.293-3.312,2.676-4.058,3.075c-0.746,0.398-1.356,1.018-1.356,1.375
		C229.634,292.846,231.7,291.375,234.828,288.054z M234.936,286.013c4.318-3.902,5.584-7.25,6.729-17.806
		c1.483-13.679,4.46-30.554,7.766-44.022c0.833-3.392,1.664-7.044,1.848-8.115l0.333-1.947l-7.831,0.047l-7.832,0.047l-3.157,3.176
		l-3.157,3.177v34.618v34.617l1.356-0.725C231.736,288.68,233.511,287.3,234.936,286.013L234.936,286.013z M109.576,261.633
		c-0.295-0.295-15.109-8.953-32.919-19.241l-32.382-18.704l-0.521,7.553c-0.474,6.878-0.416,7.629,0.649,8.412
		c2.607,1.918,26.438,15.043,27.088,14.92c1.075-0.204,6.214,2.653,7.762,4.312c0.758,0.814,7.222,4.921,14.363,9.125
		c7.142,4.205,13.569,8.05,14.284,8.544c1.269,0.879,1.309,0.728,1.755-6.742C109.908,265.608,109.872,261.929,109.576,261.633
		L109.576,261.633z M124.457,270.929c19.794-9.143,55.497-24.532,98.685-42.539c3.539-1.475,3.575-1.518,3.982-4.754
		c0.226-1.797,0.625-7.956,0.885-13.688l0.474-10.422l-5.8,3.078c-3.19,1.692-29.507,15.64-58.483,30.994l-52.683,27.918
		l-0.319,2.597c-0.176,1.428-0.449,4.983-0.607,7.902l-0.288,5.306l2.695-1.172C114.479,275.506,119.636,273.156,124.457,270.929z
		 M110.173,256.769c0-3.739-0.042-3.823-4.707-9.335c-17.547-20.732-38.617-32.987-56.72-32.987h-4.857l0.193,3.964l0.193,3.964
		l32.787,19.019c18.033,10.459,32.86,19.046,32.949,19.083C110.101,260.512,110.173,258.845,110.173,256.769z M175.747,226.354
		l52.913-28.06l0.195-3.61c0.107-1.985,0.007-3.61-0.223-3.61c-0.229,0-26.685,13.932-58.789,30.957l-58.371,30.958v3.738v3.737
		l5.681-3.025C120.277,255.774,146.645,241.785,175.747,226.354z M167.307,222.243c30.531-16.157,56.775-30.098,58.321-30.979
		l2.811-1.604l-4.434-4.624c-16.806-17.525-35.214-27.968-50.229-28.494l-4.845-0.169l-60.681,28.225
		c-53.77,25.011-60.388,28.246-58.107,28.408c18.821,1.334,38.769,13.252,55.939,33.422c2.664,3.13,5.039,5.577,5.279,5.441
		C111.6,251.732,136.776,238.401,167.307,222.243z M228.806,220.788c-0.145-1.167-0.266-0.369-0.27,1.773
		c-0.004,2.142,0.115,3.097,0.263,2.122C228.948,223.708,228.951,221.954,228.806,220.788z M234.503,211.441
		c-0.715-0.544-2.102-1.413-3.084-1.931l-1.786-0.941v5.04v5.039l3.084-3.107C235.722,212.513,235.768,212.406,234.503,211.441
		L234.503,211.441z M251.423,212.178c0.736-0.467,1.719-2.119,2.184-3.672c1.702-5.69,7.043-13.934,11.383-17.569
		c0.729-0.609-1.95,0.196-5.955,1.792c-7.987,3.184-18.226,6.131-21.304,6.134c-1.081,0.001-2.621-0.457-3.423-1.019
		c-1.408-0.986-1.492-0.938-2.511,1.461c-0.581,1.364-1.193,3.838-1.361,5.497c-0.27,2.667-0.141,3.068,1.112,3.466
		c0.78,0.247,2.443,1.35,3.696,2.451c1.253,1.101,3.352,2.219,4.664,2.486C243.044,213.846,249.732,213.248,251.423,212.178z
		 M232.991,196.068c1.755-1.098,238.431-126.534,244.473-129.568c2.241-1.126,5.059-2.029,6.33-2.029h2.29v-5.109v-5.109
		l-9.735,3.973c-7.138,2.913-9.737,4.266-9.739,5.071c-0.001,0.604-0.359,1.334-0.796,1.623
		c-0.437,0.289-53.683,28.585-118.324,62.882l-117.531,62.357l-0.152,5.488c-0.145,5.199-0.104,5.381,0.759,3.428
		C231.067,197.941,232.159,196.589,232.991,196.068L232.991,196.068z M346.871,127.016C411.298,92.855,464.01,64.694,464.01,64.437
		c0-0.78-8.493-7.389-14.988-11.662c-7.612-5.007-14.746-8.627-22.328-11.33l-5.857-2.088L296.391,97.199l-124.445,57.842
		l4.011,0.385c9.369,0.903,22.739,6.812,33.227,14.682c3.214,2.412,9.057,7.666,12.985,11.674c3.928,4.009,7.236,7.301,7.352,7.316
		C229.636,189.113,282.444,161.176,346.871,127.016L346.871,127.016z M472.637,118.71c5.35-0.954,13.447-4.314,13.447-5.582
		c0-0.475-0.419-0.568-1.136-0.252c-3.834,1.689-10.327,3.589-14.488,4.241c-6.412,1.003-16.087,0.378-21.058-1.363
		c-5.539-1.939-6.742-2.233-5.519-1.351c1.826,1.318,8.106,3.447,12.66,4.293C462.51,119.803,466.483,119.807,472.637,118.71z
		 M476.491,114.823c2.044-0.573,5.038-1.608,6.654-2.301l2.938-1.259V90.644V70.024l-4.382,4.249
		c-8.796,8.527-16.259,14.147-24.078,18.132c-8.856,4.514-15.905,5.484-21.078,2.904c-2.521-1.257-2.4-1.317-2.4,1.181
		c0,9.11,6.604,16.06,18,18.944C456.986,116.659,471.21,116.303,476.491,114.823z M516.112,86.404l26.456-12.396V55.301
		c0-17.945-0.049-18.686-1.203-18.239c-0.661,0.256-13.072,6.017-27.578,12.801l-26.374,12.336l-0.015,18.735
		c-0.015,17.579,0.055,18.708,1.121,18.3C489.145,98.996,501.561,93.222,516.112,86.404L516.112,86.404z M453.81,93.053
		c7.727-3.216,17.365-10.122,27.547-19.737c4.728-4.465,5.539-6.065,3.804-7.505c-1.698-1.409-5.636,0.389-14.987,6.845
		c-9.259,6.392-20.92,13.606-29.368,18.167c-2.587,1.397-4.705,2.75-4.707,3.008c-0.01,0.983,4.391,1.758,8.541,1.505
		C447.524,95.158,450.576,94.399,453.81,93.053L453.81,93.053z M545.165,53.625c0-14.493-0.175-18.419-0.812-18.207
		c-0.619,0.206-0.852,4.776-0.983,19.294c-0.153,16.935-0.064,18.935,0.812,18.208C545.019,72.225,545.165,69.341,545.165,53.625z
		 M465.255,62.318c-0.149-0.113-2.475-1.981-5.169-4.153c-10.127-8.162-22.315-15.284-32.548-19.018
		c-6.063-2.213-5.729-2.133-5.729-1.356c0,0.323,2.467,1.48,5.483,2.571c10.598,3.835,21.371,10.054,32.455,18.736
		c2.838,2.223,5.299,3.903,5.469,3.733C465.386,62.662,465.403,62.431,465.255,62.318L465.255,62.318z M475.752,57.373
		c5.147-2.118,9.223-4.09,9.056-4.382c-0.583-1.02-8.835-7.179-14.527-10.843c-6.857-4.413-16.607-9.354-22.698-11.502l-4.418-1.558
		l-9.216,3.165c-5.069,1.741-9.608,3.374-10.086,3.628c-0.537,0.287,1.072,1.153,4.221,2.269
		c10.046,3.562,22.011,10.603,33.006,19.423c2.499,2.004,4.716,3.646,4.925,3.648S470.605,59.491,475.752,57.373z M515.625,47.939
		c14.997-7.019,27.811-13.293,28.472-13.944c2.457-2.416,0.988-3.84-11.019-10.683l-5.271-3.004L501.5,32.09l-26.308,11.781
		l5.608,4.253c3.084,2.339,5.823,4.564,6.085,4.944c0.263,0.38,0.482,2.388,0.487,4.462s0.229,3.636,0.497,3.47
		C488.138,60.835,500.628,54.958,515.625,47.939z M496.177,47.248c-5.159-1.968-7.011-5.082-4.579-7.705
		c4.104-4.428,17.04-3.289,19.729,1.737c1.145,2.137,0.758,3.637-1.34,5.202C507.664,48.213,499.846,48.647,496.177,47.248z
		 M508.84,45.951c2.211-1.143,2.568-3.433,0.779-4.994c-4.376-3.817-15.293-4.108-17.566-0.468c-2.054,3.29,3.003,6.29,10.782,6.396
		C505.334,46.92,507.67,46.556,508.84,45.951z M527.413,35.833c-8.886-1.281-12.37-7.35-5.796-10.096
		c3.123-1.305,9.641-1.273,12.838,0.063c8.272,3.457,7.129,8.688-2.274,10.402C531.645,36.3,529.5,36.134,527.413,35.833z
		 M537.033,33.583c2.751-1.803,1.876-4.307-2.256-6.447c-3.395-1.76-11.035-1.709-13.444,0.087
		c-2.341,1.746-2.555,3.047-0.774,4.706C524.059,35.19,533.183,36.107,537.033,33.583L537.033,33.583z M491.904,35.264
		c8.735-3.944,18.742-8.789,22.236-10.768c5.84-3.307,6.354-3.756,6.354-5.556c0-1.29-0.29-1.887-0.852-1.749
		c-1.593,0.392-50.4,22.282-50.411,22.608c-0.027,0.844,4.343,3.164,5.491,2.916C475.437,42.561,483.169,39.207,491.904,35.264
		L491.904,35.264z M493.827,27.482c13.952-6.239,25.368-11.534,25.368-11.768c0-0.399-8.623-5.52-13.634-8.097
		c-1.561-0.803-3.796-1.182-7.142-1.211c-4.84-0.042-5.029,0.022-30.839,10.572c-22.484,9.19-32.702,13.62-27.917,12.104
		c3.577-1.133,4.831-0.981,10.411,1.266c3.201,1.289,8.449,3.768,11.663,5.508c3.214,1.741,6.04,3.122,6.281,3.067
		C468.261,38.871,479.874,33.722,493.827,27.482z M469.854,31.566c-6.338-2.213-9.221-5.296-7.394-7.904
		c1.549-2.212,4.422-3.339,8.497-3.335c4.846,0.004,8.102,0.929,10.562,3c4.649,3.913,0.084,8.777-8.096,8.627
		C471.996,31.928,470.39,31.753,469.854,31.566L469.854,31.566z M481.038,28.904c3.426-3.426-1.787-7.449-9.594-7.404
		c-5.836,0.034-8.541,1.582-8.101,4.637C463.914,30.099,477.689,32.252,481.038,28.904z M497.121,19.271
		c-6.745-2.628-8.799-5.079-6.658-7.946c3.286-4.401,13.961-4.289,18.856,0.197c1.847,1.693,2.202,2.405,1.866,3.743
		c-0.657,2.619-3.363,3.946-8.522,4.179C500.151,19.557,497.657,19.479,497.121,19.271z M508.742,16.812
		c0.75-0.679,1.364-1.729,1.364-2.332c0-2.686-5.294-5.12-11.231-5.166c-8.326-0.062-10.844,4.708-4.136,7.837
		C498.405,18.86,506.7,18.66,508.742,16.812L508.742,16.812z"/>
</g>
</svg>
