<?xml version="1.0" encoding="utf-8"?>
<!-- Generator: Adobe Illustrator 16.0.0, SVG Export Plug-In . SVG Version: 6.00 Build 0)  -->
<!DOCTYPE svg PUBLIC "-//W3C//DTD SVG 1.1//EN" "http://www.w3.org/Graphics/SVG/1.1/DTD/svg11.dtd">
<svg version="1.1" id="Layer_1" xmlns="http://www.w3.org/2000/svg" xmlns:xlink="http://www.w3.org/1999/xlink" x="0px" y="0px"
	 width="600px" height="300px" viewBox="0 0 600 300" enable-background="new 0 0 600 300" xml:space="preserve">
<g>
	<path id="path3790" fill="#010101" d="M301.492,293.988c-29.021-2.724-57.472-11.344-87.312-26.453
		c-25.355-12.84-75.428-42.616-79.484-47.268c-0.331-0.38-2.228-1.93-4.215-3.444c-5.502-4.193-16.554-15.789-20.468-21.475
		c-7.145-10.378-10.29-20.046-9.995-30.716c0.097-3.486,0.6-7.094,1.302-9.334c0.977-3.115,1.146-5.574,1.153-16.753
		c0.006-11.177-0.179-13.92-1.26-18.667c-0.902-3.959-1.242-7.355-1.179-11.774c0.077-5.459,0.343-6.914,2.195-12.031
		c3.261-9.008,7.497-15.356,16.093-24.121c9.617-9.805,20.59-17.577,35.342-25.035c11.766-5.948,22.489-9.959,45.861-17.154
		c34.377-10.584,39.926-13.118,50.804-23.198c0.918-0.851,2.7-1.855,3.959-2.233c2.135-0.64,2.649-0.515,7.513,1.819
		c3.592,1.724,7.216,2.892,11.617,3.744c7.653,1.482,9.42,2.107,10.782,3.812c0.714,0.893,2.991,1.812,7.356,2.968
		c9.485,2.512,22.48,6.51,23.334,7.177c0.414,0.324,0.752,1.069,0.752,1.655c0,1.354,1.56,1.972,3.016,1.192
		c1.949-1.043,3.49-0.678,10.41,2.465c3.711,1.686,9.592,3.947,13.069,5.024c5.604,1.736,9.437,3.753,33.72,17.756
		c21.811,12.577,27.951,16.389,30.108,18.691c1.489,1.591,5.284,4.583,8.43,6.649c3.146,2.065,8.498,5.792,11.893,8.282l6.172,4.526
		v2.661c0,2.393-0.311,2.976-3.085,5.789c-6.561,6.649-12.951,16.336-12.244,18.562c0.495,1.56,4.056,5.55,6.516,7.302l1.839,1.309
		l-1.029-1.468c-1.488-2.125-1.402-9.261,0.156-12.896c1.751-4.084,5.458-9.215,9.568-13.243c3.286-3.221,3.739-3.481,4.721-2.714
		c2.473,1.934,16.013,13.492,22.386,19.111c3.768,3.32,7.17,5.915,7.561,5.764c1.159-0.444,5.239,2.89,10.02,8.188
		c3.058,3.39,6.382,6.225,10.496,8.952c3.312,2.195,6.235,4.151,6.495,4.347c0.711,0.534,0.624,64.102-0.089,65.434
		c-0.721,1.348-1.599,1.792-9.996,5.072c-7.185,2.806-13.972,6.898-18.686,11.267c-1.654,1.532-7.635,8.07-13.291,14.528
		c-13.064,14.916-21.047,21.751-34.791,29.788c-18.682,10.925-44.012,19.812-68.615,24.072
		C335.865,294.433,315.445,295.298,301.492,293.988L301.492,293.988z M342.74,291.966c28.513-3.99,57.957-13.985,78.58-26.674
		c12.797-7.873,19.807-14.17,34.043-30.581c12.543-14.458,16.967-17.949,29.271-23.099c4.022-1.684,7.545-3.069,7.828-3.08
		c0.282-0.012,1.168-0.564,1.966-1.229c1.068-0.89,1.273-1.386,0.779-1.881c-0.495-0.494-1.594-0.267-4.161,0.865
		c-1.919,0.846-4.166,1.732-4.994,1.972c-3.346,0.965-13.186,6.511-16.86,9.503c-2.153,1.753-6.353,6.007-9.333,9.452
		c-20.254,23.416-26.979,29.178-45.94,39.359c-9.676,5.195-26.075,11.971-37.156,15.352c-23.996,7.32-51.035,10.312-74.366,8.229
		c-12.73-1.138-16.427-1.758-30.709-5.155c-28.695-6.824-51.745-17.022-94.538-41.825c-29.245-16.949-41.702-25.454-54.048-36.901
		c-7.787-7.219-15.751-18.036-18.794-25.528c-0.985-2.424-1.789-3.866-1.787-3.204c0.008,2.457,3.494,9.924,7.474,16.008
		c10.95,16.738,28.263,29.995,71.672,54.882c31.386,17.993,47.118,25.617,67.379,32.654c16.794,5.832,39.408,10.779,54.856,12
		C310.768,293.627,336.082,292.898,342.74,291.966z M322.719,289.395c-2.898-0.111-7.641-0.111-10.538,0
		c-2.897,0.109-0.526,0.2,5.269,0.2C323.245,289.595,325.616,289.504,322.719,289.395z M303.457,288.826
		c-0.576-0.15-1.66-0.156-2.409-0.012c-0.749,0.144-0.278,0.267,1.047,0.273S304.032,288.978,303.457,288.826L303.457,288.826z
		 M335.673,288.816c-0.741-0.144-2.095-0.146-3.011-0.009c-0.915,0.139-0.31,0.256,1.346,0.26
		C335.664,289.072,336.414,288.959,335.673,288.816L335.673,288.816z M296.826,288.223c-0.58-0.151-1.528-0.151-2.107,0
		c-0.58,0.151-0.105,0.275,1.054,0.275S297.405,288.374,296.826,288.223z M340.029,287.08c6.416-0.771,21.975-3.539,27.098-4.822
		c0.928-0.231,0.996-0.174,0.301,0.252c-0.496,0.305-2.393,0.904-4.215,1.331c-1.822,0.429-3.004,0.882-2.627,1.009
		c1.672,0.562,23.715-5.974,29.724-8.813c1.49-0.704,2.235-1.146,1.655-0.981c-2.231,0.632-0.909-0.624,1.81-1.717
		c17.341-6.977,30.693-14.794,41.646-24.385c6.87-6.015,9.484-8.811,20.523-21.952c4.471-5.322,9.89-11.105,12.043-12.852
		c6.484-5.259,14.813-9.064,24.236-11.073l3.462-0.737v-26.41v-26.411l-1.655,0.367c-11.245,2.49-18.409,5.774-24.441,11.205
		c-2.359,2.123-7.102,7.717-11.1,13.09c-16.159,21.721-25.77,30.608-44.006,40.7c-26.819,14.842-60.331,23.176-93.12,23.16
		c-17.949-0.01-30.681-1.477-51.554-5.938c-28.62-6.118-50.779-15.032-83.459-33.572c-38.258-21.705-54.917-33.628-68.027-48.687
		c-5.445-6.254-10.584-13.674-12.791-18.463l-1.758-3.816l-0.044,20.285c-0.052,23.533,0.308,26.042,5.081,35.493
		c7.406,14.662,20.962,27.513,45.208,42.856c23.605,14.937,58.953,34.562,75.816,42.091c6.144,2.743,26.902,10.722,27.873,10.712
		c0.236-0.002,3.002,0.7,6.149,1.561c3.146,0.86,7.152,1.957,8.903,2.437c1.75,0.479,3.021,1.131,2.825,1.449
		c-0.197,0.319,0.08,0.58,0.616,0.58c0.536,0,0.838-0.221,0.671-0.491c-0.167-0.269,1.782-0.147,4.33,0.27
		c10.886,1.785,17.687,2.698,23.902,3.208C313.65,288.714,330.068,288.275,340.029,287.08z M370.74,281.563
		c0.33-0.346,3.854-1.64,7.827-2.875c10.134-3.151,10.829-3.34,10.196-2.776c-0.789,0.703-8.521,3.461-12.853,4.583
		c-1.995,0.517-4.11,1.109-4.7,1.318C370.476,282.072,370.328,281.993,370.74,281.563z M341.096,288.243
		c-0.408-0.165-1.221-0.175-1.807-0.022s-0.253,0.287,0.74,0.3C341.023,288.532,341.503,288.408,341.096,288.243L341.096,288.243z
		 M292.31,287.637c-0.414-0.167-1.091-0.167-1.505,0s-0.075,0.304,0.752,0.304C292.385,287.94,292.724,287.804,292.31,287.637z
		 M345.912,287.641c-0.408-0.165-1.221-0.176-1.806-0.022c-0.587,0.153-0.253,0.288,0.741,0.3
		C345.841,287.931,346.32,287.806,345.912,287.641L345.912,287.641z M288.095,287.035c-0.414-0.167-1.092-0.167-1.505,0
		c-0.414,0.167-0.076,0.303,0.752,0.303S288.508,287.202,288.095,287.035z M349.514,287.035c-0.414-0.167-1.092-0.167-1.506,0
		c-0.413,0.167-0.074,0.303,0.754,0.303S349.928,287.202,349.514,287.035z M284.03,286.229c-0.994-0.253-2.349-0.465-3.011-0.472
		c-0.944-0.009-0.878,0.094,0.301,0.472c0.828,0.265,2.183,0.477,3.011,0.471C285.683,286.69,285.652,286.642,284.03,286.229z
		 M353.127,286.433c-0.414-0.167-1.092-0.167-1.506,0s-0.075,0.304,0.753,0.304S353.541,286.6,353.127,286.433z M356.138,285.83
		c-0.414-0.166-1.092-0.166-1.505,0c-0.414,0.168-0.076,0.304,0.752,0.304S356.552,285.998,356.138,285.83z M279.351,285.263
		c-0.2-0.199-0.719-0.221-1.154-0.047c-0.48,0.192-0.338,0.335,0.363,0.363C279.195,285.605,279.551,285.464,279.351,285.263
		L279.351,285.263z M359.438,285.263c-0.201-0.199-0.721-0.221-1.154-0.047c-0.48,0.192-0.338,0.335,0.363,0.363
		C359.281,285.605,359.637,285.464,359.438,285.263L359.438,285.263z M273.931,284.059c-0.2-0.199-0.719-0.221-1.154-0.047
		c-0.48,0.191-0.337,0.335,0.363,0.363C273.776,284.401,274.131,284.26,273.931,284.059L273.931,284.059z M260.245,280.509
		c-2.771-1.066-4.427-1.084-2.107-0.021c0.993,0.455,2.348,0.828,3.011,0.83C261.901,281.319,261.563,281.017,260.245,280.509z
		 M396.934,273.482c0.627-0.388,0.443-0.436-0.603-0.155c-0.828,0.222-1.911,0.654-2.409,0.961
		c-0.627,0.388-0.443,0.435,0.603,0.155C395.353,274.222,396.437,273.789,396.934,273.482z M237.665,272.668
		c-1.656-0.78-3.282-1.414-3.613-1.408s0.753,0.663,2.409,1.461c1.656,0.798,3.282,1.431,3.613,1.408
		C240.404,274.105,239.32,273.447,237.665,272.668L237.665,272.668z M403.217,270.949c12.137-5.607,24.349-12.964,31.652-19.066
		c4.027-3.366,15.31-14.982,20.152-20.75c5.186-6.177,11.005-12.095,14.771-15.023c4.029-3.133,12.398-7.658,16.749-9.059
		c1.761-0.567,3.054-1.177,2.875-1.355c-0.18-0.18-2.026,0.29-4.104,1.042c-11.826,4.284-19.381,10.162-31.355,24.396
		c-10.207,12.133-21.397,22.525-30.529,28.352c-1.49,0.951-7.857,4.368-14.15,7.593
		C397.793,272.963,395.009,274.742,403.217,270.949L403.217,270.949z M231.342,269.971c-0.497-0.32-1.174-0.583-1.505-0.583
		s-0.196,0.263,0.301,0.583c0.497,0.321,1.174,0.584,1.505,0.584S231.839,270.292,231.342,269.971z M219.851,264.925
		c-0.612-0.558-6.573-3.373-6.573-3.104c0,0.366,5.502,3.267,6.272,3.306C219.854,265.142,219.989,265.051,219.851,264.925z
		 M207.858,258.844c0-0.159-1.083-0.842-2.409-1.518c-1.325-0.676-2.409-1.095-2.409-0.93c0,0.164,1.016,0.835,2.258,1.49
		C207.854,259.236,207.858,259.237,207.858,258.844L207.858,258.844z M202.438,255.883c0-0.133-4.945-3.018-10.989-6.412
		c-6.044-3.394-12.141-6.834-13.548-7.646c-1.407-0.811-2.559-1.328-2.559-1.15c0,0.352,26.091,15.286,26.946,15.423
		C202.371,256.111,202.438,256.014,202.438,255.883z M174.409,239.949c-0.314-0.284-7.347-4.669-15.626-9.745
		c-22.844-14.004-33.91-22.854-43.259-34.599c-8.207-10.31-12.389-20.968-13.229-33.721c-0.119-1.809-0.242-0.945-0.307,2.162
		c-0.198,9.438,2.535,17.144,9.758,27.51c9.996,14.347,23.941,25.666,53.36,43.311C173.942,240.167,175.735,241.146,174.409,239.949
		z M331.135,236.856c31.706-1.761,62.206-10.577,86.996-25.15c14.875-8.743,24.206-17.675,38.53-36.875
		c3.829-5.133,8.824-11.137,11.102-13.341c4.979-4.821,12.117-8.82,20.325-11.385c5.114-1.599,5.896-2.031,6.771-3.745
		c0.964-1.885,0.96-1.912-0.145-0.982c-0.625,0.525-4.523,2.118-8.663,3.539c-8.478,2.911-14.455,6.578-19.087,11.71
		c-1.521,1.686-5.561,6.766-8.977,11.289c-14.783,19.582-21.803,26.548-35.939,35.668c-7.385,4.765-19.646,10.773-23.566,11.549
		c-1.35,0.268-0.443-0.911,0.932-1.212c2.976-0.649,14.826-6.562,21.605-10.781c13.332-8.295,21.336-16.293,36.855-36.824
		c10.402-13.765,15.502-17.936,26.835-21.95c12.107-4.291,12.486-4.768,6.652-8.391c-6.22-3.862-10.292-7.125-13.45-10.776
		c-1.638-1.893-4.036-4.388-5.331-5.544l-2.354-2.102l1.65,3.256c0.907,1.791,3.127,4.733,4.932,6.538
		c3.487,3.487,3.976,4.993,0.735,2.267c-2.683-2.257-5.752-6.402-7.141-9.645c-0.644-1.5-1.312-2.728-1.485-2.728
		c-0.567,0,2.687,6.817,4.203,8.807c3.604,4.726,14.731,13.481,17.113,13.467c0.514-0.003-0.285-0.726-1.775-1.606
		c-3.301-1.951-6.129-4.223-6.887-5.536c-0.48-0.829-0.344-0.815,0.903,0.096c5.054,3.693,10.47,6.911,11.178,6.639
		c0.455-0.174,0.827-0.023,0.827,0.338c0,0.36-0.609,0.776-1.354,0.924c-13.616,2.707-19.535,5.315-26.323,11.601
		c-2.31,2.138-8.326,9.221-13.371,15.74c-11.827,15.283-14.185,17.997-20.37,23.442c-19.818,17.445-53.451,31.095-87.914,35.681
		c-34.592,4.603-81.121-2.501-117.951-18.008c-13.632-5.739-30.706-14.831-56.071-29.857
		c-21.239-12.583-31.861-20.184-42.062-30.096c-19.067-18.527-27.366-36.687-23.949-52.405
		c3.608-16.598,20.272-34.871,44.125-48.386c12.901-7.31,21.594-10.703,53.389-20.844c24.285-7.746,34.442-11.513,40.269-14.935
		c4.031-2.366,8.807-6.477,10.128-8.716l1.2-2.032l2.858,1.542c4.997,2.694,13.289,5.141,18.798,5.547
		c2.824,0.208,4.988,0.215,4.807,0.015c-0.181-0.199-2.755-0.762-5.72-1.25c-6.139-1.012-10.801-2.532-14.725-4.801
		c-2.965-1.714-4.797-1.952-6.814-0.886c-1.111,0.587-7.131,5.553-9.963,8.218c-1.039,0.978-10.593,5.8-14.063,7.098
		c-4.124,1.543-22.006,7.315-35.396,11.425c-19.629,6.024-32.22,10.967-43.877,17.225C130.915,60,115.263,73.917,107.153,87.899
		c-5.215,8.992-7.098,19.851-4.957,28.587c1.318,5.381,3.48,10.828,5.448,13.722c0.804,1.183,1.457,2.562,1.451,3.064
		c-0.006,0.503-0.574,0.033-1.264-1.043c-1.833-2.862-1.98-2.39-0.283,0.903c4.765,9.242,16.868,22.871,28.637,32.247
		c12.099,9.64,21.251,15.458,50.626,32.183c25.829,14.706,40.694,21.416,61.69,27.845c21.543,6.597,45.992,10.914,65.936,11.645
		c2.483,0.091,4.923,0.214,5.419,0.273C320.355,237.384,325.43,237.173,331.135,236.856L331.135,236.856z M302.697,234.392
		c-9.833-0.927-22.146-2.881-22.839-3.625c-0.483-0.52-0.04-0.598,1.764-0.311c17.268,2.752,25.46,3.438,40.946,3.425
		c21.566-0.017,41.729-3.298,61.261-9.971c8.658-2.957,10.094-3.383,10.094-2.987c0,0.867-14.442,5.739-24.201,8.163
		c-8.151,2.023-13.8,3.113-23.368,4.508C338.688,234.71,311.377,235.209,302.697,234.392L302.697,234.392z M276.836,230.282
		c-0.187-0.303,0.061-0.49,0.549-0.419c1.29,0.189,1.899,0.968,0.759,0.968C277.611,230.831,277.023,230.584,276.836,230.282
		L276.836,230.282z M264.533,228.063c-6.254-1.368-12.172-3.277-11.838-3.819c0.171-0.277,2.55,0.151,5.286,0.953
		c2.736,0.802,6.058,1.768,7.382,2.146s2.666,0.911,2.981,1.185c0.314,0.273,0.45,0.471,0.301,0.438
		C268.496,228.932,266.646,228.525,264.533,228.063L264.533,228.063z M238.869,220.66c-2.649-0.912-6.172-2.267-7.828-3.01
		c-1.656-0.744-5.314-2.247-8.129-3.339c-9.852-3.822-26.283-12.489-51.183-26.997c-23.361-13.611-39.935-25.825-50.621-37.305
		c-5.348-5.745-12.645-15.531-11.569-15.516c0.258,0.003,1.418,1.378,2.578,3.053c8.192,11.844,22.678,25.038,39.868,36.313
		c14.442,9.475,41.488,25.077,56.498,32.595c8.925,4.47,28.666,12.796,33.398,14.085c1.325,0.361,2.815,0.923,3.312,1.25
		C246.924,222.928,243.875,222.383,238.869,220.66L238.869,220.66z M394.524,220.336c0-0.166,0.542-0.591,1.204-0.945
		s1.205-0.51,1.205-0.344s-0.543,0.591-1.205,0.946C395.066,220.348,394.524,220.502,394.524,220.336z M346.051,229.619
		c29.828-4.059,58.357-14.534,78.019-28.648c9.69-6.957,16.772-14.532,29.15-31.183c6.591-8.866,11.493-14.149,16.337-17.605
		c4.269-3.046,10.189-5.875,14.465-6.911c4.026-0.976,4.261-1.383,1.677-2.907c-3.789-2.236-11.024-8.531-13.144-11.438
		c-1.108-1.519-2.628-4.195-3.376-5.947c-1.439-3.37-5.925-7.691-23.472-22.612l-7.526-6.401l-4.825,4.959
		c-7.195,7.395-10.59,15.351-7.757,18.183c2.426,2.426,10.507,5.033,12.254,3.954c0.353-0.218,1.112-1.861,1.688-3.653
		c1.25-3.884,2.628-4.777,7.371-4.775c2.312,0,4.038,0.409,5.72,1.351c5.334,2.99,5.526,8.642,0.411,12.074
		c-2.33,1.563-3.239,1.776-8.786,2.06c-12.81,0.653-23.801-3.995-27.687-11.71c-2.715-5.391,0.188-12.264,9.509-22.515
		c2.516-2.767,4.574-5.217,4.574-5.446c0-0.716-20.975-15.575-21.986-15.575c-0.2,0-1.363,0.788-2.586,1.751
		c-1.223,0.963-9.132,5.934-17.578,11.047c-30.505,18.468-60.901,38.569-89.127,58.942c-19.74,14.248-59.703,40.576-78.716,51.859
		l-1.951,1.157l-2.264-1.787c-7.035-5.553-31.864-20.089-45.208-26.466c-4.41-2.107-7.933-4.069-7.828-4.359
		c0.518-1.431,27.168-25.658,39.631-36.029c15.24-12.679,30.77-27.599,49.954-47.986c14.845-15.778,40.751-45.281,40.223-45.809
		c-0.113-0.113-1.821,0.228-3.794,0.759c-4.837,1.302-14.208,1.24-17.437-0.118c-3.509-1.476-5.118-3.182-5.118-5.429
		c0-3.153,1.133-5.446,3.715-7.521c7.413-5.958,21.749-6.243,18.606-0.37c-0.932,1.742-4.842,3.558-9.865,4.584
		c-4.195,0.856-4.933,2.003-2.589,4.02c2.129,1.832,4.69,1.818,11.924-0.061c8.2-2.131,23.95-7.919,23.966-8.808
		c0.006-0.392-7.272-2.639-19.565-6.037c-7.017-1.94-9.389-2.333-14.15-2.345c-6.901-0.017-14.139-1.621-19.785-4.385l-4-1.959
		l-2.02,2.257c-4.78,5.344-14.13,10.543-27.787,15.45c-3.809,1.368-14.769,4.925-24.357,7.903
		c-26.584,8.259-38.988,13.185-51.197,20.333c-12.485,7.309-24.127,17.071-31.825,26.686c-7.874,9.835-10.354,15.449-10.973,24.842
		c-0.335,5.09-0.192,6.996,0.852,11.37c4.808,20.131,25.195,40.76,61.68,62.41c53.305,31.632,81.875,42.849,123.562,48.514
		C310.324,231.635,330.32,231.759,346.051,229.619L346.051,229.619z M228.933,190.383c39.308-31.368,80.577-72.046,115.785-114.126
		l7.661-9.155l-4.369-2.52c-2.402-1.386-6.628-3.838-9.391-5.447c-2.764-1.609-5.246-2.927-5.516-2.927
		c-0.597,0-8.695,9.688-8.811,10.538c-0.045,0.331-0.112,1.072-0.15,1.646c-0.102,1.527-3.25,4.817-4.693,4.903
		c-0.806,0.048-5.409,4.709-13.156,13.321c-29.052,32.299-59.575,61.693-89.578,86.269c-7.979,6.535-14.88,12.163-15.336,12.506
		c-0.641,0.483,0.782,1.671,6.288,5.249c3.914,2.543,7.929,5.301,8.923,6.129c0.993,0.826,1.942,1.512,2.107,1.523
		C218.862,198.303,223.469,194.743,228.933,190.383L228.933,190.383z M333.105,80.615c0-1.646,3.678-5.74,5.156-5.74
		c1.391,0,1.652,1.508,0.611,3.521C337.049,81.923,333.105,83.44,333.105,80.615z M336.396,79.629
		c1.998-1.754,2.801-3.551,1.588-3.551c-0.686,0-4.277,4.063-4.277,4.838C333.707,81.827,334.115,81.631,336.396,79.629z
		 M247.299,180.722c3.974-2.491,13.934-9.05,22.132-14.576c15.646-10.546,15.118-10.03,13.207-12.876
		c-0.394-0.586-4.453,2.276-15.827,11.155c-8.414,6.568-18.278,14.069-21.921,16.667c-6.442,4.596-9.372,6.95-6.323,5.081
		C239.396,185.665,243.324,183.212,247.299,180.722L247.299,180.722z M219.262,169.486c15.627-12.734,37.957-33.335,56.962-52.553
		c17.85-18.049,40.386-42.755,41.571-45.575c0.389-0.924,1.953-2.746,3.477-4.05c1.524-1.303,4.547-4.507,6.717-7.118
		c4.461-5.368,4.627-4.594-1.752-8.194c-3.486-1.968-3.577-1.985-4.517-0.839c-0.526,0.644-7.569,8.845-15.649,18.227
		c-29.648,34.426-65.54,69.742-98.212,96.638c-9.107,7.497-16.631,13.848-16.72,14.111c-0.089,0.265,1.787,1.604,4.167,2.976
		l4.328,2.495l4.564-3.781C206.707,179.743,213.486,174.192,219.262,169.486L219.262,169.486z M264.761,164.643
		c6.955-5.509,14.053-11.038,15.775-12.287c7.736-5.609,47.045-47.331,67.315-71.445l8.844-10.523l-1.639-1.41
		c-0.901-0.775-1.842-1.188-2.088-0.918c-0.248,0.271-4.328,5.099-9.066,10.729c-30.152,35.818-65.121,71.152-97.657,98.673
		c-4.223,3.572-7.678,6.614-7.678,6.761C238.567,184.769,252.538,174.326,264.761,164.643L264.761,164.643z M206.925,165.465
		c33.699-27.78,69.012-62.608,99.684-98.312c8.342-9.711,15.075-17.734,14.961-17.829c-0.726-0.604-23.572-13.597-23.666-13.459
		c-0.063,0.094-3.614,4.371-7.89,9.504c-34.708,41.672-77.787,84.03-116.688,114.736c-4.522,3.569-8.222,6.663-8.222,6.875
		s2.777,1.665,6.172,3.229c3.395,1.565,8.746,4.313,11.893,6.106c3.146,1.793,5.907,3.276,6.135,3.297
		C189.533,179.632,197.462,173.266,206.925,165.465L206.925,165.465z M302.596,63.688c-0.418-1.088,1.242-3.542,3.572-5.281
		c1.264-0.944,1.77-1.04,2.461-0.467c1.233,1.024,0.578,2.795-1.809,4.891C304.534,64.838,303.145,65.12,302.596,63.688z
		 M307.171,61.084c1.413-1.986,1.528-2.468,0.585-2.468c-0.936,0-4.156,3.566-4.156,4.601
		C303.6,64.474,305.613,63.27,307.171,61.084z M287.545,55.266c-0.545-1.418,0.669-3.561,3.041-5.371
		c2.3-1.754,3.391-1.6,3.359,0.476c-0.022,1.476-1.343,3.248-3.576,4.801C288.53,56.451,288.006,56.469,287.545,55.266z
		 M291.495,52.875c1.866-2.125,2.34-3.291,1.338-3.291c-0.822,0-4.287,3.744-4.287,4.63
		C288.546,55.551,289.542,55.098,291.495,52.875z M102.291,174.719c-0.192-0.48-0.335-0.338-0.364,0.363
		c-0.026,0.635,0.116,0.99,0.316,0.791C102.443,175.672,102.465,175.153,102.291,174.719z M101.074,168.659
		c-0.167-0.414-0.304-0.075-0.304,0.753s0.137,1.167,0.304,0.753S101.241,169.073,101.074,168.659z M301.039,144.239
		c27.709-19.93,56.749-39.107,87.013-57.459c8.196-4.971,14.903-9.28,14.903-9.576s-0.339-1.145-0.753-1.886
		c-0.414-0.74-0.784-1.423-0.822-1.517c-0.13-0.317-28.156,16.841-43.587,26.685c-19.299,12.311-40.021,26.362-58.972,39.983
		c-8.092,5.818-14.98,10.757-15.307,10.978c-0.675,0.455,1.094,3.514,2.032,3.514C285.869,154.961,292.84,150.137,301.039,144.239
		L301.039,144.239z M302.998,136.196c20.987-15.135,57.407-38.967,85.047-55.651c6.538-3.946,11.89-7.338,11.893-7.537
		c0.004-0.199-6.852-2.309-15.234-4.689l-15.241-4.327l-5.871,3.418c-5.731,3.338-6.103,3.693-15.594,14.926
		c-15.126,17.9-28.323,32.395-44.698,49.094c-9.128,9.308-13.869,14.506-12.043,13.207
		C292.912,143.457,298.196,139.659,302.998,136.196L302.998,136.196z M191.299,144.122c0.6-0.662,0.955-1.204,0.789-1.204
		s-0.792,0.542-1.391,1.204s-0.955,1.205-0.789,1.205S190.699,144.784,191.299,144.122z M190.396,143.219
		c0.778-0.828,1.279-1.506,1.113-1.506s-0.938,0.678-1.715,1.506c-0.778,0.828-1.279,1.505-1.113,1.505
		S189.618,144.046,190.396,143.219z M195.514,140.509c0.6-0.662,0.955-1.204,0.789-1.204s-0.792,0.542-1.391,1.204
		s-0.954,1.204-0.789,1.204S194.915,141.171,195.514,140.509z M194.688,139.455c0.749-0.955,0.728-0.976-0.228-0.228
		c-0.58,0.455-1.054,0.929-1.054,1.054C193.406,140.777,193.901,140.458,194.688,139.455z M226.693,111.922
		c17.793-16.993,42.934-43.942,60.68-65.048c9.414-11.195,9.853-11.742,9.438-11.742c-0.171,0-3.111,3.319-6.533,7.376
		c-9.94,11.787-26.811,30.947-33.004,37.484c-13.768,14.532-35.642,36.221-47.159,46.762c-6.872,6.29-12.495,11.575-12.495,11.744
		C197.622,138.965,215.275,122.827,226.693,111.922L226.693,111.922z M452.657,127.246c2.567-1.586,2.889-2.603,1.286-4.06
		c-2.097-1.907-3.83-2.587-6.945-2.722c-4.216-0.184-5.878,0.92-6.729,4.471c-0.388,1.613-1.016,3.135-1.396,3.382
		c-1.089,0.708,4.352,1.101,8.273,0.598C449.098,128.664,451.577,127.914,452.657,127.246L452.657,127.246z M438.225,127.792
		c0.229-0.37,0.625-1.601,0.881-2.735c0.392-1.737,0.331-1.951-0.384-1.358c-1.386,1.15-6.582,0.296-10.506-1.728l-3.584-1.849
		v1.462c0,2.618,3.727,5.117,9.334,6.259C437.417,128.546,437.762,128.542,438.225,127.792z M455.944,122.083
		c0-3.538-6.625-7.478-11.085-6.593c-2.613,0.518-3.742,1.541-4.249,3.847l-0.438,1.994l1.835-0.949
		c3.598-1.86,12.076-0.348,13.107,2.338C455.64,124.088,455.944,123.854,455.944,122.083z M418.081,111.455
		c1.588-3.12,5.546-8.33,9.915-13.048c2.007-2.168,3.26-4.061,3.26-4.926c0-1.244-0.381-1.028-3.337,1.887
		c-3.604,3.554-8.857,10.771-10.162,13.96C415.7,114.357,415.909,115.726,418.081,111.455L418.081,111.455z M105.918,104.236
		c-0.144-0.749-0.267-0.278-0.274,1.047c-0.006,1.325,0.111,1.938,0.262,1.362C106.057,106.069,106.062,104.985,105.918,104.236z
		 M110.008,91.717c2.887-5.729,11.917-16.386,19.179-22.635c17.757-15.282,33.927-23.244,69.939-34.437
		c28.707-8.922,34.763-11.149,43.169-15.875c5.16-2.901,11.928-8.578,11.928-10.005c0-0.403-0.98,0.353-2.179,1.679
		c-4.754,5.263-16.718,11.473-30.333,15.745c-6.857,2.152-31.725,10.084-39.746,12.679c-33.919,10.971-62.027,31.198-72.21,51.965
		c-1.299,2.649-2.523,5.63-2.719,6.624c-0.324,1.638-0.279,1.608,0.477-0.319C107.972,95.968,109.095,93.529,110.008,91.717z
		 M405.975,75.767c0.621-0.749,0.563-1.131-0.32-2.107c-1.215-1.343-1.444-1.397-2.652-0.634c-0.729,0.461-0.703,0.773,0.165,2.099
		C404.34,76.916,404.913,77.046,405.975,75.767L405.975,75.767z M407.17,73.442c0-0.125-0.474-0.599-1.054-1.054
		c-0.955-0.749-0.977-0.728-0.228,0.228C406.675,73.62,407.17,73.938,407.17,73.442z M320.824,71.367
		c1.473-1.232,2.893-3.673,2.414-4.151c-0.431-0.431-4.584,3.725-4.584,4.588C318.654,72.737,319.354,72.596,320.824,71.367z
		 M404.04,70.462c-0.192-1.314-5.843-3.229-25.915-8.785l-8.27-2.289l0.141,1.86c0.142,1.855,0.16,1.865,8.271,4.107
		c4.471,1.236,11.651,3.292,15.957,4.569C402.561,72.399,404.338,72.497,404.04,70.462L404.04,70.462z M364.567,65.733
		c2.235-1.294,4.065-2.717,4.065-3.163c0-0.445-0.475-1.373-1.055-2.06l-1.054-1.25l-5.118,3.045
		c-2.814,1.675-5.206,3.13-5.313,3.235c-0.106,0.104,0.241,1.033,0.774,2.062C357.964,69.725,357.465,69.846,364.567,65.733z
		 M355.986,68.023c0-0.125-0.473-0.599-1.053-1.054c-0.955-0.749-0.977-0.727-0.229,0.228
		C355.492,68.2,355.986,68.519,355.986,68.023z M352.926,65.602c-0.247-0.237-11.543-6.839-16.81-9.824
		c-1.49-0.845-2.402-1.206-2.026-0.803c0.84,0.901,17.767,10.8,18.535,10.839C352.929,65.829,353.064,65.734,352.926,65.602z
		 M396.602,65.34c-0.314-0.276-11.41-6.735-24.658-14.353c-22.428-12.896-24.583-14-31.311-16.042
		c-13.344-4.049-13.354-4.052-12.158-3.154c1.742,1.307,0.141,1.656-2.59,0.563c-1.449-0.58-2.365-1.299-2.199-1.729
		c0.178-0.466-0.742-0.969-2.525-1.376c-1.543-0.354-2.865-0.583-2.938-0.51c-0.178,0.176,50.223,29.274,50.705,29.274
		c0.208,0,0.21-0.271,0.006-0.602c-0.516-0.833,2.305-0.761,4.209,0.107c0.856,0.391,1.435,1.03,1.284,1.421
		c-0.171,0.444,0.896,0.973,2.837,1.408c1.711,0.383,6.498,1.749,10.637,3.033C395.635,65.782,397.612,66.228,396.602,65.34
		L396.602,65.34z M355.686,49.607c-1.834-0.832-2.174-1.189-1.425-1.499c1.155-0.477,5.339,1.126,5.339,2.047
		C359.6,51.036,358.496,50.881,355.686,49.607z M340.982,41.059c-1.811-0.779-2.465-1.343-2.047-1.761
		c0.674-0.674,5.61,0.985,5.61,1.886C344.546,42.208,343.572,42.174,340.982,41.059z M361.551,61.167l4.057-2.378l-26.767-15.441
		c-14.722-8.493-27.115-15.436-27.541-15.428c-0.427,0.007-3.042,1.327-5.812,2.933c-3.641,2.11-4.811,3.066-4.222,3.449
		c0.448,0.291,12.604,7.342,27.015,15.669c24.721,14.286,26.285,15.097,27.705,14.357C356.814,63.897,359.318,62.475,361.551,61.167
		L361.551,61.167z M333.105,54.143c0-0.354-8.75-5.161-9.393-5.161c-0.599,0,8.268,5.345,8.941,5.39
		C332.902,54.388,333.105,54.285,333.105,54.143z M322.818,48.152c-0.909-0.822-23.606-13.65-23.803-13.454
		c-0.287,0.286,22.678,13.637,23.502,13.663C322.821,48.371,322.957,48.277,322.818,48.152z M291.053,36.438
		c2.207-0.613,4.447-1.55,4.979-2.082s2.319-1.703,3.969-2.602c1.651-0.898,2.913-1.724,2.803-1.833s-2.957,0.73-6.327,1.865
		c-7.595,2.558-15.356,4.18-17.472,3.652c-0.88-0.219-2.074-0.826-2.653-1.349c-0.984-0.887-1.054-0.807-1.054,1.207
		c0,1.533,0.305,2.247,1.054,2.471C278.303,38.349,287.007,37.562,291.053,36.438z M274.215,33.987
		c-0.239-3.302-0.145-3.628,1.317-4.585c2.326-1.524,1.909-2.25-0.685-1.194c-2.444,0.995-6.172,4.583-6.172,5.939
		c0,0.461,0.338,1.106,0.752,1.433c0.659,0.521,3.756,1.781,4.705,1.914C274.32,37.52,274.357,35.941,274.215,33.987z
		 M276.317,26.683c2.255-0.712,5.716-1.369,7.691-1.459c4.03-0.187,5.407-1.264,3.914-3.063c-0.714-0.86-1.571-0.976-5.184-0.704
		c-6.5,0.492-12.649,3.711-14.044,7.353c-1.506,3.934-1.399,4.09,1.09,1.6C271.561,28.633,273.325,27.627,276.317,26.683
		L276.317,26.683z M304.477,30.357c0.191-0.309,0.117-0.703-0.164-0.877c-0.281-0.174-0.512,0.078-0.512,0.561
		C303.801,31.056,303.99,31.145,304.477,30.357z M327.033,29.462c-0.85-0.851-6.491-2.581-7.129-2.187
		c-0.482,0.298,0.535,0.814,2.756,1.396C326.51,29.679,327.416,29.843,327.033,29.462L327.033,29.462z M281.32,27.304
		c0-0.331-0.677-0.602-1.505-0.602s-1.505,0.271-1.505,0.602s0.677,0.602,1.505,0.602S281.32,27.635,281.32,27.304z M284.632,26.702
		c1.009-0.434,0.887-0.524-0.753-0.56c-1.077-0.023-1.957,0.229-1.957,0.56C281.922,27.417,282.969,27.417,284.632,26.702z
		 M314.438,25.498c0-0.754-0.64-0.754-1.806,0c-0.73,0.472-0.645,0.586,0.451,0.593C313.828,26.096,314.438,25.829,314.438,25.498z
		 M282.524,14.711c0.976-0.279-0.761-0.573-4.937-0.836c-7.06-0.444-15.453-2.737-20.747-5.668c-2.026-1.122-2.663-1.3-2.082-0.581
		c1.071,1.327,8.502,4.818,12.411,5.831c1.656,0.429,5.043,0.969,7.527,1.201C280.627,15.212,280.77,15.212,282.524,14.711z"/>
</g>
</svg>
