<?xml version="1.0" encoding="utf-8"?>
<!-- Generator: Adobe Illustrator 16.0.0, SVG Export Plug-In . SVG Version: 6.00 Build 0)  -->
<!DOCTYPE svg PUBLIC "-//W3C//DTD SVG 1.1//EN" "http://www.w3.org/Graphics/SVG/1.1/DTD/svg11.dtd">
<svg version="1.1" id="Layer_1" xmlns="http://www.w3.org/2000/svg" xmlns:xlink="http://www.w3.org/1999/xlink" x="0px" y="0px"
	 width="600px" height="300px" viewBox="0 0 600 300" enable-background="new 0 0 600 300" xml:space="preserve">
<g>
	<path id="path3785" fill="#010101" d="M340.209,292.896c-2.479-0.845-5.819-1.681-7.42-1.857c-4.982-0.553-7.308-1.381-9.282-3.3
		c-1.621-1.573-3.226-2.237-11.283-4.673c-24.369-7.369-37.781-13.642-75.935-35.518c-44.381-25.443-60.531-36.471-87.152-59.499
		c-4.88-4.221-6.648-5.448-7.843-5.448c-1.255,0-2.84-1.253-8.549-6.761c-3.853-3.717-8.245-7.693-9.76-8.835
		c-1.515-1.143-3.03-2.735-3.361-3.541c-0.445-1.073-0.549-12.141-0.39-41.253c0.21-38.39,0.255-39.83,1.239-40.92
		c1.441-1.589,2.993-2.309,10.969-5.079c16.604-5.763,22.619-9.781,32.442-21.656c9.357-11.314,17.68-17.53,37.412-27.951
		C228.957,12,260.015,4.987,296.996,5c27.967,0.009,53.744,3.946,77.944,11.899c13.811,4.541,29.89,12.019,30.012,13.957
		c0.031,0.496,0.09,1.345,0.133,1.886c0.052,0.682,2.609,2.453,8.294,5.742c4.521,2.618,8.764,5.333,9.429,6.038
		c1.393,1.469,4.198,3.035,4.786,2.673c0.221-0.137,5.284,2.575,11.253,6.027c9.524,5.509,10.954,6.183,11.689,5.526
		c1.404-1.252,2.825-0.862,7.181,1.974c17.492,11.386,27.091,23.725,31.585,40.599c1.556,5.846,1.666,6.861,1.694,15.534
		c0.024,8.435-0.102,9.783-1.415,14.845c-1.37,5.297-1.443,6.179-1.443,18.113c0,11.785,0.086,12.894,1.409,18.292
		c1.27,5.182,1.408,6.741,1.423,15.822c0.01,9.198-0.106,10.517-1.362,15.174c-5.075,18.846-17.637,32.504-44.231,48.099
		c-14.147,8.295-23.748,12.557-40.744,18.087c-29.937,9.739-34.657,12.024-45.083,21.831
		C351.155,295.014,348.642,295.767,340.209,292.896z M350.5,292.516c2.854-0.799,3.787-1.46,8.573-6.057
		c10.113-9.718,16.161-12.702,43.7-21.582c14.581-4.701,19.585-6.679,29.692-11.729c12.727-6.363,25.792-14.555,34.088-21.374
		c15.326-12.601,23.454-28.253,23.752-45.737c0.112-6.493-0.354-6.069-0.743,0.673c-1.4,24.479-19.172,43.951-57.783,63.307
		c-9.196,4.609-15.911,7.228-31.125,12.136c-26.009,8.387-31.979,11.378-41.967,21.021c-2.816,2.718-5.366,4.94-5.673,4.94
		c-0.306,0-1.28,0.776-2.166,1.723c-1.413,1.513-1.739,1.644-2.673,1.061c-0.58-0.363-1.519-0.663-2.08-0.663
		c-0.915,0-0.958,0.166-0.421,1.592C346.379,293.686,346.351,293.681,350.5,292.516z M344.982,292.102
		c0-1.183-1.98-2.186-6.097-3.092c-2.042-0.45-5.621-1.634-7.955-2.633l-4.242-1.816l-0.27-39.713l-0.27-39.712l-0.127,38.042
		c-0.103,30.41-0.264,38.043-0.805,38.043c-1.225,0-17.481-4.806-24.51-7.245c-14.546-5.049-31.954-13.262-51.163-24.138
		l-9.81-5.555l-0.265-22.46l-0.266-22.459l-6.628-3.857l-6.628-3.856l-0.139,21.987c-0.09,14.159-0.326,21.984-0.666,21.984
		c-0.89,0-24.097-14.062-33.657-20.391c-14.952-9.901-29.141-20.938-45.863-35.666c-5.228-4.603-6.665-5.629-6.797-4.848
		c-0.094,0.544-0.298,0.99-0.456,0.99c-0.786,0-10.466-7.514-13.933-10.815c-3.118-2.969-3.998-3.562-4.153-2.812
		c-0.257,1.234,0.474,2.076,4.371,5.024c1.762,1.333,5.856,5.132,9.097,8.442c5.131,5.243,6.097,6.006,7.473,5.9
		c1.332-0.101,2.74,0.883,8.951,6.255c25.668,22.182,41.433,33.017,82.665,56.802c33.232,19.172,49.281,27.265,65.897,33.23
		c4.508,1.618,24.183,7.727,24.89,7.727c0.114,0,0.069,0.223-0.099,0.496c-0.169,0.271,0.488,1.101,1.458,1.843
		c1.389,1.06,2.952,1.513,7.312,2.124c3.049,0.429,6.613,1.254,7.92,1.833C343.112,293.039,344.982,293.172,344.982,292.102z
		 M232.046,215.531l-2.383-1.45l-0.148-7.786c-0.094-5.065,0.045-7.787,0.4-7.787c0.298,0,1.731,0.655,3.185,1.458l2.646,1.459
		l0.006,7.82c0.004,5.93-0.153,7.81-0.655,7.777C234.733,217,233.359,216.329,232.046,215.531L232.046,215.531z M234.517,211.936
		c-0.137-0.139-1.009,0.142-1.939,0.622c-1.823,0.942-1.805,1.046,0.396,2.383l1.46,0.891l0.169-1.822
		C234.694,213.007,234.655,212.073,234.517,211.936L234.517,211.936z M234.692,206.195v-4.243l-2.117-1.207l-2.117-1.209v6.659v6.66
		l2.117-1.209l2.117-1.21V206.195L234.692,206.195z M350.989,287.942c2.553-3.703,9.823-10.727,14.068-13.584
		c6.546-4.409,14.771-7.827,34.314-14.262c13.239-4.36,21.186-7.295,26.074-9.624c3.867-1.846,6.946-3.435,6.844-3.538
		c-0.102-0.104-1.952,0.628-4.116,1.625c-5.97,2.752-13.659,5.276-22.748,7.47c-25.777,6.221-26.986,6.582-34.316,10.2
		c-5.511,2.719-10.434,6.539-14.26,11.067c-5.55,6.571-6.33,7.28-8.004,7.28c-1.078,0-2.948-0.95-5.778-2.937
		c-2.299-1.615-5.374-3.538-6.832-4.271c-2.389-1.202-7.742-3.042-8.847-3.042c-0.239,0-0.436,2.146-0.436,4.772v4.771h3.337
		c5.517,0,14.092,2.697,17.004,5.348c0.915,0.831,1.685,1.521,1.709,1.53C349.027,290.756,349.922,289.494,350.989,287.942
		L350.989,287.942z M343.127,287.84c-3.15-1.479-9.742-3.078-11.487-2.789c-0.97,0.16-0.717,0.345,1.149,0.836
		c1.311,0.345,4.176,1.206,6.362,1.909C344.488,289.517,346.751,289.54,343.127,287.84L343.127,287.84z M358.72,281.832
		c9.086-8.794,14.956-11.681,41.669-20.505c18.793-6.208,26.111-9.187,36.583-14.895c26.905-14.662,41.822-28.234,48.01-43.684
		c3.091-7.712,4.659-18.675,3.793-26.511l-0.498-4.506l-0.069,7.763c-0.102,11.379-1.728,18.784-5.958,27.152
		c-6.452,12.772-18.274,23.395-40.22,36.143c-14.121,8.203-23.17,12.004-46.678,19.595c-7.728,2.495-16.364,5.585-19.194,6.863
		c-8.936,4.041-16.653,9.671-21.713,15.835C351.843,288.25,352.992,287.379,358.72,281.832L358.72,281.832z M351.253,282.399
		c0.78-0.808,2.948-3.298,4.82-5.529c8.531-10.182,17.834-14.525,43.52-20.314c18.425-4.154,29.447-8.366,44.802-17.125
		c22.41-12.78,33.853-24.29,39.488-39.734c2.956-8.102,3.226-10.956,3.514-36.977l0.268-23.86l-1.889,3.921
		c-7.822,16.266-20.935,27.383-49.203,41.723c-13.754,6.977-18.617,8.594-44.375,14.772c-17.949,4.307-24.581,7.381-32.093,14.873
		c-2.63,2.624-5.868,6.024-7.191,7.555c-2.853,3.298-4.494,3.589-7.727,1.365c-7.714-5.309-12.31-7.689-16.244-8.41l-1.989-0.364
		v29.417v29.415l3.316,0.927c4.243,1.186,7.624,2.891,12.594,6.351C348.653,284.435,349.173,284.559,351.253,282.399z
		 M325.349,242.647l-0.017-37.512l-5.316-4.507c-2.924-2.479-5.628-4.48-6.009-4.446c-0.382,0.033-7.463,4.72-15.743,10.413
		c-15.246,10.482-31.638,21.143-47.788,31.075c-4.88,3.004-8.996,5.66-9.147,5.904c-0.357,0.574,17.458,10.54,29.955,16.759
		c10.901,5.421,17.948,8.51,27.04,11.852c6.342,2.332,24.495,7.842,26.114,7.927C325.312,280.156,325.363,278.045,325.349,242.647
		L325.349,242.647z M255.146,233.729c7.602-4.732,16.967-10.652,20.812-13.153l6.991-4.549v-20.668V174.69l-11.797,6.812
		c-6.489,3.746-16.092,9.294-21.342,12.326l-9.543,5.514l-0.139,21.887c-0.112,17.495-0.004,21.807,0.53,21.494
		C241.026,242.508,247.544,238.46,255.146,233.729L255.146,233.729z M248.08,177.093c12.756-7.364,23.328-13.527,23.491-13.691
		c0.311-0.308-12.079-8.372-12.859-8.372c-0.232,0-4.479,2.293-9.437,5.092l-9.009,5.091l-2.65-1.44
		c-1.458-0.792-4.859-2.732-7.555-4.312l-4.906-2.873l-0.006-10.72l-0.009-10.718l-13.114-7.255
		c-13.449-7.438-27.885-14.776-28.953-14.715c-1.072,0.059-4.347,4.496-9.641,13.053c-5.907,9.552-9.17,13.888-13.108,17.43
		c-3.249,2.92-9.647,6.772-13.221,7.96l-2.54,0.843v9.221v9.22l-2.115,1.208c-1.164,0.666-2.06,1.356-1.989,1.536
		c0.18,0.457,12.31,10.997,19.548,16.986c17.339,14.346,29.765,23.011,53.122,37.037l11.232,6.744l0.263-21.969l0.268-21.964
		L248.08,177.093L248.08,177.093z M351.667,221.704c1.173-1.239,3.404-3.757,4.958-5.595c5.305-6.271,12.876-10.98,23.128-14.381
		c2.893-0.959,11.215-3.155,18.496-4.878c13.159-3.119,20.7-5.152,20.349-5.486c-0.098-0.097-2.211,0.271-4.689,0.816
		c-2.478,0.545-9.993,1.836-16.7,2.865c-14.231,2.19-20.5,3.75-25.833,6.437c-4.878,2.457-8.481,5.53-12.579,10.734
		c-3.893,4.941-5.409,5.914-9.648,6.187c-4.021,0.259-5.39-0.395-9.996-4.782c-1.897-1.804-5.417-4.744-7.822-6.533l-4.376-3.255
		v4.659v4.661l2.618,0.67c3.748,0.961,9.159,3.674,14.239,7.137c2.418,1.648,4.692,2.999,5.056,2.999
		C349.233,223.959,350.491,222.943,351.667,221.704z M353.475,216.575c0.732-0.346,1.93-1.496,2.652-2.558
		c2.568-3.76,9.756-10.475,13.392-12.508c6.336-3.544,12.159-5.093,27.158-7.228c21.071-2.998,31.276-6.16,47.385-14.68
		c20.951-11.082,31.683-20.395,39.168-33.983c1.004-1.822,1.688-3.313,1.522-3.313c-0.167,0-0.809,0.988-1.425,2.197
		c-6.142,12.036-21.938,24.782-43.591,35.171c-13.878,6.657-22.322,9.159-39.348,11.654c-10.681,1.565-19.668,3.422-24.304,5.022
		c-6.646,2.298-10.019,4.932-19.187,14.986c-2.838,3.117-3.475,3.547-5.717,3.884c-1.389,0.208-3.169,0.249-3.963,0.09
		c-1.244-0.248-1.441-0.116-1.441,0.967c0,1.196,0.145,1.244,3.183,1.091C350.708,217.279,352.741,216.922,353.475,216.575
		L353.475,216.575z M344.374,214.583c-0.384-0.461-2.527-2.233-4.77-3.938s-5.807-5.013-7.927-7.349
		c-2.121-2.337-4.72-4.845-5.773-5.578c-2.006-1.389-2.953-1.707-2.396-0.802c1.086,1.759-1.748-0.291-8.616-6.23
		c-24.008-20.754-39.699-31.708-74.626-52.088c-35.093-20.478-53.156-29.882-69.987-36.442c-5.033-1.961-20.308-6.912-25.094-8.129
		c-1.554-0.397-3.044-1.131-3.312-1.632c-1.121-2.096-3.582-3.149-9.092-3.89c-3.089-0.417-6.881-1.323-8.751-2.097
		c-3.961-1.634-3.855-1.625-3.855-0.316c0,1.435,1.807,2.479,5.425,3.134c1.672,0.304,5.252,1.472,7.953,2.595
		c4.402,1.832,4.941,2.203,5.178,3.598c0.176,1.02,0.629,1.62,1.325,1.74c2.579,0.455,20.902,6.085,27.052,8.313
		c13.543,4.909,28.92,12.31,48.901,23.536l9.674,5.437v10.7v10.698l7.028,4.063l7.023,4.063l0.146-10.566
		c0.077-5.811,0.259-10.566,0.4-10.566c0.645,0,25.214,14.994,32.593,19.889c15.405,10.218,25.895,18.311,43.479,33.535
		c7.708,6.679,9.846,8.281,9.977,7.492c0.094-0.552,0.287-1.004,0.433-1.004c0.715,0,10.98,7.994,14.223,11.073
		c2.924,2.779,3.732,3.31,3.888,2.555C344.98,215.854,344.758,215.045,344.374,214.583L344.374,214.583z M232.557,155.424
		l-2.894-1.729l-0.148-7.64c-0.082-4.203,0.045-7.834,0.277-8.069c0.235-0.233,1.731,0.357,3.33,1.317l2.901,1.743l0.147,8.052
		c0.079,4.43-0.049,8.055-0.29,8.055C235.644,157.152,234.147,156.374,232.557,155.424z M235.229,153.44
		c0-2.413-0.071-2.453-2.171-1.211c-1.911,1.127-1.923,1.5-0.083,2.497C235.082,155.87,235.229,155.786,235.229,153.44z
		 M233.169,151.221l2.061-1.156l-0.006-4.278l-0.005-4.276l-2.086-1.192c-1.15-0.657-2.222-1.194-2.385-1.194
		c-0.16,0-0.29,2.982-0.29,6.628s0.145,6.627,0.324,6.627C230.964,152.379,232.038,151.859,233.169,151.221z M299.119,204.996
		c6.998-4.798,13.056-9.036,13.456-9.417c0.616-0.584,0.416-0.974-1.276-2.462c-4.843-4.266-13.707-11.501-19.216-15.688
		c-5.659-4.298-6.043-4.502-7.289-3.836l-1.316,0.706v20.648v20.648l1.46-0.938C285.737,214.143,292.12,209.794,299.119,204.996z
		 M352.831,213.841c1.005-0.349,2.793-1.996,4.599-4.229c10.054-12.445,16.379-15.239,43.754-19.332
		c19.02-2.842,29.604-6.365,46.128-15.348c29.032-15.785,42.438-34.306,42.604-58.872c0.141-20.788-9.337-38.118-28.138-51.458
		c-6.722-4.765-9.241-6.148-10.169-5.574c-0.455,0.282,0.496,1.153,2.944,2.7c5.493,3.467,12.459,9.145,16.104,13.123
		c18.438,20.11,20.938,49.54,6.09,71.646c-7.362,10.961-19.609,20.321-39.245,29.994c-13.298,6.551-20.779,8.875-35.979,11.174
		c-31.924,4.83-37.831,7.555-49.094,22.64c-1.251,1.676-2.67,3.049-3.158,3.049c-0.486,0-2.068-1.208-3.514-2.687
		c-4.329-4.419-9.268-8.215-13.767-10.579l-4.242-2.229l3.483,3.373c4.418,4.278,12.953,11.656,14.456,12.501
		C347.129,214.54,350.671,214.595,352.831,213.841L352.831,213.841z M352.411,208.476c9.805-12.86,18.76-17.232,42.146-20.576
		c21.644-3.091,30.501-5.799,46.708-14.281c25.278-13.225,37.829-27.035,41.663-45.837c1.434-7.023,1.187-18.475-0.537-25.037
		c-4.118-15.661-13.345-27.355-30.483-38.625c-2.146-1.413-3.019-2.303-2.854-2.917c0.176-0.674-2.259-2.313-10.308-6.946
		c-5.794-3.335-10.846-6.003-11.229-5.927c-1.062,0.204-45.725,17.94-59.47,23.619c-9.919,4.096-26.762,11.32-36.187,15.523
		c-2.203,0.982-2.21,0.635-0.015-0.754c1.438-0.909,1.563-1.14,0.796-1.437c-0.506-0.192-1.932,0.04-3.169,0.518l-2.254,0.868
		l1.327-1.065c0.729-0.584,1.564-1.077,1.854-1.092c0.294-0.014,0.081-0.369-0.47-0.786c-0.703-0.532-1.286-0.604-1.952-0.249
		c-0.522,0.281-1.625,0.752-2.446,1.05l-1.492,0.538L325.365,84c2.07-1.657,33.408-14.869,65.87-27.771
		c16.251-6.46,29.556-11.883,29.56-12.05c0.004-0.168-4.022-2.62-8.947-5.449c-6.471-3.714-9.386-5.11-10.499-5.024
		c-0.98,0.074-3.843-1.003-7.877-2.972c-29.484-14.371-68.26-21.54-107.426-19.864c-35.556,1.522-62.824,9.347-91.435,26.237
		c-11.511,6.795-16.963,11.303-24.554,20.305c-8.31,9.851-12.255,13.066-22.121,18.022c-4.721,2.374-17.735,7.425-19.401,7.532
		c-0.37,0.023,0.999,0.578,3.039,1.231c2.042,0.655,4.447,1.574,5.341,2.043c1.658,0.867,5.529,4.799,5.529,5.614
		c0,0.245,1.969,0.978,4.374,1.632c7.023,1.907,18.674,5.79,26.11,8.701c15.183,5.945,47.46,23.218,80.949,43.316
		c24.56,14.742,45.29,29.803,63.685,46.271c3.328,2.979,4.602,3.783,6.593,4.155c5.842,1.089,14.703,6.61,21.075,13.128
		c1.742,1.778,3.414,3.232,3.719,3.232C349.25,212.292,350.81,210.574,352.411,208.476L352.411,208.476z M262.148,185.742
		c12.167-7.022,22.315-12.95,22.548-13.175c0.408-0.393-10.894-8.522-11.849-8.522c-0.26,0-10.873,5.998-23.589,13.332
		l-23.117,13.332l4.145,2.376c2.283,1.305,5.221,3.043,6.534,3.861c1.312,0.818,2.57,1.505,2.793,1.525
		C239.838,198.489,249.978,192.763,262.148,185.742z M490.094,177.433c-0.133-0.512-0.241-0.093-0.241,0.928
		c0,1.021,0.108,1.438,0.241,0.929C490.227,178.776,490.227,177.942,490.094,177.433z M136.898,163.738
		c-1.384-2.109-6.162-5.362-11.573-7.875l-5.149-2.389v2.24c0,1.933,0.198,2.327,1.458,2.884c3.034,1.344,11.07,7.968,13.386,11.034
		l2.385,3.161l0.159-3.902C137.676,166.052,137.494,164.648,136.898,163.738L136.898,163.738z M489.561,171.897
		c-0.169-0.423-0.296-0.296-0.32,0.32c-0.022,0.56,0.103,0.872,0.277,0.697C489.693,172.737,489.714,172.28,489.561,171.897
		L489.561,171.897z M135.6,171.561c-1.454-2.721-15.052-13.784-14.195-11.55c0.198,0.516,0.359,1.011,0.359,1.098
		s1.354,1.18,3.01,2.429c1.654,1.251,4.655,3.783,6.668,5.632C135.138,172.558,136.58,173.388,135.6,171.561z M143.503,134.848
		V98.952l-1.19-0.317c-0.658-0.178-1.495-0.325-1.858-0.328c-0.525-0.006-0.662,7.764-0.662,37.097v37.106l1.854-0.885l1.856-0.885
		V134.848z M244.123,154.135l0.146-7.997l-1.866-1.102l-1.87-1.105v10.106v10.105l1.723-1.007l1.724-1.005L244.123,154.135z
		 M137.67,133.726v-29.259l-2.654-2.561c-1.744-1.68-4.67-3.555-8.537-5.469c-3.236-1.6-5.976-2.912-6.09-2.912
		c-0.119,0-0.212,13.248-0.212,29.438V152.4l5.597,2.619c5.409,2.534,9.296,5.076,10.738,7.025c0.379,0.517,0.796,0.938,0.927,0.938
		C137.563,162.983,137.67,149.817,137.67,133.726z M252.726,157.175c2.188-1.224,4.182-2.421,4.431-2.661
		c0.363-0.354-10.679-7.437-11.598-7.437c-0.139,0-0.257,3.24-0.257,7.201v7.2l1.726-1.041
		C247.975,159.865,250.539,158.396,252.726,157.175z M150.158,149.269c9.18-4.468,13.57-9.034,22.227-23.135
		c2.867-4.666,6.129-9.531,7.252-10.812c1.123-1.281,2.042-2.502,2.042-2.714c0-0.873-19.209-7.962-31.546-11.642
		c-2.043-0.608-4.132-1.235-4.641-1.394c-0.876-0.27-0.929,1.198-0.929,25.73c0,21.021,0.133,26.015,0.692,26.015
		C145.635,151.318,147.842,150.397,150.158,149.269z M484.789,123.119c-0.167-0.424-0.296-0.296-0.32,0.32
		c-0.022,0.56,0.1,0.872,0.279,0.696C484.924,123.958,484.942,123.502,484.789,123.119L484.789,123.119z M485.345,113.542
		c-0.909-21.731-10.005-36.75-30.681-50.647c-3.656-2.458-4.7-2.832-4.7-1.681c0,0.214,2.802,2.364,6.228,4.78
		c6.991,4.927,15.224,12.835,18.658,17.923c6.007,8.889,9.453,19.335,9.96,30.155c0.163,3.571,0.421,6.495,0.563,6.495
		C485.521,120.568,485.504,117.407,485.345,113.542L485.345,113.542z M137.298,94.592c-0.907-0.776-6.154-2.722-10.601-3.93
		c-2.569-0.697-5.084-1.438-5.595-1.644c-0.776-0.313-0.927-0.082-0.927,1.415c0,1.741,0.151,1.868,5.17,4.346
		c5.982,2.951,10.56,5.945,11.442,7.482c0.516,0.896,0.645,0.38,0.775-3.117C137.649,96.839,137.531,94.791,137.298,94.592
		L137.298,94.592z M136.875,87.388c-0.994-0.75-6.278-2.485-12.081-3.967c-1.397-0.355-2.455-0.899-2.353-1.207
		c0.102-0.307,4.349-2.021,9.431-3.806c19.575-6.875,25.639-10.825,36.208-23.583c2.054-2.481,5.419-6.137,7.473-8.121
		c9.862-9.525,33.318-22.536,52.821-29.297c20.435-7.085,41.749-10.284,68.866-10.338c21.684-0.04,39.243,1.931,59.094,6.636
		c14.289,3.384,31.497,9.649,40.959,14.911c3.336,1.854,4.949,2.262,4.949,1.249c0-0.655-10.642-5.791-17.984-8.677
		c-19.016-7.478-42.558-12.589-67.378-14.628c-9.225-0.758-31.18-0.758-40.029,0c-27.029,2.314-48.276,7.833-69.617,18.083
		c-10.173,4.885-16.41,8.37-23.754,13.269c-7.784,5.194-11.736,8.75-17.801,16.017c-2.964,3.555-6.601,7.633-8.082,9.064
		c-5.582,5.393-13.461,9.608-26.821,14.346c-5.95,2.11-8.555,3.304-9.448,4.325c-1.635,1.872-0.982,2.45,4.147,3.655
		c2.187,0.512,4.437,1.169,4.999,1.46c0.835,0.429,4.38,1.127,6.93,1.364C137.698,88.169,137.459,87.829,136.875,87.388z
		 M350.961,78.229c8.812-3.749,22.464-9.41,30.333-12.58c12.355-4.977,16.077-6.769,27.303-13.128
		c7.15-4.05,12.644-7.244,12.206-7.098c-1.743,0.579-44.922,17.746-54.612,21.712c-15.062,6.168-35.186,14.769-35.719,15.267
		c-0.402,0.38,2.967,2.554,4.053,2.618C334.751,85.033,342.148,81.977,350.961,78.229z M135.007,79.921
		c16.955-6.107,24.03-10.728,33.147-21.653c10.062-12.058,17.431-17.682,35.456-27.062c21.745-11.319,40.597-17.044,66.348-20.154
		c9.617-1.163,33.98-1.601,44.828-0.807c30.936,2.264,57.138,8.817,79.526,19.887c4.32,2.136,5.812,2.659,6.02,2.115
		c0.328-0.858-3.923-3.335-11.345-6.609c-20.279-8.948-41.742-14.147-70.25-17.015c-8.519-0.858-35.379-0.855-43.744,0.006
		c-28.291,2.908-49.31,8.907-70.871,20.228c-18.143,9.529-26.323,15.695-35.433,26.72c-7.555,9.138-12.034,12.849-20.796,17.216
		c-4.835,2.411-16.522,7.01-21.816,8.586c-1.864,0.554-2.124,0.769-1.327,1.09C126.079,83.007,127.232,82.721,135.007,79.921
		L135.007,79.921z M413.875,52.688c5.93-2.341,11.014-4.398,11.3-4.575c0.283-0.176-0.213-0.783-1.106-1.349l-1.624-1.027
		l-9.96,5.602c-5.478,3.081-9.831,5.602-9.674,5.602S407.948,55.028,413.875,52.688z M404.366,31.758
		c0-1.25-1.078-1.474-2.205-0.453l-1.078,0.974l1.244,0.319C403.807,32.977,404.366,32.748,404.366,31.758z"/>
</g>
</svg>
