<?xml version="1.0" encoding="utf-8"?>
<!-- Generator: Adobe Illustrator 16.0.0, SVG Export Plug-In . SVG Version: 6.00 Build 0)  -->
<!DOCTYPE svg PUBLIC "-//W3C//DTD SVG 1.1//EN" "http://www.w3.org/Graphics/SVG/1.1/DTD/svg11.dtd">
<svg version="1.1" id="Layer_1" xmlns="http://www.w3.org/2000/svg" xmlns:xlink="http://www.w3.org/1999/xlink" x="0px" y="0px"
	 width="600px" height="300px" viewBox="0 0 600 300" enable-background="new 0 0 600 300" xml:space="preserve">
<g>
	<path id="path4780" fill="#010101" d="M339.364,294.089c-1.272-0.578-2.706-1.609-3.185-2.292
		c-0.683-0.977-3.257-1.897-12.021-4.306c-31.312-8.604-46.163-15.047-83.105-36.052c-53.374-30.349-68.164-40.594-103.405-71.626
		c-5.548-4.886-10.428-8.884-10.844-8.884c-3.267,0-14.032-10.37-12.812-12.343c0.537-0.869,1.385-0.723,4.653,0.798l2.952,1.375
		v-36.7V87.361l-2.866-1.342c-3.291-1.542-5.315-3.7-4.449-4.745c0.368-0.442,3.525-0.795,9.138-1.021
		c16.653-0.669,33.136-4.612,56.922-13.619c30.499-11.549,63.434-29.336,76.259-41.186c4.21-3.891,6.657-7.153,6.657-8.876
		c0-0.768-0.641-1.739-1.596-2.42c-1.704-1.213-7.416-3.154-10.942-3.719c-2.545-0.407-4.326-2.008-4.326-3.887
		c0-1.979,0.919-2.031,5.622-0.322c2.318,0.843,5.986,1.707,8.15,1.92c5.337,0.525,7.302,1.223,8.946,3.177
		c1.161,1.38,2.818,2.081,9.94,4.206c24.17,7.211,41.112,15.026,76.623,35.343c48.043,27.486,64.815,38.958,94.291,64.489
		c1.727,1.495,4.022,2.883,5.366,3.243c1.85,0.497,3.457,1.771,7.589,6.019c2.882,2.964,7.196,6.888,9.587,8.72
		c4.493,3.443,5.491,4.649,5.491,6.632c0,2.202-2.192,1.237-6.639-2.921c-4.122-3.855-9.304-7.667-11.494-8.459
		c-0.937-0.338-0.98,1.708-0.843,39.907l0.144,40.263l4.497,1.92c2.474,1.056,6.269,2.286,8.433,2.732
		c4.216,0.872,6.091,2.297,5.788,4.401c-0.247,1.723-1.76,1.729-5.96,0.024c-8.157-3.309-23.092-2.287-38.168,2.613
		c-36.474,11.855-85.938,45.546-91.514,62.332c-0.511,1.539-0.766,3.315-0.564,3.948c0.201,0.632,1.736,2.185,3.414,3.452
		c3.048,2.301,3.837,3.993,2.16,4.636C345.524,295.488,341.648,295.127,339.364,294.089L339.364,294.089z M347.163,294.041
		c1.275,0-2.054-2.77-4.696-3.905l-2.756-1.187l-0.005-3.918c-0.003-2.156-0.005-17.833-0.005-34.838s0.002-32.544,0.005-34.529
		l0.005-3.611l3.401,2.271c3.575,2.387,4.632,2.489,3.204,0.309c-2.573-3.927-8.813-9.045-10.322-8.466
		c-0.44,0.168-4.468-2.985-9.57-7.494c-10.598-9.364-24.255-20.996-24.652-20.996c-0.157,0-0.287,0.84-0.287,1.867
		c0,1.658,0.556,2.338,4.919,6.023c2.705,2.285,8.397,7.198,12.648,10.918l7.729,6.764v39.493c0,32.371-0.134,39.494-0.743,39.494
		c-1.118,0-23.097-6.43-27.927-8.17c-13.021-4.691-29.311-12.449-47.926-22.825c-5.641-3.145-10.699-5.992-11.24-6.328
		c-0.911-0.565-0.983-2.318-0.983-23.69v-23.079l-6.311-3.629c-3.471-1.995-6.506-3.712-6.745-3.815
		c-0.24-0.103-0.437,9.953-0.437,22.346c0,20.258-0.09,22.533-0.896,22.533c-0.494,0-6.249-3.204-12.789-7.12
		c-27.482-16.454-42.468-27.399-67.404-49.232l-8.292-7.26v-39.212c0-21.567,0.136-39.349,0.303-39.515
		c0.299-0.299,9.812,2.24,18.529,4.945c2.473,0.768,4.94,1.53,5.481,1.694c0.824,0.25,0.983-0.072,0.983-1.988
		c0-1.258-0.107-2.287-0.239-2.287c-0.132,0-3.484-0.995-7.449-2.212c-3.965-1.217-11.36-3.354-16.433-4.75
		c-7.837-2.156-9.455-2.791-10.759-4.218c-1.751-1.917-7.101-3.743-9.328-3.184c-2.128,0.534-1.361,1.511,2.931,3.734l3.894,2.018
		l-0.105,3.604c-0.058,1.982-0.121,19.254-0.141,38.384l-0.036,34.779l-1.827-1.389c-2.272-1.728-5.497-3.413-5.851-3.06
		c-0.146,0.146,1.23,1.998,3.058,4.117c3.5,4.058,7.601,6.907,8.303,5.772c0.231-0.375,0.537-0.42,0.744-0.11
		c0.193,0.29,5.812,5.313,12.486,11.163c35.071,30.742,49.058,40.349,104.512,71.79c34.233,19.41,49.512,26.015,78.831,34.077
		c11.168,3.07,12.371,3.524,14.18,5.332c1.277,1.277,2.725,2.099,4.093,2.321c1.164,0.19,2.496,0.425,2.959,0.522
		c0.465,0.098,1.181,0.08,1.592-0.037C346.212,294.138,346.825,294.041,347.163,294.041z M230.794,214.761l-2.951-1.692v-7.765
		c0-4.271,0.146-7.911,0.323-8.089s1.691,0.476,3.362,1.452l3.038,1.775l0.012,8.011c0.006,4.406-0.179,8.009-0.411,8.006
		C233.936,216.455,232.418,215.691,230.794,214.761L230.794,214.761z M233.464,212.811c0-1.083-0.139-1.968-0.308-1.968
		c-0.502,0-3.627,1.691-3.627,1.964c0,0.299,2.916,1.916,3.514,1.948C233.275,214.768,233.464,213.892,233.464,212.811z
		 M233.46,205.184l0.004-4.253l-2.248-1.265l-2.248-1.264v6.799V212l2.243-1.281l2.244-1.281L233.46,205.184L233.46,205.184z
		 M344.561,276.265c2.57-3.731,10.964-11.91,17.837-17.38c20.364-16.205,49.784-32.579,70.624-39.306
		c11.306-3.648,16.077-4.474,25.865-4.468c7.735,0.005,9.092,0.15,12.086,1.299c5.387,2.066,6.035,2.128,5.812,0.554
		c-0.157-1.112-0.709-1.459-3.281-2.062c-1.701-0.399-4.735-1.285-6.746-1.971c-3.025-1.031-4.765-1.23-10.118-1.159
		c-16.376,0.219-37.354,7.686-63.027,22.438c-17.464,10.035-30.875,19.905-41.557,30.58c-8.33,8.327-11.24,12.664-11.194,16.682
		l0.024,2.17l0.754-2.114C342.054,280.363,343.369,277.995,344.561,276.265L344.561,276.265z M326.219,242.602v-38.508l-2.312-2.107
		c-4.704-4.284-1.705-5.384-30.312,11.129c-14.058,8.115-31.757,18.282-39.332,22.595c-7.574,4.312-13.951,8.009-14.17,8.215
		c-0.492,0.464,18.988,11.281,31.878,17.702c15.28,7.613,25.794,11.607,46.658,17.727c3.092,0.907,6.064,1.674,6.605,1.703
		C326.163,281.108,326.219,278.923,326.219,242.602L326.219,242.602z M350.879,264.238c21.796-21.48,63.663-45.223,91.144-51.686
		c4.993-1.173,15.933-2.342,18.123-1.935c0.795,0.147,0.639-0.013-0.415-0.428c-2.337-0.919-11.533,0.158-20.173,2.362
		c-30.631,7.82-79.142,37.206-95.438,57.813c-1.807,2.283-3.284,4.662-3.284,5.287c0,0.738,0.808-0.123,2.31-2.466
		C344.413,271.207,347.894,267.18,350.879,264.238z M350.048,262.836c14.323-14.202,37.917-29.735,62.73-41.301
		c14.767-6.882,26.044-10.469,38.379-12.206l6.605-0.931v-4.911v-4.911l-4.909-0.409c-6.319-0.526-15.293,0.445-23.387,2.532
		c-31.086,8.02-73.63,36.602-86.641,58.209c-1.915,3.179-1.99,3.509-1.974,8.679l0.019,5.373l1.184-1.687
		C342.707,270.346,346.304,266.549,350.048,262.836z M350.485,247.422c14.313-15.415,38.82-32.022,61.437-41.632
		c15.312-6.507,31.178-9.757,41.765-8.555l4.076,0.463v-30.2v-30.202l-4.315-0.405c-21.569-2.021-53.71,10.75-83.882,33.331
		c-8.563,6.409-21.977,19.812-25.463,25.443c-2.545,4.109-2.599,4.289-2.094,7.026c0.702,3.803,1.847,6.547,4.178,10.008
		c3.341,4.961,2.302,6.234-2.618,3.207l-2.733-1.682v22.862v22.861l2.85-4.135C345.251,253.54,348.312,249.764,350.485,247.422z
		 M265.246,228.385c40.576-23.278,53.104-30.586,53.104-30.98s-16.11-14.261-16.937-14.576c-0.27-0.104-0.49-1.653-0.49-3.445
		c0-3.155,0.075-3.319,2.389-5.189c1.314-1.062,5.82-4.255,10.013-7.096c6.927-4.691,7.863-5.162,10.259-5.162
		c2.428,0,2.636-0.11,2.636-1.386c0-1.918,2.724-4.835,6.286-6.733c7.122-3.797,16.148-11.801,21.813-19.341
		c1.545-2.057,2.812-3.907,2.813-4.112c0.004-0.204-2.84,1.285-6.318,3.311c-5.743,3.345-6.789,4.221-11.384,9.546
		c-6.207,7.193-10.053,10.453-15.178,12.867c-3.729,1.756-10.916,3.599-14.03,3.599c-1.239,0-1.427,0.242-1.417,1.827
		c0.01,1.605-0.819,2.629-6.835,8.433c-3.765,3.633-7.147,6.605-7.517,6.605s-2.354-1.275-4.411-2.832l-3.74-2.832l-23.607,13.635
		l-23.608,13.635v22.363c0,12.301,0.198,22.364,0.441,22.364C239.77,242.885,251.344,236.36,265.246,228.385z M223.346,211.755
		v-22.698l24.147-13.936c13.281-7.665,24.03-14.126,23.888-14.357c-0.404-0.654-13.95-9.113-14.612-9.125
		c-0.323-0.006-4.023,1.93-8.223,4.3c-4.2,2.37-7.896,4.311-8.215,4.311c-0.319,0-3.912-1.915-7.985-4.256
		c-6.552-3.765-7.578-4.19-8.905-3.696c-0.825,0.309-4.076,1.695-7.224,3.084c-10.299,4.541-24.346,9.099-35.595,11.55
		c-11.185,2.438-16.395,3.013-28.511,3.15c-11.103,0.126-15.423,0.662-15.302,1.9c0.019,0.194,3.061,2.986,6.76,6.205
		c17.484,15.211,30.646,25.54,43.799,34.375c7.062,4.743,34.769,21.769,35.556,21.849
		C223.156,234.434,223.346,224.238,223.346,211.755L223.346,211.755z M341.375,205.215c-2.311-6.693-1.006-16.813,3.198-24.815
		c12.033-22.898,48.579-49.793,78.586-57.833c12.772-3.421,23.931-3.412,33.735,0.03l4.521,1.588l-2.382-2.135
		c-3.042-2.725-7.673-3.954-16.45-4.366c-17.579-0.825-39.553,6.882-61.836,21.686c-28.079,18.656-44.52,40.147-44.357,57.982
		c0.049,5.188,0.93,7.503,3.602,9.451c1.237,0.903,2.293,1.608,2.349,1.57C342.396,208.333,341.961,206.912,341.375,205.215
		L341.375,205.215z M336.148,203.394c-0.156-0.386-0.284-0.069-0.284,0.703c0,0.773,0.128,1.089,0.284,0.703
		C336.304,204.413,336.304,203.78,336.148,203.394z M334.375,198.616c0.001-4.761,0.279-6.934,1.315-10.235
		c4.519-14.424,16.473-29.149,35.249-43.429c10.419-7.923,27.378-17.513,39.038-22.077c12.31-4.818,25.987-7.164,35.649-6.112
		l5.009,0.545l-2.479-2.207c-21.676-19.286-42.73-34.118-76.122-53.624c-49.849-29.121-66.135-36.906-95.565-45.684
		c-2.164-0.646-4.416-1.322-5.003-1.503c-0.839-0.259-0.989-0.122-0.697,0.638c0.633,1.652-0.672,5.096-3.267,8.621
		c-6.779,9.208-33.769,26.192-60.9,38.324l-4.657,2.083l5.501,0.344c3.025,0.189,6.746,0.68,8.268,1.092
		c2.611,0.707,3.024,0.658,7.309-0.859c14.984-5.307,25.077-7.415,33.491-6.996c8.204,0.408,12.428,2.355,14.348,6.613
		c2.04,4.523-0.207,8.363-6.731,11.501c-4.645,2.234-8.656,2.589-11.895,1.053c-4.916-2.333-1.229-7.522,5.344-7.522
		c1.74,0,2.482-0.326,3.403-1.496c1.592-2.024,2.072-4.116,1.088-4.739c-1.181-0.748-5.462-0.608-10.694,0.349
		c-5.151,0.942-22.415,5.876-22.396,6.401c0.006,0.18,2.465,1.713,5.463,3.406c11.501,6.495,23.234,16.848,32.824,28.965
		c3.801,4.801,4.424,5.931,4.424,8.016c0,0.894,2.006,5.906,4.456,11.139c4.269,9.116,4.572,9.59,7.252,11.323
		c3.752,2.425,5.156,4.315,5.156,6.938c0,3.161-1.979,5.084-10.229,9.934c-3.986,2.343-7.046,4.436-6.801,4.653
		c0.246,0.215,3.16,2.22,6.476,4.455c3.315,2.233,8.352,5.805,11.19,7.934l5.162,3.871l4.947-4.516
		c7.217-6.589,8.46-8.133,8.258-10.254l-0.171-1.775l4.217-0.665c12.756-2.014,16.548-4.242,26.917-15.813
		c8.47-9.453,12.994-16.642,12.995-20.651c0-2.641-0.837-3.07-5.874-3.008c-6.057,0.075-7.292,0.46-7.513,2.343
		c-0.366,3.135-5.586,5.444-9.762,4.319c-2.088-0.562-5.521-3.327-5.521-4.446c0-1.586,2.999-4.458,6.481-6.208
		c3.877-1.947,3.995-1.967,11.226-1.967c6.28,0,7.791,0.183,10.739,1.302c9.312,3.536,12.174,10.605,7.898,19.513
		c-4.112,8.567-15.537,20.171-24.821,25.21c-4.695,2.55-6.567,4.393-6.966,6.862l-0.356,2.203l-3.365,0.31
		c-3.139,0.289-3.896,0.677-11.236,5.758c-4.328,2.995-8.457,5.907-9.177,6.471l-1.308,1.021l10.583,9.036
		c8.241,7.037,21.817,19.008,21.828,19.247C334.373,204.642,334.375,201.939,334.375,198.616L334.375,198.616z M335.604,200.313
		c-0.143-0.548-0.268-0.236-0.28,0.691c-0.011,0.928,0.105,1.375,0.26,0.995C335.736,201.619,335.746,200.86,335.604,200.313
		L335.604,200.313z M261.908,184c12.773-7.344,23.236-13.503,23.25-13.688c0.037-0.503-11.578-8.377-12.358-8.377
		c-1.314,0-47.775,27.199-47.29,27.685c0.488,0.488,12.537,7.655,12.953,7.704C238.584,197.339,249.134,191.343,261.908,184z
		 M345.698,191.749c13.094-17.466,45.687-39.885,72.298-49.73c12.588-4.658,27.704-7.213,35.994-6.086l3.815,0.519l-0.162-4.492
		l-0.162-4.492l-2.914-0.989c-11.403-3.87-27.051-2.441-42.799,3.908c-19.059,7.684-37.25,19.715-51.659,34.164
		c-10.603,10.633-16.782,21.105-18.358,31.114l-0.31,1.968l0.962-1.386C342.933,195.484,344.414,193.46,345.698,191.749z
		 M349.975,174.746c3.263-4.574,13.285-14.806,19.53-19.941c20.747-17.056,45.219-28.93,64.164-31.132
		c10.194-1.185,18.236,0.133,26.831,4.398c4.195,2.083,6.427,3.691,10.691,7.706c4.486,4.224,5.425,4.885,5.606,3.951
		c0.155-0.801-0.627-1.845-2.738-3.652c-1.625-1.391-4.659-4.088-6.74-5.993c-4.171-3.818-6.352-5.079-11.806-6.83
		c-10.312-3.311-20.786-3.079-34.007,0.752c-29.063,8.422-63.611,34.026-75.608,56.032c-1.229,2.258-2.234,4.356-2.231,4.666
		c0.003,0.309,0.841-0.989,1.863-2.885C346.552,179.921,348.553,176.739,349.975,174.746L349.975,174.746z M307.142,163.557
		c0.289-0.542,0.526-1.712,0.526-2.602v-1.617l-3.232,3.028c-1.777,1.665-4.687,4.311-6.465,5.879
		c-2.907,2.567-3.232,3.075-3.232,5.074v2.22l5.938-5.497C303.941,167.018,306.851,164.1,307.142,163.557z M291.834,169.636
		c-1.03-0.866-6.15-4.535-11.378-8.151c-5.228-3.617-10.475-7.427-11.662-8.466c-3.552-3.112-3.85-4.985-3.85-24.237v-16.648
		l-4.678-5.877c-10.794-13.559-23.837-24.402-36.358-30.225c-7.589-3.529-11.947-4.627-19.816-4.993l-7.167-0.333v18.447
		c0,23.481,0.507,22.584-9.955,17.63c-7.21-3.414-17.474-7.808-18.239-7.808c-0.299,0-0.465,0.924-0.37,2.053l0.175,2.054
		l7.589,3.17c8.841,3.694,26.665,12.723,40.069,20.297l9.398,5.311l0.005,9.557l0.006,9.556l7.021,4.053l7.023,4.051v-8.937
		c0-4.935,0.234-9.083,0.525-9.263c1.149-0.71,34.268,20.113,47.257,29.714l5.902,4.363l0.187-1.871
		C293.674,171.535,293.383,170.938,291.834,169.636L291.834,169.636z M232.48,150.606l-2.951-1.709v-8.424
		c0-4.634,0.192-8.341,0.428-8.237c0.234,0.103,1.753,0.923,3.373,1.822l2.945,1.635v8.343c0,4.588-0.189,8.328-0.422,8.311
		C235.622,152.33,234.104,151.546,232.48,150.606L232.48,150.606z M235.15,148.453v-2.24l-1.967,0.938
		c-1.082,0.516-1.967,1.082-1.967,1.256c0.001,0.348,2.837,2.151,3.513,2.233C234.961,150.669,235.15,149.684,235.15,148.453z
		 M233.151,146.139l1.999-1.18v-4.338v-4.338l-2.248-1.264l-2.249-1.264v6.782c0,3.73,0.112,6.782,0.249,6.782
		C231.04,147.319,232.051,146.788,233.151,146.139z M138.602,169.837l1.546-0.774v-36.946V95.17l-1.265-0.339
		c-0.696-0.186-1.581-0.342-1.968-0.346c-0.555-0.006-0.703,8.018-0.703,38.265c0,21.051,0.19,38.181,0.422,38.068
		C136.866,170.705,137.751,170.264,138.602,169.837L138.602,169.837z M163.758,168.669c11.262-1.169,21.91-3.472,34.124-7.376
		c7.051-2.254,20.295-7.413,24.376-9.495l2.212-1.129v-9.162v-9.161l-8.79-4.964c-13.141-7.421-29.752-15.831-39.555-20.026
		l-8.713-3.729l-0.17-2.587l-0.17-2.586l-3.039,1.49l-3.04,1.491l-4.098-1.256c-3.669-1.125-4.715-1.21-10-0.809l-5.903,0.448
		l-0.145,34.392l-0.145,34.393l1.269,0.243C144.471,169.327,158.52,169.213,163.758,168.669L163.758,168.669z M243.161,158.032
		l1.546-0.775v-6.641v-6.641l-1.657-0.858c-0.913-0.472-1.798-0.857-1.968-0.857s-0.31,3.815-0.31,8.479
		c0,4.664,0.189,8.388,0.422,8.274C241.426,158.899,242.312,158.458,243.161,158.032L243.161,158.032z M321.585,156.311
		c4.854-1.706,8.425-4.383,14.352-10.762c7.729-8.32,11.432-13.117,13.644-17.683c2.54-5.239,2.657-8.071,0.143-3.437
		c-2.191,4.04-9.281,12.614-15.772,19.075c-5.937,5.909-10.456,8.334-18.131,9.732c-2.782,0.507-5.651,1.038-6.375,1.18
		c-0.905,0.179-1.213,0.528-0.983,1.125c0.183,0.476,0.332,1.442,0.332,2.147v1.281l4.803-0.77
		C316.237,157.776,319.832,156.927,321.585,156.311L321.585,156.311z M255.23,150.861c0.113-0.357-7-4.886-8.948-5.697
		c-0.248-0.103-0.45,2.378-0.45,5.514v5.701l4.628-2.533C253.006,152.452,255.152,151.109,255.23,150.861L255.23,150.861z
		 M276.079,149.763c7.442-4.339,7.099-3.96,5.415-5.96c-0.787-0.935-1.575-2.424-1.752-3.308s-0.551-1.608-0.829-1.608
		c-0.591,0-12.189,6.704-12.518,7.234c-0.691,1.119,2.425,6.819,3.728,6.819C270.401,152.94,273.082,151.511,276.079,149.763
		L276.079,149.763z M273.753,140.577l5.153-2.993l-1.291-2.862c-0.709-1.575-3.1-6.74-5.312-11.481l-4.021-8.618l1.143-1.848
		c0.628-1.017,1.142-2.658,1.142-3.648c0-1.545-0.179-1.774-1.265-1.62c-0.785,0.111-1.638,0.925-2.248,2.147
		c-0.869,1.741-0.982,3.899-0.983,18.756l-0.001,16.789l1.265-0.815C268.03,143.937,270.918,142.223,273.753,140.577
		L273.753,140.577z M287.103,141.416c1.061-2.13,1.061-2.192,0-4.172c-0.847-1.58-1.468-2.049-2.904-2.187
		c-1.353-0.131-1.827,0.05-1.827,0.698c0,0.481-0.505,1.19-1.124,1.577c-1.362,0.85-1.403,1.622-0.213,3.973
		c1.631,3.221,2.476,3.891,3.819,3.026C285.498,143.916,286.51,142.604,287.103,141.416L287.103,141.416z M281.81,135.742
		c0-0.162-1.553-3.631-3.45-7.71c-1.898-4.078-4.313-9.289-5.366-11.579c-1.88-4.085-1.933-4.14-2.796-2.908
		c-0.836,1.192-0.617,1.819,4.326,12.43c4.675,10.034,5.312,11.118,6.246,10.618C281.342,136.287,281.81,135.904,281.81,135.742z
		 M356.196,129.483c2.377-1.487,4.025-4.609,3.513-6.654c-0.447-1.78-2.771-4.417-5.107-5.795l-1.961-1.157l-0.014,3.776
		c-0.016,4.301-1.425,8.324-4.468,12.746l-1.897,2.76l3.892-2.166C352.295,131.802,355.014,130.223,356.196,129.483L356.196,129.483
		z M283.215,133.827c-0.191-0.309-0.601-0.562-0.909-0.562c-0.31,0-0.406,0.253-0.215,0.562c0.19,0.309,0.601,0.562,0.91,0.562
		C283.309,134.39,283.405,134.136,283.215,133.827z M359.957,118.4c-1.446-5.165-7.074-8.819-15.141-9.831
		c-8.083-1.013-15.315,0.769-19.305,4.756c-1.674,1.674-1.889,2.502-0.905,3.485c0.472,0.472,1.157,0.309,2.67-0.638
		c3.973-2.487,7.282-3.257,15.316-3.559c7.225-0.272,7.727-0.222,8.834,0.887c0.647,0.646,2.146,1.788,3.334,2.537
		c1.187,0.75,2.902,2.237,3.812,3.305c0.912,1.068,1.755,1.862,1.875,1.765C360.567,121.01,360.347,119.792,359.957,118.4
		L359.957,118.4z M335.599,118.352c0.73-0.478,1.302-1.415,1.302-2.133c0-0.704,0.304-1.583,0.675-1.954
		c0.883-0.883,0.239-0.852-3.744,0.186c-3.351,0.873-7.612,2.94-7.612,3.693C326.219,119.79,333.168,119.944,335.599,118.352
		L335.599,118.352z M268.205,106.762c1.062-0.743,0.956-0.958-2.511-5.136c-3.479-4.194-3.665-4.328-4.838-3.506
		c-1.602,1.122-2.096,1.078-2.096-0.184c0-0.571,0.534-1.275,1.185-1.566c1.086-0.484,0.655-1.037-5.109-6.562
		c-3.463-3.317-7.157-6.689-8.211-7.493c-1.813-1.383-1.987-1.413-3.292-0.558c-1.698,1.113-2.533,0.189-1.18-1.306
		c0.88-0.972,0.729-1.158-2.896-3.565c-7.751-5.148-13.555-7.557-14.506-6.019c-0.679,1.098-1.526,0.558-1.195-0.761
		c0.297-1.18,0.036-1.419-2.407-2.208c-1.507-0.487-4.787-1.325-7.29-1.863c-3.774-0.811-4.814-0.857-6.104-0.27
		c-1.564,0.713-2.234,0.68-1.976-0.099c0.078-0.232-1.211-0.422-2.864-0.422c-3.207,0-4.309,0.7-5.315,3.374l-0.529,1.404
		l6.814,0.096c7.599,0.106,12.444,1.27,20.087,4.819c12.693,5.896,26.949,17.74,37.255,30.954l3.862,4.951l1.004-1.652
		C266.646,108.281,267.596,107.188,268.205,106.762L268.205,106.762z M195.52,107.968c0.19-0.309,0.095-0.562-0.215-0.562
		s-0.719,0.253-0.909,0.562c-0.191,0.309-0.095,0.562,0.214,0.562C194.919,108.53,195.328,108.277,195.52,107.968z M194.142,107.111
		l1.659-0.858v-9.092c0-7.072-0.15-8.943-0.675-8.418c-0.371,0.371-1.73,0.675-3.021,0.675c-1.29,0-3.389,0.368-4.663,0.817
		c-4.53,1.599-17.5,7.211-17.5,7.572c0,0.203,2.34,1.355,5.2,2.562c2.86,1.207,7.729,3.407,10.821,4.889
		c3.092,1.482,5.824,2.698,6.071,2.703S193.229,107.583,194.142,107.111L194.142,107.111z M175.526,93.071
		c6.512-3.474,8.549-4.829,8.953-5.958c0.444-1.239,0.958-1.512,3.393-1.8c1.578-0.187,4.008-0.844,5.399-1.459
		c2.394-1.059,2.53-1.241,2.53-3.379v-2.26l-2.671,1.146c-1.468,0.63-3.872,1.289-5.34,1.463c-2.04,0.243-2.671,0.548-2.671,1.294
		c0,1.369-0.126,1.448-12.507,7.844l-11.103,5.735v2.189v2.189l2.793-1.254C165.838,98.133,170.889,95.545,175.526,93.071
		L175.526,93.071z M148.237,98.361l2.311-0.052l-3.373-1.058c-6.347-1.991-6.465-1.99-6.465,0.068v1.807l2.608-0.357
		C144.752,98.573,146.966,98.389,148.237,98.361L148.237,98.361z M172.548,89.104c6.43-3.334,11.447-6.273,11.447-6.706
		c0-1.255,1.657-2.537,3.272-2.531c0.828,0.004,3.087-0.549,5.02-1.228l3.514-1.234l0.024-3.409c0.014-1.875,0.39-4.421,0.835-5.658
		c0.445-1.237,0.813-2.282,0.818-2.323c0.005-0.041-3.723,1.436-8.283,3.281c-18.386,7.441-39.419,13.625-52.647,15.48l-6.887,0.965
		l10.443,2.934c5.744,1.614,12.719,3.68,15.502,4.592c2.783,0.912,5.157,1.685,5.277,1.716
		C161.002,95.013,166.251,92.368,172.548,89.104L172.548,89.104z M187.087,89.593c8.623-2.713,8.417-2.609,8.618-4.349
		c0.158-1.37,0.035-1.539-0.844-1.16c-3.099,1.338-6.831,2.487-8.135,2.503c-1.104,0.013-1.575,0.375-1.836,1.414
		c-0.206,0.823-1.214,1.876-2.45,2.563c-1.154,0.641-1.593,1.003-0.975,0.804S184.613,90.372,187.087,89.593z M139.023,83.441
		c39.022-6.39,106.726-37.858,126.094-58.608c3.129-3.352,4.873-6.821,4.837-9.62c-0.024-1.918-0.043-1.901-0.734,0.665
		c-1.021,3.792-4.555,8.121-10.556,12.93c-29.509,23.65-95.712,51.793-127.625,54.254c-3.344,0.258-4.383,0.535-4.383,1.17
		C126.656,85.179,129.539,84.995,139.023,83.441L139.023,83.441z M137.899,81.195c45.715-7.331,126.421-47.975,130.414-65.677
		c0.64-2.837,0.176-4.031-1.962-5.045c-3.172-1.505-3.741-1.209-2.397,1.243c3.143,5.737-2.18,12.317-18.965,23.446
		c-12.333,8.178-33.6,19.507-47.501,25.307c-2.01,0.838-5.299,2.292-7.309,3.231c-5.25,2.453-22.483,8.514-32.329,11.37
		c-10.784,3.129-22.026,5.328-29.428,5.755c-5.266,0.304-5.696,0.409-4.497,1.1C125.422,82.787,129.205,82.589,137.899,81.195
		L137.899,81.195z M261.572,75.811c2.65-0.776,6.848-3.48,7.8-5.025c0.717-1.163,0.605-1.411-1.523-3.397
		c-3.014-2.811-4.028-2.802-4.028,0.037c0,2.547-1.16,5.607-2.623,6.915c-0.566,0.506-2.548,1.119-4.403,1.362
		c-2.919,0.382-3.146,0.491-1.687,0.814C256.892,76.91,258.366,76.749,261.572,75.811z M258.344,74.5
		c2.443-0.363,3.672-1.868,4.181-5.121l0.34-2.167l-1.083,1.312c-0.82,0.994-1.91,1.409-4.509,1.715
		c-3.786,0.446-6.382,1.805-6.382,3.339c0,1.692,1.003,2.217,3.26,1.708C255.295,75.026,257.183,74.673,258.344,74.5z
		 M232.59,66.913c6.866-2.199,19.078-4.862,24.578-5.359c4.146-0.375,4.364-0.334,5.787,1.089c0.813,0.813,1.701,1.479,1.972,1.479
		c0.272,0,1.651,0.884,3.067,1.964l2.572,1.963v-1.691c0-2.526-2.943-5.375-7.027-6.802c-4.803-1.678-16.105-1.278-24.056,0.852
		c-5.643,1.511-17.704,5.291-18.611,5.832c-0.56,0.333,3.864,2.229,5.419,2.321C226.828,68.591,229.663,67.85,232.59,66.913
		L232.59,66.913z M263.28,12.161c-0.895-1.67-3.135-2.897-6.118-3.352c-1.343-0.204-3.928-0.998-5.745-1.762
		c-3.958-1.666-3.899-1.661-3.899-0.335c0,1.628,1.327,2.379,5.653,3.204c4.244,0.809,8.91,2.795,9.765,4.158
		C263.771,15.406,264.084,13.664,263.28,12.161z"/>
</g>
</svg>
