<?xml version="1.0" encoding="utf-8"?>
<!-- Generator: Adobe Illustrator 18.1.1, SVG Export Plug-In . SVG Version: 6.00 Build 0)  -->
<svg version="1.1" id="Layer_1" xmlns="http://www.w3.org/2000/svg" xmlns:xlink="http://www.w3.org/1999/xlink" x="0px" y="0px"
	 viewBox="0 0 1440 1440" enable-background="new 0 0 1440 1440" xml:space="preserve">
<g id="background" opacity="0.48">
	<line fill="none" stroke="#B2B2B0" stroke-width="0.25" stroke-miterlimit="10" x1="1199.3" y1="863.8" x2="1302.8" y2="831.2"/>
	<path fill="#171714" d="M1307.7,828.4c1.6,3.4,0,7.6-3.4,9c-3.4,1.6-7.6,0-9-3.4c-1.6-3.4,0-7.6,3.4-9
		C1302.1,823.3,1306.1,824.9,1307.7,828.4z"/>
	<line fill="none" stroke="#B2B2B0" stroke-width="0.25" stroke-miterlimit="10" x1="119.3" y1="1370.7" x2="544.7" y2="1110.1"/>
	<line fill="none" stroke="#B2B2B0" stroke-width="0.25" stroke-miterlimit="10" x1="126" y1="1372" x2="369.5" y2="1136.2"/>
	<line fill="none" stroke="#B2B2B0" stroke-width="0.25" stroke-miterlimit="10" x1="124.7" y1="1378.6" x2="280.1" y2="956.3"/>
	<line fill="none" stroke="#B2B2B0" stroke-width="0.25" stroke-miterlimit="10" x1="124.7" y1="1378.6" x2="266.4" y2="712.8"/>
	<line fill="none" stroke="#B2B2B0" stroke-width="0.25" stroke-miterlimit="10" x1="126" y1="1372" x2="367" y2="950.9"/>
	<line fill="none" stroke="#B2B2B0" stroke-width="0.25" stroke-miterlimit="10" x1="126" y1="1372" x2="636.1" y2="1213.2"/>
	<circle fill="#171714" cx="126" cy="1372" r="6.8"/>
	<line fill="none" stroke="#B2B2B0" stroke-width="0.25" stroke-miterlimit="10" x1="115.7" y1="568.4" x2="234.9" y2="653.6"/>
	<line fill="none" stroke="#B2B2B0" stroke-width="0.25" stroke-miterlimit="10" x1="115.7" y1="568.4" x2="88.6" y2="427.3"/>
	<circle fill="#171714" cx="115.7" cy="568.3" r="6.8"/>
	<circle fill="#171714" cx="90.7" cy="427.3" r="6.8"/>
	<line fill="none" stroke="#B2B2B0" stroke-width="0.25" stroke-miterlimit="10" x1="530.6" y1="302.9" x2="503.5" y2="162"/>
	<circle fill="#171714" cx="505.6" cy="162" r="6.8"/>
	<g>
		<path fill="#FFFFFF" d="M383.8,706c-0.2,0-0.4,0-0.7,0l62.3,108c0.2,0,0.4,0,0.7,0L383.8,706z"/>
		<path fill="#FFFFFF" d="M249.7,1047.8c0.2,0.2,0.4,0.4,0.5,0.4l192.1-223.6c-0.2-0.2-0.4-0.2-0.5-0.4L249.7,1047.8z"/>
		<path fill="#FFFFFF" d="M305.1,1077.5c0-0.2,0-0.4,0.2-0.7l-55.4-20.2c-0.2,0.2-0.4,0.4-0.5,0.5L305.1,1077.5z"/>
		<path fill="#FFFFFF" d="M308.5,1084.3l-50.8,183.8c0.2-0.2,0.5-0.2,0.7-0.4l50.8-183.2c0,0,0,0-0.2,0
			C308.7,1084.5,308.5,1084.3,308.5,1084.3z"/>
		<path fill="#FFFFFF" d="M389,702c1.1-3.1-0.5-6.5-3.6-7.7c-3.1-1.1-6.5,0.5-7.7,3.6c-1.1,3.1,0.5,6.5,3.6,7.7
			c0.5,0.2,1.3,0.4,1.8,0.4c0.2,0,0.4,0,0.7,0C386.1,705.8,388.1,704.3,389,702z"/>
		<path fill="#FFFFFF" d="M448,814.1c-0.5-0.2-1.3-0.4-1.8-0.4c-0.2,0-0.4,0-0.7,0c-2.3,0.2-4.3,1.6-5.2,4s-0.2,4.9,1.4,6.3
			c0.2,0.2,0.4,0.4,0.5,0.4c0.5,0.4,1.1,0.7,1.6,0.9c3.1,1.1,6.5-0.5,7.7-3.6C452.7,818.8,451.1,815.4,448,814.1z"/>
		<path fill="#FFFFFF" d="M248,1046.7c-3.1-1.1-6.5,0.5-7.7,3.6c-1.1,3.1,0.5,6.5,3.6,7.7c2,0.7,4,0.4,5.6-0.7
			c0.2-0.2,0.4-0.4,0.5-0.5c0.7-0.7,1.3-1.4,1.6-2.3c0.9-2.2,0.2-4.7-1.4-6.3c-0.2-0.2-0.4-0.4-0.5-0.4
			C249.1,1047.4,248.6,1047.1,248,1046.7z"/>
		<path fill="#FFFFFF" d="M308.5,1084.3c0.2,0,0.4,0.2,0.5,0.2c0,0,0,0,0.2,0c3.1,1.1,6.5-0.5,7.6-3.6c1.1-3.1-0.5-6.5-3.6-7.7
			c-3.1-1.1-6.5,0.5-7.7,3.6l0,0c0,0.2-0.2,0.4-0.2,0.7C304.6,1080.2,305.8,1083.1,308.5,1084.3z"/>
		<path fill="#FFFFFF" d="M257.6,1268.1c-1.4,0.7-2.5,1.8-3.1,3.4c-1.1,3.1,0.5,6.5,3.6,7.7c3.1,1.1,6.5-0.5,7.7-3.6
			c1.1-3.1-0.5-6.5-3.6-7.7c-1.3-0.5-2.7-0.4-3.8,0C258.1,1267.9,257.9,1267.9,257.6,1268.1z"/>
	</g>
	<g>
		<path fill="#FFFFFF" d="M1329.3,496.4c-0.2,0-0.4-0.2-0.5-0.2l15.1,123.8c0.2,0,0.4,0.2,0.5,0.2L1329.3,496.4z"/>
		<path fill="#FFFFFF" d="M1071.9,758.5c0.2,0.2,0.2,0.4,0.4,0.5l264.4-130.3c-0.2-0.2-0.2-0.4-0.4-0.5L1071.9,758.5z"/>
		<path fill="#FFFFFF" d="M1111.1,807.5c0.2-0.2,0.2-0.4,0.4-0.5l-43-40.1c-0.2,0-0.5,0.2-0.7,0.2L1111.1,807.5z"/>
		<path fill="#FFFFFF" d="M1111.5,815L992.7,964.3c0.2,0,0.5,0,0.7,0l118.4-148.7c0,0,0,0-0.2,0
			C1111.9,815.4,1111.7,815.2,1111.5,815z"/>
		<path fill="#FFFFFF" d="M1335.6,495c2.3-2.3,2.2-6.3-0.4-8.5c-2.3-2.3-6.3-2.2-8.5,0.4c-2.3,2.3-2.2,6.3,0.4,8.5
			c0.5,0.4,1.1,0.7,1.6,1.1c0.2,0.2,0.4,0.2,0.5,0.2C1331.5,497.3,1333.8,496.8,1335.6,495z"/>
		<path fill="#FFFFFF" d="M1345.9,621.4c-0.5-0.4-1.1-0.7-1.6-1.1c-0.2-0.2-0.4-0.2-0.5-0.2c-2.2-0.7-4.7-0.2-6.3,1.6
			c-1.6,1.8-2,4.3-1.1,6.5c0,0.2,0.2,0.4,0.4,0.5c0.4,0.5,0.7,1.1,1.1,1.4c2.3,2.3,6.3,2.2,8.5-0.4
			C1348.4,627.5,1348.2,623.5,1345.9,621.4z"/>
		<path fill="#FFFFFF" d="M1070.6,756.9c-2.3-2.3-6.3-2.2-8.5,0.4c-2.3,2.3-2.2,6.3,0.4,8.5c1.4,1.4,3.4,1.8,5.4,1.4
			c0.2,0,0.5-0.2,0.7-0.2c0.9-0.4,1.8-0.7,2.3-1.6c1.6-1.8,2-4.1,1.3-6.3c0-0.2-0.2-0.4-0.4-0.5
			C1071.5,757.8,1071.2,757.3,1070.6,756.9z"/>
		<path fill="#FFFFFF" d="M1111.5,815c0.2,0.2,0.2,0.4,0.4,0.4c0,0,0,0,0.2,0c2.3,2.2,6.1,2,8.5-0.4s2.2-6.3-0.4-8.5
			c-2.3-2.3-6.3-2.2-8.5,0.4l0,0c-0.2,0.2-0.2,0.4-0.4,0.5C1109.5,809.8,1109.7,812.9,1111.5,815z"/>
		<path fill="#FFFFFF" d="M992.7,964.3c-1.4,0-3.1,0.7-4.1,2c-2.3,2.3-2.2,6.3,0.4,8.5c2.3,2.3,6.3,2.2,8.5-0.4
			c2.3-2.3,2.2-6.3-0.4-8.5c-1.1-0.9-2.3-1.4-3.6-1.6C993.2,964.3,993.1,964.3,992.7,964.3z"/>
	</g>
	<g>
		<path fill="#FFFFFF" d="M1129.9,1029.4c0-0.2,0-0.4,0-0.5l-220.7,15.8c0,0.2,0.2,0.4,0.2,0.5L1129.9,1029.4z"/>
		<path fill="#FFFFFF" d="M1005.7,1210.5c0.2,0.2,0.4,0.2,0.5,0.4l0,0l127.1-176.2c-0.2,0-0.4-0.2-0.5-0.2L1005.7,1210.5z"/>
		<path fill="#FFFFFF" d="M906.3,1050.8c-0.2,0-0.4,0.2-0.5,0.2l94,159.3c0.2-0.2,0.4-0.2,0.5-0.4L906.3,1050.8z"/>
		<path fill="#FFFFFF" d="M897.3,803.3c-0.2,0.2-0.4,0.2-0.5,0.4l5.6,237.1c0.2,0,0.4-0.2,0.5-0.2L897.3,803.3z"/>
		<path fill="#FFFFFF" d="M823.5,972.7c0.2,0,0.4,0.2,0.5,0.2l70.4-168.8c-0.2,0-0.4,0-0.5,0L823.5,972.7z"/>
		<path fill="#FFFFFF" d="M671.2,921.6c0,0.2-0.2,0.4-0.2,0.5l146.3,53.3c0.2-0.2,0.2-0.4,0.4-0.5L671.2,921.6z"/>
		<path fill="#FFFFFF" d="M1140.5,1031c0,0.2-0.2,0.4-0.2,0.5l147.4,130c0.2-0.2,0.4-0.2,0.5-0.4L1140.5,1031z"/>
		<path fill="#FFFFFF" d="M1352.7,1086.1l-59.4,74.9c0.2,0,0.4,0.2,0.5,0.4l59.2-74.7C1352.9,1086.5,1352.9,1086.3,1352.7,1086.1z"
			/>
		<path fill="#FFFFFF" d="M999,1218.8l-45.5,52.4c0.2,0.2,0.2,0.4,0.4,0.5l45.5-52.6l0,0C999.4,1219.1,999.2,1219,999,1218.8z"/>
		<path fill="#FFFFFF" d="M669.2,916.2c-2.3-1.8-5.8-1.4-7.6,0.9s-1.4,5.8,0.9,7.6c2.3,1.8,5.8,1.4,7.6-0.9c0.4-0.5,0.7-1.1,0.9-1.6
			c0-0.2,0.2-0.4,0.2-0.5C671.6,919.6,670.9,917.5,669.2,916.2z"/>
		<path fill="#FFFFFF" d="M817.7,974.5c0,0.2-0.2,0.2-0.2,0.4c-0.2,0.2-0.2,0.4-0.4,0.5c-1.3,2.3-0.7,5.2,1.4,6.8
			c2.3,1.8,5.8,1.4,7.6-0.9c1.8-2.3,1.4-5.8-0.9-7.6c-0.4-0.4-0.9-0.5-1.4-0.7c-0.2,0-0.4-0.2-0.5-0.2
			C821.3,972.2,819.2,972.9,817.7,974.5z"/>
		<path fill="#FFFFFF" d="M898.7,802.1c1.8-2.3,1.4-5.8-0.9-7.6s-5.8-1.4-7.6,0.9c-1.8,2.3-1.4,5.8,0.9,7.6c0.7,0.5,1.6,0.9,2.5,1.1
			c0.2,0,0.4,0,0.5,0c0.9,0,1.6-0.2,2.3-0.5c0.2,0,0.4-0.2,0.5-0.4C897.8,803.2,898.4,802.6,898.7,802.1z"/>
		<path fill="#FFFFFF" d="M908.3,1049.4c0.9-1.3,1.3-2.7,1.1-4c0-0.2,0-0.4-0.2-0.5c-0.4-1.1-0.9-2.2-1.8-3.1
			c-1.3-1.1-2.9-1.3-4.5-1.1c-0.2,0-0.4,0-0.5,0.2c-0.9,0.4-1.8,0.9-2.5,1.8c-1.8,2.3-1.4,5.8,0.9,7.6c1.4,1.3,3.4,1.4,5,0.9
			c0.2,0,0.4-0.2,0.5-0.2C907.2,1050.5,907.7,1049.9,908.3,1049.4z"/>
		<path fill="#FFFFFF" d="M1005.7,1210.5c-1.6-1.1-3.8-1.1-5.4-0.2c-0.2,0-0.4,0.2-0.5,0.4c-0.5,0.4-0.9,0.7-1.3,1.1
			c-1.8,2.2-1.4,5.4,0.5,7.2c0.2,0.2,0.2,0.2,0.4,0.4l0,0c2.3,1.8,5.8,1.4,7.6-0.9c1.8-2.3,1.4-5.8-0.9-7.6l0,0
			C1006,1210.7,1005.8,1210.5,1005.7,1210.5z"/>
		<path fill="#FFFFFF" d="M952.9,1270.6c-2.3-1.8-5.8-1.4-7.6,0.9s-1.4,5.8,0.9,7.6c2.3,1.8,5.8,1.4,7.6-0.9c1.4-2,1.4-4.5,0.2-6.5
			c-0.2-0.2-0.2-0.4-0.4-0.5C953.5,1271,953.1,1270.8,952.9,1270.6z"/>
		<path fill="#FFFFFF" d="M1138.7,1025.3c-2.3-1.8-5.8-1.4-7.6,0.9c-0.7,0.7-0.9,1.8-1.1,2.7c0,0.2,0,0.4,0,0.5c0,1.6,0.7,3.2,2,4.3
			c0.2,0.2,0.5,0.4,0.7,0.5c0.2,0.2,0.4,0.2,0.5,0.2c2.2,0.9,4.7,0.4,6.3-1.6c0.4-0.4,0.5-0.7,0.7-1.3c0-0.2,0.2-0.4,0.2-0.5
			C1141,1029.1,1140.5,1026.7,1138.7,1025.3z"/>
		<path fill="#FFFFFF" d="M1288.3,1161.2c-0.2,0.2-0.4,0.2-0.5,0.4c-0.4,0.2-0.7,0.5-0.9,0.9c-1.8,2.3-1.4,5.8,0.9,7.6
			c2.3,1.8,5.8,1.4,7.6-0.9s1.4-5.8-0.9-7.6c-0.2-0.2-0.4-0.2-0.5-0.4c-0.2-0.2-0.4-0.2-0.5-0.4
			C1291.7,1160.3,1289.7,1160.3,1288.3,1161.2z"/>
		<path fill="#FFFFFF" d="M1354.1,1087.7c2.3,1.8,5.8,1.4,7.6-0.9c1.8-2.3,1.4-5.8-0.9-7.6c-2.3-1.8-5.8-1.4-7.6,0.9
			c-1.4,1.8-1.4,4.1-0.5,5.9c0.2,0.2,0.2,0.4,0.4,0.5C1353.4,1087,1353.6,1087.4,1354.1,1087.7z"/>
	</g>
	<g>
		<path fill="#FFFFFF" d="M1240.6,223.9l24.8-80.8c-0.2,0-0.5,0-0.7-0.2l-24.8,80.8l-58.3-11.5c0,0.2,0,0.5,0,0.7l58.1,11.5
			l-20.3,66.1c0.2,0,0.5,0,0.7,0l20.3-66.1l48.4,9.5c0-0.2,0-0.5,0.2-0.7L1240.6,223.9z"/>
		<path fill="#FFFFFF" d="M1103.4,345.4l19.8-38c-0.2-0.2-0.4-0.2-0.5-0.4l-19.8,38l-52-31.3c0,0.2-0.2,0.4-0.4,0.5l52,31.3
			L997.4,547.4c0.2,0.2,0.4,0.2,0.5,0.4L1103,346l62.1,37.4c0.2-0.2,0.2-0.4,0.4-0.5L1103.4,345.4z"/>
		<path fill="#FFFFFF" d="M739.6,705.8c0.2,0.2,0.4,0.4,0.4,0.5l0,0l180.2-126.9c-0.2-0.2-0.4-0.2-0.7-0.4L739.6,705.8z"/>
		<path fill="#FFFFFF" d="M1172.9,298.3l1.6-78.5c-0.2,0-0.5,0-0.7-0.2l-1.6,78.7L1132,301c0,0.2,0,0.5,0,0.7l40-2.7l-1.6,81.2
			c0.2,0,0.5,0,0.7,0l1.6-81.2l40-2.7c0-0.2,0-0.5,0.2-0.7L1172.9,298.3z"/>
		<path fill="#FFFFFF" d="M960.7,496.8l82.1-179.5c-0.2,0-0.4-0.2-0.5-0.4l-81.9,179.1l-50.2-79.4c-0.2,0.2-0.4,0.4-0.5,0.5
			l50.4,79.6l-32.9,72c0.2,0.2,0.4,0.4,0.5,0.4l32.8-71.6l31.1,49.1c0.2,0,0.4-0.2,0.7-0.2L960.7,496.8z"/>
		<path fill="#FFFFFF" d="M1269.9,142c2.9-2,3.6-5.9,1.6-8.8c-2-2.9-5.9-3.6-8.8-1.6c-2.9,2-3.6,5.9-1.6,8.8
			c0.9,1.3,2.3,2.2,3.8,2.5c0.2,0,0.4,0.2,0.7,0.2C1266.8,143.3,1268.5,142.9,1269.9,142z"/>
		<path fill="#FFFFFF" d="M1300.1,231.5c-2-2.9-5.9-3.6-8.8-1.6c-1.3,0.9-2.2,2.2-2.5,3.6c0,0.2-0.2,0.4-0.2,0.7
			c-0.2,1.6,0.2,3.2,1.1,4.5c2,2.9,5.9,3.6,8.8,1.6C1301.6,238.3,1302.3,234.4,1300.1,231.5z"/>
		<path fill="#FFFFFF" d="M1179,218.7c2-1.3,2.9-3.6,2.7-5.8c0-0.2,0-0.5,0-0.7c-0.2-0.9-0.5-1.6-1.1-2.3c-2-2.9-5.9-3.6-8.8-1.6
			c-2.9,2-3.6,5.9-1.6,8.8c0.9,1.3,2.2,2.2,3.6,2.5c0.2,0,0.5,0.2,0.7,0.2C1175.9,220,1177.6,219.6,1179,218.7z"/>
		<path fill="#FFFFFF" d="M1215.5,291.8c-1.4,0.9-2.2,2.3-2.5,3.8c0,0.2,0,0.5-0.2,0.7c-0.2,1.4,0.2,3.1,1.1,4.3
			c2,2.9,5.9,3.6,8.8,1.6c2.9-2,3.6-5.9,1.6-8.8c-1.1-1.4-2.7-2.3-4.3-2.7c-0.2,0-0.5,0-0.7,0
			C1218.1,290.5,1216.8,290.9,1215.5,291.8z"/>
		<path fill="#FFFFFF" d="M1129.5,306.9c1.8-1.3,2.7-3.2,2.7-5.2c0-0.2,0-0.5,0-0.7c-0.2-1.1-0.4-2-1.1-2.9c-2-2.9-5.9-3.6-8.8-1.6
			c-2.9,2-3.6,5.9-1.6,8.8c0.5,0.7,1.3,1.4,2,1.8c0.2,0.2,0.4,0.2,0.5,0.4C1125.2,308.3,1127.5,308.2,1129.5,306.9z"/>
		<path fill="#FFFFFF" d="M1170.5,380.2c-1.3,0-2.3,0.4-3.4,1.1c-0.7,0.5-1.3,1.1-1.6,1.6c-0.2,0.2-0.2,0.4-0.4,0.5
			c-1.1,2-1.1,4.5,0.4,6.7c2,2.9,5.9,3.6,8.8,1.6c2.9-2,3.6-5.9,1.6-8.8c-1.1-1.6-2.9-2.5-4.7-2.7
			C1171.1,380.2,1170.9,380.2,1170.5,380.2z"/>
		<path fill="#FFFFFF" d="M1048.7,316.4c0.9-0.5,1.4-1.3,2-2.2c0.2-0.2,0.2-0.4,0.4-0.5c0.7-2,0.5-4.1-0.7-6.1
			c-2-2.9-5.9-3.6-8.8-1.6s-3.6,5.9-1.6,8.8c0.5,0.9,1.4,1.4,2.3,2c0.2,0.2,0.4,0.2,0.5,0.4C1044.5,317.9,1046.9,317.7,1048.7,316.4
			z"/>
		<path fill="#FFFFFF" d="M997.6,547.4c-1.6-1.3-3.6-1.6-5.4-1.1c-0.2,0-0.5,0.2-0.7,0.2c-0.5,0.2-0.9,0.4-1.4,0.7
			c-2.9,2-3.6,5.9-1.6,8.8c2,2.9,5.9,3.6,8.8,1.6c2.9-2,3.6-5.9,1.6-8.8c-0.2-0.4-0.5-0.7-0.9-0.9
			C997.9,547.7,997.7,547.6,997.6,547.4z"/>
		<path fill="#FFFFFF" d="M919.6,568.6c-2.9,2-3.6,5.9-1.6,8.8c0.4,0.7,1.1,1.1,1.6,1.6c0.2,0.2,0.4,0.4,0.7,0.4
			c2,1.1,4.5,1.1,6.7-0.4c2.9-2,3.6-5.9,1.6-8.8c-0.2-0.4-0.5-0.7-0.9-1.1c-0.2-0.2-0.4-0.4-0.5-0.4
			C924.8,567.2,922,567,919.6,568.6z"/>
		<path fill="#FFFFFF" d="M909.9,416.7c1.8-2.2,2-5.2,0.4-7.6c-2-2.9-5.9-3.6-8.8-1.6s-3.6,5.9-1.6,8.8c2,2.9,5.9,3.6,8.8,1.6
			c0.4-0.2,0.5-0.5,0.9-0.7C909.7,417.1,909.7,416.9,909.9,416.7z"/>
		<path fill="#FFFFFF" d="M739.6,705.8c-2.2-2.5-5.8-2.9-8.5-1.1c-2.9,2-3.6,5.9-1.6,8.8c2,2.9,5.9,3.6,8.8,1.6
			c2.9-2,3.6-5.9,1.6-8.8l0,0C740,706.1,739.8,706,739.6,705.8z"/>
	</g>
	<g>
		<path fill="#FFFFFF" d="M480.2,728.5c0.4,0,0.9,0,1.3,0l-0.5-4.9L480.2,728.5z"/>
		<path fill="#FFFFFF" d="M473,732.4c0.2-0.4,0.4-0.5,0.7-0.7L71.8,327.4c-0.2,0.2-0.5,0.5-0.7,0.7L473,732.4z"/>
		<path fill="#FFFFFF" d="M478.1,728.8l-252-585.9c-0.2,0.2-0.5,0.4-0.7,0.4c0,0,0,0-0.2,0l252,585.7l0,0
			C477.4,729,477.7,729,478.1,728.8z"/>
		<path fill="#FFFFFF" d="M481,723.8l0.5,4.9c0.4,0,0.7,0,1.1,0.2l-1.1-8.6L540,345.8c-0.4,0-0.7,0-1.1,0.2l-57.8,370.4l-44.3-370.3
			c-0.4,0-0.7,0-1.1,0.2L480.6,720l-1.3,8.5c0.4,0,0.7,0,1.1-0.2L481,723.8z"/>
		<path fill="#FFFFFF" d="M471.8,741.2c1.8,4.9,7.2,7,11.9,5c4.7-2,7.2-7.4,5.4-12.2c-1.1-2.9-3.6-4.9-6.3-5.6
			c-0.4,0-0.7-0.2-1.1-0.2s-0.9,0-1.3,0s-0.7,0-1.1,0.2c-0.4,0-0.7,0.2-1.3,0.4c-0.4,0.2-0.7,0.2-0.9,0.4l0,0
			c-1.3,0.5-2.5,1.4-3.4,2.5c-0.2,0.2-0.5,0.5-0.7,0.7C471.2,734.9,470.5,738.2,471.8,741.2z"/>
		<path fill="#FFFFFF" d="M56.5,324.9c1.8,4.7,7.2,7,11.9,5c1.1-0.4,2-1.1,2.7-1.8c0.2-0.2,0.5-0.5,0.7-0.7c2.3-2.5,3.1-6.3,1.8-9.7
			c-1.8-4.7-7.2-7-11.9-5C57.1,314.6,54.7,320,56.5,324.9z"/>
		<path fill="#FFFFFF" d="M226.1,142.9c4.1-2.2,6.3-7.4,4.5-11.7c-1.8-4.7-7.2-7-11.9-5c-4.7,2-7.2,7.4-5.4,12.2c1.8,4.7,7,7,11.9,5
			c0,0,0,0,0.2,0C225.5,143.3,225.7,143.1,226.1,142.9z"/>
		<path fill="#FFFFFF" d="M436.9,346.1c0.5-0.2,1.1-0.4,1.6-0.5c4.7-2,7.2-7.4,5.4-12.2c-1.8-4.7-7.2-7-11.9-5
			c-4.7,2-7.2,7.4-5.4,12.2c1.4,4,5.2,6.1,9.2,5.8C436.1,346.1,436.5,346.1,436.9,346.1z"/>
		<path fill="#FFFFFF" d="M542,345.1c4.7-2,7.2-7.4,5.4-12.2c-1.8-4.7-7.2-7-11.9-5c-4.7,2-7.2,7.4-5.4,12.2c1.4,3.8,5.2,5.9,9,5.8
			c0.4,0,0.7,0,1.1-0.2C540.7,345.6,541.4,345.4,542,345.1z"/>
	</g>
	<g>
		<line fill="none" stroke="#171714" stroke-width="0.25" stroke-miterlimit="10" x1="369.2" y1="378.2" x2="286.4" y2="572.9"/>
		<line fill="none" stroke="#171714" stroke-width="0.25" stroke-miterlimit="10" x1="286.4" y1="572.9" x2="452.2" y2="526.1"/>
		<line fill="none" stroke="#171714" stroke-width="0.25" stroke-miterlimit="10" x1="451.8" y1="529.2" x2="529.6" y2="302.8"/>
		<line fill="none" stroke="#171714" stroke-width="0.25" stroke-miterlimit="10" x1="367.2" y1="382.5" x2="576.2" y2="383.9"/>
		<line fill="none" stroke="#171714" stroke-width="0.25" stroke-miterlimit="10" x1="576.2" y1="383.9" x2="723.4" y2="246.1"/>
		<line fill="none" stroke="#171714" stroke-width="0.25" stroke-miterlimit="10" x1="721.8" y1="245.9" x2="898.9" y2="340"/>
		<line fill="none" stroke="#171714" stroke-width="0.25" stroke-miterlimit="10" x1="898.9" y1="340" x2="1005.5" y2="452.2"/>
		<line fill="none" stroke="#171714" stroke-width="0.25" stroke-miterlimit="10" x1="1005.5" y1="452.2" x2="1143.4" y2="387.7"/>
		<line fill="none" stroke="#171714" stroke-width="0.25" stroke-miterlimit="10" x1="1145.3" y1="386.1" x2="1107.7" y2="538.7"/>
		<line fill="none" stroke="#171714" stroke-width="0.25" stroke-miterlimit="10" x1="1107.7" y1="538.7" x2="1257.1" y2="677"/>
		<line fill="none" stroke="#171714" stroke-width="0.25" stroke-miterlimit="10" x1="1257.1" y1="677" x2="1084.7" y2="791.1"/>
		<line fill="none" stroke="#171714" stroke-width="0.25" stroke-miterlimit="10" x1="1084.7" y1="791.1" x2="1187.8" y2="931"/>
		<line fill="none" stroke="#171714" stroke-width="0.25" stroke-miterlimit="10" x1="1186.9" y1="926.5" x2="1064.2" y2="997.7"/>
		<line fill="none" stroke="#171714" stroke-width="0.25" stroke-miterlimit="10" x1="1064.2" y1="997.7" x2="1018.1" y2="1144.8"/>
		<line fill="none" stroke="#171714" stroke-width="0.25" stroke-miterlimit="10" x1="1018.1" y1="1144.8" x2="811.8" y2="1134.5"/>
		<line fill="none" stroke="#171714" stroke-width="0.25" stroke-miterlimit="10" x1="811.8" y1="1133.3" x2="642.1" y2="1212.1"/>
		<line fill="none" stroke="#171714" stroke-width="0.25" stroke-miterlimit="10" x1="642.1" y1="1212.1" x2="544.7" y2="1110.1"/>
		<line fill="none" stroke="#171714" stroke-width="0.25" stroke-miterlimit="10" x1="549.5" y1="1107.5" x2="369.5" y2="1136.2"/>
		<line fill="none" stroke="#171714" stroke-width="0.25" stroke-miterlimit="10" x1="369.5" y1="1136.2" x2="367.6" y2="944.6"/>
		<line fill="none" stroke="#171714" stroke-width="0.25" stroke-miterlimit="10" x1="367.6" y1="944.6" x2="251.3" y2="875.7"/>
		<line fill="none" stroke="#171714" stroke-width="0.25" stroke-miterlimit="10" x1="251.3" y1="875.7" x2="337.1" y2="716.9"/>
		<line fill="none" stroke="#171714" stroke-width="0.25" stroke-miterlimit="10" x1="337.1" y1="716.9" x2="286.4" y2="572.9"/>
		<line fill="none" stroke="#171714" stroke-width="0.25" stroke-miterlimit="10" x1="451.8" y1="529.2" x2="266.4" y2="712.8"/>
		<line fill="none" stroke="#171714" stroke-width="0.25" stroke-miterlimit="10" x1="266.4" y1="712.8" x2="356.4" y2="827.6"/>
		<line fill="none" stroke="#171714" stroke-width="0.25" stroke-miterlimit="10" x1="356.4" y1="827.6" x2="280.1" y2="956.3"/>
		<line fill="none" stroke="#171714" stroke-width="0.25" stroke-miterlimit="10" x1="280.6" y1="951.8" x2="463.9" y2="957.8"/>
		<line fill="none" stroke="#171714" stroke-width="0.25" stroke-miterlimit="10" x1="463.9" y1="957.8" x2="581.9" y2="1182.6"/>
		<line fill="none" stroke="#171714" stroke-width="0.25" stroke-miterlimit="10" x1="583" y1="1181.9" x2="662.8" y2="1135.8"/>
		<line fill="none" stroke="#171714" stroke-width="0.25" stroke-miterlimit="10" x1="661.7" y1="1136" x2="785.5" y2="1228"/>
		<line fill="none" stroke="#171714" stroke-width="0.25" stroke-miterlimit="10" x1="784.6" y1="1227.8" x2="870.5" y2="1078"/>
		<line fill="none" stroke="#171714" stroke-width="0.25" stroke-miterlimit="10" x1="870.1" y1="1078.6" x2="1038.1" y2="1126.4"/>
		<line fill="none" stroke="#171714" stroke-width="0.25" stroke-miterlimit="10" x1="1038.1" y1="1126.4" x2="1098" y2="961.7"/>
		<line fill="none" stroke="#171714" stroke-width="0.25" stroke-miterlimit="10" x1="1098" y1="961.7" x2="1201.5" y2="867.4"/>
		<line fill="none" stroke="#171714" stroke-width="0.25" stroke-miterlimit="10" x1="1201.5" y1="867.4" x2="1129.9" y2="723.8"/>
		<line fill="none" stroke="#171714" stroke-width="0.25" stroke-miterlimit="10" x1="1129.9" y1="723.8" x2="1212.8" y2="515.9"/>
		<line fill="none" stroke="#171714" stroke-width="0.25" stroke-miterlimit="10" x1="1212.8" y1="515.9" x2="1101.4" y2="505.3"/>
		<line fill="none" stroke="#171714" stroke-width="0.25" stroke-miterlimit="10" x1="1101.4" y1="505.3" x2="1085.2" y2="344.7"/>
		<line fill="none" stroke="#171714" stroke-width="0.25" stroke-miterlimit="10" x1="1085.2" y1="344.7" x2="900.4" y2="389"/>
		<line fill="none" stroke="#171714" stroke-width="0.25" stroke-miterlimit="10" x1="902.5" y1="390.6" x2="825.5" y2="248"/>
		<line fill="none" stroke="#171714" stroke-width="0.25" stroke-miterlimit="10" x1="825.5" y1="248" x2="692.3" y2="331.2"/>
		<line fill="none" stroke="#171714" stroke-width="0.25" stroke-miterlimit="10" x1="692.3" y1="331.2" x2="529.4" y2="302.9"/>
		<line fill="none" stroke="#171714" stroke-width="0.25" stroke-miterlimit="10" x1="379.8" y1="474.1" x2="499" y2="382.1"/>
		<line fill="none" stroke="#171714" stroke-width="0.25" stroke-miterlimit="10" x1="379.8" y1="474.1" x2="367.2" y2="382.5"/>
		<line fill="none" stroke="#171714" stroke-width="0.25" stroke-miterlimit="10" x1="529.6" y1="302.8" x2="606.4" y2="243.4"/>
		<line fill="none" stroke="#171714" stroke-width="0.25" stroke-miterlimit="10" x1="658.6" y1="359.6" x2="606.4" y2="243.4"/>
		<line fill="none" stroke="#171714" stroke-width="0.25" stroke-miterlimit="10" x1="379.8" y1="474.1" x2="286.4" y2="572.9"/>
		<line fill="none" stroke="#171714" stroke-width="0.25" stroke-miterlimit="10" x1="315.4" y1="661.5" x2="236.3" y2="652"/>
		<line fill="none" stroke="#171714" stroke-width="0.25" stroke-miterlimit="10" x1="236.3" y1="652" x2="266.4" y2="712.8"/>
		<line fill="none" stroke="#171714" stroke-width="0.25" stroke-miterlimit="10" x1="280.1" y1="956.3" x2="374.6" y2="1137.6"/>
		<line fill="none" stroke="#171714" stroke-width="0.25" stroke-miterlimit="10" x1="581.9" y1="1182.6" x2="642.1" y2="1212.1"/>
		<line fill="none" stroke="#171714" stroke-width="0.25" stroke-miterlimit="10" x1="870.5" y1="1078" x2="1064.2" y2="997.7"/>
		<line fill="none" stroke="#171714" stroke-width="0.25" stroke-miterlimit="10" x1="1201.5" y1="867.4" x2="1257.1" y2="677"/>
		<line fill="none" stroke="#171714" stroke-width="0.25" stroke-miterlimit="10" x1="825.5" y1="248" x2="1085.2" y2="344.7"/>
		<line fill="none" stroke="#171714" stroke-width="0.25" stroke-miterlimit="10" x1="1005.5" y1="452.2" x2="1107.7" y2="538.7"/>
		<line fill="none" stroke="#171714" stroke-width="0.25" stroke-miterlimit="10" x1="658.6" y1="359.6" x2="863.6" y2="323.3"/>
		<line fill="none" stroke="#171714" stroke-width="0.25" stroke-miterlimit="10" x1="1212.8" y1="515.9" x2="1234.3" y2="573.8"/>
		<line fill="none" stroke="#171714" stroke-width="0.25" stroke-miterlimit="10" x1="1234.3" y1="573.8" x2="1096.2" y2="634"/>
		<line fill="none" stroke="#171714" stroke-width="0.25" stroke-miterlimit="10" x1="1096.2" y1="634" x2="1129.9" y2="723.8"/>
		<line fill="none" stroke="#171714" stroke-width="0.25" stroke-miterlimit="10" x1="641.5" y1="1208.3" x2="784.6" y2="1279.6"/>
		<line fill="none" stroke="#171714" stroke-width="0.25" stroke-miterlimit="10" x1="784.6" y1="1279.6" x2="902.7" y2="1138.7"/>
	</g>
	<circle fill="#171714" cx="642.1" cy="322.4" r="6.8"/>
	<circle fill="#171714" cx="574.9" cy="384.1" r="6.8"/>
	<circle fill="#171714" cx="380.2" cy="471.8" r="6.8"/>
	<circle fill="#171714" cx="450.9" cy="527.9" r="6.8"/>
	<circle fill="#171714" cx="317.7" cy="662.6" r="6.8"/>
	<circle fill="#171714" cx="266.4" cy="712.8" r="6.8"/>
	<circle fill="#171714" cx="337.1" cy="716.9" r="6.8"/>
	<circle fill="#171714" cx="308.9" cy="768.6" r="6.8"/>
	<circle fill="#171714" cx="251.3" cy="875.7" r="6.8"/>
	<circle fill="#171714" cx="356.4" cy="827.6" r="6.8"/>
	<path fill="#171714" d="M314.8,910.1c-0.5,3.8-3.8,6.5-7.6,5.9c-3.8-0.5-6.5-3.8-5.9-7.6c0.5-3.8,3.8-6.5,7.6-5.9
		C312.7,902.9,315.2,906.3,314.8,910.1z"/>
	<circle fill="#171714" cx="282.1" cy="954.2" r="6.8"/>
	<circle fill="#171714" cx="367.9" cy="944.1" r="6.8"/>
	<circle fill="#171714" cx="461.9" cy="958.3" r="6.8"/>
	<path fill="#171714" d="M377.5,1135.3c-0.5,3.8-3.8,6.5-7.6,5.9c-3.8-0.5-6.5-3.8-5.9-7.6c0.5-3.8,3.8-6.5,7.6-5.9
		C375.3,1128.1,378,1131.5,377.5,1135.3z"/>
	<circle fill="#171714" cx="545.2" cy="1109.2" r="6.8"/>
	<path fill="#171714" d="M670.5,1138.5c-0.5,3.8-3.8,6.5-7.6,5.9c-3.8-0.5-6.5-4-5.9-7.6c0.5-3.8,3.8-6.5,7.6-5.9
		C668.3,1131.3,671,1134.7,670.5,1138.5z"/>
	<path fill="#171714" d="M791.8,1228.1c-0.5,3.8-3.8,6.5-7.6,5.9c-3.8-0.5-6.5-3.8-5.9-7.6c0.5-3.8,4-6.5,7.6-5.9
		C789.7,1220.9,792.4,1224.4,791.8,1228.1z"/>
	<path fill="#171714" d="M791.1,1279.8c-0.5,3.8-4,6.5-7.6,5.9c-3.8-0.5-6.5-3.8-5.9-7.6c0.5-3.8,3.8-6.5,7.6-5.9
		C788.8,1272.6,791.5,1276,791.1,1279.8z"/>
	<circle fill="#171714" cx="810" cy="1134.4" r="6.8"/>
	<path fill="#171714" d="M877.5,1081.8c-0.5,3.8-3.8,6.5-7.6,5.9c-3.8-0.5-6.5-4-5.9-7.6c0.5-3.8,3.8-6.5,7.6-5.9
		C875.3,1074.6,878,1078,877.5,1081.8z"/>
	<circle fill="#171714" cx="1037.7" cy="1126.1" r="6.8"/>
	<circle fill="#171714" cx="1018.1" cy="1143.7" r="6.8"/>
	<circle fill="#171714" cx="1088.6" cy="983.5" r="6.8"/>
	<path fill="#171714" d="M1193.4,929c-0.5,3.8-3.8,6.5-7.6,5.9s-6.5-4-5.9-7.6c0.5-3.8,3.8-6.5,7.6-5.9
		C1191.2,921.8,1193.9,925.2,1193.4,929z"/>
	<circle fill="#171714" cx="1083.6" cy="793.6" r="6.8"/>
	<circle fill="#171714" cx="1200.8" cy="865.8" r="6.8"/>
	<circle fill="#171714" cx="1128.6" cy="723.4" r="6.8"/>
	<circle fill="#171714" cx="1255.7" cy="677.9" r="6.8"/>
	<circle fill="#171714" cx="1096.6" cy="635" r="6.8"/>
	<circle fill="#171714" cx="1234.8" cy="574.7" r="6.8"/>
	<circle fill="#171714" cx="1211.9" cy="516.2" r="6.8"/>
	<circle fill="#171714" cx="1107.7" cy="539.3" r="6.8"/>
	<circle fill="#171714" cx="1177.4" cy="600.7" r="6.8"/>
	<path fill="#171714" d="M1108.1,506.2c-0.5,3.8-3.8,6.5-7.6,5.9c-3.8-0.5-6.5-3.8-5.9-7.6c0.5-3.8,3.8-6.5,7.6-5.9
		C1105.9,499,1108.6,502.4,1108.1,506.2z"/>
	<path fill="#171714" d="M1013,452.3c-0.5,3.8-4,6.5-7.6,5.9c-3.8-0.5-6.5-3.8-5.9-7.6s3.8-6.5,7.6-5.9
		C1010.9,445.1,1013.6,448.6,1013,452.3z"/>
	<circle fill="#171714" cx="1084.9" cy="346" r="6.8"/>
	<circle fill="#171714" cx="902" cy="389" r="6.8"/>
	<circle fill="#171714" cx="865.8" cy="323.6" r="6.8"/>
	<circle fill="#171714" cx="826.4" cy="249.3" r="6.8"/>
	<circle fill="#171714" cx="659.9" cy="359.1" r="6.8"/>
	<circle fill="#171714" cx="692.1" cy="331.9" r="6.8"/>
	<circle fill="#171714" cx="642.1" cy="1209.8" r="6.8"/>
	<path fill="#171714" d="M590,1184.8c-0.5,3.8-3.8,6.5-7.6,5.9c-3.8-0.5-6.5-3.8-5.9-7.6c0.5-3.8,3.8-6.5,7.6-5.9
		C587.9,1177.6,590.6,1181,590,1184.8z"/>
	<circle fill="#171714" cx="606.8" cy="244.4" r="6.8"/>
	<circle fill="#171714" cx="529.7" cy="301.5" r="6.8"/>
	<circle fill="#171714" cx="500.8" cy="384.3" r="6.8"/>
	<circle fill="#171714" cx="367.4" cy="382.5" r="6.8"/>
	<circle fill="#171714" cx="286.4" cy="572.9" r="6.8"/>
	<circle fill="#171714" cx="236.3" cy="654.3" r="6.8"/>
	<circle fill="#171714" cx="722.7" cy="247.1" r="6.8"/>
	<line fill="none" stroke="#B2B2B0" stroke-width="0.25" stroke-miterlimit="10" x1="1018.1" y1="1144.8" x2="1358.5" y2="1375.2"/>
	<line fill="none" stroke="#B2B2B0" stroke-width="0.25" stroke-miterlimit="10" x1="1356.5" y1="1372.9" x2="1187.8" y2="931"/>
	<line fill="none" stroke="#B2B2B0" stroke-width="0.25" stroke-miterlimit="10" x1="1088.6" y1="983.5" x2="1358.5" y2="1375.2"/>
	<line fill="none" stroke="#B2B2B0" stroke-width="0.25" stroke-miterlimit="10" x1="1358.5" y1="1375.2" x2="784.6" y2="1279.6"/>
	<line fill="none" stroke="#B2B2B0" stroke-width="0.25" stroke-miterlimit="10" x1="1351.6" y1="1374.5" x2="811.8" y2="1134.5"/>
	<circle fill="#171714" cx="1358.5" cy="1375.2" r="6.8"/>
	<line fill="none" stroke="#B2B2B0" stroke-width="0.25" stroke-miterlimit="10" x1="275.2" y1="953.5" x2="145.6" y2="922"/>
	<line fill="none" stroke="#B2B2B0" stroke-width="0.25" stroke-miterlimit="10" x1="139.3" y1="921.2" x2="159.3" y2="1071.7"/>
	<line fill="none" stroke="#B2B2B0" stroke-width="0.25" stroke-miterlimit="10" x1="159.3" y1="1071.7" x2="104.2" y2="1071.4"/>
	<line fill="none" stroke="#B2B2B0" stroke-width="0.25" stroke-miterlimit="10" x1="829.4" y1="253.3" x2="932.8" y2="220.7"/>
	<line fill="none" stroke="#B2B2B0" stroke-width="0.25" stroke-miterlimit="10" x1="932.8" y1="220.7" x2="897.7" y2="123.5"/>
	<line fill="none" stroke="#B2B2B0" stroke-width="0.25" stroke-miterlimit="10" x1="897.7" y1="123.5" x2="829.4" y2="253.3"/>
	<line fill="none" stroke="#B2B2B0" stroke-width="0.25" stroke-miterlimit="10" x1="897.7" y1="123.5" x2="1033.7" y2="77.6"/>
	<circle fill="#171714" cx="104.2" cy="1071.4" r="6.8"/>
	<path fill="#171714" d="M166,1072.6c-0.5,3.8-3.8,6.5-7.6,5.9c-3.8-0.5-6.5-3.8-5.9-7.6c0.5-3.8,3.8-6.5,7.6-5.9
		C163.8,1065.4,166.5,1068.8,166,1072.6z"/>
	<circle fill="#171714" cx="139.3" cy="921.2" r="6.8"/>
	<circle fill="#171714" cx="606.8" cy="244.4" r="6.8"/>
	<circle fill="#171714" cx="529.7" cy="301.5" r="6.8"/>
	<circle fill="#171714" cx="500.8" cy="384.3" r="6.8"/>
	<circle fill="#171714" cx="367.4" cy="382.5" r="6.8"/>
	<circle fill="#171714" cx="286.4" cy="572.9" r="6.8"/>
	<circle fill="#171714" cx="236.3" cy="654.3" r="6.8"/>
	<circle fill="#171714" cx="722.7" cy="247.1" r="6.8"/>
	<path fill="#171714" d="M1151.6,388.8c-0.5,3.8-4,6.5-7.6,5.9c-3.8-0.5-6.5-3.8-5.9-7.6c0.5-3.8,3.8-6.5,7.6-5.9
		C1149.3,381.6,1152,385,1151.6,388.8z"/>
	<path fill="#171714" d="M937.8,217.8c1.6,3.4,0,7.6-3.4,9c-3.4,1.6-7.6,0-9-3.4c-1.6-3.4,0-7.6,3.4-9
		C932.2,212.8,936.2,214.4,937.8,217.8z"/>
	<circle fill="#171714" cx="1034.1" cy="78.8" r="6.8"/>
	<circle fill="#171714" cx="897.8" cy="123.5" r="6.8"/>
</g>
<g id="text" opacity="0.48">
</g>
</svg>
