<?xml version="1.0" encoding="utf-8"?>
<!-- Generator: Adobe Illustrator 18.1.1, SVG Export Plug-In . SVG Version: 6.00 Build 0)  -->
<svg version="1.1" id="Layer_1" xmlns="http://www.w3.org/2000/svg" xmlns:xlink="http://www.w3.org/1999/xlink" x="0px" y="0px"
	 viewBox="0 0 100 100" enable-background="new 0 0 100 100" xml:space="preserve">
<rect fill="#DC4E41" width="100" height="100"/>
<g>
	<g>
		<g>
			<path fill="#FFFFFF" d="M23.1,50c-0.6,8,4.6,15.9,12.1,18.7c7.4,2.9,16.9,0.9,21.7-5.8c3.1-4.2,3.8-9.6,3.4-14.7
				c-6.1,0-12.1,0-18.2,0c0,2.2,0,4.3,0,6.5c3.6,0.1,7.3,0.1,10.9,0.1c-1.6,8-12.5,10.7-18.3,5.4c-6-4.6-5.7-14.7,0.5-19
				c4.3-3.5,10.5-2.6,14.8,0.4c1.7-1.6,3.3-3.3,4.8-5c-3.6-2.9-8-4.9-12.7-4.7C32.3,31.6,23.2,40.2,23.1,50z M72.1,42.8
				c0,1.8,0,3.6,0,5.4c-1.8,0-3.6,0-5.4,0c0,1.8,0,3.6,0,5.4c1.8,0,3.6,0,5.4,0.1c0,1.8,0,3.6,0,5.4c1.8,0,3.6,0,5.4,0
				c0-1.8,0-3.6,0-5.4c1.8,0,3.6,0,5.4,0c0-1.8,0-3.6,0-5.4c-1.8,0-3.6,0-5.4,0c0-1.8,0-3.6,0-5.4C75.7,42.8,73.9,42.8,72.1,42.8z"
				/>
		</g>
	</g>
	<g>
		<path fill="#FFFFFF" d="M23.1,50c0.2-9.8,9.2-18.4,19-18.1c4.7-0.2,9.1,1.8,12.7,4.7c-1.5,1.7-3.1,3.4-4.8,5
			c-4.3-3-10.5-3.8-14.8-0.4c-6.2,4.3-6.5,14.4-0.5,19c5.8,5.3,16.7,2.6,18.3-5.4c-3.6-0.1-7.3,0-10.9-0.1c0-2.2,0-4.3,0-6.5
			c6.1,0,12.1,0,18.2,0c0.4,5.1-0.3,10.5-3.4,14.7c-4.7,6.7-14.2,8.6-21.7,5.8C27.7,65.9,22.4,58.1,23.1,50z"/>
		<path fill="#FFFFFF" d="M72.1,42.8c1.8,0,3.6,0,5.4,0c0,1.8,0,3.6,0,5.4c1.8,0,3.6,0,5.4,0c0,1.8,0,3.6,0,5.4c-1.8,0-3.6,0-5.4,0
			c0,1.8,0,3.6,0,5.4c-1.8,0-3.6,0-5.4,0c0-1.8,0-3.6,0-5.4c-1.8,0-3.6,0-5.4-0.1c0-1.8,0-3.6,0-5.4c1.8,0,3.6,0,5.4,0
			C72.1,46.4,72.1,44.6,72.1,42.8z"/>
	</g>
</g>
</svg>
