<?xml version="1.0" encoding="utf-8"?>
<!-- Generator: Adobe Illustrator 18.1.1, SVG Export Plug-In . SVG Version: 6.00 Build 0)  -->
<svg version="1.1" id="Layer_1" xmlns="http://www.w3.org/2000/svg" xmlns:xlink="http://www.w3.org/1999/xlink" x="0px" y="0px"
	 viewBox="0 0 100 100" enable-background="new 0 0 100 100" xml:space="preserve">
<rect fill="#5C90CC" width="100" height="100"/>
<g>
	<path fill="#FFFFFF" d="M77.3,36.1c-1.5,2.3-3.4,4.2-5.6,5.8c0,0.3,0,0.8,0,1.5c0,3-0.4,6-1.3,9c-0.9,3-2.2,5.9-4,8.6
		c-1.8,2.8-3.9,5.2-6.4,7.3c-2.5,2.1-5.5,3.8-9,5.1s-7.2,1.9-11.2,1.9c-6.3,0-12-1.7-17.2-5c0.8,0.1,1.7,0.1,2.7,0.1
		c5.2,0,9.8-1.6,13.9-4.8c-2.4,0-4.6-0.8-6.5-2.2s-3.2-3.3-4-5.5c0.8,0.1,1.5,0.2,2.1,0.2c1,0,2-0.1,2.9-0.4
		c-2.6-0.5-4.7-1.8-6.4-3.9c-1.7-2-2.6-4.4-2.6-7.1v-0.1c1.6,0.9,3.3,1.4,5.1,1.4c-1.5-1-2.7-2.3-3.6-4S25,40.4,25,38.5
		c0-2,0.5-3.9,1.5-5.7c2.8,3.4,6.2,6.2,10.2,8.3c4,2.1,8.3,3.2,12.9,3.5c-0.2-0.9-0.3-1.7-0.3-2.6c0-3.1,1.1-5.7,3.3-7.9
		c2.2-2.2,4.8-3.3,7.9-3.3c3.2,0,6,1.2,8.2,3.5c2.5-0.5,4.9-1.4,7.1-2.7c-0.9,2.7-2.5,4.7-4.9,6.2C73,37.6,75.2,37,77.3,36.1z"/>
</g>
</svg>
